%FSLAX45Y45*%
G04 Gerber Fmt 4.5, Leading zero omitted, Abs format (unit mm)*
G04 Created by KiCad (PCBNEW 5.1.5+dfsg1-2build2) date 2021-10-10 13:02:02*
%MOMM*%
%LPD*%
G04 APERTURE LIST*
%TA.AperFunction,Profile*%
%ADD10C,0.050000*%
%TD*%
%ADD11C,0.200000*%
%ADD12C,0.300000*%
G04 APERTURE END LIST*
D10*
X16582000Y-5792000D02*
X16582104Y-12315978D01*
X16715000Y-12465000D02*
X19246978Y-12467896D01*
X16715000Y-12465000D02*
G75*
G02X16582104Y-12315978I17104J149022D01*
G01*
X19396000Y-5792000D02*
X19396000Y-12335000D01*
X16732000Y-5642000D02*
X19245856Y-5641898D01*
X19396000Y-12335000D02*
G75*
G02X19246978Y-12467896I-149022J17104D01*
G01*
X16582000Y-5792000D02*
G75*
G02X16732000Y-5642000I150000J0D01*
G01*
X19245856Y-5641898D02*
G75*
G02X19396000Y-5792000I0J-150144D01*
G01*
D11*
X16670000Y-11340000D02*
X16710000Y-11380000D01*
X16710000Y-11340000D02*
X16670000Y-11380000D01*
X16670000Y-11520000D02*
X16710000Y-11560000D01*
X16710000Y-11520000D02*
X16670000Y-11560000D01*
X16815000Y-12179000D02*
X16855000Y-12219000D01*
X16855000Y-12179000D02*
X16815000Y-12219000D01*
X16835000Y-11789000D02*
X16875000Y-11829000D01*
X16875000Y-11789000D02*
X16835000Y-11829000D01*
X16976834Y-10695052D02*
X17016834Y-10735052D01*
X17016834Y-10695052D02*
X16976834Y-10735052D01*
X17010000Y-9690000D02*
X17050000Y-9730000D01*
X17050000Y-9690000D02*
X17010000Y-9730000D01*
X17060000Y-11440000D02*
X17100000Y-11480000D01*
X17100000Y-11440000D02*
X17060000Y-11480000D01*
X17100000Y-9800000D02*
X17140000Y-9840000D01*
X17140000Y-9800000D02*
X17100000Y-9840000D01*
X17160000Y-11420000D02*
X17200000Y-11460000D01*
X17200000Y-11420000D02*
X17160000Y-11460000D01*
X17208080Y-8365420D02*
X17248080Y-8405420D01*
X17248080Y-8365420D02*
X17208080Y-8405420D01*
X17215700Y-9317920D02*
X17255700Y-9357920D01*
X17255700Y-9317920D02*
X17215700Y-9357920D01*
X17237798Y-7683938D02*
X17277798Y-7723938D01*
X17277798Y-7683938D02*
X17237798Y-7723938D01*
X17238814Y-7532808D02*
X17278814Y-7572808D01*
X17278814Y-7532808D02*
X17238814Y-7572808D01*
X17239322Y-7386250D02*
X17279322Y-7426250D01*
X17279322Y-7386250D02*
X17239322Y-7426250D01*
X17244910Y-5735250D02*
X17284910Y-5775250D01*
X17284910Y-5735250D02*
X17244910Y-5775250D01*
X17285000Y-6100000D02*
X17325000Y-6140000D01*
X17325000Y-6100000D02*
X17285000Y-6140000D01*
X17296834Y-10705052D02*
X17336834Y-10745052D01*
X17336834Y-10705052D02*
X17296834Y-10745052D01*
X17307500Y-11402500D02*
X17347500Y-11442500D01*
X17347500Y-11402500D02*
X17307500Y-11442500D01*
X17340000Y-10490000D02*
X17380000Y-10530000D01*
X17380000Y-10490000D02*
X17340000Y-10530000D01*
X17342932Y-11559352D02*
X17382932Y-11599352D01*
X17382932Y-11559352D02*
X17342932Y-11599352D01*
X17370000Y-10000000D02*
X17410000Y-10040000D01*
X17410000Y-10000000D02*
X17370000Y-10040000D01*
X17376345Y-9423381D02*
X17416345Y-9463381D01*
X17416345Y-9423381D02*
X17376345Y-9463381D01*
X17400000Y-11200000D02*
X17440000Y-11240000D01*
X17440000Y-11200000D02*
X17400000Y-11240000D01*
X17450039Y-7532554D02*
X17490039Y-7572554D01*
X17490039Y-7532554D02*
X17450039Y-7572554D01*
X17550000Y-9250000D02*
X17590000Y-9290000D01*
X17590000Y-9250000D02*
X17550000Y-9290000D01*
X17589334Y-8850052D02*
X17629334Y-8890052D01*
X17629334Y-8850052D02*
X17589334Y-8890052D01*
X17594160Y-8365420D02*
X17634160Y-8405420D01*
X17634160Y-8365420D02*
X17594160Y-8405420D01*
X17603470Y-6304630D02*
X17643470Y-6344630D01*
X17643470Y-6304630D02*
X17603470Y-6344630D01*
X17603470Y-6454630D02*
X17643470Y-6494630D01*
X17643470Y-6454630D02*
X17603470Y-6494630D01*
X17603470Y-6604630D02*
X17643470Y-6644630D01*
X17643470Y-6604630D02*
X17603470Y-6644630D01*
X17603470Y-6754630D02*
X17643470Y-6794630D01*
X17643470Y-6754630D02*
X17603470Y-6794630D01*
X17630000Y-10950000D02*
X17670000Y-10990000D01*
X17670000Y-10950000D02*
X17630000Y-10990000D01*
X17644938Y-10736138D02*
X17684938Y-10776138D01*
X17684938Y-10736138D02*
X17644938Y-10776138D01*
X17720000Y-9250000D02*
X17760000Y-9290000D01*
X17760000Y-9250000D02*
X17720000Y-9290000D01*
X17730000Y-10400000D02*
X17770000Y-10440000D01*
X17770000Y-10400000D02*
X17730000Y-10440000D01*
X17753470Y-6304630D02*
X17793470Y-6344630D01*
X17793470Y-6304630D02*
X17753470Y-6344630D01*
X17753470Y-6454630D02*
X17793470Y-6494630D01*
X17793470Y-6454630D02*
X17753470Y-6494630D01*
X17753470Y-6604630D02*
X17793470Y-6644630D01*
X17793470Y-6604630D02*
X17753470Y-6644630D01*
X17753470Y-6754630D02*
X17793470Y-6794630D01*
X17793470Y-6754630D02*
X17753470Y-6794630D01*
X17756405Y-9961913D02*
X17796405Y-10001913D01*
X17796405Y-9961913D02*
X17756405Y-10001913D01*
X17761800Y-8854370D02*
X17801800Y-8894370D01*
X17801800Y-8854370D02*
X17761800Y-8894370D01*
X17766898Y-11372572D02*
X17806898Y-11412572D01*
X17806898Y-11372572D02*
X17766898Y-11412572D01*
X17830651Y-9887667D02*
X17870651Y-9927667D01*
X17870651Y-9887667D02*
X17830651Y-9927667D01*
X17871898Y-11372572D02*
X17911898Y-11412572D01*
X17911898Y-11372572D02*
X17871898Y-11412572D01*
X17890000Y-9250000D02*
X17930000Y-9290000D01*
X17930000Y-9250000D02*
X17890000Y-9290000D01*
X17903470Y-6304630D02*
X17943470Y-6344630D01*
X17943470Y-6304630D02*
X17903470Y-6344630D01*
X17903470Y-6454630D02*
X17943470Y-6494630D01*
X17943470Y-6454630D02*
X17903470Y-6494630D01*
X17903470Y-6604630D02*
X17943470Y-6644630D01*
X17943470Y-6604630D02*
X17903470Y-6644630D01*
X17903470Y-6754630D02*
X17943470Y-6794630D01*
X17943470Y-6754630D02*
X17903470Y-6794630D01*
X17962968Y-8215052D02*
X18002968Y-8255052D01*
X18002968Y-8215052D02*
X17962968Y-8255052D01*
X17999250Y-8619290D02*
X18039250Y-8659290D01*
X18039250Y-8619290D02*
X17999250Y-8659290D01*
X17999250Y-8849290D02*
X18039250Y-8889290D01*
X18039250Y-8849290D02*
X17999250Y-8889290D01*
X18004348Y-9975154D02*
X18044348Y-10015154D01*
X18044348Y-9975154D02*
X18004348Y-10015154D01*
X18045500Y-9710000D02*
X18085500Y-9750000D01*
X18085500Y-9710000D02*
X18045500Y-9750000D01*
X18053470Y-6304630D02*
X18093470Y-6344630D01*
X18093470Y-6304630D02*
X18053470Y-6344630D01*
X18053470Y-6454630D02*
X18093470Y-6494630D01*
X18093470Y-6454630D02*
X18053470Y-6494630D01*
X18053470Y-6604630D02*
X18093470Y-6644630D01*
X18093470Y-6604630D02*
X18053470Y-6644630D01*
X18053470Y-6754630D02*
X18093470Y-6794630D01*
X18093470Y-6754630D02*
X18053470Y-6794630D01*
X18070000Y-9250000D02*
X18110000Y-9290000D01*
X18110000Y-9250000D02*
X18070000Y-9290000D01*
X18110000Y-11100000D02*
X18150000Y-11140000D01*
X18150000Y-11100000D02*
X18110000Y-11140000D01*
X18172500Y-9710000D02*
X18212500Y-9750000D01*
X18212500Y-9710000D02*
X18172500Y-9750000D01*
X18224312Y-11586022D02*
X18264312Y-11626022D01*
X18264312Y-11586022D02*
X18224312Y-11626022D01*
X18230000Y-11400000D02*
X18270000Y-11440000D01*
X18270000Y-11400000D02*
X18230000Y-11440000D01*
X18250000Y-11090000D02*
X18290000Y-11130000D01*
X18290000Y-11090000D02*
X18250000Y-11130000D01*
X18295910Y-10780080D02*
X18335910Y-10820080D01*
X18335910Y-10780080D02*
X18295910Y-10820080D01*
X18300000Y-9880000D02*
X18340000Y-9920000D01*
X18340000Y-9880000D02*
X18300000Y-9920000D01*
X18347502Y-11221024D02*
X18387502Y-11261024D01*
X18387502Y-11221024D02*
X18347502Y-11261024D01*
X18423956Y-10111044D02*
X18463956Y-10151044D01*
X18463956Y-10111044D02*
X18423956Y-10151044D01*
X18470000Y-11070000D02*
X18510000Y-11110000D01*
X18510000Y-11070000D02*
X18470000Y-11110000D01*
X18478820Y-10363520D02*
X18518820Y-10403520D01*
X18518820Y-10363520D02*
X18478820Y-10403520D01*
X18509554Y-11505250D02*
X18549554Y-11545250D01*
X18549554Y-11505250D02*
X18509554Y-11545250D01*
X18539780Y-9606600D02*
X18579780Y-9646600D01*
X18579780Y-9606600D02*
X18539780Y-9646600D01*
X18543500Y-9970000D02*
X18583500Y-10010000D01*
X18583500Y-9970000D02*
X18543500Y-10010000D01*
X18552500Y-10110000D02*
X18592500Y-10150000D01*
X18592500Y-10110000D02*
X18552500Y-10150000D01*
X18590348Y-7528744D02*
X18630348Y-7568744D01*
X18630348Y-7528744D02*
X18590348Y-7568744D01*
X18590348Y-7832528D02*
X18630348Y-7872528D01*
X18630348Y-7832528D02*
X18590348Y-7872528D01*
X18590602Y-7682922D02*
X18630602Y-7722922D01*
X18630602Y-7682922D02*
X18590602Y-7722922D01*
X18592126Y-5882062D02*
X18632126Y-5922062D01*
X18632126Y-5882062D02*
X18592126Y-5922062D01*
X18593396Y-7383710D02*
X18633396Y-7423710D01*
X18633396Y-7383710D02*
X18593396Y-7423710D01*
X18595428Y-6482010D02*
X18635428Y-6522010D01*
X18635428Y-6482010D02*
X18595428Y-6522010D01*
X18596444Y-6331134D02*
X18636444Y-6371134D01*
X18636444Y-6331134D02*
X18596444Y-6371134D01*
X18630480Y-8749976D02*
X18670480Y-8789976D01*
X18670480Y-8749976D02*
X18630480Y-8789976D01*
X18630480Y-8944032D02*
X18670480Y-8984032D01*
X18670480Y-8944032D02*
X18630480Y-8984032D01*
X18643920Y-10632760D02*
X18683920Y-10672760D01*
X18683920Y-10632760D02*
X18643920Y-10672760D01*
X18755641Y-8478625D02*
X18795641Y-8518625D01*
X18795641Y-8478625D02*
X18755641Y-8518625D01*
X18775260Y-8122596D02*
X18815260Y-8162596D01*
X18815260Y-8122596D02*
X18775260Y-8162596D01*
X18783620Y-10505760D02*
X18823620Y-10545760D01*
X18823620Y-10505760D02*
X18783620Y-10545760D01*
X18783920Y-10731820D02*
X18823920Y-10771820D01*
X18823920Y-10731820D02*
X18783920Y-10771820D01*
X18829887Y-8404379D02*
X18869887Y-8444379D01*
X18869887Y-8404379D02*
X18829887Y-8444379D01*
X18836960Y-9393240D02*
X18876960Y-9433240D01*
X18876960Y-9393240D02*
X18836960Y-9433240D01*
X18844580Y-9510080D02*
X18884580Y-9550080D01*
X18884580Y-9510080D02*
X18844580Y-9550080D01*
X18918455Y-10861321D02*
X18958455Y-10901321D01*
X18958455Y-10861321D02*
X18918455Y-10901321D01*
X18992701Y-10935567D02*
X19032701Y-10975567D01*
X19032701Y-10935567D02*
X18992701Y-10975567D01*
X17389898Y-11812862D02*
G75*
G03X17389898Y-11812862I-32500J0D01*
G01*
X17334898Y-11757862D02*
X17334898Y-11867862D01*
X17379898Y-11757862D02*
X17379898Y-11867862D01*
X17334898Y-11867862D02*
G75*
G03X17379898Y-11867862I22500J0D01*
G01*
X17379898Y-11757862D02*
G75*
G03X17334898Y-11757862I-22500J0D01*
G01*
X17389898Y-12230862D02*
G75*
G03X17389898Y-12230862I-32500J0D01*
G01*
X17334898Y-12200862D02*
X17334898Y-12260862D01*
X17379898Y-12200862D02*
X17379898Y-12260862D01*
X17334898Y-12260862D02*
G75*
G03X17379898Y-12260862I22500J0D01*
G01*
X17379898Y-12200862D02*
G75*
G03X17334898Y-12200862I-22500J0D01*
G01*
X18253898Y-11812862D02*
G75*
G03X18253898Y-11812862I-32500J0D01*
G01*
X18198898Y-11757862D02*
X18198898Y-11867862D01*
X18243898Y-11757862D02*
X18243898Y-11867862D01*
X18198898Y-11867862D02*
G75*
G03X18243898Y-11867862I22500J0D01*
G01*
X18243898Y-11757862D02*
G75*
G03X18198898Y-11757862I-22500J0D01*
G01*
X18253898Y-12230862D02*
G75*
G03X18253898Y-12230862I-32500J0D01*
G01*
X18198898Y-12200862D02*
X18198898Y-12260862D01*
X18243898Y-12200862D02*
X18243898Y-12260862D01*
X18198898Y-12260862D02*
G75*
G03X18243898Y-12260862I22500J0D01*
G01*
X18243898Y-12200862D02*
G75*
G03X18198898Y-12200862I-22500J0D01*
G01*
X18950000Y-11624000D02*
X18950000Y-11716000D01*
X18904000Y-11670000D02*
X18996000Y-11670000D01*
X18950000Y-11824000D02*
X18950000Y-11916000D01*
X18904000Y-11870000D02*
X18996000Y-11870000D01*
X18950000Y-12024000D02*
X18950000Y-12116000D01*
X18904000Y-12070000D02*
X18996000Y-12070000D01*
X18950000Y-12224000D02*
X18950000Y-12316000D01*
X18904000Y-12270000D02*
X18996000Y-12270000D01*
X16778356Y-5836856D02*
X16778356Y-5766144D01*
X16707644Y-5766144D01*
X16707644Y-5836856D01*
X16778356Y-5836856D01*
X16778356Y-6090856D02*
X16778356Y-6020144D01*
X16707644Y-6020144D01*
X16707644Y-6090856D01*
X16778356Y-6090856D01*
X16778356Y-6344856D02*
X16778356Y-6274144D01*
X16707644Y-6274144D01*
X16707644Y-6344856D01*
X16778356Y-6344856D01*
X16778356Y-6598856D02*
X16778356Y-6528144D01*
X16707644Y-6528144D01*
X16707644Y-6598856D01*
X16778356Y-6598856D01*
X16778356Y-6852856D02*
X16778356Y-6782144D01*
X16707644Y-6782144D01*
X16707644Y-6852856D01*
X16778356Y-6852856D01*
X16778356Y-7106856D02*
X16778356Y-7036144D01*
X16707644Y-7036144D01*
X16707644Y-7106856D01*
X16778356Y-7106856D01*
X16778356Y-7360856D02*
X16778356Y-7290144D01*
X16707644Y-7290144D01*
X16707644Y-7360856D01*
X16778356Y-7360856D01*
X16778356Y-7614856D02*
X16778356Y-7544144D01*
X16707644Y-7544144D01*
X16707644Y-7614856D01*
X16778356Y-7614856D01*
X16778356Y-7868856D02*
X16778356Y-7798144D01*
X16707644Y-7798144D01*
X16707644Y-7868856D01*
X16778356Y-7868856D01*
X16778356Y-8122856D02*
X16778356Y-8052144D01*
X16707644Y-8052144D01*
X16707644Y-8122856D01*
X16778356Y-8122856D01*
X16778356Y-8376856D02*
X16778356Y-8306144D01*
X16707644Y-8306144D01*
X16707644Y-8376856D01*
X16778356Y-8376856D01*
X16778356Y-8630856D02*
X16778356Y-8560144D01*
X16707644Y-8560144D01*
X16707644Y-8630856D01*
X16778356Y-8630856D01*
X16778356Y-8884856D02*
X16778356Y-8814144D01*
X16707644Y-8814144D01*
X16707644Y-8884856D01*
X16778356Y-8884856D01*
X16778356Y-9138856D02*
X16778356Y-9068144D01*
X16707644Y-9068144D01*
X16707644Y-9138856D01*
X16778356Y-9138856D01*
X16778356Y-9392856D02*
X16778356Y-9322144D01*
X16707644Y-9322144D01*
X16707644Y-9392856D01*
X16778356Y-9392856D01*
X16778356Y-9646856D02*
X16778356Y-9576144D01*
X16707644Y-9576144D01*
X16707644Y-9646856D01*
X16778356Y-9646856D01*
X16778356Y-9900856D02*
X16778356Y-9830144D01*
X16707644Y-9830144D01*
X16707644Y-9900856D01*
X16778356Y-9900856D01*
X16778356Y-10154856D02*
X16778356Y-10084144D01*
X16707644Y-10084144D01*
X16707644Y-10154856D01*
X16778356Y-10154856D01*
X19257356Y-5836856D02*
X19257356Y-5766144D01*
X19186644Y-5766144D01*
X19186644Y-5836856D01*
X19257356Y-5836856D01*
X19257356Y-6090856D02*
X19257356Y-6020144D01*
X19186644Y-6020144D01*
X19186644Y-6090856D01*
X19257356Y-6090856D01*
X19257356Y-6344856D02*
X19257356Y-6274144D01*
X19186644Y-6274144D01*
X19186644Y-6344856D01*
X19257356Y-6344856D01*
X19257356Y-6598856D02*
X19257356Y-6528144D01*
X19186644Y-6528144D01*
X19186644Y-6598856D01*
X19257356Y-6598856D01*
X19257356Y-6852856D02*
X19257356Y-6782144D01*
X19186644Y-6782144D01*
X19186644Y-6852856D01*
X19257356Y-6852856D01*
X19257356Y-7106856D02*
X19257356Y-7036144D01*
X19186644Y-7036144D01*
X19186644Y-7106856D01*
X19257356Y-7106856D01*
X19257356Y-7360856D02*
X19257356Y-7290144D01*
X19186644Y-7290144D01*
X19186644Y-7360856D01*
X19257356Y-7360856D01*
X19257356Y-7614856D02*
X19257356Y-7544144D01*
X19186644Y-7544144D01*
X19186644Y-7614856D01*
X19257356Y-7614856D01*
X19257356Y-7868856D02*
X19257356Y-7798144D01*
X19186644Y-7798144D01*
X19186644Y-7868856D01*
X19257356Y-7868856D01*
X19257356Y-8122856D02*
X19257356Y-8052144D01*
X19186644Y-8052144D01*
X19186644Y-8122856D01*
X19257356Y-8122856D01*
X19257356Y-8376856D02*
X19257356Y-8306144D01*
X19186644Y-8306144D01*
X19186644Y-8376856D01*
X19257356Y-8376856D01*
X19257356Y-8630856D02*
X19257356Y-8560144D01*
X19186644Y-8560144D01*
X19186644Y-8630856D01*
X19257356Y-8630856D01*
X19257356Y-8884856D02*
X19257356Y-8814144D01*
X19186644Y-8814144D01*
X19186644Y-8884856D01*
X19257356Y-8884856D01*
X19257356Y-9138856D02*
X19257356Y-9068144D01*
X19186644Y-9068144D01*
X19186644Y-9138856D01*
X19257356Y-9138856D01*
X19257356Y-9392856D02*
X19257356Y-9322144D01*
X19186644Y-9322144D01*
X19186644Y-9392856D01*
X19257356Y-9392856D01*
X19257356Y-9646856D02*
X19257356Y-9576144D01*
X19186644Y-9576144D01*
X19186644Y-9646856D01*
X19257356Y-9646856D01*
X19257356Y-9900856D02*
X19257356Y-9830144D01*
X19186644Y-9830144D01*
X19186644Y-9900856D01*
X19257356Y-9900856D01*
X19257356Y-10154856D02*
X19257356Y-10084144D01*
X19186644Y-10084144D01*
X19186644Y-10154856D01*
X19257356Y-10154856D01*
X19257356Y-10408856D02*
X19257356Y-10338144D01*
X19186644Y-10338144D01*
X19186644Y-10408856D01*
X19257356Y-10408856D01*
X19257356Y-10662856D02*
X19257356Y-10592144D01*
X19186644Y-10592144D01*
X19186644Y-10662856D01*
X19257356Y-10662856D01*
X19257356Y-10916856D02*
X19257356Y-10846144D01*
X19186644Y-10846144D01*
X19186644Y-10916856D01*
X19257356Y-10916856D01*
X19257356Y-11170856D02*
X19257356Y-11100144D01*
X19186644Y-11100144D01*
X19186644Y-11170856D01*
X19257356Y-11170856D01*
X18678000Y-11718000D02*
X18753000Y-11643000D01*
X18678000Y-11568000D01*
X18603000Y-11643000D01*
X18678000Y-11718000D01*
X18678000Y-12418000D02*
X18753000Y-12343000D01*
X18678000Y-12268000D01*
X18603000Y-12343000D01*
X18678000Y-12418000D01*
X19222000Y-11718000D02*
X19297000Y-11643000D01*
X19222000Y-11568000D01*
X19147000Y-11643000D01*
X19222000Y-11718000D01*
X19222000Y-12418000D02*
X19297000Y-12343000D01*
X19222000Y-12268000D01*
X19147000Y-12343000D01*
X19222000Y-12418000D01*
X17465398Y-11830862D02*
X17535398Y-11900862D01*
X17535398Y-11830862D02*
X17465398Y-11900862D01*
X17535398Y-11865862D02*
G75*
G03X17535398Y-11865862I-35000J0D01*
G01*
X18043398Y-11830862D02*
X18113398Y-11900862D01*
X18113398Y-11830862D02*
X18043398Y-11900862D01*
X18113398Y-11865862D02*
G75*
G03X18113398Y-11865862I-35000J0D01*
G01*
D12*
X16865928Y-12936110D02*
X16865928Y-12636110D01*
X16937357Y-12636110D01*
X16980214Y-12650396D01*
X17008786Y-12678967D01*
X17023071Y-12707539D01*
X17037357Y-12764681D01*
X17037357Y-12807539D01*
X17023071Y-12864681D01*
X17008786Y-12893253D01*
X16980214Y-12921824D01*
X16937357Y-12936110D01*
X16865928Y-12936110D01*
X17165928Y-12936110D02*
X17165928Y-12736110D01*
X17165928Y-12793253D02*
X17180214Y-12764681D01*
X17194500Y-12750396D01*
X17223071Y-12736110D01*
X17251643Y-12736110D01*
X17351643Y-12936110D02*
X17351643Y-12736110D01*
X17351643Y-12636110D02*
X17337357Y-12650396D01*
X17351643Y-12664681D01*
X17365928Y-12650396D01*
X17351643Y-12636110D01*
X17351643Y-12664681D01*
X17537357Y-12936110D02*
X17508786Y-12921824D01*
X17494500Y-12893253D01*
X17494500Y-12636110D01*
X17694500Y-12936110D02*
X17665928Y-12921824D01*
X17651643Y-12893253D01*
X17651643Y-12636110D01*
X18037357Y-12936110D02*
X18037357Y-12636110D01*
X18137357Y-12850396D01*
X18237357Y-12636110D01*
X18237357Y-12936110D01*
X18508786Y-12936110D02*
X18508786Y-12778967D01*
X18494500Y-12750396D01*
X18465928Y-12736110D01*
X18408786Y-12736110D01*
X18380214Y-12750396D01*
X18508786Y-12921824D02*
X18480214Y-12936110D01*
X18408786Y-12936110D01*
X18380214Y-12921824D01*
X18365928Y-12893253D01*
X18365928Y-12864681D01*
X18380214Y-12836110D01*
X18408786Y-12821824D01*
X18480214Y-12821824D01*
X18508786Y-12807539D01*
X18651643Y-12736110D02*
X18651643Y-13036110D01*
X18651643Y-12750396D02*
X18680214Y-12736110D01*
X18737357Y-12736110D01*
X18765928Y-12750396D01*
X18780214Y-12764681D01*
X18794500Y-12793253D01*
X18794500Y-12878967D01*
X18780214Y-12907539D01*
X18765928Y-12921824D01*
X18737357Y-12936110D01*
X18680214Y-12936110D01*
X18651643Y-12921824D01*
X18923071Y-12907539D02*
X18937357Y-12921824D01*
X18923071Y-12936110D01*
X18908786Y-12921824D01*
X18923071Y-12907539D01*
X18923071Y-12936110D01*
X18923071Y-12750396D02*
X18937357Y-12764681D01*
X18923071Y-12778967D01*
X18908786Y-12764681D01*
X18923071Y-12750396D01*
X18923071Y-12778967D01*
X16539500Y-13410396D02*
X16579500Y-13450396D01*
X16579500Y-13410396D02*
X16539500Y-13450396D01*
X16923071Y-13266110D02*
X16951643Y-13266110D01*
X16980214Y-13280396D01*
X16994500Y-13294681D01*
X17008786Y-13323253D01*
X17023071Y-13380396D01*
X17023071Y-13451824D01*
X17008786Y-13508967D01*
X16994500Y-13537539D01*
X16980214Y-13551824D01*
X16951643Y-13566110D01*
X16923071Y-13566110D01*
X16894500Y-13551824D01*
X16880214Y-13537539D01*
X16865928Y-13508967D01*
X16851643Y-13451824D01*
X16851643Y-13380396D01*
X16865928Y-13323253D01*
X16880214Y-13294681D01*
X16894500Y-13280396D01*
X16923071Y-13266110D01*
X17151643Y-13537539D02*
X17165928Y-13551824D01*
X17151643Y-13566110D01*
X17137357Y-13551824D01*
X17151643Y-13537539D01*
X17151643Y-13566110D01*
X17423071Y-13366110D02*
X17423071Y-13566110D01*
X17351643Y-13251824D02*
X17280214Y-13466110D01*
X17465928Y-13466110D01*
X17637357Y-13266110D02*
X17665928Y-13266110D01*
X17694500Y-13280396D01*
X17708786Y-13294681D01*
X17723071Y-13323253D01*
X17737357Y-13380396D01*
X17737357Y-13451824D01*
X17723071Y-13508967D01*
X17708786Y-13537539D01*
X17694500Y-13551824D01*
X17665928Y-13566110D01*
X17637357Y-13566110D01*
X17608786Y-13551824D01*
X17594500Y-13537539D01*
X17580214Y-13508967D01*
X17565928Y-13451824D01*
X17565928Y-13380396D01*
X17580214Y-13323253D01*
X17594500Y-13294681D01*
X17608786Y-13280396D01*
X17637357Y-13266110D01*
X17865928Y-13566110D02*
X17865928Y-13366110D01*
X17865928Y-13394681D02*
X17880214Y-13380396D01*
X17908786Y-13366110D01*
X17951643Y-13366110D01*
X17980214Y-13380396D01*
X17994500Y-13408967D01*
X17994500Y-13566110D01*
X17994500Y-13408967D02*
X18008786Y-13380396D01*
X18037357Y-13366110D01*
X18080214Y-13366110D01*
X18108786Y-13380396D01*
X18123071Y-13408967D01*
X18123071Y-13566110D01*
X18265928Y-13566110D02*
X18265928Y-13366110D01*
X18265928Y-13394681D02*
X18280214Y-13380396D01*
X18308786Y-13366110D01*
X18351643Y-13366110D01*
X18380214Y-13380396D01*
X18394500Y-13408967D01*
X18394500Y-13566110D01*
X18394500Y-13408967D02*
X18408786Y-13380396D01*
X18437357Y-13366110D01*
X18480214Y-13366110D01*
X18508786Y-13380396D01*
X18523071Y-13408967D01*
X18523071Y-13566110D01*
X19108786Y-13251824D02*
X18851643Y-13637539D01*
X19494500Y-13266110D02*
X19523071Y-13266110D01*
X19551643Y-13280396D01*
X19565928Y-13294681D01*
X19580214Y-13323253D01*
X19594500Y-13380396D01*
X19594500Y-13451824D01*
X19580214Y-13508967D01*
X19565928Y-13537539D01*
X19551643Y-13551824D01*
X19523071Y-13566110D01*
X19494500Y-13566110D01*
X19465928Y-13551824D01*
X19451643Y-13537539D01*
X19437357Y-13508967D01*
X19423071Y-13451824D01*
X19423071Y-13380396D01*
X19437357Y-13323253D01*
X19451643Y-13294681D01*
X19465928Y-13280396D01*
X19494500Y-13266110D01*
X19723071Y-13537539D02*
X19737357Y-13551824D01*
X19723071Y-13566110D01*
X19708786Y-13551824D01*
X19723071Y-13537539D01*
X19723071Y-13566110D01*
X19923071Y-13266110D02*
X19951643Y-13266110D01*
X19980214Y-13280396D01*
X19994500Y-13294681D01*
X20008786Y-13323253D01*
X20023071Y-13380396D01*
X20023071Y-13451824D01*
X20008786Y-13508967D01*
X19994500Y-13537539D01*
X19980214Y-13551824D01*
X19951643Y-13566110D01*
X19923071Y-13566110D01*
X19894500Y-13551824D01*
X19880214Y-13537539D01*
X19865928Y-13508967D01*
X19851643Y-13451824D01*
X19851643Y-13380396D01*
X19865928Y-13323253D01*
X19880214Y-13294681D01*
X19894500Y-13280396D01*
X19923071Y-13266110D01*
X20308786Y-13566110D02*
X20137357Y-13566110D01*
X20223071Y-13566110D02*
X20223071Y-13266110D01*
X20194500Y-13308967D01*
X20165928Y-13337539D01*
X20137357Y-13351824D01*
X20565928Y-13266110D02*
X20508786Y-13266110D01*
X20480214Y-13280396D01*
X20465928Y-13294681D01*
X20437357Y-13337539D01*
X20423071Y-13394681D01*
X20423071Y-13508967D01*
X20437357Y-13537539D01*
X20451643Y-13551824D01*
X20480214Y-13566110D01*
X20537357Y-13566110D01*
X20565928Y-13551824D01*
X20580214Y-13537539D01*
X20594500Y-13508967D01*
X20594500Y-13437539D01*
X20580214Y-13408967D01*
X20565928Y-13394681D01*
X20537357Y-13380396D01*
X20480214Y-13380396D01*
X20451643Y-13394681D01*
X20437357Y-13408967D01*
X20423071Y-13437539D01*
X20708786Y-13266110D02*
X20708786Y-13323253D01*
X20823071Y-13266110D02*
X20823071Y-13323253D01*
X21265928Y-13680396D02*
X21251643Y-13666110D01*
X21223071Y-13623253D01*
X21208786Y-13594681D01*
X21194500Y-13551824D01*
X21180214Y-13480396D01*
X21180214Y-13423253D01*
X21194500Y-13351824D01*
X21208786Y-13308967D01*
X21223071Y-13280396D01*
X21251643Y-13237539D01*
X21265928Y-13223253D01*
X21394500Y-13566110D02*
X21451643Y-13566110D01*
X21480214Y-13551824D01*
X21494500Y-13537539D01*
X21523071Y-13494681D01*
X21537357Y-13437539D01*
X21537357Y-13323253D01*
X21523071Y-13294681D01*
X21508786Y-13280396D01*
X21480214Y-13266110D01*
X21423071Y-13266110D01*
X21394500Y-13280396D01*
X21380214Y-13294681D01*
X21365928Y-13323253D01*
X21365928Y-13394681D01*
X21380214Y-13423253D01*
X21394500Y-13437539D01*
X21423071Y-13451824D01*
X21480214Y-13451824D01*
X21508786Y-13437539D01*
X21523071Y-13423253D01*
X21537357Y-13394681D01*
X21637357Y-13266110D02*
X21823071Y-13266110D01*
X21723071Y-13380396D01*
X21765928Y-13380396D01*
X21794500Y-13394681D01*
X21808786Y-13408967D01*
X21823071Y-13437539D01*
X21823071Y-13508967D01*
X21808786Y-13537539D01*
X21794500Y-13551824D01*
X21765928Y-13566110D01*
X21680214Y-13566110D01*
X21651643Y-13551824D01*
X21637357Y-13537539D01*
X22180214Y-13566110D02*
X22180214Y-13266110D01*
X22308786Y-13566110D02*
X22308786Y-13408967D01*
X22294500Y-13380396D01*
X22265928Y-13366110D01*
X22223071Y-13366110D01*
X22194500Y-13380396D01*
X22180214Y-13394681D01*
X22494500Y-13566110D02*
X22465928Y-13551824D01*
X22451643Y-13537539D01*
X22437357Y-13508967D01*
X22437357Y-13423253D01*
X22451643Y-13394681D01*
X22465928Y-13380396D01*
X22494500Y-13366110D01*
X22537357Y-13366110D01*
X22565928Y-13380396D01*
X22580214Y-13394681D01*
X22594500Y-13423253D01*
X22594500Y-13508967D01*
X22580214Y-13537539D01*
X22565928Y-13551824D01*
X22537357Y-13566110D01*
X22494500Y-13566110D01*
X22765928Y-13566110D02*
X22737357Y-13551824D01*
X22723071Y-13523253D01*
X22723071Y-13266110D01*
X22994500Y-13551824D02*
X22965928Y-13566110D01*
X22908786Y-13566110D01*
X22880214Y-13551824D01*
X22865928Y-13523253D01*
X22865928Y-13408967D01*
X22880214Y-13380396D01*
X22908786Y-13366110D01*
X22965928Y-13366110D01*
X22994500Y-13380396D01*
X23008786Y-13408967D01*
X23008786Y-13437539D01*
X22865928Y-13466110D01*
X23123071Y-13551824D02*
X23151643Y-13566110D01*
X23208786Y-13566110D01*
X23237357Y-13551824D01*
X23251643Y-13523253D01*
X23251643Y-13508967D01*
X23237357Y-13480396D01*
X23208786Y-13466110D01*
X23165928Y-13466110D01*
X23137357Y-13451824D01*
X23123071Y-13423253D01*
X23123071Y-13408967D01*
X23137357Y-13380396D01*
X23165928Y-13366110D01*
X23208786Y-13366110D01*
X23237357Y-13380396D01*
X23351643Y-13680396D02*
X23365928Y-13666110D01*
X23394500Y-13623253D01*
X23408786Y-13594681D01*
X23423071Y-13551824D01*
X23437357Y-13480396D01*
X23437357Y-13423253D01*
X23423071Y-13351824D01*
X23408786Y-13308967D01*
X23394500Y-13280396D01*
X23365928Y-13237539D01*
X23351643Y-13223253D01*
X16579500Y-13826396D02*
G75*
G03X16579500Y-13826396I-32500J0D01*
G01*
X16923071Y-13662110D02*
X16951643Y-13662110D01*
X16980214Y-13676396D01*
X16994500Y-13690681D01*
X17008786Y-13719253D01*
X17023071Y-13776396D01*
X17023071Y-13847824D01*
X17008786Y-13904967D01*
X16994500Y-13933539D01*
X16980214Y-13947824D01*
X16951643Y-13962110D01*
X16923071Y-13962110D01*
X16894500Y-13947824D01*
X16880214Y-13933539D01*
X16865928Y-13904967D01*
X16851643Y-13847824D01*
X16851643Y-13776396D01*
X16865928Y-13719253D01*
X16880214Y-13690681D01*
X16894500Y-13676396D01*
X16923071Y-13662110D01*
X17151643Y-13933539D02*
X17165928Y-13947824D01*
X17151643Y-13962110D01*
X17137357Y-13947824D01*
X17151643Y-13933539D01*
X17151643Y-13962110D01*
X17423071Y-13662110D02*
X17365928Y-13662110D01*
X17337357Y-13676396D01*
X17323071Y-13690681D01*
X17294500Y-13733539D01*
X17280214Y-13790681D01*
X17280214Y-13904967D01*
X17294500Y-13933539D01*
X17308786Y-13947824D01*
X17337357Y-13962110D01*
X17394500Y-13962110D01*
X17423071Y-13947824D01*
X17437357Y-13933539D01*
X17451643Y-13904967D01*
X17451643Y-13833539D01*
X17437357Y-13804967D01*
X17423071Y-13790681D01*
X17394500Y-13776396D01*
X17337357Y-13776396D01*
X17308786Y-13790681D01*
X17294500Y-13804967D01*
X17280214Y-13833539D01*
X17723071Y-13662110D02*
X17580214Y-13662110D01*
X17565928Y-13804967D01*
X17580214Y-13790681D01*
X17608786Y-13776396D01*
X17680214Y-13776396D01*
X17708786Y-13790681D01*
X17723071Y-13804967D01*
X17737357Y-13833539D01*
X17737357Y-13904967D01*
X17723071Y-13933539D01*
X17708786Y-13947824D01*
X17680214Y-13962110D01*
X17608786Y-13962110D01*
X17580214Y-13947824D01*
X17565928Y-13933539D01*
X17865928Y-13962110D02*
X17865928Y-13762110D01*
X17865928Y-13790681D02*
X17880214Y-13776396D01*
X17908786Y-13762110D01*
X17951643Y-13762110D01*
X17980214Y-13776396D01*
X17994500Y-13804967D01*
X17994500Y-13962110D01*
X17994500Y-13804967D02*
X18008786Y-13776396D01*
X18037357Y-13762110D01*
X18080214Y-13762110D01*
X18108786Y-13776396D01*
X18123071Y-13804967D01*
X18123071Y-13962110D01*
X18265928Y-13962110D02*
X18265928Y-13762110D01*
X18265928Y-13790681D02*
X18280214Y-13776396D01*
X18308786Y-13762110D01*
X18351643Y-13762110D01*
X18380214Y-13776396D01*
X18394500Y-13804967D01*
X18394500Y-13962110D01*
X18394500Y-13804967D02*
X18408786Y-13776396D01*
X18437357Y-13762110D01*
X18480214Y-13762110D01*
X18508786Y-13776396D01*
X18523071Y-13804967D01*
X18523071Y-13962110D01*
X19108786Y-13647824D02*
X18851643Y-14033539D01*
X19494500Y-13662110D02*
X19523071Y-13662110D01*
X19551643Y-13676396D01*
X19565928Y-13690681D01*
X19580214Y-13719253D01*
X19594500Y-13776396D01*
X19594500Y-13847824D01*
X19580214Y-13904967D01*
X19565928Y-13933539D01*
X19551643Y-13947824D01*
X19523071Y-13962110D01*
X19494500Y-13962110D01*
X19465928Y-13947824D01*
X19451643Y-13933539D01*
X19437357Y-13904967D01*
X19423071Y-13847824D01*
X19423071Y-13776396D01*
X19437357Y-13719253D01*
X19451643Y-13690681D01*
X19465928Y-13676396D01*
X19494500Y-13662110D01*
X19723071Y-13933539D02*
X19737357Y-13947824D01*
X19723071Y-13962110D01*
X19708786Y-13947824D01*
X19723071Y-13933539D01*
X19723071Y-13962110D01*
X19923071Y-13662110D02*
X19951643Y-13662110D01*
X19980214Y-13676396D01*
X19994500Y-13690681D01*
X20008786Y-13719253D01*
X20023071Y-13776396D01*
X20023071Y-13847824D01*
X20008786Y-13904967D01*
X19994500Y-13933539D01*
X19980214Y-13947824D01*
X19951643Y-13962110D01*
X19923071Y-13962110D01*
X19894500Y-13947824D01*
X19880214Y-13933539D01*
X19865928Y-13904967D01*
X19851643Y-13847824D01*
X19851643Y-13776396D01*
X19865928Y-13719253D01*
X19880214Y-13690681D01*
X19894500Y-13676396D01*
X19923071Y-13662110D01*
X20137357Y-13690681D02*
X20151643Y-13676396D01*
X20180214Y-13662110D01*
X20251643Y-13662110D01*
X20280214Y-13676396D01*
X20294500Y-13690681D01*
X20308786Y-13719253D01*
X20308786Y-13747824D01*
X20294500Y-13790681D01*
X20123071Y-13962110D01*
X20308786Y-13962110D01*
X20565928Y-13662110D02*
X20508786Y-13662110D01*
X20480214Y-13676396D01*
X20465928Y-13690681D01*
X20437357Y-13733539D01*
X20423071Y-13790681D01*
X20423071Y-13904967D01*
X20437357Y-13933539D01*
X20451643Y-13947824D01*
X20480214Y-13962110D01*
X20537357Y-13962110D01*
X20565928Y-13947824D01*
X20580214Y-13933539D01*
X20594500Y-13904967D01*
X20594500Y-13833539D01*
X20580214Y-13804967D01*
X20565928Y-13790681D01*
X20537357Y-13776396D01*
X20480214Y-13776396D01*
X20451643Y-13790681D01*
X20437357Y-13804967D01*
X20423071Y-13833539D01*
X20708786Y-13662110D02*
X20708786Y-13719253D01*
X20823071Y-13662110D02*
X20823071Y-13719253D01*
X21265928Y-14076396D02*
X21251643Y-14062110D01*
X21223071Y-14019253D01*
X21208786Y-13990681D01*
X21194500Y-13947824D01*
X21180214Y-13876396D01*
X21180214Y-13819253D01*
X21194500Y-13747824D01*
X21208786Y-13704967D01*
X21223071Y-13676396D01*
X21251643Y-13633539D01*
X21265928Y-13619253D01*
X21437357Y-13662110D02*
X21465928Y-13662110D01*
X21494500Y-13676396D01*
X21508786Y-13690681D01*
X21523071Y-13719253D01*
X21537357Y-13776396D01*
X21537357Y-13847824D01*
X21523071Y-13904967D01*
X21508786Y-13933539D01*
X21494500Y-13947824D01*
X21465928Y-13962110D01*
X21437357Y-13962110D01*
X21408786Y-13947824D01*
X21394500Y-13933539D01*
X21380214Y-13904967D01*
X21365928Y-13847824D01*
X21365928Y-13776396D01*
X21380214Y-13719253D01*
X21394500Y-13690681D01*
X21408786Y-13676396D01*
X21437357Y-13662110D01*
X21894500Y-13962110D02*
X21894500Y-13662110D01*
X22023071Y-13962110D02*
X22023071Y-13804967D01*
X22008786Y-13776396D01*
X21980214Y-13762110D01*
X21937357Y-13762110D01*
X21908786Y-13776396D01*
X21894500Y-13790681D01*
X22208786Y-13962110D02*
X22180214Y-13947824D01*
X22165928Y-13933539D01*
X22151643Y-13904967D01*
X22151643Y-13819253D01*
X22165928Y-13790681D01*
X22180214Y-13776396D01*
X22208786Y-13762110D01*
X22251643Y-13762110D01*
X22280214Y-13776396D01*
X22294500Y-13790681D01*
X22308786Y-13819253D01*
X22308786Y-13904967D01*
X22294500Y-13933539D01*
X22280214Y-13947824D01*
X22251643Y-13962110D01*
X22208786Y-13962110D01*
X22480214Y-13962110D02*
X22451643Y-13947824D01*
X22437357Y-13919253D01*
X22437357Y-13662110D01*
X22708786Y-13947824D02*
X22680214Y-13962110D01*
X22623071Y-13962110D01*
X22594500Y-13947824D01*
X22580214Y-13919253D01*
X22580214Y-13804967D01*
X22594500Y-13776396D01*
X22623071Y-13762110D01*
X22680214Y-13762110D01*
X22708786Y-13776396D01*
X22723071Y-13804967D01*
X22723071Y-13833539D01*
X22580214Y-13862110D01*
X22837357Y-13947824D02*
X22865928Y-13962110D01*
X22923071Y-13962110D01*
X22951643Y-13947824D01*
X22965928Y-13919253D01*
X22965928Y-13904967D01*
X22951643Y-13876396D01*
X22923071Y-13862110D01*
X22880214Y-13862110D01*
X22851643Y-13847824D01*
X22837357Y-13819253D01*
X22837357Y-13804967D01*
X22851643Y-13776396D01*
X22880214Y-13762110D01*
X22923071Y-13762110D01*
X22951643Y-13776396D01*
X23323071Y-13847824D02*
X23551643Y-13847824D01*
X23437357Y-13962110D02*
X23437357Y-13733539D01*
X24051643Y-13762110D02*
X24051643Y-13962110D01*
X23980214Y-13647824D02*
X23908786Y-13862110D01*
X24094500Y-13862110D01*
X24423071Y-13947824D02*
X24451643Y-13962110D01*
X24508786Y-13962110D01*
X24537357Y-13947824D01*
X24551643Y-13919253D01*
X24551643Y-13904967D01*
X24537357Y-13876396D01*
X24508786Y-13862110D01*
X24465928Y-13862110D01*
X24437357Y-13847824D01*
X24423071Y-13819253D01*
X24423071Y-13804967D01*
X24437357Y-13776396D01*
X24465928Y-13762110D01*
X24508786Y-13762110D01*
X24537357Y-13776396D01*
X24723071Y-13962110D02*
X24694500Y-13947824D01*
X24680214Y-13919253D01*
X24680214Y-13662110D01*
X24880214Y-13962110D02*
X24851643Y-13947824D01*
X24837357Y-13933539D01*
X24823071Y-13904967D01*
X24823071Y-13819253D01*
X24837357Y-13790681D01*
X24851643Y-13776396D01*
X24880214Y-13762110D01*
X24923071Y-13762110D01*
X24951643Y-13776396D01*
X24965928Y-13790681D01*
X24980214Y-13819253D01*
X24980214Y-13904967D01*
X24965928Y-13933539D01*
X24951643Y-13947824D01*
X24923071Y-13962110D01*
X24880214Y-13962110D01*
X25065928Y-13762110D02*
X25180214Y-13762110D01*
X25108786Y-13662110D02*
X25108786Y-13919253D01*
X25123071Y-13947824D01*
X25151643Y-13962110D01*
X25180214Y-13962110D01*
X25265928Y-13947824D02*
X25294500Y-13962110D01*
X25351643Y-13962110D01*
X25380214Y-13947824D01*
X25394500Y-13919253D01*
X25394500Y-13904967D01*
X25380214Y-13876396D01*
X25351643Y-13862110D01*
X25308786Y-13862110D01*
X25280214Y-13847824D01*
X25265928Y-13819253D01*
X25265928Y-13804967D01*
X25280214Y-13776396D01*
X25308786Y-13762110D01*
X25351643Y-13762110D01*
X25380214Y-13776396D01*
X25494500Y-14076396D02*
X25508786Y-14062110D01*
X25537357Y-14019253D01*
X25551643Y-13990681D01*
X25565928Y-13947824D01*
X25580214Y-13876396D01*
X25580214Y-13819253D01*
X25565928Y-13747824D01*
X25551643Y-13704967D01*
X25537357Y-13676396D01*
X25508786Y-13633539D01*
X25494500Y-13619253D01*
X16533500Y-14176396D02*
X16533500Y-14268396D01*
X16487500Y-14222396D02*
X16579500Y-14222396D01*
X16923071Y-14058110D02*
X16951643Y-14058110D01*
X16980214Y-14072396D01*
X16994500Y-14086681D01*
X17008786Y-14115253D01*
X17023071Y-14172396D01*
X17023071Y-14243824D01*
X17008786Y-14300967D01*
X16994500Y-14329539D01*
X16980214Y-14343824D01*
X16951643Y-14358110D01*
X16923071Y-14358110D01*
X16894500Y-14343824D01*
X16880214Y-14329539D01*
X16865928Y-14300967D01*
X16851643Y-14243824D01*
X16851643Y-14172396D01*
X16865928Y-14115253D01*
X16880214Y-14086681D01*
X16894500Y-14072396D01*
X16923071Y-14058110D01*
X17151643Y-14329539D02*
X17165928Y-14343824D01*
X17151643Y-14358110D01*
X17137357Y-14343824D01*
X17151643Y-14329539D01*
X17151643Y-14358110D01*
X17308786Y-14358110D02*
X17365928Y-14358110D01*
X17394500Y-14343824D01*
X17408786Y-14329539D01*
X17437357Y-14286681D01*
X17451643Y-14229539D01*
X17451643Y-14115253D01*
X17437357Y-14086681D01*
X17423071Y-14072396D01*
X17394500Y-14058110D01*
X17337357Y-14058110D01*
X17308786Y-14072396D01*
X17294500Y-14086681D01*
X17280214Y-14115253D01*
X17280214Y-14186681D01*
X17294500Y-14215253D01*
X17308786Y-14229539D01*
X17337357Y-14243824D01*
X17394500Y-14243824D01*
X17423071Y-14229539D01*
X17437357Y-14215253D01*
X17451643Y-14186681D01*
X17565928Y-14086681D02*
X17580214Y-14072396D01*
X17608786Y-14058110D01*
X17680214Y-14058110D01*
X17708786Y-14072396D01*
X17723071Y-14086681D01*
X17737357Y-14115253D01*
X17737357Y-14143824D01*
X17723071Y-14186681D01*
X17551643Y-14358110D01*
X17737357Y-14358110D01*
X17865928Y-14358110D02*
X17865928Y-14158110D01*
X17865928Y-14186681D02*
X17880214Y-14172396D01*
X17908786Y-14158110D01*
X17951643Y-14158110D01*
X17980214Y-14172396D01*
X17994500Y-14200967D01*
X17994500Y-14358110D01*
X17994500Y-14200967D02*
X18008786Y-14172396D01*
X18037357Y-14158110D01*
X18080214Y-14158110D01*
X18108786Y-14172396D01*
X18123071Y-14200967D01*
X18123071Y-14358110D01*
X18265928Y-14358110D02*
X18265928Y-14158110D01*
X18265928Y-14186681D02*
X18280214Y-14172396D01*
X18308786Y-14158110D01*
X18351643Y-14158110D01*
X18380214Y-14172396D01*
X18394500Y-14200967D01*
X18394500Y-14358110D01*
X18394500Y-14200967D02*
X18408786Y-14172396D01*
X18437357Y-14158110D01*
X18480214Y-14158110D01*
X18508786Y-14172396D01*
X18523071Y-14200967D01*
X18523071Y-14358110D01*
X19108786Y-14043824D02*
X18851643Y-14429539D01*
X19494500Y-14058110D02*
X19523071Y-14058110D01*
X19551643Y-14072396D01*
X19565928Y-14086681D01*
X19580214Y-14115253D01*
X19594500Y-14172396D01*
X19594500Y-14243824D01*
X19580214Y-14300967D01*
X19565928Y-14329539D01*
X19551643Y-14343824D01*
X19523071Y-14358110D01*
X19494500Y-14358110D01*
X19465928Y-14343824D01*
X19451643Y-14329539D01*
X19437357Y-14300967D01*
X19423071Y-14243824D01*
X19423071Y-14172396D01*
X19437357Y-14115253D01*
X19451643Y-14086681D01*
X19465928Y-14072396D01*
X19494500Y-14058110D01*
X19723071Y-14329539D02*
X19737357Y-14343824D01*
X19723071Y-14358110D01*
X19708786Y-14343824D01*
X19723071Y-14329539D01*
X19723071Y-14358110D01*
X19923071Y-14058110D02*
X19951643Y-14058110D01*
X19980214Y-14072396D01*
X19994500Y-14086681D01*
X20008786Y-14115253D01*
X20023071Y-14172396D01*
X20023071Y-14243824D01*
X20008786Y-14300967D01*
X19994500Y-14329539D01*
X19980214Y-14343824D01*
X19951643Y-14358110D01*
X19923071Y-14358110D01*
X19894500Y-14343824D01*
X19880214Y-14329539D01*
X19865928Y-14300967D01*
X19851643Y-14243824D01*
X19851643Y-14172396D01*
X19865928Y-14115253D01*
X19880214Y-14086681D01*
X19894500Y-14072396D01*
X19923071Y-14058110D01*
X20123071Y-14058110D02*
X20308786Y-14058110D01*
X20208786Y-14172396D01*
X20251643Y-14172396D01*
X20280214Y-14186681D01*
X20294500Y-14200967D01*
X20308786Y-14229539D01*
X20308786Y-14300967D01*
X20294500Y-14329539D01*
X20280214Y-14343824D01*
X20251643Y-14358110D01*
X20165928Y-14358110D01*
X20137357Y-14343824D01*
X20123071Y-14329539D01*
X20565928Y-14058110D02*
X20508786Y-14058110D01*
X20480214Y-14072396D01*
X20465928Y-14086681D01*
X20437357Y-14129539D01*
X20423071Y-14186681D01*
X20423071Y-14300967D01*
X20437357Y-14329539D01*
X20451643Y-14343824D01*
X20480214Y-14358110D01*
X20537357Y-14358110D01*
X20565928Y-14343824D01*
X20580214Y-14329539D01*
X20594500Y-14300967D01*
X20594500Y-14229539D01*
X20580214Y-14200967D01*
X20565928Y-14186681D01*
X20537357Y-14172396D01*
X20480214Y-14172396D01*
X20451643Y-14186681D01*
X20437357Y-14200967D01*
X20423071Y-14229539D01*
X20708786Y-14058110D02*
X20708786Y-14115253D01*
X20823071Y-14058110D02*
X20823071Y-14115253D01*
X21265928Y-14472396D02*
X21251643Y-14458110D01*
X21223071Y-14415253D01*
X21208786Y-14386681D01*
X21194500Y-14343824D01*
X21180214Y-14272396D01*
X21180214Y-14215253D01*
X21194500Y-14143824D01*
X21208786Y-14100967D01*
X21223071Y-14072396D01*
X21251643Y-14029539D01*
X21265928Y-14015253D01*
X21508786Y-14158110D02*
X21508786Y-14358110D01*
X21437357Y-14043824D02*
X21365928Y-14258110D01*
X21551643Y-14258110D01*
X21894500Y-14358110D02*
X21894500Y-14058110D01*
X22023071Y-14358110D02*
X22023071Y-14200967D01*
X22008786Y-14172396D01*
X21980214Y-14158110D01*
X21937357Y-14158110D01*
X21908786Y-14172396D01*
X21894500Y-14186681D01*
X22208786Y-14358110D02*
X22180214Y-14343824D01*
X22165928Y-14329539D01*
X22151643Y-14300967D01*
X22151643Y-14215253D01*
X22165928Y-14186681D01*
X22180214Y-14172396D01*
X22208786Y-14158110D01*
X22251643Y-14158110D01*
X22280214Y-14172396D01*
X22294500Y-14186681D01*
X22308786Y-14215253D01*
X22308786Y-14300967D01*
X22294500Y-14329539D01*
X22280214Y-14343824D01*
X22251643Y-14358110D01*
X22208786Y-14358110D01*
X22480214Y-14358110D02*
X22451643Y-14343824D01*
X22437357Y-14315253D01*
X22437357Y-14058110D01*
X22708786Y-14343824D02*
X22680214Y-14358110D01*
X22623071Y-14358110D01*
X22594500Y-14343824D01*
X22580214Y-14315253D01*
X22580214Y-14200967D01*
X22594500Y-14172396D01*
X22623071Y-14158110D01*
X22680214Y-14158110D01*
X22708786Y-14172396D01*
X22723071Y-14200967D01*
X22723071Y-14229539D01*
X22580214Y-14258110D01*
X22837357Y-14343824D02*
X22865928Y-14358110D01*
X22923071Y-14358110D01*
X22951643Y-14343824D01*
X22965928Y-14315253D01*
X22965928Y-14300967D01*
X22951643Y-14272396D01*
X22923071Y-14258110D01*
X22880214Y-14258110D01*
X22851643Y-14243824D01*
X22837357Y-14215253D01*
X22837357Y-14200967D01*
X22851643Y-14172396D01*
X22880214Y-14158110D01*
X22923071Y-14158110D01*
X22951643Y-14172396D01*
X23065928Y-14472396D02*
X23080214Y-14458110D01*
X23108786Y-14415253D01*
X23123071Y-14386681D01*
X23137357Y-14343824D01*
X23151643Y-14272396D01*
X23151643Y-14215253D01*
X23137357Y-14143824D01*
X23123071Y-14100967D01*
X23108786Y-14072396D01*
X23080214Y-14029539D01*
X23065928Y-14015253D01*
X16564856Y-14653751D02*
X16564856Y-14583040D01*
X16494144Y-14583040D01*
X16494144Y-14653751D01*
X16564856Y-14653751D01*
X17023071Y-14754110D02*
X16851643Y-14754110D01*
X16937357Y-14754110D02*
X16937357Y-14454110D01*
X16908786Y-14496967D01*
X16880214Y-14525539D01*
X16851643Y-14539824D01*
X17151643Y-14725539D02*
X17165928Y-14739824D01*
X17151643Y-14754110D01*
X17137357Y-14739824D01*
X17151643Y-14725539D01*
X17151643Y-14754110D01*
X17351643Y-14454110D02*
X17380214Y-14454110D01*
X17408786Y-14468396D01*
X17423071Y-14482681D01*
X17437357Y-14511253D01*
X17451643Y-14568396D01*
X17451643Y-14639824D01*
X17437357Y-14696967D01*
X17423071Y-14725539D01*
X17408786Y-14739824D01*
X17380214Y-14754110D01*
X17351643Y-14754110D01*
X17323071Y-14739824D01*
X17308786Y-14725539D01*
X17294500Y-14696967D01*
X17280214Y-14639824D01*
X17280214Y-14568396D01*
X17294500Y-14511253D01*
X17308786Y-14482681D01*
X17323071Y-14468396D01*
X17351643Y-14454110D01*
X17637357Y-14454110D02*
X17665928Y-14454110D01*
X17694500Y-14468396D01*
X17708786Y-14482681D01*
X17723071Y-14511253D01*
X17737357Y-14568396D01*
X17737357Y-14639824D01*
X17723071Y-14696967D01*
X17708786Y-14725539D01*
X17694500Y-14739824D01*
X17665928Y-14754110D01*
X17637357Y-14754110D01*
X17608786Y-14739824D01*
X17594500Y-14725539D01*
X17580214Y-14696967D01*
X17565928Y-14639824D01*
X17565928Y-14568396D01*
X17580214Y-14511253D01*
X17594500Y-14482681D01*
X17608786Y-14468396D01*
X17637357Y-14454110D01*
X17865928Y-14754110D02*
X17865928Y-14554110D01*
X17865928Y-14582681D02*
X17880214Y-14568396D01*
X17908786Y-14554110D01*
X17951643Y-14554110D01*
X17980214Y-14568396D01*
X17994500Y-14596967D01*
X17994500Y-14754110D01*
X17994500Y-14596967D02*
X18008786Y-14568396D01*
X18037357Y-14554110D01*
X18080214Y-14554110D01*
X18108786Y-14568396D01*
X18123071Y-14596967D01*
X18123071Y-14754110D01*
X18265928Y-14754110D02*
X18265928Y-14554110D01*
X18265928Y-14582681D02*
X18280214Y-14568396D01*
X18308786Y-14554110D01*
X18351643Y-14554110D01*
X18380214Y-14568396D01*
X18394500Y-14596967D01*
X18394500Y-14754110D01*
X18394500Y-14596967D02*
X18408786Y-14568396D01*
X18437357Y-14554110D01*
X18480214Y-14554110D01*
X18508786Y-14568396D01*
X18523071Y-14596967D01*
X18523071Y-14754110D01*
X19108786Y-14439824D02*
X18851643Y-14825539D01*
X19494500Y-14454110D02*
X19523071Y-14454110D01*
X19551643Y-14468396D01*
X19565928Y-14482681D01*
X19580214Y-14511253D01*
X19594500Y-14568396D01*
X19594500Y-14639824D01*
X19580214Y-14696967D01*
X19565928Y-14725539D01*
X19551643Y-14739824D01*
X19523071Y-14754110D01*
X19494500Y-14754110D01*
X19465928Y-14739824D01*
X19451643Y-14725539D01*
X19437357Y-14696967D01*
X19423071Y-14639824D01*
X19423071Y-14568396D01*
X19437357Y-14511253D01*
X19451643Y-14482681D01*
X19465928Y-14468396D01*
X19494500Y-14454110D01*
X19723071Y-14725539D02*
X19737357Y-14739824D01*
X19723071Y-14754110D01*
X19708786Y-14739824D01*
X19723071Y-14725539D01*
X19723071Y-14754110D01*
X19923071Y-14454110D02*
X19951643Y-14454110D01*
X19980214Y-14468396D01*
X19994500Y-14482681D01*
X20008786Y-14511253D01*
X20023071Y-14568396D01*
X20023071Y-14639824D01*
X20008786Y-14696967D01*
X19994500Y-14725539D01*
X19980214Y-14739824D01*
X19951643Y-14754110D01*
X19923071Y-14754110D01*
X19894500Y-14739824D01*
X19880214Y-14725539D01*
X19865928Y-14696967D01*
X19851643Y-14639824D01*
X19851643Y-14568396D01*
X19865928Y-14511253D01*
X19880214Y-14482681D01*
X19894500Y-14468396D01*
X19923071Y-14454110D01*
X20123071Y-14454110D02*
X20308786Y-14454110D01*
X20208786Y-14568396D01*
X20251643Y-14568396D01*
X20280214Y-14582681D01*
X20294500Y-14596967D01*
X20308786Y-14625539D01*
X20308786Y-14696967D01*
X20294500Y-14725539D01*
X20280214Y-14739824D01*
X20251643Y-14754110D01*
X20165928Y-14754110D01*
X20137357Y-14739824D01*
X20123071Y-14725539D01*
X20451643Y-14754110D02*
X20508786Y-14754110D01*
X20537357Y-14739824D01*
X20551643Y-14725539D01*
X20580214Y-14682681D01*
X20594500Y-14625539D01*
X20594500Y-14511253D01*
X20580214Y-14482681D01*
X20565928Y-14468396D01*
X20537357Y-14454110D01*
X20480214Y-14454110D01*
X20451643Y-14468396D01*
X20437357Y-14482681D01*
X20423071Y-14511253D01*
X20423071Y-14582681D01*
X20437357Y-14611253D01*
X20451643Y-14625539D01*
X20480214Y-14639824D01*
X20537357Y-14639824D01*
X20565928Y-14625539D01*
X20580214Y-14611253D01*
X20594500Y-14582681D01*
X20708786Y-14454110D02*
X20708786Y-14511253D01*
X20823071Y-14454110D02*
X20823071Y-14511253D01*
X21265928Y-14868396D02*
X21251643Y-14854110D01*
X21223071Y-14811253D01*
X21208786Y-14782681D01*
X21194500Y-14739824D01*
X21180214Y-14668396D01*
X21180214Y-14611253D01*
X21194500Y-14539824D01*
X21208786Y-14496967D01*
X21223071Y-14468396D01*
X21251643Y-14425539D01*
X21265928Y-14411253D01*
X21508786Y-14554110D02*
X21508786Y-14754110D01*
X21437357Y-14439824D02*
X21365928Y-14654110D01*
X21551643Y-14654110D01*
X21723071Y-14454110D02*
X21751643Y-14454110D01*
X21780214Y-14468396D01*
X21794500Y-14482681D01*
X21808786Y-14511253D01*
X21823071Y-14568396D01*
X21823071Y-14639824D01*
X21808786Y-14696967D01*
X21794500Y-14725539D01*
X21780214Y-14739824D01*
X21751643Y-14754110D01*
X21723071Y-14754110D01*
X21694500Y-14739824D01*
X21680214Y-14725539D01*
X21665928Y-14696967D01*
X21651643Y-14639824D01*
X21651643Y-14568396D01*
X21665928Y-14511253D01*
X21680214Y-14482681D01*
X21694500Y-14468396D01*
X21723071Y-14454110D01*
X22180214Y-14754110D02*
X22180214Y-14454110D01*
X22308786Y-14754110D02*
X22308786Y-14596967D01*
X22294500Y-14568396D01*
X22265928Y-14554110D01*
X22223071Y-14554110D01*
X22194500Y-14568396D01*
X22180214Y-14582681D01*
X22494500Y-14754110D02*
X22465928Y-14739824D01*
X22451643Y-14725539D01*
X22437357Y-14696967D01*
X22437357Y-14611253D01*
X22451643Y-14582681D01*
X22465928Y-14568396D01*
X22494500Y-14554110D01*
X22537357Y-14554110D01*
X22565928Y-14568396D01*
X22580214Y-14582681D01*
X22594500Y-14611253D01*
X22594500Y-14696967D01*
X22580214Y-14725539D01*
X22565928Y-14739824D01*
X22537357Y-14754110D01*
X22494500Y-14754110D01*
X22765928Y-14754110D02*
X22737357Y-14739824D01*
X22723071Y-14711253D01*
X22723071Y-14454110D01*
X22994500Y-14739824D02*
X22965928Y-14754110D01*
X22908786Y-14754110D01*
X22880214Y-14739824D01*
X22865928Y-14711253D01*
X22865928Y-14596967D01*
X22880214Y-14568396D01*
X22908786Y-14554110D01*
X22965928Y-14554110D01*
X22994500Y-14568396D01*
X23008786Y-14596967D01*
X23008786Y-14625539D01*
X22865928Y-14654110D01*
X23123071Y-14739824D02*
X23151643Y-14754110D01*
X23208786Y-14754110D01*
X23237357Y-14739824D01*
X23251643Y-14711253D01*
X23251643Y-14696967D01*
X23237357Y-14668396D01*
X23208786Y-14654110D01*
X23165928Y-14654110D01*
X23137357Y-14639824D01*
X23123071Y-14611253D01*
X23123071Y-14596967D01*
X23137357Y-14568396D01*
X23165928Y-14554110D01*
X23208786Y-14554110D01*
X23237357Y-14568396D01*
X23351643Y-14868396D02*
X23365928Y-14854110D01*
X23394500Y-14811253D01*
X23408786Y-14782681D01*
X23423071Y-14739824D01*
X23437357Y-14668396D01*
X23437357Y-14611253D01*
X23423071Y-14539824D01*
X23408786Y-14496967D01*
X23394500Y-14468396D01*
X23365928Y-14425539D01*
X23351643Y-14411253D01*
X16504500Y-15089396D02*
X16579500Y-15014396D01*
X16504500Y-14939396D01*
X16429500Y-15014396D01*
X16504500Y-15089396D01*
X17023071Y-15150110D02*
X16851643Y-15150110D01*
X16937357Y-15150110D02*
X16937357Y-14850110D01*
X16908786Y-14892967D01*
X16880214Y-14921539D01*
X16851643Y-14935824D01*
X17151643Y-15121539D02*
X17165928Y-15135824D01*
X17151643Y-15150110D01*
X17137357Y-15135824D01*
X17151643Y-15121539D01*
X17151643Y-15150110D01*
X17437357Y-14850110D02*
X17294500Y-14850110D01*
X17280214Y-14992967D01*
X17294500Y-14978681D01*
X17323071Y-14964396D01*
X17394500Y-14964396D01*
X17423071Y-14978681D01*
X17437357Y-14992967D01*
X17451643Y-15021539D01*
X17451643Y-15092967D01*
X17437357Y-15121539D01*
X17423071Y-15135824D01*
X17394500Y-15150110D01*
X17323071Y-15150110D01*
X17294500Y-15135824D01*
X17280214Y-15121539D01*
X17637357Y-14850110D02*
X17665928Y-14850110D01*
X17694500Y-14864396D01*
X17708786Y-14878681D01*
X17723071Y-14907253D01*
X17737357Y-14964396D01*
X17737357Y-15035824D01*
X17723071Y-15092967D01*
X17708786Y-15121539D01*
X17694500Y-15135824D01*
X17665928Y-15150110D01*
X17637357Y-15150110D01*
X17608786Y-15135824D01*
X17594500Y-15121539D01*
X17580214Y-15092967D01*
X17565928Y-15035824D01*
X17565928Y-14964396D01*
X17580214Y-14907253D01*
X17594500Y-14878681D01*
X17608786Y-14864396D01*
X17637357Y-14850110D01*
X17865928Y-15150110D02*
X17865928Y-14950110D01*
X17865928Y-14978681D02*
X17880214Y-14964396D01*
X17908786Y-14950110D01*
X17951643Y-14950110D01*
X17980214Y-14964396D01*
X17994500Y-14992967D01*
X17994500Y-15150110D01*
X17994500Y-14992967D02*
X18008786Y-14964396D01*
X18037357Y-14950110D01*
X18080214Y-14950110D01*
X18108786Y-14964396D01*
X18123071Y-14992967D01*
X18123071Y-15150110D01*
X18265928Y-15150110D02*
X18265928Y-14950110D01*
X18265928Y-14978681D02*
X18280214Y-14964396D01*
X18308786Y-14950110D01*
X18351643Y-14950110D01*
X18380214Y-14964396D01*
X18394500Y-14992967D01*
X18394500Y-15150110D01*
X18394500Y-14992967D02*
X18408786Y-14964396D01*
X18437357Y-14950110D01*
X18480214Y-14950110D01*
X18508786Y-14964396D01*
X18523071Y-14992967D01*
X18523071Y-15150110D01*
X19108786Y-14835824D02*
X18851643Y-15221539D01*
X19494500Y-14850110D02*
X19523071Y-14850110D01*
X19551643Y-14864396D01*
X19565928Y-14878681D01*
X19580214Y-14907253D01*
X19594500Y-14964396D01*
X19594500Y-15035824D01*
X19580214Y-15092967D01*
X19565928Y-15121539D01*
X19551643Y-15135824D01*
X19523071Y-15150110D01*
X19494500Y-15150110D01*
X19465928Y-15135824D01*
X19451643Y-15121539D01*
X19437357Y-15092967D01*
X19423071Y-15035824D01*
X19423071Y-14964396D01*
X19437357Y-14907253D01*
X19451643Y-14878681D01*
X19465928Y-14864396D01*
X19494500Y-14850110D01*
X19723071Y-15121539D02*
X19737357Y-15135824D01*
X19723071Y-15150110D01*
X19708786Y-15135824D01*
X19723071Y-15121539D01*
X19723071Y-15150110D01*
X19923071Y-14850110D02*
X19951643Y-14850110D01*
X19980214Y-14864396D01*
X19994500Y-14878681D01*
X20008786Y-14907253D01*
X20023071Y-14964396D01*
X20023071Y-15035824D01*
X20008786Y-15092967D01*
X19994500Y-15121539D01*
X19980214Y-15135824D01*
X19951643Y-15150110D01*
X19923071Y-15150110D01*
X19894500Y-15135824D01*
X19880214Y-15121539D01*
X19865928Y-15092967D01*
X19851643Y-15035824D01*
X19851643Y-14964396D01*
X19865928Y-14907253D01*
X19880214Y-14878681D01*
X19894500Y-14864396D01*
X19923071Y-14850110D01*
X20294500Y-14850110D02*
X20151643Y-14850110D01*
X20137357Y-14992967D01*
X20151643Y-14978681D01*
X20180214Y-14964396D01*
X20251643Y-14964396D01*
X20280214Y-14978681D01*
X20294500Y-14992967D01*
X20308786Y-15021539D01*
X20308786Y-15092967D01*
X20294500Y-15121539D01*
X20280214Y-15135824D01*
X20251643Y-15150110D01*
X20180214Y-15150110D01*
X20151643Y-15135824D01*
X20137357Y-15121539D01*
X20451643Y-15150110D02*
X20508786Y-15150110D01*
X20537357Y-15135824D01*
X20551643Y-15121539D01*
X20580214Y-15078681D01*
X20594500Y-15021539D01*
X20594500Y-14907253D01*
X20580214Y-14878681D01*
X20565928Y-14864396D01*
X20537357Y-14850110D01*
X20480214Y-14850110D01*
X20451643Y-14864396D01*
X20437357Y-14878681D01*
X20423071Y-14907253D01*
X20423071Y-14978681D01*
X20437357Y-15007253D01*
X20451643Y-15021539D01*
X20480214Y-15035824D01*
X20537357Y-15035824D01*
X20565928Y-15021539D01*
X20580214Y-15007253D01*
X20594500Y-14978681D01*
X20708786Y-14850110D02*
X20708786Y-14907253D01*
X20823071Y-14850110D02*
X20823071Y-14907253D01*
X21265928Y-15264396D02*
X21251643Y-15250110D01*
X21223071Y-15207253D01*
X21208786Y-15178681D01*
X21194500Y-15135824D01*
X21180214Y-15064396D01*
X21180214Y-15007253D01*
X21194500Y-14935824D01*
X21208786Y-14892967D01*
X21223071Y-14864396D01*
X21251643Y-14821539D01*
X21265928Y-14807253D01*
X21508786Y-14950110D02*
X21508786Y-15150110D01*
X21437357Y-14835824D02*
X21365928Y-15050110D01*
X21551643Y-15050110D01*
X21894500Y-15150110D02*
X21894500Y-14850110D01*
X22023071Y-15150110D02*
X22023071Y-14992967D01*
X22008786Y-14964396D01*
X21980214Y-14950110D01*
X21937357Y-14950110D01*
X21908786Y-14964396D01*
X21894500Y-14978681D01*
X22208786Y-15150110D02*
X22180214Y-15135824D01*
X22165928Y-15121539D01*
X22151643Y-15092967D01*
X22151643Y-15007253D01*
X22165928Y-14978681D01*
X22180214Y-14964396D01*
X22208786Y-14950110D01*
X22251643Y-14950110D01*
X22280214Y-14964396D01*
X22294500Y-14978681D01*
X22308786Y-15007253D01*
X22308786Y-15092967D01*
X22294500Y-15121539D01*
X22280214Y-15135824D01*
X22251643Y-15150110D01*
X22208786Y-15150110D01*
X22480214Y-15150110D02*
X22451643Y-15135824D01*
X22437357Y-15107253D01*
X22437357Y-14850110D01*
X22708786Y-15135824D02*
X22680214Y-15150110D01*
X22623071Y-15150110D01*
X22594500Y-15135824D01*
X22580214Y-15107253D01*
X22580214Y-14992967D01*
X22594500Y-14964396D01*
X22623071Y-14950110D01*
X22680214Y-14950110D01*
X22708786Y-14964396D01*
X22723071Y-14992967D01*
X22723071Y-15021539D01*
X22580214Y-15050110D01*
X22837357Y-15135824D02*
X22865928Y-15150110D01*
X22923071Y-15150110D01*
X22951643Y-15135824D01*
X22965928Y-15107253D01*
X22965928Y-15092967D01*
X22951643Y-15064396D01*
X22923071Y-15050110D01*
X22880214Y-15050110D01*
X22851643Y-15035824D01*
X22837357Y-15007253D01*
X22837357Y-14992967D01*
X22851643Y-14964396D01*
X22880214Y-14950110D01*
X22923071Y-14950110D01*
X22951643Y-14964396D01*
X23065928Y-15264396D02*
X23080214Y-15250110D01*
X23108786Y-15207253D01*
X23123071Y-15178681D01*
X23137357Y-15135824D01*
X23151643Y-15064396D01*
X23151643Y-15007253D01*
X23137357Y-14935824D01*
X23123071Y-14892967D01*
X23108786Y-14864396D01*
X23080214Y-14821539D01*
X23065928Y-14807253D01*
X16509500Y-15375396D02*
X16579500Y-15445396D01*
X16579500Y-15375396D02*
X16509500Y-15445396D01*
X16579500Y-15410396D02*
G75*
G03X16579500Y-15410396I-35000J0D01*
G01*
X16923071Y-15246110D02*
X16951643Y-15246110D01*
X16980214Y-15260396D01*
X16994500Y-15274681D01*
X17008786Y-15303253D01*
X17023071Y-15360396D01*
X17023071Y-15431824D01*
X17008786Y-15488967D01*
X16994500Y-15517539D01*
X16980214Y-15531824D01*
X16951643Y-15546110D01*
X16923071Y-15546110D01*
X16894500Y-15531824D01*
X16880214Y-15517539D01*
X16865928Y-15488967D01*
X16851643Y-15431824D01*
X16851643Y-15360396D01*
X16865928Y-15303253D01*
X16880214Y-15274681D01*
X16894500Y-15260396D01*
X16923071Y-15246110D01*
X17151643Y-15517539D02*
X17165928Y-15531824D01*
X17151643Y-15546110D01*
X17137357Y-15531824D01*
X17151643Y-15517539D01*
X17151643Y-15546110D01*
X17265928Y-15246110D02*
X17465928Y-15246110D01*
X17337357Y-15546110D01*
X17637357Y-15246110D02*
X17665928Y-15246110D01*
X17694500Y-15260396D01*
X17708786Y-15274681D01*
X17723071Y-15303253D01*
X17737357Y-15360396D01*
X17737357Y-15431824D01*
X17723071Y-15488967D01*
X17708786Y-15517539D01*
X17694500Y-15531824D01*
X17665928Y-15546110D01*
X17637357Y-15546110D01*
X17608786Y-15531824D01*
X17594500Y-15517539D01*
X17580214Y-15488967D01*
X17565928Y-15431824D01*
X17565928Y-15360396D01*
X17580214Y-15303253D01*
X17594500Y-15274681D01*
X17608786Y-15260396D01*
X17637357Y-15246110D01*
X17865928Y-15546110D02*
X17865928Y-15346110D01*
X17865928Y-15374681D02*
X17880214Y-15360396D01*
X17908786Y-15346110D01*
X17951643Y-15346110D01*
X17980214Y-15360396D01*
X17994500Y-15388967D01*
X17994500Y-15546110D01*
X17994500Y-15388967D02*
X18008786Y-15360396D01*
X18037357Y-15346110D01*
X18080214Y-15346110D01*
X18108786Y-15360396D01*
X18123071Y-15388967D01*
X18123071Y-15546110D01*
X18265928Y-15546110D02*
X18265928Y-15346110D01*
X18265928Y-15374681D02*
X18280214Y-15360396D01*
X18308786Y-15346110D01*
X18351643Y-15346110D01*
X18380214Y-15360396D01*
X18394500Y-15388967D01*
X18394500Y-15546110D01*
X18394500Y-15388967D02*
X18408786Y-15360396D01*
X18437357Y-15346110D01*
X18480214Y-15346110D01*
X18508786Y-15360396D01*
X18523071Y-15388967D01*
X18523071Y-15546110D01*
X19108786Y-15231824D02*
X18851643Y-15617539D01*
X19494500Y-15246110D02*
X19523071Y-15246110D01*
X19551643Y-15260396D01*
X19565928Y-15274681D01*
X19580214Y-15303253D01*
X19594500Y-15360396D01*
X19594500Y-15431824D01*
X19580214Y-15488967D01*
X19565928Y-15517539D01*
X19551643Y-15531824D01*
X19523071Y-15546110D01*
X19494500Y-15546110D01*
X19465928Y-15531824D01*
X19451643Y-15517539D01*
X19437357Y-15488967D01*
X19423071Y-15431824D01*
X19423071Y-15360396D01*
X19437357Y-15303253D01*
X19451643Y-15274681D01*
X19465928Y-15260396D01*
X19494500Y-15246110D01*
X19723071Y-15517539D02*
X19737357Y-15531824D01*
X19723071Y-15546110D01*
X19708786Y-15531824D01*
X19723071Y-15517539D01*
X19723071Y-15546110D01*
X19923071Y-15246110D02*
X19951643Y-15246110D01*
X19980214Y-15260396D01*
X19994500Y-15274681D01*
X20008786Y-15303253D01*
X20023071Y-15360396D01*
X20023071Y-15431824D01*
X20008786Y-15488967D01*
X19994500Y-15517539D01*
X19980214Y-15531824D01*
X19951643Y-15546110D01*
X19923071Y-15546110D01*
X19894500Y-15531824D01*
X19880214Y-15517539D01*
X19865928Y-15488967D01*
X19851643Y-15431824D01*
X19851643Y-15360396D01*
X19865928Y-15303253D01*
X19880214Y-15274681D01*
X19894500Y-15260396D01*
X19923071Y-15246110D01*
X20137357Y-15274681D02*
X20151643Y-15260396D01*
X20180214Y-15246110D01*
X20251643Y-15246110D01*
X20280214Y-15260396D01*
X20294500Y-15274681D01*
X20308786Y-15303253D01*
X20308786Y-15331824D01*
X20294500Y-15374681D01*
X20123071Y-15546110D01*
X20308786Y-15546110D01*
X20480214Y-15374681D02*
X20451643Y-15360396D01*
X20437357Y-15346110D01*
X20423071Y-15317539D01*
X20423071Y-15303253D01*
X20437357Y-15274681D01*
X20451643Y-15260396D01*
X20480214Y-15246110D01*
X20537357Y-15246110D01*
X20565928Y-15260396D01*
X20580214Y-15274681D01*
X20594500Y-15303253D01*
X20594500Y-15317539D01*
X20580214Y-15346110D01*
X20565928Y-15360396D01*
X20537357Y-15374681D01*
X20480214Y-15374681D01*
X20451643Y-15388967D01*
X20437357Y-15403253D01*
X20423071Y-15431824D01*
X20423071Y-15488967D01*
X20437357Y-15517539D01*
X20451643Y-15531824D01*
X20480214Y-15546110D01*
X20537357Y-15546110D01*
X20565928Y-15531824D01*
X20580214Y-15517539D01*
X20594500Y-15488967D01*
X20594500Y-15431824D01*
X20580214Y-15403253D01*
X20565928Y-15388967D01*
X20537357Y-15374681D01*
X20708786Y-15246110D02*
X20708786Y-15303253D01*
X20823071Y-15246110D02*
X20823071Y-15303253D01*
X21265928Y-15660396D02*
X21251643Y-15646110D01*
X21223071Y-15603253D01*
X21208786Y-15574681D01*
X21194500Y-15531824D01*
X21180214Y-15460396D01*
X21180214Y-15403253D01*
X21194500Y-15331824D01*
X21208786Y-15288967D01*
X21223071Y-15260396D01*
X21251643Y-15217539D01*
X21265928Y-15203253D01*
X21365928Y-15274681D02*
X21380214Y-15260396D01*
X21408786Y-15246110D01*
X21480214Y-15246110D01*
X21508786Y-15260396D01*
X21523071Y-15274681D01*
X21537357Y-15303253D01*
X21537357Y-15331824D01*
X21523071Y-15374681D01*
X21351643Y-15546110D01*
X21537357Y-15546110D01*
X21894500Y-15546110D02*
X21894500Y-15246110D01*
X22023071Y-15546110D02*
X22023071Y-15388967D01*
X22008786Y-15360396D01*
X21980214Y-15346110D01*
X21937357Y-15346110D01*
X21908786Y-15360396D01*
X21894500Y-15374681D01*
X22208786Y-15546110D02*
X22180214Y-15531824D01*
X22165928Y-15517539D01*
X22151643Y-15488967D01*
X22151643Y-15403253D01*
X22165928Y-15374681D01*
X22180214Y-15360396D01*
X22208786Y-15346110D01*
X22251643Y-15346110D01*
X22280214Y-15360396D01*
X22294500Y-15374681D01*
X22308786Y-15403253D01*
X22308786Y-15488967D01*
X22294500Y-15517539D01*
X22280214Y-15531824D01*
X22251643Y-15546110D01*
X22208786Y-15546110D01*
X22480214Y-15546110D02*
X22451643Y-15531824D01*
X22437357Y-15503253D01*
X22437357Y-15246110D01*
X22708786Y-15531824D02*
X22680214Y-15546110D01*
X22623071Y-15546110D01*
X22594500Y-15531824D01*
X22580214Y-15503253D01*
X22580214Y-15388967D01*
X22594500Y-15360396D01*
X22623071Y-15346110D01*
X22680214Y-15346110D01*
X22708786Y-15360396D01*
X22723071Y-15388967D01*
X22723071Y-15417539D01*
X22580214Y-15446110D01*
X22837357Y-15531824D02*
X22865928Y-15546110D01*
X22923071Y-15546110D01*
X22951643Y-15531824D01*
X22965928Y-15503253D01*
X22965928Y-15488967D01*
X22951643Y-15460396D01*
X22923071Y-15446110D01*
X22880214Y-15446110D01*
X22851643Y-15431824D01*
X22837357Y-15403253D01*
X22837357Y-15388967D01*
X22851643Y-15360396D01*
X22880214Y-15346110D01*
X22923071Y-15346110D01*
X22951643Y-15360396D01*
X23065928Y-15660396D02*
X23080214Y-15646110D01*
X23108786Y-15603253D01*
X23123071Y-15574681D01*
X23137357Y-15531824D01*
X23151643Y-15460396D01*
X23151643Y-15403253D01*
X23137357Y-15331824D01*
X23123071Y-15288967D01*
X23108786Y-15260396D01*
X23080214Y-15217539D01*
X23065928Y-15203253D01*
X23608786Y-15660396D02*
X23594500Y-15646110D01*
X23565928Y-15603253D01*
X23551643Y-15574681D01*
X23537357Y-15531824D01*
X23523071Y-15460396D01*
X23523071Y-15403253D01*
X23537357Y-15331824D01*
X23551643Y-15288967D01*
X23565928Y-15260396D01*
X23594500Y-15217539D01*
X23608786Y-15203253D01*
X23723071Y-15346110D02*
X23723071Y-15546110D01*
X23723071Y-15374681D02*
X23737357Y-15360396D01*
X23765928Y-15346110D01*
X23808786Y-15346110D01*
X23837357Y-15360396D01*
X23851643Y-15388967D01*
X23851643Y-15546110D01*
X24037357Y-15546110D02*
X24008786Y-15531824D01*
X23994500Y-15517539D01*
X23980214Y-15488967D01*
X23980214Y-15403253D01*
X23994500Y-15374681D01*
X24008786Y-15360396D01*
X24037357Y-15346110D01*
X24080214Y-15346110D01*
X24108786Y-15360396D01*
X24123071Y-15374681D01*
X24137357Y-15403253D01*
X24137357Y-15488967D01*
X24123071Y-15517539D01*
X24108786Y-15531824D01*
X24080214Y-15546110D01*
X24037357Y-15546110D01*
X24223071Y-15346110D02*
X24337357Y-15346110D01*
X24265928Y-15246110D02*
X24265928Y-15503253D01*
X24280214Y-15531824D01*
X24308786Y-15546110D01*
X24337357Y-15546110D01*
X24665928Y-15346110D02*
X24665928Y-15646110D01*
X24665928Y-15360396D02*
X24694500Y-15346110D01*
X24751643Y-15346110D01*
X24780214Y-15360396D01*
X24794500Y-15374681D01*
X24808786Y-15403253D01*
X24808786Y-15488967D01*
X24794500Y-15517539D01*
X24780214Y-15531824D01*
X24751643Y-15546110D01*
X24694500Y-15546110D01*
X24665928Y-15531824D01*
X24980214Y-15546110D02*
X24951643Y-15531824D01*
X24937357Y-15503253D01*
X24937357Y-15246110D01*
X25223071Y-15546110D02*
X25223071Y-15388967D01*
X25208786Y-15360396D01*
X25180214Y-15346110D01*
X25123071Y-15346110D01*
X25094500Y-15360396D01*
X25223071Y-15531824D02*
X25194500Y-15546110D01*
X25123071Y-15546110D01*
X25094500Y-15531824D01*
X25080214Y-15503253D01*
X25080214Y-15474681D01*
X25094500Y-15446110D01*
X25123071Y-15431824D01*
X25194500Y-15431824D01*
X25223071Y-15417539D01*
X25323071Y-15346110D02*
X25437357Y-15346110D01*
X25365928Y-15246110D02*
X25365928Y-15503253D01*
X25380214Y-15531824D01*
X25408786Y-15546110D01*
X25437357Y-15546110D01*
X25651643Y-15531824D02*
X25623071Y-15546110D01*
X25565928Y-15546110D01*
X25537357Y-15531824D01*
X25523071Y-15503253D01*
X25523071Y-15388967D01*
X25537357Y-15360396D01*
X25565928Y-15346110D01*
X25623071Y-15346110D01*
X25651643Y-15360396D01*
X25665928Y-15388967D01*
X25665928Y-15417539D01*
X25523071Y-15446110D01*
X25923071Y-15546110D02*
X25923071Y-15246110D01*
X25923071Y-15531824D02*
X25894500Y-15546110D01*
X25837357Y-15546110D01*
X25808786Y-15531824D01*
X25794500Y-15517539D01*
X25780214Y-15488967D01*
X25780214Y-15403253D01*
X25794500Y-15374681D01*
X25808786Y-15360396D01*
X25837357Y-15346110D01*
X25894500Y-15346110D01*
X25923071Y-15360396D01*
X26037357Y-15660396D02*
X26051643Y-15646110D01*
X26080214Y-15603253D01*
X26094500Y-15574681D01*
X26108786Y-15531824D01*
X26123071Y-15460396D01*
X26123071Y-15403253D01*
X26108786Y-15331824D01*
X26094500Y-15288967D01*
X26080214Y-15260396D01*
X26051643Y-15217539D01*
X26037357Y-15203253D01*
M02*
