<?xml version="1.0" standalone="no"?>
 <!DOCTYPE svg PUBLIC "-//W3C//DTD SVG 1.1//EN" 
 "http://www.w3.org/Graphics/SVG/1.1/DTD/svg11.dtd"> 
<svg xmlns="http://www.w3.org/2000/svg" version="1.1" 
    width="29.7002cm" height="21.0007cm" viewBox="0 0 116930 82680 ">
<title>SVG Picture created as USBee32-S2-drl_map.svg date 2021/10/10 13:02:11 </title>
  <desc>Picture generated by PCBNEW </desc>
<g style="fill:#000000; fill-opacity:1;stroke:#000000; stroke-opacity:1;
stroke-linecap:round; stroke-linejoin:round; "
 transform="translate(0 0) scale(1 1)">
</g>
<g style="fill:#000000; fill-opacity:0.0; 
stroke:#000000; stroke-width:-0.000393701; stroke-opacity:1; 
stroke-linecap:round; stroke-linejoin:round;">
</g>
<g style="fill:#000000; fill-opacity:0.0; 
stroke:#000000; stroke-width:19.685; stroke-opacity:1; 
stroke-linecap:round; stroke-linejoin:round;">
<path d="M65283 22803
L65283 48488
" />
<path d="M65807 49074
L75775 49086
" />
<path d="M65283.9 48488.1 A590.551 590.551 0.0 0 0 65807.1 49074.8 " />
<path d="M76362 22803
L76362 48562
" />
<path d="M65874 22212
L75771 22212
" />
<path d="M75775.5 49086.2 A590.551 590.551 0.0 0 0 76362.2 48563 " />
<path d="M65874 22212.6 A590.551 590.551 0.0 0 0 65283.5 22803.1 " />
<path d="M76362.2 22803.1 A591.118 591.118 0.0 0 0 75771.1 22212.2 " />
</g>
<g style="fill:#000000; fill-opacity:0.0; 
stroke:#000000; stroke-width:78.7402; stroke-opacity:1; 
stroke-linecap:round; stroke-linejoin:round;">
<path d="M65629 44645
L65787 44803
" />
<path d="M65787 44645
L65629 44803
" />
<path d="M65629 45354
L65787 45511
" />
<path d="M65787 45354
L65629 45511
" />
<path d="M66200 47948
L66358 48106
" />
<path d="M66358 47948
L66200 48106
" />
<path d="M66279 46413
L66437 46570
" />
<path d="M66437 46413
L66279 46570
" />
<path d="M66837 42106
L66995 42263
" />
<path d="M66995 42106
L66837 42263
" />
<path d="M66968 38149
L67125 38307
" />
<path d="M67125 38149
L66968 38307
" />
<path d="M67165 45039
L67322 45196
" />
<path d="M67322 45039
L67165 45196
" />
<path d="M67322 38582
L67480 38740
" />
<path d="M67480 38582
L67322 38740
" />
<path d="M67559 44960
L67716 45118
" />
<path d="M67716 44960
L67559 45118
" />
<path d="M67748 32934
L67905 33092
" />
<path d="M67905 32934
L67748 33092
" />
<path d="M67778 36684
L67935 36842
" />
<path d="M67935 36684
L67778 36842
" />
<path d="M67865 30251
L68022 30409
" />
<path d="M68022 30251
L67865 30409
" />
<path d="M67869 29656
L68026 29814
" />
<path d="M68026 29656
L67869 29814
" />
<path d="M67871 29079
L68028 29237
" />
<path d="M68028 29079
L67871 29237
" />
<path d="M67893 22579
L68050 22737
" />
<path d="M68050 22579
L67893 22737
" />
<path d="M68051 24015
L68208 24173
" />
<path d="M68208 24015
L68051 24173
" />
<path d="M68097 42145
L68255 42303
" />
<path d="M68255 42145
L68097 42303
" />
<path d="M68139 44891
L68297 45049
" />
<path d="M68297 44891
L68139 45049
" />
<path d="M68267 41299
L68425 41456
" />
<path d="M68425 41299
L68267 41456
" />
<path d="M68279 45509
L68436 45666
" />
<path d="M68436 45509
L68279 45666
" />
<path d="M68385 39370
L68543 39527
" />
<path d="M68543 39370
L68385 39527
" />
<path d="M68410 37099
L68568 37257
" />
<path d="M68568 37099
L68410 37257
" />
<path d="M68503 44094
L68661 44251
" />
<path d="M68661 44094
L68503 44251
" />
<path d="M68700 29655
L68858 29813
" />
<path d="M68858 29655
L68700 29813
" />
<path d="M69094 36417
L69251 36574
" />
<path d="M69251 36417
L69094 36574
" />
<path d="M69249 34842
L69406 35000
" />
<path d="M69406 34842
L69249 35000
" />
<path d="M69268 32934
L69425 33092
" />
<path d="M69425 32934
L69268 33092
" />
<path d="M69305 24821
L69462 24978
" />
<path d="M69462 24821
L69305 24978
" />
<path d="M69305 25411
L69462 25569
" />
<path d="M69462 25411
L69305 25569
" />
<path d="M69305 26002
L69462 26159
" />
<path d="M69462 26002
L69305 26159
" />
<path d="M69305 26593
L69462 26750
" />
<path d="M69462 26593
L69305 26750
" />
<path d="M69409 43110
L69566 43267
" />
<path d="M69566 43110
L69409 43267
" />
<path d="M69468 42268
L69625 42425
" />
<path d="M69625 42268
L69468 42425
" />
<path d="M69763 36417
L69921 36574
" />
<path d="M69921 36417
L69763 36574
" />
<path d="M69803 40944
L69960 41102
" />
<path d="M69960 40944
L69803 41102
" />
<path d="M69895 24821
L70053 24978
" />
<path d="M70053 24821
L69895 24978
" />
<path d="M69895 25411
L70053 25569
" />
<path d="M70053 25411
L69895 25569
" />
<path d="M69895 26002
L70053 26159
" />
<path d="M70053 26002
L69895 26159
" />
<path d="M69895 26593
L70053 26750
" />
<path d="M70053 26593
L69895 26750
" />
<path d="M69907 39220
L70064 39377
" />
<path d="M70064 39220
L69907 39377
" />
<path d="M69928 34859
L70085 35017
" />
<path d="M70085 34859
L69928 35017
" />
<path d="M69948 44773
L70105 44931
" />
<path d="M70105 44773
L69948 44931
" />
<path d="M70199 38927
L70356 39085
" />
<path d="M70356 38927
L70199 39085
" />
<path d="M70361 44773
L70519 44931
" />
<path d="M70519 44773
L70361 44931
" />
<path d="M70433 36417
L70590 36574
" />
<path d="M70590 36417
L70433 36574
" />
<path d="M70486 24821
L70643 24978
" />
<path d="M70643 24821
L70486 24978
" />
<path d="M70486 25411
L70643 25569
" />
<path d="M70643 25411
L70486 25569
" />
<path d="M70486 26002
L70643 26159
" />
<path d="M70643 26002
L70486 26159
" />
<path d="M70486 26593
L70643 26750
" />
<path d="M70643 26593
L70486 26750
" />
<path d="M70720 32342
L70877 32500
" />
<path d="M70877 32342
L70720 32500
" />
<path d="M70863 33934
L71020 34091
" />
<path d="M71020 33934
L70863 34091
" />
<path d="M70863 34839
L71020 34997
" />
<path d="M71020 34839
L70863 34997
" />
<path d="M70883 39272
L71040 39429
" />
<path d="M71040 39272
L70883 39429
" />
<path d="M71045 38228
L71202 38385
" />
<path d="M71202 38228
L71045 38385
" />
<path d="M71076 24821
L71234 24978
" />
<path d="M71234 24821
L71076 24978
" />
<path d="M71076 25411
L71234 25569
" />
<path d="M71234 25411
L71076 25569
" />
<path d="M71076 26002
L71234 26159
" />
<path d="M71234 26002
L71076 26159
" />
<path d="M71076 26593
L71234 26750
" />
<path d="M71234 26593
L71076 26750
" />
<path d="M71141 36417
L71299 36574
" />
<path d="M71299 36417
L71141 36574
" />
<path d="M71299 43700
L71456 43858
" />
<path d="M71456 43700
L71299 43858
" />
<path d="M71545 38228
L71702 38385
" />
<path d="M71702 38228
L71545 38385
" />
<path d="M71749 45614
L71906 45771
" />
<path d="M71906 45614
L71749 45771
" />
<path d="M71771 44881
L71929 45039
" />
<path d="M71929 44881
L71771 45039
" />
<path d="M71850 43661
L72007 43818
" />
<path d="M72007 43661
L71850 43818
" />
<path d="M72031 42441
L72188 42598
" />
<path d="M72188 42441
L72031 42598
" />
<path d="M72047 38897
L72204 39055
" />
<path d="M72204 38897
L72047 39055
" />
<path d="M72234 44177
L72391 44334
" />
<path d="M72391 44177
L72234 44334
" />
<path d="M72535 39807
L72692 39964
" />
<path d="M72692 39807
L72535 39964
" />
<path d="M72716 43582
L72874 43740
" />
<path d="M72874 43582
L72716 43740
" />
<path d="M72751 40801
L72908 40958
" />
<path d="M72908 40801
L72751 40958
" />
<path d="M72872 45296
L73029 45453
" />
<path d="M73029 45296
L72872 45453
" />
<path d="M72991 37821
L73148 37978
" />
<path d="M73148 37821
L72991 37978
" />
<path d="M73005 39251
L73163 39409
" />
<path d="M73163 39251
L73005 39409
" />
<path d="M73041 39803
L73198 39960
" />
<path d="M73198 39803
L73041 39960
" />
<path d="M73190 29640
L73347 29798
" />
<path d="M73347 29640
L73190 29798
" />
<path d="M73190 30836
L73347 30994
" />
<path d="M73347 30836
L73190 30994
" />
<path d="M73191 30247
L73348 30405
" />
<path d="M73348 30247
L73191 30405
" />
<path d="M73197 23157
L73354 23315
" />
<path d="M73354 23157
L73197 23315
" />
<path d="M73202 29069
L73359 29227
" />
<path d="M73359 29069
L73202 29227
" />
<path d="M73210 25519
L73367 25677
" />
<path d="M73367 25519
L73210 25677
" />
<path d="M73214 24925
L73371 25083
" />
<path d="M73371 24925
L73214 25083
" />
<path d="M73348 34448
L73505 34606
" />
<path d="M73505 34448
L73348 34606
" />
<path d="M73348 35212
L73505 35370
" />
<path d="M73505 35212
L73348 35370
" />
<path d="M73401 41861
L73558 42018
" />
<path d="M73558 41861
L73401 42018
" />
<path d="M73841 33380
L73998 33537
" />
<path d="M73998 33380
L73841 33537
" />
<path d="M73918 31978
L74075 32136
" />
<path d="M74075 31978
L73918 32136
" />
<path d="M73951 41361
L74108 41518
" />
<path d="M74108 41361
L73951 41518
" />
<path d="M73952 42251
L74109 42408
" />
<path d="M74109 42251
L73952 42408
" />
<path d="M74133 33088
L74290 33245
" />
<path d="M74290 33088
L74133 33245
" />
<path d="M74161 36981
L74318 37138
" />
<path d="M74318 36981
L74161 37138
" />
<path d="M74191 37441
L74348 37598
" />
<path d="M74348 37441
L74191 37598
" />
<path d="M74482 42761
L74639 42918
" />
<path d="M74639 42761
L74482 42918
" />
<path d="M74774 43053
L74931 43210
" />
<path d="M74931 43053
L74774 43210
" />
<circle cx="68336.2" cy="46507.3" r="127.953" /> 
<path d="M68247 46290
L68247 46723
" />
<path d="M68424 46290
L68424 46723
" />
<path d="M68247.6 46723.9 A88.5827 88.5827 0.0 0 0 68424.8 46723.9 " />
<path d="M68424.8 46290.8 A88.5827 88.5827 0.0 0 0 68247.6 46290.8 " />
<circle cx="68336.2" cy="48153" r="127.953" /> 
<path d="M68247 48034
L68247 48271
" />
<path d="M68424 48034
L68424 48271
" />
<path d="M68247.6 48271.1 A88.5827 88.5827 0.0 0 0 68424.8 48271.1 " />
<path d="M68424.8 48034.9 A88.5827 88.5827 0.0 0 0 68247.6 48034.9 " />
<circle cx="71737.8" cy="46507.3" r="127.953" /> 
<path d="M71649 46290
L71649 46723
" />
<path d="M71826 46290
L71826 46723
" />
<path d="M71649.2 46723.9 A88.5827 88.5827 0.0 0 0 71826.4 46723.9 " />
<path d="M71826.4 46290.8 A88.5827 88.5827 0.0 0 0 71649.2 46290.8 " />
<circle cx="71737.8" cy="48153" r="127.953" /> 
<path d="M71649 48034
L71649 48271
" />
<path d="M71826 48034
L71826 48271
" />
<path d="M71649.2 48271.1 A88.5827 88.5827 0.0 0 0 71826.4 48271.1 " />
<path d="M71826.4 48034.9 A88.5827 88.5827 0.0 0 0 71649.2 48034.9 " />
<path d="M74606 45763
L74606 46125
" />
<path d="M74425 45944
L74787 45944
" />
<path d="M74606 46551
L74606 46913
" />
<path d="M74425 46732
L74787 46732
" />
<path d="M74606 47338
L74606 47700
" />
<path d="M74425 47519
L74787 47519
" />
<path d="M74606 48125
L74606 48488
" />
<path d="M74425 48307
L74787 48307
" />
<path style="fill:#000000; fill-opacity:0.0; 
stroke:#000000; stroke-width:78.7402; stroke-opacity:1; 
stroke-linecap:round; stroke-linejoin:round;fill:none"
d="M 66056.5,22979.7
66056.5,22701.4
65778.1,22701.4
65778.1,22979.7
Z" /> 
<path style="fill:#000000; fill-opacity:0.0; 
stroke:#000000; stroke-width:78.7402; stroke-opacity:1; 
stroke-linecap:round; stroke-linejoin:round;fill:none"
d="M 66056.5,23979.7
66056.5,23701.4
65778.1,23701.4
65778.1,23979.7
Z" /> 
<path style="fill:#000000; fill-opacity:0.0; 
stroke:#000000; stroke-width:78.7402; stroke-opacity:1; 
stroke-linecap:round; stroke-linejoin:round;fill:none"
d="M 66056.5,24979.7
66056.5,24701.4
65778.1,24701.4
65778.1,24979.7
Z" /> 
<path style="fill:#000000; fill-opacity:0.0; 
stroke:#000000; stroke-width:78.7402; stroke-opacity:1; 
stroke-linecap:round; stroke-linejoin:round;fill:none"
d="M 66056.5,25979.7
66056.5,25701.4
65778.1,25701.4
65778.1,25979.7
Z" /> 
<path style="fill:#000000; fill-opacity:0.0; 
stroke:#000000; stroke-width:78.7402; stroke-opacity:1; 
stroke-linecap:round; stroke-linejoin:round;fill:none"
d="M 66056.5,26979.7
66056.5,26701.4
65778.1,26701.4
65778.1,26979.7
Z" /> 
<path style="fill:#000000; fill-opacity:0.0; 
stroke:#000000; stroke-width:78.7402; stroke-opacity:1; 
stroke-linecap:round; stroke-linejoin:round;fill:none"
d="M 66056.5,27979.7
66056.5,27701.4
65778.1,27701.4
65778.1,27979.7
Z" /> 
<path style="fill:#000000; fill-opacity:0.0; 
stroke:#000000; stroke-width:78.7402; stroke-opacity:1; 
stroke-linecap:round; stroke-linejoin:round;fill:none"
d="M 66056.5,28979.7
66056.5,28701.4
65778.1,28701.4
65778.1,28979.7
Z" /> 
<path style="fill:#000000; fill-opacity:0.0; 
stroke:#000000; stroke-width:78.7402; stroke-opacity:1; 
stroke-linecap:round; stroke-linejoin:round;fill:none"
d="M 66056.5,29979.7
66056.5,29701.4
65778.1,29701.4
65778.1,29979.7
Z" /> 
<path style="fill:#000000; fill-opacity:0.0; 
stroke:#000000; stroke-width:78.7402; stroke-opacity:1; 
stroke-linecap:round; stroke-linejoin:round;fill:none"
d="M 66056.5,30979.7
66056.5,30701.4
65778.1,30701.4
65778.1,30979.7
Z" /> 
<path style="fill:#000000; fill-opacity:0.0; 
stroke:#000000; stroke-width:78.7402; stroke-opacity:1; 
stroke-linecap:round; stroke-linejoin:round;fill:none"
d="M 66056.5,31979.7
66056.5,31701.4
65778.1,31701.4
65778.1,31979.7
Z" /> 
<path style="fill:#000000; fill-opacity:0.0; 
stroke:#000000; stroke-width:78.7402; stroke-opacity:1; 
stroke-linecap:round; stroke-linejoin:round;fill:none"
d="M 66056.5,32979.7
66056.5,32701.4
65778.1,32701.4
65778.1,32979.7
Z" /> 
<path style="fill:#000000; fill-opacity:0.0; 
stroke:#000000; stroke-width:78.7402; stroke-opacity:1; 
stroke-linecap:round; stroke-linejoin:round;fill:none"
d="M 66056.5,33979.7
66056.5,33701.4
65778.1,33701.4
65778.1,33979.7
Z" /> 
<path style="fill:#000000; fill-opacity:0.0; 
stroke:#000000; stroke-width:78.7402; stroke-opacity:1; 
stroke-linecap:round; stroke-linejoin:round;fill:none"
d="M 66056.5,34979.7
66056.5,34701.4
65778.1,34701.4
65778.1,34979.7
Z" /> 
<path style="fill:#000000; fill-opacity:0.0; 
stroke:#000000; stroke-width:78.7402; stroke-opacity:1; 
stroke-linecap:round; stroke-linejoin:round;fill:none"
d="M 66056.5,35979.7
66056.5,35701.4
65778.1,35701.4
65778.1,35979.7
Z" /> 
<path style="fill:#000000; fill-opacity:0.0; 
stroke:#000000; stroke-width:78.7402; stroke-opacity:1; 
stroke-linecap:round; stroke-linejoin:round;fill:none"
d="M 66056.5,36979.7
66056.5,36701.4
65778.1,36701.4
65778.1,36979.7
Z" /> 
<path style="fill:#000000; fill-opacity:0.0; 
stroke:#000000; stroke-width:78.7402; stroke-opacity:1; 
stroke-linecap:round; stroke-linejoin:round;fill:none"
d="M 66056.5,37979.7
66056.5,37701.4
65778.1,37701.4
65778.1,37979.7
Z" /> 
<path style="fill:#000000; fill-opacity:0.0; 
stroke:#000000; stroke-width:78.7402; stroke-opacity:1; 
stroke-linecap:round; stroke-linejoin:round;fill:none"
d="M 66056.5,38979.7
66056.5,38701.4
65778.1,38701.4
65778.1,38979.7
Z" /> 
<path style="fill:#000000; fill-opacity:0.0; 
stroke:#000000; stroke-width:78.7402; stroke-opacity:1; 
stroke-linecap:round; stroke-linejoin:round;fill:none"
d="M 66056.5,39979.7
66056.5,39701.4
65778.1,39701.4
65778.1,39979.7
Z" /> 
<path style="fill:#000000; fill-opacity:0.0; 
stroke:#000000; stroke-width:78.7402; stroke-opacity:1; 
stroke-linecap:round; stroke-linejoin:round;fill:none"
d="M 75816.4,22979.7
75816.4,22701.4
75538,22701.4
75538,22979.7
Z" /> 
<path style="fill:#000000; fill-opacity:0.0; 
stroke:#000000; stroke-width:78.7402; stroke-opacity:1; 
stroke-linecap:round; stroke-linejoin:round;fill:none"
d="M 75816.4,23979.7
75816.4,23701.4
75538,23701.4
75538,23979.7
Z" /> 
<path style="fill:#000000; fill-opacity:0.0; 
stroke:#000000; stroke-width:78.7402; stroke-opacity:1; 
stroke-linecap:round; stroke-linejoin:round;fill:none"
d="M 75816.4,24979.7
75816.4,24701.4
75538,24701.4
75538,24979.7
Z" /> 
<path style="fill:#000000; fill-opacity:0.0; 
stroke:#000000; stroke-width:78.7402; stroke-opacity:1; 
stroke-linecap:round; stroke-linejoin:round;fill:none"
d="M 75816.4,25979.7
75816.4,25701.4
75538,25701.4
75538,25979.7
Z" /> 
<path style="fill:#000000; fill-opacity:0.0; 
stroke:#000000; stroke-width:78.7402; stroke-opacity:1; 
stroke-linecap:round; stroke-linejoin:round;fill:none"
d="M 75816.4,26979.7
75816.4,26701.4
75538,26701.4
75538,26979.7
Z" /> 
<path style="fill:#000000; fill-opacity:0.0; 
stroke:#000000; stroke-width:78.7402; stroke-opacity:1; 
stroke-linecap:round; stroke-linejoin:round;fill:none"
d="M 75816.4,27979.7
75816.4,27701.4
75538,27701.4
75538,27979.7
Z" /> 
<path style="fill:#000000; fill-opacity:0.0; 
stroke:#000000; stroke-width:78.7402; stroke-opacity:1; 
stroke-linecap:round; stroke-linejoin:round;fill:none"
d="M 75816.4,28979.7
75816.4,28701.4
75538,28701.4
75538,28979.7
Z" /> 
<path style="fill:#000000; fill-opacity:0.0; 
stroke:#000000; stroke-width:78.7402; stroke-opacity:1; 
stroke-linecap:round; stroke-linejoin:round;fill:none"
d="M 75816.4,29979.7
75816.4,29701.4
75538,29701.4
75538,29979.7
Z" /> 
<path style="fill:#000000; fill-opacity:0.0; 
stroke:#000000; stroke-width:78.7402; stroke-opacity:1; 
stroke-linecap:round; stroke-linejoin:round;fill:none"
d="M 75816.4,30979.7
75816.4,30701.4
75538,30701.4
75538,30979.7
Z" /> 
<path style="fill:#000000; fill-opacity:0.0; 
stroke:#000000; stroke-width:78.7402; stroke-opacity:1; 
stroke-linecap:round; stroke-linejoin:round;fill:none"
d="M 75816.4,31979.7
75816.4,31701.4
75538,31701.4
75538,31979.7
Z" /> 
<path style="fill:#000000; fill-opacity:0.0; 
stroke:#000000; stroke-width:78.7402; stroke-opacity:1; 
stroke-linecap:round; stroke-linejoin:round;fill:none"
d="M 75816.4,32979.7
75816.4,32701.4
75538,32701.4
75538,32979.7
Z" /> 
<path style="fill:#000000; fill-opacity:0.0; 
stroke:#000000; stroke-width:78.7402; stroke-opacity:1; 
stroke-linecap:round; stroke-linejoin:round;fill:none"
d="M 75816.4,33979.7
75816.4,33701.4
75538,33701.4
75538,33979.7
Z" /> 
<path style="fill:#000000; fill-opacity:0.0; 
stroke:#000000; stroke-width:78.7402; stroke-opacity:1; 
stroke-linecap:round; stroke-linejoin:round;fill:none"
d="M 75816.4,34979.7
75816.4,34701.4
75538,34701.4
75538,34979.7
Z" /> 
<path style="fill:#000000; fill-opacity:0.0; 
stroke:#000000; stroke-width:78.7402; stroke-opacity:1; 
stroke-linecap:round; stroke-linejoin:round;fill:none"
d="M 75816.4,35979.7
75816.4,35701.4
75538,35701.4
75538,35979.7
Z" /> 
<path style="fill:#000000; fill-opacity:0.0; 
stroke:#000000; stroke-width:78.7402; stroke-opacity:1; 
stroke-linecap:round; stroke-linejoin:round;fill:none"
d="M 75816.4,36979.7
75816.4,36701.4
75538,36701.4
75538,36979.7
Z" /> 
<path style="fill:#000000; fill-opacity:0.0; 
stroke:#000000; stroke-width:78.7402; stroke-opacity:1; 
stroke-linecap:round; stroke-linejoin:round;fill:none"
d="M 75816.4,37979.7
75816.4,37701.4
75538,37701.4
75538,37979.7
Z" /> 
<path style="fill:#000000; fill-opacity:0.0; 
stroke:#000000; stroke-width:78.7402; stroke-opacity:1; 
stroke-linecap:round; stroke-linejoin:round;fill:none"
d="M 75816.4,38979.7
75816.4,38701.4
75538,38701.4
75538,38979.7
Z" /> 
<path style="fill:#000000; fill-opacity:0.0; 
stroke:#000000; stroke-width:78.7402; stroke-opacity:1; 
stroke-linecap:round; stroke-linejoin:round;fill:none"
d="M 75816.4,39979.7
75816.4,39701.4
75538,39701.4
75538,39979.7
Z" /> 
<path style="fill:#000000; fill-opacity:0.0; 
stroke:#000000; stroke-width:78.7402; stroke-opacity:1; 
stroke-linecap:round; stroke-linejoin:round;fill:none"
d="M 75816.4,40979.7
75816.4,40701.4
75538,40701.4
75538,40979.7
Z" /> 
<path style="fill:#000000; fill-opacity:0.0; 
stroke:#000000; stroke-width:78.7402; stroke-opacity:1; 
stroke-linecap:round; stroke-linejoin:round;fill:none"
d="M 75816.4,41979.7
75816.4,41701.4
75538,41701.4
75538,41979.7
Z" /> 
<path style="fill:#000000; fill-opacity:0.0; 
stroke:#000000; stroke-width:78.7402; stroke-opacity:1; 
stroke-linecap:round; stroke-linejoin:round;fill:none"
d="M 75816.4,42979.7
75816.4,42701.4
75538,42701.4
75538,42979.7
Z" /> 
<path style="fill:#000000; fill-opacity:0.0; 
stroke:#000000; stroke-width:78.7402; stroke-opacity:1; 
stroke-linecap:round; stroke-linejoin:round;fill:none"
d="M 75816.4,43979.7
75816.4,43701.4
75538,43701.4
75538,43979.7
Z" /> 
<path style="fill:#000000; fill-opacity:0.0; 
stroke:#000000; stroke-width:78.7402; stroke-opacity:1; 
stroke-linecap:round; stroke-linejoin:round;fill:none"
d="M 73535.4,46133.9
73830.7,45838.6
73535.4,45543.3
73240.2,45838.6
Z" /> 
<path style="fill:#000000; fill-opacity:0.0; 
stroke:#000000; stroke-width:78.7402; stroke-opacity:1; 
stroke-linecap:round; stroke-linejoin:round;fill:none"
d="M 73535.4,48889.8
73830.7,48594.5
73535.4,48299.2
73240.2,48594.5
Z" /> 
<path style="fill:#000000; fill-opacity:0.0; 
stroke:#000000; stroke-width:78.7402; stroke-opacity:1; 
stroke-linecap:round; stroke-linejoin:round;fill:none"
d="M 75677.2,46133.9
75972.4,45838.6
75677.2,45543.3
75381.9,45838.6
Z" /> 
<path style="fill:#000000; fill-opacity:0.0; 
stroke:#000000; stroke-width:78.7402; stroke-opacity:1; 
stroke-linecap:round; stroke-linejoin:round;fill:none"
d="M 75677.2,48889.8
75972.4,48594.5
75677.2,48299.2
75381.9,48594.5
Z" /> 
<path d="M68761 46578
L69037 46853
" />
<path d="M69037 46578
L68761 46853
" />
<circle cx="68899.2" cy="46716" r="137.795" /> 
<path d="M71037 46578
L71312 46853
" />
<path d="M71312 46578
L71037 46853
" />
<circle cx="71174.8" cy="46716" r="137.795" /> 
</g>
<g style="fill:#000000; fill-opacity:0.0; 
stroke:#000000; stroke-width:118.11; stroke-opacity:1; 
stroke-linecap:round; stroke-linejoin:round;">
<text x="66061" y="50985.8"
textLength="8779.53" font-size="1574.8" lengthAdjust="spacingAndGlyphs"
text-anchor="start" opacity="0">Drill Map:</text>
<path d="M66401 50929
L66401 49748
L66682 49748
L66851 49804
L66963 49917
L67019 50029
L67076 50254
L67076 50423
L67019 50648
L66963 50760
L66851 50873
L66682 50929
L66401 50929
" />
<path d="M67582 50929
L67582 50142
" />
<path d="M67582 50367
L67638 50254
L67694 50198
L67807 50142
L67919 50142
" />
<path d="M68313 50929
L68313 50142
" />
<path d="M68313 49748
L68257 49804
L68313 49860
L68369 49804
L68313 49748
L68313 49860
" />
<path d="M69044 50929
L68932 50873
L68875 50760
L68875 49748
" />
<path d="M69663 50929
L69550 50873
L69494 50760
L69494 49748
" />
<path d="M71013 50929
L71013 49748
L71406 50592
L71800 49748
L71800 50929
" />
<path d="M72869 50929
L72869 50310
L72812 50198
L72700 50142
L72475 50142
L72363 50198
" />
<path d="M72869 50873
L72756 50929
L72475 50929
L72363 50873
L72306 50760
L72306 50648
L72363 50535
L72475 50479
L72756 50479
L72869 50423
" />
<path d="M73431 50142
L73431 51323
" />
<path d="M73431 50198
L73544 50142
L73769 50142
L73881 50198
L73937 50254
L73994 50367
L73994 50704
L73937 50817
L73881 50873
L73769 50929
L73544 50929
L73431 50873
" />
<path d="M74500 50817
L74556 50873
L74500 50929
L74444 50873
L74500 50817
L74500 50929
" />
<path d="M74500 50198
L74556 50254
L74500 50310
L74444 50254
L74500 50198
L74500 50310
" />
<path d="M65116 52796
L65273 52954
" />
<path d="M65273 52796
L65116 52954
" />
<text x="66061" y="53466.1"
textLength="26552.3" font-size="1574.8" lengthAdjust="spacingAndGlyphs"
text-anchor="start" opacity="0">0.40mm / 0.016" (93 holes)</text>
<path d="M66626 52228
L66738 52228
L66851 52285
L66907 52341
L66963 52453
L67019 52678
L67019 52959
L66963 53184
L66907 53297
L66851 53353
L66738 53409
L66626 53409
L66513 53353
L66457 53297
L66401 53184
L66345 52959
L66345 52678
L66401 52453
L66457 52341
L66513 52285
L66626 52228
" />
<path d="M67526 53297
L67582 53353
L67526 53409
L67469 53353
L67526 53297
L67526 53409
" />
<path d="M68594 52622
L68594 53409
" />
<path d="M68313 52172
L68032 53016
L68763 53016
" />
<path d="M69438 52228
L69550 52228
L69663 52285
L69719 52341
L69775 52453
L69832 52678
L69832 52959
L69775 53184
L69719 53297
L69663 53353
L69550 53409
L69438 53409
L69325 53353
L69269 53297
L69213 53184
L69157 52959
L69157 52678
L69213 52453
L69269 52341
L69325 52285
L69438 52228
" />
<path d="M70338 53409
L70338 52622
" />
<path d="M70338 52734
L70394 52678
L70507 52622
L70675 52622
L70788 52678
L70844 52791
L70844 53409
" />
<path d="M70844 52791
L70900 52678
L71013 52622
L71181 52622
L71294 52678
L71350 52791
L71350 53409
" />
<path d="M71913 53409
L71913 52622
" />
<path d="M71913 52734
L71969 52678
L72081 52622
L72250 52622
L72363 52678
L72419 52791
L72419 53409
" />
<path d="M72419 52791
L72475 52678
L72588 52622
L72756 52622
L72869 52678
L72925 52791
L72925 53409
" />
<path d="M75231 52172
L74219 53691
" />
<path d="M76749 52228
L76862 52228
L76974 52285
L77031 52341
L77087 52453
L77143 52678
L77143 52959
L77087 53184
L77031 53297
L76974 53353
L76862 53409
L76749 53409
L76637 53353
L76581 53297
L76525 53184
L76468 52959
L76468 52678
L76525 52453
L76581 52341
L76637 52285
L76749 52228
" />
<path d="M77649 53297
L77706 53353
L77649 53409
L77593 53353
L77649 53297
L77649 53409
" />
<path d="M78437 52228
L78549 52228
L78662 52285
L78718 52341
L78774 52453
L78830 52678
L78830 52959
L78774 53184
L78718 53297
L78662 53353
L78549 53409
L78437 53409
L78324 53353
L78268 53297
L78212 53184
L78156 52959
L78156 52678
L78212 52453
L78268 52341
L78324 52285
L78437 52228
" />
<path d="M79955 53409
L79280 53409
" />
<path d="M79618 53409
L79618 52228
L79505 52397
L79393 52509
L79280 52566
" />
<path d="M80968 52228
L80743 52228
L80630 52285
L80574 52341
L80462 52509
L80405 52734
L80405 53184
L80462 53297
L80518 53353
L80630 53409
L80855 53409
L80968 53353
L81024 53297
L81080 53184
L81080 52903
L81024 52791
L80968 52734
L80855 52678
L80630 52678
L80518 52734
L80462 52791
L80405 52903
" />
<path d="M81530 52228
L81530 52453
" />
<path d="M81980 52228
L81980 52453
" />
<path d="M83724 53859
L83667 53803
L83555 53634
L83499 53522
L83442 53353
L83386 53072
L83386 52847
L83442 52566
L83499 52397
L83555 52285
L83667 52116
L83724 52060
" />
<path d="M84230 53409
L84455 53409
L84567 53353
L84624 53297
L84736 53128
L84792 52903
L84792 52453
L84736 52341
L84680 52285
L84567 52228
L84342 52228
L84230 52285
L84174 52341
L84117 52453
L84117 52734
L84174 52847
L84230 52903
L84342 52959
L84567 52959
L84680 52903
L84736 52847
L84792 52734
" />
<path d="M85186 52228
L85917 52228
L85523 52678
L85692 52678
L85805 52734
L85861 52791
L85917 52903
L85917 53184
L85861 53297
L85805 53353
L85692 53409
L85355 53409
L85242 53353
L85186 53297
" />
<path d="M87323 53409
L87323 52228
" />
<path d="M87829 53409
L87829 52791
L87773 52678
L87661 52622
L87492 52622
L87379 52678
L87323 52734
" />
<path d="M88561 53409
L88448 53353
L88392 53297
L88336 53184
L88336 52847
L88392 52734
L88448 52678
L88561 52622
L88729 52622
L88842 52678
L88898 52734
L88954 52847
L88954 53184
L88898 53297
L88842 53353
L88729 53409
L88561 53409
" />
<path d="M89629 53409
L89517 53353
L89460 53241
L89460 52228
" />
<path d="M90529 53353
L90417 53409
L90192 53409
L90079 53353
L90023 53241
L90023 52791
L90079 52678
L90192 52622
L90417 52622
L90529 52678
L90585 52791
L90585 52903
L90023 53016
" />
<path d="M91035 53353
L91148 53409
L91373 53409
L91485 53353
L91541 53241
L91541 53184
L91485 53072
L91373 53016
L91204 53016
L91091 52959
L91035 52847
L91035 52791
L91091 52678
L91204 52622
L91373 52622
L91485 52678
" />
<path d="M91935 53859
L91991 53803
L92104 53634
L92160 53522
L92216 53353
L92273 53072
L92273 52847
L92216 52566
L92160 52397
L92104 52285
L91991 52116
L91935 52060
" />
<circle cx="65145.7" cy="54434.6" r="127.953" /> 
<text x="66061" y="55025.2"
textLength="34988.8" font-size="1574.8" lengthAdjust="spacingAndGlyphs"
text-anchor="start" opacity="0">0.65mm / 0.026" (0 holes + 4 slots)</text>
<path d="M66626 53787
L66738 53787
L66851 53844
L66907 53900
L66963 54012
L67019 54237
L67019 54518
L66963 54743
L66907 54856
L66851 54912
L66738 54968
L66626 54968
L66513 54912
L66457 54856
L66401 54743
L66345 54518
L66345 54237
L66401 54012
L66457 53900
L66513 53844
L66626 53787
" />
<path d="M67526 54856
L67582 54912
L67526 54968
L67469 54912
L67526 54856
L67526 54968
" />
<path d="M68594 53787
L68369 53787
L68257 53844
L68201 53900
L68088 54069
L68032 54294
L68032 54743
L68088 54856
L68144 54912
L68257 54968
L68482 54968
L68594 54912
L68651 54856
L68707 54743
L68707 54462
L68651 54350
L68594 54294
L68482 54237
L68257 54237
L68144 54294
L68088 54350
L68032 54462
" />
<path d="M69775 53787
L69213 53787
L69157 54350
L69213 54294
L69325 54237
L69607 54237
L69719 54294
L69775 54350
L69832 54462
L69832 54743
L69775 54856
L69719 54912
L69607 54968
L69325 54968
L69213 54912
L69157 54856
" />
<path d="M70338 54968
L70338 54181
" />
<path d="M70338 54294
L70394 54237
L70507 54181
L70675 54181
L70788 54237
L70844 54350
L70844 54968
" />
<path d="M70844 54350
L70900 54237
L71013 54181
L71181 54181
L71294 54237
L71350 54350
L71350 54968
" />
<path d="M71913 54968
L71913 54181
" />
<path d="M71913 54294
L71969 54237
L72081 54181
L72250 54181
L72363 54237
L72419 54350
L72419 54968
" />
<path d="M72419 54350
L72475 54237
L72588 54181
L72756 54181
L72869 54237
L72925 54350
L72925 54968
" />
<path d="M75231 53731
L74219 55250
" />
<path d="M76749 53787
L76862 53787
L76974 53844
L77031 53900
L77087 54012
L77143 54237
L77143 54518
L77087 54743
L77031 54856
L76974 54912
L76862 54968
L76749 54968
L76637 54912
L76581 54856
L76525 54743
L76468 54518
L76468 54237
L76525 54012
L76581 53900
L76637 53844
L76749 53787
" />
<path d="M77649 54856
L77706 54912
L77649 54968
L77593 54912
L77649 54856
L77649 54968
" />
<path d="M78437 53787
L78549 53787
L78662 53844
L78718 53900
L78774 54012
L78830 54237
L78830 54518
L78774 54743
L78718 54856
L78662 54912
L78549 54968
L78437 54968
L78324 54912
L78268 54856
L78212 54743
L78156 54518
L78156 54237
L78212 54012
L78268 53900
L78324 53844
L78437 53787
" />
<path d="M79280 53900
L79337 53844
L79449 53787
L79730 53787
L79843 53844
L79899 53900
L79955 54012
L79955 54125
L79899 54294
L79224 54968
L79955 54968
" />
<path d="M80968 53787
L80743 53787
L80630 53844
L80574 53900
L80462 54069
L80405 54294
L80405 54743
L80462 54856
L80518 54912
L80630 54968
L80855 54968
L80968 54912
L81024 54856
L81080 54743
L81080 54462
L81024 54350
L80968 54294
L80855 54237
L80630 54237
L80518 54294
L80462 54350
L80405 54462
" />
<path d="M81530 53787
L81530 54012
" />
<path d="M81980 53787
L81980 54012
" />
<path d="M83724 55418
L83667 55362
L83555 55193
L83499 55081
L83442 54912
L83386 54631
L83386 54406
L83442 54125
L83499 53956
L83555 53844
L83667 53675
L83724 53619
" />
<path d="M84399 53787
L84511 53787
L84624 53844
L84680 53900
L84736 54012
L84792 54237
L84792 54518
L84736 54743
L84680 54856
L84624 54912
L84511 54968
L84399 54968
L84286 54912
L84230 54856
L84174 54743
L84117 54518
L84117 54237
L84174 54012
L84230 53900
L84286 53844
L84399 53787
" />
<path d="M86198 54968
L86198 53787
" />
<path d="M86705 54968
L86705 54350
L86648 54237
L86536 54181
L86367 54181
L86255 54237
L86198 54294
" />
<path d="M87436 54968
L87323 54912
L87267 54856
L87211 54743
L87211 54406
L87267 54294
L87323 54237
L87436 54181
L87604 54181
L87717 54237
L87773 54294
L87829 54406
L87829 54743
L87773 54856
L87717 54912
L87604 54968
L87436 54968
" />
<path d="M88504 54968
L88392 54912
L88336 54800
L88336 53787
" />
<path d="M89404 54912
L89292 54968
L89067 54968
L88954 54912
L88898 54800
L88898 54350
L88954 54237
L89067 54181
L89292 54181
L89404 54237
L89460 54350
L89460 54462
L88898 54575
" />
<path d="M89910 54912
L90023 54968
L90248 54968
L90360 54912
L90417 54800
L90417 54743
L90360 54631
L90248 54575
L90079 54575
L89967 54518
L89910 54406
L89910 54350
L89967 54237
L90079 54181
L90248 54181
L90360 54237
" />
<path d="M91823 54518
L92723 54518
" />
<path d="M92273 54968
L92273 54069
" />
<path d="M94691 54181
L94691 54968
" />
<path d="M94410 53731
L94129 54575
L94860 54575
" />
<path d="M96153 54912
L96266 54968
L96491 54968
L96603 54912
L96660 54800
L96660 54743
L96603 54631
L96491 54575
L96322 54575
L96210 54518
L96153 54406
L96153 54350
L96210 54237
L96322 54181
L96491 54181
L96603 54237
" />
<path d="M97334 54968
L97222 54912
L97166 54800
L97166 53787
" />
<path d="M97953 54968
L97841 54912
L97784 54856
L97728 54743
L97728 54406
L97784 54294
L97841 54237
L97953 54181
L98122 54181
L98234 54237
L98291 54294
L98347 54406
L98347 54743
L98291 54856
L98234 54912
L98122 54968
L97953 54968
" />
<path d="M98684 54181
L99134 54181
" />
<path d="M98853 53787
L98853 54800
L98909 54912
L99022 54968
L99134 54968
" />
<path d="M99472 54912
L99584 54968
L99809 54968
L99922 54912
L99978 54800
L99978 54743
L99922 54631
L99809 54575
L99640 54575
L99528 54518
L99472 54406
L99472 54350
L99528 54237
L99640 54181
L99809 54181
L99922 54237
" />
<path d="M100372 55418
L100428 55362
L100540 55193
L100597 55081
L100653 54912
L100709 54631
L100709 54406
L100653 54125
L100597 53956
L100540 53844
L100428 53675
L100372 53619
" />
<path d="M65092 55812
L65092 56174
" />
<path d="M64911 55993
L65273 55993
" />
<text x="66061" y="56584.2"
textLength="25427.4" font-size="1574.8" lengthAdjust="spacingAndGlyphs"
text-anchor="start" opacity="0">0.92mm / 0.036" (4 holes)</text>
<path d="M66626 55346
L66738 55346
L66851 55403
L66907 55459
L66963 55571
L67019 55796
L67019 56078
L66963 56303
L66907 56415
L66851 56471
L66738 56527
L66626 56527
L66513 56471
L66457 56415
L66401 56303
L66345 56078
L66345 55796
L66401 55571
L66457 55459
L66513 55403
L66626 55346
" />
<path d="M67526 56415
L67582 56471
L67526 56527
L67469 56471
L67526 56415
L67526 56527
" />
<path d="M68144 56527
L68369 56527
L68482 56471
L68538 56415
L68651 56246
L68707 56021
L68707 55571
L68651 55459
L68594 55403
L68482 55346
L68257 55346
L68144 55403
L68088 55459
L68032 55571
L68032 55853
L68088 55965
L68144 56021
L68257 56078
L68482 56078
L68594 56021
L68651 55965
L68707 55853
" />
<path d="M69157 55459
L69213 55403
L69325 55346
L69607 55346
L69719 55403
L69775 55459
L69832 55571
L69832 55684
L69775 55853
L69100 56527
L69832 56527
" />
<path d="M70338 56527
L70338 55740
" />
<path d="M70338 55853
L70394 55796
L70507 55740
L70675 55740
L70788 55796
L70844 55909
L70844 56527
" />
<path d="M70844 55909
L70900 55796
L71013 55740
L71181 55740
L71294 55796
L71350 55909
L71350 56527
" />
<path d="M71913 56527
L71913 55740
" />
<path d="M71913 55853
L71969 55796
L72081 55740
L72250 55740
L72363 55796
L72419 55909
L72419 56527
" />
<path d="M72419 55909
L72475 55796
L72588 55740
L72756 55740
L72869 55796
L72925 55909
L72925 56527
" />
<path d="M75231 55290
L74219 56809
" />
<path d="M76749 55346
L76862 55346
L76974 55403
L77031 55459
L77087 55571
L77143 55796
L77143 56078
L77087 56303
L77031 56415
L76974 56471
L76862 56527
L76749 56527
L76637 56471
L76581 56415
L76525 56303
L76468 56078
L76468 55796
L76525 55571
L76581 55459
L76637 55403
L76749 55346
" />
<path d="M77649 56415
L77706 56471
L77649 56527
L77593 56471
L77649 56415
L77649 56527
" />
<path d="M78437 55346
L78549 55346
L78662 55403
L78718 55459
L78774 55571
L78830 55796
L78830 56078
L78774 56303
L78718 56415
L78662 56471
L78549 56527
L78437 56527
L78324 56471
L78268 56415
L78212 56303
L78156 56078
L78156 55796
L78212 55571
L78268 55459
L78324 55403
L78437 55346
" />
<path d="M79224 55346
L79955 55346
L79562 55796
L79730 55796
L79843 55853
L79899 55909
L79955 56021
L79955 56303
L79899 56415
L79843 56471
L79730 56527
L79393 56527
L79280 56471
L79224 56415
" />
<path d="M80968 55346
L80743 55346
L80630 55403
L80574 55459
L80462 55628
L80405 55853
L80405 56303
L80462 56415
L80518 56471
L80630 56527
L80855 56527
L80968 56471
L81024 56415
L81080 56303
L81080 56021
L81024 55909
L80968 55853
L80855 55796
L80630 55796
L80518 55853
L80462 55909
L80405 56021
" />
<path d="M81530 55346
L81530 55571
" />
<path d="M81980 55346
L81980 55571
" />
<path d="M83724 56977
L83667 56921
L83555 56752
L83499 56640
L83442 56471
L83386 56190
L83386 55965
L83442 55684
L83499 55515
L83555 55403
L83667 55234
L83724 55178
" />
<path d="M84680 55740
L84680 56527
" />
<path d="M84399 55290
L84117 56134
L84848 56134
" />
<path d="M86198 56527
L86198 55346
" />
<path d="M86705 56527
L86705 55909
L86648 55796
L86536 55740
L86367 55740
L86255 55796
L86198 55853
" />
<path d="M87436 56527
L87323 56471
L87267 56415
L87211 56303
L87211 55965
L87267 55853
L87323 55796
L87436 55740
L87604 55740
L87717 55796
L87773 55853
L87829 55965
L87829 56303
L87773 56415
L87717 56471
L87604 56527
L87436 56527
" />
<path d="M88504 56527
L88392 56471
L88336 56359
L88336 55346
" />
<path d="M89404 56471
L89292 56527
L89067 56527
L88954 56471
L88898 56359
L88898 55909
L88954 55796
L89067 55740
L89292 55740
L89404 55796
L89460 55909
L89460 56021
L88898 56134
" />
<path d="M89910 56471
L90023 56527
L90248 56527
L90360 56471
L90417 56359
L90417 56303
L90360 56190
L90248 56134
L90079 56134
L89967 56078
L89910 55965
L89910 55909
L89967 55796
L90079 55740
L90248 55740
L90360 55796
" />
<path d="M90810 56977
L90866 56921
L90979 56752
L91035 56640
L91091 56471
L91148 56190
L91148 55965
L91091 55684
L91035 55515
L90979 55403
L90866 55234
L90810 55178
" />
<path style="fill:#000000; fill-opacity:0.0; 
stroke:#000000; stroke-width:118.11; stroke-opacity:1; 
stroke-linecap:round; stroke-linejoin:round;fill:none"
d="M 65216,57691.9
65216,57413.5
64937.6,57413.5
64937.6,57691.9
Z" /> 
<text x="66061" y="58143.3"
textLength="26552.3" font-size="1574.8" lengthAdjust="spacingAndGlyphs"
text-anchor="start" opacity="0">1.00mm / 0.039" (40 holes)</text>
<path d="M67019 58087
L66345 58087
" />
<path d="M66682 58087
L66682 56905
L66570 57074
L66457 57187
L66345 57243
" />
<path d="M67526 57974
L67582 58030
L67526 58087
L67469 58030
L67526 57974
L67526 58087
" />
<path d="M68313 56905
L68426 56905
L68538 56962
L68594 57018
L68651 57130
L68707 57355
L68707 57637
L68651 57862
L68594 57974
L68538 58030
L68426 58087
L68313 58087
L68201 58030
L68144 57974
L68088 57862
L68032 57637
L68032 57355
L68088 57130
L68144 57018
L68201 56962
L68313 56905
" />
<path d="M69438 56905
L69550 56905
L69663 56962
L69719 57018
L69775 57130
L69832 57355
L69832 57637
L69775 57862
L69719 57974
L69663 58030
L69550 58087
L69438 58087
L69325 58030
L69269 57974
L69213 57862
L69157 57637
L69157 57355
L69213 57130
L69269 57018
L69325 56962
L69438 56905
" />
<path d="M70338 58087
L70338 57299
" />
<path d="M70338 57412
L70394 57355
L70507 57299
L70675 57299
L70788 57355
L70844 57468
L70844 58087
" />
<path d="M70844 57468
L70900 57355
L71013 57299
L71181 57299
L71294 57355
L71350 57468
L71350 58087
" />
<path d="M71913 58087
L71913 57299
" />
<path d="M71913 57412
L71969 57355
L72081 57299
L72250 57299
L72363 57355
L72419 57468
L72419 58087
" />
<path d="M72419 57468
L72475 57355
L72588 57299
L72756 57299
L72869 57355
L72925 57468
L72925 58087
" />
<path d="M75231 56849
L74219 58368
" />
<path d="M76749 56905
L76862 56905
L76974 56962
L77031 57018
L77087 57130
L77143 57355
L77143 57637
L77087 57862
L77031 57974
L76974 58030
L76862 58087
L76749 58087
L76637 58030
L76581 57974
L76525 57862
L76468 57637
L76468 57355
L76525 57130
L76581 57018
L76637 56962
L76749 56905
" />
<path d="M77649 57974
L77706 58030
L77649 58087
L77593 58030
L77649 57974
L77649 58087
" />
<path d="M78437 56905
L78549 56905
L78662 56962
L78718 57018
L78774 57130
L78830 57355
L78830 57637
L78774 57862
L78718 57974
L78662 58030
L78549 58087
L78437 58087
L78324 58030
L78268 57974
L78212 57862
L78156 57637
L78156 57355
L78212 57130
L78268 57018
L78324 56962
L78437 56905
" />
<path d="M79224 56905
L79955 56905
L79562 57355
L79730 57355
L79843 57412
L79899 57468
L79955 57580
L79955 57862
L79899 57974
L79843 58030
L79730 58087
L79393 58087
L79280 58030
L79224 57974
" />
<path d="M80518 58087
L80743 58087
L80855 58030
L80911 57974
L81024 57805
L81080 57580
L81080 57130
L81024 57018
L80968 56962
L80855 56905
L80630 56905
L80518 56962
L80462 57018
L80405 57130
L80405 57412
L80462 57524
L80518 57580
L80630 57637
L80855 57637
L80968 57580
L81024 57524
L81080 57412
" />
<path d="M81530 56905
L81530 57130
" />
<path d="M81980 56905
L81980 57130
" />
<path d="M83724 58536
L83667 58480
L83555 58312
L83499 58199
L83442 58030
L83386 57749
L83386 57524
L83442 57243
L83499 57074
L83555 56962
L83667 56793
L83724 56737
" />
<path d="M84680 57299
L84680 58087
" />
<path d="M84399 56849
L84117 57693
L84848 57693
" />
<path d="M85523 56905
L85636 56905
L85748 56962
L85805 57018
L85861 57130
L85917 57355
L85917 57637
L85861 57862
L85805 57974
L85748 58030
L85636 58087
L85523 58087
L85411 58030
L85355 57974
L85298 57862
L85242 57637
L85242 57355
L85298 57130
L85355 57018
L85411 56962
L85523 56905
" />
<path d="M87323 58087
L87323 56905
" />
<path d="M87829 58087
L87829 57468
L87773 57355
L87661 57299
L87492 57299
L87379 57355
L87323 57412
" />
<path d="M88561 58087
L88448 58030
L88392 57974
L88336 57862
L88336 57524
L88392 57412
L88448 57355
L88561 57299
L88729 57299
L88842 57355
L88898 57412
L88954 57524
L88954 57862
L88898 57974
L88842 58030
L88729 58087
L88561 58087
" />
<path d="M89629 58087
L89517 58030
L89460 57918
L89460 56905
" />
<path d="M90529 58030
L90417 58087
L90192 58087
L90079 58030
L90023 57918
L90023 57468
L90079 57355
L90192 57299
L90417 57299
L90529 57355
L90585 57468
L90585 57580
L90023 57693
" />
<path d="M91035 58030
L91148 58087
L91373 58087
L91485 58030
L91541 57918
L91541 57862
L91485 57749
L91373 57693
L91204 57693
L91091 57637
L91035 57524
L91035 57468
L91091 57355
L91204 57299
L91373 57299
L91485 57355
" />
<path d="M91935 58536
L91991 58480
L92104 58312
L92160 58199
L92216 58030
L92273 57749
L92273 57524
L92216 57243
L92160 57074
L92104 56962
L91991 56793
L91935 56737
" />
<path style="fill:#000000; fill-opacity:0.0; 
stroke:#000000; stroke-width:118.11; stroke-opacity:1; 
stroke-linecap:round; stroke-linejoin:round;fill:none"
d="M 64978.3,59407.1
65273.6,59111.8
64978.3,58816.5
64683.1,59111.8
Z" /> 
<text x="66061" y="59702.3"
textLength="25427.4" font-size="1574.8" lengthAdjust="spacingAndGlyphs"
text-anchor="start" opacity="0">1.50mm / 0.059" (4 holes)</text>
<path d="M67019 59646
L66345 59646
" />
<path d="M66682 59646
L66682 58465
L66570 58633
L66457 58746
L66345 58802
" />
<path d="M67526 59533
L67582 59589
L67526 59646
L67469 59589
L67526 59533
L67526 59646
" />
<path d="M68651 58465
L68088 58465
L68032 59027
L68088 58971
L68201 58914
L68482 58914
L68594 58971
L68651 59027
L68707 59139
L68707 59421
L68651 59533
L68594 59589
L68482 59646
L68201 59646
L68088 59589
L68032 59533
" />
<path d="M69438 58465
L69550 58465
L69663 58521
L69719 58577
L69775 58689
L69832 58914
L69832 59196
L69775 59421
L69719 59533
L69663 59589
L69550 59646
L69438 59646
L69325 59589
L69269 59533
L69213 59421
L69157 59196
L69157 58914
L69213 58689
L69269 58577
L69325 58521
L69438 58465
" />
<path d="M70338 59646
L70338 58858
" />
<path d="M70338 58971
L70394 58914
L70507 58858
L70675 58858
L70788 58914
L70844 59027
L70844 59646
" />
<path d="M70844 59027
L70900 58914
L71013 58858
L71181 58858
L71294 58914
L71350 59027
L71350 59646
" />
<path d="M71913 59646
L71913 58858
" />
<path d="M71913 58971
L71969 58914
L72081 58858
L72250 58858
L72363 58914
L72419 59027
L72419 59646
" />
<path d="M72419 59027
L72475 58914
L72588 58858
L72756 58858
L72869 58914
L72925 59027
L72925 59646
" />
<path d="M75231 58408
L74219 59927
" />
<path d="M76749 58465
L76862 58465
L76974 58521
L77031 58577
L77087 58689
L77143 58914
L77143 59196
L77087 59421
L77031 59533
L76974 59589
L76862 59646
L76749 59646
L76637 59589
L76581 59533
L76525 59421
L76468 59196
L76468 58914
L76525 58689
L76581 58577
L76637 58521
L76749 58465
" />
<path d="M77649 59533
L77706 59589
L77649 59646
L77593 59589
L77649 59533
L77649 59646
" />
<path d="M78437 58465
L78549 58465
L78662 58521
L78718 58577
L78774 58689
L78830 58914
L78830 59196
L78774 59421
L78718 59533
L78662 59589
L78549 59646
L78437 59646
L78324 59589
L78268 59533
L78212 59421
L78156 59196
L78156 58914
L78212 58689
L78268 58577
L78324 58521
L78437 58465
" />
<path d="M79899 58465
L79337 58465
L79280 59027
L79337 58971
L79449 58914
L79730 58914
L79843 58971
L79899 59027
L79955 59139
L79955 59421
L79899 59533
L79843 59589
L79730 59646
L79449 59646
L79337 59589
L79280 59533
" />
<path d="M80518 59646
L80743 59646
L80855 59589
L80911 59533
L81024 59364
L81080 59139
L81080 58689
L81024 58577
L80968 58521
L80855 58465
L80630 58465
L80518 58521
L80462 58577
L80405 58689
L80405 58971
L80462 59083
L80518 59139
L80630 59196
L80855 59196
L80968 59139
L81024 59083
L81080 58971
" />
<path d="M81530 58465
L81530 58689
" />
<path d="M81980 58465
L81980 58689
" />
<path d="M83724 60096
L83667 60039
L83555 59871
L83499 59758
L83442 59589
L83386 59308
L83386 59083
L83442 58802
L83499 58633
L83555 58521
L83667 58352
L83724 58296
" />
<path d="M84680 58858
L84680 59646
" />
<path d="M84399 58408
L84117 59252
L84848 59252
" />
<path d="M86198 59646
L86198 58465
" />
<path d="M86705 59646
L86705 59027
L86648 58914
L86536 58858
L86367 58858
L86255 58914
L86198 58971
" />
<path d="M87436 59646
L87323 59589
L87267 59533
L87211 59421
L87211 59083
L87267 58971
L87323 58914
L87436 58858
L87604 58858
L87717 58914
L87773 58971
L87829 59083
L87829 59421
L87773 59533
L87717 59589
L87604 59646
L87436 59646
" />
<path d="M88504 59646
L88392 59589
L88336 59477
L88336 58465
" />
<path d="M89404 59589
L89292 59646
L89067 59646
L88954 59589
L88898 59477
L88898 59027
L88954 58914
L89067 58858
L89292 58858
L89404 58914
L89460 59027
L89460 59139
L88898 59252
" />
<path d="M89910 59589
L90023 59646
L90248 59646
L90360 59589
L90417 59477
L90417 59421
L90360 59308
L90248 59252
L90079 59252
L89967 59196
L89910 59083
L89910 59027
L89967 58914
L90079 58858
L90248 58858
L90360 58914
" />
<path d="M90810 60096
L90866 60039
L90979 59871
L91035 59758
L91091 59589
L91148 59308
L91148 59083
L91091 58802
L91035 58633
L90979 58521
L90866 58352
L90810 58296
" />
<path d="M64998 60533
L65273 60808
" />
<path d="M65273 60533
L64998 60808
" />
<circle cx="65135.8" cy="60670.8" r="137.795" /> 
<text x="66061" y="61261.4"
textLength="37126" font-size="1574.8" lengthAdjust="spacingAndGlyphs"
text-anchor="start" opacity="0">0.70mm / 0.028" (2 holes) (not plated)</text>
<path d="M66626 60024
L66738 60024
L66851 60080
L66907 60136
L66963 60249
L67019 60473
L67019 60755
L66963 60980
L66907 61092
L66851 61148
L66738 61205
L66626 61205
L66513 61148
L66457 61092
L66401 60980
L66345 60755
L66345 60473
L66401 60249
L66457 60136
L66513 60080
L66626 60024
" />
<path d="M67526 61092
L67582 61148
L67526 61205
L67469 61148
L67526 61092
L67526 61205
" />
<path d="M67976 60024
L68763 60024
L68257 61205
" />
<path d="M69438 60024
L69550 60024
L69663 60080
L69719 60136
L69775 60249
L69832 60473
L69832 60755
L69775 60980
L69719 61092
L69663 61148
L69550 61205
L69438 61205
L69325 61148
L69269 61092
L69213 60980
L69157 60755
L69157 60473
L69213 60249
L69269 60136
L69325 60080
L69438 60024
" />
<path d="M70338 61205
L70338 60417
" />
<path d="M70338 60530
L70394 60473
L70507 60417
L70675 60417
L70788 60473
L70844 60586
L70844 61205
" />
<path d="M70844 60586
L70900 60473
L71013 60417
L71181 60417
L71294 60473
L71350 60586
L71350 61205
" />
<path d="M71913 61205
L71913 60417
" />
<path d="M71913 60530
L71969 60473
L72081 60417
L72250 60417
L72363 60473
L72419 60586
L72419 61205
" />
<path d="M72419 60586
L72475 60473
L72588 60417
L72756 60417
L72869 60473
L72925 60586
L72925 61205
" />
<path d="M75231 59967
L74219 61486
" />
<path d="M76749 60024
L76862 60024
L76974 60080
L77031 60136
L77087 60249
L77143 60473
L77143 60755
L77087 60980
L77031 61092
L76974 61148
L76862 61205
L76749 61205
L76637 61148
L76581 61092
L76525 60980
L76468 60755
L76468 60473
L76525 60249
L76581 60136
L76637 60080
L76749 60024
" />
<path d="M77649 61092
L77706 61148
L77649 61205
L77593 61148
L77649 61092
L77649 61205
" />
<path d="M78437 60024
L78549 60024
L78662 60080
L78718 60136
L78774 60249
L78830 60473
L78830 60755
L78774 60980
L78718 61092
L78662 61148
L78549 61205
L78437 61205
L78324 61148
L78268 61092
L78212 60980
L78156 60755
L78156 60473
L78212 60249
L78268 60136
L78324 60080
L78437 60024
" />
<path d="M79280 60136
L79337 60080
L79449 60024
L79730 60024
L79843 60080
L79899 60136
L79955 60249
L79955 60361
L79899 60530
L79224 61205
L79955 61205
" />
<path d="M80630 60530
L80518 60473
L80462 60417
L80405 60305
L80405 60249
L80462 60136
L80518 60080
L80630 60024
L80855 60024
L80968 60080
L81024 60136
L81080 60249
L81080 60305
L81024 60417
L80968 60473
L80855 60530
L80630 60530
L80518 60586
L80462 60642
L80405 60755
L80405 60980
L80462 61092
L80518 61148
L80630 61205
L80855 61205
L80968 61148
L81024 61092
L81080 60980
L81080 60755
L81024 60642
L80968 60586
L80855 60530
" />
<path d="M81530 60024
L81530 60249
" />
<path d="M81980 60024
L81980 60249
" />
<path d="M83724 61655
L83667 61598
L83555 61430
L83499 61317
L83442 61148
L83386 60867
L83386 60642
L83442 60361
L83499 60192
L83555 60080
L83667 59911
L83724 59855
" />
<path d="M84117 60136
L84174 60080
L84286 60024
L84567 60024
L84680 60080
L84736 60136
L84792 60249
L84792 60361
L84736 60530
L84061 61205
L84792 61205
" />
<path d="M86198 61205
L86198 60024
" />
<path d="M86705 61205
L86705 60586
L86648 60473
L86536 60417
L86367 60417
L86255 60473
L86198 60530
" />
<path d="M87436 61205
L87323 61148
L87267 61092
L87211 60980
L87211 60642
L87267 60530
L87323 60473
L87436 60417
L87604 60417
L87717 60473
L87773 60530
L87829 60642
L87829 60980
L87773 61092
L87717 61148
L87604 61205
L87436 61205
" />
<path d="M88504 61205
L88392 61148
L88336 61036
L88336 60024
" />
<path d="M89404 61148
L89292 61205
L89067 61205
L88954 61148
L88898 61036
L88898 60586
L88954 60473
L89067 60417
L89292 60417
L89404 60473
L89460 60586
L89460 60698
L88898 60811
" />
<path d="M89910 61148
L90023 61205
L90248 61205
L90360 61148
L90417 61036
L90417 60980
L90360 60867
L90248 60811
L90079 60811
L89967 60755
L89910 60642
L89910 60586
L89967 60473
L90079 60417
L90248 60417
L90360 60473
" />
<path d="M90810 61655
L90866 61598
L90979 61430
L91035 61317
L91091 61148
L91148 60867
L91148 60642
L91091 60361
L91035 60192
L90979 60080
L90866 59911
L90810 59855
" />
<path d="M92947 61655
L92891 61598
L92779 61430
L92723 61317
L92666 61148
L92610 60867
L92610 60642
L92666 60361
L92723 60192
L92779 60080
L92891 59911
L92947 59855
" />
<path d="M93397 60417
L93397 61205
" />
<path d="M93397 60530
L93454 60473
L93566 60417
L93735 60417
L93847 60473
L93904 60586
L93904 61205
" />
<path d="M94635 61205
L94522 61148
L94466 61092
L94410 60980
L94410 60642
L94466 60530
L94522 60473
L94635 60417
L94803 60417
L94916 60473
L94972 60530
L95028 60642
L95028 60980
L94972 61092
L94916 61148
L94803 61205
L94635 61205
" />
<path d="M95366 60417
L95816 60417
" />
<path d="M95535 60024
L95535 61036
L95591 61148
L95703 61205
L95816 61205
" />
<path d="M97109 60417
L97109 61598
" />
<path d="M97109 60473
L97222 60417
L97447 60417
L97559 60473
L97616 60530
L97672 60642
L97672 60980
L97616 61092
L97559 61148
L97447 61205
L97222 61205
L97109 61148
" />
<path d="M98347 61205
L98234 61148
L98178 61036
L98178 60024
" />
<path d="M99303 61205
L99303 60586
L99247 60473
L99134 60417
L98909 60417
L98797 60473
" />
<path d="M99303 61148
L99190 61205
L98909 61205
L98797 61148
L98741 61036
L98741 60923
L98797 60811
L98909 60755
L99190 60755
L99303 60698
" />
<path d="M99697 60417
L100147 60417
" />
<path d="M99865 60024
L99865 61036
L99922 61148
L100034 61205
L100147 61205
" />
<path d="M100990 61148
L100878 61205
L100653 61205
L100540 61148
L100484 61036
L100484 60586
L100540 60473
L100653 60417
L100878 60417
L100990 60473
L101046 60586
L101046 60698
L100484 60811
" />
<path d="M102059 61205
L102059 60024
" />
<path d="M102059 61148
L101946 61205
L101721 61205
L101609 61148
L101553 61092
L101496 60980
L101496 60642
L101553 60530
L101609 60473
L101721 60417
L101946 60417
L102059 60473
" />
<path d="M102509 61655
L102565 61598
L102678 61430
L102734 61317
L102790 61148
L102846 60867
L102846 60642
L102790 60361
L102734 60192
L102678 60080
L102565 59911
L102509 59855
" />
</g> 
</svg>
