M48
; DRILL file {KiCad 5.1.5+dfsg1-2build2} date Sun Oct 10 13:02:10 2021
; FORMAT={-:-/ absolute / metric / decimal}
; #@! TF.CreationDate,2021-10-10T13:02:10+05:30
; #@! TF.GenerationSoftware,Kicad,Pcbnew,5.1.5+dfsg1-2build2
FMAT,2
METRIC
T1C0.400
T2C0.650
T3C0.920
T4C1.000
T5C1.500
T6C0.700
%
G90
G05
T1
X166.9Y-113.6
X166.9Y-115.4
X168.35Y-121.99
X168.55Y-118.09
X169.968Y-107.151
X170.3Y-97.1
X170.8Y-114.6
X171.2Y-98.2
X171.8Y-114.4
X172.281Y-83.854
X172.357Y-93.379
X172.578Y-77.039
X172.588Y-75.528
X172.593Y-74.062
X172.649Y-57.552
X173.05Y-61.2
X173.168Y-107.251
X173.275Y-114.225
X173.6Y-105.1
X173.629Y-115.794
X173.9Y-100.2
X173.963Y-94.434
X174.2Y-112.2
X174.7Y-75.526
X175.7Y-92.7
X176.093Y-88.701
X176.142Y-83.854
X176.235Y-63.246
X176.235Y-64.746
X176.235Y-66.246
X176.235Y-67.746
X176.5Y-109.7
X176.649Y-107.561
X177.4Y-92.7
X177.5Y-104.2
X177.735Y-63.246
X177.735Y-64.746
X177.735Y-66.246
X177.735Y-67.746
X177.764Y-99.819
X177.818Y-88.744
X177.869Y-113.926
X178.507Y-99.077
X178.919Y-113.926
X179.1Y-92.7
X179.235Y-63.246
X179.235Y-64.746
X179.235Y-66.246
X179.235Y-67.746
X179.83Y-82.351
X180.192Y-86.393
X180.192Y-88.693
X180.243Y-99.952
X180.655Y-97.3
X180.735Y-63.246
X180.735Y-64.746
X180.735Y-66.246
X180.735Y-67.746
X180.9Y-92.7
X181.3Y-111.2
X181.925Y-97.3
X182.443Y-116.06
X182.5Y-114.2
X182.7Y-111.1
X183.159Y-108.001
X183.2Y-99.0
X183.675Y-112.41
X184.44Y-101.31
X184.9Y-110.9
X184.988Y-103.835
X185.296Y-115.252
X185.598Y-96.266
X185.635Y-99.9
X185.725Y-101.3
X186.103Y-75.487
X186.103Y-78.525
X186.106Y-77.029
X186.121Y-59.021
X186.134Y-74.037
X186.154Y-65.02
X186.164Y-63.511
X186.505Y-87.7
X186.505Y-89.64
X186.639Y-106.528
X187.756Y-84.986
X187.953Y-81.426
X188.036Y-105.258
X188.039Y-107.518
X188.499Y-84.244
X188.57Y-94.132
X188.646Y-95.301
X189.385Y-108.813
X190.127Y-109.556
T3
X189.5Y-116.7
X189.5Y-118.7
X189.5Y-120.7
X189.5Y-122.7
T4
X167.43Y-58.015
X167.43Y-60.555
X167.43Y-63.095
X167.43Y-65.635
X167.43Y-68.175
X167.43Y-70.715
X167.43Y-73.255
X167.43Y-75.795
X167.43Y-78.335
X167.43Y-80.875
X167.43Y-83.415
X167.43Y-85.955
X167.43Y-88.495
X167.43Y-91.035
X167.43Y-93.575
X167.43Y-96.115
X167.43Y-98.655
X167.43Y-101.195
X192.22Y-58.015
X192.22Y-60.555
X192.22Y-63.095
X192.22Y-65.635
X192.22Y-68.175
X192.22Y-70.715
X192.22Y-73.255
X192.22Y-75.795
X192.22Y-78.335
X192.22Y-80.875
X192.22Y-83.415
X192.22Y-85.955
X192.22Y-88.495
X192.22Y-91.035
X192.22Y-93.575
X192.22Y-96.115
X192.22Y-98.655
X192.22Y-101.195
X192.22Y-103.735
X192.22Y-106.275
X192.22Y-108.815
X192.22Y-111.355
T5
X186.78Y-116.43
X186.78Y-123.43
X192.22Y-116.43
X192.22Y-123.43
T6
X175.004Y-118.659
X180.784Y-118.659
T2
G00X173.574Y-117.579
M15
G01X173.574Y-118.679
M16
G05
G00X173.574Y-122.009
M15
G01X173.574Y-122.609
M16
G05
G00X182.214Y-117.579
M15
G01X182.214Y-118.679
M16
G05
G00X182.214Y-122.009
M15
G01X182.214Y-122.609
M16
G05
T0
M30
