%TF.GenerationSoftware,KiCad,Pcbnew,5.1.5+dfsg1-2build2*%
%TF.CreationDate,2021-10-10T13:01:52+05:30*%
%TF.ProjectId,USBee32-S2,55534265-6533-4322-9d53-322e6b696361,rev?*%
%TF.SameCoordinates,Original*%
%TF.FileFunction,Soldermask,Bot*%
%TF.FilePolarity,Negative*%
%FSLAX46Y46*%
G04 Gerber Fmt 4.6, Leading zero omitted, Abs format (unit mm)*
G04 Created by KiCad (PCBNEW 5.1.5+dfsg1-2build2) date 2021-10-10 13:01:52*
%MOMM*%
%LPD*%
G04 APERTURE LIST*
%ADD10C,2.150000*%
%ADD11R,1.600000X1.600000*%
%ADD12C,1.600000*%
%ADD13O,1.700000X1.700000*%
%ADD14R,1.700000X1.700000*%
%ADD15C,0.700000*%
%ADD16O,1.050000X2.100000*%
G04 APERTURE END LIST*
D10*
X186780000Y-123430000D03*
X186780000Y-116430000D03*
X192220000Y-116430000D03*
X192220000Y-123430000D03*
D11*
X189500000Y-122700000D03*
D12*
X189500000Y-120700000D03*
X189500000Y-118700000D03*
X189500000Y-116700000D03*
D13*
X192220000Y-111355000D03*
X192220000Y-108815000D03*
X192220000Y-106275000D03*
X192220000Y-103735000D03*
X192220000Y-101195000D03*
X192220000Y-98655000D03*
X192220000Y-96115000D03*
X192220000Y-93575000D03*
X192220000Y-91035000D03*
X192220000Y-88495000D03*
X192220000Y-85955000D03*
X192220000Y-83415000D03*
X192220000Y-80875000D03*
X192220000Y-78335000D03*
X192220000Y-75795000D03*
X192220000Y-73255000D03*
X192220000Y-70715000D03*
X192220000Y-68175000D03*
X192220000Y-65635000D03*
X192220000Y-63095000D03*
X192220000Y-60555000D03*
D14*
X192220000Y-58015000D03*
D15*
X180783980Y-118658620D03*
X175003980Y-118658620D03*
D16*
X182213980Y-122308620D03*
X173573980Y-122308620D03*
X182213980Y-118128620D03*
X173573980Y-118128620D03*
D13*
X167430000Y-101195000D03*
X167430000Y-98655000D03*
X167430000Y-96115000D03*
X167430000Y-93575000D03*
X167430000Y-91035000D03*
X167430000Y-88495000D03*
X167430000Y-85955000D03*
X167430000Y-83415000D03*
X167430000Y-80875000D03*
X167430000Y-78335000D03*
X167430000Y-75795000D03*
X167430000Y-73255000D03*
X167430000Y-70715000D03*
X167430000Y-68175000D03*
X167430000Y-65635000D03*
X167430000Y-63095000D03*
X167430000Y-60555000D03*
D14*
X167430000Y-58015000D03*
M02*
