%TF.GenerationSoftware,KiCad,Pcbnew,5.1.5+dfsg1-2build2*%
%TF.CreationDate,2021-06-12T01:28:48+05:30*%
%TF.ProjectId,USBee32-S2,55534265-6533-4322-9d53-322e6b696361,rev?*%
%TF.SameCoordinates,Original*%
%TF.FileFunction,Paste,Top*%
%TF.FilePolarity,Positive*%
%FSLAX46Y46*%
G04 Gerber Fmt 4.6, Leading zero omitted, Abs format (unit mm)*
G04 Created by KiCad (PCBNEW 5.1.5+dfsg1-2build2) date 2021-06-12 01:28:48*
%MOMM*%
%LPD*%
G04 APERTURE LIST*
%ADD10R,1.100000X1.100000*%
%ADD11R,1.500000X0.900000*%
%ADD12R,0.900000X1.500000*%
%ADD13R,6.000000X6.000000*%
%ADD14R,1.060000X0.650000*%
%ADD15R,1.450000X0.600000*%
%ADD16R,1.450000X0.300000*%
%ADD17C,0.100000*%
%ADD18R,1.050000X0.600000*%
%ADD19R,1.500000X3.400000*%
%ADD20R,1.000000X3.500000*%
%ADD21R,0.700000X0.700000*%
%ADD22R,0.600000X1.125000*%
%ADD23R,1.000000X2.000000*%
%ADD24R,2.000000X1.500000*%
%ADD25R,2.000000X3.800000*%
G04 APERTURE END LIST*
D10*
X148010000Y-74750000D03*
X149510000Y-74750000D03*
X151010000Y-74750000D03*
X151010000Y-76250000D03*
X151010000Y-77750000D03*
X149510000Y-77750000D03*
X148010000Y-77750000D03*
X148010000Y-76250000D03*
X149510000Y-76250000D03*
D11*
X159450000Y-68200000D03*
X159450000Y-69700000D03*
X159450000Y-71200000D03*
X159450000Y-72700000D03*
X159450000Y-74200000D03*
X159450000Y-75700000D03*
X159450000Y-77200000D03*
X159450000Y-78700000D03*
X159450000Y-80200000D03*
X159450000Y-81700000D03*
X159450000Y-83200000D03*
X159450000Y-84700000D03*
X159450000Y-86200000D03*
X159450000Y-87700000D03*
X159450000Y-89200000D03*
X159450000Y-90700000D03*
D12*
X157450000Y-91450000D03*
X155950000Y-91450000D03*
X154450000Y-91450000D03*
X152950000Y-91450000D03*
X151450000Y-91450000D03*
X149950000Y-91450000D03*
X148450000Y-91450000D03*
X146950000Y-91450000D03*
X145450000Y-91450000D03*
X143950000Y-91450000D03*
D11*
X141950000Y-90700000D03*
X141950000Y-89200000D03*
X141950000Y-87700000D03*
X141950000Y-86200000D03*
X141950000Y-84700000D03*
X141950000Y-83200000D03*
X141950000Y-81700000D03*
X141950000Y-80200000D03*
X141950000Y-78700000D03*
X141950000Y-77200000D03*
X141950000Y-75700000D03*
X141950000Y-74200000D03*
X141950000Y-72700000D03*
X141950000Y-71200000D03*
X141950000Y-69700000D03*
X141950000Y-68200000D03*
D13*
X149498400Y-76226200D03*
D14*
X154967200Y-121110500D03*
X154967200Y-123010500D03*
X152767200Y-123010500D03*
X152767200Y-122060500D03*
X152767200Y-121110500D03*
D15*
X144458800Y-133298800D03*
X144458800Y-132498800D03*
D16*
X144458800Y-131798800D03*
X144458800Y-131298800D03*
X144458800Y-130798800D03*
X144458800Y-130298800D03*
X144458800Y-128298800D03*
X144458800Y-128798800D03*
X144458800Y-129298800D03*
X144458800Y-129798800D03*
D15*
X144458800Y-127598800D03*
X144458800Y-126798800D03*
D17*
G36*
X157375204Y-122723404D02*
G01*
X157399473Y-122727004D01*
X157423271Y-122732965D01*
X157446371Y-122741230D01*
X157468549Y-122751720D01*
X157489593Y-122764333D01*
X157509298Y-122778947D01*
X157527477Y-122795423D01*
X157543953Y-122813602D01*
X157558567Y-122833307D01*
X157571180Y-122854351D01*
X157581670Y-122876529D01*
X157589935Y-122899629D01*
X157595896Y-122923427D01*
X157599496Y-122947696D01*
X157600700Y-122972200D01*
X157600700Y-124222200D01*
X157599496Y-124246704D01*
X157595896Y-124270973D01*
X157589935Y-124294771D01*
X157581670Y-124317871D01*
X157571180Y-124340049D01*
X157558567Y-124361093D01*
X157543953Y-124380798D01*
X157527477Y-124398977D01*
X157509298Y-124415453D01*
X157489593Y-124430067D01*
X157468549Y-124442680D01*
X157446371Y-124453170D01*
X157423271Y-124461435D01*
X157399473Y-124467396D01*
X157375204Y-124470996D01*
X157350700Y-124472200D01*
X156600700Y-124472200D01*
X156576196Y-124470996D01*
X156551927Y-124467396D01*
X156528129Y-124461435D01*
X156505029Y-124453170D01*
X156482851Y-124442680D01*
X156461807Y-124430067D01*
X156442102Y-124415453D01*
X156423923Y-124398977D01*
X156407447Y-124380798D01*
X156392833Y-124361093D01*
X156380220Y-124340049D01*
X156369730Y-124317871D01*
X156361465Y-124294771D01*
X156355504Y-124270973D01*
X156351904Y-124246704D01*
X156350700Y-124222200D01*
X156350700Y-122972200D01*
X156351904Y-122947696D01*
X156355504Y-122923427D01*
X156361465Y-122899629D01*
X156369730Y-122876529D01*
X156380220Y-122854351D01*
X156392833Y-122833307D01*
X156407447Y-122813602D01*
X156423923Y-122795423D01*
X156442102Y-122778947D01*
X156461807Y-122764333D01*
X156482851Y-122751720D01*
X156505029Y-122741230D01*
X156528129Y-122732965D01*
X156551927Y-122727004D01*
X156576196Y-122723404D01*
X156600700Y-122722200D01*
X157350700Y-122722200D01*
X157375204Y-122723404D01*
G37*
G36*
X160175204Y-122723404D02*
G01*
X160199473Y-122727004D01*
X160223271Y-122732965D01*
X160246371Y-122741230D01*
X160268549Y-122751720D01*
X160289593Y-122764333D01*
X160309298Y-122778947D01*
X160327477Y-122795423D01*
X160343953Y-122813602D01*
X160358567Y-122833307D01*
X160371180Y-122854351D01*
X160381670Y-122876529D01*
X160389935Y-122899629D01*
X160395896Y-122923427D01*
X160399496Y-122947696D01*
X160400700Y-122972200D01*
X160400700Y-124222200D01*
X160399496Y-124246704D01*
X160395896Y-124270973D01*
X160389935Y-124294771D01*
X160381670Y-124317871D01*
X160371180Y-124340049D01*
X160358567Y-124361093D01*
X160343953Y-124380798D01*
X160327477Y-124398977D01*
X160309298Y-124415453D01*
X160289593Y-124430067D01*
X160268549Y-124442680D01*
X160246371Y-124453170D01*
X160223271Y-124461435D01*
X160199473Y-124467396D01*
X160175204Y-124470996D01*
X160150700Y-124472200D01*
X159400700Y-124472200D01*
X159376196Y-124470996D01*
X159351927Y-124467396D01*
X159328129Y-124461435D01*
X159305029Y-124453170D01*
X159282851Y-124442680D01*
X159261807Y-124430067D01*
X159242102Y-124415453D01*
X159223923Y-124398977D01*
X159207447Y-124380798D01*
X159192833Y-124361093D01*
X159180220Y-124340049D01*
X159169730Y-124317871D01*
X159161465Y-124294771D01*
X159155504Y-124270973D01*
X159151904Y-124246704D01*
X159150700Y-124222200D01*
X159150700Y-122972200D01*
X159151904Y-122947696D01*
X159155504Y-122923427D01*
X159161465Y-122899629D01*
X159169730Y-122876529D01*
X159180220Y-122854351D01*
X159192833Y-122833307D01*
X159207447Y-122813602D01*
X159223923Y-122795423D01*
X159242102Y-122778947D01*
X159261807Y-122764333D01*
X159282851Y-122751720D01*
X159305029Y-122741230D01*
X159328129Y-122732965D01*
X159351927Y-122727004D01*
X159376196Y-122723404D01*
X159400700Y-122722200D01*
X160150700Y-122722200D01*
X160175204Y-122723404D01*
G37*
G36*
X141781003Y-107133863D02*
G01*
X141800418Y-107136743D01*
X141819457Y-107141512D01*
X141837937Y-107148124D01*
X141855679Y-107156516D01*
X141872514Y-107166606D01*
X141888279Y-107178298D01*
X141902821Y-107191479D01*
X141916002Y-107206021D01*
X141927694Y-107221786D01*
X141937784Y-107238621D01*
X141946176Y-107256363D01*
X141952788Y-107274843D01*
X141957557Y-107293882D01*
X141960437Y-107313297D01*
X141961400Y-107332900D01*
X141961400Y-107882900D01*
X141960437Y-107902503D01*
X141957557Y-107921918D01*
X141952788Y-107940957D01*
X141946176Y-107959437D01*
X141937784Y-107977179D01*
X141927694Y-107994014D01*
X141916002Y-108009779D01*
X141902821Y-108024321D01*
X141888279Y-108037502D01*
X141872514Y-108049194D01*
X141855679Y-108059284D01*
X141837937Y-108067676D01*
X141819457Y-108074288D01*
X141800418Y-108079057D01*
X141781003Y-108081937D01*
X141761400Y-108082900D01*
X141361400Y-108082900D01*
X141341797Y-108081937D01*
X141322382Y-108079057D01*
X141303343Y-108074288D01*
X141284863Y-108067676D01*
X141267121Y-108059284D01*
X141250286Y-108049194D01*
X141234521Y-108037502D01*
X141219979Y-108024321D01*
X141206798Y-108009779D01*
X141195106Y-107994014D01*
X141185016Y-107977179D01*
X141176624Y-107959437D01*
X141170012Y-107940957D01*
X141165243Y-107921918D01*
X141162363Y-107902503D01*
X141161400Y-107882900D01*
X141161400Y-107332900D01*
X141162363Y-107313297D01*
X141165243Y-107293882D01*
X141170012Y-107274843D01*
X141176624Y-107256363D01*
X141185016Y-107238621D01*
X141195106Y-107221786D01*
X141206798Y-107206021D01*
X141219979Y-107191479D01*
X141234521Y-107178298D01*
X141250286Y-107166606D01*
X141267121Y-107156516D01*
X141284863Y-107148124D01*
X141303343Y-107141512D01*
X141322382Y-107136743D01*
X141341797Y-107133863D01*
X141361400Y-107132900D01*
X141761400Y-107132900D01*
X141781003Y-107133863D01*
G37*
G36*
X143431003Y-107133863D02*
G01*
X143450418Y-107136743D01*
X143469457Y-107141512D01*
X143487937Y-107148124D01*
X143505679Y-107156516D01*
X143522514Y-107166606D01*
X143538279Y-107178298D01*
X143552821Y-107191479D01*
X143566002Y-107206021D01*
X143577694Y-107221786D01*
X143587784Y-107238621D01*
X143596176Y-107256363D01*
X143602788Y-107274843D01*
X143607557Y-107293882D01*
X143610437Y-107313297D01*
X143611400Y-107332900D01*
X143611400Y-107882900D01*
X143610437Y-107902503D01*
X143607557Y-107921918D01*
X143602788Y-107940957D01*
X143596176Y-107959437D01*
X143587784Y-107977179D01*
X143577694Y-107994014D01*
X143566002Y-108009779D01*
X143552821Y-108024321D01*
X143538279Y-108037502D01*
X143522514Y-108049194D01*
X143505679Y-108059284D01*
X143487937Y-108067676D01*
X143469457Y-108074288D01*
X143450418Y-108079057D01*
X143431003Y-108081937D01*
X143411400Y-108082900D01*
X143011400Y-108082900D01*
X142991797Y-108081937D01*
X142972382Y-108079057D01*
X142953343Y-108074288D01*
X142934863Y-108067676D01*
X142917121Y-108059284D01*
X142900286Y-108049194D01*
X142884521Y-108037502D01*
X142869979Y-108024321D01*
X142856798Y-108009779D01*
X142845106Y-107994014D01*
X142835016Y-107977179D01*
X142826624Y-107959437D01*
X142820012Y-107940957D01*
X142815243Y-107921918D01*
X142812363Y-107902503D01*
X142811400Y-107882900D01*
X142811400Y-107332900D01*
X142812363Y-107313297D01*
X142815243Y-107293882D01*
X142820012Y-107274843D01*
X142826624Y-107256363D01*
X142835016Y-107238621D01*
X142845106Y-107221786D01*
X142856798Y-107206021D01*
X142869979Y-107191479D01*
X142884521Y-107178298D01*
X142900286Y-107166606D01*
X142917121Y-107156516D01*
X142934863Y-107148124D01*
X142953343Y-107141512D01*
X142972382Y-107136743D01*
X142991797Y-107133863D01*
X143011400Y-107132900D01*
X143411400Y-107132900D01*
X143431003Y-107133863D01*
G37*
G36*
X151404829Y-122004823D02*
G01*
X151425457Y-122007883D01*
X151445685Y-122012950D01*
X151465320Y-122019976D01*
X151484172Y-122028892D01*
X151502059Y-122039613D01*
X151518809Y-122052035D01*
X151534260Y-122066040D01*
X151548265Y-122081491D01*
X151560687Y-122098241D01*
X151571408Y-122116128D01*
X151580324Y-122134980D01*
X151587350Y-122154615D01*
X151592417Y-122174843D01*
X151595477Y-122195471D01*
X151596500Y-122216300D01*
X151596500Y-122641300D01*
X151595477Y-122662129D01*
X151592417Y-122682757D01*
X151587350Y-122702985D01*
X151580324Y-122722620D01*
X151571408Y-122741472D01*
X151560687Y-122759359D01*
X151548265Y-122776109D01*
X151534260Y-122791560D01*
X151518809Y-122805565D01*
X151502059Y-122817987D01*
X151484172Y-122828708D01*
X151465320Y-122837624D01*
X151445685Y-122844650D01*
X151425457Y-122849717D01*
X151404829Y-122852777D01*
X151384000Y-122853800D01*
X150584000Y-122853800D01*
X150563171Y-122852777D01*
X150542543Y-122849717D01*
X150522315Y-122844650D01*
X150502680Y-122837624D01*
X150483828Y-122828708D01*
X150465941Y-122817987D01*
X150449191Y-122805565D01*
X150433740Y-122791560D01*
X150419735Y-122776109D01*
X150407313Y-122759359D01*
X150396592Y-122741472D01*
X150387676Y-122722620D01*
X150380650Y-122702985D01*
X150375583Y-122682757D01*
X150372523Y-122662129D01*
X150371500Y-122641300D01*
X150371500Y-122216300D01*
X150372523Y-122195471D01*
X150375583Y-122174843D01*
X150380650Y-122154615D01*
X150387676Y-122134980D01*
X150396592Y-122116128D01*
X150407313Y-122098241D01*
X150419735Y-122081491D01*
X150433740Y-122066040D01*
X150449191Y-122052035D01*
X150465941Y-122039613D01*
X150483828Y-122028892D01*
X150502680Y-122019976D01*
X150522315Y-122012950D01*
X150542543Y-122007883D01*
X150563171Y-122004823D01*
X150584000Y-122003800D01*
X151384000Y-122003800D01*
X151404829Y-122004823D01*
G37*
G36*
X149779829Y-122004823D02*
G01*
X149800457Y-122007883D01*
X149820685Y-122012950D01*
X149840320Y-122019976D01*
X149859172Y-122028892D01*
X149877059Y-122039613D01*
X149893809Y-122052035D01*
X149909260Y-122066040D01*
X149923265Y-122081491D01*
X149935687Y-122098241D01*
X149946408Y-122116128D01*
X149955324Y-122134980D01*
X149962350Y-122154615D01*
X149967417Y-122174843D01*
X149970477Y-122195471D01*
X149971500Y-122216300D01*
X149971500Y-122641300D01*
X149970477Y-122662129D01*
X149967417Y-122682757D01*
X149962350Y-122702985D01*
X149955324Y-122722620D01*
X149946408Y-122741472D01*
X149935687Y-122759359D01*
X149923265Y-122776109D01*
X149909260Y-122791560D01*
X149893809Y-122805565D01*
X149877059Y-122817987D01*
X149859172Y-122828708D01*
X149840320Y-122837624D01*
X149820685Y-122844650D01*
X149800457Y-122849717D01*
X149779829Y-122852777D01*
X149759000Y-122853800D01*
X148959000Y-122853800D01*
X148938171Y-122852777D01*
X148917543Y-122849717D01*
X148897315Y-122844650D01*
X148877680Y-122837624D01*
X148858828Y-122828708D01*
X148840941Y-122817987D01*
X148824191Y-122805565D01*
X148808740Y-122791560D01*
X148794735Y-122776109D01*
X148782313Y-122759359D01*
X148771592Y-122741472D01*
X148762676Y-122722620D01*
X148755650Y-122702985D01*
X148750583Y-122682757D01*
X148747523Y-122662129D01*
X148746500Y-122641300D01*
X148746500Y-122216300D01*
X148747523Y-122195471D01*
X148750583Y-122174843D01*
X148755650Y-122154615D01*
X148762676Y-122134980D01*
X148771592Y-122116128D01*
X148782313Y-122098241D01*
X148794735Y-122081491D01*
X148808740Y-122066040D01*
X148824191Y-122052035D01*
X148840941Y-122039613D01*
X148858828Y-122028892D01*
X148877680Y-122019976D01*
X148897315Y-122012950D01*
X148917543Y-122007883D01*
X148938171Y-122004823D01*
X148959000Y-122003800D01*
X149759000Y-122003800D01*
X149779829Y-122004823D01*
G37*
D18*
X146912500Y-116675700D03*
X149112500Y-115725700D03*
X149112500Y-117625700D03*
X152614800Y-116650300D03*
X154814800Y-115700300D03*
X154814800Y-117600300D03*
D17*
G36*
X147612011Y-125385893D02*
G01*
X147633246Y-125389043D01*
X147654070Y-125394259D01*
X147674282Y-125401491D01*
X147693688Y-125410670D01*
X147712101Y-125421706D01*
X147729344Y-125434494D01*
X147745250Y-125448910D01*
X147759666Y-125464816D01*
X147772454Y-125482059D01*
X147783490Y-125500472D01*
X147792669Y-125519878D01*
X147799901Y-125540090D01*
X147805117Y-125560914D01*
X147808267Y-125582149D01*
X147809320Y-125603590D01*
X147809320Y-126041090D01*
X147808267Y-126062531D01*
X147805117Y-126083766D01*
X147799901Y-126104590D01*
X147792669Y-126124802D01*
X147783490Y-126144208D01*
X147772454Y-126162621D01*
X147759666Y-126179864D01*
X147745250Y-126195770D01*
X147729344Y-126210186D01*
X147712101Y-126222974D01*
X147693688Y-126234010D01*
X147674282Y-126243189D01*
X147654070Y-126250421D01*
X147633246Y-126255637D01*
X147612011Y-126258787D01*
X147590570Y-126259840D01*
X147078070Y-126259840D01*
X147056629Y-126258787D01*
X147035394Y-126255637D01*
X147014570Y-126250421D01*
X146994358Y-126243189D01*
X146974952Y-126234010D01*
X146956539Y-126222974D01*
X146939296Y-126210186D01*
X146923390Y-126195770D01*
X146908974Y-126179864D01*
X146896186Y-126162621D01*
X146885150Y-126144208D01*
X146875971Y-126124802D01*
X146868739Y-126104590D01*
X146863523Y-126083766D01*
X146860373Y-126062531D01*
X146859320Y-126041090D01*
X146859320Y-125603590D01*
X146860373Y-125582149D01*
X146863523Y-125560914D01*
X146868739Y-125540090D01*
X146875971Y-125519878D01*
X146885150Y-125500472D01*
X146896186Y-125482059D01*
X146908974Y-125464816D01*
X146923390Y-125448910D01*
X146939296Y-125434494D01*
X146956539Y-125421706D01*
X146974952Y-125410670D01*
X146994358Y-125401491D01*
X147014570Y-125394259D01*
X147035394Y-125389043D01*
X147056629Y-125385893D01*
X147078070Y-125384840D01*
X147590570Y-125384840D01*
X147612011Y-125385893D01*
G37*
G36*
X147612011Y-123810893D02*
G01*
X147633246Y-123814043D01*
X147654070Y-123819259D01*
X147674282Y-123826491D01*
X147693688Y-123835670D01*
X147712101Y-123846706D01*
X147729344Y-123859494D01*
X147745250Y-123873910D01*
X147759666Y-123889816D01*
X147772454Y-123907059D01*
X147783490Y-123925472D01*
X147792669Y-123944878D01*
X147799901Y-123965090D01*
X147805117Y-123985914D01*
X147808267Y-124007149D01*
X147809320Y-124028590D01*
X147809320Y-124466090D01*
X147808267Y-124487531D01*
X147805117Y-124508766D01*
X147799901Y-124529590D01*
X147792669Y-124549802D01*
X147783490Y-124569208D01*
X147772454Y-124587621D01*
X147759666Y-124604864D01*
X147745250Y-124620770D01*
X147729344Y-124635186D01*
X147712101Y-124647974D01*
X147693688Y-124659010D01*
X147674282Y-124668189D01*
X147654070Y-124675421D01*
X147633246Y-124680637D01*
X147612011Y-124683787D01*
X147590570Y-124684840D01*
X147078070Y-124684840D01*
X147056629Y-124683787D01*
X147035394Y-124680637D01*
X147014570Y-124675421D01*
X146994358Y-124668189D01*
X146974952Y-124659010D01*
X146956539Y-124647974D01*
X146939296Y-124635186D01*
X146923390Y-124620770D01*
X146908974Y-124604864D01*
X146896186Y-124587621D01*
X146885150Y-124569208D01*
X146875971Y-124549802D01*
X146868739Y-124529590D01*
X146863523Y-124508766D01*
X146860373Y-124487531D01*
X146859320Y-124466090D01*
X146859320Y-124028590D01*
X146860373Y-124007149D01*
X146863523Y-123985914D01*
X146868739Y-123965090D01*
X146875971Y-123944878D01*
X146885150Y-123925472D01*
X146896186Y-123907059D01*
X146908974Y-123889816D01*
X146923390Y-123873910D01*
X146939296Y-123859494D01*
X146956539Y-123846706D01*
X146974952Y-123835670D01*
X146994358Y-123826491D01*
X147014570Y-123819259D01*
X147035394Y-123814043D01*
X147056629Y-123810893D01*
X147078070Y-123809840D01*
X147590570Y-123809840D01*
X147612011Y-123810893D01*
G37*
G36*
X149390511Y-123803973D02*
G01*
X149411746Y-123807123D01*
X149432570Y-123812339D01*
X149452782Y-123819571D01*
X149472188Y-123828750D01*
X149490601Y-123839786D01*
X149507844Y-123852574D01*
X149523750Y-123866990D01*
X149538166Y-123882896D01*
X149550954Y-123900139D01*
X149561990Y-123918552D01*
X149571169Y-123937958D01*
X149578401Y-123958170D01*
X149583617Y-123978994D01*
X149586767Y-124000229D01*
X149587820Y-124021670D01*
X149587820Y-124534170D01*
X149586767Y-124555611D01*
X149583617Y-124576846D01*
X149578401Y-124597670D01*
X149571169Y-124617882D01*
X149561990Y-124637288D01*
X149550954Y-124655701D01*
X149538166Y-124672944D01*
X149523750Y-124688850D01*
X149507844Y-124703266D01*
X149490601Y-124716054D01*
X149472188Y-124727090D01*
X149452782Y-124736269D01*
X149432570Y-124743501D01*
X149411746Y-124748717D01*
X149390511Y-124751867D01*
X149369070Y-124752920D01*
X148931570Y-124752920D01*
X148910129Y-124751867D01*
X148888894Y-124748717D01*
X148868070Y-124743501D01*
X148847858Y-124736269D01*
X148828452Y-124727090D01*
X148810039Y-124716054D01*
X148792796Y-124703266D01*
X148776890Y-124688850D01*
X148762474Y-124672944D01*
X148749686Y-124655701D01*
X148738650Y-124637288D01*
X148729471Y-124617882D01*
X148722239Y-124597670D01*
X148717023Y-124576846D01*
X148713873Y-124555611D01*
X148712820Y-124534170D01*
X148712820Y-124021670D01*
X148713873Y-124000229D01*
X148717023Y-123978994D01*
X148722239Y-123958170D01*
X148729471Y-123937958D01*
X148738650Y-123918552D01*
X148749686Y-123900139D01*
X148762474Y-123882896D01*
X148776890Y-123866990D01*
X148792796Y-123852574D01*
X148810039Y-123839786D01*
X148828452Y-123828750D01*
X148847858Y-123819571D01*
X148868070Y-123812339D01*
X148888894Y-123807123D01*
X148910129Y-123803973D01*
X148931570Y-123802920D01*
X149369070Y-123802920D01*
X149390511Y-123803973D01*
G37*
G36*
X150965511Y-123803973D02*
G01*
X150986746Y-123807123D01*
X151007570Y-123812339D01*
X151027782Y-123819571D01*
X151047188Y-123828750D01*
X151065601Y-123839786D01*
X151082844Y-123852574D01*
X151098750Y-123866990D01*
X151113166Y-123882896D01*
X151125954Y-123900139D01*
X151136990Y-123918552D01*
X151146169Y-123937958D01*
X151153401Y-123958170D01*
X151158617Y-123978994D01*
X151161767Y-124000229D01*
X151162820Y-124021670D01*
X151162820Y-124534170D01*
X151161767Y-124555611D01*
X151158617Y-124576846D01*
X151153401Y-124597670D01*
X151146169Y-124617882D01*
X151136990Y-124637288D01*
X151125954Y-124655701D01*
X151113166Y-124672944D01*
X151098750Y-124688850D01*
X151082844Y-124703266D01*
X151065601Y-124716054D01*
X151047188Y-124727090D01*
X151027782Y-124736269D01*
X151007570Y-124743501D01*
X150986746Y-124748717D01*
X150965511Y-124751867D01*
X150944070Y-124752920D01*
X150506570Y-124752920D01*
X150485129Y-124751867D01*
X150463894Y-124748717D01*
X150443070Y-124743501D01*
X150422858Y-124736269D01*
X150403452Y-124727090D01*
X150385039Y-124716054D01*
X150367796Y-124703266D01*
X150351890Y-124688850D01*
X150337474Y-124672944D01*
X150324686Y-124655701D01*
X150313650Y-124637288D01*
X150304471Y-124617882D01*
X150297239Y-124597670D01*
X150292023Y-124576846D01*
X150288873Y-124555611D01*
X150287820Y-124534170D01*
X150287820Y-124021670D01*
X150288873Y-124000229D01*
X150292023Y-123978994D01*
X150297239Y-123958170D01*
X150304471Y-123937958D01*
X150313650Y-123918552D01*
X150324686Y-123900139D01*
X150337474Y-123882896D01*
X150351890Y-123866990D01*
X150367796Y-123852574D01*
X150385039Y-123839786D01*
X150403452Y-123828750D01*
X150422858Y-123819571D01*
X150443070Y-123812339D01*
X150463894Y-123807123D01*
X150485129Y-123803973D01*
X150506570Y-123802920D01*
X150944070Y-123802920D01*
X150965511Y-123803973D01*
G37*
D19*
X147596200Y-133157200D03*
X154296200Y-133157200D03*
D20*
X149946200Y-127407200D03*
X151946200Y-127407200D03*
D21*
X156350720Y-105777920D03*
X156350720Y-104677920D03*
X158180720Y-104677920D03*
X158180720Y-105777920D03*
D17*
G36*
X151236591Y-120430353D02*
G01*
X151257826Y-120433503D01*
X151278650Y-120438719D01*
X151298862Y-120445951D01*
X151318268Y-120455130D01*
X151336681Y-120466166D01*
X151353924Y-120478954D01*
X151369830Y-120493370D01*
X151384246Y-120509276D01*
X151397034Y-120526519D01*
X151408070Y-120544932D01*
X151417249Y-120564338D01*
X151424481Y-120584550D01*
X151429697Y-120605374D01*
X151432847Y-120626609D01*
X151433900Y-120648050D01*
X151433900Y-121085550D01*
X151432847Y-121106991D01*
X151429697Y-121128226D01*
X151424481Y-121149050D01*
X151417249Y-121169262D01*
X151408070Y-121188668D01*
X151397034Y-121207081D01*
X151384246Y-121224324D01*
X151369830Y-121240230D01*
X151353924Y-121254646D01*
X151336681Y-121267434D01*
X151318268Y-121278470D01*
X151298862Y-121287649D01*
X151278650Y-121294881D01*
X151257826Y-121300097D01*
X151236591Y-121303247D01*
X151215150Y-121304300D01*
X150702650Y-121304300D01*
X150681209Y-121303247D01*
X150659974Y-121300097D01*
X150639150Y-121294881D01*
X150618938Y-121287649D01*
X150599532Y-121278470D01*
X150581119Y-121267434D01*
X150563876Y-121254646D01*
X150547970Y-121240230D01*
X150533554Y-121224324D01*
X150520766Y-121207081D01*
X150509730Y-121188668D01*
X150500551Y-121169262D01*
X150493319Y-121149050D01*
X150488103Y-121128226D01*
X150484953Y-121106991D01*
X150483900Y-121085550D01*
X150483900Y-120648050D01*
X150484953Y-120626609D01*
X150488103Y-120605374D01*
X150493319Y-120584550D01*
X150500551Y-120564338D01*
X150509730Y-120544932D01*
X150520766Y-120526519D01*
X150533554Y-120509276D01*
X150547970Y-120493370D01*
X150563876Y-120478954D01*
X150581119Y-120466166D01*
X150599532Y-120455130D01*
X150618938Y-120445951D01*
X150639150Y-120438719D01*
X150659974Y-120433503D01*
X150681209Y-120430353D01*
X150702650Y-120429300D01*
X151215150Y-120429300D01*
X151236591Y-120430353D01*
G37*
G36*
X151236591Y-118855353D02*
G01*
X151257826Y-118858503D01*
X151278650Y-118863719D01*
X151298862Y-118870951D01*
X151318268Y-118880130D01*
X151336681Y-118891166D01*
X151353924Y-118903954D01*
X151369830Y-118918370D01*
X151384246Y-118934276D01*
X151397034Y-118951519D01*
X151408070Y-118969932D01*
X151417249Y-118989338D01*
X151424481Y-119009550D01*
X151429697Y-119030374D01*
X151432847Y-119051609D01*
X151433900Y-119073050D01*
X151433900Y-119510550D01*
X151432847Y-119531991D01*
X151429697Y-119553226D01*
X151424481Y-119574050D01*
X151417249Y-119594262D01*
X151408070Y-119613668D01*
X151397034Y-119632081D01*
X151384246Y-119649324D01*
X151369830Y-119665230D01*
X151353924Y-119679646D01*
X151336681Y-119692434D01*
X151318268Y-119703470D01*
X151298862Y-119712649D01*
X151278650Y-119719881D01*
X151257826Y-119725097D01*
X151236591Y-119728247D01*
X151215150Y-119729300D01*
X150702650Y-119729300D01*
X150681209Y-119728247D01*
X150659974Y-119725097D01*
X150639150Y-119719881D01*
X150618938Y-119712649D01*
X150599532Y-119703470D01*
X150581119Y-119692434D01*
X150563876Y-119679646D01*
X150547970Y-119665230D01*
X150533554Y-119649324D01*
X150520766Y-119632081D01*
X150509730Y-119613668D01*
X150500551Y-119594262D01*
X150493319Y-119574050D01*
X150488103Y-119553226D01*
X150484953Y-119531991D01*
X150483900Y-119510550D01*
X150483900Y-119073050D01*
X150484953Y-119051609D01*
X150488103Y-119030374D01*
X150493319Y-119009550D01*
X150500551Y-118989338D01*
X150509730Y-118969932D01*
X150520766Y-118951519D01*
X150533554Y-118934276D01*
X150547970Y-118918370D01*
X150563876Y-118903954D01*
X150581119Y-118891166D01*
X150599532Y-118880130D01*
X150618938Y-118870951D01*
X150639150Y-118863719D01*
X150659974Y-118858503D01*
X150681209Y-118855353D01*
X150702650Y-118854300D01*
X151215150Y-118854300D01*
X151236591Y-118855353D01*
G37*
D22*
X147286100Y-122089800D03*
X146336100Y-122089800D03*
X145386100Y-122089800D03*
X145386100Y-119465800D03*
X146336100Y-119465800D03*
X147286100Y-119465800D03*
D17*
G36*
X151255203Y-104454163D02*
G01*
X151274618Y-104457043D01*
X151293657Y-104461812D01*
X151312137Y-104468424D01*
X151329879Y-104476816D01*
X151346714Y-104486906D01*
X151362479Y-104498598D01*
X151377021Y-104511779D01*
X151390202Y-104526321D01*
X151401894Y-104542086D01*
X151411984Y-104558921D01*
X151420376Y-104576663D01*
X151426988Y-104595143D01*
X151431757Y-104614182D01*
X151434637Y-104633597D01*
X151435600Y-104653200D01*
X151435600Y-105203200D01*
X151434637Y-105222803D01*
X151431757Y-105242218D01*
X151426988Y-105261257D01*
X151420376Y-105279737D01*
X151411984Y-105297479D01*
X151401894Y-105314314D01*
X151390202Y-105330079D01*
X151377021Y-105344621D01*
X151362479Y-105357802D01*
X151346714Y-105369494D01*
X151329879Y-105379584D01*
X151312137Y-105387976D01*
X151293657Y-105394588D01*
X151274618Y-105399357D01*
X151255203Y-105402237D01*
X151235600Y-105403200D01*
X150835600Y-105403200D01*
X150815997Y-105402237D01*
X150796582Y-105399357D01*
X150777543Y-105394588D01*
X150759063Y-105387976D01*
X150741321Y-105379584D01*
X150724486Y-105369494D01*
X150708721Y-105357802D01*
X150694179Y-105344621D01*
X150680998Y-105330079D01*
X150669306Y-105314314D01*
X150659216Y-105297479D01*
X150650824Y-105279737D01*
X150644212Y-105261257D01*
X150639443Y-105242218D01*
X150636563Y-105222803D01*
X150635600Y-105203200D01*
X150635600Y-104653200D01*
X150636563Y-104633597D01*
X150639443Y-104614182D01*
X150644212Y-104595143D01*
X150650824Y-104576663D01*
X150659216Y-104558921D01*
X150669306Y-104542086D01*
X150680998Y-104526321D01*
X150694179Y-104511779D01*
X150708721Y-104498598D01*
X150724486Y-104486906D01*
X150741321Y-104476816D01*
X150759063Y-104468424D01*
X150777543Y-104461812D01*
X150796582Y-104457043D01*
X150815997Y-104454163D01*
X150835600Y-104453200D01*
X151235600Y-104453200D01*
X151255203Y-104454163D01*
G37*
G36*
X152905203Y-104454163D02*
G01*
X152924618Y-104457043D01*
X152943657Y-104461812D01*
X152962137Y-104468424D01*
X152979879Y-104476816D01*
X152996714Y-104486906D01*
X153012479Y-104498598D01*
X153027021Y-104511779D01*
X153040202Y-104526321D01*
X153051894Y-104542086D01*
X153061984Y-104558921D01*
X153070376Y-104576663D01*
X153076988Y-104595143D01*
X153081757Y-104614182D01*
X153084637Y-104633597D01*
X153085600Y-104653200D01*
X153085600Y-105203200D01*
X153084637Y-105222803D01*
X153081757Y-105242218D01*
X153076988Y-105261257D01*
X153070376Y-105279737D01*
X153061984Y-105297479D01*
X153051894Y-105314314D01*
X153040202Y-105330079D01*
X153027021Y-105344621D01*
X153012479Y-105357802D01*
X152996714Y-105369494D01*
X152979879Y-105379584D01*
X152962137Y-105387976D01*
X152943657Y-105394588D01*
X152924618Y-105399357D01*
X152905203Y-105402237D01*
X152885600Y-105403200D01*
X152485600Y-105403200D01*
X152465997Y-105402237D01*
X152446582Y-105399357D01*
X152427543Y-105394588D01*
X152409063Y-105387976D01*
X152391321Y-105379584D01*
X152374486Y-105369494D01*
X152358721Y-105357802D01*
X152344179Y-105344621D01*
X152330998Y-105330079D01*
X152319306Y-105314314D01*
X152309216Y-105297479D01*
X152300824Y-105279737D01*
X152294212Y-105261257D01*
X152289443Y-105242218D01*
X152286563Y-105222803D01*
X152285600Y-105203200D01*
X152285600Y-104653200D01*
X152286563Y-104633597D01*
X152289443Y-104614182D01*
X152294212Y-104595143D01*
X152300824Y-104576663D01*
X152309216Y-104558921D01*
X152319306Y-104542086D01*
X152330998Y-104526321D01*
X152344179Y-104511779D01*
X152358721Y-104498598D01*
X152374486Y-104486906D01*
X152391321Y-104476816D01*
X152409063Y-104468424D01*
X152427543Y-104461812D01*
X152446582Y-104457043D01*
X152465997Y-104454163D01*
X152485600Y-104453200D01*
X152885600Y-104453200D01*
X152905203Y-104454163D01*
G37*
G36*
X149627903Y-118867963D02*
G01*
X149647318Y-118870843D01*
X149666357Y-118875612D01*
X149684837Y-118882224D01*
X149702579Y-118890616D01*
X149719414Y-118900706D01*
X149735179Y-118912398D01*
X149749721Y-118925579D01*
X149762902Y-118940121D01*
X149774594Y-118955886D01*
X149784684Y-118972721D01*
X149793076Y-118990463D01*
X149799688Y-119008943D01*
X149804457Y-119027982D01*
X149807337Y-119047397D01*
X149808300Y-119067000D01*
X149808300Y-119467000D01*
X149807337Y-119486603D01*
X149804457Y-119506018D01*
X149799688Y-119525057D01*
X149793076Y-119543537D01*
X149784684Y-119561279D01*
X149774594Y-119578114D01*
X149762902Y-119593879D01*
X149749721Y-119608421D01*
X149735179Y-119621602D01*
X149719414Y-119633294D01*
X149702579Y-119643384D01*
X149684837Y-119651776D01*
X149666357Y-119658388D01*
X149647318Y-119663157D01*
X149627903Y-119666037D01*
X149608300Y-119667000D01*
X149058300Y-119667000D01*
X149038697Y-119666037D01*
X149019282Y-119663157D01*
X149000243Y-119658388D01*
X148981763Y-119651776D01*
X148964021Y-119643384D01*
X148947186Y-119633294D01*
X148931421Y-119621602D01*
X148916879Y-119608421D01*
X148903698Y-119593879D01*
X148892006Y-119578114D01*
X148881916Y-119561279D01*
X148873524Y-119543537D01*
X148866912Y-119525057D01*
X148862143Y-119506018D01*
X148859263Y-119486603D01*
X148858300Y-119467000D01*
X148858300Y-119067000D01*
X148859263Y-119047397D01*
X148862143Y-119027982D01*
X148866912Y-119008943D01*
X148873524Y-118990463D01*
X148881916Y-118972721D01*
X148892006Y-118955886D01*
X148903698Y-118940121D01*
X148916879Y-118925579D01*
X148931421Y-118912398D01*
X148947186Y-118900706D01*
X148964021Y-118890616D01*
X148981763Y-118882224D01*
X149000243Y-118875612D01*
X149019282Y-118870843D01*
X149038697Y-118867963D01*
X149058300Y-118867000D01*
X149608300Y-118867000D01*
X149627903Y-118867963D01*
G37*
G36*
X149627903Y-120517963D02*
G01*
X149647318Y-120520843D01*
X149666357Y-120525612D01*
X149684837Y-120532224D01*
X149702579Y-120540616D01*
X149719414Y-120550706D01*
X149735179Y-120562398D01*
X149749721Y-120575579D01*
X149762902Y-120590121D01*
X149774594Y-120605886D01*
X149784684Y-120622721D01*
X149793076Y-120640463D01*
X149799688Y-120658943D01*
X149804457Y-120677982D01*
X149807337Y-120697397D01*
X149808300Y-120717000D01*
X149808300Y-121117000D01*
X149807337Y-121136603D01*
X149804457Y-121156018D01*
X149799688Y-121175057D01*
X149793076Y-121193537D01*
X149784684Y-121211279D01*
X149774594Y-121228114D01*
X149762902Y-121243879D01*
X149749721Y-121258421D01*
X149735179Y-121271602D01*
X149719414Y-121283294D01*
X149702579Y-121293384D01*
X149684837Y-121301776D01*
X149666357Y-121308388D01*
X149647318Y-121313157D01*
X149627903Y-121316037D01*
X149608300Y-121317000D01*
X149058300Y-121317000D01*
X149038697Y-121316037D01*
X149019282Y-121313157D01*
X149000243Y-121308388D01*
X148981763Y-121301776D01*
X148964021Y-121293384D01*
X148947186Y-121283294D01*
X148931421Y-121271602D01*
X148916879Y-121258421D01*
X148903698Y-121243879D01*
X148892006Y-121228114D01*
X148881916Y-121211279D01*
X148873524Y-121193537D01*
X148866912Y-121175057D01*
X148862143Y-121156018D01*
X148859263Y-121136603D01*
X148858300Y-121117000D01*
X148858300Y-120717000D01*
X148859263Y-120697397D01*
X148862143Y-120677982D01*
X148866912Y-120658943D01*
X148873524Y-120640463D01*
X148881916Y-120622721D01*
X148892006Y-120605886D01*
X148903698Y-120590121D01*
X148916879Y-120575579D01*
X148931421Y-120562398D01*
X148947186Y-120550706D01*
X148964021Y-120540616D01*
X148981763Y-120532224D01*
X149000243Y-120525612D01*
X149019282Y-120520843D01*
X149038697Y-120517963D01*
X149058300Y-120517000D01*
X149608300Y-120517000D01*
X149627903Y-120517963D01*
G37*
G36*
X153007803Y-118855963D02*
G01*
X153027218Y-118858843D01*
X153046257Y-118863612D01*
X153064737Y-118870224D01*
X153082479Y-118878616D01*
X153099314Y-118888706D01*
X153115079Y-118900398D01*
X153129621Y-118913579D01*
X153142802Y-118928121D01*
X153154494Y-118943886D01*
X153164584Y-118960721D01*
X153172976Y-118978463D01*
X153179588Y-118996943D01*
X153184357Y-119015982D01*
X153187237Y-119035397D01*
X153188200Y-119055000D01*
X153188200Y-119605000D01*
X153187237Y-119624603D01*
X153184357Y-119644018D01*
X153179588Y-119663057D01*
X153172976Y-119681537D01*
X153164584Y-119699279D01*
X153154494Y-119716114D01*
X153142802Y-119731879D01*
X153129621Y-119746421D01*
X153115079Y-119759602D01*
X153099314Y-119771294D01*
X153082479Y-119781384D01*
X153064737Y-119789776D01*
X153046257Y-119796388D01*
X153027218Y-119801157D01*
X153007803Y-119804037D01*
X152988200Y-119805000D01*
X152588200Y-119805000D01*
X152568597Y-119804037D01*
X152549182Y-119801157D01*
X152530143Y-119796388D01*
X152511663Y-119789776D01*
X152493921Y-119781384D01*
X152477086Y-119771294D01*
X152461321Y-119759602D01*
X152446779Y-119746421D01*
X152433598Y-119731879D01*
X152421906Y-119716114D01*
X152411816Y-119699279D01*
X152403424Y-119681537D01*
X152396812Y-119663057D01*
X152392043Y-119644018D01*
X152389163Y-119624603D01*
X152388200Y-119605000D01*
X152388200Y-119055000D01*
X152389163Y-119035397D01*
X152392043Y-119015982D01*
X152396812Y-118996943D01*
X152403424Y-118978463D01*
X152411816Y-118960721D01*
X152421906Y-118943886D01*
X152433598Y-118928121D01*
X152446779Y-118913579D01*
X152461321Y-118900398D01*
X152477086Y-118888706D01*
X152493921Y-118878616D01*
X152511663Y-118870224D01*
X152530143Y-118863612D01*
X152549182Y-118858843D01*
X152568597Y-118855963D01*
X152588200Y-118855000D01*
X152988200Y-118855000D01*
X153007803Y-118855963D01*
G37*
G36*
X154657803Y-118855963D02*
G01*
X154677218Y-118858843D01*
X154696257Y-118863612D01*
X154714737Y-118870224D01*
X154732479Y-118878616D01*
X154749314Y-118888706D01*
X154765079Y-118900398D01*
X154779621Y-118913579D01*
X154792802Y-118928121D01*
X154804494Y-118943886D01*
X154814584Y-118960721D01*
X154822976Y-118978463D01*
X154829588Y-118996943D01*
X154834357Y-119015982D01*
X154837237Y-119035397D01*
X154838200Y-119055000D01*
X154838200Y-119605000D01*
X154837237Y-119624603D01*
X154834357Y-119644018D01*
X154829588Y-119663057D01*
X154822976Y-119681537D01*
X154814584Y-119699279D01*
X154804494Y-119716114D01*
X154792802Y-119731879D01*
X154779621Y-119746421D01*
X154765079Y-119759602D01*
X154749314Y-119771294D01*
X154732479Y-119781384D01*
X154714737Y-119789776D01*
X154696257Y-119796388D01*
X154677218Y-119801157D01*
X154657803Y-119804037D01*
X154638200Y-119805000D01*
X154238200Y-119805000D01*
X154218597Y-119804037D01*
X154199182Y-119801157D01*
X154180143Y-119796388D01*
X154161663Y-119789776D01*
X154143921Y-119781384D01*
X154127086Y-119771294D01*
X154111321Y-119759602D01*
X154096779Y-119746421D01*
X154083598Y-119731879D01*
X154071906Y-119716114D01*
X154061816Y-119699279D01*
X154053424Y-119681537D01*
X154046812Y-119663057D01*
X154042043Y-119644018D01*
X154039163Y-119624603D01*
X154038200Y-119605000D01*
X154038200Y-119055000D01*
X154039163Y-119035397D01*
X154042043Y-119015982D01*
X154046812Y-118996943D01*
X154053424Y-118978463D01*
X154061816Y-118960721D01*
X154071906Y-118943886D01*
X154083598Y-118928121D01*
X154096779Y-118913579D01*
X154111321Y-118900398D01*
X154127086Y-118888706D01*
X154143921Y-118878616D01*
X154161663Y-118870224D01*
X154180143Y-118863612D01*
X154199182Y-118858843D01*
X154218597Y-118855963D01*
X154238200Y-118855000D01*
X154638200Y-118855000D01*
X154657803Y-118855963D01*
G37*
G36*
X147382854Y-97735883D02*
G01*
X147404695Y-97739123D01*
X147426114Y-97744488D01*
X147446904Y-97751927D01*
X147466864Y-97761368D01*
X147485803Y-97772719D01*
X147503538Y-97785873D01*
X147519899Y-97800701D01*
X147534727Y-97817062D01*
X147547881Y-97834797D01*
X147559232Y-97853736D01*
X147568673Y-97873696D01*
X147576112Y-97894486D01*
X147581477Y-97915905D01*
X147584717Y-97937746D01*
X147585800Y-97959800D01*
X147585800Y-98409800D01*
X147584717Y-98431854D01*
X147581477Y-98453695D01*
X147576112Y-98475114D01*
X147568673Y-98495904D01*
X147559232Y-98515864D01*
X147547881Y-98534803D01*
X147534727Y-98552538D01*
X147519899Y-98568899D01*
X147503538Y-98583727D01*
X147485803Y-98596881D01*
X147466864Y-98608232D01*
X147446904Y-98617673D01*
X147426114Y-98625112D01*
X147404695Y-98630477D01*
X147382854Y-98633717D01*
X147360800Y-98634800D01*
X146860800Y-98634800D01*
X146838746Y-98633717D01*
X146816905Y-98630477D01*
X146795486Y-98625112D01*
X146774696Y-98617673D01*
X146754736Y-98608232D01*
X146735797Y-98596881D01*
X146718062Y-98583727D01*
X146701701Y-98568899D01*
X146686873Y-98552538D01*
X146673719Y-98534803D01*
X146662368Y-98515864D01*
X146652927Y-98495904D01*
X146645488Y-98475114D01*
X146640123Y-98453695D01*
X146636883Y-98431854D01*
X146635800Y-98409800D01*
X146635800Y-97959800D01*
X146636883Y-97937746D01*
X146640123Y-97915905D01*
X146645488Y-97894486D01*
X146652927Y-97873696D01*
X146662368Y-97853736D01*
X146673719Y-97834797D01*
X146686873Y-97817062D01*
X146701701Y-97800701D01*
X146718062Y-97785873D01*
X146735797Y-97772719D01*
X146754736Y-97761368D01*
X146774696Y-97751927D01*
X146795486Y-97744488D01*
X146816905Y-97739123D01*
X146838746Y-97735883D01*
X146860800Y-97734800D01*
X147360800Y-97734800D01*
X147382854Y-97735883D01*
G37*
G36*
X147382854Y-96185883D02*
G01*
X147404695Y-96189123D01*
X147426114Y-96194488D01*
X147446904Y-96201927D01*
X147466864Y-96211368D01*
X147485803Y-96222719D01*
X147503538Y-96235873D01*
X147519899Y-96250701D01*
X147534727Y-96267062D01*
X147547881Y-96284797D01*
X147559232Y-96303736D01*
X147568673Y-96323696D01*
X147576112Y-96344486D01*
X147581477Y-96365905D01*
X147584717Y-96387746D01*
X147585800Y-96409800D01*
X147585800Y-96859800D01*
X147584717Y-96881854D01*
X147581477Y-96903695D01*
X147576112Y-96925114D01*
X147568673Y-96945904D01*
X147559232Y-96965864D01*
X147547881Y-96984803D01*
X147534727Y-97002538D01*
X147519899Y-97018899D01*
X147503538Y-97033727D01*
X147485803Y-97046881D01*
X147466864Y-97058232D01*
X147446904Y-97067673D01*
X147426114Y-97075112D01*
X147404695Y-97080477D01*
X147382854Y-97083717D01*
X147360800Y-97084800D01*
X146860800Y-97084800D01*
X146838746Y-97083717D01*
X146816905Y-97080477D01*
X146795486Y-97075112D01*
X146774696Y-97067673D01*
X146754736Y-97058232D01*
X146735797Y-97046881D01*
X146718062Y-97033727D01*
X146701701Y-97018899D01*
X146686873Y-97002538D01*
X146673719Y-96984803D01*
X146662368Y-96965864D01*
X146652927Y-96945904D01*
X146645488Y-96925114D01*
X146640123Y-96903695D01*
X146636883Y-96881854D01*
X146635800Y-96859800D01*
X146635800Y-96409800D01*
X146636883Y-96387746D01*
X146640123Y-96365905D01*
X146645488Y-96344486D01*
X146652927Y-96323696D01*
X146662368Y-96303736D01*
X146673719Y-96284797D01*
X146686873Y-96267062D01*
X146701701Y-96250701D01*
X146718062Y-96235873D01*
X146735797Y-96222719D01*
X146754736Y-96211368D01*
X146774696Y-96201927D01*
X146795486Y-96194488D01*
X146816905Y-96189123D01*
X146838746Y-96185883D01*
X146860800Y-96184800D01*
X147360800Y-96184800D01*
X147382854Y-96185883D01*
G37*
G36*
X147344754Y-101723383D02*
G01*
X147366595Y-101726623D01*
X147388014Y-101731988D01*
X147408804Y-101739427D01*
X147428764Y-101748868D01*
X147447703Y-101760219D01*
X147465438Y-101773373D01*
X147481799Y-101788201D01*
X147496627Y-101804562D01*
X147509781Y-101822297D01*
X147521132Y-101841236D01*
X147530573Y-101861196D01*
X147538012Y-101881986D01*
X147543377Y-101903405D01*
X147546617Y-101925246D01*
X147547700Y-101947300D01*
X147547700Y-102397300D01*
X147546617Y-102419354D01*
X147543377Y-102441195D01*
X147538012Y-102462614D01*
X147530573Y-102483404D01*
X147521132Y-102503364D01*
X147509781Y-102522303D01*
X147496627Y-102540038D01*
X147481799Y-102556399D01*
X147465438Y-102571227D01*
X147447703Y-102584381D01*
X147428764Y-102595732D01*
X147408804Y-102605173D01*
X147388014Y-102612612D01*
X147366595Y-102617977D01*
X147344754Y-102621217D01*
X147322700Y-102622300D01*
X146822700Y-102622300D01*
X146800646Y-102621217D01*
X146778805Y-102617977D01*
X146757386Y-102612612D01*
X146736596Y-102605173D01*
X146716636Y-102595732D01*
X146697697Y-102584381D01*
X146679962Y-102571227D01*
X146663601Y-102556399D01*
X146648773Y-102540038D01*
X146635619Y-102522303D01*
X146624268Y-102503364D01*
X146614827Y-102483404D01*
X146607388Y-102462614D01*
X146602023Y-102441195D01*
X146598783Y-102419354D01*
X146597700Y-102397300D01*
X146597700Y-101947300D01*
X146598783Y-101925246D01*
X146602023Y-101903405D01*
X146607388Y-101881986D01*
X146614827Y-101861196D01*
X146624268Y-101841236D01*
X146635619Y-101822297D01*
X146648773Y-101804562D01*
X146663601Y-101788201D01*
X146679962Y-101773373D01*
X146697697Y-101760219D01*
X146716636Y-101748868D01*
X146736596Y-101739427D01*
X146757386Y-101731988D01*
X146778805Y-101726623D01*
X146800646Y-101723383D01*
X146822700Y-101722300D01*
X147322700Y-101722300D01*
X147344754Y-101723383D01*
G37*
G36*
X147344754Y-100173383D02*
G01*
X147366595Y-100176623D01*
X147388014Y-100181988D01*
X147408804Y-100189427D01*
X147428764Y-100198868D01*
X147447703Y-100210219D01*
X147465438Y-100223373D01*
X147481799Y-100238201D01*
X147496627Y-100254562D01*
X147509781Y-100272297D01*
X147521132Y-100291236D01*
X147530573Y-100311196D01*
X147538012Y-100331986D01*
X147543377Y-100353405D01*
X147546617Y-100375246D01*
X147547700Y-100397300D01*
X147547700Y-100847300D01*
X147546617Y-100869354D01*
X147543377Y-100891195D01*
X147538012Y-100912614D01*
X147530573Y-100933404D01*
X147521132Y-100953364D01*
X147509781Y-100972303D01*
X147496627Y-100990038D01*
X147481799Y-101006399D01*
X147465438Y-101021227D01*
X147447703Y-101034381D01*
X147428764Y-101045732D01*
X147408804Y-101055173D01*
X147388014Y-101062612D01*
X147366595Y-101067977D01*
X147344754Y-101071217D01*
X147322700Y-101072300D01*
X146822700Y-101072300D01*
X146800646Y-101071217D01*
X146778805Y-101067977D01*
X146757386Y-101062612D01*
X146736596Y-101055173D01*
X146716636Y-101045732D01*
X146697697Y-101034381D01*
X146679962Y-101021227D01*
X146663601Y-101006399D01*
X146648773Y-100990038D01*
X146635619Y-100972303D01*
X146624268Y-100953364D01*
X146614827Y-100933404D01*
X146607388Y-100912614D01*
X146602023Y-100891195D01*
X146598783Y-100869354D01*
X146597700Y-100847300D01*
X146597700Y-100397300D01*
X146598783Y-100375246D01*
X146602023Y-100353405D01*
X146607388Y-100331986D01*
X146614827Y-100311196D01*
X146624268Y-100291236D01*
X146635619Y-100272297D01*
X146648773Y-100254562D01*
X146663601Y-100238201D01*
X146679962Y-100223373D01*
X146697697Y-100210219D01*
X146716636Y-100198868D01*
X146736596Y-100189427D01*
X146757386Y-100181988D01*
X146778805Y-100176623D01*
X146800646Y-100173383D01*
X146822700Y-100172300D01*
X147322700Y-100172300D01*
X147344754Y-100173383D01*
G37*
G36*
X160149804Y-120145304D02*
G01*
X160174073Y-120148904D01*
X160197871Y-120154865D01*
X160220971Y-120163130D01*
X160243149Y-120173620D01*
X160264193Y-120186233D01*
X160283898Y-120200847D01*
X160302077Y-120217323D01*
X160318553Y-120235502D01*
X160333167Y-120255207D01*
X160345780Y-120276251D01*
X160356270Y-120298429D01*
X160364535Y-120321529D01*
X160370496Y-120345327D01*
X160374096Y-120369596D01*
X160375300Y-120394100D01*
X160375300Y-121644100D01*
X160374096Y-121668604D01*
X160370496Y-121692873D01*
X160364535Y-121716671D01*
X160356270Y-121739771D01*
X160345780Y-121761949D01*
X160333167Y-121782993D01*
X160318553Y-121802698D01*
X160302077Y-121820877D01*
X160283898Y-121837353D01*
X160264193Y-121851967D01*
X160243149Y-121864580D01*
X160220971Y-121875070D01*
X160197871Y-121883335D01*
X160174073Y-121889296D01*
X160149804Y-121892896D01*
X160125300Y-121894100D01*
X159375300Y-121894100D01*
X159350796Y-121892896D01*
X159326527Y-121889296D01*
X159302729Y-121883335D01*
X159279629Y-121875070D01*
X159257451Y-121864580D01*
X159236407Y-121851967D01*
X159216702Y-121837353D01*
X159198523Y-121820877D01*
X159182047Y-121802698D01*
X159167433Y-121782993D01*
X159154820Y-121761949D01*
X159144330Y-121739771D01*
X159136065Y-121716671D01*
X159130104Y-121692873D01*
X159126504Y-121668604D01*
X159125300Y-121644100D01*
X159125300Y-120394100D01*
X159126504Y-120369596D01*
X159130104Y-120345327D01*
X159136065Y-120321529D01*
X159144330Y-120298429D01*
X159154820Y-120276251D01*
X159167433Y-120255207D01*
X159182047Y-120235502D01*
X159198523Y-120217323D01*
X159216702Y-120200847D01*
X159236407Y-120186233D01*
X159257451Y-120173620D01*
X159279629Y-120163130D01*
X159302729Y-120154865D01*
X159326527Y-120148904D01*
X159350796Y-120145304D01*
X159375300Y-120144100D01*
X160125300Y-120144100D01*
X160149804Y-120145304D01*
G37*
G36*
X157349804Y-120145304D02*
G01*
X157374073Y-120148904D01*
X157397871Y-120154865D01*
X157420971Y-120163130D01*
X157443149Y-120173620D01*
X157464193Y-120186233D01*
X157483898Y-120200847D01*
X157502077Y-120217323D01*
X157518553Y-120235502D01*
X157533167Y-120255207D01*
X157545780Y-120276251D01*
X157556270Y-120298429D01*
X157564535Y-120321529D01*
X157570496Y-120345327D01*
X157574096Y-120369596D01*
X157575300Y-120394100D01*
X157575300Y-121644100D01*
X157574096Y-121668604D01*
X157570496Y-121692873D01*
X157564535Y-121716671D01*
X157556270Y-121739771D01*
X157545780Y-121761949D01*
X157533167Y-121782993D01*
X157518553Y-121802698D01*
X157502077Y-121820877D01*
X157483898Y-121837353D01*
X157464193Y-121851967D01*
X157443149Y-121864580D01*
X157420971Y-121875070D01*
X157397871Y-121883335D01*
X157374073Y-121889296D01*
X157349804Y-121892896D01*
X157325300Y-121894100D01*
X156575300Y-121894100D01*
X156550796Y-121892896D01*
X156526527Y-121889296D01*
X156502729Y-121883335D01*
X156479629Y-121875070D01*
X156457451Y-121864580D01*
X156436407Y-121851967D01*
X156416702Y-121837353D01*
X156398523Y-121820877D01*
X156382047Y-121802698D01*
X156367433Y-121782993D01*
X156354820Y-121761949D01*
X156344330Y-121739771D01*
X156336065Y-121716671D01*
X156330104Y-121692873D01*
X156326504Y-121668604D01*
X156325300Y-121644100D01*
X156325300Y-120394100D01*
X156326504Y-120369596D01*
X156330104Y-120345327D01*
X156336065Y-120321529D01*
X156344330Y-120298429D01*
X156354820Y-120276251D01*
X156367433Y-120255207D01*
X156382047Y-120235502D01*
X156398523Y-120217323D01*
X156416702Y-120200847D01*
X156436407Y-120186233D01*
X156457451Y-120173620D01*
X156479629Y-120163130D01*
X156502729Y-120154865D01*
X156526527Y-120148904D01*
X156550796Y-120145304D01*
X156575300Y-120144100D01*
X157325300Y-120144100D01*
X157349804Y-120145304D01*
G37*
G36*
X154222403Y-112156622D02*
G01*
X154236964Y-112158782D01*
X154251243Y-112162359D01*
X154265103Y-112167318D01*
X154278410Y-112173612D01*
X154291036Y-112181180D01*
X154302859Y-112189948D01*
X154313766Y-112199834D01*
X154323652Y-112210741D01*
X154332420Y-112222564D01*
X154339988Y-112235190D01*
X154346282Y-112248497D01*
X154351241Y-112262357D01*
X154354818Y-112276636D01*
X154356978Y-112291197D01*
X154357700Y-112305900D01*
X154357700Y-113955900D01*
X154356978Y-113970603D01*
X154354818Y-113985164D01*
X154351241Y-113999443D01*
X154346282Y-114013303D01*
X154339988Y-114026610D01*
X154332420Y-114039236D01*
X154323652Y-114051059D01*
X154313766Y-114061966D01*
X154302859Y-114071852D01*
X154291036Y-114080620D01*
X154278410Y-114088188D01*
X154265103Y-114094482D01*
X154251243Y-114099441D01*
X154236964Y-114103018D01*
X154222403Y-114105178D01*
X154207700Y-114105900D01*
X153907700Y-114105900D01*
X153892997Y-114105178D01*
X153878436Y-114103018D01*
X153864157Y-114099441D01*
X153850297Y-114094482D01*
X153836990Y-114088188D01*
X153824364Y-114080620D01*
X153812541Y-114071852D01*
X153801634Y-114061966D01*
X153791748Y-114051059D01*
X153782980Y-114039236D01*
X153775412Y-114026610D01*
X153769118Y-114013303D01*
X153764159Y-113999443D01*
X153760582Y-113985164D01*
X153758422Y-113970603D01*
X153757700Y-113955900D01*
X153757700Y-112305900D01*
X153758422Y-112291197D01*
X153760582Y-112276636D01*
X153764159Y-112262357D01*
X153769118Y-112248497D01*
X153775412Y-112235190D01*
X153782980Y-112222564D01*
X153791748Y-112210741D01*
X153801634Y-112199834D01*
X153812541Y-112189948D01*
X153824364Y-112181180D01*
X153836990Y-112173612D01*
X153850297Y-112167318D01*
X153864157Y-112162359D01*
X153878436Y-112158782D01*
X153892997Y-112156622D01*
X153907700Y-112155900D01*
X154207700Y-112155900D01*
X154222403Y-112156622D01*
G37*
G36*
X152952403Y-112156622D02*
G01*
X152966964Y-112158782D01*
X152981243Y-112162359D01*
X152995103Y-112167318D01*
X153008410Y-112173612D01*
X153021036Y-112181180D01*
X153032859Y-112189948D01*
X153043766Y-112199834D01*
X153053652Y-112210741D01*
X153062420Y-112222564D01*
X153069988Y-112235190D01*
X153076282Y-112248497D01*
X153081241Y-112262357D01*
X153084818Y-112276636D01*
X153086978Y-112291197D01*
X153087700Y-112305900D01*
X153087700Y-113955900D01*
X153086978Y-113970603D01*
X153084818Y-113985164D01*
X153081241Y-113999443D01*
X153076282Y-114013303D01*
X153069988Y-114026610D01*
X153062420Y-114039236D01*
X153053652Y-114051059D01*
X153043766Y-114061966D01*
X153032859Y-114071852D01*
X153021036Y-114080620D01*
X153008410Y-114088188D01*
X152995103Y-114094482D01*
X152981243Y-114099441D01*
X152966964Y-114103018D01*
X152952403Y-114105178D01*
X152937700Y-114105900D01*
X152637700Y-114105900D01*
X152622997Y-114105178D01*
X152608436Y-114103018D01*
X152594157Y-114099441D01*
X152580297Y-114094482D01*
X152566990Y-114088188D01*
X152554364Y-114080620D01*
X152542541Y-114071852D01*
X152531634Y-114061966D01*
X152521748Y-114051059D01*
X152512980Y-114039236D01*
X152505412Y-114026610D01*
X152499118Y-114013303D01*
X152494159Y-113999443D01*
X152490582Y-113985164D01*
X152488422Y-113970603D01*
X152487700Y-113955900D01*
X152487700Y-112305900D01*
X152488422Y-112291197D01*
X152490582Y-112276636D01*
X152494159Y-112262357D01*
X152499118Y-112248497D01*
X152505412Y-112235190D01*
X152512980Y-112222564D01*
X152521748Y-112210741D01*
X152531634Y-112199834D01*
X152542541Y-112189948D01*
X152554364Y-112181180D01*
X152566990Y-112173612D01*
X152580297Y-112167318D01*
X152594157Y-112162359D01*
X152608436Y-112158782D01*
X152622997Y-112156622D01*
X152637700Y-112155900D01*
X152937700Y-112155900D01*
X152952403Y-112156622D01*
G37*
G36*
X151682403Y-112156622D02*
G01*
X151696964Y-112158782D01*
X151711243Y-112162359D01*
X151725103Y-112167318D01*
X151738410Y-112173612D01*
X151751036Y-112181180D01*
X151762859Y-112189948D01*
X151773766Y-112199834D01*
X151783652Y-112210741D01*
X151792420Y-112222564D01*
X151799988Y-112235190D01*
X151806282Y-112248497D01*
X151811241Y-112262357D01*
X151814818Y-112276636D01*
X151816978Y-112291197D01*
X151817700Y-112305900D01*
X151817700Y-113955900D01*
X151816978Y-113970603D01*
X151814818Y-113985164D01*
X151811241Y-113999443D01*
X151806282Y-114013303D01*
X151799988Y-114026610D01*
X151792420Y-114039236D01*
X151783652Y-114051059D01*
X151773766Y-114061966D01*
X151762859Y-114071852D01*
X151751036Y-114080620D01*
X151738410Y-114088188D01*
X151725103Y-114094482D01*
X151711243Y-114099441D01*
X151696964Y-114103018D01*
X151682403Y-114105178D01*
X151667700Y-114105900D01*
X151367700Y-114105900D01*
X151352997Y-114105178D01*
X151338436Y-114103018D01*
X151324157Y-114099441D01*
X151310297Y-114094482D01*
X151296990Y-114088188D01*
X151284364Y-114080620D01*
X151272541Y-114071852D01*
X151261634Y-114061966D01*
X151251748Y-114051059D01*
X151242980Y-114039236D01*
X151235412Y-114026610D01*
X151229118Y-114013303D01*
X151224159Y-113999443D01*
X151220582Y-113985164D01*
X151218422Y-113970603D01*
X151217700Y-113955900D01*
X151217700Y-112305900D01*
X151218422Y-112291197D01*
X151220582Y-112276636D01*
X151224159Y-112262357D01*
X151229118Y-112248497D01*
X151235412Y-112235190D01*
X151242980Y-112222564D01*
X151251748Y-112210741D01*
X151261634Y-112199834D01*
X151272541Y-112189948D01*
X151284364Y-112181180D01*
X151296990Y-112173612D01*
X151310297Y-112167318D01*
X151324157Y-112162359D01*
X151338436Y-112158782D01*
X151352997Y-112156622D01*
X151367700Y-112155900D01*
X151667700Y-112155900D01*
X151682403Y-112156622D01*
G37*
G36*
X150412403Y-112156622D02*
G01*
X150426964Y-112158782D01*
X150441243Y-112162359D01*
X150455103Y-112167318D01*
X150468410Y-112173612D01*
X150481036Y-112181180D01*
X150492859Y-112189948D01*
X150503766Y-112199834D01*
X150513652Y-112210741D01*
X150522420Y-112222564D01*
X150529988Y-112235190D01*
X150536282Y-112248497D01*
X150541241Y-112262357D01*
X150544818Y-112276636D01*
X150546978Y-112291197D01*
X150547700Y-112305900D01*
X150547700Y-113955900D01*
X150546978Y-113970603D01*
X150544818Y-113985164D01*
X150541241Y-113999443D01*
X150536282Y-114013303D01*
X150529988Y-114026610D01*
X150522420Y-114039236D01*
X150513652Y-114051059D01*
X150503766Y-114061966D01*
X150492859Y-114071852D01*
X150481036Y-114080620D01*
X150468410Y-114088188D01*
X150455103Y-114094482D01*
X150441243Y-114099441D01*
X150426964Y-114103018D01*
X150412403Y-114105178D01*
X150397700Y-114105900D01*
X150097700Y-114105900D01*
X150082997Y-114105178D01*
X150068436Y-114103018D01*
X150054157Y-114099441D01*
X150040297Y-114094482D01*
X150026990Y-114088188D01*
X150014364Y-114080620D01*
X150002541Y-114071852D01*
X149991634Y-114061966D01*
X149981748Y-114051059D01*
X149972980Y-114039236D01*
X149965412Y-114026610D01*
X149959118Y-114013303D01*
X149954159Y-113999443D01*
X149950582Y-113985164D01*
X149948422Y-113970603D01*
X149947700Y-113955900D01*
X149947700Y-112305900D01*
X149948422Y-112291197D01*
X149950582Y-112276636D01*
X149954159Y-112262357D01*
X149959118Y-112248497D01*
X149965412Y-112235190D01*
X149972980Y-112222564D01*
X149981748Y-112210741D01*
X149991634Y-112199834D01*
X150002541Y-112189948D01*
X150014364Y-112181180D01*
X150026990Y-112173612D01*
X150040297Y-112167318D01*
X150054157Y-112162359D01*
X150068436Y-112158782D01*
X150082997Y-112156622D01*
X150097700Y-112155900D01*
X150397700Y-112155900D01*
X150412403Y-112156622D01*
G37*
G36*
X149142403Y-112156622D02*
G01*
X149156964Y-112158782D01*
X149171243Y-112162359D01*
X149185103Y-112167318D01*
X149198410Y-112173612D01*
X149211036Y-112181180D01*
X149222859Y-112189948D01*
X149233766Y-112199834D01*
X149243652Y-112210741D01*
X149252420Y-112222564D01*
X149259988Y-112235190D01*
X149266282Y-112248497D01*
X149271241Y-112262357D01*
X149274818Y-112276636D01*
X149276978Y-112291197D01*
X149277700Y-112305900D01*
X149277700Y-113955900D01*
X149276978Y-113970603D01*
X149274818Y-113985164D01*
X149271241Y-113999443D01*
X149266282Y-114013303D01*
X149259988Y-114026610D01*
X149252420Y-114039236D01*
X149243652Y-114051059D01*
X149233766Y-114061966D01*
X149222859Y-114071852D01*
X149211036Y-114080620D01*
X149198410Y-114088188D01*
X149185103Y-114094482D01*
X149171243Y-114099441D01*
X149156964Y-114103018D01*
X149142403Y-114105178D01*
X149127700Y-114105900D01*
X148827700Y-114105900D01*
X148812997Y-114105178D01*
X148798436Y-114103018D01*
X148784157Y-114099441D01*
X148770297Y-114094482D01*
X148756990Y-114088188D01*
X148744364Y-114080620D01*
X148732541Y-114071852D01*
X148721634Y-114061966D01*
X148711748Y-114051059D01*
X148702980Y-114039236D01*
X148695412Y-114026610D01*
X148689118Y-114013303D01*
X148684159Y-113999443D01*
X148680582Y-113985164D01*
X148678422Y-113970603D01*
X148677700Y-113955900D01*
X148677700Y-112305900D01*
X148678422Y-112291197D01*
X148680582Y-112276636D01*
X148684159Y-112262357D01*
X148689118Y-112248497D01*
X148695412Y-112235190D01*
X148702980Y-112222564D01*
X148711748Y-112210741D01*
X148721634Y-112199834D01*
X148732541Y-112189948D01*
X148744364Y-112181180D01*
X148756990Y-112173612D01*
X148770297Y-112167318D01*
X148784157Y-112162359D01*
X148798436Y-112158782D01*
X148812997Y-112156622D01*
X148827700Y-112155900D01*
X149127700Y-112155900D01*
X149142403Y-112156622D01*
G37*
G36*
X147872403Y-112156622D02*
G01*
X147886964Y-112158782D01*
X147901243Y-112162359D01*
X147915103Y-112167318D01*
X147928410Y-112173612D01*
X147941036Y-112181180D01*
X147952859Y-112189948D01*
X147963766Y-112199834D01*
X147973652Y-112210741D01*
X147982420Y-112222564D01*
X147989988Y-112235190D01*
X147996282Y-112248497D01*
X148001241Y-112262357D01*
X148004818Y-112276636D01*
X148006978Y-112291197D01*
X148007700Y-112305900D01*
X148007700Y-113955900D01*
X148006978Y-113970603D01*
X148004818Y-113985164D01*
X148001241Y-113999443D01*
X147996282Y-114013303D01*
X147989988Y-114026610D01*
X147982420Y-114039236D01*
X147973652Y-114051059D01*
X147963766Y-114061966D01*
X147952859Y-114071852D01*
X147941036Y-114080620D01*
X147928410Y-114088188D01*
X147915103Y-114094482D01*
X147901243Y-114099441D01*
X147886964Y-114103018D01*
X147872403Y-114105178D01*
X147857700Y-114105900D01*
X147557700Y-114105900D01*
X147542997Y-114105178D01*
X147528436Y-114103018D01*
X147514157Y-114099441D01*
X147500297Y-114094482D01*
X147486990Y-114088188D01*
X147474364Y-114080620D01*
X147462541Y-114071852D01*
X147451634Y-114061966D01*
X147441748Y-114051059D01*
X147432980Y-114039236D01*
X147425412Y-114026610D01*
X147419118Y-114013303D01*
X147414159Y-113999443D01*
X147410582Y-113985164D01*
X147408422Y-113970603D01*
X147407700Y-113955900D01*
X147407700Y-112305900D01*
X147408422Y-112291197D01*
X147410582Y-112276636D01*
X147414159Y-112262357D01*
X147419118Y-112248497D01*
X147425412Y-112235190D01*
X147432980Y-112222564D01*
X147441748Y-112210741D01*
X147451634Y-112199834D01*
X147462541Y-112189948D01*
X147474364Y-112181180D01*
X147486990Y-112173612D01*
X147500297Y-112167318D01*
X147514157Y-112162359D01*
X147528436Y-112158782D01*
X147542997Y-112156622D01*
X147557700Y-112155900D01*
X147857700Y-112155900D01*
X147872403Y-112156622D01*
G37*
G36*
X146602403Y-112156622D02*
G01*
X146616964Y-112158782D01*
X146631243Y-112162359D01*
X146645103Y-112167318D01*
X146658410Y-112173612D01*
X146671036Y-112181180D01*
X146682859Y-112189948D01*
X146693766Y-112199834D01*
X146703652Y-112210741D01*
X146712420Y-112222564D01*
X146719988Y-112235190D01*
X146726282Y-112248497D01*
X146731241Y-112262357D01*
X146734818Y-112276636D01*
X146736978Y-112291197D01*
X146737700Y-112305900D01*
X146737700Y-113955900D01*
X146736978Y-113970603D01*
X146734818Y-113985164D01*
X146731241Y-113999443D01*
X146726282Y-114013303D01*
X146719988Y-114026610D01*
X146712420Y-114039236D01*
X146703652Y-114051059D01*
X146693766Y-114061966D01*
X146682859Y-114071852D01*
X146671036Y-114080620D01*
X146658410Y-114088188D01*
X146645103Y-114094482D01*
X146631243Y-114099441D01*
X146616964Y-114103018D01*
X146602403Y-114105178D01*
X146587700Y-114105900D01*
X146287700Y-114105900D01*
X146272997Y-114105178D01*
X146258436Y-114103018D01*
X146244157Y-114099441D01*
X146230297Y-114094482D01*
X146216990Y-114088188D01*
X146204364Y-114080620D01*
X146192541Y-114071852D01*
X146181634Y-114061966D01*
X146171748Y-114051059D01*
X146162980Y-114039236D01*
X146155412Y-114026610D01*
X146149118Y-114013303D01*
X146144159Y-113999443D01*
X146140582Y-113985164D01*
X146138422Y-113970603D01*
X146137700Y-113955900D01*
X146137700Y-112305900D01*
X146138422Y-112291197D01*
X146140582Y-112276636D01*
X146144159Y-112262357D01*
X146149118Y-112248497D01*
X146155412Y-112235190D01*
X146162980Y-112222564D01*
X146171748Y-112210741D01*
X146181634Y-112199834D01*
X146192541Y-112189948D01*
X146204364Y-112181180D01*
X146216990Y-112173612D01*
X146230297Y-112167318D01*
X146244157Y-112162359D01*
X146258436Y-112158782D01*
X146272997Y-112156622D01*
X146287700Y-112155900D01*
X146587700Y-112155900D01*
X146602403Y-112156622D01*
G37*
G36*
X145332403Y-112156622D02*
G01*
X145346964Y-112158782D01*
X145361243Y-112162359D01*
X145375103Y-112167318D01*
X145388410Y-112173612D01*
X145401036Y-112181180D01*
X145412859Y-112189948D01*
X145423766Y-112199834D01*
X145433652Y-112210741D01*
X145442420Y-112222564D01*
X145449988Y-112235190D01*
X145456282Y-112248497D01*
X145461241Y-112262357D01*
X145464818Y-112276636D01*
X145466978Y-112291197D01*
X145467700Y-112305900D01*
X145467700Y-113955900D01*
X145466978Y-113970603D01*
X145464818Y-113985164D01*
X145461241Y-113999443D01*
X145456282Y-114013303D01*
X145449988Y-114026610D01*
X145442420Y-114039236D01*
X145433652Y-114051059D01*
X145423766Y-114061966D01*
X145412859Y-114071852D01*
X145401036Y-114080620D01*
X145388410Y-114088188D01*
X145375103Y-114094482D01*
X145361243Y-114099441D01*
X145346964Y-114103018D01*
X145332403Y-114105178D01*
X145317700Y-114105900D01*
X145017700Y-114105900D01*
X145002997Y-114105178D01*
X144988436Y-114103018D01*
X144974157Y-114099441D01*
X144960297Y-114094482D01*
X144946990Y-114088188D01*
X144934364Y-114080620D01*
X144922541Y-114071852D01*
X144911634Y-114061966D01*
X144901748Y-114051059D01*
X144892980Y-114039236D01*
X144885412Y-114026610D01*
X144879118Y-114013303D01*
X144874159Y-113999443D01*
X144870582Y-113985164D01*
X144868422Y-113970603D01*
X144867700Y-113955900D01*
X144867700Y-112305900D01*
X144868422Y-112291197D01*
X144870582Y-112276636D01*
X144874159Y-112262357D01*
X144879118Y-112248497D01*
X144885412Y-112235190D01*
X144892980Y-112222564D01*
X144901748Y-112210741D01*
X144911634Y-112199834D01*
X144922541Y-112189948D01*
X144934364Y-112181180D01*
X144946990Y-112173612D01*
X144960297Y-112167318D01*
X144974157Y-112162359D01*
X144988436Y-112158782D01*
X145002997Y-112156622D01*
X145017700Y-112155900D01*
X145317700Y-112155900D01*
X145332403Y-112156622D01*
G37*
G36*
X145332403Y-107206622D02*
G01*
X145346964Y-107208782D01*
X145361243Y-107212359D01*
X145375103Y-107217318D01*
X145388410Y-107223612D01*
X145401036Y-107231180D01*
X145412859Y-107239948D01*
X145423766Y-107249834D01*
X145433652Y-107260741D01*
X145442420Y-107272564D01*
X145449988Y-107285190D01*
X145456282Y-107298497D01*
X145461241Y-107312357D01*
X145464818Y-107326636D01*
X145466978Y-107341197D01*
X145467700Y-107355900D01*
X145467700Y-109005900D01*
X145466978Y-109020603D01*
X145464818Y-109035164D01*
X145461241Y-109049443D01*
X145456282Y-109063303D01*
X145449988Y-109076610D01*
X145442420Y-109089236D01*
X145433652Y-109101059D01*
X145423766Y-109111966D01*
X145412859Y-109121852D01*
X145401036Y-109130620D01*
X145388410Y-109138188D01*
X145375103Y-109144482D01*
X145361243Y-109149441D01*
X145346964Y-109153018D01*
X145332403Y-109155178D01*
X145317700Y-109155900D01*
X145017700Y-109155900D01*
X145002997Y-109155178D01*
X144988436Y-109153018D01*
X144974157Y-109149441D01*
X144960297Y-109144482D01*
X144946990Y-109138188D01*
X144934364Y-109130620D01*
X144922541Y-109121852D01*
X144911634Y-109111966D01*
X144901748Y-109101059D01*
X144892980Y-109089236D01*
X144885412Y-109076610D01*
X144879118Y-109063303D01*
X144874159Y-109049443D01*
X144870582Y-109035164D01*
X144868422Y-109020603D01*
X144867700Y-109005900D01*
X144867700Y-107355900D01*
X144868422Y-107341197D01*
X144870582Y-107326636D01*
X144874159Y-107312357D01*
X144879118Y-107298497D01*
X144885412Y-107285190D01*
X144892980Y-107272564D01*
X144901748Y-107260741D01*
X144911634Y-107249834D01*
X144922541Y-107239948D01*
X144934364Y-107231180D01*
X144946990Y-107223612D01*
X144960297Y-107217318D01*
X144974157Y-107212359D01*
X144988436Y-107208782D01*
X145002997Y-107206622D01*
X145017700Y-107205900D01*
X145317700Y-107205900D01*
X145332403Y-107206622D01*
G37*
G36*
X146602403Y-107206622D02*
G01*
X146616964Y-107208782D01*
X146631243Y-107212359D01*
X146645103Y-107217318D01*
X146658410Y-107223612D01*
X146671036Y-107231180D01*
X146682859Y-107239948D01*
X146693766Y-107249834D01*
X146703652Y-107260741D01*
X146712420Y-107272564D01*
X146719988Y-107285190D01*
X146726282Y-107298497D01*
X146731241Y-107312357D01*
X146734818Y-107326636D01*
X146736978Y-107341197D01*
X146737700Y-107355900D01*
X146737700Y-109005900D01*
X146736978Y-109020603D01*
X146734818Y-109035164D01*
X146731241Y-109049443D01*
X146726282Y-109063303D01*
X146719988Y-109076610D01*
X146712420Y-109089236D01*
X146703652Y-109101059D01*
X146693766Y-109111966D01*
X146682859Y-109121852D01*
X146671036Y-109130620D01*
X146658410Y-109138188D01*
X146645103Y-109144482D01*
X146631243Y-109149441D01*
X146616964Y-109153018D01*
X146602403Y-109155178D01*
X146587700Y-109155900D01*
X146287700Y-109155900D01*
X146272997Y-109155178D01*
X146258436Y-109153018D01*
X146244157Y-109149441D01*
X146230297Y-109144482D01*
X146216990Y-109138188D01*
X146204364Y-109130620D01*
X146192541Y-109121852D01*
X146181634Y-109111966D01*
X146171748Y-109101059D01*
X146162980Y-109089236D01*
X146155412Y-109076610D01*
X146149118Y-109063303D01*
X146144159Y-109049443D01*
X146140582Y-109035164D01*
X146138422Y-109020603D01*
X146137700Y-109005900D01*
X146137700Y-107355900D01*
X146138422Y-107341197D01*
X146140582Y-107326636D01*
X146144159Y-107312357D01*
X146149118Y-107298497D01*
X146155412Y-107285190D01*
X146162980Y-107272564D01*
X146171748Y-107260741D01*
X146181634Y-107249834D01*
X146192541Y-107239948D01*
X146204364Y-107231180D01*
X146216990Y-107223612D01*
X146230297Y-107217318D01*
X146244157Y-107212359D01*
X146258436Y-107208782D01*
X146272997Y-107206622D01*
X146287700Y-107205900D01*
X146587700Y-107205900D01*
X146602403Y-107206622D01*
G37*
G36*
X147872403Y-107206622D02*
G01*
X147886964Y-107208782D01*
X147901243Y-107212359D01*
X147915103Y-107217318D01*
X147928410Y-107223612D01*
X147941036Y-107231180D01*
X147952859Y-107239948D01*
X147963766Y-107249834D01*
X147973652Y-107260741D01*
X147982420Y-107272564D01*
X147989988Y-107285190D01*
X147996282Y-107298497D01*
X148001241Y-107312357D01*
X148004818Y-107326636D01*
X148006978Y-107341197D01*
X148007700Y-107355900D01*
X148007700Y-109005900D01*
X148006978Y-109020603D01*
X148004818Y-109035164D01*
X148001241Y-109049443D01*
X147996282Y-109063303D01*
X147989988Y-109076610D01*
X147982420Y-109089236D01*
X147973652Y-109101059D01*
X147963766Y-109111966D01*
X147952859Y-109121852D01*
X147941036Y-109130620D01*
X147928410Y-109138188D01*
X147915103Y-109144482D01*
X147901243Y-109149441D01*
X147886964Y-109153018D01*
X147872403Y-109155178D01*
X147857700Y-109155900D01*
X147557700Y-109155900D01*
X147542997Y-109155178D01*
X147528436Y-109153018D01*
X147514157Y-109149441D01*
X147500297Y-109144482D01*
X147486990Y-109138188D01*
X147474364Y-109130620D01*
X147462541Y-109121852D01*
X147451634Y-109111966D01*
X147441748Y-109101059D01*
X147432980Y-109089236D01*
X147425412Y-109076610D01*
X147419118Y-109063303D01*
X147414159Y-109049443D01*
X147410582Y-109035164D01*
X147408422Y-109020603D01*
X147407700Y-109005900D01*
X147407700Y-107355900D01*
X147408422Y-107341197D01*
X147410582Y-107326636D01*
X147414159Y-107312357D01*
X147419118Y-107298497D01*
X147425412Y-107285190D01*
X147432980Y-107272564D01*
X147441748Y-107260741D01*
X147451634Y-107249834D01*
X147462541Y-107239948D01*
X147474364Y-107231180D01*
X147486990Y-107223612D01*
X147500297Y-107217318D01*
X147514157Y-107212359D01*
X147528436Y-107208782D01*
X147542997Y-107206622D01*
X147557700Y-107205900D01*
X147857700Y-107205900D01*
X147872403Y-107206622D01*
G37*
G36*
X149142403Y-107206622D02*
G01*
X149156964Y-107208782D01*
X149171243Y-107212359D01*
X149185103Y-107217318D01*
X149198410Y-107223612D01*
X149211036Y-107231180D01*
X149222859Y-107239948D01*
X149233766Y-107249834D01*
X149243652Y-107260741D01*
X149252420Y-107272564D01*
X149259988Y-107285190D01*
X149266282Y-107298497D01*
X149271241Y-107312357D01*
X149274818Y-107326636D01*
X149276978Y-107341197D01*
X149277700Y-107355900D01*
X149277700Y-109005900D01*
X149276978Y-109020603D01*
X149274818Y-109035164D01*
X149271241Y-109049443D01*
X149266282Y-109063303D01*
X149259988Y-109076610D01*
X149252420Y-109089236D01*
X149243652Y-109101059D01*
X149233766Y-109111966D01*
X149222859Y-109121852D01*
X149211036Y-109130620D01*
X149198410Y-109138188D01*
X149185103Y-109144482D01*
X149171243Y-109149441D01*
X149156964Y-109153018D01*
X149142403Y-109155178D01*
X149127700Y-109155900D01*
X148827700Y-109155900D01*
X148812997Y-109155178D01*
X148798436Y-109153018D01*
X148784157Y-109149441D01*
X148770297Y-109144482D01*
X148756990Y-109138188D01*
X148744364Y-109130620D01*
X148732541Y-109121852D01*
X148721634Y-109111966D01*
X148711748Y-109101059D01*
X148702980Y-109089236D01*
X148695412Y-109076610D01*
X148689118Y-109063303D01*
X148684159Y-109049443D01*
X148680582Y-109035164D01*
X148678422Y-109020603D01*
X148677700Y-109005900D01*
X148677700Y-107355900D01*
X148678422Y-107341197D01*
X148680582Y-107326636D01*
X148684159Y-107312357D01*
X148689118Y-107298497D01*
X148695412Y-107285190D01*
X148702980Y-107272564D01*
X148711748Y-107260741D01*
X148721634Y-107249834D01*
X148732541Y-107239948D01*
X148744364Y-107231180D01*
X148756990Y-107223612D01*
X148770297Y-107217318D01*
X148784157Y-107212359D01*
X148798436Y-107208782D01*
X148812997Y-107206622D01*
X148827700Y-107205900D01*
X149127700Y-107205900D01*
X149142403Y-107206622D01*
G37*
G36*
X150412403Y-107206622D02*
G01*
X150426964Y-107208782D01*
X150441243Y-107212359D01*
X150455103Y-107217318D01*
X150468410Y-107223612D01*
X150481036Y-107231180D01*
X150492859Y-107239948D01*
X150503766Y-107249834D01*
X150513652Y-107260741D01*
X150522420Y-107272564D01*
X150529988Y-107285190D01*
X150536282Y-107298497D01*
X150541241Y-107312357D01*
X150544818Y-107326636D01*
X150546978Y-107341197D01*
X150547700Y-107355900D01*
X150547700Y-109005900D01*
X150546978Y-109020603D01*
X150544818Y-109035164D01*
X150541241Y-109049443D01*
X150536282Y-109063303D01*
X150529988Y-109076610D01*
X150522420Y-109089236D01*
X150513652Y-109101059D01*
X150503766Y-109111966D01*
X150492859Y-109121852D01*
X150481036Y-109130620D01*
X150468410Y-109138188D01*
X150455103Y-109144482D01*
X150441243Y-109149441D01*
X150426964Y-109153018D01*
X150412403Y-109155178D01*
X150397700Y-109155900D01*
X150097700Y-109155900D01*
X150082997Y-109155178D01*
X150068436Y-109153018D01*
X150054157Y-109149441D01*
X150040297Y-109144482D01*
X150026990Y-109138188D01*
X150014364Y-109130620D01*
X150002541Y-109121852D01*
X149991634Y-109111966D01*
X149981748Y-109101059D01*
X149972980Y-109089236D01*
X149965412Y-109076610D01*
X149959118Y-109063303D01*
X149954159Y-109049443D01*
X149950582Y-109035164D01*
X149948422Y-109020603D01*
X149947700Y-109005900D01*
X149947700Y-107355900D01*
X149948422Y-107341197D01*
X149950582Y-107326636D01*
X149954159Y-107312357D01*
X149959118Y-107298497D01*
X149965412Y-107285190D01*
X149972980Y-107272564D01*
X149981748Y-107260741D01*
X149991634Y-107249834D01*
X150002541Y-107239948D01*
X150014364Y-107231180D01*
X150026990Y-107223612D01*
X150040297Y-107217318D01*
X150054157Y-107212359D01*
X150068436Y-107208782D01*
X150082997Y-107206622D01*
X150097700Y-107205900D01*
X150397700Y-107205900D01*
X150412403Y-107206622D01*
G37*
G36*
X151682403Y-107206622D02*
G01*
X151696964Y-107208782D01*
X151711243Y-107212359D01*
X151725103Y-107217318D01*
X151738410Y-107223612D01*
X151751036Y-107231180D01*
X151762859Y-107239948D01*
X151773766Y-107249834D01*
X151783652Y-107260741D01*
X151792420Y-107272564D01*
X151799988Y-107285190D01*
X151806282Y-107298497D01*
X151811241Y-107312357D01*
X151814818Y-107326636D01*
X151816978Y-107341197D01*
X151817700Y-107355900D01*
X151817700Y-109005900D01*
X151816978Y-109020603D01*
X151814818Y-109035164D01*
X151811241Y-109049443D01*
X151806282Y-109063303D01*
X151799988Y-109076610D01*
X151792420Y-109089236D01*
X151783652Y-109101059D01*
X151773766Y-109111966D01*
X151762859Y-109121852D01*
X151751036Y-109130620D01*
X151738410Y-109138188D01*
X151725103Y-109144482D01*
X151711243Y-109149441D01*
X151696964Y-109153018D01*
X151682403Y-109155178D01*
X151667700Y-109155900D01*
X151367700Y-109155900D01*
X151352997Y-109155178D01*
X151338436Y-109153018D01*
X151324157Y-109149441D01*
X151310297Y-109144482D01*
X151296990Y-109138188D01*
X151284364Y-109130620D01*
X151272541Y-109121852D01*
X151261634Y-109111966D01*
X151251748Y-109101059D01*
X151242980Y-109089236D01*
X151235412Y-109076610D01*
X151229118Y-109063303D01*
X151224159Y-109049443D01*
X151220582Y-109035164D01*
X151218422Y-109020603D01*
X151217700Y-109005900D01*
X151217700Y-107355900D01*
X151218422Y-107341197D01*
X151220582Y-107326636D01*
X151224159Y-107312357D01*
X151229118Y-107298497D01*
X151235412Y-107285190D01*
X151242980Y-107272564D01*
X151251748Y-107260741D01*
X151261634Y-107249834D01*
X151272541Y-107239948D01*
X151284364Y-107231180D01*
X151296990Y-107223612D01*
X151310297Y-107217318D01*
X151324157Y-107212359D01*
X151338436Y-107208782D01*
X151352997Y-107206622D01*
X151367700Y-107205900D01*
X151667700Y-107205900D01*
X151682403Y-107206622D01*
G37*
G36*
X152952403Y-107206622D02*
G01*
X152966964Y-107208782D01*
X152981243Y-107212359D01*
X152995103Y-107217318D01*
X153008410Y-107223612D01*
X153021036Y-107231180D01*
X153032859Y-107239948D01*
X153043766Y-107249834D01*
X153053652Y-107260741D01*
X153062420Y-107272564D01*
X153069988Y-107285190D01*
X153076282Y-107298497D01*
X153081241Y-107312357D01*
X153084818Y-107326636D01*
X153086978Y-107341197D01*
X153087700Y-107355900D01*
X153087700Y-109005900D01*
X153086978Y-109020603D01*
X153084818Y-109035164D01*
X153081241Y-109049443D01*
X153076282Y-109063303D01*
X153069988Y-109076610D01*
X153062420Y-109089236D01*
X153053652Y-109101059D01*
X153043766Y-109111966D01*
X153032859Y-109121852D01*
X153021036Y-109130620D01*
X153008410Y-109138188D01*
X152995103Y-109144482D01*
X152981243Y-109149441D01*
X152966964Y-109153018D01*
X152952403Y-109155178D01*
X152937700Y-109155900D01*
X152637700Y-109155900D01*
X152622997Y-109155178D01*
X152608436Y-109153018D01*
X152594157Y-109149441D01*
X152580297Y-109144482D01*
X152566990Y-109138188D01*
X152554364Y-109130620D01*
X152542541Y-109121852D01*
X152531634Y-109111966D01*
X152521748Y-109101059D01*
X152512980Y-109089236D01*
X152505412Y-109076610D01*
X152499118Y-109063303D01*
X152494159Y-109049443D01*
X152490582Y-109035164D01*
X152488422Y-109020603D01*
X152487700Y-109005900D01*
X152487700Y-107355900D01*
X152488422Y-107341197D01*
X152490582Y-107326636D01*
X152494159Y-107312357D01*
X152499118Y-107298497D01*
X152505412Y-107285190D01*
X152512980Y-107272564D01*
X152521748Y-107260741D01*
X152531634Y-107249834D01*
X152542541Y-107239948D01*
X152554364Y-107231180D01*
X152566990Y-107223612D01*
X152580297Y-107217318D01*
X152594157Y-107212359D01*
X152608436Y-107208782D01*
X152622997Y-107206622D01*
X152637700Y-107205900D01*
X152937700Y-107205900D01*
X152952403Y-107206622D01*
G37*
G36*
X154222403Y-107206622D02*
G01*
X154236964Y-107208782D01*
X154251243Y-107212359D01*
X154265103Y-107217318D01*
X154278410Y-107223612D01*
X154291036Y-107231180D01*
X154302859Y-107239948D01*
X154313766Y-107249834D01*
X154323652Y-107260741D01*
X154332420Y-107272564D01*
X154339988Y-107285190D01*
X154346282Y-107298497D01*
X154351241Y-107312357D01*
X154354818Y-107326636D01*
X154356978Y-107341197D01*
X154357700Y-107355900D01*
X154357700Y-109005900D01*
X154356978Y-109020603D01*
X154354818Y-109035164D01*
X154351241Y-109049443D01*
X154346282Y-109063303D01*
X154339988Y-109076610D01*
X154332420Y-109089236D01*
X154323652Y-109101059D01*
X154313766Y-109111966D01*
X154302859Y-109121852D01*
X154291036Y-109130620D01*
X154278410Y-109138188D01*
X154265103Y-109144482D01*
X154251243Y-109149441D01*
X154236964Y-109153018D01*
X154222403Y-109155178D01*
X154207700Y-109155900D01*
X153907700Y-109155900D01*
X153892997Y-109155178D01*
X153878436Y-109153018D01*
X153864157Y-109149441D01*
X153850297Y-109144482D01*
X153836990Y-109138188D01*
X153824364Y-109130620D01*
X153812541Y-109121852D01*
X153801634Y-109111966D01*
X153791748Y-109101059D01*
X153782980Y-109089236D01*
X153775412Y-109076610D01*
X153769118Y-109063303D01*
X153764159Y-109049443D01*
X153760582Y-109035164D01*
X153758422Y-109020603D01*
X153757700Y-109005900D01*
X153757700Y-107355900D01*
X153758422Y-107341197D01*
X153760582Y-107326636D01*
X153764159Y-107312357D01*
X153769118Y-107298497D01*
X153775412Y-107285190D01*
X153782980Y-107272564D01*
X153791748Y-107260741D01*
X153801634Y-107249834D01*
X153812541Y-107239948D01*
X153824364Y-107231180D01*
X153836990Y-107223612D01*
X153850297Y-107217318D01*
X153864157Y-107212359D01*
X153878436Y-107208782D01*
X153892997Y-107206622D01*
X153907700Y-107205900D01*
X154207700Y-107205900D01*
X154222403Y-107206622D01*
G37*
G36*
X156831654Y-108657283D02*
G01*
X156853495Y-108660523D01*
X156874914Y-108665888D01*
X156895704Y-108673327D01*
X156915664Y-108682768D01*
X156934603Y-108694119D01*
X156952338Y-108707273D01*
X156968699Y-108722101D01*
X156983527Y-108738462D01*
X156996681Y-108756197D01*
X157008032Y-108775136D01*
X157017473Y-108795096D01*
X157024912Y-108815886D01*
X157030277Y-108837305D01*
X157033517Y-108859146D01*
X157034600Y-108881200D01*
X157034600Y-109331200D01*
X157033517Y-109353254D01*
X157030277Y-109375095D01*
X157024912Y-109396514D01*
X157017473Y-109417304D01*
X157008032Y-109437264D01*
X156996681Y-109456203D01*
X156983527Y-109473938D01*
X156968699Y-109490299D01*
X156952338Y-109505127D01*
X156934603Y-109518281D01*
X156915664Y-109529632D01*
X156895704Y-109539073D01*
X156874914Y-109546512D01*
X156853495Y-109551877D01*
X156831654Y-109555117D01*
X156809600Y-109556200D01*
X156309600Y-109556200D01*
X156287546Y-109555117D01*
X156265705Y-109551877D01*
X156244286Y-109546512D01*
X156223496Y-109539073D01*
X156203536Y-109529632D01*
X156184597Y-109518281D01*
X156166862Y-109505127D01*
X156150501Y-109490299D01*
X156135673Y-109473938D01*
X156122519Y-109456203D01*
X156111168Y-109437264D01*
X156101727Y-109417304D01*
X156094288Y-109396514D01*
X156088923Y-109375095D01*
X156085683Y-109353254D01*
X156084600Y-109331200D01*
X156084600Y-108881200D01*
X156085683Y-108859146D01*
X156088923Y-108837305D01*
X156094288Y-108815886D01*
X156101727Y-108795096D01*
X156111168Y-108775136D01*
X156122519Y-108756197D01*
X156135673Y-108738462D01*
X156150501Y-108722101D01*
X156166862Y-108707273D01*
X156184597Y-108694119D01*
X156203536Y-108682768D01*
X156223496Y-108673327D01*
X156244286Y-108665888D01*
X156265705Y-108660523D01*
X156287546Y-108657283D01*
X156309600Y-108656200D01*
X156809600Y-108656200D01*
X156831654Y-108657283D01*
G37*
G36*
X156831654Y-110207283D02*
G01*
X156853495Y-110210523D01*
X156874914Y-110215888D01*
X156895704Y-110223327D01*
X156915664Y-110232768D01*
X156934603Y-110244119D01*
X156952338Y-110257273D01*
X156968699Y-110272101D01*
X156983527Y-110288462D01*
X156996681Y-110306197D01*
X157008032Y-110325136D01*
X157017473Y-110345096D01*
X157024912Y-110365886D01*
X157030277Y-110387305D01*
X157033517Y-110409146D01*
X157034600Y-110431200D01*
X157034600Y-110881200D01*
X157033517Y-110903254D01*
X157030277Y-110925095D01*
X157024912Y-110946514D01*
X157017473Y-110967304D01*
X157008032Y-110987264D01*
X156996681Y-111006203D01*
X156983527Y-111023938D01*
X156968699Y-111040299D01*
X156952338Y-111055127D01*
X156934603Y-111068281D01*
X156915664Y-111079632D01*
X156895704Y-111089073D01*
X156874914Y-111096512D01*
X156853495Y-111101877D01*
X156831654Y-111105117D01*
X156809600Y-111106200D01*
X156309600Y-111106200D01*
X156287546Y-111105117D01*
X156265705Y-111101877D01*
X156244286Y-111096512D01*
X156223496Y-111089073D01*
X156203536Y-111079632D01*
X156184597Y-111068281D01*
X156166862Y-111055127D01*
X156150501Y-111040299D01*
X156135673Y-111023938D01*
X156122519Y-111006203D01*
X156111168Y-110987264D01*
X156101727Y-110967304D01*
X156094288Y-110946514D01*
X156088923Y-110925095D01*
X156085683Y-110903254D01*
X156084600Y-110881200D01*
X156084600Y-110431200D01*
X156085683Y-110409146D01*
X156088923Y-110387305D01*
X156094288Y-110365886D01*
X156101727Y-110345096D01*
X156111168Y-110325136D01*
X156122519Y-110306197D01*
X156135673Y-110288462D01*
X156150501Y-110272101D01*
X156166862Y-110257273D01*
X156184597Y-110244119D01*
X156203536Y-110232768D01*
X156223496Y-110223327D01*
X156244286Y-110215888D01*
X156265705Y-110210523D01*
X156287546Y-110207283D01*
X156309600Y-110206200D01*
X156809600Y-110206200D01*
X156831654Y-110207283D01*
G37*
D23*
X143176700Y-116218500D03*
X138776700Y-116218500D03*
X143138600Y-120854000D03*
X138738600Y-120854000D03*
D17*
G36*
X151139203Y-117050863D02*
G01*
X151158618Y-117053743D01*
X151177657Y-117058512D01*
X151196137Y-117065124D01*
X151213879Y-117073516D01*
X151230714Y-117083606D01*
X151246479Y-117095298D01*
X151261021Y-117108479D01*
X151274202Y-117123021D01*
X151285894Y-117138786D01*
X151295984Y-117155621D01*
X151304376Y-117173363D01*
X151310988Y-117191843D01*
X151315757Y-117210882D01*
X151318637Y-117230297D01*
X151319600Y-117249900D01*
X151319600Y-117649900D01*
X151318637Y-117669503D01*
X151315757Y-117688918D01*
X151310988Y-117707957D01*
X151304376Y-117726437D01*
X151295984Y-117744179D01*
X151285894Y-117761014D01*
X151274202Y-117776779D01*
X151261021Y-117791321D01*
X151246479Y-117804502D01*
X151230714Y-117816194D01*
X151213879Y-117826284D01*
X151196137Y-117834676D01*
X151177657Y-117841288D01*
X151158618Y-117846057D01*
X151139203Y-117848937D01*
X151119600Y-117849900D01*
X150569600Y-117849900D01*
X150549997Y-117848937D01*
X150530582Y-117846057D01*
X150511543Y-117841288D01*
X150493063Y-117834676D01*
X150475321Y-117826284D01*
X150458486Y-117816194D01*
X150442721Y-117804502D01*
X150428179Y-117791321D01*
X150414998Y-117776779D01*
X150403306Y-117761014D01*
X150393216Y-117744179D01*
X150384824Y-117726437D01*
X150378212Y-117707957D01*
X150373443Y-117688918D01*
X150370563Y-117669503D01*
X150369600Y-117649900D01*
X150369600Y-117249900D01*
X150370563Y-117230297D01*
X150373443Y-117210882D01*
X150378212Y-117191843D01*
X150384824Y-117173363D01*
X150393216Y-117155621D01*
X150403306Y-117138786D01*
X150414998Y-117123021D01*
X150428179Y-117108479D01*
X150442721Y-117095298D01*
X150458486Y-117083606D01*
X150475321Y-117073516D01*
X150493063Y-117065124D01*
X150511543Y-117058512D01*
X150530582Y-117053743D01*
X150549997Y-117050863D01*
X150569600Y-117049900D01*
X151119600Y-117049900D01*
X151139203Y-117050863D01*
G37*
G36*
X151139203Y-115400863D02*
G01*
X151158618Y-115403743D01*
X151177657Y-115408512D01*
X151196137Y-115415124D01*
X151213879Y-115423516D01*
X151230714Y-115433606D01*
X151246479Y-115445298D01*
X151261021Y-115458479D01*
X151274202Y-115473021D01*
X151285894Y-115488786D01*
X151295984Y-115505621D01*
X151304376Y-115523363D01*
X151310988Y-115541843D01*
X151315757Y-115560882D01*
X151318637Y-115580297D01*
X151319600Y-115599900D01*
X151319600Y-115999900D01*
X151318637Y-116019503D01*
X151315757Y-116038918D01*
X151310988Y-116057957D01*
X151304376Y-116076437D01*
X151295984Y-116094179D01*
X151285894Y-116111014D01*
X151274202Y-116126779D01*
X151261021Y-116141321D01*
X151246479Y-116154502D01*
X151230714Y-116166194D01*
X151213879Y-116176284D01*
X151196137Y-116184676D01*
X151177657Y-116191288D01*
X151158618Y-116196057D01*
X151139203Y-116198937D01*
X151119600Y-116199900D01*
X150569600Y-116199900D01*
X150549997Y-116198937D01*
X150530582Y-116196057D01*
X150511543Y-116191288D01*
X150493063Y-116184676D01*
X150475321Y-116176284D01*
X150458486Y-116166194D01*
X150442721Y-116154502D01*
X150428179Y-116141321D01*
X150414998Y-116126779D01*
X150403306Y-116111014D01*
X150393216Y-116094179D01*
X150384824Y-116076437D01*
X150378212Y-116057957D01*
X150373443Y-116038918D01*
X150370563Y-116019503D01*
X150369600Y-115999900D01*
X150369600Y-115599900D01*
X150370563Y-115580297D01*
X150373443Y-115560882D01*
X150378212Y-115541843D01*
X150384824Y-115523363D01*
X150393216Y-115505621D01*
X150403306Y-115488786D01*
X150414998Y-115473021D01*
X150428179Y-115458479D01*
X150442721Y-115445298D01*
X150458486Y-115433606D01*
X150475321Y-115423516D01*
X150493063Y-115415124D01*
X150511543Y-115408512D01*
X150530582Y-115403743D01*
X150549997Y-115400863D01*
X150569600Y-115399900D01*
X151119600Y-115399900D01*
X151139203Y-115400863D01*
G37*
G36*
X143608103Y-101735163D02*
G01*
X143627518Y-101738043D01*
X143646557Y-101742812D01*
X143665037Y-101749424D01*
X143682779Y-101757816D01*
X143699614Y-101767906D01*
X143715379Y-101779598D01*
X143729921Y-101792779D01*
X143743102Y-101807321D01*
X143754794Y-101823086D01*
X143764884Y-101839921D01*
X143773276Y-101857663D01*
X143779888Y-101876143D01*
X143784657Y-101895182D01*
X143787537Y-101914597D01*
X143788500Y-101934200D01*
X143788500Y-102334200D01*
X143787537Y-102353803D01*
X143784657Y-102373218D01*
X143779888Y-102392257D01*
X143773276Y-102410737D01*
X143764884Y-102428479D01*
X143754794Y-102445314D01*
X143743102Y-102461079D01*
X143729921Y-102475621D01*
X143715379Y-102488802D01*
X143699614Y-102500494D01*
X143682779Y-102510584D01*
X143665037Y-102518976D01*
X143646557Y-102525588D01*
X143627518Y-102530357D01*
X143608103Y-102533237D01*
X143588500Y-102534200D01*
X143038500Y-102534200D01*
X143018897Y-102533237D01*
X142999482Y-102530357D01*
X142980443Y-102525588D01*
X142961963Y-102518976D01*
X142944221Y-102510584D01*
X142927386Y-102500494D01*
X142911621Y-102488802D01*
X142897079Y-102475621D01*
X142883898Y-102461079D01*
X142872206Y-102445314D01*
X142862116Y-102428479D01*
X142853724Y-102410737D01*
X142847112Y-102392257D01*
X142842343Y-102373218D01*
X142839463Y-102353803D01*
X142838500Y-102334200D01*
X142838500Y-101934200D01*
X142839463Y-101914597D01*
X142842343Y-101895182D01*
X142847112Y-101876143D01*
X142853724Y-101857663D01*
X142862116Y-101839921D01*
X142872206Y-101823086D01*
X142883898Y-101807321D01*
X142897079Y-101792779D01*
X142911621Y-101779598D01*
X142927386Y-101767906D01*
X142944221Y-101757816D01*
X142961963Y-101749424D01*
X142980443Y-101742812D01*
X142999482Y-101738043D01*
X143018897Y-101735163D01*
X143038500Y-101734200D01*
X143588500Y-101734200D01*
X143608103Y-101735163D01*
G37*
G36*
X143608103Y-100085163D02*
G01*
X143627518Y-100088043D01*
X143646557Y-100092812D01*
X143665037Y-100099424D01*
X143682779Y-100107816D01*
X143699614Y-100117906D01*
X143715379Y-100129598D01*
X143729921Y-100142779D01*
X143743102Y-100157321D01*
X143754794Y-100173086D01*
X143764884Y-100189921D01*
X143773276Y-100207663D01*
X143779888Y-100226143D01*
X143784657Y-100245182D01*
X143787537Y-100264597D01*
X143788500Y-100284200D01*
X143788500Y-100684200D01*
X143787537Y-100703803D01*
X143784657Y-100723218D01*
X143779888Y-100742257D01*
X143773276Y-100760737D01*
X143764884Y-100778479D01*
X143754794Y-100795314D01*
X143743102Y-100811079D01*
X143729921Y-100825621D01*
X143715379Y-100838802D01*
X143699614Y-100850494D01*
X143682779Y-100860584D01*
X143665037Y-100868976D01*
X143646557Y-100875588D01*
X143627518Y-100880357D01*
X143608103Y-100883237D01*
X143588500Y-100884200D01*
X143038500Y-100884200D01*
X143018897Y-100883237D01*
X142999482Y-100880357D01*
X142980443Y-100875588D01*
X142961963Y-100868976D01*
X142944221Y-100860584D01*
X142927386Y-100850494D01*
X142911621Y-100838802D01*
X142897079Y-100825621D01*
X142883898Y-100811079D01*
X142872206Y-100795314D01*
X142862116Y-100778479D01*
X142853724Y-100760737D01*
X142847112Y-100742257D01*
X142842343Y-100723218D01*
X142839463Y-100703803D01*
X142838500Y-100684200D01*
X142838500Y-100284200D01*
X142839463Y-100264597D01*
X142842343Y-100245182D01*
X142847112Y-100226143D01*
X142853724Y-100207663D01*
X142862116Y-100189921D01*
X142872206Y-100173086D01*
X142883898Y-100157321D01*
X142897079Y-100142779D01*
X142911621Y-100129598D01*
X142927386Y-100117906D01*
X142944221Y-100107816D01*
X142961963Y-100099424D01*
X142980443Y-100092812D01*
X142999482Y-100088043D01*
X143018897Y-100085163D01*
X143038500Y-100084200D01*
X143588500Y-100084200D01*
X143608103Y-100085163D01*
G37*
G36*
X143506189Y-96100423D02*
G01*
X143526817Y-96103483D01*
X143547045Y-96108550D01*
X143566680Y-96115576D01*
X143585532Y-96124492D01*
X143603419Y-96135213D01*
X143620169Y-96147635D01*
X143635620Y-96161640D01*
X143649625Y-96177091D01*
X143662047Y-96193841D01*
X143672768Y-96211728D01*
X143681684Y-96230580D01*
X143688710Y-96250215D01*
X143693777Y-96270443D01*
X143696837Y-96291071D01*
X143697860Y-96311900D01*
X143697860Y-97111900D01*
X143696837Y-97132729D01*
X143693777Y-97153357D01*
X143688710Y-97173585D01*
X143681684Y-97193220D01*
X143672768Y-97212072D01*
X143662047Y-97229959D01*
X143649625Y-97246709D01*
X143635620Y-97262160D01*
X143620169Y-97276165D01*
X143603419Y-97288587D01*
X143585532Y-97299308D01*
X143566680Y-97308224D01*
X143547045Y-97315250D01*
X143526817Y-97320317D01*
X143506189Y-97323377D01*
X143485360Y-97324400D01*
X143060360Y-97324400D01*
X143039531Y-97323377D01*
X143018903Y-97320317D01*
X142998675Y-97315250D01*
X142979040Y-97308224D01*
X142960188Y-97299308D01*
X142942301Y-97288587D01*
X142925551Y-97276165D01*
X142910100Y-97262160D01*
X142896095Y-97246709D01*
X142883673Y-97229959D01*
X142872952Y-97212072D01*
X142864036Y-97193220D01*
X142857010Y-97173585D01*
X142851943Y-97153357D01*
X142848883Y-97132729D01*
X142847860Y-97111900D01*
X142847860Y-96311900D01*
X142848883Y-96291071D01*
X142851943Y-96270443D01*
X142857010Y-96250215D01*
X142864036Y-96230580D01*
X142872952Y-96211728D01*
X142883673Y-96193841D01*
X142896095Y-96177091D01*
X142910100Y-96161640D01*
X142925551Y-96147635D01*
X142942301Y-96135213D01*
X142960188Y-96124492D01*
X142979040Y-96115576D01*
X142998675Y-96108550D01*
X143018903Y-96103483D01*
X143039531Y-96100423D01*
X143060360Y-96099400D01*
X143485360Y-96099400D01*
X143506189Y-96100423D01*
G37*
G36*
X143506189Y-97725423D02*
G01*
X143526817Y-97728483D01*
X143547045Y-97733550D01*
X143566680Y-97740576D01*
X143585532Y-97749492D01*
X143603419Y-97760213D01*
X143620169Y-97772635D01*
X143635620Y-97786640D01*
X143649625Y-97802091D01*
X143662047Y-97818841D01*
X143672768Y-97836728D01*
X143681684Y-97855580D01*
X143688710Y-97875215D01*
X143693777Y-97895443D01*
X143696837Y-97916071D01*
X143697860Y-97936900D01*
X143697860Y-98736900D01*
X143696837Y-98757729D01*
X143693777Y-98778357D01*
X143688710Y-98798585D01*
X143681684Y-98818220D01*
X143672768Y-98837072D01*
X143662047Y-98854959D01*
X143649625Y-98871709D01*
X143635620Y-98887160D01*
X143620169Y-98901165D01*
X143603419Y-98913587D01*
X143585532Y-98924308D01*
X143566680Y-98933224D01*
X143547045Y-98940250D01*
X143526817Y-98945317D01*
X143506189Y-98948377D01*
X143485360Y-98949400D01*
X143060360Y-98949400D01*
X143039531Y-98948377D01*
X143018903Y-98945317D01*
X142998675Y-98940250D01*
X142979040Y-98933224D01*
X142960188Y-98924308D01*
X142942301Y-98913587D01*
X142925551Y-98901165D01*
X142910100Y-98887160D01*
X142896095Y-98871709D01*
X142883673Y-98854959D01*
X142872952Y-98837072D01*
X142864036Y-98818220D01*
X142857010Y-98798585D01*
X142851943Y-98778357D01*
X142848883Y-98757729D01*
X142847860Y-98736900D01*
X142847860Y-97936900D01*
X142848883Y-97916071D01*
X142851943Y-97895443D01*
X142857010Y-97875215D01*
X142864036Y-97855580D01*
X142872952Y-97836728D01*
X142883673Y-97818841D01*
X142896095Y-97802091D01*
X142910100Y-97786640D01*
X142925551Y-97772635D01*
X142942301Y-97760213D01*
X142960188Y-97749492D01*
X142979040Y-97740576D01*
X142998675Y-97733550D01*
X143018903Y-97728483D01*
X143039531Y-97725423D01*
X143060360Y-97724400D01*
X143485360Y-97724400D01*
X143506189Y-97725423D01*
G37*
G36*
X149110054Y-97710483D02*
G01*
X149131895Y-97713723D01*
X149153314Y-97719088D01*
X149174104Y-97726527D01*
X149194064Y-97735968D01*
X149213003Y-97747319D01*
X149230738Y-97760473D01*
X149247099Y-97775301D01*
X149261927Y-97791662D01*
X149275081Y-97809397D01*
X149286432Y-97828336D01*
X149295873Y-97848296D01*
X149303312Y-97869086D01*
X149308677Y-97890505D01*
X149311917Y-97912346D01*
X149313000Y-97934400D01*
X149313000Y-98384400D01*
X149311917Y-98406454D01*
X149308677Y-98428295D01*
X149303312Y-98449714D01*
X149295873Y-98470504D01*
X149286432Y-98490464D01*
X149275081Y-98509403D01*
X149261927Y-98527138D01*
X149247099Y-98543499D01*
X149230738Y-98558327D01*
X149213003Y-98571481D01*
X149194064Y-98582832D01*
X149174104Y-98592273D01*
X149153314Y-98599712D01*
X149131895Y-98605077D01*
X149110054Y-98608317D01*
X149088000Y-98609400D01*
X148588000Y-98609400D01*
X148565946Y-98608317D01*
X148544105Y-98605077D01*
X148522686Y-98599712D01*
X148501896Y-98592273D01*
X148481936Y-98582832D01*
X148462997Y-98571481D01*
X148445262Y-98558327D01*
X148428901Y-98543499D01*
X148414073Y-98527138D01*
X148400919Y-98509403D01*
X148389568Y-98490464D01*
X148380127Y-98470504D01*
X148372688Y-98449714D01*
X148367323Y-98428295D01*
X148364083Y-98406454D01*
X148363000Y-98384400D01*
X148363000Y-97934400D01*
X148364083Y-97912346D01*
X148367323Y-97890505D01*
X148372688Y-97869086D01*
X148380127Y-97848296D01*
X148389568Y-97828336D01*
X148400919Y-97809397D01*
X148414073Y-97791662D01*
X148428901Y-97775301D01*
X148445262Y-97760473D01*
X148462997Y-97747319D01*
X148481936Y-97735968D01*
X148501896Y-97726527D01*
X148522686Y-97719088D01*
X148544105Y-97713723D01*
X148565946Y-97710483D01*
X148588000Y-97709400D01*
X149088000Y-97709400D01*
X149110054Y-97710483D01*
G37*
G36*
X149110054Y-96160483D02*
G01*
X149131895Y-96163723D01*
X149153314Y-96169088D01*
X149174104Y-96176527D01*
X149194064Y-96185968D01*
X149213003Y-96197319D01*
X149230738Y-96210473D01*
X149247099Y-96225301D01*
X149261927Y-96241662D01*
X149275081Y-96259397D01*
X149286432Y-96278336D01*
X149295873Y-96298296D01*
X149303312Y-96319086D01*
X149308677Y-96340505D01*
X149311917Y-96362346D01*
X149313000Y-96384400D01*
X149313000Y-96834400D01*
X149311917Y-96856454D01*
X149308677Y-96878295D01*
X149303312Y-96899714D01*
X149295873Y-96920504D01*
X149286432Y-96940464D01*
X149275081Y-96959403D01*
X149261927Y-96977138D01*
X149247099Y-96993499D01*
X149230738Y-97008327D01*
X149213003Y-97021481D01*
X149194064Y-97032832D01*
X149174104Y-97042273D01*
X149153314Y-97049712D01*
X149131895Y-97055077D01*
X149110054Y-97058317D01*
X149088000Y-97059400D01*
X148588000Y-97059400D01*
X148565946Y-97058317D01*
X148544105Y-97055077D01*
X148522686Y-97049712D01*
X148501896Y-97042273D01*
X148481936Y-97032832D01*
X148462997Y-97021481D01*
X148445262Y-97008327D01*
X148428901Y-96993499D01*
X148414073Y-96977138D01*
X148400919Y-96959403D01*
X148389568Y-96940464D01*
X148380127Y-96920504D01*
X148372688Y-96899714D01*
X148367323Y-96878295D01*
X148364083Y-96856454D01*
X148363000Y-96834400D01*
X148363000Y-96384400D01*
X148364083Y-96362346D01*
X148367323Y-96340505D01*
X148372688Y-96319086D01*
X148380127Y-96298296D01*
X148389568Y-96278336D01*
X148400919Y-96259397D01*
X148414073Y-96241662D01*
X148428901Y-96225301D01*
X148445262Y-96210473D01*
X148462997Y-96197319D01*
X148481936Y-96185968D01*
X148501896Y-96176527D01*
X148522686Y-96169088D01*
X148544105Y-96163723D01*
X148565946Y-96160483D01*
X148588000Y-96159400D01*
X149088000Y-96159400D01*
X149110054Y-96160483D01*
G37*
G36*
X145363554Y-116773183D02*
G01*
X145385395Y-116776423D01*
X145406814Y-116781788D01*
X145427604Y-116789227D01*
X145447564Y-116798668D01*
X145466503Y-116810019D01*
X145484238Y-116823173D01*
X145500599Y-116838001D01*
X145515427Y-116854362D01*
X145528581Y-116872097D01*
X145539932Y-116891036D01*
X145549373Y-116910996D01*
X145556812Y-116931786D01*
X145562177Y-116953205D01*
X145565417Y-116975046D01*
X145566500Y-116997100D01*
X145566500Y-117447100D01*
X145565417Y-117469154D01*
X145562177Y-117490995D01*
X145556812Y-117512414D01*
X145549373Y-117533204D01*
X145539932Y-117553164D01*
X145528581Y-117572103D01*
X145515427Y-117589838D01*
X145500599Y-117606199D01*
X145484238Y-117621027D01*
X145466503Y-117634181D01*
X145447564Y-117645532D01*
X145427604Y-117654973D01*
X145406814Y-117662412D01*
X145385395Y-117667777D01*
X145363554Y-117671017D01*
X145341500Y-117672100D01*
X144841500Y-117672100D01*
X144819446Y-117671017D01*
X144797605Y-117667777D01*
X144776186Y-117662412D01*
X144755396Y-117654973D01*
X144735436Y-117645532D01*
X144716497Y-117634181D01*
X144698762Y-117621027D01*
X144682401Y-117606199D01*
X144667573Y-117589838D01*
X144654419Y-117572103D01*
X144643068Y-117553164D01*
X144633627Y-117533204D01*
X144626188Y-117512414D01*
X144620823Y-117490995D01*
X144617583Y-117469154D01*
X144616500Y-117447100D01*
X144616500Y-116997100D01*
X144617583Y-116975046D01*
X144620823Y-116953205D01*
X144626188Y-116931786D01*
X144633627Y-116910996D01*
X144643068Y-116891036D01*
X144654419Y-116872097D01*
X144667573Y-116854362D01*
X144682401Y-116838001D01*
X144698762Y-116823173D01*
X144716497Y-116810019D01*
X144735436Y-116798668D01*
X144755396Y-116789227D01*
X144776186Y-116781788D01*
X144797605Y-116776423D01*
X144819446Y-116773183D01*
X144841500Y-116772100D01*
X145341500Y-116772100D01*
X145363554Y-116773183D01*
G37*
G36*
X145363554Y-115223183D02*
G01*
X145385395Y-115226423D01*
X145406814Y-115231788D01*
X145427604Y-115239227D01*
X145447564Y-115248668D01*
X145466503Y-115260019D01*
X145484238Y-115273173D01*
X145500599Y-115288001D01*
X145515427Y-115304362D01*
X145528581Y-115322097D01*
X145539932Y-115341036D01*
X145549373Y-115360996D01*
X145556812Y-115381786D01*
X145562177Y-115403205D01*
X145565417Y-115425046D01*
X145566500Y-115447100D01*
X145566500Y-115897100D01*
X145565417Y-115919154D01*
X145562177Y-115940995D01*
X145556812Y-115962414D01*
X145549373Y-115983204D01*
X145539932Y-116003164D01*
X145528581Y-116022103D01*
X145515427Y-116039838D01*
X145500599Y-116056199D01*
X145484238Y-116071027D01*
X145466503Y-116084181D01*
X145447564Y-116095532D01*
X145427604Y-116104973D01*
X145406814Y-116112412D01*
X145385395Y-116117777D01*
X145363554Y-116121017D01*
X145341500Y-116122100D01*
X144841500Y-116122100D01*
X144819446Y-116121017D01*
X144797605Y-116117777D01*
X144776186Y-116112412D01*
X144755396Y-116104973D01*
X144735436Y-116095532D01*
X144716497Y-116084181D01*
X144698762Y-116071027D01*
X144682401Y-116056199D01*
X144667573Y-116039838D01*
X144654419Y-116022103D01*
X144643068Y-116003164D01*
X144633627Y-115983204D01*
X144626188Y-115962414D01*
X144620823Y-115940995D01*
X144617583Y-115919154D01*
X144616500Y-115897100D01*
X144616500Y-115447100D01*
X144617583Y-115425046D01*
X144620823Y-115403205D01*
X144626188Y-115381786D01*
X144633627Y-115360996D01*
X144643068Y-115341036D01*
X144654419Y-115322097D01*
X144667573Y-115304362D01*
X144682401Y-115288001D01*
X144698762Y-115273173D01*
X144716497Y-115260019D01*
X144735436Y-115248668D01*
X144755396Y-115239227D01*
X144776186Y-115231788D01*
X144797605Y-115226423D01*
X144819446Y-115223183D01*
X144841500Y-115222100D01*
X145341500Y-115222100D01*
X145363554Y-115223183D01*
G37*
G36*
X141896554Y-110918583D02*
G01*
X141918395Y-110921823D01*
X141939814Y-110927188D01*
X141960604Y-110934627D01*
X141980564Y-110944068D01*
X141999503Y-110955419D01*
X142017238Y-110968573D01*
X142033599Y-110983401D01*
X142048427Y-110999762D01*
X142061581Y-111017497D01*
X142072932Y-111036436D01*
X142082373Y-111056396D01*
X142089812Y-111077186D01*
X142095177Y-111098605D01*
X142098417Y-111120446D01*
X142099500Y-111142500D01*
X142099500Y-111642500D01*
X142098417Y-111664554D01*
X142095177Y-111686395D01*
X142089812Y-111707814D01*
X142082373Y-111728604D01*
X142072932Y-111748564D01*
X142061581Y-111767503D01*
X142048427Y-111785238D01*
X142033599Y-111801599D01*
X142017238Y-111816427D01*
X141999503Y-111829581D01*
X141980564Y-111840932D01*
X141960604Y-111850373D01*
X141939814Y-111857812D01*
X141918395Y-111863177D01*
X141896554Y-111866417D01*
X141874500Y-111867500D01*
X141424500Y-111867500D01*
X141402446Y-111866417D01*
X141380605Y-111863177D01*
X141359186Y-111857812D01*
X141338396Y-111850373D01*
X141318436Y-111840932D01*
X141299497Y-111829581D01*
X141281762Y-111816427D01*
X141265401Y-111801599D01*
X141250573Y-111785238D01*
X141237419Y-111767503D01*
X141226068Y-111748564D01*
X141216627Y-111728604D01*
X141209188Y-111707814D01*
X141203823Y-111686395D01*
X141200583Y-111664554D01*
X141199500Y-111642500D01*
X141199500Y-111142500D01*
X141200583Y-111120446D01*
X141203823Y-111098605D01*
X141209188Y-111077186D01*
X141216627Y-111056396D01*
X141226068Y-111036436D01*
X141237419Y-111017497D01*
X141250573Y-110999762D01*
X141265401Y-110983401D01*
X141281762Y-110968573D01*
X141299497Y-110955419D01*
X141318436Y-110944068D01*
X141338396Y-110934627D01*
X141359186Y-110927188D01*
X141380605Y-110921823D01*
X141402446Y-110918583D01*
X141424500Y-110917500D01*
X141874500Y-110917500D01*
X141896554Y-110918583D01*
G37*
G36*
X143446554Y-110918583D02*
G01*
X143468395Y-110921823D01*
X143489814Y-110927188D01*
X143510604Y-110934627D01*
X143530564Y-110944068D01*
X143549503Y-110955419D01*
X143567238Y-110968573D01*
X143583599Y-110983401D01*
X143598427Y-110999762D01*
X143611581Y-111017497D01*
X143622932Y-111036436D01*
X143632373Y-111056396D01*
X143639812Y-111077186D01*
X143645177Y-111098605D01*
X143648417Y-111120446D01*
X143649500Y-111142500D01*
X143649500Y-111642500D01*
X143648417Y-111664554D01*
X143645177Y-111686395D01*
X143639812Y-111707814D01*
X143632373Y-111728604D01*
X143622932Y-111748564D01*
X143611581Y-111767503D01*
X143598427Y-111785238D01*
X143583599Y-111801599D01*
X143567238Y-111816427D01*
X143549503Y-111829581D01*
X143530564Y-111840932D01*
X143510604Y-111850373D01*
X143489814Y-111857812D01*
X143468395Y-111863177D01*
X143446554Y-111866417D01*
X143424500Y-111867500D01*
X142974500Y-111867500D01*
X142952446Y-111866417D01*
X142930605Y-111863177D01*
X142909186Y-111857812D01*
X142888396Y-111850373D01*
X142868436Y-111840932D01*
X142849497Y-111829581D01*
X142831762Y-111816427D01*
X142815401Y-111801599D01*
X142800573Y-111785238D01*
X142787419Y-111767503D01*
X142776068Y-111748564D01*
X142766627Y-111728604D01*
X142759188Y-111707814D01*
X142753823Y-111686395D01*
X142750583Y-111664554D01*
X142749500Y-111642500D01*
X142749500Y-111142500D01*
X142750583Y-111120446D01*
X142753823Y-111098605D01*
X142759188Y-111077186D01*
X142766627Y-111056396D01*
X142776068Y-111036436D01*
X142787419Y-111017497D01*
X142800573Y-110999762D01*
X142815401Y-110983401D01*
X142831762Y-110968573D01*
X142849497Y-110955419D01*
X142868436Y-110944068D01*
X142888396Y-110934627D01*
X142909186Y-110927188D01*
X142930605Y-110921823D01*
X142952446Y-110918583D01*
X142974500Y-110917500D01*
X143424500Y-110917500D01*
X143446554Y-110918583D01*
G37*
G36*
X147014654Y-104454283D02*
G01*
X147036495Y-104457523D01*
X147057914Y-104462888D01*
X147078704Y-104470327D01*
X147098664Y-104479768D01*
X147117603Y-104491119D01*
X147135338Y-104504273D01*
X147151699Y-104519101D01*
X147166527Y-104535462D01*
X147179681Y-104553197D01*
X147191032Y-104572136D01*
X147200473Y-104592096D01*
X147207912Y-104612886D01*
X147213277Y-104634305D01*
X147216517Y-104656146D01*
X147217600Y-104678200D01*
X147217600Y-105178200D01*
X147216517Y-105200254D01*
X147213277Y-105222095D01*
X147207912Y-105243514D01*
X147200473Y-105264304D01*
X147191032Y-105284264D01*
X147179681Y-105303203D01*
X147166527Y-105320938D01*
X147151699Y-105337299D01*
X147135338Y-105352127D01*
X147117603Y-105365281D01*
X147098664Y-105376632D01*
X147078704Y-105386073D01*
X147057914Y-105393512D01*
X147036495Y-105398877D01*
X147014654Y-105402117D01*
X146992600Y-105403200D01*
X146542600Y-105403200D01*
X146520546Y-105402117D01*
X146498705Y-105398877D01*
X146477286Y-105393512D01*
X146456496Y-105386073D01*
X146436536Y-105376632D01*
X146417597Y-105365281D01*
X146399862Y-105352127D01*
X146383501Y-105337299D01*
X146368673Y-105320938D01*
X146355519Y-105303203D01*
X146344168Y-105284264D01*
X146334727Y-105264304D01*
X146327288Y-105243514D01*
X146321923Y-105222095D01*
X146318683Y-105200254D01*
X146317600Y-105178200D01*
X146317600Y-104678200D01*
X146318683Y-104656146D01*
X146321923Y-104634305D01*
X146327288Y-104612886D01*
X146334727Y-104592096D01*
X146344168Y-104572136D01*
X146355519Y-104553197D01*
X146368673Y-104535462D01*
X146383501Y-104519101D01*
X146399862Y-104504273D01*
X146417597Y-104491119D01*
X146436536Y-104479768D01*
X146456496Y-104470327D01*
X146477286Y-104462888D01*
X146498705Y-104457523D01*
X146520546Y-104454283D01*
X146542600Y-104453200D01*
X146992600Y-104453200D01*
X147014654Y-104454283D01*
G37*
G36*
X148564654Y-104454283D02*
G01*
X148586495Y-104457523D01*
X148607914Y-104462888D01*
X148628704Y-104470327D01*
X148648664Y-104479768D01*
X148667603Y-104491119D01*
X148685338Y-104504273D01*
X148701699Y-104519101D01*
X148716527Y-104535462D01*
X148729681Y-104553197D01*
X148741032Y-104572136D01*
X148750473Y-104592096D01*
X148757912Y-104612886D01*
X148763277Y-104634305D01*
X148766517Y-104656146D01*
X148767600Y-104678200D01*
X148767600Y-105178200D01*
X148766517Y-105200254D01*
X148763277Y-105222095D01*
X148757912Y-105243514D01*
X148750473Y-105264304D01*
X148741032Y-105284264D01*
X148729681Y-105303203D01*
X148716527Y-105320938D01*
X148701699Y-105337299D01*
X148685338Y-105352127D01*
X148667603Y-105365281D01*
X148648664Y-105376632D01*
X148628704Y-105386073D01*
X148607914Y-105393512D01*
X148586495Y-105398877D01*
X148564654Y-105402117D01*
X148542600Y-105403200D01*
X148092600Y-105403200D01*
X148070546Y-105402117D01*
X148048705Y-105398877D01*
X148027286Y-105393512D01*
X148006496Y-105386073D01*
X147986536Y-105376632D01*
X147967597Y-105365281D01*
X147949862Y-105352127D01*
X147933501Y-105337299D01*
X147918673Y-105320938D01*
X147905519Y-105303203D01*
X147894168Y-105284264D01*
X147884727Y-105264304D01*
X147877288Y-105243514D01*
X147871923Y-105222095D01*
X147868683Y-105200254D01*
X147867600Y-105178200D01*
X147867600Y-104678200D01*
X147868683Y-104656146D01*
X147871923Y-104634305D01*
X147877288Y-104612886D01*
X147884727Y-104592096D01*
X147894168Y-104572136D01*
X147905519Y-104553197D01*
X147918673Y-104535462D01*
X147933501Y-104519101D01*
X147949862Y-104504273D01*
X147967597Y-104491119D01*
X147986536Y-104479768D01*
X148006496Y-104470327D01*
X148027286Y-104462888D01*
X148048705Y-104457523D01*
X148070546Y-104454283D01*
X148092600Y-104453200D01*
X148542600Y-104453200D01*
X148564654Y-104454283D01*
G37*
G36*
X144688303Y-123504163D02*
G01*
X144707718Y-123507043D01*
X144726757Y-123511812D01*
X144745237Y-123518424D01*
X144762979Y-123526816D01*
X144779814Y-123536906D01*
X144795579Y-123548598D01*
X144810121Y-123561779D01*
X144823302Y-123576321D01*
X144834994Y-123592086D01*
X144845084Y-123608921D01*
X144853476Y-123626663D01*
X144860088Y-123645143D01*
X144864857Y-123664182D01*
X144867737Y-123683597D01*
X144868700Y-123703200D01*
X144868700Y-124253200D01*
X144867737Y-124272803D01*
X144864857Y-124292218D01*
X144860088Y-124311257D01*
X144853476Y-124329737D01*
X144845084Y-124347479D01*
X144834994Y-124364314D01*
X144823302Y-124380079D01*
X144810121Y-124394621D01*
X144795579Y-124407802D01*
X144779814Y-124419494D01*
X144762979Y-124429584D01*
X144745237Y-124437976D01*
X144726757Y-124444588D01*
X144707718Y-124449357D01*
X144688303Y-124452237D01*
X144668700Y-124453200D01*
X144268700Y-124453200D01*
X144249097Y-124452237D01*
X144229682Y-124449357D01*
X144210643Y-124444588D01*
X144192163Y-124437976D01*
X144174421Y-124429584D01*
X144157586Y-124419494D01*
X144141821Y-124407802D01*
X144127279Y-124394621D01*
X144114098Y-124380079D01*
X144102406Y-124364314D01*
X144092316Y-124347479D01*
X144083924Y-124329737D01*
X144077312Y-124311257D01*
X144072543Y-124292218D01*
X144069663Y-124272803D01*
X144068700Y-124253200D01*
X144068700Y-123703200D01*
X144069663Y-123683597D01*
X144072543Y-123664182D01*
X144077312Y-123645143D01*
X144083924Y-123626663D01*
X144092316Y-123608921D01*
X144102406Y-123592086D01*
X144114098Y-123576321D01*
X144127279Y-123561779D01*
X144141821Y-123548598D01*
X144157586Y-123536906D01*
X144174421Y-123526816D01*
X144192163Y-123518424D01*
X144210643Y-123511812D01*
X144229682Y-123507043D01*
X144249097Y-123504163D01*
X144268700Y-123503200D01*
X144668700Y-123503200D01*
X144688303Y-123504163D01*
G37*
G36*
X143038303Y-123504163D02*
G01*
X143057718Y-123507043D01*
X143076757Y-123511812D01*
X143095237Y-123518424D01*
X143112979Y-123526816D01*
X143129814Y-123536906D01*
X143145579Y-123548598D01*
X143160121Y-123561779D01*
X143173302Y-123576321D01*
X143184994Y-123592086D01*
X143195084Y-123608921D01*
X143203476Y-123626663D01*
X143210088Y-123645143D01*
X143214857Y-123664182D01*
X143217737Y-123683597D01*
X143218700Y-123703200D01*
X143218700Y-124253200D01*
X143217737Y-124272803D01*
X143214857Y-124292218D01*
X143210088Y-124311257D01*
X143203476Y-124329737D01*
X143195084Y-124347479D01*
X143184994Y-124364314D01*
X143173302Y-124380079D01*
X143160121Y-124394621D01*
X143145579Y-124407802D01*
X143129814Y-124419494D01*
X143112979Y-124429584D01*
X143095237Y-124437976D01*
X143076757Y-124444588D01*
X143057718Y-124449357D01*
X143038303Y-124452237D01*
X143018700Y-124453200D01*
X142618700Y-124453200D01*
X142599097Y-124452237D01*
X142579682Y-124449357D01*
X142560643Y-124444588D01*
X142542163Y-124437976D01*
X142524421Y-124429584D01*
X142507586Y-124419494D01*
X142491821Y-124407802D01*
X142477279Y-124394621D01*
X142464098Y-124380079D01*
X142452406Y-124364314D01*
X142442316Y-124347479D01*
X142433924Y-124329737D01*
X142427312Y-124311257D01*
X142422543Y-124292218D01*
X142419663Y-124272803D01*
X142418700Y-124253200D01*
X142418700Y-123703200D01*
X142419663Y-123683597D01*
X142422543Y-123664182D01*
X142427312Y-123645143D01*
X142433924Y-123626663D01*
X142442316Y-123608921D01*
X142452406Y-123592086D01*
X142464098Y-123576321D01*
X142477279Y-123561779D01*
X142491821Y-123548598D01*
X142507586Y-123536906D01*
X142524421Y-123526816D01*
X142542163Y-123518424D01*
X142560643Y-123511812D01*
X142579682Y-123507043D01*
X142599097Y-123504163D01*
X142618700Y-123503200D01*
X143018700Y-123503200D01*
X143038303Y-123504163D01*
G37*
G36*
X138872703Y-123504163D02*
G01*
X138892118Y-123507043D01*
X138911157Y-123511812D01*
X138929637Y-123518424D01*
X138947379Y-123526816D01*
X138964214Y-123536906D01*
X138979979Y-123548598D01*
X138994521Y-123561779D01*
X139007702Y-123576321D01*
X139019394Y-123592086D01*
X139029484Y-123608921D01*
X139037876Y-123626663D01*
X139044488Y-123645143D01*
X139049257Y-123664182D01*
X139052137Y-123683597D01*
X139053100Y-123703200D01*
X139053100Y-124253200D01*
X139052137Y-124272803D01*
X139049257Y-124292218D01*
X139044488Y-124311257D01*
X139037876Y-124329737D01*
X139029484Y-124347479D01*
X139019394Y-124364314D01*
X139007702Y-124380079D01*
X138994521Y-124394621D01*
X138979979Y-124407802D01*
X138964214Y-124419494D01*
X138947379Y-124429584D01*
X138929637Y-124437976D01*
X138911157Y-124444588D01*
X138892118Y-124449357D01*
X138872703Y-124452237D01*
X138853100Y-124453200D01*
X138453100Y-124453200D01*
X138433497Y-124452237D01*
X138414082Y-124449357D01*
X138395043Y-124444588D01*
X138376563Y-124437976D01*
X138358821Y-124429584D01*
X138341986Y-124419494D01*
X138326221Y-124407802D01*
X138311679Y-124394621D01*
X138298498Y-124380079D01*
X138286806Y-124364314D01*
X138276716Y-124347479D01*
X138268324Y-124329737D01*
X138261712Y-124311257D01*
X138256943Y-124292218D01*
X138254063Y-124272803D01*
X138253100Y-124253200D01*
X138253100Y-123703200D01*
X138254063Y-123683597D01*
X138256943Y-123664182D01*
X138261712Y-123645143D01*
X138268324Y-123626663D01*
X138276716Y-123608921D01*
X138286806Y-123592086D01*
X138298498Y-123576321D01*
X138311679Y-123561779D01*
X138326221Y-123548598D01*
X138341986Y-123536906D01*
X138358821Y-123526816D01*
X138376563Y-123518424D01*
X138395043Y-123511812D01*
X138414082Y-123507043D01*
X138433497Y-123504163D01*
X138453100Y-123503200D01*
X138853100Y-123503200D01*
X138872703Y-123504163D01*
G37*
G36*
X140522703Y-123504163D02*
G01*
X140542118Y-123507043D01*
X140561157Y-123511812D01*
X140579637Y-123518424D01*
X140597379Y-123526816D01*
X140614214Y-123536906D01*
X140629979Y-123548598D01*
X140644521Y-123561779D01*
X140657702Y-123576321D01*
X140669394Y-123592086D01*
X140679484Y-123608921D01*
X140687876Y-123626663D01*
X140694488Y-123645143D01*
X140699257Y-123664182D01*
X140702137Y-123683597D01*
X140703100Y-123703200D01*
X140703100Y-124253200D01*
X140702137Y-124272803D01*
X140699257Y-124292218D01*
X140694488Y-124311257D01*
X140687876Y-124329737D01*
X140679484Y-124347479D01*
X140669394Y-124364314D01*
X140657702Y-124380079D01*
X140644521Y-124394621D01*
X140629979Y-124407802D01*
X140614214Y-124419494D01*
X140597379Y-124429584D01*
X140579637Y-124437976D01*
X140561157Y-124444588D01*
X140542118Y-124449357D01*
X140522703Y-124452237D01*
X140503100Y-124453200D01*
X140103100Y-124453200D01*
X140083497Y-124452237D01*
X140064082Y-124449357D01*
X140045043Y-124444588D01*
X140026563Y-124437976D01*
X140008821Y-124429584D01*
X139991986Y-124419494D01*
X139976221Y-124407802D01*
X139961679Y-124394621D01*
X139948498Y-124380079D01*
X139936806Y-124364314D01*
X139926716Y-124347479D01*
X139918324Y-124329737D01*
X139911712Y-124311257D01*
X139906943Y-124292218D01*
X139904063Y-124272803D01*
X139903100Y-124253200D01*
X139903100Y-123703200D01*
X139904063Y-123683597D01*
X139906943Y-123664182D01*
X139911712Y-123645143D01*
X139918324Y-123626663D01*
X139926716Y-123608921D01*
X139936806Y-123592086D01*
X139948498Y-123576321D01*
X139961679Y-123561779D01*
X139976221Y-123548598D01*
X139991986Y-123536906D01*
X140008821Y-123526816D01*
X140026563Y-123518424D01*
X140045043Y-123511812D01*
X140064082Y-123507043D01*
X140083497Y-123504163D01*
X140103100Y-123503200D01*
X140503100Y-123503200D01*
X140522703Y-123504163D01*
G37*
G36*
X150180783Y-93773463D02*
G01*
X150200198Y-93776343D01*
X150219237Y-93781112D01*
X150237717Y-93787724D01*
X150255459Y-93796116D01*
X150272294Y-93806206D01*
X150288059Y-93817898D01*
X150302601Y-93831079D01*
X150315782Y-93845621D01*
X150327474Y-93861386D01*
X150337564Y-93878221D01*
X150345956Y-93895963D01*
X150352568Y-93914443D01*
X150357337Y-93933482D01*
X150360217Y-93952897D01*
X150361180Y-93972500D01*
X150361180Y-94522500D01*
X150360217Y-94542103D01*
X150357337Y-94561518D01*
X150352568Y-94580557D01*
X150345956Y-94599037D01*
X150337564Y-94616779D01*
X150327474Y-94633614D01*
X150315782Y-94649379D01*
X150302601Y-94663921D01*
X150288059Y-94677102D01*
X150272294Y-94688794D01*
X150255459Y-94698884D01*
X150237717Y-94707276D01*
X150219237Y-94713888D01*
X150200198Y-94718657D01*
X150180783Y-94721537D01*
X150161180Y-94722500D01*
X149761180Y-94722500D01*
X149741577Y-94721537D01*
X149722162Y-94718657D01*
X149703123Y-94713888D01*
X149684643Y-94707276D01*
X149666901Y-94698884D01*
X149650066Y-94688794D01*
X149634301Y-94677102D01*
X149619759Y-94663921D01*
X149606578Y-94649379D01*
X149594886Y-94633614D01*
X149584796Y-94616779D01*
X149576404Y-94599037D01*
X149569792Y-94580557D01*
X149565023Y-94561518D01*
X149562143Y-94542103D01*
X149561180Y-94522500D01*
X149561180Y-93972500D01*
X149562143Y-93952897D01*
X149565023Y-93933482D01*
X149569792Y-93914443D01*
X149576404Y-93895963D01*
X149584796Y-93878221D01*
X149594886Y-93861386D01*
X149606578Y-93845621D01*
X149619759Y-93831079D01*
X149634301Y-93817898D01*
X149650066Y-93806206D01*
X149666901Y-93796116D01*
X149684643Y-93787724D01*
X149703123Y-93781112D01*
X149722162Y-93776343D01*
X149741577Y-93773463D01*
X149761180Y-93772500D01*
X150161180Y-93772500D01*
X150180783Y-93773463D01*
G37*
G36*
X151830783Y-93773463D02*
G01*
X151850198Y-93776343D01*
X151869237Y-93781112D01*
X151887717Y-93787724D01*
X151905459Y-93796116D01*
X151922294Y-93806206D01*
X151938059Y-93817898D01*
X151952601Y-93831079D01*
X151965782Y-93845621D01*
X151977474Y-93861386D01*
X151987564Y-93878221D01*
X151995956Y-93895963D01*
X152002568Y-93914443D01*
X152007337Y-93933482D01*
X152010217Y-93952897D01*
X152011180Y-93972500D01*
X152011180Y-94522500D01*
X152010217Y-94542103D01*
X152007337Y-94561518D01*
X152002568Y-94580557D01*
X151995956Y-94599037D01*
X151987564Y-94616779D01*
X151977474Y-94633614D01*
X151965782Y-94649379D01*
X151952601Y-94663921D01*
X151938059Y-94677102D01*
X151922294Y-94688794D01*
X151905459Y-94698884D01*
X151887717Y-94707276D01*
X151869237Y-94713888D01*
X151850198Y-94718657D01*
X151830783Y-94721537D01*
X151811180Y-94722500D01*
X151411180Y-94722500D01*
X151391577Y-94721537D01*
X151372162Y-94718657D01*
X151353123Y-94713888D01*
X151334643Y-94707276D01*
X151316901Y-94698884D01*
X151300066Y-94688794D01*
X151284301Y-94677102D01*
X151269759Y-94663921D01*
X151256578Y-94649379D01*
X151244886Y-94633614D01*
X151234796Y-94616779D01*
X151226404Y-94599037D01*
X151219792Y-94580557D01*
X151215023Y-94561518D01*
X151212143Y-94542103D01*
X151211180Y-94522500D01*
X151211180Y-93972500D01*
X151212143Y-93952897D01*
X151215023Y-93933482D01*
X151219792Y-93914443D01*
X151226404Y-93895963D01*
X151234796Y-93878221D01*
X151244886Y-93861386D01*
X151256578Y-93845621D01*
X151269759Y-93831079D01*
X151284301Y-93817898D01*
X151300066Y-93806206D01*
X151316901Y-93796116D01*
X151334643Y-93787724D01*
X151353123Y-93781112D01*
X151372162Y-93776343D01*
X151391577Y-93773463D01*
X151411180Y-93772500D01*
X151811180Y-93772500D01*
X151830783Y-93773463D01*
G37*
G36*
X156892303Y-112187763D02*
G01*
X156911718Y-112190643D01*
X156930757Y-112195412D01*
X156949237Y-112202024D01*
X156966979Y-112210416D01*
X156983814Y-112220506D01*
X156999579Y-112232198D01*
X157014121Y-112245379D01*
X157027302Y-112259921D01*
X157038994Y-112275686D01*
X157049084Y-112292521D01*
X157057476Y-112310263D01*
X157064088Y-112328743D01*
X157068857Y-112347782D01*
X157071737Y-112367197D01*
X157072700Y-112386800D01*
X157072700Y-112786800D01*
X157071737Y-112806403D01*
X157068857Y-112825818D01*
X157064088Y-112844857D01*
X157057476Y-112863337D01*
X157049084Y-112881079D01*
X157038994Y-112897914D01*
X157027302Y-112913679D01*
X157014121Y-112928221D01*
X156999579Y-112941402D01*
X156983814Y-112953094D01*
X156966979Y-112963184D01*
X156949237Y-112971576D01*
X156930757Y-112978188D01*
X156911718Y-112982957D01*
X156892303Y-112985837D01*
X156872700Y-112986800D01*
X156322700Y-112986800D01*
X156303097Y-112985837D01*
X156283682Y-112982957D01*
X156264643Y-112978188D01*
X156246163Y-112971576D01*
X156228421Y-112963184D01*
X156211586Y-112953094D01*
X156195821Y-112941402D01*
X156181279Y-112928221D01*
X156168098Y-112913679D01*
X156156406Y-112897914D01*
X156146316Y-112881079D01*
X156137924Y-112863337D01*
X156131312Y-112844857D01*
X156126543Y-112825818D01*
X156123663Y-112806403D01*
X156122700Y-112786800D01*
X156122700Y-112386800D01*
X156123663Y-112367197D01*
X156126543Y-112347782D01*
X156131312Y-112328743D01*
X156137924Y-112310263D01*
X156146316Y-112292521D01*
X156156406Y-112275686D01*
X156168098Y-112259921D01*
X156181279Y-112245379D01*
X156195821Y-112232198D01*
X156211586Y-112220506D01*
X156228421Y-112210416D01*
X156246163Y-112202024D01*
X156264643Y-112195412D01*
X156283682Y-112190643D01*
X156303097Y-112187763D01*
X156322700Y-112186800D01*
X156872700Y-112186800D01*
X156892303Y-112187763D01*
G37*
G36*
X156892303Y-113837763D02*
G01*
X156911718Y-113840643D01*
X156930757Y-113845412D01*
X156949237Y-113852024D01*
X156966979Y-113860416D01*
X156983814Y-113870506D01*
X156999579Y-113882198D01*
X157014121Y-113895379D01*
X157027302Y-113909921D01*
X157038994Y-113925686D01*
X157049084Y-113942521D01*
X157057476Y-113960263D01*
X157064088Y-113978743D01*
X157068857Y-113997782D01*
X157071737Y-114017197D01*
X157072700Y-114036800D01*
X157072700Y-114436800D01*
X157071737Y-114456403D01*
X157068857Y-114475818D01*
X157064088Y-114494857D01*
X157057476Y-114513337D01*
X157049084Y-114531079D01*
X157038994Y-114547914D01*
X157027302Y-114563679D01*
X157014121Y-114578221D01*
X156999579Y-114591402D01*
X156983814Y-114603094D01*
X156966979Y-114613184D01*
X156949237Y-114621576D01*
X156930757Y-114628188D01*
X156911718Y-114632957D01*
X156892303Y-114635837D01*
X156872700Y-114636800D01*
X156322700Y-114636800D01*
X156303097Y-114635837D01*
X156283682Y-114632957D01*
X156264643Y-114628188D01*
X156246163Y-114621576D01*
X156228421Y-114613184D01*
X156211586Y-114603094D01*
X156195821Y-114591402D01*
X156181279Y-114578221D01*
X156168098Y-114563679D01*
X156156406Y-114547914D01*
X156146316Y-114531079D01*
X156137924Y-114513337D01*
X156131312Y-114494857D01*
X156126543Y-114475818D01*
X156123663Y-114456403D01*
X156122700Y-114436800D01*
X156122700Y-114036800D01*
X156123663Y-114017197D01*
X156126543Y-113997782D01*
X156131312Y-113978743D01*
X156137924Y-113960263D01*
X156146316Y-113942521D01*
X156156406Y-113925686D01*
X156168098Y-113909921D01*
X156181279Y-113895379D01*
X156195821Y-113882198D01*
X156211586Y-113870506D01*
X156228421Y-113860416D01*
X156246163Y-113852024D01*
X156264643Y-113845412D01*
X156283682Y-113840643D01*
X156303097Y-113837763D01*
X156322700Y-113836800D01*
X156872700Y-113836800D01*
X156892303Y-113837763D01*
G37*
D24*
X151212500Y-97052900D03*
X151212500Y-101652900D03*
X151212500Y-99352900D03*
D25*
X157512500Y-99352900D03*
D17*
G36*
X141781003Y-109026163D02*
G01*
X141800418Y-109029043D01*
X141819457Y-109033812D01*
X141837937Y-109040424D01*
X141855679Y-109048816D01*
X141872514Y-109058906D01*
X141888279Y-109070598D01*
X141902821Y-109083779D01*
X141916002Y-109098321D01*
X141927694Y-109114086D01*
X141937784Y-109130921D01*
X141946176Y-109148663D01*
X141952788Y-109167143D01*
X141957557Y-109186182D01*
X141960437Y-109205597D01*
X141961400Y-109225200D01*
X141961400Y-109775200D01*
X141960437Y-109794803D01*
X141957557Y-109814218D01*
X141952788Y-109833257D01*
X141946176Y-109851737D01*
X141937784Y-109869479D01*
X141927694Y-109886314D01*
X141916002Y-109902079D01*
X141902821Y-109916621D01*
X141888279Y-109929802D01*
X141872514Y-109941494D01*
X141855679Y-109951584D01*
X141837937Y-109959976D01*
X141819457Y-109966588D01*
X141800418Y-109971357D01*
X141781003Y-109974237D01*
X141761400Y-109975200D01*
X141361400Y-109975200D01*
X141341797Y-109974237D01*
X141322382Y-109971357D01*
X141303343Y-109966588D01*
X141284863Y-109959976D01*
X141267121Y-109951584D01*
X141250286Y-109941494D01*
X141234521Y-109929802D01*
X141219979Y-109916621D01*
X141206798Y-109902079D01*
X141195106Y-109886314D01*
X141185016Y-109869479D01*
X141176624Y-109851737D01*
X141170012Y-109833257D01*
X141165243Y-109814218D01*
X141162363Y-109794803D01*
X141161400Y-109775200D01*
X141161400Y-109225200D01*
X141162363Y-109205597D01*
X141165243Y-109186182D01*
X141170012Y-109167143D01*
X141176624Y-109148663D01*
X141185016Y-109130921D01*
X141195106Y-109114086D01*
X141206798Y-109098321D01*
X141219979Y-109083779D01*
X141234521Y-109070598D01*
X141250286Y-109058906D01*
X141267121Y-109048816D01*
X141284863Y-109040424D01*
X141303343Y-109033812D01*
X141322382Y-109029043D01*
X141341797Y-109026163D01*
X141361400Y-109025200D01*
X141761400Y-109025200D01*
X141781003Y-109026163D01*
G37*
G36*
X143431003Y-109026163D02*
G01*
X143450418Y-109029043D01*
X143469457Y-109033812D01*
X143487937Y-109040424D01*
X143505679Y-109048816D01*
X143522514Y-109058906D01*
X143538279Y-109070598D01*
X143552821Y-109083779D01*
X143566002Y-109098321D01*
X143577694Y-109114086D01*
X143587784Y-109130921D01*
X143596176Y-109148663D01*
X143602788Y-109167143D01*
X143607557Y-109186182D01*
X143610437Y-109205597D01*
X143611400Y-109225200D01*
X143611400Y-109775200D01*
X143610437Y-109794803D01*
X143607557Y-109814218D01*
X143602788Y-109833257D01*
X143596176Y-109851737D01*
X143587784Y-109869479D01*
X143577694Y-109886314D01*
X143566002Y-109902079D01*
X143552821Y-109916621D01*
X143538279Y-109929802D01*
X143522514Y-109941494D01*
X143505679Y-109951584D01*
X143487937Y-109959976D01*
X143469457Y-109966588D01*
X143450418Y-109971357D01*
X143431003Y-109974237D01*
X143411400Y-109975200D01*
X143011400Y-109975200D01*
X142991797Y-109974237D01*
X142972382Y-109971357D01*
X142953343Y-109966588D01*
X142934863Y-109959976D01*
X142917121Y-109951584D01*
X142900286Y-109941494D01*
X142884521Y-109929802D01*
X142869979Y-109916621D01*
X142856798Y-109902079D01*
X142845106Y-109886314D01*
X142835016Y-109869479D01*
X142826624Y-109851737D01*
X142820012Y-109833257D01*
X142815243Y-109814218D01*
X142812363Y-109794803D01*
X142811400Y-109775200D01*
X142811400Y-109225200D01*
X142812363Y-109205597D01*
X142815243Y-109186182D01*
X142820012Y-109167143D01*
X142826624Y-109148663D01*
X142835016Y-109130921D01*
X142845106Y-109114086D01*
X142856798Y-109098321D01*
X142869979Y-109083779D01*
X142884521Y-109070598D01*
X142900286Y-109058906D01*
X142917121Y-109048816D01*
X142934863Y-109040424D01*
X142953343Y-109033812D01*
X142972382Y-109029043D01*
X142991797Y-109026163D01*
X143011400Y-109025200D01*
X143411400Y-109025200D01*
X143431003Y-109026163D01*
G37*
G36*
X143471954Y-112810883D02*
G01*
X143493795Y-112814123D01*
X143515214Y-112819488D01*
X143536004Y-112826927D01*
X143555964Y-112836368D01*
X143574903Y-112847719D01*
X143592638Y-112860873D01*
X143608999Y-112875701D01*
X143623827Y-112892062D01*
X143636981Y-112909797D01*
X143648332Y-112928736D01*
X143657773Y-112948696D01*
X143665212Y-112969486D01*
X143670577Y-112990905D01*
X143673817Y-113012746D01*
X143674900Y-113034800D01*
X143674900Y-113534800D01*
X143673817Y-113556854D01*
X143670577Y-113578695D01*
X143665212Y-113600114D01*
X143657773Y-113620904D01*
X143648332Y-113640864D01*
X143636981Y-113659803D01*
X143623827Y-113677538D01*
X143608999Y-113693899D01*
X143592638Y-113708727D01*
X143574903Y-113721881D01*
X143555964Y-113733232D01*
X143536004Y-113742673D01*
X143515214Y-113750112D01*
X143493795Y-113755477D01*
X143471954Y-113758717D01*
X143449900Y-113759800D01*
X142999900Y-113759800D01*
X142977846Y-113758717D01*
X142956005Y-113755477D01*
X142934586Y-113750112D01*
X142913796Y-113742673D01*
X142893836Y-113733232D01*
X142874897Y-113721881D01*
X142857162Y-113708727D01*
X142840801Y-113693899D01*
X142825973Y-113677538D01*
X142812819Y-113659803D01*
X142801468Y-113640864D01*
X142792027Y-113620904D01*
X142784588Y-113600114D01*
X142779223Y-113578695D01*
X142775983Y-113556854D01*
X142774900Y-113534800D01*
X142774900Y-113034800D01*
X142775983Y-113012746D01*
X142779223Y-112990905D01*
X142784588Y-112969486D01*
X142792027Y-112948696D01*
X142801468Y-112928736D01*
X142812819Y-112909797D01*
X142825973Y-112892062D01*
X142840801Y-112875701D01*
X142857162Y-112860873D01*
X142874897Y-112847719D01*
X142893836Y-112836368D01*
X142913796Y-112826927D01*
X142934586Y-112819488D01*
X142956005Y-112814123D01*
X142977846Y-112810883D01*
X142999900Y-112809800D01*
X143449900Y-112809800D01*
X143471954Y-112810883D01*
G37*
G36*
X141921954Y-112810883D02*
G01*
X141943795Y-112814123D01*
X141965214Y-112819488D01*
X141986004Y-112826927D01*
X142005964Y-112836368D01*
X142024903Y-112847719D01*
X142042638Y-112860873D01*
X142058999Y-112875701D01*
X142073827Y-112892062D01*
X142086981Y-112909797D01*
X142098332Y-112928736D01*
X142107773Y-112948696D01*
X142115212Y-112969486D01*
X142120577Y-112990905D01*
X142123817Y-113012746D01*
X142124900Y-113034800D01*
X142124900Y-113534800D01*
X142123817Y-113556854D01*
X142120577Y-113578695D01*
X142115212Y-113600114D01*
X142107773Y-113620904D01*
X142098332Y-113640864D01*
X142086981Y-113659803D01*
X142073827Y-113677538D01*
X142058999Y-113693899D01*
X142042638Y-113708727D01*
X142024903Y-113721881D01*
X142005964Y-113733232D01*
X141986004Y-113742673D01*
X141965214Y-113750112D01*
X141943795Y-113755477D01*
X141921954Y-113758717D01*
X141899900Y-113759800D01*
X141449900Y-113759800D01*
X141427846Y-113758717D01*
X141406005Y-113755477D01*
X141384586Y-113750112D01*
X141363796Y-113742673D01*
X141343836Y-113733232D01*
X141324897Y-113721881D01*
X141307162Y-113708727D01*
X141290801Y-113693899D01*
X141275973Y-113677538D01*
X141262819Y-113659803D01*
X141251468Y-113640864D01*
X141242027Y-113620904D01*
X141234588Y-113600114D01*
X141229223Y-113578695D01*
X141225983Y-113556854D01*
X141224900Y-113534800D01*
X141224900Y-113034800D01*
X141225983Y-113012746D01*
X141229223Y-112990905D01*
X141234588Y-112969486D01*
X141242027Y-112948696D01*
X141251468Y-112928736D01*
X141262819Y-112909797D01*
X141275973Y-112892062D01*
X141290801Y-112875701D01*
X141307162Y-112860873D01*
X141324897Y-112847719D01*
X141343836Y-112836368D01*
X141363796Y-112826927D01*
X141384586Y-112819488D01*
X141406005Y-112814123D01*
X141427846Y-112810883D01*
X141449900Y-112809800D01*
X141899900Y-112809800D01*
X141921954Y-112810883D01*
G37*
G36*
X145554054Y-96135083D02*
G01*
X145575895Y-96138323D01*
X145597314Y-96143688D01*
X145618104Y-96151127D01*
X145638064Y-96160568D01*
X145657003Y-96171919D01*
X145674738Y-96185073D01*
X145691099Y-96199901D01*
X145705927Y-96216262D01*
X145719081Y-96233997D01*
X145730432Y-96252936D01*
X145739873Y-96272896D01*
X145747312Y-96293686D01*
X145752677Y-96315105D01*
X145755917Y-96336946D01*
X145757000Y-96359000D01*
X145757000Y-96809000D01*
X145755917Y-96831054D01*
X145752677Y-96852895D01*
X145747312Y-96874314D01*
X145739873Y-96895104D01*
X145730432Y-96915064D01*
X145719081Y-96934003D01*
X145705927Y-96951738D01*
X145691099Y-96968099D01*
X145674738Y-96982927D01*
X145657003Y-96996081D01*
X145638064Y-97007432D01*
X145618104Y-97016873D01*
X145597314Y-97024312D01*
X145575895Y-97029677D01*
X145554054Y-97032917D01*
X145532000Y-97034000D01*
X145032000Y-97034000D01*
X145009946Y-97032917D01*
X144988105Y-97029677D01*
X144966686Y-97024312D01*
X144945896Y-97016873D01*
X144925936Y-97007432D01*
X144906997Y-96996081D01*
X144889262Y-96982927D01*
X144872901Y-96968099D01*
X144858073Y-96951738D01*
X144844919Y-96934003D01*
X144833568Y-96915064D01*
X144824127Y-96895104D01*
X144816688Y-96874314D01*
X144811323Y-96852895D01*
X144808083Y-96831054D01*
X144807000Y-96809000D01*
X144807000Y-96359000D01*
X144808083Y-96336946D01*
X144811323Y-96315105D01*
X144816688Y-96293686D01*
X144824127Y-96272896D01*
X144833568Y-96252936D01*
X144844919Y-96233997D01*
X144858073Y-96216262D01*
X144872901Y-96199901D01*
X144889262Y-96185073D01*
X144906997Y-96171919D01*
X144925936Y-96160568D01*
X144945896Y-96151127D01*
X144966686Y-96143688D01*
X144988105Y-96138323D01*
X145009946Y-96135083D01*
X145032000Y-96134000D01*
X145532000Y-96134000D01*
X145554054Y-96135083D01*
G37*
G36*
X145554054Y-97685083D02*
G01*
X145575895Y-97688323D01*
X145597314Y-97693688D01*
X145618104Y-97701127D01*
X145638064Y-97710568D01*
X145657003Y-97721919D01*
X145674738Y-97735073D01*
X145691099Y-97749901D01*
X145705927Y-97766262D01*
X145719081Y-97783997D01*
X145730432Y-97802936D01*
X145739873Y-97822896D01*
X145747312Y-97843686D01*
X145752677Y-97865105D01*
X145755917Y-97886946D01*
X145757000Y-97909000D01*
X145757000Y-98359000D01*
X145755917Y-98381054D01*
X145752677Y-98402895D01*
X145747312Y-98424314D01*
X145739873Y-98445104D01*
X145730432Y-98465064D01*
X145719081Y-98484003D01*
X145705927Y-98501738D01*
X145691099Y-98518099D01*
X145674738Y-98532927D01*
X145657003Y-98546081D01*
X145638064Y-98557432D01*
X145618104Y-98566873D01*
X145597314Y-98574312D01*
X145575895Y-98579677D01*
X145554054Y-98582917D01*
X145532000Y-98584000D01*
X145032000Y-98584000D01*
X145009946Y-98582917D01*
X144988105Y-98579677D01*
X144966686Y-98574312D01*
X144945896Y-98566873D01*
X144925936Y-98557432D01*
X144906997Y-98546081D01*
X144889262Y-98532927D01*
X144872901Y-98518099D01*
X144858073Y-98501738D01*
X144844919Y-98484003D01*
X144833568Y-98465064D01*
X144824127Y-98445104D01*
X144816688Y-98424314D01*
X144811323Y-98402895D01*
X144808083Y-98381054D01*
X144807000Y-98359000D01*
X144807000Y-97909000D01*
X144808083Y-97886946D01*
X144811323Y-97865105D01*
X144816688Y-97843686D01*
X144824127Y-97822896D01*
X144833568Y-97802936D01*
X144844919Y-97783997D01*
X144858073Y-97766262D01*
X144872901Y-97749901D01*
X144889262Y-97735073D01*
X144906997Y-97721919D01*
X144925936Y-97710568D01*
X144945896Y-97701127D01*
X144966686Y-97693688D01*
X144988105Y-97688323D01*
X145009946Y-97685083D01*
X145032000Y-97684000D01*
X145532000Y-97684000D01*
X145554054Y-97685083D01*
G37*
G36*
X145541354Y-101672583D02*
G01*
X145563195Y-101675823D01*
X145584614Y-101681188D01*
X145605404Y-101688627D01*
X145625364Y-101698068D01*
X145644303Y-101709419D01*
X145662038Y-101722573D01*
X145678399Y-101737401D01*
X145693227Y-101753762D01*
X145706381Y-101771497D01*
X145717732Y-101790436D01*
X145727173Y-101810396D01*
X145734612Y-101831186D01*
X145739977Y-101852605D01*
X145743217Y-101874446D01*
X145744300Y-101896500D01*
X145744300Y-102346500D01*
X145743217Y-102368554D01*
X145739977Y-102390395D01*
X145734612Y-102411814D01*
X145727173Y-102432604D01*
X145717732Y-102452564D01*
X145706381Y-102471503D01*
X145693227Y-102489238D01*
X145678399Y-102505599D01*
X145662038Y-102520427D01*
X145644303Y-102533581D01*
X145625364Y-102544932D01*
X145605404Y-102554373D01*
X145584614Y-102561812D01*
X145563195Y-102567177D01*
X145541354Y-102570417D01*
X145519300Y-102571500D01*
X145019300Y-102571500D01*
X144997246Y-102570417D01*
X144975405Y-102567177D01*
X144953986Y-102561812D01*
X144933196Y-102554373D01*
X144913236Y-102544932D01*
X144894297Y-102533581D01*
X144876562Y-102520427D01*
X144860201Y-102505599D01*
X144845373Y-102489238D01*
X144832219Y-102471503D01*
X144820868Y-102452564D01*
X144811427Y-102432604D01*
X144803988Y-102411814D01*
X144798623Y-102390395D01*
X144795383Y-102368554D01*
X144794300Y-102346500D01*
X144794300Y-101896500D01*
X144795383Y-101874446D01*
X144798623Y-101852605D01*
X144803988Y-101831186D01*
X144811427Y-101810396D01*
X144820868Y-101790436D01*
X144832219Y-101771497D01*
X144845373Y-101753762D01*
X144860201Y-101737401D01*
X144876562Y-101722573D01*
X144894297Y-101709419D01*
X144913236Y-101698068D01*
X144933196Y-101688627D01*
X144953986Y-101681188D01*
X144975405Y-101675823D01*
X144997246Y-101672583D01*
X145019300Y-101671500D01*
X145519300Y-101671500D01*
X145541354Y-101672583D01*
G37*
G36*
X145541354Y-100122583D02*
G01*
X145563195Y-100125823D01*
X145584614Y-100131188D01*
X145605404Y-100138627D01*
X145625364Y-100148068D01*
X145644303Y-100159419D01*
X145662038Y-100172573D01*
X145678399Y-100187401D01*
X145693227Y-100203762D01*
X145706381Y-100221497D01*
X145717732Y-100240436D01*
X145727173Y-100260396D01*
X145734612Y-100281186D01*
X145739977Y-100302605D01*
X145743217Y-100324446D01*
X145744300Y-100346500D01*
X145744300Y-100796500D01*
X145743217Y-100818554D01*
X145739977Y-100840395D01*
X145734612Y-100861814D01*
X145727173Y-100882604D01*
X145717732Y-100902564D01*
X145706381Y-100921503D01*
X145693227Y-100939238D01*
X145678399Y-100955599D01*
X145662038Y-100970427D01*
X145644303Y-100983581D01*
X145625364Y-100994932D01*
X145605404Y-101004373D01*
X145584614Y-101011812D01*
X145563195Y-101017177D01*
X145541354Y-101020417D01*
X145519300Y-101021500D01*
X145019300Y-101021500D01*
X144997246Y-101020417D01*
X144975405Y-101017177D01*
X144953986Y-101011812D01*
X144933196Y-101004373D01*
X144913236Y-100994932D01*
X144894297Y-100983581D01*
X144876562Y-100970427D01*
X144860201Y-100955599D01*
X144845373Y-100939238D01*
X144832219Y-100921503D01*
X144820868Y-100902564D01*
X144811427Y-100882604D01*
X144803988Y-100861814D01*
X144798623Y-100840395D01*
X144795383Y-100818554D01*
X144794300Y-100796500D01*
X144794300Y-100346500D01*
X144795383Y-100324446D01*
X144798623Y-100302605D01*
X144803988Y-100281186D01*
X144811427Y-100260396D01*
X144820868Y-100240436D01*
X144832219Y-100221497D01*
X144845373Y-100203762D01*
X144860201Y-100187401D01*
X144876562Y-100172573D01*
X144894297Y-100159419D01*
X144913236Y-100148068D01*
X144933196Y-100138627D01*
X144953986Y-100131188D01*
X144975405Y-100125823D01*
X144997246Y-100122583D01*
X145019300Y-100121500D01*
X145519300Y-100121500D01*
X145541354Y-100122583D01*
G37*
G36*
X149097354Y-101723683D02*
G01*
X149119195Y-101726923D01*
X149140614Y-101732288D01*
X149161404Y-101739727D01*
X149181364Y-101749168D01*
X149200303Y-101760519D01*
X149218038Y-101773673D01*
X149234399Y-101788501D01*
X149249227Y-101804862D01*
X149262381Y-101822597D01*
X149273732Y-101841536D01*
X149283173Y-101861496D01*
X149290612Y-101882286D01*
X149295977Y-101903705D01*
X149299217Y-101925546D01*
X149300300Y-101947600D01*
X149300300Y-102397600D01*
X149299217Y-102419654D01*
X149295977Y-102441495D01*
X149290612Y-102462914D01*
X149283173Y-102483704D01*
X149273732Y-102503664D01*
X149262381Y-102522603D01*
X149249227Y-102540338D01*
X149234399Y-102556699D01*
X149218038Y-102571527D01*
X149200303Y-102584681D01*
X149181364Y-102596032D01*
X149161404Y-102605473D01*
X149140614Y-102612912D01*
X149119195Y-102618277D01*
X149097354Y-102621517D01*
X149075300Y-102622600D01*
X148575300Y-102622600D01*
X148553246Y-102621517D01*
X148531405Y-102618277D01*
X148509986Y-102612912D01*
X148489196Y-102605473D01*
X148469236Y-102596032D01*
X148450297Y-102584681D01*
X148432562Y-102571527D01*
X148416201Y-102556699D01*
X148401373Y-102540338D01*
X148388219Y-102522603D01*
X148376868Y-102503664D01*
X148367427Y-102483704D01*
X148359988Y-102462914D01*
X148354623Y-102441495D01*
X148351383Y-102419654D01*
X148350300Y-102397600D01*
X148350300Y-101947600D01*
X148351383Y-101925546D01*
X148354623Y-101903705D01*
X148359988Y-101882286D01*
X148367427Y-101861496D01*
X148376868Y-101841536D01*
X148388219Y-101822597D01*
X148401373Y-101804862D01*
X148416201Y-101788501D01*
X148432562Y-101773673D01*
X148450297Y-101760519D01*
X148469236Y-101749168D01*
X148489196Y-101739727D01*
X148509986Y-101732288D01*
X148531405Y-101726923D01*
X148553246Y-101723683D01*
X148575300Y-101722600D01*
X149075300Y-101722600D01*
X149097354Y-101723683D01*
G37*
G36*
X149097354Y-100173683D02*
G01*
X149119195Y-100176923D01*
X149140614Y-100182288D01*
X149161404Y-100189727D01*
X149181364Y-100199168D01*
X149200303Y-100210519D01*
X149218038Y-100223673D01*
X149234399Y-100238501D01*
X149249227Y-100254862D01*
X149262381Y-100272597D01*
X149273732Y-100291536D01*
X149283173Y-100311496D01*
X149290612Y-100332286D01*
X149295977Y-100353705D01*
X149299217Y-100375546D01*
X149300300Y-100397600D01*
X149300300Y-100847600D01*
X149299217Y-100869654D01*
X149295977Y-100891495D01*
X149290612Y-100912914D01*
X149283173Y-100933704D01*
X149273732Y-100953664D01*
X149262381Y-100972603D01*
X149249227Y-100990338D01*
X149234399Y-101006699D01*
X149218038Y-101021527D01*
X149200303Y-101034681D01*
X149181364Y-101046032D01*
X149161404Y-101055473D01*
X149140614Y-101062912D01*
X149119195Y-101068277D01*
X149097354Y-101071517D01*
X149075300Y-101072600D01*
X148575300Y-101072600D01*
X148553246Y-101071517D01*
X148531405Y-101068277D01*
X148509986Y-101062912D01*
X148489196Y-101055473D01*
X148469236Y-101046032D01*
X148450297Y-101034681D01*
X148432562Y-101021527D01*
X148416201Y-101006699D01*
X148401373Y-100990338D01*
X148388219Y-100972603D01*
X148376868Y-100953664D01*
X148367427Y-100933704D01*
X148359988Y-100912914D01*
X148354623Y-100891495D01*
X148351383Y-100869654D01*
X148350300Y-100847600D01*
X148350300Y-100397600D01*
X148351383Y-100375546D01*
X148354623Y-100353705D01*
X148359988Y-100332286D01*
X148367427Y-100311496D01*
X148376868Y-100291536D01*
X148388219Y-100272597D01*
X148401373Y-100254862D01*
X148416201Y-100238501D01*
X148432562Y-100223673D01*
X148450297Y-100210519D01*
X148469236Y-100199168D01*
X148489196Y-100189727D01*
X148509986Y-100182288D01*
X148531405Y-100176923D01*
X148553246Y-100173683D01*
X148575300Y-100172600D01*
X149075300Y-100172600D01*
X149097354Y-100173683D01*
G37*
G36*
X156905003Y-117304863D02*
G01*
X156924418Y-117307743D01*
X156943457Y-117312512D01*
X156961937Y-117319124D01*
X156979679Y-117327516D01*
X156996514Y-117337606D01*
X157012279Y-117349298D01*
X157026821Y-117362479D01*
X157040002Y-117377021D01*
X157051694Y-117392786D01*
X157061784Y-117409621D01*
X157070176Y-117427363D01*
X157076788Y-117445843D01*
X157081557Y-117464882D01*
X157084437Y-117484297D01*
X157085400Y-117503900D01*
X157085400Y-117903900D01*
X157084437Y-117923503D01*
X157081557Y-117942918D01*
X157076788Y-117961957D01*
X157070176Y-117980437D01*
X157061784Y-117998179D01*
X157051694Y-118015014D01*
X157040002Y-118030779D01*
X157026821Y-118045321D01*
X157012279Y-118058502D01*
X156996514Y-118070194D01*
X156979679Y-118080284D01*
X156961937Y-118088676D01*
X156943457Y-118095288D01*
X156924418Y-118100057D01*
X156905003Y-118102937D01*
X156885400Y-118103900D01*
X156335400Y-118103900D01*
X156315797Y-118102937D01*
X156296382Y-118100057D01*
X156277343Y-118095288D01*
X156258863Y-118088676D01*
X156241121Y-118080284D01*
X156224286Y-118070194D01*
X156208521Y-118058502D01*
X156193979Y-118045321D01*
X156180798Y-118030779D01*
X156169106Y-118015014D01*
X156159016Y-117998179D01*
X156150624Y-117980437D01*
X156144012Y-117961957D01*
X156139243Y-117942918D01*
X156136363Y-117923503D01*
X156135400Y-117903900D01*
X156135400Y-117503900D01*
X156136363Y-117484297D01*
X156139243Y-117464882D01*
X156144012Y-117445843D01*
X156150624Y-117427363D01*
X156159016Y-117409621D01*
X156169106Y-117392786D01*
X156180798Y-117377021D01*
X156193979Y-117362479D01*
X156208521Y-117349298D01*
X156224286Y-117337606D01*
X156241121Y-117327516D01*
X156258863Y-117319124D01*
X156277343Y-117312512D01*
X156296382Y-117307743D01*
X156315797Y-117304863D01*
X156335400Y-117303900D01*
X156885400Y-117303900D01*
X156905003Y-117304863D01*
G37*
G36*
X156905003Y-115654863D02*
G01*
X156924418Y-115657743D01*
X156943457Y-115662512D01*
X156961937Y-115669124D01*
X156979679Y-115677516D01*
X156996514Y-115687606D01*
X157012279Y-115699298D01*
X157026821Y-115712479D01*
X157040002Y-115727021D01*
X157051694Y-115742786D01*
X157061784Y-115759621D01*
X157070176Y-115777363D01*
X157076788Y-115795843D01*
X157081557Y-115814882D01*
X157084437Y-115834297D01*
X157085400Y-115853900D01*
X157085400Y-116253900D01*
X157084437Y-116273503D01*
X157081557Y-116292918D01*
X157076788Y-116311957D01*
X157070176Y-116330437D01*
X157061784Y-116348179D01*
X157051694Y-116365014D01*
X157040002Y-116380779D01*
X157026821Y-116395321D01*
X157012279Y-116408502D01*
X156996514Y-116420194D01*
X156979679Y-116430284D01*
X156961937Y-116438676D01*
X156943457Y-116445288D01*
X156924418Y-116450057D01*
X156905003Y-116452937D01*
X156885400Y-116453900D01*
X156335400Y-116453900D01*
X156315797Y-116452937D01*
X156296382Y-116450057D01*
X156277343Y-116445288D01*
X156258863Y-116438676D01*
X156241121Y-116430284D01*
X156224286Y-116420194D01*
X156208521Y-116408502D01*
X156193979Y-116395321D01*
X156180798Y-116380779D01*
X156169106Y-116365014D01*
X156159016Y-116348179D01*
X156150624Y-116330437D01*
X156144012Y-116311957D01*
X156139243Y-116292918D01*
X156136363Y-116273503D01*
X156135400Y-116253900D01*
X156135400Y-115853900D01*
X156136363Y-115834297D01*
X156139243Y-115814882D01*
X156144012Y-115795843D01*
X156150624Y-115777363D01*
X156159016Y-115759621D01*
X156169106Y-115742786D01*
X156180798Y-115727021D01*
X156193979Y-115712479D01*
X156208521Y-115699298D01*
X156224286Y-115687606D01*
X156241121Y-115677516D01*
X156258863Y-115669124D01*
X156277343Y-115662512D01*
X156296382Y-115657743D01*
X156315797Y-115654863D01*
X156335400Y-115653900D01*
X156885400Y-115653900D01*
X156905003Y-115654863D01*
G37*
M02*
