%TF.GenerationSoftware,KiCad,Pcbnew,5.1.5+dfsg1-2build2*%
%TF.CreationDate,2021-06-12T01:28:48+05:30*%
%TF.ProjectId,USBee32-S2,55534265-6533-4322-9d53-322e6b696361,rev?*%
%TF.SameCoordinates,Original*%
%TF.FileFunction,Legend,Top*%
%TF.FilePolarity,Positive*%
%FSLAX46Y46*%
G04 Gerber Fmt 4.6, Leading zero omitted, Abs format (unit mm)*
G04 Created by KiCad (PCBNEW 5.1.5+dfsg1-2build2) date 2021-06-12 01:28:48*
%MOMM*%
%LPD*%
G04 APERTURE LIST*
%ADD10C,0.100000*%
%ADD11C,0.150000*%
%ADD12C,0.010000*%
%ADD13C,0.200000*%
%ADD14C,0.120000*%
%ADD15C,0.127000*%
%ADD16C,0.300000*%
%ADD17C,0.125000*%
G04 APERTURE END LIST*
D10*
X149051514Y-123533676D02*
X149051514Y-123152723D01*
X149241990Y-123343200D02*
X148861038Y-123343200D01*
D11*
X140741695Y-84063666D02*
X140741695Y-83730333D01*
X140360742Y-83697000D01*
X140398838Y-83730333D01*
X140436933Y-83797000D01*
X140436933Y-83963666D01*
X140398838Y-84030333D01*
X140360742Y-84063666D01*
X140284552Y-84097000D01*
X140094076Y-84097000D01*
X140017885Y-84063666D01*
X139979790Y-84030333D01*
X139941695Y-83963666D01*
X139941695Y-83797000D01*
X139979790Y-83730333D01*
X140017885Y-83697000D01*
X141699800Y-96825571D02*
X141699800Y-96368428D01*
X141966466Y-96597000D02*
X141433133Y-96597000D01*
X139992495Y-111551266D02*
X139992495Y-111151266D01*
X139992495Y-111351266D02*
X140792495Y-111351266D01*
X140678209Y-111284600D01*
X140602019Y-111217933D01*
X140563923Y-111151266D01*
X140792495Y-112151266D02*
X140792495Y-112017933D01*
X140754400Y-111951266D01*
X140716304Y-111917933D01*
X140602019Y-111851266D01*
X140449638Y-111817933D01*
X140144876Y-111817933D01*
X140068685Y-111851266D01*
X140030590Y-111884600D01*
X139992495Y-111951266D01*
X139992495Y-112084600D01*
X140030590Y-112151266D01*
X140068685Y-112184600D01*
X140144876Y-112217933D01*
X140335352Y-112217933D01*
X140411542Y-112184600D01*
X140449638Y-112151266D01*
X140487733Y-112084600D01*
X140487733Y-111951266D01*
X140449638Y-111884600D01*
X140411542Y-111851266D01*
X140335352Y-111817933D01*
X160871304Y-122397000D02*
X161671304Y-122163666D01*
X160871304Y-121930333D01*
X161671304Y-121697000D02*
X160871304Y-121697000D01*
X160909400Y-109830333D02*
X160871304Y-109897000D01*
X160871304Y-109997000D01*
X160909400Y-110097000D01*
X160985590Y-110163666D01*
X161061780Y-110197000D01*
X161214161Y-110230333D01*
X161328447Y-110230333D01*
X161480828Y-110197000D01*
X161557019Y-110163666D01*
X161633209Y-110097000D01*
X161671304Y-109997000D01*
X161671304Y-109930333D01*
X161633209Y-109830333D01*
X161595114Y-109797000D01*
X161328447Y-109797000D01*
X161328447Y-109930333D01*
X161671304Y-109497000D02*
X160871304Y-109497000D01*
X161671304Y-109097000D01*
X160871304Y-109097000D01*
X161671304Y-108763666D02*
X160871304Y-108763666D01*
X160871304Y-108597000D01*
X160909400Y-108497000D01*
X160985590Y-108430333D01*
X161061780Y-108397000D01*
X161214161Y-108363666D01*
X161328447Y-108363666D01*
X161480828Y-108397000D01*
X161557019Y-108430333D01*
X161633209Y-108497000D01*
X161671304Y-108597000D01*
X161671304Y-108763666D01*
X141991866Y-98895600D02*
X141291866Y-98895600D01*
X141291866Y-98667028D01*
X141325200Y-98609885D01*
X141358533Y-98581314D01*
X141425200Y-98552742D01*
X141525200Y-98552742D01*
X141591866Y-98581314D01*
X141625200Y-98609885D01*
X141658533Y-98667028D01*
X141658533Y-98895600D01*
X141291866Y-98352742D02*
X141991866Y-98209885D01*
X141491866Y-98095600D01*
X141991866Y-97981314D01*
X141291866Y-97838457D01*
X141991866Y-97267028D02*
X141658533Y-97467028D01*
X141991866Y-97609885D02*
X141291866Y-97609885D01*
X141291866Y-97381314D01*
X141325200Y-97324171D01*
X141358533Y-97295600D01*
X141425200Y-97267028D01*
X141525200Y-97267028D01*
X141591866Y-97295600D01*
X141625200Y-97324171D01*
X141658533Y-97381314D01*
X141658533Y-97609885D01*
D10*
X137466742Y-116775657D02*
X137466742Y-116575657D01*
X137781028Y-116489942D02*
X137781028Y-116775657D01*
X137181028Y-116775657D01*
X137181028Y-116489942D01*
X137781028Y-116232800D02*
X137181028Y-116232800D01*
X137781028Y-115889942D01*
X137181028Y-115889942D01*
X137466742Y-121668285D02*
X137495314Y-121582571D01*
X137523885Y-121554000D01*
X137581028Y-121525428D01*
X137666742Y-121525428D01*
X137723885Y-121554000D01*
X137752457Y-121582571D01*
X137781028Y-121639714D01*
X137781028Y-121868285D01*
X137181028Y-121868285D01*
X137181028Y-121668285D01*
X137209600Y-121611142D01*
X137238171Y-121582571D01*
X137295314Y-121554000D01*
X137352457Y-121554000D01*
X137409600Y-121582571D01*
X137438171Y-121611142D01*
X137466742Y-121668285D01*
X137466742Y-121868285D01*
X137181028Y-121154000D02*
X137181028Y-121039714D01*
X137209600Y-120982571D01*
X137266742Y-120925428D01*
X137381028Y-120896857D01*
X137581028Y-120896857D01*
X137695314Y-120925428D01*
X137752457Y-120982571D01*
X137781028Y-121039714D01*
X137781028Y-121154000D01*
X137752457Y-121211142D01*
X137695314Y-121268285D01*
X137581028Y-121296857D01*
X137381028Y-121296857D01*
X137266742Y-121268285D01*
X137209600Y-121211142D01*
X137181028Y-121154000D01*
X137181028Y-120525428D02*
X137181028Y-120411142D01*
X137209600Y-120354000D01*
X137266742Y-120296857D01*
X137381028Y-120268285D01*
X137581028Y-120268285D01*
X137695314Y-120296857D01*
X137752457Y-120354000D01*
X137781028Y-120411142D01*
X137781028Y-120525428D01*
X137752457Y-120582571D01*
X137695314Y-120639714D01*
X137581028Y-120668285D01*
X137381028Y-120668285D01*
X137266742Y-120639714D01*
X137209600Y-120582571D01*
X137181028Y-120525428D01*
X137181028Y-120096857D02*
X137181028Y-119754000D01*
X137781028Y-119925428D02*
X137181028Y-119925428D01*
D11*
X160947495Y-107188733D02*
X160909400Y-107155400D01*
X160871304Y-107088733D01*
X160871304Y-106922066D01*
X160909400Y-106855400D01*
X160947495Y-106822066D01*
X161023685Y-106788733D01*
X161099876Y-106788733D01*
X161214161Y-106822066D01*
X161671304Y-107222066D01*
X161671304Y-106788733D01*
X160871304Y-106188733D02*
X160871304Y-106322066D01*
X160909400Y-106388733D01*
X160947495Y-106422066D01*
X161061780Y-106488733D01*
X161214161Y-106522066D01*
X161518923Y-106522066D01*
X161595114Y-106488733D01*
X161633209Y-106455400D01*
X161671304Y-106388733D01*
X161671304Y-106255400D01*
X161633209Y-106188733D01*
X161595114Y-106155400D01*
X161518923Y-106122066D01*
X161328447Y-106122066D01*
X161252257Y-106155400D01*
X161214161Y-106188733D01*
X161176066Y-106255400D01*
X161176066Y-106388733D01*
X161214161Y-106455400D01*
X161252257Y-106488733D01*
X161328447Y-106522066D01*
X161611904Y-119383333D02*
X161611904Y-119783333D01*
X161611904Y-119583333D02*
X160811904Y-119583333D01*
X160926190Y-119650000D01*
X161002380Y-119716666D01*
X161040476Y-119783333D01*
X160811904Y-119150000D02*
X160811904Y-118683333D01*
X161611904Y-118983333D01*
X161611904Y-116883333D02*
X161611904Y-117283333D01*
X161611904Y-117083333D02*
X160811904Y-117083333D01*
X160926190Y-117150000D01*
X161002380Y-117216666D01*
X161040476Y-117283333D01*
X161611904Y-116550000D02*
X161611904Y-116416666D01*
X161573809Y-116350000D01*
X161535714Y-116316666D01*
X161421428Y-116250000D01*
X161269047Y-116216666D01*
X160964285Y-116216666D01*
X160888095Y-116250000D01*
X160850000Y-116283333D01*
X160811904Y-116350000D01*
X160811904Y-116483333D01*
X160850000Y-116550000D01*
X160888095Y-116583333D01*
X160964285Y-116616666D01*
X161154761Y-116616666D01*
X161230952Y-116583333D01*
X161269047Y-116550000D01*
X161307142Y-116483333D01*
X161307142Y-116350000D01*
X161269047Y-116283333D01*
X161230952Y-116250000D01*
X161154761Y-116216666D01*
X160888095Y-114783333D02*
X160850000Y-114750000D01*
X160811904Y-114683333D01*
X160811904Y-114516666D01*
X160850000Y-114450000D01*
X160888095Y-114416666D01*
X160964285Y-114383333D01*
X161040476Y-114383333D01*
X161154761Y-114416666D01*
X161611904Y-114816666D01*
X161611904Y-114383333D01*
X160811904Y-113950000D02*
X160811904Y-113883333D01*
X160850000Y-113816666D01*
X160888095Y-113783333D01*
X160964285Y-113750000D01*
X161116666Y-113716666D01*
X161307142Y-113716666D01*
X161459523Y-113750000D01*
X161535714Y-113783333D01*
X161573809Y-113816666D01*
X161611904Y-113883333D01*
X161611904Y-113950000D01*
X161573809Y-114016666D01*
X161535714Y-114050000D01*
X161459523Y-114083333D01*
X161307142Y-114116666D01*
X161116666Y-114116666D01*
X160964285Y-114083333D01*
X160888095Y-114050000D01*
X160850000Y-114016666D01*
X160811904Y-113950000D01*
X160888095Y-112283333D02*
X160850000Y-112250000D01*
X160811904Y-112183333D01*
X160811904Y-112016666D01*
X160850000Y-111950000D01*
X160888095Y-111916666D01*
X160964285Y-111883333D01*
X161040476Y-111883333D01*
X161154761Y-111916666D01*
X161611904Y-112316666D01*
X161611904Y-111883333D01*
X161611904Y-111216666D02*
X161611904Y-111616666D01*
X161611904Y-111416666D02*
X160811904Y-111416666D01*
X160926190Y-111483333D01*
X161002380Y-111550000D01*
X161040476Y-111616666D01*
X160811904Y-104566666D02*
X160811904Y-104133333D01*
X161116666Y-104366666D01*
X161116666Y-104266666D01*
X161154761Y-104200000D01*
X161192857Y-104166666D01*
X161269047Y-104133333D01*
X161459523Y-104133333D01*
X161535714Y-104166666D01*
X161573809Y-104200000D01*
X161611904Y-104266666D01*
X161611904Y-104466666D01*
X161573809Y-104533333D01*
X161535714Y-104566666D01*
X160811904Y-103900000D02*
X160811904Y-103466666D01*
X161116666Y-103700000D01*
X161116666Y-103600000D01*
X161154761Y-103533333D01*
X161192857Y-103500000D01*
X161269047Y-103466666D01*
X161459523Y-103466666D01*
X161535714Y-103500000D01*
X161573809Y-103533333D01*
X161611904Y-103600000D01*
X161611904Y-103800000D01*
X161573809Y-103866666D01*
X161535714Y-103900000D01*
X160811904Y-102066666D02*
X160811904Y-101633333D01*
X161116666Y-101866666D01*
X161116666Y-101766666D01*
X161154761Y-101700000D01*
X161192857Y-101666666D01*
X161269047Y-101633333D01*
X161459523Y-101633333D01*
X161535714Y-101666666D01*
X161573809Y-101700000D01*
X161611904Y-101766666D01*
X161611904Y-101966666D01*
X161573809Y-102033333D01*
X161535714Y-102066666D01*
X161078571Y-101033333D02*
X161611904Y-101033333D01*
X160773809Y-101200000D02*
X161345238Y-101366666D01*
X161345238Y-100933333D01*
X160811904Y-99566666D02*
X160811904Y-99133333D01*
X161116666Y-99366666D01*
X161116666Y-99266666D01*
X161154761Y-99200000D01*
X161192857Y-99166666D01*
X161269047Y-99133333D01*
X161459523Y-99133333D01*
X161535714Y-99166666D01*
X161573809Y-99200000D01*
X161611904Y-99266666D01*
X161611904Y-99466666D01*
X161573809Y-99533333D01*
X161535714Y-99566666D01*
X160811904Y-98500000D02*
X160811904Y-98833333D01*
X161192857Y-98866666D01*
X161154761Y-98833333D01*
X161116666Y-98766666D01*
X161116666Y-98600000D01*
X161154761Y-98533333D01*
X161192857Y-98500000D01*
X161269047Y-98466666D01*
X161459523Y-98466666D01*
X161535714Y-98500000D01*
X161573809Y-98533333D01*
X161611904Y-98600000D01*
X161611904Y-98766666D01*
X161573809Y-98833333D01*
X161535714Y-98866666D01*
X160811904Y-97066666D02*
X160811904Y-96633333D01*
X161116666Y-96866666D01*
X161116666Y-96766666D01*
X161154761Y-96700000D01*
X161192857Y-96666666D01*
X161269047Y-96633333D01*
X161459523Y-96633333D01*
X161535714Y-96666666D01*
X161573809Y-96700000D01*
X161611904Y-96766666D01*
X161611904Y-96966666D01*
X161573809Y-97033333D01*
X161535714Y-97066666D01*
X160811904Y-96033333D02*
X160811904Y-96166666D01*
X160850000Y-96233333D01*
X160888095Y-96266666D01*
X161002380Y-96333333D01*
X161154761Y-96366666D01*
X161459523Y-96366666D01*
X161535714Y-96333333D01*
X161573809Y-96300000D01*
X161611904Y-96233333D01*
X161611904Y-96100000D01*
X161573809Y-96033333D01*
X161535714Y-96000000D01*
X161459523Y-95966666D01*
X161269047Y-95966666D01*
X161192857Y-96000000D01*
X161154761Y-96033333D01*
X161116666Y-96100000D01*
X161116666Y-96233333D01*
X161154761Y-96300000D01*
X161192857Y-96333333D01*
X161269047Y-96366666D01*
X160811904Y-94566666D02*
X160811904Y-94133333D01*
X161116666Y-94366666D01*
X161116666Y-94266666D01*
X161154761Y-94200000D01*
X161192857Y-94166666D01*
X161269047Y-94133333D01*
X161459523Y-94133333D01*
X161535714Y-94166666D01*
X161573809Y-94200000D01*
X161611904Y-94266666D01*
X161611904Y-94466666D01*
X161573809Y-94533333D01*
X161535714Y-94566666D01*
X160811904Y-93900000D02*
X160811904Y-93433333D01*
X161611904Y-93733333D01*
X160811904Y-92066666D02*
X160811904Y-91633333D01*
X161116666Y-91866666D01*
X161116666Y-91766666D01*
X161154761Y-91700000D01*
X161192857Y-91666666D01*
X161269047Y-91633333D01*
X161459523Y-91633333D01*
X161535714Y-91666666D01*
X161573809Y-91700000D01*
X161611904Y-91766666D01*
X161611904Y-91966666D01*
X161573809Y-92033333D01*
X161535714Y-92066666D01*
X161154761Y-91233333D02*
X161116666Y-91300000D01*
X161078571Y-91333333D01*
X161002380Y-91366666D01*
X160964285Y-91366666D01*
X160888095Y-91333333D01*
X160850000Y-91300000D01*
X160811904Y-91233333D01*
X160811904Y-91100000D01*
X160850000Y-91033333D01*
X160888095Y-91000000D01*
X160964285Y-90966666D01*
X161002380Y-90966666D01*
X161078571Y-91000000D01*
X161116666Y-91033333D01*
X161154761Y-91100000D01*
X161154761Y-91233333D01*
X161192857Y-91300000D01*
X161230952Y-91333333D01*
X161307142Y-91366666D01*
X161459523Y-91366666D01*
X161535714Y-91333333D01*
X161573809Y-91300000D01*
X161611904Y-91233333D01*
X161611904Y-91100000D01*
X161573809Y-91033333D01*
X161535714Y-91000000D01*
X161459523Y-90966666D01*
X161307142Y-90966666D01*
X161230952Y-91000000D01*
X161192857Y-91033333D01*
X161154761Y-91100000D01*
X160811904Y-89566666D02*
X160811904Y-89133333D01*
X161116666Y-89366666D01*
X161116666Y-89266666D01*
X161154761Y-89200000D01*
X161192857Y-89166666D01*
X161269047Y-89133333D01*
X161459523Y-89133333D01*
X161535714Y-89166666D01*
X161573809Y-89200000D01*
X161611904Y-89266666D01*
X161611904Y-89466666D01*
X161573809Y-89533333D01*
X161535714Y-89566666D01*
X161611904Y-88800000D02*
X161611904Y-88666666D01*
X161573809Y-88600000D01*
X161535714Y-88566666D01*
X161421428Y-88500000D01*
X161269047Y-88466666D01*
X160964285Y-88466666D01*
X160888095Y-88500000D01*
X160850000Y-88533333D01*
X160811904Y-88600000D01*
X160811904Y-88733333D01*
X160850000Y-88800000D01*
X160888095Y-88833333D01*
X160964285Y-88866666D01*
X161154761Y-88866666D01*
X161230952Y-88833333D01*
X161269047Y-88800000D01*
X161307142Y-88733333D01*
X161307142Y-88600000D01*
X161269047Y-88533333D01*
X161230952Y-88500000D01*
X161154761Y-88466666D01*
X161573809Y-87333333D02*
X161611904Y-87233333D01*
X161611904Y-87066666D01*
X161573809Y-87000000D01*
X161535714Y-86966666D01*
X161459523Y-86933333D01*
X161383333Y-86933333D01*
X161307142Y-86966666D01*
X161269047Y-87000000D01*
X161230952Y-87066666D01*
X161192857Y-87200000D01*
X161154761Y-87266666D01*
X161116666Y-87300000D01*
X161040476Y-87333333D01*
X160964285Y-87333333D01*
X160888095Y-87300000D01*
X160850000Y-87266666D01*
X160811904Y-87200000D01*
X160811904Y-87033333D01*
X160850000Y-86933333D01*
X161535714Y-86233333D02*
X161573809Y-86266666D01*
X161611904Y-86366666D01*
X161611904Y-86433333D01*
X161573809Y-86533333D01*
X161497619Y-86600000D01*
X161421428Y-86633333D01*
X161269047Y-86666666D01*
X161154761Y-86666666D01*
X161002380Y-86633333D01*
X160926190Y-86600000D01*
X160850000Y-86533333D01*
X160811904Y-86433333D01*
X160811904Y-86366666D01*
X160850000Y-86266666D01*
X160888095Y-86233333D01*
X161611904Y-85600000D02*
X161611904Y-85933333D01*
X160811904Y-85933333D01*
X161573809Y-84600000D02*
X161611904Y-84500000D01*
X161611904Y-84333333D01*
X161573809Y-84266666D01*
X161535714Y-84233333D01*
X161459523Y-84200000D01*
X161383333Y-84200000D01*
X161307142Y-84233333D01*
X161269047Y-84266666D01*
X161230952Y-84333333D01*
X161192857Y-84466666D01*
X161154761Y-84533333D01*
X161116666Y-84566666D01*
X161040476Y-84600000D01*
X160964285Y-84600000D01*
X160888095Y-84566666D01*
X160850000Y-84533333D01*
X160811904Y-84466666D01*
X160811904Y-84300000D01*
X160850000Y-84200000D01*
X161611904Y-83900000D02*
X160811904Y-83900000D01*
X160811904Y-83733333D01*
X160850000Y-83633333D01*
X160926190Y-83566666D01*
X161002380Y-83533333D01*
X161154761Y-83500000D01*
X161269047Y-83500000D01*
X161421428Y-83533333D01*
X161497619Y-83566666D01*
X161573809Y-83633333D01*
X161611904Y-83733333D01*
X161611904Y-83900000D01*
X161383333Y-83233333D02*
X161383333Y-82900000D01*
X161611904Y-83300000D02*
X160811904Y-83066666D01*
X161611904Y-82833333D01*
X161078571Y-81450000D02*
X161611904Y-81450000D01*
X160773809Y-81616666D02*
X161345238Y-81783333D01*
X161345238Y-81350000D01*
X160888095Y-81116666D02*
X160850000Y-81083333D01*
X160811904Y-81016666D01*
X160811904Y-80850000D01*
X160850000Y-80783333D01*
X160888095Y-80750000D01*
X160964285Y-80716666D01*
X161040476Y-80716666D01*
X161154761Y-80750000D01*
X161611904Y-81150000D01*
X161611904Y-80716666D01*
X160811904Y-79633333D02*
X160811904Y-79233333D01*
X161611904Y-79433333D02*
X160811904Y-79433333D01*
X160811904Y-79066666D02*
X161611904Y-78600000D01*
X160811904Y-78600000D02*
X161611904Y-79066666D01*
X161611904Y-78333333D02*
X160811904Y-78333333D01*
X160811904Y-78166666D01*
X160850000Y-78066666D01*
X160926190Y-78000000D01*
X161002380Y-77966666D01*
X161154761Y-77933333D01*
X161269047Y-77933333D01*
X161421428Y-77966666D01*
X161497619Y-78000000D01*
X161573809Y-78066666D01*
X161611904Y-78166666D01*
X161611904Y-78333333D01*
X161611904Y-76466666D02*
X161230952Y-76700000D01*
X161611904Y-76866666D02*
X160811904Y-76866666D01*
X160811904Y-76600000D01*
X160850000Y-76533333D01*
X160888095Y-76500000D01*
X160964285Y-76466666D01*
X161078571Y-76466666D01*
X161154761Y-76500000D01*
X161192857Y-76533333D01*
X161230952Y-76600000D01*
X161230952Y-76866666D01*
X160811904Y-76233333D02*
X161611904Y-75766666D01*
X160811904Y-75766666D02*
X161611904Y-76233333D01*
X161611904Y-75500000D02*
X160811904Y-75500000D01*
X160811904Y-75333333D01*
X160850000Y-75233333D01*
X160926190Y-75166666D01*
X161002380Y-75133333D01*
X161154761Y-75100000D01*
X161269047Y-75100000D01*
X161421428Y-75133333D01*
X161497619Y-75166666D01*
X161573809Y-75233333D01*
X161611904Y-75333333D01*
X161611904Y-75500000D01*
X161078571Y-73700000D02*
X161611904Y-73700000D01*
X160773809Y-73866666D02*
X161345238Y-74033333D01*
X161345238Y-73600000D01*
X160811904Y-73000000D02*
X160811904Y-73333333D01*
X161192857Y-73366666D01*
X161154761Y-73333333D01*
X161116666Y-73266666D01*
X161116666Y-73100000D01*
X161154761Y-73033333D01*
X161192857Y-73000000D01*
X161269047Y-72966666D01*
X161459523Y-72966666D01*
X161535714Y-73000000D01*
X161573809Y-73033333D01*
X161611904Y-73100000D01*
X161611904Y-73266666D01*
X161573809Y-73333333D01*
X161535714Y-73366666D01*
X161078571Y-71450000D02*
X161611904Y-71450000D01*
X160773809Y-71616666D02*
X161345238Y-71783333D01*
X161345238Y-71350000D01*
X160811904Y-70783333D02*
X160811904Y-70916666D01*
X160850000Y-70983333D01*
X160888095Y-71016666D01*
X161002380Y-71083333D01*
X161154761Y-71116666D01*
X161459523Y-71116666D01*
X161535714Y-71083333D01*
X161573809Y-71050000D01*
X161611904Y-70983333D01*
X161611904Y-70850000D01*
X161573809Y-70783333D01*
X161535714Y-70750000D01*
X161459523Y-70716666D01*
X161269047Y-70716666D01*
X161192857Y-70750000D01*
X161154761Y-70783333D01*
X161116666Y-70850000D01*
X161116666Y-70983333D01*
X161154761Y-71050000D01*
X161192857Y-71083333D01*
X161269047Y-71116666D01*
X160850000Y-69283333D02*
X160811904Y-69350000D01*
X160811904Y-69450000D01*
X160850000Y-69550000D01*
X160926190Y-69616666D01*
X161002380Y-69650000D01*
X161154761Y-69683333D01*
X161269047Y-69683333D01*
X161421428Y-69650000D01*
X161497619Y-69616666D01*
X161573809Y-69550000D01*
X161611904Y-69450000D01*
X161611904Y-69383333D01*
X161573809Y-69283333D01*
X161535714Y-69250000D01*
X161269047Y-69250000D01*
X161269047Y-69383333D01*
X161611904Y-68950000D02*
X160811904Y-68950000D01*
X161611904Y-68550000D01*
X160811904Y-68550000D01*
X161611904Y-68216666D02*
X160811904Y-68216666D01*
X160811904Y-68050000D01*
X160850000Y-67950000D01*
X160926190Y-67883333D01*
X161002380Y-67850000D01*
X161154761Y-67816666D01*
X161269047Y-67816666D01*
X161421428Y-67850000D01*
X161497619Y-67883333D01*
X161573809Y-67950000D01*
X161611904Y-68050000D01*
X161611904Y-68216666D01*
X139938095Y-109116666D02*
X139938095Y-108716666D01*
X139938095Y-108916666D02*
X140738095Y-108916666D01*
X140623809Y-108850000D01*
X140547619Y-108783333D01*
X140509523Y-108716666D01*
X140738095Y-109750000D02*
X140738095Y-109416666D01*
X140357142Y-109383333D01*
X140395238Y-109416666D01*
X140433333Y-109483333D01*
X140433333Y-109650000D01*
X140395238Y-109716666D01*
X140357142Y-109750000D01*
X140280952Y-109783333D01*
X140090476Y-109783333D01*
X140014285Y-109750000D01*
X139976190Y-109716666D01*
X139938095Y-109650000D01*
X139938095Y-109483333D01*
X139976190Y-109416666D01*
X140014285Y-109383333D01*
X139938095Y-106636666D02*
X139938095Y-106236666D01*
X139938095Y-106436666D02*
X140738095Y-106436666D01*
X140623809Y-106370000D01*
X140547619Y-106303333D01*
X140509523Y-106236666D01*
X140471428Y-107236666D02*
X139938095Y-107236666D01*
X140776190Y-107070000D02*
X140204761Y-106903333D01*
X140204761Y-107336666D01*
X139938095Y-103866666D02*
X139938095Y-103466666D01*
X139938095Y-103666666D02*
X140738095Y-103666666D01*
X140623809Y-103600000D01*
X140547619Y-103533333D01*
X140509523Y-103466666D01*
X140738095Y-104100000D02*
X140738095Y-104533333D01*
X140433333Y-104300000D01*
X140433333Y-104400000D01*
X140395238Y-104466666D01*
X140357142Y-104500000D01*
X140280952Y-104533333D01*
X140090476Y-104533333D01*
X140014285Y-104500000D01*
X139976190Y-104466666D01*
X139938095Y-104400000D01*
X139938095Y-104200000D01*
X139976190Y-104133333D01*
X140014285Y-104100000D01*
X139938095Y-101366666D02*
X139938095Y-100966666D01*
X139938095Y-101166666D02*
X140738095Y-101166666D01*
X140623809Y-101100000D01*
X140547619Y-101033333D01*
X140509523Y-100966666D01*
X140661904Y-101633333D02*
X140700000Y-101666666D01*
X140738095Y-101733333D01*
X140738095Y-101900000D01*
X140700000Y-101966666D01*
X140661904Y-102000000D01*
X140585714Y-102033333D01*
X140509523Y-102033333D01*
X140395238Y-102000000D01*
X139938095Y-101600000D01*
X139938095Y-102033333D01*
X139938095Y-98886666D02*
X139938095Y-98486666D01*
X139938095Y-98686666D02*
X140738095Y-98686666D01*
X140623809Y-98620000D01*
X140547619Y-98553333D01*
X140509523Y-98486666D01*
X139938095Y-99553333D02*
X139938095Y-99153333D01*
X139938095Y-99353333D02*
X140738095Y-99353333D01*
X140623809Y-99286666D01*
X140547619Y-99220000D01*
X140509523Y-99153333D01*
X139938095Y-96366666D02*
X139938095Y-95966666D01*
X139938095Y-96166666D02*
X140738095Y-96166666D01*
X140623809Y-96100000D01*
X140547619Y-96033333D01*
X140509523Y-95966666D01*
X140738095Y-96800000D02*
X140738095Y-96866666D01*
X140700000Y-96933333D01*
X140661904Y-96966666D01*
X140585714Y-97000000D01*
X140433333Y-97033333D01*
X140242857Y-97033333D01*
X140090476Y-97000000D01*
X140014285Y-96966666D01*
X139976190Y-96933333D01*
X139938095Y-96866666D01*
X139938095Y-96800000D01*
X139976190Y-96733333D01*
X140014285Y-96700000D01*
X140090476Y-96666666D01*
X140242857Y-96633333D01*
X140433333Y-96633333D01*
X140585714Y-96666666D01*
X140661904Y-96700000D01*
X140700000Y-96733333D01*
X140738095Y-96800000D01*
X139938095Y-93886666D02*
X139938095Y-94020000D01*
X139976190Y-94086666D01*
X140014285Y-94120000D01*
X140128571Y-94186666D01*
X140280952Y-94220000D01*
X140585714Y-94220000D01*
X140661904Y-94186666D01*
X140700000Y-94153333D01*
X140738095Y-94086666D01*
X140738095Y-93953333D01*
X140700000Y-93886666D01*
X140661904Y-93853333D01*
X140585714Y-93820000D01*
X140395238Y-93820000D01*
X140319047Y-93853333D01*
X140280952Y-93886666D01*
X140242857Y-93953333D01*
X140242857Y-94086666D01*
X140280952Y-94153333D01*
X140319047Y-94186666D01*
X140395238Y-94220000D01*
X140395238Y-91453333D02*
X140433333Y-91386666D01*
X140471428Y-91353333D01*
X140547619Y-91320000D01*
X140585714Y-91320000D01*
X140661904Y-91353333D01*
X140700000Y-91386666D01*
X140738095Y-91453333D01*
X140738095Y-91586666D01*
X140700000Y-91653333D01*
X140661904Y-91686666D01*
X140585714Y-91720000D01*
X140547619Y-91720000D01*
X140471428Y-91686666D01*
X140433333Y-91653333D01*
X140395238Y-91586666D01*
X140395238Y-91453333D01*
X140357142Y-91386666D01*
X140319047Y-91353333D01*
X140242857Y-91320000D01*
X140090476Y-91320000D01*
X140014285Y-91353333D01*
X139976190Y-91386666D01*
X139938095Y-91453333D01*
X139938095Y-91586666D01*
X139976190Y-91653333D01*
X140014285Y-91686666D01*
X140090476Y-91720000D01*
X140242857Y-91720000D01*
X140319047Y-91686666D01*
X140357142Y-91653333D01*
X140395238Y-91586666D01*
X140738095Y-88786666D02*
X140738095Y-89253333D01*
X139938095Y-88953333D01*
X140738095Y-86653333D02*
X140738095Y-86520000D01*
X140700000Y-86453333D01*
X140661904Y-86420000D01*
X140547619Y-86353333D01*
X140395238Y-86320000D01*
X140090476Y-86320000D01*
X140014285Y-86353333D01*
X139976190Y-86386666D01*
X139938095Y-86453333D01*
X139938095Y-86586666D01*
X139976190Y-86653333D01*
X140014285Y-86686666D01*
X140090476Y-86720000D01*
X140280952Y-86720000D01*
X140357142Y-86686666D01*
X140395238Y-86653333D01*
X140433333Y-86586666D01*
X140433333Y-86453333D01*
X140395238Y-86386666D01*
X140357142Y-86353333D01*
X140280952Y-86320000D01*
X140471428Y-81403333D02*
X139938095Y-81403333D01*
X140776190Y-81236666D02*
X140204761Y-81070000D01*
X140204761Y-81503333D01*
X140738095Y-78536666D02*
X140738095Y-78970000D01*
X140433333Y-78736666D01*
X140433333Y-78836666D01*
X140395238Y-78903333D01*
X140357142Y-78936666D01*
X140280952Y-78970000D01*
X140090476Y-78970000D01*
X140014285Y-78936666D01*
X139976190Y-78903333D01*
X139938095Y-78836666D01*
X139938095Y-78636666D01*
X139976190Y-78570000D01*
X140014285Y-78536666D01*
X140661904Y-76070000D02*
X140700000Y-76103333D01*
X140738095Y-76170000D01*
X140738095Y-76336666D01*
X140700000Y-76403333D01*
X140661904Y-76436666D01*
X140585714Y-76470000D01*
X140509523Y-76470000D01*
X140395238Y-76436666D01*
X139938095Y-76036666D01*
X139938095Y-76470000D01*
X139938095Y-73970000D02*
X139938095Y-73570000D01*
X139938095Y-73770000D02*
X140738095Y-73770000D01*
X140623809Y-73703333D01*
X140547619Y-73636666D01*
X140509523Y-73570000D01*
X140738095Y-70293333D02*
X140738095Y-70726666D01*
X140433333Y-70493333D01*
X140433333Y-70593333D01*
X140395238Y-70660000D01*
X140357142Y-70693333D01*
X140280952Y-70726666D01*
X140090476Y-70726666D01*
X140014285Y-70693333D01*
X139976190Y-70660000D01*
X139938095Y-70593333D01*
X139938095Y-70393333D01*
X139976190Y-70326666D01*
X140014285Y-70293333D01*
X140738095Y-70926666D02*
X139938095Y-71160000D01*
X140738095Y-71393333D01*
X140738095Y-71560000D02*
X140738095Y-71993333D01*
X140433333Y-71760000D01*
X140433333Y-71860000D01*
X140395238Y-71926666D01*
X140357142Y-71960000D01*
X140280952Y-71993333D01*
X140090476Y-71993333D01*
X140014285Y-71960000D01*
X139976190Y-71926666D01*
X139938095Y-71860000D01*
X139938095Y-71660000D01*
X139976190Y-71593333D01*
X140014285Y-71560000D01*
X140700000Y-68006666D02*
X140738095Y-67940000D01*
X140738095Y-67840000D01*
X140700000Y-67740000D01*
X140623809Y-67673333D01*
X140547619Y-67640000D01*
X140395238Y-67606666D01*
X140280952Y-67606666D01*
X140128571Y-67640000D01*
X140052380Y-67673333D01*
X139976190Y-67740000D01*
X139938095Y-67840000D01*
X139938095Y-67906666D01*
X139976190Y-68006666D01*
X140014285Y-68040000D01*
X140280952Y-68040000D01*
X140280952Y-67906666D01*
X139938095Y-68340000D02*
X140738095Y-68340000D01*
X139938095Y-68740000D01*
X140738095Y-68740000D01*
X139938095Y-69073333D02*
X140738095Y-69073333D01*
X140738095Y-69240000D01*
X140700000Y-69340000D01*
X140623809Y-69406666D01*
X140547619Y-69440000D01*
X140395238Y-69473333D01*
X140280952Y-69473333D01*
X140128571Y-69440000D01*
X140052380Y-69406666D01*
X139976190Y-69340000D01*
X139938095Y-69240000D01*
X139938095Y-69073333D01*
D12*
G36*
X158766116Y-110253443D02*
G01*
X158768667Y-109541296D01*
X158773718Y-108963974D01*
X158781926Y-108504225D01*
X158793946Y-108144795D01*
X158810433Y-107868433D01*
X158832043Y-107657887D01*
X158859431Y-107495904D01*
X158893251Y-107365233D01*
X158909872Y-107314556D01*
X159097240Y-106924037D01*
X159324110Y-106687021D01*
X159573079Y-106605890D01*
X159826747Y-106683026D01*
X160067712Y-106920810D01*
X160197333Y-107138333D01*
X160409000Y-107561666D01*
X160422630Y-110948333D01*
X160424115Y-111701671D01*
X160422561Y-112412009D01*
X160418231Y-113059215D01*
X160411386Y-113623157D01*
X160402288Y-114083702D01*
X160391200Y-114420717D01*
X160378383Y-114614070D01*
X160374593Y-114639369D01*
X160252920Y-115016998D01*
X160066465Y-115336206D01*
X159845044Y-115551278D01*
X159748189Y-115599772D01*
X159566336Y-115607745D01*
X159566336Y-114878875D01*
X159794786Y-114828880D01*
X159864233Y-114797688D01*
X159996080Y-114646027D01*
X160028000Y-114504333D01*
X159963437Y-114304166D01*
X159874249Y-114220388D01*
X159874249Y-114039519D01*
X159975585Y-113978193D01*
X160009518Y-113860531D01*
X160013267Y-113651642D01*
X160010863Y-113618359D01*
X159975863Y-113415198D01*
X159892063Y-113332064D01*
X159774000Y-113319000D01*
X159599518Y-113365587D01*
X159545565Y-113486454D01*
X159545565Y-113192000D01*
X159784000Y-113180075D01*
X159944456Y-113150114D01*
X159971555Y-113135555D01*
X160025385Y-112984800D01*
X160008415Y-112781944D01*
X159930025Y-112624033D01*
X159921359Y-112616230D01*
X159753565Y-112567739D01*
X159727133Y-112570364D01*
X159727133Y-112431375D01*
X159905945Y-112397484D01*
X159996045Y-112286511D01*
X160026301Y-112102491D01*
X159990390Y-111933031D01*
X159943333Y-111879666D01*
X159878075Y-111908098D01*
X159856092Y-112022836D01*
X159845374Y-112153545D01*
X159814007Y-112134799D01*
X159814007Y-111794475D01*
X159906412Y-111748175D01*
X159990635Y-111615455D01*
X160025765Y-111441293D01*
X160006714Y-111295100D01*
X159943333Y-111244666D01*
X159875028Y-111316584D01*
X159852936Y-111435166D01*
X159847206Y-111625666D01*
X159754266Y-111432779D01*
X159635594Y-111287674D01*
X159522774Y-111303554D01*
X159451876Y-111474985D01*
X159451362Y-111478403D01*
X159493509Y-111657005D01*
X159635576Y-111774922D01*
X159814007Y-111794475D01*
X159814007Y-112134799D01*
X159802661Y-112128017D01*
X159767218Y-112070166D01*
X159632730Y-111931893D01*
X159510672Y-111937029D01*
X159448861Y-112072888D01*
X159450876Y-112154109D01*
X159540175Y-112355875D01*
X159727133Y-112431375D01*
X159727133Y-112570364D01*
X159517966Y-112591145D01*
X159291247Y-112670051D01*
X159266000Y-112690417D01*
X159266000Y-111075333D01*
X159332695Y-111003764D01*
X159350667Y-110889818D01*
X159359412Y-110761344D01*
X159409389Y-110787274D01*
X159464050Y-110859363D01*
X159555557Y-110963089D01*
X159608564Y-110928069D01*
X159630726Y-110875545D01*
X159722052Y-110753213D01*
X159812581Y-110753291D01*
X159841898Y-110866733D01*
X159834134Y-110906000D01*
X159823829Y-111041278D01*
X159852482Y-111075333D01*
X159978585Y-111004630D01*
X160014397Y-110819337D01*
X160010405Y-110782484D01*
X159964018Y-110672642D01*
X159868404Y-110628186D01*
X159868404Y-110398000D01*
X159979356Y-110360643D01*
X160023678Y-110220273D01*
X160028000Y-110101666D01*
X160006734Y-109905799D01*
X159954445Y-109807893D01*
X159943333Y-109805333D01*
X159920774Y-109831804D01*
X159920774Y-108958666D01*
X159999415Y-108901246D01*
X160016580Y-108713014D01*
X160011944Y-108641166D01*
X159978911Y-108430452D01*
X159930806Y-108373395D01*
X159930806Y-108155152D01*
X159950502Y-108149903D01*
X160007109Y-108043797D01*
X160026230Y-107868429D01*
X160008840Y-107697916D01*
X159955911Y-107606376D01*
X159943333Y-107604000D01*
X159876460Y-107675515D01*
X159858667Y-107788092D01*
X159858667Y-107972184D01*
X159662710Y-107788092D01*
X159484043Y-107657513D01*
X159333101Y-107604000D01*
X159190350Y-107674143D01*
X159128191Y-107841276D01*
X159150715Y-107985000D01*
X159239103Y-108101552D01*
X159318578Y-108084295D01*
X159327513Y-107948101D01*
X159326134Y-107942666D01*
X159305792Y-107811257D01*
X159355286Y-107790207D01*
X159494790Y-107882454D01*
X159620780Y-107985566D01*
X159799686Y-108109912D01*
X159930806Y-108155152D01*
X159930806Y-108373395D01*
X159903289Y-108340757D01*
X159774000Y-108323666D01*
X159599518Y-108370253D01*
X159535278Y-108514166D01*
X159479052Y-108675841D01*
X159405534Y-108686731D01*
X159355266Y-108555206D01*
X159350667Y-108476066D01*
X159333478Y-108326018D01*
X159273915Y-108325807D01*
X159255265Y-108342868D01*
X159199033Y-108501318D01*
X159233738Y-108704114D01*
X159338257Y-108868655D01*
X159399569Y-108907138D01*
X159521137Y-108891194D01*
X159622620Y-108725228D01*
X159630529Y-108704811D01*
X159730794Y-108508867D01*
X159811927Y-108460875D01*
X159850078Y-108560851D01*
X159840606Y-108704666D01*
X159839864Y-108897965D01*
X159919828Y-108958663D01*
X159920774Y-108958666D01*
X159920774Y-109831804D01*
X159881027Y-109878446D01*
X159855984Y-110038166D01*
X159853302Y-110271000D01*
X159689333Y-110051227D01*
X159689333Y-109593666D01*
X159752116Y-109563691D01*
X159774000Y-109429330D01*
X159745627Y-109267840D01*
X159689333Y-109212666D01*
X159619861Y-109283355D01*
X159604667Y-109377003D01*
X159643545Y-109539085D01*
X159689333Y-109593666D01*
X159689333Y-110051227D01*
X159679589Y-110038166D01*
X159488379Y-109848710D01*
X159322759Y-109823599D01*
X159187593Y-109962971D01*
X159155578Y-110140958D01*
X159233231Y-110280471D01*
X159327262Y-110387092D01*
X159342452Y-110351747D01*
X159322566Y-110249917D01*
X159318882Y-110066204D01*
X159394942Y-110019900D01*
X159521374Y-110118926D01*
X159568351Y-110183635D01*
X159718540Y-110337936D01*
X159868404Y-110398000D01*
X159868404Y-110628186D01*
X159836238Y-110613229D01*
X159583500Y-110583861D01*
X159341282Y-110573732D01*
X159223288Y-110601558D01*
X159184842Y-110693202D01*
X159181333Y-110816694D01*
X159205452Y-110997031D01*
X159263710Y-111075239D01*
X159266000Y-111075333D01*
X159266000Y-112690417D01*
X159154773Y-112780143D01*
X159093392Y-112977546D01*
X159184487Y-113116203D01*
X159418272Y-113185801D01*
X159545565Y-113192000D01*
X159545565Y-113486454D01*
X159535278Y-113509500D01*
X159477950Y-113665246D01*
X159400870Y-113688508D01*
X159352599Y-113573720D01*
X159350667Y-113530666D01*
X159315210Y-113393086D01*
X159266000Y-113361333D01*
X159194632Y-113427486D01*
X159185772Y-113581440D01*
X159232754Y-113756437D01*
X159317495Y-113876937D01*
X159437774Y-113941451D01*
X159539542Y-113870501D01*
X159571495Y-113828788D01*
X159665402Y-113656293D01*
X159689333Y-113556818D01*
X159747287Y-113455050D01*
X159785078Y-113446000D01*
X159843846Y-113521646D01*
X159832984Y-113740792D01*
X159832734Y-113742333D01*
X159820367Y-113963071D01*
X159874249Y-114039519D01*
X159874249Y-114220388D01*
X159864233Y-114210979D01*
X159691451Y-114152271D01*
X159489947Y-114126219D01*
X159314845Y-114133078D01*
X159221269Y-114173105D01*
X159223667Y-114208000D01*
X159337995Y-114268743D01*
X159527654Y-114292666D01*
X159740966Y-114337336D01*
X159831328Y-114428211D01*
X159818206Y-114579648D01*
X159662280Y-114680278D01*
X159409170Y-114714703D01*
X159252402Y-114740396D01*
X159223667Y-114800666D01*
X159351905Y-114869582D01*
X159566336Y-114878875D01*
X159566336Y-115607745D01*
X159483929Y-115611358D01*
X159236739Y-115467998D01*
X159024379Y-115184078D01*
X158909872Y-114920777D01*
X158873095Y-114798241D01*
X158843031Y-114651785D01*
X158819026Y-114464158D01*
X158800425Y-114218106D01*
X158786571Y-113896379D01*
X158776810Y-113481722D01*
X158770486Y-112956885D01*
X158766945Y-112304614D01*
X158765529Y-111507659D01*
X158765412Y-111117666D01*
X158766116Y-110253443D01*
G37*
X158766116Y-110253443D02*
X158768667Y-109541296D01*
X158773718Y-108963974D01*
X158781926Y-108504225D01*
X158793946Y-108144795D01*
X158810433Y-107868433D01*
X158832043Y-107657887D01*
X158859431Y-107495904D01*
X158893251Y-107365233D01*
X158909872Y-107314556D01*
X159097240Y-106924037D01*
X159324110Y-106687021D01*
X159573079Y-106605890D01*
X159826747Y-106683026D01*
X160067712Y-106920810D01*
X160197333Y-107138333D01*
X160409000Y-107561666D01*
X160422630Y-110948333D01*
X160424115Y-111701671D01*
X160422561Y-112412009D01*
X160418231Y-113059215D01*
X160411386Y-113623157D01*
X160402288Y-114083702D01*
X160391200Y-114420717D01*
X160378383Y-114614070D01*
X160374593Y-114639369D01*
X160252920Y-115016998D01*
X160066465Y-115336206D01*
X159845044Y-115551278D01*
X159748189Y-115599772D01*
X159566336Y-115607745D01*
X159566336Y-114878875D01*
X159794786Y-114828880D01*
X159864233Y-114797688D01*
X159996080Y-114646027D01*
X160028000Y-114504333D01*
X159963437Y-114304166D01*
X159874249Y-114220388D01*
X159874249Y-114039519D01*
X159975585Y-113978193D01*
X160009518Y-113860531D01*
X160013267Y-113651642D01*
X160010863Y-113618359D01*
X159975863Y-113415198D01*
X159892063Y-113332064D01*
X159774000Y-113319000D01*
X159599518Y-113365587D01*
X159545565Y-113486454D01*
X159545565Y-113192000D01*
X159784000Y-113180075D01*
X159944456Y-113150114D01*
X159971555Y-113135555D01*
X160025385Y-112984800D01*
X160008415Y-112781944D01*
X159930025Y-112624033D01*
X159921359Y-112616230D01*
X159753565Y-112567739D01*
X159727133Y-112570364D01*
X159727133Y-112431375D01*
X159905945Y-112397484D01*
X159996045Y-112286511D01*
X160026301Y-112102491D01*
X159990390Y-111933031D01*
X159943333Y-111879666D01*
X159878075Y-111908098D01*
X159856092Y-112022836D01*
X159845374Y-112153545D01*
X159814007Y-112134799D01*
X159814007Y-111794475D01*
X159906412Y-111748175D01*
X159990635Y-111615455D01*
X160025765Y-111441293D01*
X160006714Y-111295100D01*
X159943333Y-111244666D01*
X159875028Y-111316584D01*
X159852936Y-111435166D01*
X159847206Y-111625666D01*
X159754266Y-111432779D01*
X159635594Y-111287674D01*
X159522774Y-111303554D01*
X159451876Y-111474985D01*
X159451362Y-111478403D01*
X159493509Y-111657005D01*
X159635576Y-111774922D01*
X159814007Y-111794475D01*
X159814007Y-112134799D01*
X159802661Y-112128017D01*
X159767218Y-112070166D01*
X159632730Y-111931893D01*
X159510672Y-111937029D01*
X159448861Y-112072888D01*
X159450876Y-112154109D01*
X159540175Y-112355875D01*
X159727133Y-112431375D01*
X159727133Y-112570364D01*
X159517966Y-112591145D01*
X159291247Y-112670051D01*
X159266000Y-112690417D01*
X159266000Y-111075333D01*
X159332695Y-111003764D01*
X159350667Y-110889818D01*
X159359412Y-110761344D01*
X159409389Y-110787274D01*
X159464050Y-110859363D01*
X159555557Y-110963089D01*
X159608564Y-110928069D01*
X159630726Y-110875545D01*
X159722052Y-110753213D01*
X159812581Y-110753291D01*
X159841898Y-110866733D01*
X159834134Y-110906000D01*
X159823829Y-111041278D01*
X159852482Y-111075333D01*
X159978585Y-111004630D01*
X160014397Y-110819337D01*
X160010405Y-110782484D01*
X159964018Y-110672642D01*
X159868404Y-110628186D01*
X159868404Y-110398000D01*
X159979356Y-110360643D01*
X160023678Y-110220273D01*
X160028000Y-110101666D01*
X160006734Y-109905799D01*
X159954445Y-109807893D01*
X159943333Y-109805333D01*
X159920774Y-109831804D01*
X159920774Y-108958666D01*
X159999415Y-108901246D01*
X160016580Y-108713014D01*
X160011944Y-108641166D01*
X159978911Y-108430452D01*
X159930806Y-108373395D01*
X159930806Y-108155152D01*
X159950502Y-108149903D01*
X160007109Y-108043797D01*
X160026230Y-107868429D01*
X160008840Y-107697916D01*
X159955911Y-107606376D01*
X159943333Y-107604000D01*
X159876460Y-107675515D01*
X159858667Y-107788092D01*
X159858667Y-107972184D01*
X159662710Y-107788092D01*
X159484043Y-107657513D01*
X159333101Y-107604000D01*
X159190350Y-107674143D01*
X159128191Y-107841276D01*
X159150715Y-107985000D01*
X159239103Y-108101552D01*
X159318578Y-108084295D01*
X159327513Y-107948101D01*
X159326134Y-107942666D01*
X159305792Y-107811257D01*
X159355286Y-107790207D01*
X159494790Y-107882454D01*
X159620780Y-107985566D01*
X159799686Y-108109912D01*
X159930806Y-108155152D01*
X159930806Y-108373395D01*
X159903289Y-108340757D01*
X159774000Y-108323666D01*
X159599518Y-108370253D01*
X159535278Y-108514166D01*
X159479052Y-108675841D01*
X159405534Y-108686731D01*
X159355266Y-108555206D01*
X159350667Y-108476066D01*
X159333478Y-108326018D01*
X159273915Y-108325807D01*
X159255265Y-108342868D01*
X159199033Y-108501318D01*
X159233738Y-108704114D01*
X159338257Y-108868655D01*
X159399569Y-108907138D01*
X159521137Y-108891194D01*
X159622620Y-108725228D01*
X159630529Y-108704811D01*
X159730794Y-108508867D01*
X159811927Y-108460875D01*
X159850078Y-108560851D01*
X159840606Y-108704666D01*
X159839864Y-108897965D01*
X159919828Y-108958663D01*
X159920774Y-108958666D01*
X159920774Y-109831804D01*
X159881027Y-109878446D01*
X159855984Y-110038166D01*
X159853302Y-110271000D01*
X159689333Y-110051227D01*
X159689333Y-109593666D01*
X159752116Y-109563691D01*
X159774000Y-109429330D01*
X159745627Y-109267840D01*
X159689333Y-109212666D01*
X159619861Y-109283355D01*
X159604667Y-109377003D01*
X159643545Y-109539085D01*
X159689333Y-109593666D01*
X159689333Y-110051227D01*
X159679589Y-110038166D01*
X159488379Y-109848710D01*
X159322759Y-109823599D01*
X159187593Y-109962971D01*
X159155578Y-110140958D01*
X159233231Y-110280471D01*
X159327262Y-110387092D01*
X159342452Y-110351747D01*
X159322566Y-110249917D01*
X159318882Y-110066204D01*
X159394942Y-110019900D01*
X159521374Y-110118926D01*
X159568351Y-110183635D01*
X159718540Y-110337936D01*
X159868404Y-110398000D01*
X159868404Y-110628186D01*
X159836238Y-110613229D01*
X159583500Y-110583861D01*
X159341282Y-110573732D01*
X159223288Y-110601558D01*
X159184842Y-110693202D01*
X159181333Y-110816694D01*
X159205452Y-110997031D01*
X159263710Y-111075239D01*
X159266000Y-111075333D01*
X159266000Y-112690417D01*
X159154773Y-112780143D01*
X159093392Y-112977546D01*
X159184487Y-113116203D01*
X159418272Y-113185801D01*
X159545565Y-113192000D01*
X159545565Y-113486454D01*
X159535278Y-113509500D01*
X159477950Y-113665246D01*
X159400870Y-113688508D01*
X159352599Y-113573720D01*
X159350667Y-113530666D01*
X159315210Y-113393086D01*
X159266000Y-113361333D01*
X159194632Y-113427486D01*
X159185772Y-113581440D01*
X159232754Y-113756437D01*
X159317495Y-113876937D01*
X159437774Y-113941451D01*
X159539542Y-113870501D01*
X159571495Y-113828788D01*
X159665402Y-113656293D01*
X159689333Y-113556818D01*
X159747287Y-113455050D01*
X159785078Y-113446000D01*
X159843846Y-113521646D01*
X159832984Y-113740792D01*
X159832734Y-113742333D01*
X159820367Y-113963071D01*
X159874249Y-114039519D01*
X159874249Y-114220388D01*
X159864233Y-114210979D01*
X159691451Y-114152271D01*
X159489947Y-114126219D01*
X159314845Y-114133078D01*
X159221269Y-114173105D01*
X159223667Y-114208000D01*
X159337995Y-114268743D01*
X159527654Y-114292666D01*
X159740966Y-114337336D01*
X159831328Y-114428211D01*
X159818206Y-114579648D01*
X159662280Y-114680278D01*
X159409170Y-114714703D01*
X159252402Y-114740396D01*
X159223667Y-114800666D01*
X159351905Y-114869582D01*
X159566336Y-114878875D01*
X159566336Y-115607745D01*
X159483929Y-115611358D01*
X159236739Y-115467998D01*
X159024379Y-115184078D01*
X158909872Y-114920777D01*
X158873095Y-114798241D01*
X158843031Y-114651785D01*
X158819026Y-114464158D01*
X158800425Y-114218106D01*
X158786571Y-113896379D01*
X158776810Y-113481722D01*
X158770486Y-112956885D01*
X158766945Y-112304614D01*
X158765529Y-111507659D01*
X158765412Y-111117666D01*
X158766116Y-110253443D01*
G36*
X159753762Y-112771127D02*
G01*
X159774000Y-112768666D01*
X159856206Y-112833096D01*
X159858667Y-112853333D01*
X159794237Y-112935540D01*
X159774000Y-112938000D01*
X159691793Y-112873571D01*
X159689333Y-112853333D01*
X159753762Y-112771127D01*
G37*
X159753762Y-112771127D02*
X159774000Y-112768666D01*
X159856206Y-112833096D01*
X159858667Y-112853333D01*
X159794237Y-112935540D01*
X159774000Y-112938000D01*
X159691793Y-112873571D01*
X159689333Y-112853333D01*
X159753762Y-112771127D01*
G36*
X159324746Y-112822809D02*
G01*
X159441333Y-112770392D01*
X159517057Y-112824607D01*
X159520000Y-112848336D01*
X159458788Y-112963820D01*
X159441183Y-112976717D01*
X159340683Y-112972671D01*
X159296936Y-112883163D01*
X159324746Y-112822809D01*
G37*
X159324746Y-112822809D02*
X159441333Y-112770392D01*
X159517057Y-112824607D01*
X159520000Y-112848336D01*
X159458788Y-112963820D01*
X159441183Y-112976717D01*
X159340683Y-112972671D01*
X159296936Y-112883163D01*
X159324746Y-112822809D01*
D13*
X140500000Y-68200000D02*
X140500000Y-68200000D01*
X140700000Y-68200000D02*
X140700000Y-68200000D01*
D10*
X159700000Y-60700000D02*
X159700000Y-67200000D01*
X141700000Y-60700000D02*
X159700000Y-60700000D01*
X141700000Y-67200000D02*
X141700000Y-60700000D01*
D13*
X140700000Y-68200000D02*
G75*
G02X140500000Y-68200000I-100000J0D01*
G01*
X140500000Y-68200000D02*
G75*
G02X140700000Y-68200000I100000J0D01*
G01*
D14*
X152967200Y-123670500D02*
X154767200Y-123670500D01*
X154767200Y-120450500D02*
X152317200Y-120450500D01*
D15*
X142173800Y-125578800D02*
X140733800Y-125578800D01*
X142173800Y-134518800D02*
X140733800Y-134518800D01*
X137993800Y-134518800D02*
X136763800Y-134518800D01*
X136763800Y-134518800D02*
X136763800Y-125578800D01*
X136763800Y-125578800D02*
X137993800Y-125578800D01*
D13*
X145863800Y-126648800D02*
G75*
G03X145863800Y-126648800I-100000J0D01*
G01*
D14*
X156775700Y-124732200D02*
X160660700Y-124732200D01*
X160660700Y-124732200D02*
X160660700Y-122462200D01*
X160660700Y-122462200D02*
X156775700Y-122462200D01*
X142623658Y-107085400D02*
X142149142Y-107085400D01*
X142623658Y-108130400D02*
X142149142Y-108130400D01*
X150971500Y-121743800D02*
X148486500Y-121743800D01*
X148486500Y-121743800D02*
X148486500Y-123113800D01*
X148486500Y-123113800D02*
X150971500Y-123113800D01*
D13*
X148237500Y-118125700D02*
X147787500Y-118125700D01*
X147787500Y-118125700D02*
X147787500Y-115225700D01*
X147787500Y-115225700D02*
X148237500Y-115225700D01*
X148237500Y-115225700D02*
X148237500Y-118125700D01*
X149637500Y-118175700D02*
X148587500Y-118175700D01*
X153939800Y-118100300D02*
X153489800Y-118100300D01*
X153489800Y-118100300D02*
X153489800Y-115200300D01*
X153489800Y-115200300D02*
X153939800Y-115200300D01*
X153939800Y-115200300D02*
X153939800Y-118100300D01*
X155339800Y-118150300D02*
X154289800Y-118150300D01*
D14*
X147844320Y-124872061D02*
X147844320Y-125197619D01*
X146824320Y-124872061D02*
X146824320Y-125197619D01*
X150100599Y-124787920D02*
X149775041Y-124787920D01*
X150100599Y-123767920D02*
X149775041Y-123767920D01*
D15*
X154896200Y-127057200D02*
X152846200Y-127057200D01*
X149046200Y-127057200D02*
X146996200Y-127057200D01*
X146996200Y-127057200D02*
X146996200Y-131057200D01*
D16*
X148896200Y-126057200D02*
G75*
G03X148896200Y-126057200I-100000J0D01*
G01*
D15*
X148746200Y-134657200D02*
X153146200Y-134657200D01*
X154896200Y-131057200D02*
X154896200Y-127057200D01*
D10*
X158665720Y-106627920D02*
X158665720Y-106627920D01*
X158665720Y-106527920D02*
X158665720Y-106527920D01*
X158665720Y-106627920D02*
G75*
G02X158665720Y-106527920I0J50000D01*
G01*
X158665720Y-106527920D02*
G75*
G02X158665720Y-106627920I0J-50000D01*
G01*
D14*
X151468900Y-119916521D02*
X151468900Y-120242079D01*
X150448900Y-119916521D02*
X150448900Y-120242079D01*
D13*
X147936100Y-118902800D02*
X147936100Y-120027800D01*
X144886100Y-120377800D02*
X147786100Y-120377800D01*
X144886100Y-121177800D02*
X144886100Y-120377800D01*
X147786100Y-121177800D02*
X144886100Y-121177800D01*
X147786100Y-120377800D02*
X147786100Y-121177800D01*
D14*
X156262400Y-145450600D02*
X156262400Y-135000600D01*
X156262400Y-145450600D02*
X163562400Y-145450600D01*
X163562400Y-145450600D02*
X163562400Y-135000600D01*
X156262400Y-132500600D02*
X156262400Y-128000600D01*
X163562400Y-132500600D02*
X163562400Y-128000600D01*
X158412400Y-125950600D02*
X161412400Y-125950600D01*
X163942400Y-133520600D02*
X163942400Y-132520600D01*
X152097858Y-105450700D02*
X151623342Y-105450700D01*
X152097858Y-104405700D02*
X151623342Y-104405700D01*
X148810800Y-120329258D02*
X148810800Y-119854742D01*
X149855800Y-120329258D02*
X149855800Y-119854742D01*
X153850458Y-119852500D02*
X153375942Y-119852500D01*
X153850458Y-118807500D02*
X153375942Y-118807500D01*
X146600800Y-97269220D02*
X146600800Y-97550380D01*
X147620800Y-97269220D02*
X147620800Y-97550380D01*
X146562700Y-101256720D02*
X146562700Y-101537880D01*
X147582700Y-101256720D02*
X147582700Y-101537880D01*
X157748236Y-121929100D02*
X158952364Y-121929100D01*
X157748236Y-120109100D02*
X158952364Y-120109100D01*
X161910000Y-123345000D02*
X164570000Y-123345000D01*
X161910000Y-69945000D02*
X161910000Y-123345000D01*
X164570000Y-69945000D02*
X164570000Y-123345000D01*
X161910000Y-69945000D02*
X164570000Y-69945000D01*
X161910000Y-68675000D02*
X161910000Y-67345000D01*
X161910000Y-67345000D02*
X163240000Y-67345000D01*
X154672700Y-110655900D02*
X154672700Y-107205900D01*
X154672700Y-110655900D02*
X154672700Y-112605900D01*
X144552700Y-110655900D02*
X144552700Y-108705900D01*
X144552700Y-110655900D02*
X144552700Y-112605900D01*
X156049600Y-110021780D02*
X156049600Y-109740620D01*
X157069600Y-110021780D02*
X157069600Y-109740620D01*
X139026700Y-114768500D02*
X142926700Y-114768500D01*
X142926700Y-117668500D02*
X139026700Y-117668500D01*
X142926700Y-114768500D02*
X142926700Y-114968500D01*
X139026700Y-114768500D02*
X139026700Y-114968500D01*
X142926700Y-117668500D02*
X142926700Y-117468500D01*
X139026700Y-117668500D02*
X139026700Y-117468500D01*
X138988600Y-119404000D02*
X142888600Y-119404000D01*
X142888600Y-122304000D02*
X138988600Y-122304000D01*
X142888600Y-119404000D02*
X142888600Y-119604000D01*
X138988600Y-119404000D02*
X138988600Y-119604000D01*
X142888600Y-122304000D02*
X142888600Y-122104000D01*
X138988600Y-122304000D02*
X138988600Y-122104000D01*
X150322100Y-116387642D02*
X150322100Y-116862158D01*
X151367100Y-116387642D02*
X151367100Y-116862158D01*
X142791000Y-101071942D02*
X142791000Y-101546458D01*
X143836000Y-101071942D02*
X143836000Y-101546458D01*
X137120000Y-67345000D02*
X138450000Y-67345000D01*
X137120000Y-68675000D02*
X137120000Y-67345000D01*
X137120000Y-69945000D02*
X139780000Y-69945000D01*
X139780000Y-69945000D02*
X139780000Y-113185000D01*
X137120000Y-69945000D02*
X137120000Y-113185000D01*
X137120000Y-113185000D02*
X139780000Y-113185000D01*
X143957860Y-99209400D02*
X143957860Y-96724400D01*
X142587860Y-99209400D02*
X143957860Y-99209400D01*
X142587860Y-96724400D02*
X142587860Y-99209400D01*
X148328000Y-97243820D02*
X148328000Y-97524980D01*
X149348000Y-97243820D02*
X149348000Y-97524980D01*
X145601500Y-116306520D02*
X145601500Y-116587680D01*
X144581500Y-116306520D02*
X144581500Y-116587680D01*
X142565080Y-111902500D02*
X142283920Y-111902500D01*
X142565080Y-110882500D02*
X142283920Y-110882500D01*
X147683180Y-105438200D02*
X147402020Y-105438200D01*
X147683180Y-104418200D02*
X147402020Y-104418200D01*
X143406442Y-124500700D02*
X143880958Y-124500700D01*
X143406442Y-123455700D02*
X143880958Y-123455700D01*
X139715358Y-123455700D02*
X139240842Y-123455700D01*
X139715358Y-124500700D02*
X139240842Y-124500700D01*
X151023438Y-93725000D02*
X150548922Y-93725000D01*
X151023438Y-94770000D02*
X150548922Y-94770000D01*
X157120200Y-113649058D02*
X157120200Y-113174542D01*
X156075200Y-113649058D02*
X156075200Y-113174542D01*
X150262500Y-95942900D02*
X156272500Y-95942900D01*
X152512500Y-102762900D02*
X156272500Y-102762900D01*
X156272500Y-95942900D02*
X156272500Y-97202900D01*
X156272500Y-102762900D02*
X156272500Y-101502900D01*
X142149142Y-108977700D02*
X142623658Y-108977700D01*
X142149142Y-110022700D02*
X142623658Y-110022700D01*
X142309320Y-112774800D02*
X142590480Y-112774800D01*
X142309320Y-113794800D02*
X142590480Y-113794800D01*
X144772000Y-97499580D02*
X144772000Y-97218420D01*
X145792000Y-97499580D02*
X145792000Y-97218420D01*
X145779300Y-101205920D02*
X145779300Y-101487080D01*
X144759300Y-101205920D02*
X144759300Y-101487080D01*
X149335300Y-101257020D02*
X149335300Y-101538180D01*
X148315300Y-101257020D02*
X148315300Y-101538180D01*
X156087900Y-116641642D02*
X156087900Y-117116158D01*
X157132900Y-116641642D02*
X157132900Y-117116158D01*
D11*
X158832857Y-92756666D02*
X158832857Y-93323333D01*
X158861428Y-93390000D01*
X158890000Y-93423333D01*
X158947142Y-93456666D01*
X159061428Y-93456666D01*
X159118571Y-93423333D01*
X159147142Y-93390000D01*
X159175714Y-93323333D01*
X159175714Y-92756666D01*
X159775714Y-93456666D02*
X159432857Y-93456666D01*
X159604285Y-93456666D02*
X159604285Y-92756666D01*
X159547142Y-92856666D01*
X159490000Y-92923333D01*
X159432857Y-92956666D01*
X148736495Y-71916200D02*
X148641257Y-71868580D01*
X148498400Y-71868580D01*
X148355542Y-71916200D01*
X148260304Y-72011438D01*
X148212685Y-72106676D01*
X148165066Y-72297152D01*
X148165066Y-72440009D01*
X148212685Y-72630485D01*
X148260304Y-72725723D01*
X148355542Y-72820961D01*
X148498400Y-72868580D01*
X148593638Y-72868580D01*
X148736495Y-72820961D01*
X148784114Y-72773342D01*
X148784114Y-72440009D01*
X148593638Y-72440009D01*
X149212685Y-72868580D02*
X149212685Y-71868580D01*
X149784114Y-72868580D01*
X149784114Y-71868580D01*
X150260304Y-72868580D02*
X150260304Y-71868580D01*
X150498400Y-71868580D01*
X150641257Y-71916200D01*
X150736495Y-72011438D01*
X150784114Y-72106676D01*
X150831733Y-72297152D01*
X150831733Y-72440009D01*
X150784114Y-72630485D01*
X150736495Y-72725723D01*
X150641257Y-72820961D01*
X150498400Y-72868580D01*
X150260304Y-72868580D01*
D17*
X153257657Y-124026666D02*
X153257657Y-124593333D01*
X153286228Y-124660000D01*
X153314800Y-124693333D01*
X153371942Y-124726666D01*
X153486228Y-124726666D01*
X153543371Y-124693333D01*
X153571942Y-124660000D01*
X153600514Y-124593333D01*
X153600514Y-124026666D01*
X154143371Y-124260000D02*
X154143371Y-124726666D01*
X154000514Y-123993333D02*
X153857657Y-124493333D01*
X154229085Y-124493333D01*
D11*
X137233400Y-124001266D02*
X137233400Y-124501266D01*
X137204828Y-124601266D01*
X137147685Y-124667933D01*
X137061971Y-124701266D01*
X137004828Y-124701266D01*
X137490542Y-124067933D02*
X137519114Y-124034600D01*
X137576257Y-124001266D01*
X137719114Y-124001266D01*
X137776257Y-124034600D01*
X137804828Y-124067933D01*
X137833400Y-124134600D01*
X137833400Y-124201266D01*
X137804828Y-124301266D01*
X137461971Y-124701266D01*
X137833400Y-124701266D01*
X155126142Y-124675866D02*
X155126142Y-123975866D01*
X155269000Y-123975866D01*
X155354714Y-124009200D01*
X155411857Y-124075866D01*
X155440428Y-124142533D01*
X155469000Y-124275866D01*
X155469000Y-124375866D01*
X155440428Y-124509200D01*
X155411857Y-124575866D01*
X155354714Y-124642533D01*
X155269000Y-124675866D01*
X155126142Y-124675866D01*
X156040428Y-124675866D02*
X155697571Y-124675866D01*
X155869000Y-124675866D02*
X155869000Y-123975866D01*
X155811857Y-124075866D01*
X155754714Y-124142533D01*
X155697571Y-124175866D01*
D10*
X144390590Y-107916628D02*
X144152495Y-108083295D01*
X144390590Y-108202342D02*
X143890590Y-108202342D01*
X143890590Y-108011866D01*
X143914400Y-107964247D01*
X143938209Y-107940438D01*
X143985828Y-107916628D01*
X144057257Y-107916628D01*
X144104876Y-107940438D01*
X144128685Y-107964247D01*
X144152495Y-108011866D01*
X144152495Y-108202342D01*
X144390590Y-107440438D02*
X144390590Y-107726152D01*
X144390590Y-107583295D02*
X143890590Y-107583295D01*
X143962019Y-107630914D01*
X144009638Y-107678533D01*
X144033447Y-107726152D01*
X143890590Y-107130914D02*
X143890590Y-107083295D01*
X143914400Y-107035676D01*
X143938209Y-107011866D01*
X143985828Y-106988057D01*
X144081066Y-106964247D01*
X144200114Y-106964247D01*
X144295352Y-106988057D01*
X144342971Y-107011866D01*
X144366780Y-107035676D01*
X144390590Y-107083295D01*
X144390590Y-107130914D01*
X144366780Y-107178533D01*
X144342971Y-107202342D01*
X144295352Y-107226152D01*
X144200114Y-107249961D01*
X144081066Y-107249961D01*
X143985828Y-107226152D01*
X143938209Y-107202342D01*
X143914400Y-107178533D01*
X143890590Y-107130914D01*
D17*
X147122752Y-123493190D02*
X147122752Y-122993190D01*
X147241800Y-122993190D01*
X147313228Y-123017000D01*
X147360847Y-123064619D01*
X147384657Y-123112238D01*
X147408466Y-123207476D01*
X147408466Y-123278904D01*
X147384657Y-123374142D01*
X147360847Y-123421761D01*
X147313228Y-123469380D01*
X147241800Y-123493190D01*
X147122752Y-123493190D01*
X147575133Y-122993190D02*
X147884657Y-122993190D01*
X147717990Y-123183666D01*
X147789419Y-123183666D01*
X147837038Y-123207476D01*
X147860847Y-123231285D01*
X147884657Y-123278904D01*
X147884657Y-123397952D01*
X147860847Y-123445571D01*
X147837038Y-123469380D01*
X147789419Y-123493190D01*
X147646561Y-123493190D01*
X147598942Y-123469380D01*
X147575133Y-123445571D01*
D10*
X146501238Y-114488152D02*
X146501238Y-114811961D01*
X146520285Y-114850057D01*
X146539333Y-114869104D01*
X146577428Y-114888152D01*
X146653619Y-114888152D01*
X146691714Y-114869104D01*
X146710761Y-114850057D01*
X146729809Y-114811961D01*
X146729809Y-114488152D01*
X146882190Y-114488152D02*
X147129809Y-114488152D01*
X146996476Y-114640533D01*
X147053619Y-114640533D01*
X147091714Y-114659580D01*
X147110761Y-114678628D01*
X147129809Y-114716723D01*
X147129809Y-114811961D01*
X147110761Y-114850057D01*
X147091714Y-114869104D01*
X147053619Y-114888152D01*
X146939333Y-114888152D01*
X146901238Y-114869104D01*
X146882190Y-114850057D01*
X154984838Y-114157952D02*
X154984838Y-114481761D01*
X155003885Y-114519857D01*
X155022933Y-114538904D01*
X155061028Y-114557952D01*
X155137219Y-114557952D01*
X155175314Y-114538904D01*
X155194361Y-114519857D01*
X155213409Y-114481761D01*
X155213409Y-114157952D01*
X155384838Y-114196047D02*
X155403885Y-114177000D01*
X155441980Y-114157952D01*
X155537219Y-114157952D01*
X155575314Y-114177000D01*
X155594361Y-114196047D01*
X155613409Y-114234142D01*
X155613409Y-114272238D01*
X155594361Y-114329380D01*
X155365790Y-114557952D01*
X155613409Y-114557952D01*
D11*
X145893200Y-124777466D02*
X145693200Y-124444133D01*
X145550342Y-124777466D02*
X145550342Y-124077466D01*
X145778914Y-124077466D01*
X145836057Y-124110800D01*
X145864628Y-124144133D01*
X145893200Y-124210800D01*
X145893200Y-124310800D01*
X145864628Y-124377466D01*
X145836057Y-124410800D01*
X145778914Y-124444133D01*
X145550342Y-124444133D01*
X146236057Y-124377466D02*
X146178914Y-124344133D01*
X146150342Y-124310800D01*
X146121771Y-124244133D01*
X146121771Y-124210800D01*
X146150342Y-124144133D01*
X146178914Y-124110800D01*
X146236057Y-124077466D01*
X146350342Y-124077466D01*
X146407485Y-124110800D01*
X146436057Y-124144133D01*
X146464628Y-124210800D01*
X146464628Y-124244133D01*
X146436057Y-124310800D01*
X146407485Y-124344133D01*
X146350342Y-124377466D01*
X146236057Y-124377466D01*
X146178914Y-124410800D01*
X146150342Y-124444133D01*
X146121771Y-124510800D01*
X146121771Y-124644133D01*
X146150342Y-124710800D01*
X146178914Y-124744133D01*
X146236057Y-124777466D01*
X146350342Y-124777466D01*
X146407485Y-124744133D01*
X146436057Y-124710800D01*
X146464628Y-124644133D01*
X146464628Y-124510800D01*
X146436057Y-124444133D01*
X146407485Y-124410800D01*
X146350342Y-124377466D01*
X151963800Y-124752066D02*
X151763800Y-124418733D01*
X151620942Y-124752066D02*
X151620942Y-124052066D01*
X151849514Y-124052066D01*
X151906657Y-124085400D01*
X151935228Y-124118733D01*
X151963800Y-124185400D01*
X151963800Y-124285400D01*
X151935228Y-124352066D01*
X151906657Y-124385400D01*
X151849514Y-124418733D01*
X151620942Y-124418733D01*
X152163800Y-124052066D02*
X152563800Y-124052066D01*
X152306657Y-124752066D01*
X153057600Y-126033266D02*
X153057600Y-126533266D01*
X153029028Y-126633266D01*
X152971885Y-126699933D01*
X152886171Y-126733266D01*
X152829028Y-126733266D01*
X153600457Y-126266600D02*
X153600457Y-126733266D01*
X153457600Y-125999933D02*
X153314742Y-126499933D01*
X153686171Y-126499933D01*
X156777142Y-103853428D02*
X156777142Y-103253428D01*
X156920000Y-103253428D01*
X157005714Y-103282000D01*
X157062857Y-103339142D01*
X157091428Y-103396285D01*
X157120000Y-103510571D01*
X157120000Y-103596285D01*
X157091428Y-103710571D01*
X157062857Y-103767714D01*
X157005714Y-103824857D01*
X156920000Y-103853428D01*
X156777142Y-103853428D01*
X157634285Y-103453428D02*
X157634285Y-103853428D01*
X157491428Y-103224857D02*
X157348571Y-103653428D01*
X157720000Y-103653428D01*
D17*
X150837466Y-118695771D02*
X150813657Y-118719580D01*
X150742228Y-118743390D01*
X150694609Y-118743390D01*
X150623180Y-118719580D01*
X150575561Y-118671961D01*
X150551752Y-118624342D01*
X150527942Y-118529104D01*
X150527942Y-118457676D01*
X150551752Y-118362438D01*
X150575561Y-118314819D01*
X150623180Y-118267200D01*
X150694609Y-118243390D01*
X150742228Y-118243390D01*
X150813657Y-118267200D01*
X150837466Y-118291009D01*
X151075561Y-118743390D02*
X151170800Y-118743390D01*
X151218419Y-118719580D01*
X151242228Y-118695771D01*
X151289847Y-118624342D01*
X151313657Y-118529104D01*
X151313657Y-118338628D01*
X151289847Y-118291009D01*
X151266038Y-118267200D01*
X151218419Y-118243390D01*
X151123180Y-118243390D01*
X151075561Y-118267200D01*
X151051752Y-118291009D01*
X151027942Y-118338628D01*
X151027942Y-118457676D01*
X151051752Y-118505295D01*
X151075561Y-118529104D01*
X151123180Y-118552914D01*
X151218419Y-118552914D01*
X151266038Y-118529104D01*
X151289847Y-118505295D01*
X151313657Y-118457676D01*
X144590704Y-118565590D02*
X144590704Y-118065590D01*
X145114514Y-118517971D02*
X145090704Y-118541780D01*
X145019276Y-118565590D01*
X144971657Y-118565590D01*
X144900228Y-118541780D01*
X144852609Y-118494161D01*
X144828800Y-118446542D01*
X144804990Y-118351304D01*
X144804990Y-118279876D01*
X144828800Y-118184638D01*
X144852609Y-118137019D01*
X144900228Y-118089400D01*
X144971657Y-118065590D01*
X145019276Y-118065590D01*
X145090704Y-118089400D01*
X145114514Y-118113209D01*
X145590704Y-118565590D02*
X145304990Y-118565590D01*
X145447847Y-118565590D02*
X145447847Y-118065590D01*
X145400228Y-118137019D01*
X145352609Y-118184638D01*
X145304990Y-118208447D01*
D11*
X161668200Y-124052066D02*
X161668200Y-124552066D01*
X161639628Y-124652066D01*
X161582485Y-124718733D01*
X161496771Y-124752066D01*
X161439628Y-124752066D01*
X162268200Y-124752066D02*
X161925342Y-124752066D01*
X162096771Y-124752066D02*
X162096771Y-124052066D01*
X162039628Y-124152066D01*
X161982485Y-124218733D01*
X161925342Y-124252066D01*
X151449485Y-103751828D02*
X151249485Y-103466114D01*
X151106628Y-103751828D02*
X151106628Y-103151828D01*
X151335200Y-103151828D01*
X151392342Y-103180400D01*
X151420914Y-103208971D01*
X151449485Y-103266114D01*
X151449485Y-103351828D01*
X151420914Y-103408971D01*
X151392342Y-103437542D01*
X151335200Y-103466114D01*
X151106628Y-103466114D01*
X152020914Y-103751828D02*
X151678057Y-103751828D01*
X151849485Y-103751828D02*
X151849485Y-103151828D01*
X151792342Y-103237542D01*
X151735200Y-103294685D01*
X151678057Y-103323257D01*
X152535200Y-103351828D02*
X152535200Y-103751828D01*
X152392342Y-103123257D02*
X152249485Y-103551828D01*
X152620914Y-103551828D01*
D10*
X149075371Y-118768790D02*
X148908704Y-118530695D01*
X148789657Y-118768790D02*
X148789657Y-118268790D01*
X148980133Y-118268790D01*
X149027752Y-118292600D01*
X149051561Y-118316409D01*
X149075371Y-118364028D01*
X149075371Y-118435457D01*
X149051561Y-118483076D01*
X149027752Y-118506885D01*
X148980133Y-118530695D01*
X148789657Y-118530695D01*
X149551561Y-118768790D02*
X149265847Y-118768790D01*
X149408704Y-118768790D02*
X149408704Y-118268790D01*
X149361085Y-118340219D01*
X149313466Y-118387838D01*
X149265847Y-118411647D01*
X149742038Y-118316409D02*
X149765847Y-118292600D01*
X149813466Y-118268790D01*
X149932514Y-118268790D01*
X149980133Y-118292600D01*
X150003942Y-118316409D01*
X150027752Y-118364028D01*
X150027752Y-118411647D01*
X150003942Y-118483076D01*
X149718228Y-118768790D01*
X150027752Y-118768790D01*
D11*
X155640485Y-119672066D02*
X155440485Y-119338733D01*
X155297628Y-119672066D02*
X155297628Y-118972066D01*
X155526200Y-118972066D01*
X155583342Y-119005400D01*
X155611914Y-119038733D01*
X155640485Y-119105400D01*
X155640485Y-119205400D01*
X155611914Y-119272066D01*
X155583342Y-119305400D01*
X155526200Y-119338733D01*
X155297628Y-119338733D01*
X156211914Y-119672066D02*
X155869057Y-119672066D01*
X156040485Y-119672066D02*
X156040485Y-118972066D01*
X155983342Y-119072066D01*
X155926200Y-119138733D01*
X155869057Y-119172066D01*
X156783342Y-119672066D02*
X156440485Y-119672066D01*
X156611914Y-119672066D02*
X156611914Y-118972066D01*
X156554771Y-119072066D01*
X156497628Y-119138733D01*
X156440485Y-119172066D01*
X146909200Y-95627800D02*
X146880628Y-95661133D01*
X146794914Y-95694466D01*
X146737771Y-95694466D01*
X146652057Y-95661133D01*
X146594914Y-95594466D01*
X146566342Y-95527800D01*
X146537771Y-95394466D01*
X146537771Y-95294466D01*
X146566342Y-95161133D01*
X146594914Y-95094466D01*
X146652057Y-95027800D01*
X146737771Y-94994466D01*
X146794914Y-94994466D01*
X146880628Y-95027800D01*
X146909200Y-95061133D01*
X147252057Y-95294466D02*
X147194914Y-95261133D01*
X147166342Y-95227800D01*
X147137771Y-95161133D01*
X147137771Y-95127800D01*
X147166342Y-95061133D01*
X147194914Y-95027800D01*
X147252057Y-94994466D01*
X147366342Y-94994466D01*
X147423485Y-95027800D01*
X147452057Y-95061133D01*
X147480628Y-95127800D01*
X147480628Y-95161133D01*
X147452057Y-95227800D01*
X147423485Y-95261133D01*
X147366342Y-95294466D01*
X147252057Y-95294466D01*
X147194914Y-95327800D01*
X147166342Y-95361133D01*
X147137771Y-95427800D01*
X147137771Y-95561133D01*
X147166342Y-95627800D01*
X147194914Y-95661133D01*
X147252057Y-95694466D01*
X147366342Y-95694466D01*
X147423485Y-95661133D01*
X147452057Y-95627800D01*
X147480628Y-95561133D01*
X147480628Y-95427800D01*
X147452057Y-95361133D01*
X147423485Y-95327800D01*
X147366342Y-95294466D01*
X146960000Y-103679600D02*
X146931428Y-103712933D01*
X146845714Y-103746266D01*
X146788571Y-103746266D01*
X146702857Y-103712933D01*
X146645714Y-103646266D01*
X146617142Y-103579600D01*
X146588571Y-103446266D01*
X146588571Y-103346266D01*
X146617142Y-103212933D01*
X146645714Y-103146266D01*
X146702857Y-103079600D01*
X146788571Y-103046266D01*
X146845714Y-103046266D01*
X146931428Y-103079600D01*
X146960000Y-103112933D01*
X147474285Y-103046266D02*
X147360000Y-103046266D01*
X147302857Y-103079600D01*
X147274285Y-103112933D01*
X147217142Y-103212933D01*
X147188571Y-103346266D01*
X147188571Y-103612933D01*
X147217142Y-103679600D01*
X147245714Y-103712933D01*
X147302857Y-103746266D01*
X147417142Y-103746266D01*
X147474285Y-103712933D01*
X147502857Y-103679600D01*
X147531428Y-103612933D01*
X147531428Y-103446266D01*
X147502857Y-103379600D01*
X147474285Y-103346266D01*
X147417142Y-103312933D01*
X147302857Y-103312933D01*
X147245714Y-103346266D01*
X147217142Y-103379600D01*
X147188571Y-103446266D01*
X157426400Y-119305400D02*
X157226400Y-119305400D01*
X157226400Y-119672066D02*
X157226400Y-118972066D01*
X157512114Y-118972066D01*
X158054971Y-119672066D02*
X157712114Y-119672066D01*
X157883542Y-119672066D02*
X157883542Y-118972066D01*
X157826400Y-119072066D01*
X157769257Y-119138733D01*
X157712114Y-119172066D01*
X163420800Y-124128266D02*
X163420800Y-124628266D01*
X163392228Y-124728266D01*
X163335085Y-124794933D01*
X163249371Y-124828266D01*
X163192228Y-124828266D01*
X163992228Y-124128266D02*
X163706514Y-124128266D01*
X163677942Y-124461600D01*
X163706514Y-124428266D01*
X163763657Y-124394933D01*
X163906514Y-124394933D01*
X163963657Y-124428266D01*
X163992228Y-124461600D01*
X164020800Y-124528266D01*
X164020800Y-124694933D01*
X163992228Y-124761600D01*
X163963657Y-124794933D01*
X163906514Y-124828266D01*
X163763657Y-124828266D01*
X163706514Y-124794933D01*
X163677942Y-124761600D01*
X155086457Y-107440466D02*
X155086457Y-108007133D01*
X155115028Y-108073800D01*
X155143600Y-108107133D01*
X155200742Y-108140466D01*
X155315028Y-108140466D01*
X155372171Y-108107133D01*
X155400742Y-108073800D01*
X155429314Y-108007133D01*
X155429314Y-107440466D01*
X155972171Y-107440466D02*
X155857885Y-107440466D01*
X155800742Y-107473800D01*
X155772171Y-107507133D01*
X155715028Y-107607133D01*
X155686457Y-107740466D01*
X155686457Y-108007133D01*
X155715028Y-108073800D01*
X155743600Y-108107133D01*
X155800742Y-108140466D01*
X155915028Y-108140466D01*
X155972171Y-108107133D01*
X156000742Y-108073800D01*
X156029314Y-108007133D01*
X156029314Y-107840466D01*
X156000742Y-107773800D01*
X155972171Y-107740466D01*
X155915028Y-107707133D01*
X155800742Y-107707133D01*
X155743600Y-107740466D01*
X155715028Y-107773800D01*
X155686457Y-107840466D01*
X158206600Y-110266914D02*
X158239933Y-110295485D01*
X158273266Y-110381200D01*
X158273266Y-110438342D01*
X158239933Y-110524057D01*
X158173266Y-110581200D01*
X158106600Y-110609771D01*
X157973266Y-110638342D01*
X157873266Y-110638342D01*
X157739933Y-110609771D01*
X157673266Y-110581200D01*
X157606600Y-110524057D01*
X157573266Y-110438342D01*
X157573266Y-110381200D01*
X157606600Y-110295485D01*
X157639933Y-110266914D01*
X158273266Y-109695485D02*
X158273266Y-110038342D01*
X158273266Y-109866914D02*
X157573266Y-109866914D01*
X157673266Y-109924057D01*
X157739933Y-109981200D01*
X157773266Y-110038342D01*
X158273266Y-109124057D02*
X158273266Y-109466914D01*
X158273266Y-109295485D02*
X157573266Y-109295485D01*
X157673266Y-109352628D01*
X157739933Y-109409771D01*
X157773266Y-109466914D01*
X140087800Y-118800533D02*
X140173514Y-118833866D01*
X140316371Y-118833866D01*
X140373514Y-118800533D01*
X140402085Y-118767200D01*
X140430657Y-118700533D01*
X140430657Y-118633866D01*
X140402085Y-118567200D01*
X140373514Y-118533866D01*
X140316371Y-118500533D01*
X140202085Y-118467200D01*
X140144942Y-118433866D01*
X140116371Y-118400533D01*
X140087800Y-118333866D01*
X140087800Y-118267200D01*
X140116371Y-118200533D01*
X140144942Y-118167200D01*
X140202085Y-118133866D01*
X140344942Y-118133866D01*
X140430657Y-118167200D01*
X140630657Y-118133866D02*
X140773514Y-118833866D01*
X140887800Y-118333866D01*
X141002085Y-118833866D01*
X141144942Y-118133866D01*
X141344942Y-118200533D02*
X141373514Y-118167200D01*
X141430657Y-118133866D01*
X141573514Y-118133866D01*
X141630657Y-118167200D01*
X141659228Y-118200533D01*
X141687800Y-118267200D01*
X141687800Y-118333866D01*
X141659228Y-118433866D01*
X141316371Y-118833866D01*
X141687800Y-118833866D01*
X140291000Y-123143933D02*
X140376714Y-123177266D01*
X140519571Y-123177266D01*
X140576714Y-123143933D01*
X140605285Y-123110600D01*
X140633857Y-123043933D01*
X140633857Y-122977266D01*
X140605285Y-122910600D01*
X140576714Y-122877266D01*
X140519571Y-122843933D01*
X140405285Y-122810600D01*
X140348142Y-122777266D01*
X140319571Y-122743933D01*
X140291000Y-122677266D01*
X140291000Y-122610600D01*
X140319571Y-122543933D01*
X140348142Y-122510600D01*
X140405285Y-122477266D01*
X140548142Y-122477266D01*
X140633857Y-122510600D01*
X140833857Y-122477266D02*
X140976714Y-123177266D01*
X141091000Y-122677266D01*
X141205285Y-123177266D01*
X141348142Y-122477266D01*
X141891000Y-123177266D02*
X141548142Y-123177266D01*
X141719571Y-123177266D02*
X141719571Y-122477266D01*
X141662428Y-122577266D01*
X141605285Y-122643933D01*
X141548142Y-122677266D01*
D10*
X149406333Y-114761152D02*
X149273000Y-114570676D01*
X149177761Y-114761152D02*
X149177761Y-114361152D01*
X149330142Y-114361152D01*
X149368238Y-114380200D01*
X149387285Y-114399247D01*
X149406333Y-114437342D01*
X149406333Y-114494485D01*
X149387285Y-114532580D01*
X149368238Y-114551628D01*
X149330142Y-114570676D01*
X149177761Y-114570676D01*
X149768238Y-114361152D02*
X149577761Y-114361152D01*
X149558714Y-114551628D01*
X149577761Y-114532580D01*
X149615857Y-114513533D01*
X149711095Y-114513533D01*
X149749190Y-114532580D01*
X149768238Y-114551628D01*
X149787285Y-114589723D01*
X149787285Y-114684961D01*
X149768238Y-114723057D01*
X149749190Y-114742104D01*
X149711095Y-114761152D01*
X149615857Y-114761152D01*
X149577761Y-114742104D01*
X149558714Y-114723057D01*
D11*
X142940485Y-103720866D02*
X142740485Y-103387533D01*
X142597628Y-103720866D02*
X142597628Y-103020866D01*
X142826200Y-103020866D01*
X142883342Y-103054200D01*
X142911914Y-103087533D01*
X142940485Y-103154200D01*
X142940485Y-103254200D01*
X142911914Y-103320866D01*
X142883342Y-103354200D01*
X142826200Y-103387533D01*
X142597628Y-103387533D01*
X143511914Y-103720866D02*
X143169057Y-103720866D01*
X143340485Y-103720866D02*
X143340485Y-103020866D01*
X143283342Y-103120866D01*
X143226200Y-103187533D01*
X143169057Y-103220866D01*
X143711914Y-103020866D02*
X144083342Y-103020866D01*
X143883342Y-103287533D01*
X143969057Y-103287533D01*
X144026200Y-103320866D01*
X144054771Y-103354200D01*
X144083342Y-103420866D01*
X144083342Y-103587533D01*
X144054771Y-103654200D01*
X144026200Y-103687533D01*
X143969057Y-103720866D01*
X143797628Y-103720866D01*
X143740485Y-103687533D01*
X143711914Y-103654200D01*
X138325600Y-113511066D02*
X138325600Y-114011066D01*
X138297028Y-114111066D01*
X138239885Y-114177733D01*
X138154171Y-114211066D01*
X138097028Y-114211066D01*
X138554171Y-113511066D02*
X138925600Y-113511066D01*
X138725600Y-113777733D01*
X138811314Y-113777733D01*
X138868457Y-113811066D01*
X138897028Y-113844400D01*
X138925600Y-113911066D01*
X138925600Y-114077733D01*
X138897028Y-114144400D01*
X138868457Y-114177733D01*
X138811314Y-114211066D01*
X138639885Y-114211066D01*
X138582742Y-114177733D01*
X138554171Y-114144400D01*
X142807142Y-95669066D02*
X142807142Y-94969066D01*
X142950000Y-94969066D01*
X143035714Y-95002400D01*
X143092857Y-95069066D01*
X143121428Y-95135733D01*
X143150000Y-95269066D01*
X143150000Y-95369066D01*
X143121428Y-95502400D01*
X143092857Y-95569066D01*
X143035714Y-95635733D01*
X142950000Y-95669066D01*
X142807142Y-95669066D01*
X143378571Y-95035733D02*
X143407142Y-95002400D01*
X143464285Y-94969066D01*
X143607142Y-94969066D01*
X143664285Y-95002400D01*
X143692857Y-95035733D01*
X143721428Y-95102400D01*
X143721428Y-95169066D01*
X143692857Y-95269066D01*
X143350000Y-95669066D01*
X143721428Y-95669066D01*
X148376085Y-95653200D02*
X148347514Y-95686533D01*
X148261800Y-95719866D01*
X148204657Y-95719866D01*
X148118942Y-95686533D01*
X148061800Y-95619866D01*
X148033228Y-95553200D01*
X148004657Y-95419866D01*
X148004657Y-95319866D01*
X148033228Y-95186533D01*
X148061800Y-95119866D01*
X148118942Y-95053200D01*
X148204657Y-95019866D01*
X148261800Y-95019866D01*
X148347514Y-95053200D01*
X148376085Y-95086533D01*
X148947514Y-95719866D02*
X148604657Y-95719866D01*
X148776085Y-95719866D02*
X148776085Y-95019866D01*
X148718942Y-95119866D01*
X148661800Y-95186533D01*
X148604657Y-95219866D01*
X149318942Y-95019866D02*
X149376085Y-95019866D01*
X149433228Y-95053200D01*
X149461800Y-95086533D01*
X149490371Y-95153200D01*
X149518942Y-95286533D01*
X149518942Y-95453200D01*
X149490371Y-95586533D01*
X149461800Y-95653200D01*
X149433228Y-95686533D01*
X149376085Y-95719866D01*
X149318942Y-95719866D01*
X149261800Y-95686533D01*
X149233228Y-95653200D01*
X149204657Y-95586533D01*
X149176085Y-95453200D01*
X149176085Y-95286533D01*
X149204657Y-95153200D01*
X149233228Y-95086533D01*
X149261800Y-95053200D01*
X149318942Y-95019866D01*
D10*
X145012133Y-114875457D02*
X144993085Y-114894504D01*
X144935942Y-114913552D01*
X144897847Y-114913552D01*
X144840704Y-114894504D01*
X144802609Y-114856409D01*
X144783561Y-114818314D01*
X144764514Y-114742123D01*
X144764514Y-114684980D01*
X144783561Y-114608790D01*
X144802609Y-114570695D01*
X144840704Y-114532600D01*
X144897847Y-114513552D01*
X144935942Y-114513552D01*
X144993085Y-114532600D01*
X145012133Y-114551647D01*
X145354990Y-114646885D02*
X145354990Y-114913552D01*
X145259752Y-114494504D02*
X145164514Y-114780219D01*
X145412133Y-114780219D01*
X144368371Y-111435833D02*
X144392180Y-111459642D01*
X144415990Y-111531071D01*
X144415990Y-111578690D01*
X144392180Y-111650119D01*
X144344561Y-111697738D01*
X144296942Y-111721547D01*
X144201704Y-111745357D01*
X144130276Y-111745357D01*
X144035038Y-111721547D01*
X143987419Y-111697738D01*
X143939800Y-111650119D01*
X143915990Y-111578690D01*
X143915990Y-111531071D01*
X143939800Y-111459642D01*
X143963609Y-111435833D01*
X144415990Y-110959642D02*
X144415990Y-111245357D01*
X144415990Y-111102500D02*
X143915990Y-111102500D01*
X143987419Y-111150119D01*
X144035038Y-111197738D01*
X144058847Y-111245357D01*
D11*
X145659000Y-105364714D02*
X145692333Y-105393285D01*
X145725666Y-105479000D01*
X145725666Y-105536142D01*
X145692333Y-105621857D01*
X145625666Y-105679000D01*
X145559000Y-105707571D01*
X145425666Y-105736142D01*
X145325666Y-105736142D01*
X145192333Y-105707571D01*
X145125666Y-105679000D01*
X145059000Y-105621857D01*
X145025666Y-105536142D01*
X145025666Y-105479000D01*
X145059000Y-105393285D01*
X145092333Y-105364714D01*
X145725666Y-104793285D02*
X145725666Y-105136142D01*
X145725666Y-104964714D02*
X145025666Y-104964714D01*
X145125666Y-105021857D01*
X145192333Y-105079000D01*
X145225666Y-105136142D01*
X145092333Y-104564714D02*
X145059000Y-104536142D01*
X145025666Y-104479000D01*
X145025666Y-104336142D01*
X145059000Y-104279000D01*
X145092333Y-104250428D01*
X145159000Y-104221857D01*
X145225666Y-104221857D01*
X145325666Y-104250428D01*
X145725666Y-104593285D01*
X145725666Y-104221857D01*
X141448200Y-124675866D02*
X141248200Y-124342533D01*
X141105342Y-124675866D02*
X141105342Y-123975866D01*
X141333914Y-123975866D01*
X141391057Y-124009200D01*
X141419628Y-124042533D01*
X141448200Y-124109200D01*
X141448200Y-124209200D01*
X141419628Y-124275866D01*
X141391057Y-124309200D01*
X141333914Y-124342533D01*
X141105342Y-124342533D01*
X141648200Y-123975866D02*
X142019628Y-123975866D01*
X141819628Y-124242533D01*
X141905342Y-124242533D01*
X141962485Y-124275866D01*
X141991057Y-124309200D01*
X142019628Y-124375866D01*
X142019628Y-124542533D01*
X141991057Y-124609200D01*
X141962485Y-124642533D01*
X141905342Y-124675866D01*
X141733914Y-124675866D01*
X141676771Y-124642533D01*
X141648200Y-124609200D01*
X137384200Y-123405866D02*
X137184200Y-123072533D01*
X137041342Y-123405866D02*
X137041342Y-122705866D01*
X137269914Y-122705866D01*
X137327057Y-122739200D01*
X137355628Y-122772533D01*
X137384200Y-122839200D01*
X137384200Y-122939200D01*
X137355628Y-123005866D01*
X137327057Y-123039200D01*
X137269914Y-123072533D01*
X137041342Y-123072533D01*
X137898485Y-122705866D02*
X137784200Y-122705866D01*
X137727057Y-122739200D01*
X137698485Y-122772533D01*
X137641342Y-122872533D01*
X137612771Y-123005866D01*
X137612771Y-123272533D01*
X137641342Y-123339200D01*
X137669914Y-123372533D01*
X137727057Y-123405866D01*
X137841342Y-123405866D01*
X137898485Y-123372533D01*
X137927057Y-123339200D01*
X137955628Y-123272533D01*
X137955628Y-123105866D01*
X137927057Y-123039200D01*
X137898485Y-123005866D01*
X137841342Y-122972533D01*
X137727057Y-122972533D01*
X137669914Y-123005866D01*
X137641342Y-123039200D01*
X137612771Y-123105866D01*
X153246666Y-94334800D02*
X152913333Y-94534800D01*
X153246666Y-94677657D02*
X152546666Y-94677657D01*
X152546666Y-94449085D01*
X152580000Y-94391942D01*
X152613333Y-94363371D01*
X152680000Y-94334800D01*
X152780000Y-94334800D01*
X152846666Y-94363371D01*
X152880000Y-94391942D01*
X152913333Y-94449085D01*
X152913333Y-94677657D01*
X153246666Y-93763371D02*
X153246666Y-94106228D01*
X153246666Y-93934800D02*
X152546666Y-93934800D01*
X152646666Y-93991942D01*
X152713333Y-94049085D01*
X152746666Y-94106228D01*
X158324066Y-113638800D02*
X157990733Y-113838800D01*
X158324066Y-113981657D02*
X157624066Y-113981657D01*
X157624066Y-113753085D01*
X157657400Y-113695942D01*
X157690733Y-113667371D01*
X157757400Y-113638800D01*
X157857400Y-113638800D01*
X157924066Y-113667371D01*
X157957400Y-113695942D01*
X157990733Y-113753085D01*
X157990733Y-113981657D01*
X158324066Y-113353085D02*
X158324066Y-113238800D01*
X158290733Y-113181657D01*
X158257400Y-113153085D01*
X158157400Y-113095942D01*
X158024066Y-113067371D01*
X157757400Y-113067371D01*
X157690733Y-113095942D01*
X157657400Y-113124514D01*
X157624066Y-113181657D01*
X157624066Y-113295942D01*
X157657400Y-113353085D01*
X157690733Y-113381657D01*
X157757400Y-113410228D01*
X157924066Y-113410228D01*
X157990733Y-113381657D01*
X158024066Y-113353085D01*
X158057400Y-113295942D01*
X158057400Y-113181657D01*
X158024066Y-113124514D01*
X157990733Y-113095942D01*
X157924066Y-113067371D01*
X157804257Y-94892866D02*
X157804257Y-95459533D01*
X157832828Y-95526200D01*
X157861400Y-95559533D01*
X157918542Y-95592866D01*
X158032828Y-95592866D01*
X158089971Y-95559533D01*
X158118542Y-95526200D01*
X158147114Y-95459533D01*
X158147114Y-94892866D01*
X158718542Y-94892866D02*
X158432828Y-94892866D01*
X158404257Y-95226200D01*
X158432828Y-95192866D01*
X158489971Y-95159533D01*
X158632828Y-95159533D01*
X158689971Y-95192866D01*
X158718542Y-95226200D01*
X158747114Y-95292866D01*
X158747114Y-95459533D01*
X158718542Y-95526200D01*
X158689971Y-95559533D01*
X158632828Y-95592866D01*
X158489971Y-95592866D01*
X158432828Y-95559533D01*
X158404257Y-95526200D01*
D10*
X144390590Y-109227933D02*
X144152495Y-109394600D01*
X144390590Y-109513647D02*
X143890590Y-109513647D01*
X143890590Y-109323171D01*
X143914400Y-109275552D01*
X143938209Y-109251742D01*
X143985828Y-109227933D01*
X144057257Y-109227933D01*
X144104876Y-109251742D01*
X144128685Y-109275552D01*
X144152495Y-109323171D01*
X144152495Y-109513647D01*
X143938209Y-109037457D02*
X143914400Y-109013647D01*
X143890590Y-108966028D01*
X143890590Y-108846980D01*
X143914400Y-108799361D01*
X143938209Y-108775552D01*
X143985828Y-108751742D01*
X144033447Y-108751742D01*
X144104876Y-108775552D01*
X144390590Y-109061266D01*
X144390590Y-108751742D01*
X144393771Y-113342733D02*
X144417580Y-113366542D01*
X144441390Y-113437971D01*
X144441390Y-113485590D01*
X144417580Y-113557019D01*
X144369961Y-113604638D01*
X144322342Y-113628447D01*
X144227104Y-113652257D01*
X144155676Y-113652257D01*
X144060438Y-113628447D01*
X144012819Y-113604638D01*
X143965200Y-113557019D01*
X143941390Y-113485590D01*
X143941390Y-113437971D01*
X143965200Y-113366542D01*
X143989009Y-113342733D01*
X143941390Y-112890352D02*
X143941390Y-113128447D01*
X144179485Y-113152257D01*
X144155676Y-113128447D01*
X144131866Y-113080828D01*
X144131866Y-112961780D01*
X144155676Y-112914161D01*
X144179485Y-112890352D01*
X144227104Y-112866542D01*
X144346152Y-112866542D01*
X144393771Y-112890352D01*
X144417580Y-112914161D01*
X144441390Y-112961780D01*
X144441390Y-113080828D01*
X144417580Y-113128447D01*
X144393771Y-113152257D01*
D11*
X145207400Y-95627800D02*
X145178828Y-95661133D01*
X145093114Y-95694466D01*
X145035971Y-95694466D01*
X144950257Y-95661133D01*
X144893114Y-95594466D01*
X144864542Y-95527800D01*
X144835971Y-95394466D01*
X144835971Y-95294466D01*
X144864542Y-95161133D01*
X144893114Y-95094466D01*
X144950257Y-95027800D01*
X145035971Y-94994466D01*
X145093114Y-94994466D01*
X145178828Y-95027800D01*
X145207400Y-95061133D01*
X145407400Y-94994466D02*
X145778828Y-94994466D01*
X145578828Y-95261133D01*
X145664542Y-95261133D01*
X145721685Y-95294466D01*
X145750257Y-95327800D01*
X145778828Y-95394466D01*
X145778828Y-95561133D01*
X145750257Y-95627800D01*
X145721685Y-95661133D01*
X145664542Y-95694466D01*
X145493114Y-95694466D01*
X145435971Y-95661133D01*
X145407400Y-95627800D01*
X145156600Y-103654200D02*
X145128028Y-103687533D01*
X145042314Y-103720866D01*
X144985171Y-103720866D01*
X144899457Y-103687533D01*
X144842314Y-103620866D01*
X144813742Y-103554200D01*
X144785171Y-103420866D01*
X144785171Y-103320866D01*
X144813742Y-103187533D01*
X144842314Y-103120866D01*
X144899457Y-103054200D01*
X144985171Y-103020866D01*
X145042314Y-103020866D01*
X145128028Y-103054200D01*
X145156600Y-103087533D01*
X145385171Y-103087533D02*
X145413742Y-103054200D01*
X145470885Y-103020866D01*
X145613742Y-103020866D01*
X145670885Y-103054200D01*
X145699457Y-103087533D01*
X145728028Y-103154200D01*
X145728028Y-103220866D01*
X145699457Y-103320866D01*
X145356600Y-103720866D01*
X145728028Y-103720866D01*
X148738000Y-103705000D02*
X148709428Y-103738333D01*
X148623714Y-103771666D01*
X148566571Y-103771666D01*
X148480857Y-103738333D01*
X148423714Y-103671666D01*
X148395142Y-103605000D01*
X148366571Y-103471666D01*
X148366571Y-103371666D01*
X148395142Y-103238333D01*
X148423714Y-103171666D01*
X148480857Y-103105000D01*
X148566571Y-103071666D01*
X148623714Y-103071666D01*
X148709428Y-103105000D01*
X148738000Y-103138333D01*
X148938000Y-103071666D02*
X149338000Y-103071666D01*
X149080857Y-103771666D01*
X158400266Y-116890000D02*
X158066933Y-117090000D01*
X158400266Y-117232857D02*
X157700266Y-117232857D01*
X157700266Y-117004285D01*
X157733600Y-116947142D01*
X157766933Y-116918571D01*
X157833600Y-116890000D01*
X157933600Y-116890000D01*
X158000266Y-116918571D01*
X158033600Y-116947142D01*
X158066933Y-117004285D01*
X158066933Y-117232857D01*
X157933600Y-116375714D02*
X158400266Y-116375714D01*
X157666933Y-116518571D02*
X158166933Y-116661428D01*
X158166933Y-116290000D01*
M02*
