%TF.GenerationSoftware,KiCad,Pcbnew,5.1.9-73d0e3b20d~88~ubuntu20.04.1*%
%TF.CreationDate,2021-03-20T23:45:23+05:30*%
%TF.ProjectId,ESP32-S2,45535033-322d-4533-922e-6b696361645f,rev?*%
%TF.SameCoordinates,Original*%
%TF.FileFunction,Copper,L1,Top*%
%TF.FilePolarity,Positive*%
%FSLAX46Y46*%
G04 Gerber Fmt 4.6, Leading zero omitted, Abs format (unit mm)*
G04 Created by KiCad (PCBNEW 5.1.9-73d0e3b20d~88~ubuntu20.04.1) date 2021-03-20 23:45:23*
%MOMM*%
%LPD*%
G01*
G04 APERTURE LIST*
%TA.AperFunction,SMDPad,CuDef*%
%ADD10R,0.460000X1.040000*%
%TD*%
%TA.AperFunction,ComponentPad*%
%ADD11O,1.700000X1.700000*%
%TD*%
%TA.AperFunction,ComponentPad*%
%ADD12R,1.700000X1.700000*%
%TD*%
%TA.AperFunction,SMDPad,CuDef*%
%ADD13R,1.100000X1.100000*%
%TD*%
%TA.AperFunction,SMDPad,CuDef*%
%ADD14R,1.500000X0.900000*%
%TD*%
%TA.AperFunction,SMDPad,CuDef*%
%ADD15R,0.900000X1.500000*%
%TD*%
%TA.AperFunction,ComponentPad*%
%ADD16C,2.150000*%
%TD*%
%TA.AperFunction,ComponentPad*%
%ADD17R,1.600000X1.600000*%
%TD*%
%TA.AperFunction,ComponentPad*%
%ADD18C,1.600000*%
%TD*%
%TA.AperFunction,SMDPad,CuDef*%
%ADD19R,2.000000X1.000000*%
%TD*%
%TA.AperFunction,SMDPad,CuDef*%
%ADD20R,0.800000X0.900000*%
%TD*%
%TA.AperFunction,SMDPad,CuDef*%
%ADD21R,2.000000X1.500000*%
%TD*%
%TA.AperFunction,SMDPad,CuDef*%
%ADD22R,2.000000X3.800000*%
%TD*%
%TA.AperFunction,ComponentPad*%
%ADD23O,1.050000X2.100000*%
%TD*%
%TA.AperFunction,SMDPad,CuDef*%
%ADD24R,0.600000X1.450000*%
%TD*%
%TA.AperFunction,SMDPad,CuDef*%
%ADD25R,0.300000X1.450000*%
%TD*%
%TA.AperFunction,ViaPad*%
%ADD26C,0.800000*%
%TD*%
%TA.AperFunction,Conductor*%
%ADD27C,0.200000*%
%TD*%
%TA.AperFunction,Conductor*%
%ADD28C,0.400000*%
%TD*%
%TA.AperFunction,Conductor*%
%ADD29C,0.254000*%
%TD*%
%TA.AperFunction,Conductor*%
%ADD30C,0.100000*%
%TD*%
G04 APERTURE END LIST*
%TA.AperFunction,SMDPad,CuDef*%
G36*
G01*
X147786000Y-124315000D02*
X147286000Y-124315000D01*
G75*
G02*
X147061000Y-124090000I0J225000D01*
G01*
X147061000Y-123640000D01*
G75*
G02*
X147286000Y-123415000I225000J0D01*
G01*
X147786000Y-123415000D01*
G75*
G02*
X148011000Y-123640000I0J-225000D01*
G01*
X148011000Y-124090000D01*
G75*
G02*
X147786000Y-124315000I-225000J0D01*
G01*
G37*
%TD.AperFunction*%
%TA.AperFunction,SMDPad,CuDef*%
G36*
G01*
X147786000Y-125865000D02*
X147286000Y-125865000D01*
G75*
G02*
X147061000Y-125640000I0J225000D01*
G01*
X147061000Y-125190000D01*
G75*
G02*
X147286000Y-124965000I225000J0D01*
G01*
X147786000Y-124965000D01*
G75*
G02*
X148011000Y-125190000I0J-225000D01*
G01*
X148011000Y-125640000D01*
G75*
G02*
X147786000Y-125865000I-225000J0D01*
G01*
G37*
%TD.AperFunction*%
%TA.AperFunction,SMDPad,CuDef*%
G36*
G01*
X145698000Y-124305000D02*
X145198000Y-124305000D01*
G75*
G02*
X144973000Y-124080000I0J225000D01*
G01*
X144973000Y-123630000D01*
G75*
G02*
X145198000Y-123405000I225000J0D01*
G01*
X145698000Y-123405000D01*
G75*
G02*
X145923000Y-123630000I0J-225000D01*
G01*
X145923000Y-124080000D01*
G75*
G02*
X145698000Y-124305000I-225000J0D01*
G01*
G37*
%TD.AperFunction*%
%TA.AperFunction,SMDPad,CuDef*%
G36*
G01*
X145698000Y-125855000D02*
X145198000Y-125855000D01*
G75*
G02*
X144973000Y-125630000I0J225000D01*
G01*
X144973000Y-125180000D01*
G75*
G02*
X145198000Y-124955000I225000J0D01*
G01*
X145698000Y-124955000D01*
G75*
G02*
X145923000Y-125180000I0J-225000D01*
G01*
X145923000Y-125630000D01*
G75*
G02*
X145698000Y-125855000I-225000J0D01*
G01*
G37*
%TD.AperFunction*%
D10*
X148900000Y-130690000D03*
X148900000Y-128310000D03*
%TA.AperFunction,SMDPad,CuDef*%
G36*
G01*
X139050000Y-123625000D02*
X139050000Y-124875000D01*
G75*
G02*
X138800000Y-125125000I-250000J0D01*
G01*
X138050000Y-125125000D01*
G75*
G02*
X137800000Y-124875000I0J250000D01*
G01*
X137800000Y-123625000D01*
G75*
G02*
X138050000Y-123375000I250000J0D01*
G01*
X138800000Y-123375000D01*
G75*
G02*
X139050000Y-123625000I0J-250000D01*
G01*
G37*
%TD.AperFunction*%
%TA.AperFunction,SMDPad,CuDef*%
G36*
G01*
X141850000Y-123625000D02*
X141850000Y-124875000D01*
G75*
G02*
X141600000Y-125125000I-250000J0D01*
G01*
X140850000Y-125125000D01*
G75*
G02*
X140600000Y-124875000I0J250000D01*
G01*
X140600000Y-123625000D01*
G75*
G02*
X140850000Y-123375000I250000J0D01*
G01*
X141600000Y-123375000D01*
G75*
G02*
X141850000Y-123625000I0J-250000D01*
G01*
G37*
%TD.AperFunction*%
D11*
X163240000Y-122015000D03*
X163240000Y-119475000D03*
X163240000Y-116935000D03*
X163240000Y-114395000D03*
X163240000Y-111855000D03*
X163240000Y-109315000D03*
X163240000Y-106775000D03*
X163240000Y-104235000D03*
X163240000Y-101695000D03*
X163240000Y-99155000D03*
X163240000Y-96615000D03*
X163240000Y-94075000D03*
X163240000Y-91535000D03*
X163240000Y-88995000D03*
X163240000Y-86455000D03*
X163240000Y-83915000D03*
X163240000Y-81375000D03*
X163240000Y-78835000D03*
X163240000Y-76295000D03*
X163240000Y-73755000D03*
X163240000Y-71215000D03*
D12*
X163240000Y-68675000D03*
D13*
X148010000Y-74750000D03*
X149510000Y-74750000D03*
X151010000Y-74750000D03*
X151010000Y-76250000D03*
X151010000Y-77750000D03*
X149510000Y-77750000D03*
X148010000Y-77750000D03*
X148010000Y-76250000D03*
X149510000Y-76250000D03*
D14*
X159450000Y-68200000D03*
X159450000Y-69700000D03*
X159450000Y-71200000D03*
X159450000Y-72700000D03*
X159450000Y-74200000D03*
X159450000Y-75700000D03*
X159450000Y-77200000D03*
X159450000Y-78700000D03*
X159450000Y-80200000D03*
X159450000Y-81700000D03*
X159450000Y-83200000D03*
X159450000Y-84700000D03*
X159450000Y-86200000D03*
X159450000Y-87700000D03*
X159450000Y-89200000D03*
X159450000Y-90700000D03*
D15*
X157450000Y-91450000D03*
X155950000Y-91450000D03*
X154450000Y-91450000D03*
X152950000Y-91450000D03*
X151450000Y-91450000D03*
X149950000Y-91450000D03*
X148450000Y-91450000D03*
X146950000Y-91450000D03*
X145450000Y-91450000D03*
X143950000Y-91450000D03*
D14*
X141950000Y-90700000D03*
X141950000Y-89200000D03*
X141950000Y-87700000D03*
X141950000Y-86200000D03*
X141950000Y-84700000D03*
X141950000Y-83200000D03*
X141950000Y-81700000D03*
X141950000Y-80200000D03*
X141950000Y-78700000D03*
X141950000Y-77200000D03*
X141950000Y-75700000D03*
X141950000Y-74200000D03*
X141950000Y-72700000D03*
X141950000Y-71200000D03*
X141950000Y-69700000D03*
X141950000Y-68200000D03*
%TA.AperFunction,SMDPad,CuDef*%
G36*
G01*
X155366580Y-104829740D02*
X155666580Y-104829740D01*
G75*
G02*
X155816580Y-104979740I0J-150000D01*
G01*
X155816580Y-106629740D01*
G75*
G02*
X155666580Y-106779740I-150000J0D01*
G01*
X155366580Y-106779740D01*
G75*
G02*
X155216580Y-106629740I0J150000D01*
G01*
X155216580Y-104979740D01*
G75*
G02*
X155366580Y-104829740I150000J0D01*
G01*
G37*
%TD.AperFunction*%
%TA.AperFunction,SMDPad,CuDef*%
G36*
G01*
X154096580Y-104829740D02*
X154396580Y-104829740D01*
G75*
G02*
X154546580Y-104979740I0J-150000D01*
G01*
X154546580Y-106629740D01*
G75*
G02*
X154396580Y-106779740I-150000J0D01*
G01*
X154096580Y-106779740D01*
G75*
G02*
X153946580Y-106629740I0J150000D01*
G01*
X153946580Y-104979740D01*
G75*
G02*
X154096580Y-104829740I150000J0D01*
G01*
G37*
%TD.AperFunction*%
%TA.AperFunction,SMDPad,CuDef*%
G36*
G01*
X152826580Y-104829740D02*
X153126580Y-104829740D01*
G75*
G02*
X153276580Y-104979740I0J-150000D01*
G01*
X153276580Y-106629740D01*
G75*
G02*
X153126580Y-106779740I-150000J0D01*
G01*
X152826580Y-106779740D01*
G75*
G02*
X152676580Y-106629740I0J150000D01*
G01*
X152676580Y-104979740D01*
G75*
G02*
X152826580Y-104829740I150000J0D01*
G01*
G37*
%TD.AperFunction*%
%TA.AperFunction,SMDPad,CuDef*%
G36*
G01*
X151556580Y-104829740D02*
X151856580Y-104829740D01*
G75*
G02*
X152006580Y-104979740I0J-150000D01*
G01*
X152006580Y-106629740D01*
G75*
G02*
X151856580Y-106779740I-150000J0D01*
G01*
X151556580Y-106779740D01*
G75*
G02*
X151406580Y-106629740I0J150000D01*
G01*
X151406580Y-104979740D01*
G75*
G02*
X151556580Y-104829740I150000J0D01*
G01*
G37*
%TD.AperFunction*%
%TA.AperFunction,SMDPad,CuDef*%
G36*
G01*
X150286580Y-104829740D02*
X150586580Y-104829740D01*
G75*
G02*
X150736580Y-104979740I0J-150000D01*
G01*
X150736580Y-106629740D01*
G75*
G02*
X150586580Y-106779740I-150000J0D01*
G01*
X150286580Y-106779740D01*
G75*
G02*
X150136580Y-106629740I0J150000D01*
G01*
X150136580Y-104979740D01*
G75*
G02*
X150286580Y-104829740I150000J0D01*
G01*
G37*
%TD.AperFunction*%
%TA.AperFunction,SMDPad,CuDef*%
G36*
G01*
X149016580Y-104829740D02*
X149316580Y-104829740D01*
G75*
G02*
X149466580Y-104979740I0J-150000D01*
G01*
X149466580Y-106629740D01*
G75*
G02*
X149316580Y-106779740I-150000J0D01*
G01*
X149016580Y-106779740D01*
G75*
G02*
X148866580Y-106629740I0J150000D01*
G01*
X148866580Y-104979740D01*
G75*
G02*
X149016580Y-104829740I150000J0D01*
G01*
G37*
%TD.AperFunction*%
%TA.AperFunction,SMDPad,CuDef*%
G36*
G01*
X147746580Y-104829740D02*
X148046580Y-104829740D01*
G75*
G02*
X148196580Y-104979740I0J-150000D01*
G01*
X148196580Y-106629740D01*
G75*
G02*
X148046580Y-106779740I-150000J0D01*
G01*
X147746580Y-106779740D01*
G75*
G02*
X147596580Y-106629740I0J150000D01*
G01*
X147596580Y-104979740D01*
G75*
G02*
X147746580Y-104829740I150000J0D01*
G01*
G37*
%TD.AperFunction*%
%TA.AperFunction,SMDPad,CuDef*%
G36*
G01*
X146476580Y-104829740D02*
X146776580Y-104829740D01*
G75*
G02*
X146926580Y-104979740I0J-150000D01*
G01*
X146926580Y-106629740D01*
G75*
G02*
X146776580Y-106779740I-150000J0D01*
G01*
X146476580Y-106779740D01*
G75*
G02*
X146326580Y-106629740I0J150000D01*
G01*
X146326580Y-104979740D01*
G75*
G02*
X146476580Y-104829740I150000J0D01*
G01*
G37*
%TD.AperFunction*%
%TA.AperFunction,SMDPad,CuDef*%
G36*
G01*
X146476580Y-99879740D02*
X146776580Y-99879740D01*
G75*
G02*
X146926580Y-100029740I0J-150000D01*
G01*
X146926580Y-101679740D01*
G75*
G02*
X146776580Y-101829740I-150000J0D01*
G01*
X146476580Y-101829740D01*
G75*
G02*
X146326580Y-101679740I0J150000D01*
G01*
X146326580Y-100029740D01*
G75*
G02*
X146476580Y-99879740I150000J0D01*
G01*
G37*
%TD.AperFunction*%
%TA.AperFunction,SMDPad,CuDef*%
G36*
G01*
X147746580Y-99879740D02*
X148046580Y-99879740D01*
G75*
G02*
X148196580Y-100029740I0J-150000D01*
G01*
X148196580Y-101679740D01*
G75*
G02*
X148046580Y-101829740I-150000J0D01*
G01*
X147746580Y-101829740D01*
G75*
G02*
X147596580Y-101679740I0J150000D01*
G01*
X147596580Y-100029740D01*
G75*
G02*
X147746580Y-99879740I150000J0D01*
G01*
G37*
%TD.AperFunction*%
%TA.AperFunction,SMDPad,CuDef*%
G36*
G01*
X149016580Y-99879740D02*
X149316580Y-99879740D01*
G75*
G02*
X149466580Y-100029740I0J-150000D01*
G01*
X149466580Y-101679740D01*
G75*
G02*
X149316580Y-101829740I-150000J0D01*
G01*
X149016580Y-101829740D01*
G75*
G02*
X148866580Y-101679740I0J150000D01*
G01*
X148866580Y-100029740D01*
G75*
G02*
X149016580Y-99879740I150000J0D01*
G01*
G37*
%TD.AperFunction*%
%TA.AperFunction,SMDPad,CuDef*%
G36*
G01*
X150286580Y-99879740D02*
X150586580Y-99879740D01*
G75*
G02*
X150736580Y-100029740I0J-150000D01*
G01*
X150736580Y-101679740D01*
G75*
G02*
X150586580Y-101829740I-150000J0D01*
G01*
X150286580Y-101829740D01*
G75*
G02*
X150136580Y-101679740I0J150000D01*
G01*
X150136580Y-100029740D01*
G75*
G02*
X150286580Y-99879740I150000J0D01*
G01*
G37*
%TD.AperFunction*%
%TA.AperFunction,SMDPad,CuDef*%
G36*
G01*
X151556580Y-99879740D02*
X151856580Y-99879740D01*
G75*
G02*
X152006580Y-100029740I0J-150000D01*
G01*
X152006580Y-101679740D01*
G75*
G02*
X151856580Y-101829740I-150000J0D01*
G01*
X151556580Y-101829740D01*
G75*
G02*
X151406580Y-101679740I0J150000D01*
G01*
X151406580Y-100029740D01*
G75*
G02*
X151556580Y-99879740I150000J0D01*
G01*
G37*
%TD.AperFunction*%
%TA.AperFunction,SMDPad,CuDef*%
G36*
G01*
X152826580Y-99879740D02*
X153126580Y-99879740D01*
G75*
G02*
X153276580Y-100029740I0J-150000D01*
G01*
X153276580Y-101679740D01*
G75*
G02*
X153126580Y-101829740I-150000J0D01*
G01*
X152826580Y-101829740D01*
G75*
G02*
X152676580Y-101679740I0J150000D01*
G01*
X152676580Y-100029740D01*
G75*
G02*
X152826580Y-99879740I150000J0D01*
G01*
G37*
%TD.AperFunction*%
%TA.AperFunction,SMDPad,CuDef*%
G36*
G01*
X154096580Y-99879740D02*
X154396580Y-99879740D01*
G75*
G02*
X154546580Y-100029740I0J-150000D01*
G01*
X154546580Y-101679740D01*
G75*
G02*
X154396580Y-101829740I-150000J0D01*
G01*
X154096580Y-101829740D01*
G75*
G02*
X153946580Y-101679740I0J150000D01*
G01*
X153946580Y-100029740D01*
G75*
G02*
X154096580Y-99879740I150000J0D01*
G01*
G37*
%TD.AperFunction*%
%TA.AperFunction,SMDPad,CuDef*%
G36*
G01*
X155366580Y-99879740D02*
X155666580Y-99879740D01*
G75*
G02*
X155816580Y-100029740I0J-150000D01*
G01*
X155816580Y-101679740D01*
G75*
G02*
X155666580Y-101829740I-150000J0D01*
G01*
X155366580Y-101829740D01*
G75*
G02*
X155216580Y-101679740I0J150000D01*
G01*
X155216580Y-100029740D01*
G75*
G02*
X155366580Y-99879740I150000J0D01*
G01*
G37*
%TD.AperFunction*%
%TA.AperFunction,SMDPad,CuDef*%
G36*
G01*
X154060000Y-109155000D02*
X154560000Y-109155000D01*
G75*
G02*
X154785000Y-109380000I0J-225000D01*
G01*
X154785000Y-109830000D01*
G75*
G02*
X154560000Y-110055000I-225000J0D01*
G01*
X154060000Y-110055000D01*
G75*
G02*
X153835000Y-109830000I0J225000D01*
G01*
X153835000Y-109380000D01*
G75*
G02*
X154060000Y-109155000I225000J0D01*
G01*
G37*
%TD.AperFunction*%
%TA.AperFunction,SMDPad,CuDef*%
G36*
G01*
X154060000Y-107605000D02*
X154560000Y-107605000D01*
G75*
G02*
X154785000Y-107830000I0J-225000D01*
G01*
X154785000Y-108280000D01*
G75*
G02*
X154560000Y-108505000I-225000J0D01*
G01*
X154060000Y-108505000D01*
G75*
G02*
X153835000Y-108280000I0J225000D01*
G01*
X153835000Y-107830000D01*
G75*
G02*
X154060000Y-107605000I225000J0D01*
G01*
G37*
%TD.AperFunction*%
D16*
X139180000Y-135130000D03*
X139180000Y-128130000D03*
X144620000Y-128130000D03*
X144620000Y-135130000D03*
D17*
X141900000Y-134400000D03*
D18*
X141900000Y-132400000D03*
X141900000Y-130400000D03*
X141900000Y-128400000D03*
D19*
X155610000Y-117090000D03*
X155610000Y-121490000D03*
X151300000Y-117070000D03*
X151300000Y-121470000D03*
D20*
X150599140Y-113687100D03*
X149649140Y-111687100D03*
X151549140Y-111687100D03*
%TA.AperFunction,SMDPad,CuDef*%
G36*
G01*
X149435000Y-109325000D02*
X149985000Y-109325000D01*
G75*
G02*
X150185000Y-109525000I0J-200000D01*
G01*
X150185000Y-109925000D01*
G75*
G02*
X149985000Y-110125000I-200000J0D01*
G01*
X149435000Y-110125000D01*
G75*
G02*
X149235000Y-109925000I0J200000D01*
G01*
X149235000Y-109525000D01*
G75*
G02*
X149435000Y-109325000I200000J0D01*
G01*
G37*
%TD.AperFunction*%
%TA.AperFunction,SMDPad,CuDef*%
G36*
G01*
X149435000Y-107675000D02*
X149985000Y-107675000D01*
G75*
G02*
X150185000Y-107875000I0J-200000D01*
G01*
X150185000Y-108275000D01*
G75*
G02*
X149985000Y-108475000I-200000J0D01*
G01*
X149435000Y-108475000D01*
G75*
G02*
X149235000Y-108275000I0J200000D01*
G01*
X149235000Y-107875000D01*
G75*
G02*
X149435000Y-107675000I200000J0D01*
G01*
G37*
%TD.AperFunction*%
%TA.AperFunction,SMDPad,CuDef*%
G36*
G01*
X147625000Y-121165000D02*
X148175000Y-121165000D01*
G75*
G02*
X148375000Y-121365000I0J-200000D01*
G01*
X148375000Y-121765000D01*
G75*
G02*
X148175000Y-121965000I-200000J0D01*
G01*
X147625000Y-121965000D01*
G75*
G02*
X147425000Y-121765000I0J200000D01*
G01*
X147425000Y-121365000D01*
G75*
G02*
X147625000Y-121165000I200000J0D01*
G01*
G37*
%TD.AperFunction*%
%TA.AperFunction,SMDPad,CuDef*%
G36*
G01*
X147625000Y-119515000D02*
X148175000Y-119515000D01*
G75*
G02*
X148375000Y-119715000I0J-200000D01*
G01*
X148375000Y-120115000D01*
G75*
G02*
X148175000Y-120315000I-200000J0D01*
G01*
X147625000Y-120315000D01*
G75*
G02*
X147425000Y-120115000I0J200000D01*
G01*
X147425000Y-119715000D01*
G75*
G02*
X147625000Y-119515000I200000J0D01*
G01*
G37*
%TD.AperFunction*%
D11*
X138450000Y-111855000D03*
X138450000Y-109315000D03*
X138450000Y-106775000D03*
X138450000Y-104235000D03*
X138450000Y-101695000D03*
X138450000Y-99155000D03*
X138450000Y-96615000D03*
X138450000Y-94075000D03*
X138450000Y-91535000D03*
X138450000Y-88995000D03*
X138450000Y-86455000D03*
X138450000Y-83915000D03*
X138450000Y-81375000D03*
X138450000Y-78835000D03*
X138450000Y-76295000D03*
X138450000Y-73755000D03*
X138450000Y-71215000D03*
D12*
X138450000Y-68675000D03*
%TA.AperFunction,SMDPad,CuDef*%
G36*
G01*
X148102500Y-116410000D02*
X147677500Y-116410000D01*
G75*
G02*
X147465000Y-116197500I0J212500D01*
G01*
X147465000Y-115397500D01*
G75*
G02*
X147677500Y-115185000I212500J0D01*
G01*
X148102500Y-115185000D01*
G75*
G02*
X148315000Y-115397500I0J-212500D01*
G01*
X148315000Y-116197500D01*
G75*
G02*
X148102500Y-116410000I-212500J0D01*
G01*
G37*
%TD.AperFunction*%
%TA.AperFunction,SMDPad,CuDef*%
G36*
G01*
X148102500Y-118035000D02*
X147677500Y-118035000D01*
G75*
G02*
X147465000Y-117822500I0J212500D01*
G01*
X147465000Y-117022500D01*
G75*
G02*
X147677500Y-116810000I212500J0D01*
G01*
X148102500Y-116810000D01*
G75*
G02*
X148315000Y-117022500I0J-212500D01*
G01*
X148315000Y-117822500D01*
G75*
G02*
X148102500Y-118035000I-212500J0D01*
G01*
G37*
%TD.AperFunction*%
%TA.AperFunction,SMDPad,CuDef*%
G36*
G01*
X149909000Y-124350000D02*
X149409000Y-124350000D01*
G75*
G02*
X149184000Y-124125000I0J225000D01*
G01*
X149184000Y-123675000D01*
G75*
G02*
X149409000Y-123450000I225000J0D01*
G01*
X149909000Y-123450000D01*
G75*
G02*
X150134000Y-123675000I0J-225000D01*
G01*
X150134000Y-124125000D01*
G75*
G02*
X149909000Y-124350000I-225000J0D01*
G01*
G37*
%TD.AperFunction*%
%TA.AperFunction,SMDPad,CuDef*%
G36*
G01*
X149909000Y-125900000D02*
X149409000Y-125900000D01*
G75*
G02*
X149184000Y-125675000I0J225000D01*
G01*
X149184000Y-125225000D01*
G75*
G02*
X149409000Y-125000000I225000J0D01*
G01*
X149909000Y-125000000D01*
G75*
G02*
X150134000Y-125225000I0J-225000D01*
G01*
X150134000Y-125675000D01*
G75*
G02*
X149909000Y-125900000I-225000J0D01*
G01*
G37*
%TD.AperFunction*%
%TA.AperFunction,SMDPad,CuDef*%
G36*
G01*
X148466620Y-112136040D02*
X147966620Y-112136040D01*
G75*
G02*
X147741620Y-111911040I0J225000D01*
G01*
X147741620Y-111461040D01*
G75*
G02*
X147966620Y-111236040I225000J0D01*
G01*
X148466620Y-111236040D01*
G75*
G02*
X148691620Y-111461040I0J-225000D01*
G01*
X148691620Y-111911040D01*
G75*
G02*
X148466620Y-112136040I-225000J0D01*
G01*
G37*
%TD.AperFunction*%
%TA.AperFunction,SMDPad,CuDef*%
G36*
G01*
X148466620Y-113686040D02*
X147966620Y-113686040D01*
G75*
G02*
X147741620Y-113461040I0J225000D01*
G01*
X147741620Y-113011040D01*
G75*
G02*
X147966620Y-112786040I225000J0D01*
G01*
X148466620Y-112786040D01*
G75*
G02*
X148691620Y-113011040I0J-225000D01*
G01*
X148691620Y-113461040D01*
G75*
G02*
X148466620Y-113686040I-225000J0D01*
G01*
G37*
%TD.AperFunction*%
%TA.AperFunction,SMDPad,CuDef*%
G36*
G01*
X148710000Y-97705000D02*
X149210000Y-97705000D01*
G75*
G02*
X149435000Y-97930000I0J-225000D01*
G01*
X149435000Y-98380000D01*
G75*
G02*
X149210000Y-98605000I-225000J0D01*
G01*
X148710000Y-98605000D01*
G75*
G02*
X148485000Y-98380000I0J225000D01*
G01*
X148485000Y-97930000D01*
G75*
G02*
X148710000Y-97705000I225000J0D01*
G01*
G37*
%TD.AperFunction*%
%TA.AperFunction,SMDPad,CuDef*%
G36*
G01*
X148710000Y-96155000D02*
X149210000Y-96155000D01*
G75*
G02*
X149435000Y-96380000I0J-225000D01*
G01*
X149435000Y-96830000D01*
G75*
G02*
X149210000Y-97055000I-225000J0D01*
G01*
X148710000Y-97055000D01*
G75*
G02*
X148485000Y-96830000I0J225000D01*
G01*
X148485000Y-96380000D01*
G75*
G02*
X148710000Y-96155000I225000J0D01*
G01*
G37*
%TD.AperFunction*%
%TA.AperFunction,SMDPad,CuDef*%
G36*
G01*
X154120000Y-97115000D02*
X153620000Y-97115000D01*
G75*
G02*
X153395000Y-96890000I0J225000D01*
G01*
X153395000Y-96440000D01*
G75*
G02*
X153620000Y-96215000I225000J0D01*
G01*
X154120000Y-96215000D01*
G75*
G02*
X154345000Y-96440000I0J-225000D01*
G01*
X154345000Y-96890000D01*
G75*
G02*
X154120000Y-97115000I-225000J0D01*
G01*
G37*
%TD.AperFunction*%
%TA.AperFunction,SMDPad,CuDef*%
G36*
G01*
X154120000Y-98665000D02*
X153620000Y-98665000D01*
G75*
G02*
X153395000Y-98440000I0J225000D01*
G01*
X153395000Y-97990000D01*
G75*
G02*
X153620000Y-97765000I225000J0D01*
G01*
X154120000Y-97765000D01*
G75*
G02*
X154345000Y-97990000I0J-225000D01*
G01*
X154345000Y-98440000D01*
G75*
G02*
X154120000Y-98665000I-225000J0D01*
G01*
G37*
%TD.AperFunction*%
%TA.AperFunction,SMDPad,CuDef*%
G36*
G01*
X141635000Y-109365000D02*
X142185000Y-109365000D01*
G75*
G02*
X142385000Y-109565000I0J-200000D01*
G01*
X142385000Y-109965000D01*
G75*
G02*
X142185000Y-110165000I-200000J0D01*
G01*
X141635000Y-110165000D01*
G75*
G02*
X141435000Y-109965000I0J200000D01*
G01*
X141435000Y-109565000D01*
G75*
G02*
X141635000Y-109365000I200000J0D01*
G01*
G37*
%TD.AperFunction*%
%TA.AperFunction,SMDPad,CuDef*%
G36*
G01*
X141635000Y-107715000D02*
X142185000Y-107715000D01*
G75*
G02*
X142385000Y-107915000I0J-200000D01*
G01*
X142385000Y-108315000D01*
G75*
G02*
X142185000Y-108515000I-200000J0D01*
G01*
X141635000Y-108515000D01*
G75*
G02*
X141435000Y-108315000I0J200000D01*
G01*
X141435000Y-107915000D01*
G75*
G02*
X141635000Y-107715000I200000J0D01*
G01*
G37*
%TD.AperFunction*%
%TA.AperFunction,SMDPad,CuDef*%
G36*
G01*
X156925000Y-124815000D02*
X156375000Y-124815000D01*
G75*
G02*
X156175000Y-124615000I0J200000D01*
G01*
X156175000Y-124215000D01*
G75*
G02*
X156375000Y-124015000I200000J0D01*
G01*
X156925000Y-124015000D01*
G75*
G02*
X157125000Y-124215000I0J-200000D01*
G01*
X157125000Y-124615000D01*
G75*
G02*
X156925000Y-124815000I-200000J0D01*
G01*
G37*
%TD.AperFunction*%
%TA.AperFunction,SMDPad,CuDef*%
G36*
G01*
X156925000Y-126465000D02*
X156375000Y-126465000D01*
G75*
G02*
X156175000Y-126265000I0J200000D01*
G01*
X156175000Y-125865000D01*
G75*
G02*
X156375000Y-125665000I200000J0D01*
G01*
X156925000Y-125665000D01*
G75*
G02*
X157125000Y-125865000I0J-200000D01*
G01*
X157125000Y-126265000D01*
G75*
G02*
X156925000Y-126465000I-200000J0D01*
G01*
G37*
%TD.AperFunction*%
%TA.AperFunction,SMDPad,CuDef*%
G36*
G01*
X143992500Y-104740000D02*
X143567500Y-104740000D01*
G75*
G02*
X143355000Y-104527500I0J212500D01*
G01*
X143355000Y-103727500D01*
G75*
G02*
X143567500Y-103515000I212500J0D01*
G01*
X143992500Y-103515000D01*
G75*
G02*
X144205000Y-103727500I0J-212500D01*
G01*
X144205000Y-104527500D01*
G75*
G02*
X143992500Y-104740000I-212500J0D01*
G01*
G37*
%TD.AperFunction*%
%TA.AperFunction,SMDPad,CuDef*%
G36*
G01*
X143992500Y-106365000D02*
X143567500Y-106365000D01*
G75*
G02*
X143355000Y-106152500I0J212500D01*
G01*
X143355000Y-105352500D01*
G75*
G02*
X143567500Y-105140000I212500J0D01*
G01*
X143992500Y-105140000D01*
G75*
G02*
X144205000Y-105352500I0J-212500D01*
G01*
X144205000Y-106152500D01*
G75*
G02*
X143992500Y-106365000I-212500J0D01*
G01*
G37*
%TD.AperFunction*%
%TA.AperFunction,SMDPad,CuDef*%
G36*
G01*
X159895000Y-124755000D02*
X159345000Y-124755000D01*
G75*
G02*
X159145000Y-124555000I0J200000D01*
G01*
X159145000Y-124155000D01*
G75*
G02*
X159345000Y-123955000I200000J0D01*
G01*
X159895000Y-123955000D01*
G75*
G02*
X160095000Y-124155000I0J-200000D01*
G01*
X160095000Y-124555000D01*
G75*
G02*
X159895000Y-124755000I-200000J0D01*
G01*
G37*
%TD.AperFunction*%
%TA.AperFunction,SMDPad,CuDef*%
G36*
G01*
X159895000Y-126405000D02*
X159345000Y-126405000D01*
G75*
G02*
X159145000Y-126205000I0J200000D01*
G01*
X159145000Y-125805000D01*
G75*
G02*
X159345000Y-125605000I200000J0D01*
G01*
X159895000Y-125605000D01*
G75*
G02*
X160095000Y-125805000I0J-200000D01*
G01*
X160095000Y-126205000D01*
G75*
G02*
X159895000Y-126405000I-200000J0D01*
G01*
G37*
%TD.AperFunction*%
%TA.AperFunction,SMDPad,CuDef*%
G36*
G01*
X143617500Y-108930000D02*
X144042500Y-108930000D01*
G75*
G02*
X144255000Y-109142500I0J-212500D01*
G01*
X144255000Y-109942500D01*
G75*
G02*
X144042500Y-110155000I-212500J0D01*
G01*
X143617500Y-110155000D01*
G75*
G02*
X143405000Y-109942500I0J212500D01*
G01*
X143405000Y-109142500D01*
G75*
G02*
X143617500Y-108930000I212500J0D01*
G01*
G37*
%TD.AperFunction*%
%TA.AperFunction,SMDPad,CuDef*%
G36*
G01*
X143617500Y-107305000D02*
X144042500Y-107305000D01*
G75*
G02*
X144255000Y-107517500I0J-212500D01*
G01*
X144255000Y-108317500D01*
G75*
G02*
X144042500Y-108530000I-212500J0D01*
G01*
X143617500Y-108530000D01*
G75*
G02*
X143405000Y-108317500I0J212500D01*
G01*
X143405000Y-107517500D01*
G75*
G02*
X143617500Y-107305000I212500J0D01*
G01*
G37*
%TD.AperFunction*%
%TA.AperFunction,SMDPad,CuDef*%
G36*
G01*
X151242580Y-94194040D02*
X151242580Y-93644040D01*
G75*
G02*
X151442580Y-93444040I200000J0D01*
G01*
X151842580Y-93444040D01*
G75*
G02*
X152042580Y-93644040I0J-200000D01*
G01*
X152042580Y-94194040D01*
G75*
G02*
X151842580Y-94394040I-200000J0D01*
G01*
X151442580Y-94394040D01*
G75*
G02*
X151242580Y-94194040I0J200000D01*
G01*
G37*
%TD.AperFunction*%
%TA.AperFunction,SMDPad,CuDef*%
G36*
G01*
X149592580Y-94194040D02*
X149592580Y-93644040D01*
G75*
G02*
X149792580Y-93444040I200000J0D01*
G01*
X150192580Y-93444040D01*
G75*
G02*
X150392580Y-93644040I0J-200000D01*
G01*
X150392580Y-94194040D01*
G75*
G02*
X150192580Y-94394040I-200000J0D01*
G01*
X149792580Y-94394040D01*
G75*
G02*
X149592580Y-94194040I0J200000D01*
G01*
G37*
%TD.AperFunction*%
%TA.AperFunction,SMDPad,CuDef*%
G36*
G01*
X146182380Y-112896840D02*
X146732380Y-112896840D01*
G75*
G02*
X146932380Y-113096840I0J-200000D01*
G01*
X146932380Y-113496840D01*
G75*
G02*
X146732380Y-113696840I-200000J0D01*
G01*
X146182380Y-113696840D01*
G75*
G02*
X145982380Y-113496840I0J200000D01*
G01*
X145982380Y-113096840D01*
G75*
G02*
X146182380Y-112896840I200000J0D01*
G01*
G37*
%TD.AperFunction*%
%TA.AperFunction,SMDPad,CuDef*%
G36*
G01*
X146182380Y-111246840D02*
X146732380Y-111246840D01*
G75*
G02*
X146932380Y-111446840I0J-200000D01*
G01*
X146932380Y-111846840D01*
G75*
G02*
X146732380Y-112046840I-200000J0D01*
G01*
X146182380Y-112046840D01*
G75*
G02*
X145982380Y-111846840I0J200000D01*
G01*
X145982380Y-111446840D01*
G75*
G02*
X146182380Y-111246840I200000J0D01*
G01*
G37*
%TD.AperFunction*%
D21*
X139330000Y-116340000D03*
X139330000Y-120940000D03*
X139330000Y-118640000D03*
D22*
X145630000Y-118640000D03*
%TA.AperFunction,SMDPad,CuDef*%
G36*
G01*
X150867620Y-98605680D02*
X150317620Y-98605680D01*
G75*
G02*
X150117620Y-98405680I0J200000D01*
G01*
X150117620Y-98005680D01*
G75*
G02*
X150317620Y-97805680I200000J0D01*
G01*
X150867620Y-97805680D01*
G75*
G02*
X151067620Y-98005680I0J-200000D01*
G01*
X151067620Y-98405680D01*
G75*
G02*
X150867620Y-98605680I-200000J0D01*
G01*
G37*
%TD.AperFunction*%
%TA.AperFunction,SMDPad,CuDef*%
G36*
G01*
X150867620Y-96955680D02*
X150317620Y-96955680D01*
G75*
G02*
X150117620Y-96755680I0J200000D01*
G01*
X150117620Y-96355680D01*
G75*
G02*
X150317620Y-96155680I200000J0D01*
G01*
X150867620Y-96155680D01*
G75*
G02*
X151067620Y-96355680I0J-200000D01*
G01*
X151067620Y-96755680D01*
G75*
G02*
X150867620Y-96955680I-200000J0D01*
G01*
G37*
%TD.AperFunction*%
D20*
X155760000Y-111190000D03*
X156710000Y-113190000D03*
X154810000Y-113190000D03*
%TA.AperFunction,SMDPad,CuDef*%
G36*
G01*
X143525000Y-101915000D02*
X144075000Y-101915000D01*
G75*
G02*
X144275000Y-102115000I0J-200000D01*
G01*
X144275000Y-102515000D01*
G75*
G02*
X144075000Y-102715000I-200000J0D01*
G01*
X143525000Y-102715000D01*
G75*
G02*
X143325000Y-102515000I0J200000D01*
G01*
X143325000Y-102115000D01*
G75*
G02*
X143525000Y-101915000I200000J0D01*
G01*
G37*
%TD.AperFunction*%
%TA.AperFunction,SMDPad,CuDef*%
G36*
G01*
X143525000Y-100265000D02*
X144075000Y-100265000D01*
G75*
G02*
X144275000Y-100465000I0J-200000D01*
G01*
X144275000Y-100865000D01*
G75*
G02*
X144075000Y-101065000I-200000J0D01*
G01*
X143525000Y-101065000D01*
G75*
G02*
X143325000Y-100865000I0J200000D01*
G01*
X143325000Y-100465000D01*
G75*
G02*
X143525000Y-100265000I200000J0D01*
G01*
G37*
%TD.AperFunction*%
%TA.AperFunction,SMDPad,CuDef*%
G36*
G01*
X151965000Y-97845000D02*
X152515000Y-97845000D01*
G75*
G02*
X152715000Y-98045000I0J-200000D01*
G01*
X152715000Y-98445000D01*
G75*
G02*
X152515000Y-98645000I-200000J0D01*
G01*
X151965000Y-98645000D01*
G75*
G02*
X151765000Y-98445000I0J200000D01*
G01*
X151765000Y-98045000D01*
G75*
G02*
X151965000Y-97845000I200000J0D01*
G01*
G37*
%TD.AperFunction*%
%TA.AperFunction,SMDPad,CuDef*%
G36*
G01*
X151965000Y-96195000D02*
X152515000Y-96195000D01*
G75*
G02*
X152715000Y-96395000I0J-200000D01*
G01*
X152715000Y-96795000D01*
G75*
G02*
X152515000Y-96995000I-200000J0D01*
G01*
X151965000Y-96995000D01*
G75*
G02*
X151765000Y-96795000I0J200000D01*
G01*
X151765000Y-96395000D01*
G75*
G02*
X151965000Y-96195000I200000J0D01*
G01*
G37*
%TD.AperFunction*%
%TA.AperFunction,SMDPad,CuDef*%
G36*
G01*
X147550000Y-97055000D02*
X147050000Y-97055000D01*
G75*
G02*
X146825000Y-96830000I0J225000D01*
G01*
X146825000Y-96380000D01*
G75*
G02*
X147050000Y-96155000I225000J0D01*
G01*
X147550000Y-96155000D01*
G75*
G02*
X147775000Y-96380000I0J-225000D01*
G01*
X147775000Y-96830000D01*
G75*
G02*
X147550000Y-97055000I-225000J0D01*
G01*
G37*
%TD.AperFunction*%
%TA.AperFunction,SMDPad,CuDef*%
G36*
G01*
X147550000Y-98605000D02*
X147050000Y-98605000D01*
G75*
G02*
X146825000Y-98380000I0J225000D01*
G01*
X146825000Y-97930000D01*
G75*
G02*
X147050000Y-97705000I225000J0D01*
G01*
X147550000Y-97705000D01*
G75*
G02*
X147775000Y-97930000I0J-225000D01*
G01*
X147775000Y-98380000D01*
G75*
G02*
X147550000Y-98605000I-225000J0D01*
G01*
G37*
%TD.AperFunction*%
%TA.AperFunction,SMDPad,CuDef*%
G36*
G01*
X153725000Y-124975000D02*
X154225000Y-124975000D01*
G75*
G02*
X154450000Y-125200000I0J-225000D01*
G01*
X154450000Y-125650000D01*
G75*
G02*
X154225000Y-125875000I-225000J0D01*
G01*
X153725000Y-125875000D01*
G75*
G02*
X153500000Y-125650000I0J225000D01*
G01*
X153500000Y-125200000D01*
G75*
G02*
X153725000Y-124975000I225000J0D01*
G01*
G37*
%TD.AperFunction*%
%TA.AperFunction,SMDPad,CuDef*%
G36*
G01*
X153725000Y-123425000D02*
X154225000Y-123425000D01*
G75*
G02*
X154450000Y-123650000I0J-225000D01*
G01*
X154450000Y-124100000D01*
G75*
G02*
X154225000Y-124325000I-225000J0D01*
G01*
X153725000Y-124325000D01*
G75*
G02*
X153500000Y-124100000I0J225000D01*
G01*
X153500000Y-123650000D01*
G75*
G02*
X153725000Y-123425000I225000J0D01*
G01*
G37*
%TD.AperFunction*%
%TA.AperFunction,SMDPad,CuDef*%
G36*
G01*
X151567000Y-125000000D02*
X152067000Y-125000000D01*
G75*
G02*
X152292000Y-125225000I0J-225000D01*
G01*
X152292000Y-125675000D01*
G75*
G02*
X152067000Y-125900000I-225000J0D01*
G01*
X151567000Y-125900000D01*
G75*
G02*
X151342000Y-125675000I0J225000D01*
G01*
X151342000Y-125225000D01*
G75*
G02*
X151567000Y-125000000I225000J0D01*
G01*
G37*
%TD.AperFunction*%
%TA.AperFunction,SMDPad,CuDef*%
G36*
G01*
X151567000Y-123450000D02*
X152067000Y-123450000D01*
G75*
G02*
X152292000Y-123675000I0J-225000D01*
G01*
X152292000Y-124125000D01*
G75*
G02*
X152067000Y-124350000I-225000J0D01*
G01*
X151567000Y-124350000D01*
G75*
G02*
X151342000Y-124125000I0J225000D01*
G01*
X151342000Y-123675000D01*
G75*
G02*
X151567000Y-123450000I225000J0D01*
G01*
G37*
%TD.AperFunction*%
%TA.AperFunction,SMDPad,CuDef*%
G36*
G01*
X143575000Y-124305000D02*
X143075000Y-124305000D01*
G75*
G02*
X142850000Y-124080000I0J225000D01*
G01*
X142850000Y-123630000D01*
G75*
G02*
X143075000Y-123405000I225000J0D01*
G01*
X143575000Y-123405000D01*
G75*
G02*
X143800000Y-123630000I0J-225000D01*
G01*
X143800000Y-124080000D01*
G75*
G02*
X143575000Y-124305000I-225000J0D01*
G01*
G37*
%TD.AperFunction*%
%TA.AperFunction,SMDPad,CuDef*%
G36*
G01*
X143575000Y-125855000D02*
X143075000Y-125855000D01*
G75*
G02*
X142850000Y-125630000I0J225000D01*
G01*
X142850000Y-125180000D01*
G75*
G02*
X143075000Y-124955000I225000J0D01*
G01*
X143575000Y-124955000D01*
G75*
G02*
X143800000Y-125180000I0J-225000D01*
G01*
X143800000Y-125630000D01*
G75*
G02*
X143575000Y-125855000I-225000J0D01*
G01*
G37*
%TD.AperFunction*%
%TA.AperFunction,SMDPad,CuDef*%
G36*
G01*
X146905000Y-109305000D02*
X147455000Y-109305000D01*
G75*
G02*
X147655000Y-109505000I0J-200000D01*
G01*
X147655000Y-109905000D01*
G75*
G02*
X147455000Y-110105000I-200000J0D01*
G01*
X146905000Y-110105000D01*
G75*
G02*
X146705000Y-109905000I0J200000D01*
G01*
X146705000Y-109505000D01*
G75*
G02*
X146905000Y-109305000I200000J0D01*
G01*
G37*
%TD.AperFunction*%
%TA.AperFunction,SMDPad,CuDef*%
G36*
G01*
X146905000Y-107655000D02*
X147455000Y-107655000D01*
G75*
G02*
X147655000Y-107855000I0J-200000D01*
G01*
X147655000Y-108255000D01*
G75*
G02*
X147455000Y-108455000I-200000J0D01*
G01*
X146905000Y-108455000D01*
G75*
G02*
X146705000Y-108255000I0J200000D01*
G01*
X146705000Y-107855000D01*
G75*
G02*
X146905000Y-107655000I200000J0D01*
G01*
G37*
%TD.AperFunction*%
D23*
X162180000Y-133900000D03*
X153540000Y-133900000D03*
X162180000Y-129720000D03*
X153540000Y-129720000D03*
D24*
X161110000Y-128805000D03*
X160310000Y-128805000D03*
D25*
X159610000Y-128805000D03*
X159110000Y-128805000D03*
X158610000Y-128805000D03*
X158110000Y-128805000D03*
X156110000Y-128805000D03*
X156610000Y-128805000D03*
X157110000Y-128805000D03*
X157610000Y-128805000D03*
D24*
X155410000Y-128805000D03*
X154610000Y-128805000D03*
D26*
X157811740Y-68200000D03*
X143726900Y-68200000D03*
X139049760Y-114734340D03*
X152731000Y-76250000D03*
X157470004Y-93150000D03*
X142670000Y-106760000D03*
X148220000Y-114220000D03*
X146100000Y-98150000D03*
X155190000Y-97410000D03*
X156930000Y-100150000D03*
X157270000Y-122160000D03*
X155500000Y-124360000D03*
X160710000Y-124570000D03*
X155920000Y-109600000D03*
X149510000Y-80010000D03*
X151010000Y-80010000D03*
X148010000Y-80010000D03*
X152740000Y-74750000D03*
X152730000Y-77750000D03*
X146180000Y-77750000D03*
X146180000Y-76250000D03*
X146180000Y-74750000D03*
X147190000Y-72750000D03*
X149500000Y-72150000D03*
X152070000Y-72530000D03*
X149110000Y-122600000D03*
X144325000Y-125405000D03*
X148595000Y-125415000D03*
X152880000Y-125450000D03*
X145007931Y-95150000D03*
X145007931Y-96332069D03*
X145007931Y-93967931D03*
X145007931Y-88142069D03*
X145007931Y-89667931D03*
X146980000Y-93920000D03*
X152260000Y-89920000D03*
X149720000Y-95580000D03*
X140170002Y-104990000D03*
X140170000Y-110620000D03*
X142010000Y-112540000D03*
X144350000Y-113380000D03*
X155920000Y-98490000D03*
X155890000Y-89579996D03*
X156950000Y-101870000D03*
X158310002Y-94620000D03*
X143550640Y-84701380D03*
X143560800Y-83200240D03*
X143560800Y-81699100D03*
X160920000Y-121070000D03*
X157584140Y-83197700D03*
X157584140Y-81699100D03*
X157584140Y-80197960D03*
X161714980Y-123075016D03*
D27*
X157390000Y-91390000D02*
X157450000Y-91450000D01*
D28*
X157450000Y-91450000D02*
X157450000Y-91029998D01*
X159450000Y-68200000D02*
X157811740Y-68200000D01*
X141950000Y-68200000D02*
X143726900Y-68200000D01*
X139051900Y-114736480D02*
X139049760Y-114734340D01*
X139051900Y-116358640D02*
X139051900Y-114736480D01*
X157310000Y-91590000D02*
X157450000Y-91450000D01*
X149510000Y-76250000D02*
X152731000Y-76250000D01*
X148960000Y-98155000D02*
X147300000Y-98155000D01*
X157811740Y-68200000D02*
X157811740Y-68200000D01*
X139051900Y-116358640D02*
X139051894Y-116358640D01*
X157450000Y-93129996D02*
X157470004Y-93150000D01*
X157450000Y-91450000D02*
X157450000Y-93129996D01*
X154455000Y-128805000D02*
X153540000Y-129720000D01*
X154610000Y-128805000D02*
X154455000Y-128805000D01*
X161265000Y-128805000D02*
X162180000Y-129720000D01*
X161110000Y-128805000D02*
X161265000Y-128805000D01*
X143780000Y-107867500D02*
X143830000Y-107917500D01*
X143780000Y-105752500D02*
X143780000Y-107867500D01*
X142672500Y-106760000D02*
X142670000Y-106760000D01*
X143830000Y-107917500D02*
X142672500Y-106760000D01*
X148216620Y-113236040D02*
X148216620Y-114096620D01*
X148216620Y-114096620D02*
X148220000Y-114100000D01*
X147300000Y-98155000D02*
X146105000Y-98155000D01*
X146105000Y-98155000D02*
X146100000Y-98150000D01*
X151515000Y-121565000D02*
X151600000Y-121480000D01*
X155820000Y-121700000D02*
X155610000Y-121490000D01*
X151320000Y-121490000D02*
X151300000Y-121470000D01*
X147995000Y-121470000D02*
X147900000Y-121565000D01*
X153890000Y-96785000D02*
X154565000Y-96785000D01*
X154565000Y-96785000D02*
X155190000Y-97410000D01*
X155516580Y-100854740D02*
X156225260Y-100854740D01*
X156225260Y-100854740D02*
X156930000Y-100150000D01*
X156600000Y-121490000D02*
X157270000Y-122160000D01*
X155610000Y-121490000D02*
X156600000Y-121490000D01*
X155555000Y-124415000D02*
X155500000Y-124360000D01*
X156650000Y-124415000D02*
X155555000Y-124415000D01*
X160495000Y-124355000D02*
X160710000Y-124570000D01*
X159620000Y-124355000D02*
X160495000Y-124355000D01*
X147900000Y-121565000D02*
X147815000Y-121565000D01*
X155915000Y-109605000D02*
X155920000Y-109600000D01*
X154310000Y-109605000D02*
X155915000Y-109605000D01*
X149510000Y-77750000D02*
X149510000Y-80010000D01*
X149510000Y-80010000D02*
X149510000Y-80010000D01*
X148010000Y-77750000D02*
X148010000Y-80010000D01*
X151010000Y-77750000D02*
X151010000Y-80010000D01*
X151010000Y-80010000D02*
X151010000Y-80010000D01*
X148010000Y-80010000D02*
X148010000Y-80010000D01*
X151010000Y-74750000D02*
X152740000Y-74750000D01*
X152740000Y-74750000D02*
X152740000Y-74750000D01*
X151010000Y-77750000D02*
X152730000Y-77750000D01*
X152730000Y-77750000D02*
X152730000Y-77750000D01*
X148010000Y-74750000D02*
X146180000Y-74750000D01*
X148010000Y-76250000D02*
X146180000Y-76250000D01*
X148010000Y-77750000D02*
X146180000Y-77750000D01*
X146180000Y-77750000D02*
X146180000Y-77750000D01*
X146180000Y-76250000D02*
X146180000Y-76250000D01*
X146180000Y-74750000D02*
X146180000Y-74750000D01*
X145448880Y-125400000D02*
X145450000Y-125398880D01*
X148010000Y-74750000D02*
X148010000Y-73570000D01*
X148010000Y-73570000D02*
X147190000Y-72750000D01*
X149510000Y-74750000D02*
X149510000Y-72160000D01*
X149510000Y-72160000D02*
X149500000Y-72150000D01*
X151010000Y-74750000D02*
X151010000Y-73590000D01*
X151010000Y-73590000D02*
X152070000Y-72530000D01*
X149110000Y-121470000D02*
X149110000Y-122600000D01*
X151300000Y-121470000D02*
X149110000Y-121470000D01*
X149110000Y-121470000D02*
X147995000Y-121470000D01*
X149624000Y-125415000D02*
X149659000Y-125450000D01*
X147536000Y-125415000D02*
X148595000Y-125415000D01*
X153950000Y-125450000D02*
X153975000Y-125425000D01*
X151817000Y-125450000D02*
X152880000Y-125450000D01*
X145448000Y-125405000D02*
X144325000Y-125405000D01*
X144325000Y-125405000D02*
X143325000Y-125405000D01*
X148595000Y-125415000D02*
X149624000Y-125415000D01*
X152880000Y-125450000D02*
X153950000Y-125450000D01*
X147875000Y-116050000D02*
X147875000Y-115937500D01*
X147875000Y-115937500D02*
X147737500Y-115937500D01*
X152200680Y-98205680D02*
X152240000Y-98245000D01*
X150592620Y-98205680D02*
X152200680Y-98205680D01*
X146677380Y-113516840D02*
X146457380Y-113296840D01*
X147875000Y-115937500D02*
X147932501Y-115879999D01*
X155516580Y-106593420D02*
X155516580Y-105804740D01*
X146457380Y-114364880D02*
X147890000Y-115797500D01*
X146457380Y-113296840D02*
X146457380Y-114364880D01*
X150592620Y-98205680D02*
X150592620Y-98605680D01*
X150592620Y-98605680D02*
X149978300Y-99220000D01*
X145630000Y-118057500D02*
X145630000Y-118640000D01*
X147890000Y-115797500D02*
X145630000Y-118057500D01*
X155535000Y-105823160D02*
X155516580Y-105804740D01*
X139965000Y-69700000D02*
X141950000Y-69700000D01*
X138450000Y-71215000D02*
X139965000Y-69700000D01*
X141950000Y-69700000D02*
X143100000Y-69700000D01*
X154310000Y-108055000D02*
X154310000Y-107605000D01*
X154310000Y-107605000D02*
X155516580Y-106398420D01*
X155516580Y-106398420D02*
X155516580Y-105804740D01*
X145730000Y-99220000D02*
X145559976Y-99049976D01*
X149978300Y-99220000D02*
X145730000Y-99220000D01*
X155516580Y-104829740D02*
X155516580Y-105804740D01*
X154566864Y-103880024D02*
X155516580Y-104829740D01*
X145559976Y-103880024D02*
X154566864Y-103880024D01*
X145559976Y-99049976D02*
X145559976Y-103880024D01*
X145559976Y-99049976D02*
X145007931Y-98497931D01*
X145007931Y-98497931D02*
X145007931Y-96332069D01*
X145007931Y-96332069D02*
X145007931Y-95127931D01*
X145007931Y-93967931D02*
X145007931Y-95127931D01*
X145007931Y-71607931D02*
X143100000Y-69700000D01*
X145007931Y-88142069D02*
X145007931Y-71607931D01*
X145007931Y-88142069D02*
X145007931Y-89667931D01*
X149992580Y-93919040D02*
X146980960Y-93919040D01*
X146980960Y-93919040D02*
X146980000Y-93920000D01*
X145630000Y-118640000D02*
X145630000Y-122135000D01*
X149624000Y-123865000D02*
X149659000Y-123900000D01*
X147536000Y-123865000D02*
X149624000Y-123865000D01*
X149659000Y-123900000D02*
X151817000Y-123900000D01*
X153950000Y-123900000D02*
X153975000Y-123875000D01*
X151817000Y-123900000D02*
X153950000Y-123900000D01*
X147360000Y-123865000D02*
X145630000Y-122135000D01*
X147536000Y-123865000D02*
X147360000Y-123865000D01*
X139330000Y-118640000D02*
X145630000Y-118640000D01*
X143675999Y-111739999D02*
X142920000Y-112495998D01*
X144250001Y-111739999D02*
X143675999Y-111739999D01*
X145559976Y-110430024D02*
X144250001Y-111739999D01*
X145559976Y-103880024D02*
X145559976Y-110430024D01*
X145110000Y-118640000D02*
X145630000Y-118640000D01*
X142920000Y-116450000D02*
X145110000Y-118640000D01*
X142920000Y-112495998D02*
X142920000Y-116450000D01*
D27*
X159390000Y-69760000D02*
X159450000Y-69700000D01*
X147300000Y-96605000D02*
X148960000Y-96605000D01*
X150543300Y-96605000D02*
X150592620Y-96555680D01*
X148960000Y-96605000D02*
X150543300Y-96605000D01*
X150592620Y-96555680D02*
X152200680Y-96555680D01*
X158500000Y-69700000D02*
X155310000Y-72890000D01*
X159450000Y-69700000D02*
X158500000Y-69700000D01*
X155310000Y-72890000D02*
X155310000Y-86870000D01*
X155310000Y-86870000D02*
X152260000Y-89920000D01*
X155610000Y-117090000D02*
X155880000Y-116820000D01*
X156710000Y-115990000D02*
X155610000Y-117090000D01*
X156710000Y-113190000D02*
X156710000Y-115990000D01*
X150592620Y-96452620D02*
X149720000Y-95580000D01*
X150592620Y-96555680D02*
X150592620Y-96452620D01*
X152985000Y-95850000D02*
X152240000Y-96595000D01*
X154650000Y-95850000D02*
X152985000Y-95850000D01*
X158149993Y-111750007D02*
X158149993Y-99349993D01*
X158149993Y-99349993D02*
X154650000Y-95850000D01*
X156710000Y-113190000D02*
X158149993Y-111750007D01*
X149784820Y-111686040D02*
X149786300Y-111684560D01*
X149648080Y-111686040D02*
X149649140Y-111687100D01*
X148216620Y-111686040D02*
X149648080Y-111686040D01*
X149649140Y-115419140D02*
X151300000Y-117070000D01*
X149649140Y-111687100D02*
X149649140Y-115419140D01*
X141300000Y-103860002D02*
X140170002Y-104990000D01*
X141300000Y-94690000D02*
X141300000Y-103860002D01*
X143257260Y-71200000D02*
X144440000Y-72382740D01*
X144440000Y-72382740D02*
X144440000Y-87177520D01*
X141950000Y-71200000D02*
X143257260Y-71200000D01*
X144440000Y-87177520D02*
X143100000Y-88517520D01*
X143100000Y-92890000D02*
X141300000Y-94690000D01*
X143100000Y-88517520D02*
X143100000Y-92890000D01*
X146496580Y-111686040D02*
X146457380Y-111646840D01*
X148216620Y-111686040D02*
X146496580Y-111686040D01*
X140170000Y-110700000D02*
X140170000Y-110620000D01*
X142010000Y-112540000D02*
X140170000Y-110700000D01*
X146083160Y-111646840D02*
X144350000Y-113380000D01*
X146457380Y-111646840D02*
X146083160Y-111646840D01*
X143660000Y-104007500D02*
X143780000Y-104127500D01*
X143780000Y-102335000D02*
X143800000Y-102315000D01*
X143780000Y-104127500D02*
X143780000Y-102335000D01*
X161145000Y-74200000D02*
X159450000Y-74200000D01*
X163240000Y-76295000D02*
X161145000Y-74200000D01*
X154246580Y-100854740D02*
X154246580Y-100323420D01*
X154246580Y-100163420D02*
X154246580Y-100854740D01*
X155920000Y-98490000D02*
X154246580Y-100163420D01*
X155870000Y-89559996D02*
X155890000Y-89579996D01*
X155870000Y-76830000D02*
X155870000Y-89559996D01*
X159450000Y-74200000D02*
X158500000Y-74200000D01*
X158500000Y-74200000D02*
X155870000Y-76830000D01*
X152976580Y-100854740D02*
X152976580Y-100343420D01*
X152976580Y-100854740D02*
X152976580Y-101760920D01*
X152976580Y-100854740D02*
X152976580Y-100513328D01*
X160105000Y-75700000D02*
X159450000Y-75700000D01*
X163240000Y-78835000D02*
X160105000Y-75700000D01*
X156410000Y-87285000D02*
X158310002Y-89185002D01*
X159450000Y-75700000D02*
X157781880Y-75700000D01*
X158310002Y-89185002D02*
X158310002Y-94620000D01*
X156410000Y-77071880D02*
X156410000Y-87285000D01*
X157781880Y-75700000D02*
X156410000Y-77071880D01*
X153376827Y-102229987D02*
X156590013Y-102229987D01*
X156590013Y-102229987D02*
X156950000Y-101870000D01*
X152976580Y-101829740D02*
X153376827Y-102229987D01*
X152976580Y-100854740D02*
X152976580Y-101829740D01*
X163163998Y-119475000D02*
X163250000Y-119475000D01*
X148450000Y-92400000D02*
X148450000Y-91450000D01*
X149029999Y-92979999D02*
X148450000Y-92400000D01*
X150800000Y-93294358D02*
X150485641Y-92979999D01*
X163240000Y-119475000D02*
X159130000Y-115365000D01*
X159130000Y-99112596D02*
X155017404Y-95000000D01*
X159130000Y-115365000D02*
X159130000Y-99112596D01*
X151380000Y-95000000D02*
X150800000Y-94420000D01*
X150485641Y-92979999D02*
X149029999Y-92979999D01*
X155017404Y-95000000D02*
X151380000Y-95000000D01*
X150800000Y-94420000D02*
X150800000Y-93294358D01*
X146250000Y-94270000D02*
X146250000Y-92150000D01*
X146250000Y-92150000D02*
X146950000Y-91450000D01*
X158640000Y-99188296D02*
X154861704Y-95410000D01*
X158640000Y-117415000D02*
X158640000Y-99188296D01*
X163240000Y-122015000D02*
X158640000Y-117415000D01*
X146293998Y-94270000D02*
X146903998Y-94880000D01*
X146250000Y-94270000D02*
X146293998Y-94270000D01*
X151224302Y-95410000D02*
X154861704Y-95410000D01*
X150694302Y-94880000D02*
X151224302Y-95410000D01*
X146903998Y-94880000D02*
X150694302Y-94880000D01*
X145450000Y-91990000D02*
X145450000Y-91450000D01*
X139650000Y-108115000D02*
X138450000Y-109315000D01*
X141910000Y-108115000D02*
X139650000Y-108115000D01*
X141480000Y-111070000D02*
X143823998Y-111070000D01*
X142830000Y-95020000D02*
X145450000Y-92400000D01*
X144859975Y-99329975D02*
X142830000Y-97300000D01*
X144859975Y-110034023D02*
X144859975Y-99329975D01*
X142830000Y-97300000D02*
X142830000Y-95020000D01*
X140910001Y-109114999D02*
X140910001Y-110500001D01*
X140910001Y-110500001D02*
X141480000Y-111070000D01*
X143823998Y-111070000D02*
X144859975Y-110034023D01*
X141910000Y-108115000D02*
X140910001Y-109114999D01*
X145450000Y-92400000D02*
X145450000Y-91450000D01*
X139845000Y-106775000D02*
X138450000Y-106775000D01*
X142020000Y-104600000D02*
X139845000Y-106775000D01*
X143950000Y-91450000D02*
X143950000Y-93050000D01*
X143950000Y-93050000D02*
X142020000Y-94980000D01*
X142020000Y-94980000D02*
X142020000Y-100500000D01*
X142345000Y-100665000D02*
X142020000Y-100990000D01*
X143800000Y-100665000D02*
X142345000Y-100665000D01*
X142020000Y-100990000D02*
X142020000Y-104600000D01*
X142020000Y-100500000D02*
X142020000Y-100990000D01*
X140899989Y-101785011D02*
X140899989Y-94000011D01*
X138450000Y-104235000D02*
X140899989Y-101785011D01*
X140899989Y-94000011D02*
X141950000Y-92950000D01*
X141950000Y-92950000D02*
X141950000Y-90700000D01*
X140499978Y-99645022D02*
X138450000Y-101695000D01*
X141950000Y-89200000D02*
X141000000Y-89200000D01*
X140499978Y-89700022D02*
X140499978Y-99645022D01*
X141000000Y-89200000D02*
X140499978Y-89700022D01*
X140099967Y-88600033D02*
X140099967Y-97505033D01*
X141950000Y-87700000D02*
X141000000Y-87700000D01*
X140099967Y-97505033D02*
X138450000Y-99155000D01*
X141000000Y-87700000D02*
X140099967Y-88600033D01*
X139699956Y-87500044D02*
X139699956Y-95365044D01*
X139699956Y-95365044D02*
X138450000Y-96615000D01*
X141950000Y-86200000D02*
X141000000Y-86200000D01*
X141000000Y-86200000D02*
X139699956Y-87500044D01*
X141951380Y-84701380D02*
X141950000Y-84700000D01*
X143550640Y-84701380D02*
X141951380Y-84701380D01*
X143560560Y-83200000D02*
X143560800Y-83200240D01*
X141950000Y-83200000D02*
X143560560Y-83200000D01*
X141796397Y-81700000D02*
X141842860Y-81700000D01*
X141950900Y-81699100D02*
X141950000Y-81700000D01*
X143560800Y-81699100D02*
X141950900Y-81699100D01*
D28*
X141650000Y-80200000D02*
X141950000Y-80200000D01*
D27*
X141000000Y-80200000D02*
X141950000Y-80200000D01*
X140650000Y-80550000D02*
X141000000Y-80200000D01*
X138450000Y-86455000D02*
X140650000Y-84255000D01*
X140650000Y-84255000D02*
X140650000Y-80550000D01*
D28*
X141650000Y-78700000D02*
X141950000Y-78700000D01*
D27*
X139950000Y-79960002D02*
X141210002Y-78700000D01*
X138450000Y-83915000D02*
X139950000Y-82415000D01*
X141210002Y-78700000D02*
X141950000Y-78700000D01*
X139950000Y-82415000D02*
X139950000Y-79960002D01*
D28*
X138450000Y-81375000D02*
X138450000Y-81001457D01*
X141650000Y-77200000D02*
X141950000Y-77200000D01*
D27*
X141787002Y-77200000D02*
X141950000Y-77200000D01*
X138520000Y-80467002D02*
X141787002Y-77200000D01*
X138520000Y-81305000D02*
X138520000Y-80467002D01*
X138450000Y-81375000D02*
X138520000Y-81305000D01*
D28*
X141585000Y-75700000D02*
X141950000Y-75700000D01*
D27*
X141875000Y-75775000D02*
X141950000Y-75700000D01*
X140975000Y-75775000D02*
X141875000Y-75775000D01*
X138450000Y-78835000D02*
X138450000Y-78300000D01*
X138450000Y-78300000D02*
X140975000Y-75775000D01*
X139855002Y-74200000D02*
X141950000Y-74200000D01*
X138450000Y-75605002D02*
X139855002Y-74200000D01*
X138450000Y-76295000D02*
X138450000Y-75605002D01*
D28*
X141850000Y-72600000D02*
X141950000Y-72700000D01*
D27*
X139505000Y-72700000D02*
X141950000Y-72700000D01*
X138450000Y-73755000D02*
X139505000Y-72700000D01*
X152950000Y-91750000D02*
X152950000Y-91450000D01*
X159960023Y-98760023D02*
X152950000Y-91750000D01*
X163240000Y-114395000D02*
X159960023Y-111115023D01*
X159960023Y-111115023D02*
X159960023Y-98760023D01*
X143350000Y-131850000D02*
X141900000Y-130400000D01*
X163325000Y-130625000D02*
X162100000Y-131850000D01*
X163325000Y-125675000D02*
X163325000Y-130625000D01*
X160920000Y-121070000D02*
X160920000Y-123270000D01*
X162100000Y-131850000D02*
X143350000Y-131850000D01*
X160920000Y-123270000D02*
X163325000Y-125675000D01*
X160360033Y-98572933D02*
X154450000Y-92662900D01*
X154450000Y-92662900D02*
X154450000Y-91450000D01*
X163240000Y-111855000D02*
X160360033Y-108975033D01*
X160360033Y-108975033D02*
X160360033Y-98572933D01*
X163240000Y-106775000D02*
X160760044Y-104295044D01*
X155950000Y-93597200D02*
X155950000Y-91450000D01*
X160760044Y-98407244D02*
X155950000Y-93597200D01*
X160760044Y-104295044D02*
X160760044Y-98407244D01*
X159450000Y-96531500D02*
X159450000Y-90700000D01*
X161160055Y-98241555D02*
X159450000Y-96531500D01*
X163240000Y-104235000D02*
X161160055Y-102155055D01*
X161160055Y-102155055D02*
X161160055Y-98241555D01*
X159450000Y-89200000D02*
X159280000Y-89030000D01*
X161700000Y-98180698D02*
X161700000Y-100155000D01*
X160799990Y-97280688D02*
X161700000Y-98180698D01*
X160799990Y-89524990D02*
X160799990Y-97280688D01*
X159450000Y-89200000D02*
X160475000Y-89200000D01*
X160475000Y-89200000D02*
X160799990Y-89524990D01*
X163240000Y-101695000D02*
X161700000Y-100155000D01*
X160400000Y-87700000D02*
X161200000Y-88500000D01*
X159450000Y-87700000D02*
X160400000Y-87700000D01*
X161200000Y-88500000D02*
X161200000Y-97115000D01*
X163240000Y-99155000D02*
X161200000Y-97115000D01*
X161624989Y-87424989D02*
X161624989Y-94999989D01*
X160400000Y-86200000D02*
X161624989Y-87424989D01*
X159450000Y-86200000D02*
X160400000Y-86200000D01*
X161624989Y-94999989D02*
X163240000Y-96615000D01*
X162025000Y-92860000D02*
X163240000Y-94075000D01*
X162025000Y-86325000D02*
X162025000Y-92860000D01*
X159450000Y-84700000D02*
X160400000Y-84700000D01*
X160400000Y-84700000D02*
X162025000Y-86325000D01*
X157586440Y-83200000D02*
X157584140Y-83197700D01*
X159450000Y-83200000D02*
X157586440Y-83200000D01*
X157585040Y-81700000D02*
X157584140Y-81699100D01*
X159449100Y-81699100D02*
X159450000Y-81700000D01*
X157584140Y-81699100D02*
X159449100Y-81699100D01*
X163240000Y-80690000D02*
X163240000Y-81260000D01*
X159450000Y-77200000D02*
X159750000Y-77200000D01*
X160400000Y-77200000D02*
X159450000Y-77200000D01*
X161650000Y-78450000D02*
X160400000Y-77200000D01*
X163240000Y-81375000D02*
X161650000Y-79785000D01*
X161650000Y-79785000D02*
X161650000Y-78450000D01*
X162185000Y-72700000D02*
X159450000Y-72700000D01*
X163240000Y-73755000D02*
X162185000Y-72700000D01*
X151554220Y-111679480D02*
X151554220Y-110829220D01*
X150450000Y-109725000D02*
X149710000Y-109725000D01*
X151554220Y-110829220D02*
X150450000Y-109725000D01*
X161000000Y-79300000D02*
X160400000Y-78700000D01*
X160400000Y-78700000D02*
X159450000Y-78700000D01*
X163240000Y-83915000D02*
X161000000Y-81675000D01*
X161000000Y-81675000D02*
X161000000Y-79300000D01*
X159447960Y-80197960D02*
X159450000Y-80200000D01*
X157584140Y-80197960D02*
X159447960Y-80197960D01*
X151706580Y-106779740D02*
X151706580Y-105804740D01*
X151111330Y-107374990D02*
X151706580Y-106779740D01*
X147860010Y-107374990D02*
X151111330Y-107374990D01*
X147180000Y-108055000D02*
X147860010Y-107374990D01*
X146869066Y-110925020D02*
X146320001Y-110375955D01*
X150277062Y-110925020D02*
X146869066Y-110925020D01*
X150449128Y-111097086D02*
X150277062Y-110925020D01*
X150449128Y-113537088D02*
X150449128Y-111097086D01*
X146320001Y-110375955D02*
X146320001Y-108914999D01*
X146320001Y-108914999D02*
X147180000Y-108055000D01*
X150599140Y-113687100D02*
X150449128Y-113537088D01*
X149950000Y-91450000D02*
X149950000Y-91750000D01*
X149950000Y-91878659D02*
X149950000Y-91450000D01*
X151642580Y-93919040D02*
X151642580Y-93571239D01*
X151642580Y-93571239D02*
X149950000Y-91878659D01*
X151650000Y-108500000D02*
X151325000Y-108175000D01*
X151650000Y-109850000D02*
X151650000Y-108500000D01*
X155770000Y-111050000D02*
X152850000Y-111050000D01*
X152850000Y-111050000D02*
X151650000Y-109850000D01*
X150355000Y-108075000D02*
X149710000Y-108075000D01*
X151225000Y-108075000D02*
X150355000Y-108075000D01*
X151325000Y-108175000D02*
X151225000Y-108075000D01*
X152976580Y-106323420D02*
X152976580Y-105804740D01*
X151225000Y-108075000D02*
X152976580Y-106323420D01*
X163235000Y-71200000D02*
X163250000Y-71215000D01*
X159550000Y-71100000D02*
X159450000Y-71200000D01*
X163140000Y-71200000D02*
X163240000Y-71100000D01*
X159465000Y-71215000D02*
X159450000Y-71200000D01*
X163240000Y-71215000D02*
X159465000Y-71215000D01*
X142484304Y-132693160D02*
X141904720Y-132693160D01*
X153649989Y-94599989D02*
X151450000Y-92400000D01*
X159560012Y-98976908D02*
X155183093Y-94599989D01*
X151450000Y-92400000D02*
X151450000Y-91450000D01*
X155183093Y-94599989D02*
X153649989Y-94599989D01*
X159560012Y-113255012D02*
X159560012Y-98976908D01*
X163240000Y-116935000D02*
X159560012Y-113255012D01*
X162325000Y-132325000D02*
X163800000Y-130850000D01*
X163800000Y-130850000D02*
X163800000Y-125160036D01*
X163800000Y-125160036D02*
X161714980Y-123075016D01*
X141975000Y-132325000D02*
X141900000Y-132400000D01*
X162325000Y-132325000D02*
X141975000Y-132325000D01*
X159620000Y-128795000D02*
X159610000Y-128805000D01*
X159620000Y-126005000D02*
X159620000Y-128795000D01*
X150436580Y-100196580D02*
X150436580Y-100854740D01*
X158600000Y-128880000D02*
X158625002Y-128854998D01*
X157850000Y-130200000D02*
X157610000Y-129960000D01*
X158325000Y-130200000D02*
X157850000Y-130200000D01*
X157610000Y-129960000D02*
X157610000Y-128805000D01*
X158610000Y-128805000D02*
X158610000Y-129915000D01*
X158610000Y-129915000D02*
X158325000Y-130200000D01*
X154110000Y-115880000D02*
X156009999Y-113980001D01*
X158610000Y-122449998D02*
X154110000Y-117949998D01*
X154110000Y-117949998D02*
X154110000Y-115880000D01*
X156009999Y-113980001D02*
X156009999Y-112615701D01*
X158610000Y-128805000D02*
X158610000Y-122449998D01*
X156009999Y-112615701D02*
X156285689Y-112340011D01*
X155055688Y-102909990D02*
X157420000Y-105274302D01*
X151516830Y-102909990D02*
X155055688Y-102909990D01*
X150436580Y-101829740D02*
X151516830Y-102909990D01*
X150436580Y-100854740D02*
X150436580Y-101829740D01*
X156565689Y-112340011D02*
X156285689Y-112340011D01*
X157420000Y-111485700D02*
X156565689Y-112340011D01*
X157420000Y-105274302D02*
X157420000Y-111485700D01*
X157110000Y-127889998D02*
X157110000Y-128805000D01*
X157424998Y-127575000D02*
X157110000Y-127889998D01*
X157805000Y-127575000D02*
X157424998Y-127575000D01*
X158110000Y-128805000D02*
X158110000Y-127880000D01*
X157900000Y-127670000D02*
X157805000Y-127575000D01*
X158110000Y-127880000D02*
X157900000Y-127670000D01*
X149166580Y-101829740D02*
X149166580Y-100854740D01*
X156980000Y-105400000D02*
X154890000Y-103310000D01*
X154890000Y-103310000D02*
X150646840Y-103310000D01*
X156400001Y-111940001D02*
X156980000Y-111360002D01*
X156019999Y-111940001D02*
X156400001Y-111940001D01*
X154580000Y-122850000D02*
X153500000Y-121770000D01*
X157900000Y-123850000D02*
X156900000Y-122850000D01*
X153500000Y-115834301D02*
X155550000Y-113784301D01*
X150646840Y-103310000D02*
X149166580Y-101829740D01*
X156980000Y-111360002D02*
X156980000Y-105400000D01*
X157900000Y-127670000D02*
X157900000Y-123850000D01*
X155550000Y-112410000D02*
X156019999Y-111940001D01*
X155550000Y-113784301D02*
X155550000Y-112410000D01*
X156900000Y-122850000D02*
X154580000Y-122850000D01*
X153500000Y-121770000D02*
X153500000Y-115834301D01*
X156650000Y-128765000D02*
X156610000Y-128805000D01*
X156650000Y-126065000D02*
X156650000Y-128765000D01*
D28*
X138751340Y-120958640D02*
X139051900Y-120958640D01*
X139330000Y-122355000D02*
X141225000Y-124250000D01*
X139330000Y-120940000D02*
X139330000Y-122355000D01*
X141626120Y-123848880D02*
X141225000Y-124250000D01*
X143325000Y-123848880D02*
X141626120Y-123848880D01*
X143325000Y-123855000D02*
X145448000Y-123855000D01*
X159160001Y-130725000D02*
X160310000Y-129575001D01*
X156519999Y-130725000D02*
X159160001Y-130725000D01*
X155410000Y-128805000D02*
X155410000Y-129615001D01*
X160310000Y-129575001D02*
X160310000Y-128805000D01*
X155410000Y-129615001D02*
X156519999Y-130725000D01*
X149485000Y-131275000D02*
X148900000Y-130690000D01*
X156519999Y-130725000D02*
X155969999Y-131275000D01*
X155969999Y-131275000D02*
X149485000Y-131275000D01*
X141904720Y-134693160D02*
X141976840Y-134693160D01*
X141900000Y-134325000D02*
X142345000Y-134325000D01*
X148900000Y-128104281D02*
X147320719Y-126525000D01*
X148900000Y-128310000D02*
X148900000Y-128104281D01*
X140174992Y-129505008D02*
X140680000Y-129000000D01*
X140174992Y-133174992D02*
X140174992Y-129505008D01*
X141900000Y-134325000D02*
X141325000Y-134325000D01*
X141400000Y-134400000D02*
X140174992Y-133174992D01*
X141900000Y-134400000D02*
X141400000Y-134400000D01*
X137929999Y-112375001D02*
X138450000Y-111855000D01*
X137929999Y-123754999D02*
X137929999Y-112375001D01*
X138425000Y-124250000D02*
X137929999Y-123754999D01*
X140655001Y-126480001D02*
X138425000Y-124250000D01*
X140655001Y-128280001D02*
X140655001Y-126480001D01*
X140680000Y-128305000D02*
X140655001Y-128280001D01*
X140680000Y-129000000D02*
X140680000Y-128305000D01*
X140700000Y-126525000D02*
X140655001Y-126480001D01*
X147320719Y-126525000D02*
X140700000Y-126525000D01*
D27*
X151706580Y-100513328D02*
X151706580Y-100854740D01*
X153884908Y-98335000D02*
X151706580Y-100513328D01*
X153870000Y-98215000D02*
X153864908Y-98215000D01*
X147945000Y-117700000D02*
X147840000Y-117805000D01*
X147700000Y-117737500D02*
X147875000Y-117562500D01*
X147920000Y-117607500D02*
X147875000Y-117562500D01*
X147890000Y-119765000D02*
X147910000Y-119785000D01*
X147890000Y-119905000D02*
X147900000Y-119915000D01*
X147890000Y-117422500D02*
X147890000Y-119905000D01*
X143607500Y-109765000D02*
X143830000Y-109542500D01*
X141910000Y-109765000D02*
X143607500Y-109765000D01*
X148000009Y-110525009D02*
X147180000Y-109705000D01*
X150684312Y-110525010D02*
X148000009Y-110525009D01*
X150849139Y-110689837D02*
X150684312Y-110525010D01*
X150849139Y-112377101D02*
X150849139Y-110689837D01*
X151522038Y-113050000D02*
X150849139Y-112377101D01*
X154820000Y-113050000D02*
X151522038Y-113050000D01*
D29*
X151898000Y-78698000D02*
X147177000Y-78698000D01*
X147177000Y-73877000D01*
X151898000Y-73877000D01*
X151898000Y-78698000D01*
%TA.AperFunction,Conductor*%
D30*
G36*
X151898000Y-78698000D02*
G01*
X147177000Y-78698000D01*
X147177000Y-73877000D01*
X151898000Y-73877000D01*
X151898000Y-78698000D01*
G37*
%TD.AperFunction*%
M02*
