M48
; DRILL file {KiCad 5.1.5+dfsg1-2build2} date Tue Jun  8 17:35:54 2021
; FORMAT={-:-/ absolute / metric / decimal}
; #@! TF.CreationDate,2021-06-08T17:35:54+05:30
; #@! TF.GenerationSoftware,Kicad,Pcbnew,5.1.5+dfsg1-2build2
; #@! TF.FileFunction,Plated,1,4,PTH
FMAT,2
METRIC
T1C0.400
T2C0.650
T3C0.920
T4C1.000
T5C1.500
%
G90
G05
T1
X138.64Y-122.797
X140.403Y-111.039
X140.413Y-113.308
X140.451Y-120.821
X140.481Y-116.193
X143.11Y-129.731
X143.115Y-118.662
X143.24Y-106.188
X143.301Y-94.514
X143.377Y-104.039
X143.598Y-87.699
X143.608Y-86.188
X143.613Y-84.722
X143.669Y-68.212
X143.672Y-71.324
X144.215Y-119.444
X144.323Y-109.706
X144.41Y-122.613
X145.02Y-110.443
X145.72Y-86.186
X145.726Y-123.6
X146.323Y-120.763
X146.336Y-118.205
X146.465Y-115.693
X146.76Y-106.213
X147.113Y-99.361
X147.162Y-94.514
X147.255Y-73.906
X147.255Y-75.406
X147.255Y-76.906
X147.255Y-78.406
X148.142Y-119.477
X148.142Y-120.844
X148.604Y-125.853
X148.755Y-73.906
X148.755Y-75.406
X148.755Y-76.906
X148.755Y-78.406
X148.838Y-99.404
X149.6Y-104.979
X149.765Y-133.135
X150.255Y-73.906
X150.255Y-75.406
X150.255Y-76.906
X150.255Y-78.406
X150.85Y-93.011
X150.984Y-122.429
X150.997Y-114.771
X151.213Y-97.053
X151.213Y-99.353
X151.525Y-106.305
X151.755Y-73.906
X151.755Y-75.406
X151.755Y-76.906
X151.755Y-78.406
X152.331Y-133.135
X152.805Y-106.279
X152.927Y-114.758
X153.651Y-127.382
X153.931Y-122.038
X154.998Y-122.076
X155.462Y-103.785
X156.95Y-121.019
X157.123Y-86.147
X157.123Y-89.185
X157.126Y-87.689
X157.141Y-69.681
X157.154Y-84.697
X157.174Y-75.68
X157.184Y-74.171
X157.258Y-107.133
X157.525Y-98.36
X157.525Y-100.3
X157.783Y-109.165
X157.88Y-110.63
X157.893Y-112.599
X158.714Y-119.485
X158.973Y-92.086
T3
X159.912Y-127.021
X159.912Y-129.021
X159.912Y-131.021
X159.912Y-133.021
T4
X163.24Y-68.675
X163.24Y-71.215
X163.24Y-73.755
X163.24Y-76.295
X163.24Y-78.835
X163.24Y-81.375
X163.24Y-83.915
X163.24Y-86.455
X163.24Y-88.995
X163.24Y-91.535
X163.24Y-94.075
X163.24Y-96.615
X163.24Y-99.155
X163.24Y-101.695
X163.24Y-104.235
X163.24Y-106.775
X163.24Y-109.315
X163.24Y-111.855
X163.24Y-114.395
X163.24Y-116.935
X163.24Y-119.475
X163.24Y-122.015
X138.45Y-68.675
X138.45Y-71.215
X138.45Y-73.755
X138.45Y-76.295
X138.45Y-78.835
X138.45Y-81.375
X138.45Y-83.915
X138.45Y-86.455
X138.45Y-88.995
X138.45Y-91.535
X138.45Y-94.075
X138.45Y-96.615
X138.45Y-99.155
X138.45Y-101.695
X138.45Y-104.235
X138.45Y-106.775
X138.45Y-109.315
X138.45Y-111.855
T5
X157.192Y-126.751
X157.192Y-133.751
X162.632Y-126.751
X162.632Y-133.751
T2
G00X140.324Y-125.754
M15
G01X139.724Y-125.754
M16
G05
G00X140.324Y-134.394
M15
G01X139.724Y-134.394
M16
G05
G00X144.754Y-125.754
M15
G01X143.654Y-125.754
M16
G05
G00X144.754Y-134.394
M15
G01X143.654Y-134.394
M16
G05
T0
M30
