<?xml version="1.0" standalone="no"?>
 <!DOCTYPE svg PUBLIC "-//W3C//DTD SVG 1.1//EN" 
 "http://www.w3.org/Graphics/SVG/1.1/DTD/svg11.dtd"> 
<svg xmlns="http://www.w3.org/2000/svg" version="1.1" 
    width="29.7002cm" height="21.0007cm" viewBox="0 0 116930 82680 ">
<title>SVG Picture created as ESP32-S2-PTH-drl_map.svg date 2021/06/10 16:32:57 </title>
  <desc>Picture generated by PCBNEW </desc>
<g style="fill:#000000; fill-opacity:1;stroke:#000000; stroke-opacity:1;
stroke-linecap:round; stroke-linejoin:round; "
 transform="translate(0 0) scale(1 1)">
</g>
<g style="fill:#000000; fill-opacity:0.0; 
stroke:#000000; stroke-width:-0.000393701; stroke-opacity:1; 
stroke-linecap:round; stroke-linejoin:round;">
</g>
<g style="fill:#000000; fill-opacity:0.0; 
stroke:#000000; stroke-width:19.685; stroke-opacity:1; 
stroke-linecap:round; stroke-linejoin:round;">
<path d="M53917 52755
L53917 27000
" />
<path d="M64318 53350
L54507 53346
" />
<path d="M64909 27000
L64909 52759
" />
<path d="M54507 26409
L64318 26409
" />
<path d="M64318.9 53350.4 A590.551 590.551 0.0 0 0 64909.4 52759.8 " />
<path d="M53917.3 52755.9 A590.551 590.551 0.0 0 0 54507.9 53346.5 " />
<path d="M54507.9 26409.4 A590.551 590.551 0.0 0 0 53917.3 27000 " />
<path d="M64909.4 27000 A590.551 590.551 0.0 0 0 64318.9 26409.4 " />
</g>
<g style="fill:#000000; fill-opacity:0.0; 
stroke:#000000; stroke-width:78.7402; stroke-opacity:1; 
stroke-linecap:round; stroke-linejoin:round;">
<path d="M54503 48266
L54661 48424
" />
<path d="M54661 48266
L54503 48424
" />
<path d="M55197 43637
L55355 43795
" />
<path d="M55355 43637
L55197 43795
" />
<path d="M55201 44530
L55359 44688
" />
<path d="M55359 44530
L55201 44688
" />
<path d="M55216 47488
L55374 47646
" />
<path d="M55374 47488
L55216 47646
" />
<path d="M55228 45666
L55386 45824
" />
<path d="M55386 45666
L55228 45824
" />
<path d="M55678 50791
L55836 50949
" />
<path d="M55836 50791
L55678 50949
" />
<path d="M56265 46638
L56423 46796
" />
<path d="M56423 46638
L56265 46796
" />
<path d="M56314 41727
L56472 41884
" />
<path d="M56472 41727
L56314 41884
" />
<path d="M56338 37131
L56496 37289
" />
<path d="M56496 37131
L56338 37289
" />
<path d="M56368 40881
L56526 41039
" />
<path d="M56526 40881
L56368 41039
" />
<path d="M56455 34448
L56613 34606
" />
<path d="M56613 34448
L56455 34606
" />
<path d="M56459 33853
L56617 34011
" />
<path d="M56617 33853
L56459 34011
" />
<path d="M56461 33276
L56619 33434
" />
<path d="M56619 33276
L56461 33434
" />
<path d="M56483 26776
L56641 26934
" />
<path d="M56641 26776
L56483 26934
" />
<path d="M56484 28001
L56642 28159
" />
<path d="M56642 28001
L56484 28159
" />
<path d="M56698 46946
L56856 47104
" />
<path d="M56856 46946
L56698 47104
" />
<path d="M56741 43112
L56898 43270
" />
<path d="M56898 43112
L56741 43270
" />
<path d="M56775 48193
L56933 48351
" />
<path d="M56933 48193
L56775 48351
" />
<path d="M57015 43402
L57173 43560
" />
<path d="M57173 43402
L57015 43560
" />
<path d="M57291 33852
L57448 34010
" />
<path d="M57448 33852
L57291 34010
" />
<path d="M57293 48582
L57451 48740
" />
<path d="M57451 48582
L57293 48740
" />
<path d="M57528 47465
L57686 47623
" />
<path d="M57686 47465
L57528 47623
" />
<path d="M57533 46458
L57691 46616
" />
<path d="M57691 46458
L57533 46616
" />
<path d="M57584 45469
L57742 45627
" />
<path d="M57742 45469
L57584 45627
" />
<path d="M57700 41737
L57858 41895
" />
<path d="M57858 41737
L57700 41895
" />
<path d="M57839 39039
L57997 39197
" />
<path d="M57997 39039
L57839 39197
" />
<path d="M57858 37131
L58016 37289
" />
<path d="M58016 37131
L57858 37289
" />
<path d="M57895 29018
L58053 29175
" />
<path d="M58053 29018
L57895 29175
" />
<path d="M57895 29608
L58053 29766
" />
<path d="M58053 29608
L57895 29766
" />
<path d="M57895 30199
L58053 30356
" />
<path d="M58053 30199
L57895 30356
" />
<path d="M57895 30789
L58053 30947
" />
<path d="M58053 30789
L57895 30947
" />
<path d="M58244 46959
L58402 47117
" />
<path d="M58402 46959
L58244 47117
" />
<path d="M58244 47497
L58402 47655
" />
<path d="M58402 47497
L58244 47655
" />
<path d="M58426 49469
L58584 49627
" />
<path d="M58584 49469
L58426 49627
" />
<path d="M58486 29018
L58643 29175
" />
<path d="M58643 29018
L58486 29175
" />
<path d="M58486 29608
L58643 29766
" />
<path d="M58643 29608
L58486 29766
" />
<path d="M58486 30199
L58643 30356
" />
<path d="M58643 30199
L58486 30356
" />
<path d="M58486 30789
L58643 30947
" />
<path d="M58643 30789
L58486 30947
" />
<path d="M58518 39056
L58676 39214
" />
<path d="M58676 39056
L58518 39214
" />
<path d="M58818 41251
L58976 41409
" />
<path d="M58976 41251
L58818 41409
" />
<path d="M58883 52336
L59041 52494
" />
<path d="M59041 52336
L58883 52494
" />
<path d="M59076 29018
L59234 29175
" />
<path d="M59234 29018
L59076 29175
" />
<path d="M59076 29608
L59234 29766
" />
<path d="M59234 29608
L59076 29766
" />
<path d="M59076 30199
L59234 30356
" />
<path d="M59234 30199
L59076 30356
" />
<path d="M59076 30789
L59234 30947
" />
<path d="M59234 30789
L59076 30947
" />
<path d="M59310 36539
L59468 36697
" />
<path d="M59468 36539
L59310 36697
" />
<path d="M59363 48121
L59521 48279
" />
<path d="M59521 48121
L59363 48279
" />
<path d="M59368 45106
L59526 45264
" />
<path d="M59526 45106
L59368 45264
" />
<path d="M59453 38131
L59611 38288
" />
<path d="M59611 38131
L59453 38288
" />
<path d="M59453 39036
L59611 39194
" />
<path d="M59611 39036
L59453 39194
" />
<path d="M59576 41773
L59734 41931
" />
<path d="M59734 41773
L59576 41931
" />
<path d="M59667 29018
L59824 29175
" />
<path d="M59824 29018
L59667 29175
" />
<path d="M59667 29608
L59824 29766
" />
<path d="M59824 29608
L59667 29766
" />
<path d="M59667 30199
L59824 30356
" />
<path d="M59824 30199
L59667 30356
" />
<path d="M59667 30789
L59824 30947
" />
<path d="M59824 30789
L59667 30947
" />
<path d="M59893 52336
L60051 52494
" />
<path d="M60051 52336
L59893 52494
" />
<path d="M60080 41763
L60238 41921
" />
<path d="M60238 41763
L60080 41921
" />
<path d="M60128 45101
L60286 45259
" />
<path d="M60286 45101
L60128 45259
" />
<path d="M60413 50071
L60571 50229
" />
<path d="M60571 50071
L60413 50229
" />
<path d="M60523 47967
L60681 48125
" />
<path d="M60681 47967
L60523 48125
" />
<path d="M60943 47982
L61101 48140
" />
<path d="M61101 47982
L60943 48140
" />
<path d="M61126 40781
L61284 40939
" />
<path d="M61284 40781
L61126 40939
" />
<path d="M61712 47566
L61870 47724
" />
<path d="M61870 47566
L61712 47724
" />
<path d="M61780 33837
L61938 33995
" />
<path d="M61938 33837
L61780 33995
" />
<path d="M61780 35033
L61938 35191
" />
<path d="M61938 35033
L61780 35191
" />
<path d="M61781 34444
L61939 34602
" />
<path d="M61939 34444
L61781 34602
" />
<path d="M61787 27354
L61945 27512
" />
<path d="M61945 27354
L61787 27512
" />
<path d="M61792 33266
L61950 33424
" />
<path d="M61950 33266
L61792 33424
" />
<path d="M61800 29716
L61958 29874
" />
<path d="M61958 29716
L61800 29874
" />
<path d="M61804 29122
L61962 29280
" />
<path d="M61962 29122
L61804 29280
" />
<path d="M61833 42099
L61991 42257
" />
<path d="M61991 42099
L61833 42257
" />
<path d="M61938 38645
L62096 38803
" />
<path d="M62096 38645
L61938 38803
" />
<path d="M61938 39409
L62096 39567
" />
<path d="M62096 39409
L61938 39567
" />
<path d="M62040 42899
L62198 43057
" />
<path d="M62198 42899
L62040 43057
" />
<path d="M62078 43476
L62236 43634
" />
<path d="M62236 43476
L62078 43634
" />
<path d="M62083 44251
L62241 44409
" />
<path d="M62241 44251
L62083 44409
" />
<path d="M62406 46962
L62564 47120
" />
<path d="M62564 46962
L62406 47120
" />
<path d="M62508 36175
L62666 36333
" />
<path d="M62666 36175
L62508 36333
" />
<circle cx="54867.6" cy="49499.5" r="127.953" /> 
<path d="M54985 49410
L54749 49410
" />
<path d="M54985 49588
L54749 49588
" />
<path d="M54749.5 49410.9 A88.5827 88.5827 0.0 0 0 54749.5 49588.1 " />
<path d="M54985.7 49588.1 A88.5827 88.5827 0.0 0 0 54985.7 49410.9 " />
<circle cx="54867.6" cy="52901.1" r="127.953" /> 
<path d="M54985 52812
L54749 52812
" />
<path d="M54985 52989
L54749 52989
" />
<path d="M54749.5 52812.5 A88.5827 88.5827 0.0 0 0 54749.5 52989.7 " />
<path d="M54985.7 52989.7 A88.5827 88.5827 0.0 0 0 54985.7 52812.5 " />
<circle cx="56513.3" cy="49499.5" r="127.953" /> 
<path d="M56729 49410
L56296 49410
" />
<path d="M56729 49588
L56296 49588
" />
<path d="M56296.8 49410.9 A88.5827 88.5827 0.0 0 0 56296.8 49588.1 " />
<path d="M56729.8 49588.1 A88.5827 88.5827 0.0 0 0 56729.8 49410.9 " />
<circle cx="56513.3" cy="52901.1" r="127.953" /> 
<path d="M56729 52812
L56296 52812
" />
<path d="M56729 52989
L56296 52989
" />
<path d="M56296.8 52812.5 A88.5827 88.5827 0.0 0 0 56296.8 52989.7 " />
<path d="M56729.8 52989.7 A88.5827 88.5827 0.0 0 0 56729.8 52812.5 " />
<path d="M62957 49827
L62957 50189
" />
<path d="M62776 50008
L63138 50008
" />
<path d="M62957 50614
L62957 50976
" />
<path d="M62776 50795
L63138 50795
" />
<path d="M62957 51401
L62957 51764
" />
<path d="M62776 51582
L63138 51582
" />
<path d="M62957 52189
L62957 52551
" />
<path d="M62776 52370
L63138 52370
" />
<path style="fill:#000000; fill-opacity:0.0; 
stroke:#000000; stroke-width:78.7402; stroke-opacity:1; 
stroke-linecap:round; stroke-linejoin:round;fill:none"
d="M 54647.1,27176.6
54647.1,26898.2
54368.7,26898.2
54368.7,27176.6
Z" /> 
<path style="fill:#000000; fill-opacity:0.0; 
stroke:#000000; stroke-width:78.7402; stroke-opacity:1; 
stroke-linecap:round; stroke-linejoin:round;fill:none"
d="M 54647.1,28176.6
54647.1,27898.2
54368.7,27898.2
54368.7,28176.6
Z" /> 
<path style="fill:#000000; fill-opacity:0.0; 
stroke:#000000; stroke-width:78.7402; stroke-opacity:1; 
stroke-linecap:round; stroke-linejoin:round;fill:none"
d="M 54647.1,29176.6
54647.1,28898.2
54368.7,28898.2
54368.7,29176.6
Z" /> 
<path style="fill:#000000; fill-opacity:0.0; 
stroke:#000000; stroke-width:78.7402; stroke-opacity:1; 
stroke-linecap:round; stroke-linejoin:round;fill:none"
d="M 54647.1,30176.6
54647.1,29898.2
54368.7,29898.2
54368.7,30176.6
Z" /> 
<path style="fill:#000000; fill-opacity:0.0; 
stroke:#000000; stroke-width:78.7402; stroke-opacity:1; 
stroke-linecap:round; stroke-linejoin:round;fill:none"
d="M 54647.1,31176.6
54647.1,30898.2
54368.7,30898.2
54368.7,31176.6
Z" /> 
<path style="fill:#000000; fill-opacity:0.0; 
stroke:#000000; stroke-width:78.7402; stroke-opacity:1; 
stroke-linecap:round; stroke-linejoin:round;fill:none"
d="M 54647.1,32176.6
54647.1,31898.2
54368.7,31898.2
54368.7,32176.6
Z" /> 
<path style="fill:#000000; fill-opacity:0.0; 
stroke:#000000; stroke-width:78.7402; stroke-opacity:1; 
stroke-linecap:round; stroke-linejoin:round;fill:none"
d="M 54647.1,33176.6
54647.1,32898.2
54368.7,32898.2
54368.7,33176.6
Z" /> 
<path style="fill:#000000; fill-opacity:0.0; 
stroke:#000000; stroke-width:78.7402; stroke-opacity:1; 
stroke-linecap:round; stroke-linejoin:round;fill:none"
d="M 54647.1,34176.6
54647.1,33898.2
54368.7,33898.2
54368.7,34176.6
Z" /> 
<path style="fill:#000000; fill-opacity:0.0; 
stroke:#000000; stroke-width:78.7402; stroke-opacity:1; 
stroke-linecap:round; stroke-linejoin:round;fill:none"
d="M 54647.1,35176.6
54647.1,34898.2
54368.7,34898.2
54368.7,35176.6
Z" /> 
<path style="fill:#000000; fill-opacity:0.0; 
stroke:#000000; stroke-width:78.7402; stroke-opacity:1; 
stroke-linecap:round; stroke-linejoin:round;fill:none"
d="M 54647.1,36176.6
54647.1,35898.2
54368.7,35898.2
54368.7,36176.6
Z" /> 
<path style="fill:#000000; fill-opacity:0.0; 
stroke:#000000; stroke-width:78.7402; stroke-opacity:1; 
stroke-linecap:round; stroke-linejoin:round;fill:none"
d="M 54647.1,37176.6
54647.1,36898.2
54368.7,36898.2
54368.7,37176.6
Z" /> 
<path style="fill:#000000; fill-opacity:0.0; 
stroke:#000000; stroke-width:78.7402; stroke-opacity:1; 
stroke-linecap:round; stroke-linejoin:round;fill:none"
d="M 54647.1,38176.6
54647.1,37898.2
54368.7,37898.2
54368.7,38176.6
Z" /> 
<path style="fill:#000000; fill-opacity:0.0; 
stroke:#000000; stroke-width:78.7402; stroke-opacity:1; 
stroke-linecap:round; stroke-linejoin:round;fill:none"
d="M 54647.1,39176.6
54647.1,38898.2
54368.7,38898.2
54368.7,39176.6
Z" /> 
<path style="fill:#000000; fill-opacity:0.0; 
stroke:#000000; stroke-width:78.7402; stroke-opacity:1; 
stroke-linecap:round; stroke-linejoin:round;fill:none"
d="M 54647.1,40176.6
54647.1,39898.2
54368.7,39898.2
54368.7,40176.6
Z" /> 
<path style="fill:#000000; fill-opacity:0.0; 
stroke:#000000; stroke-width:78.7402; stroke-opacity:1; 
stroke-linecap:round; stroke-linejoin:round;fill:none"
d="M 54647.1,41176.6
54647.1,40898.2
54368.7,40898.2
54368.7,41176.6
Z" /> 
<path style="fill:#000000; fill-opacity:0.0; 
stroke:#000000; stroke-width:78.7402; stroke-opacity:1; 
stroke-linecap:round; stroke-linejoin:round;fill:none"
d="M 54647.1,42176.6
54647.1,41898.2
54368.7,41898.2
54368.7,42176.6
Z" /> 
<path style="fill:#000000; fill-opacity:0.0; 
stroke:#000000; stroke-width:78.7402; stroke-opacity:1; 
stroke-linecap:round; stroke-linejoin:round;fill:none"
d="M 54647.1,43176.6
54647.1,42898.2
54368.7,42898.2
54368.7,43176.6
Z" /> 
<path style="fill:#000000; fill-opacity:0.0; 
stroke:#000000; stroke-width:78.7402; stroke-opacity:1; 
stroke-linecap:round; stroke-linejoin:round;fill:none"
d="M 54647.1,44176.6
54647.1,43898.2
54368.7,43898.2
54368.7,44176.6
Z" /> 
<path style="fill:#000000; fill-opacity:0.0; 
stroke:#000000; stroke-width:78.7402; stroke-opacity:1; 
stroke-linecap:round; stroke-linejoin:round;fill:none"
d="M 64406.9,27176.6
64406.9,26898.2
64128.5,26898.2
64128.5,27176.6
Z" /> 
<path style="fill:#000000; fill-opacity:0.0; 
stroke:#000000; stroke-width:78.7402; stroke-opacity:1; 
stroke-linecap:round; stroke-linejoin:round;fill:none"
d="M 64406.9,28176.6
64406.9,27898.2
64128.5,27898.2
64128.5,28176.6
Z" /> 
<path style="fill:#000000; fill-opacity:0.0; 
stroke:#000000; stroke-width:78.7402; stroke-opacity:1; 
stroke-linecap:round; stroke-linejoin:round;fill:none"
d="M 64406.9,29176.6
64406.9,28898.2
64128.5,28898.2
64128.5,29176.6
Z" /> 
<path style="fill:#000000; fill-opacity:0.0; 
stroke:#000000; stroke-width:78.7402; stroke-opacity:1; 
stroke-linecap:round; stroke-linejoin:round;fill:none"
d="M 64406.9,30176.6
64406.9,29898.2
64128.5,29898.2
64128.5,30176.6
Z" /> 
<path style="fill:#000000; fill-opacity:0.0; 
stroke:#000000; stroke-width:78.7402; stroke-opacity:1; 
stroke-linecap:round; stroke-linejoin:round;fill:none"
d="M 64406.9,31176.6
64406.9,30898.2
64128.5,30898.2
64128.5,31176.6
Z" /> 
<path style="fill:#000000; fill-opacity:0.0; 
stroke:#000000; stroke-width:78.7402; stroke-opacity:1; 
stroke-linecap:round; stroke-linejoin:round;fill:none"
d="M 64406.9,32176.6
64406.9,31898.2
64128.5,31898.2
64128.5,32176.6
Z" /> 
<path style="fill:#000000; fill-opacity:0.0; 
stroke:#000000; stroke-width:78.7402; stroke-opacity:1; 
stroke-linecap:round; stroke-linejoin:round;fill:none"
d="M 64406.9,33176.6
64406.9,32898.2
64128.5,32898.2
64128.5,33176.6
Z" /> 
<path style="fill:#000000; fill-opacity:0.0; 
stroke:#000000; stroke-width:78.7402; stroke-opacity:1; 
stroke-linecap:round; stroke-linejoin:round;fill:none"
d="M 64406.9,34176.6
64406.9,33898.2
64128.5,33898.2
64128.5,34176.6
Z" /> 
<path style="fill:#000000; fill-opacity:0.0; 
stroke:#000000; stroke-width:78.7402; stroke-opacity:1; 
stroke-linecap:round; stroke-linejoin:round;fill:none"
d="M 64406.9,35176.6
64406.9,34898.2
64128.5,34898.2
64128.5,35176.6
Z" /> 
<path style="fill:#000000; fill-opacity:0.0; 
stroke:#000000; stroke-width:78.7402; stroke-opacity:1; 
stroke-linecap:round; stroke-linejoin:round;fill:none"
d="M 64406.9,36176.6
64406.9,35898.2
64128.5,35898.2
64128.5,36176.6
Z" /> 
<path style="fill:#000000; fill-opacity:0.0; 
stroke:#000000; stroke-width:78.7402; stroke-opacity:1; 
stroke-linecap:round; stroke-linejoin:round;fill:none"
d="M 64406.9,37176.6
64406.9,36898.2
64128.5,36898.2
64128.5,37176.6
Z" /> 
<path style="fill:#000000; fill-opacity:0.0; 
stroke:#000000; stroke-width:78.7402; stroke-opacity:1; 
stroke-linecap:round; stroke-linejoin:round;fill:none"
d="M 64406.9,38176.6
64406.9,37898.2
64128.5,37898.2
64128.5,38176.6
Z" /> 
<path style="fill:#000000; fill-opacity:0.0; 
stroke:#000000; stroke-width:78.7402; stroke-opacity:1; 
stroke-linecap:round; stroke-linejoin:round;fill:none"
d="M 64406.9,39176.6
64406.9,38898.2
64128.5,38898.2
64128.5,39176.6
Z" /> 
<path style="fill:#000000; fill-opacity:0.0; 
stroke:#000000; stroke-width:78.7402; stroke-opacity:1; 
stroke-linecap:round; stroke-linejoin:round;fill:none"
d="M 64406.9,40176.6
64406.9,39898.2
64128.5,39898.2
64128.5,40176.6
Z" /> 
<path style="fill:#000000; fill-opacity:0.0; 
stroke:#000000; stroke-width:78.7402; stroke-opacity:1; 
stroke-linecap:round; stroke-linejoin:round;fill:none"
d="M 64406.9,41176.6
64406.9,40898.2
64128.5,40898.2
64128.5,41176.6
Z" /> 
<path style="fill:#000000; fill-opacity:0.0; 
stroke:#000000; stroke-width:78.7402; stroke-opacity:1; 
stroke-linecap:round; stroke-linejoin:round;fill:none"
d="M 64406.9,42176.6
64406.9,41898.2
64128.5,41898.2
64128.5,42176.6
Z" /> 
<path style="fill:#000000; fill-opacity:0.0; 
stroke:#000000; stroke-width:78.7402; stroke-opacity:1; 
stroke-linecap:round; stroke-linejoin:round;fill:none"
d="M 64406.9,43176.6
64406.9,42898.2
64128.5,42898.2
64128.5,43176.6
Z" /> 
<path style="fill:#000000; fill-opacity:0.0; 
stroke:#000000; stroke-width:78.7402; stroke-opacity:1; 
stroke-linecap:round; stroke-linejoin:round;fill:none"
d="M 64406.9,44176.6
64406.9,43898.2
64128.5,43898.2
64128.5,44176.6
Z" /> 
<path style="fill:#000000; fill-opacity:0.0; 
stroke:#000000; stroke-width:78.7402; stroke-opacity:1; 
stroke-linecap:round; stroke-linejoin:round;fill:none"
d="M 64406.9,45176.6
64406.9,44898.2
64128.5,44898.2
64128.5,45176.6
Z" /> 
<path style="fill:#000000; fill-opacity:0.0; 
stroke:#000000; stroke-width:78.7402; stroke-opacity:1; 
stroke-linecap:round; stroke-linejoin:round;fill:none"
d="M 64406.9,46176.6
64406.9,45898.2
64128.5,45898.2
64128.5,46176.6
Z" /> 
<path style="fill:#000000; fill-opacity:0.0; 
stroke:#000000; stroke-width:78.7402; stroke-opacity:1; 
stroke-linecap:round; stroke-linejoin:round;fill:none"
d="M 64406.9,47176.6
64406.9,46898.2
64128.5,46898.2
64128.5,47176.6
Z" /> 
<path style="fill:#000000; fill-opacity:0.0; 
stroke:#000000; stroke-width:78.7402; stroke-opacity:1; 
stroke-linecap:round; stroke-linejoin:round;fill:none"
d="M 64406.9,48176.6
64406.9,47898.2
64128.5,47898.2
64128.5,48176.6
Z" /> 
<path style="fill:#000000; fill-opacity:0.0; 
stroke:#000000; stroke-width:78.7402; stroke-opacity:1; 
stroke-linecap:round; stroke-linejoin:round;fill:none"
d="M 61886.8,50197.1
62182,49901.8
61886.8,49606.5
61591.5,49901.8
Z" /> 
<path style="fill:#000000; fill-opacity:0.0; 
stroke:#000000; stroke-width:78.7402; stroke-opacity:1; 
stroke-linecap:round; stroke-linejoin:round;fill:none"
d="M 61886.8,52953
62182,52657.7
61886.8,52362.4
61591.5,52657.7
Z" /> 
<path style="fill:#000000; fill-opacity:0.0; 
stroke:#000000; stroke-width:78.7402; stroke-opacity:1; 
stroke-linecap:round; stroke-linejoin:round;fill:none"
d="M 64028.5,50197.1
64323.8,49901.8
64028.5,49606.5
63733.2,49901.8
Z" /> 
<path style="fill:#000000; fill-opacity:0.0; 
stroke:#000000; stroke-width:78.7402; stroke-opacity:1; 
stroke-linecap:round; stroke-linejoin:round;fill:none"
d="M 64028.5,52953
64323.8,52657.7
64028.5,52362.4
63733.2,52657.7
Z" /> 
</g>
<g style="fill:#000000; fill-opacity:0.0; 
stroke:#000000; stroke-width:118.11; stroke-opacity:1; 
stroke-linecap:round; stroke-linejoin:round;">
<text x="54694.9" y="55250"
textLength="8737.72" font-size="1574.8" lengthAdjust="spacingAndGlyphs"
text-anchor="start" opacity="0">Drill Map:</text>
<path d="M55035 55193
L55035 54012
L55316 54012
L55485 54068
L55597 54181
L55653 54293
L55710 54518
L55710 54687
L55653 54912
L55597 55025
L55485 55137
L55316 55193
L55035 55193
" />
<path d="M56216 55193
L56216 54406
" />
<path d="M56216 54631
L56272 54518
L56328 54462
L56441 54406
L56553 54406
" />
<path d="M56947 55193
L56947 54406
" />
<path d="M56947 54012
L56891 54068
L56947 54125
L57003 54068
L56947 54012
L56947 54125
" />
<path d="M57678 55193
L57566 55137
L57509 55025
L57509 54012
" />
<path d="M58297 55193
L58184 55137
L58128 55025
L58128 54012
" />
<path d="M59647 55193
L59647 54012
L60040 54856
L60434 54012
L60434 55193
" />
<path d="M61503 55193
L61503 54575
L61446 54462
L61334 54406
L61109 54406
L60996 54462
" />
<path d="M61503 55137
L61390 55193
L61109 55193
L60996 55137
L60940 55025
L60940 54912
L60996 54800
L61109 54743
L61390 54743
L61503 54687
" />
<path d="M62065 54406
L62065 55587
" />
<path d="M62065 54462
L62178 54406
L62402 54406
L62515 54462
L62571 54518
L62627 54631
L62627 54968
L62571 55081
L62515 55137
L62402 55193
L62178 55193
L62065 55137
" />
<path d="M63134 55081
L63190 55137
L63134 55193
L63077 55137
L63134 55081
L63134 55193
" />
<path d="M63134 54462
L63190 54518
L63134 54575
L63077 54518
L63134 54462
L63134 54575
" />
<path d="M53749 57061
L53907 57218
" />
<path d="M53907 57061
L53749 57218
" />
<text x="54694.9" y="57730.3"
textLength="26552.3" font-size="1574.8" lengthAdjust="spacingAndGlyphs"
text-anchor="start" opacity="0">0.40mm / 0.016" (78 holes)</text>
<path d="M55260 56492
L55372 56492
L55485 56549
L55541 56605
L55597 56717
L55653 56942
L55653 57224
L55597 57449
L55541 57561
L55485 57617
L55372 57674
L55260 57674
L55147 57617
L55091 57561
L55035 57449
L54978 57224
L54978 56942
L55035 56717
L55091 56605
L55147 56549
L55260 56492
" />
<path d="M56160 57561
L56216 57617
L56160 57674
L56103 57617
L56160 57561
L56160 57674
" />
<path d="M57228 56886
L57228 57674
" />
<path d="M56947 56436
L56666 57280
L57397 57280
" />
<path d="M58072 56492
L58184 56492
L58297 56549
L58353 56605
L58409 56717
L58465 56942
L58465 57224
L58409 57449
L58353 57561
L58297 57617
L58184 57674
L58072 57674
L57959 57617
L57903 57561
L57847 57449
L57791 57224
L57791 56942
L57847 56717
L57903 56605
L57959 56549
L58072 56492
" />
<path d="M58972 57674
L58972 56886
" />
<path d="M58972 56999
L59028 56942
L59140 56886
L59309 56886
L59422 56942
L59478 57055
L59478 57674
" />
<path d="M59478 57055
L59534 56942
L59647 56886
L59815 56886
L59928 56942
L59984 57055
L59984 57674
" />
<path d="M60546 57674
L60546 56886
" />
<path d="M60546 56999
L60603 56942
L60715 56886
L60884 56886
L60996 56942
L61053 57055
L61053 57674
" />
<path d="M61053 57055
L61109 56942
L61221 56886
L61390 56886
L61503 56942
L61559 57055
L61559 57674
" />
<path d="M63865 56436
L62852 57955
" />
<path d="M65383 56492
L65496 56492
L65608 56549
L65665 56605
L65721 56717
L65777 56942
L65777 57224
L65721 57449
L65665 57561
L65608 57617
L65496 57674
L65383 57674
L65271 57617
L65215 57561
L65158 57449
L65102 57224
L65102 56942
L65158 56717
L65215 56605
L65271 56549
L65383 56492
" />
<path d="M66283 57561
L66339 57617
L66283 57674
L66227 57617
L66283 57561
L66283 57674
" />
<path d="M67071 56492
L67183 56492
L67296 56549
L67352 56605
L67408 56717
L67464 56942
L67464 57224
L67408 57449
L67352 57561
L67296 57617
L67183 57674
L67071 57674
L66958 57617
L66902 57561
L66846 57449
L66789 57224
L66789 56942
L66846 56717
L66902 56605
L66958 56549
L67071 56492
" />
<path d="M68589 57674
L67914 57674
" />
<path d="M68252 57674
L68252 56492
L68139 56661
L68027 56774
L67914 56830
" />
<path d="M69602 56492
L69377 56492
L69264 56549
L69208 56605
L69095 56774
L69039 56999
L69039 57449
L69095 57561
L69152 57617
L69264 57674
L69489 57674
L69602 57617
L69658 57561
L69714 57449
L69714 57167
L69658 57055
L69602 56999
L69489 56942
L69264 56942
L69152 56999
L69095 57055
L69039 57167
" />
<path d="M70164 56492
L70164 56717
" />
<path d="M70614 56492
L70614 56717
" />
<path d="M72357 58124
L72301 58067
L72189 57899
L72133 57786
L72076 57617
L72020 57336
L72020 57111
L72076 56830
L72133 56661
L72189 56549
L72301 56380
L72357 56324
" />
<path d="M72695 56492
L73482 56492
L72976 57674
" />
<path d="M74101 56999
L73989 56942
L73932 56886
L73876 56774
L73876 56717
L73932 56605
L73989 56549
L74101 56492
L74326 56492
L74438 56549
L74495 56605
L74551 56717
L74551 56774
L74495 56886
L74438 56942
L74326 56999
L74101 56999
L73989 57055
L73932 57111
L73876 57224
L73876 57449
L73932 57561
L73989 57617
L74101 57674
L74326 57674
L74438 57617
L74495 57561
L74551 57449
L74551 57224
L74495 57111
L74438 57055
L74326 56999
" />
<path d="M75957 57674
L75957 56492
" />
<path d="M76463 57674
L76463 57055
L76407 56942
L76294 56886
L76126 56886
L76013 56942
L75957 56999
" />
<path d="M77194 57674
L77082 57617
L77026 57561
L76969 57449
L76969 57111
L77026 56999
L77082 56942
L77194 56886
L77363 56886
L77476 56942
L77532 56999
L77588 57111
L77588 57449
L77532 57561
L77476 57617
L77363 57674
L77194 57674
" />
<path d="M78263 57674
L78151 57617
L78094 57505
L78094 56492
" />
<path d="M79163 57617
L79050 57674
L78825 57674
L78713 57617
L78657 57505
L78657 57055
L78713 56942
L78825 56886
L79050 56886
L79163 56942
L79219 57055
L79219 57167
L78657 57280
" />
<path d="M79669 57617
L79782 57674
L80007 57674
L80119 57617
L80175 57505
L80175 57449
L80119 57336
L80007 57280
L79838 57280
L79725 57224
L79669 57111
L79669 57055
L79725 56942
L79838 56886
L80007 56886
L80119 56942
" />
<path d="M80569 58124
L80625 58067
L80738 57899
L80794 57786
L80850 57617
L80906 57336
L80906 57111
L80850 56830
L80794 56661
L80738 56549
L80625 56380
L80569 56324
" />
<circle cx="53779.5" cy="58698.8" r="127.953" /> 
<text x="54694.9" y="59289.4"
textLength="34988.8" font-size="1574.8" lengthAdjust="spacingAndGlyphs"
text-anchor="start" opacity="0">0.65mm / 0.026" (0 holes + 4 slots)</text>
<path d="M55260 58052
L55372 58052
L55485 58108
L55541 58164
L55597 58276
L55653 58501
L55653 58783
L55597 59008
L55541 59120
L55485 59176
L55372 59233
L55260 59233
L55147 59176
L55091 59120
L55035 59008
L54978 58783
L54978 58501
L55035 58276
L55091 58164
L55147 58108
L55260 58052
" />
<path d="M56160 59120
L56216 59176
L56160 59233
L56103 59176
L56160 59120
L56160 59233
" />
<path d="M57228 58052
L57003 58052
L56891 58108
L56834 58164
L56722 58333
L56666 58558
L56666 59008
L56722 59120
L56778 59176
L56891 59233
L57116 59233
L57228 59176
L57284 59120
L57341 59008
L57341 58726
L57284 58614
L57228 58558
L57116 58501
L56891 58501
L56778 58558
L56722 58614
L56666 58726
" />
<path d="M58409 58052
L57847 58052
L57791 58614
L57847 58558
L57959 58501
L58241 58501
L58353 58558
L58409 58614
L58465 58726
L58465 59008
L58409 59120
L58353 59176
L58241 59233
L57959 59233
L57847 59176
L57791 59120
" />
<path d="M58972 59233
L58972 58445
" />
<path d="M58972 58558
L59028 58501
L59140 58445
L59309 58445
L59422 58501
L59478 58614
L59478 59233
" />
<path d="M59478 58614
L59534 58501
L59647 58445
L59815 58445
L59928 58501
L59984 58614
L59984 59233
" />
<path d="M60546 59233
L60546 58445
" />
<path d="M60546 58558
L60603 58501
L60715 58445
L60884 58445
L60996 58501
L61053 58614
L61053 59233
" />
<path d="M61053 58614
L61109 58501
L61221 58445
L61390 58445
L61503 58501
L61559 58614
L61559 59233
" />
<path d="M63865 57995
L62852 59514
" />
<path d="M65383 58052
L65496 58052
L65608 58108
L65665 58164
L65721 58276
L65777 58501
L65777 58783
L65721 59008
L65665 59120
L65608 59176
L65496 59233
L65383 59233
L65271 59176
L65215 59120
L65158 59008
L65102 58783
L65102 58501
L65158 58276
L65215 58164
L65271 58108
L65383 58052
" />
<path d="M66283 59120
L66339 59176
L66283 59233
L66227 59176
L66283 59120
L66283 59233
" />
<path d="M67071 58052
L67183 58052
L67296 58108
L67352 58164
L67408 58276
L67464 58501
L67464 58783
L67408 59008
L67352 59120
L67296 59176
L67183 59233
L67071 59233
L66958 59176
L66902 59120
L66846 59008
L66789 58783
L66789 58501
L66846 58276
L66902 58164
L66958 58108
L67071 58052
" />
<path d="M67914 58164
L67971 58108
L68083 58052
L68364 58052
L68477 58108
L68533 58164
L68589 58276
L68589 58389
L68533 58558
L67858 59233
L68589 59233
" />
<path d="M69602 58052
L69377 58052
L69264 58108
L69208 58164
L69095 58333
L69039 58558
L69039 59008
L69095 59120
L69152 59176
L69264 59233
L69489 59233
L69602 59176
L69658 59120
L69714 59008
L69714 58726
L69658 58614
L69602 58558
L69489 58501
L69264 58501
L69152 58558
L69095 58614
L69039 58726
" />
<path d="M70164 58052
L70164 58276
" />
<path d="M70614 58052
L70614 58276
" />
<path d="M72357 59683
L72301 59626
L72189 59458
L72133 59345
L72076 59176
L72020 58895
L72020 58670
L72076 58389
L72133 58220
L72189 58108
L72301 57939
L72357 57883
" />
<path d="M73032 58052
L73145 58052
L73257 58108
L73314 58164
L73370 58276
L73426 58501
L73426 58783
L73370 59008
L73314 59120
L73257 59176
L73145 59233
L73032 59233
L72920 59176
L72864 59120
L72807 59008
L72751 58783
L72751 58501
L72807 58276
L72864 58164
L72920 58108
L73032 58052
" />
<path d="M74832 59233
L74832 58052
" />
<path d="M75338 59233
L75338 58614
L75282 58501
L75170 58445
L75001 58445
L74888 58501
L74832 58558
" />
<path d="M76070 59233
L75957 59176
L75901 59120
L75845 59008
L75845 58670
L75901 58558
L75957 58501
L76070 58445
L76238 58445
L76351 58501
L76407 58558
L76463 58670
L76463 59008
L76407 59120
L76351 59176
L76238 59233
L76070 59233
" />
<path d="M77138 59233
L77026 59176
L76969 59064
L76969 58052
" />
<path d="M78038 59176
L77926 59233
L77701 59233
L77588 59176
L77532 59064
L77532 58614
L77588 58501
L77701 58445
L77926 58445
L78038 58501
L78094 58614
L78094 58726
L77532 58839
" />
<path d="M78544 59176
L78657 59233
L78882 59233
L78994 59176
L79050 59064
L79050 59008
L78994 58895
L78882 58839
L78713 58839
L78600 58783
L78544 58670
L78544 58614
L78600 58501
L78713 58445
L78882 58445
L78994 58501
" />
<path d="M80456 58783
L81356 58783
" />
<path d="M80906 59233
L80906 58333
" />
<path d="M83325 58445
L83325 59233
" />
<path d="M83044 57995
L82762 58839
L83494 58839
" />
<path d="M84787 59176
L84900 59233
L85125 59233
L85237 59176
L85293 59064
L85293 59008
L85237 58895
L85125 58839
L84956 58839
L84843 58783
L84787 58670
L84787 58614
L84843 58501
L84956 58445
L85125 58445
L85237 58501
" />
<path d="M85968 59233
L85856 59176
L85800 59064
L85800 58052
" />
<path d="M86587 59233
L86474 59176
L86418 59120
L86362 59008
L86362 58670
L86418 58558
L86474 58501
L86587 58445
L86756 58445
L86868 58501
L86924 58558
L86981 58670
L86981 59008
L86924 59120
L86868 59176
L86756 59233
L86587 59233
" />
<path d="M87318 58445
L87768 58445
" />
<path d="M87487 58052
L87487 59064
L87543 59176
L87656 59233
L87768 59233
" />
<path d="M88106 59176
L88218 59233
L88443 59233
L88555 59176
L88612 59064
L88612 59008
L88555 58895
L88443 58839
L88274 58839
L88162 58783
L88106 58670
L88106 58614
L88162 58501
L88274 58445
L88443 58445
L88555 58501
" />
<path d="M89005 59683
L89062 59626
L89174 59458
L89230 59345
L89287 59176
L89343 58895
L89343 58670
L89287 58389
L89230 58220
L89174 58108
L89062 57939
L89005 57883
" />
<path d="M53726 60076
L53726 60438
" />
<path d="M53545 60257
L53907 60257
" />
<text x="54694.9" y="60848.4"
textLength="25427.4" font-size="1574.8" lengthAdjust="spacingAndGlyphs"
text-anchor="start" opacity="0">0.92mm / 0.036" (4 holes)</text>
<path d="M55260 59611
L55372 59611
L55485 59667
L55541 59723
L55597 59836
L55653 60061
L55653 60342
L55597 60567
L55541 60679
L55485 60735
L55372 60792
L55260 60792
L55147 60735
L55091 60679
L55035 60567
L54978 60342
L54978 60061
L55035 59836
L55091 59723
L55147 59667
L55260 59611
" />
<path d="M56160 60679
L56216 60735
L56160 60792
L56103 60735
L56160 60679
L56160 60792
" />
<path d="M56778 60792
L57003 60792
L57116 60735
L57172 60679
L57284 60510
L57341 60285
L57341 59836
L57284 59723
L57228 59667
L57116 59611
L56891 59611
L56778 59667
L56722 59723
L56666 59836
L56666 60117
L56722 60229
L56778 60285
L56891 60342
L57116 60342
L57228 60285
L57284 60229
L57341 60117
" />
<path d="M57791 59723
L57847 59667
L57959 59611
L58241 59611
L58353 59667
L58409 59723
L58465 59836
L58465 59948
L58409 60117
L57734 60792
L58465 60792
" />
<path d="M58972 60792
L58972 60004
" />
<path d="M58972 60117
L59028 60061
L59140 60004
L59309 60004
L59422 60061
L59478 60173
L59478 60792
" />
<path d="M59478 60173
L59534 60061
L59647 60004
L59815 60004
L59928 60061
L59984 60173
L59984 60792
" />
<path d="M60546 60792
L60546 60004
" />
<path d="M60546 60117
L60603 60061
L60715 60004
L60884 60004
L60996 60061
L61053 60173
L61053 60792
" />
<path d="M61053 60173
L61109 60061
L61221 60004
L61390 60004
L61503 60061
L61559 60173
L61559 60792
" />
<path d="M63865 59554
L62852 61073
" />
<path d="M65383 59611
L65496 59611
L65608 59667
L65665 59723
L65721 59836
L65777 60061
L65777 60342
L65721 60567
L65665 60679
L65608 60735
L65496 60792
L65383 60792
L65271 60735
L65215 60679
L65158 60567
L65102 60342
L65102 60061
L65158 59836
L65215 59723
L65271 59667
L65383 59611
" />
<path d="M66283 60679
L66339 60735
L66283 60792
L66227 60735
L66283 60679
L66283 60792
" />
<path d="M67071 59611
L67183 59611
L67296 59667
L67352 59723
L67408 59836
L67464 60061
L67464 60342
L67408 60567
L67352 60679
L67296 60735
L67183 60792
L67071 60792
L66958 60735
L66902 60679
L66846 60567
L66789 60342
L66789 60061
L66846 59836
L66902 59723
L66958 59667
L67071 59611
" />
<path d="M67858 59611
L68589 59611
L68196 60061
L68364 60061
L68477 60117
L68533 60173
L68589 60285
L68589 60567
L68533 60679
L68477 60735
L68364 60792
L68027 60792
L67914 60735
L67858 60679
" />
<path d="M69602 59611
L69377 59611
L69264 59667
L69208 59723
L69095 59892
L69039 60117
L69039 60567
L69095 60679
L69152 60735
L69264 60792
L69489 60792
L69602 60735
L69658 60679
L69714 60567
L69714 60285
L69658 60173
L69602 60117
L69489 60061
L69264 60061
L69152 60117
L69095 60173
L69039 60285
" />
<path d="M70164 59611
L70164 59836
" />
<path d="M70614 59611
L70614 59836
" />
<path d="M72357 61242
L72301 61185
L72189 61017
L72133 60904
L72076 60735
L72020 60454
L72020 60229
L72076 59948
L72133 59779
L72189 59667
L72301 59498
L72357 59442
" />
<path d="M73314 60004
L73314 60792
" />
<path d="M73032 59554
L72751 60398
L73482 60398
" />
<path d="M74832 60792
L74832 59611
" />
<path d="M75338 60792
L75338 60173
L75282 60061
L75170 60004
L75001 60004
L74888 60061
L74832 60117
" />
<path d="M76070 60792
L75957 60735
L75901 60679
L75845 60567
L75845 60229
L75901 60117
L75957 60061
L76070 60004
L76238 60004
L76351 60061
L76407 60117
L76463 60229
L76463 60567
L76407 60679
L76351 60735
L76238 60792
L76070 60792
" />
<path d="M77138 60792
L77026 60735
L76969 60623
L76969 59611
" />
<path d="M78038 60735
L77926 60792
L77701 60792
L77588 60735
L77532 60623
L77532 60173
L77588 60061
L77701 60004
L77926 60004
L78038 60061
L78094 60173
L78094 60285
L77532 60398
" />
<path d="M78544 60735
L78657 60792
L78882 60792
L78994 60735
L79050 60623
L79050 60567
L78994 60454
L78882 60398
L78713 60398
L78600 60342
L78544 60229
L78544 60173
L78600 60061
L78713 60004
L78882 60004
L78994 60061
" />
<path d="M79444 61242
L79500 61185
L79613 61017
L79669 60904
L79725 60735
L79782 60454
L79782 60229
L79725 59948
L79669 59779
L79613 59667
L79500 59498
L79444 59442
" />
<path style="fill:#000000; fill-opacity:0.0; 
stroke:#000000; stroke-width:118.11; stroke-opacity:1; 
stroke-linecap:round; stroke-linejoin:round;fill:none"
d="M 53849.8,61956.1
53849.8,61677.7
53571.4,61677.7
53571.4,61956.1
Z" /> 
<text x="54694.9" y="62407.5"
textLength="26552.3" font-size="1574.8" lengthAdjust="spacingAndGlyphs"
text-anchor="start" opacity="0">1.00mm / 0.039" (40 holes)</text>
<path d="M55653 62351
L54978 62351
" />
<path d="M55316 62351
L55316 61170
L55203 61338
L55091 61451
L54978 61507
" />
<path d="M56160 62238
L56216 62294
L56160 62351
L56103 62294
L56160 62238
L56160 62351
" />
<path d="M56947 61170
L57059 61170
L57172 61226
L57228 61282
L57284 61395
L57341 61620
L57341 61901
L57284 62126
L57228 62238
L57172 62294
L57059 62351
L56947 62351
L56834 62294
L56778 62238
L56722 62126
L56666 61901
L56666 61620
L56722 61395
L56778 61282
L56834 61226
L56947 61170
" />
<path d="M58072 61170
L58184 61170
L58297 61226
L58353 61282
L58409 61395
L58465 61620
L58465 61901
L58409 62126
L58353 62238
L58297 62294
L58184 62351
L58072 62351
L57959 62294
L57903 62238
L57847 62126
L57791 61901
L57791 61620
L57847 61395
L57903 61282
L57959 61226
L58072 61170
" />
<path d="M58972 62351
L58972 61563
" />
<path d="M58972 61676
L59028 61620
L59140 61563
L59309 61563
L59422 61620
L59478 61732
L59478 62351
" />
<path d="M59478 61732
L59534 61620
L59647 61563
L59815 61563
L59928 61620
L59984 61732
L59984 62351
" />
<path d="M60546 62351
L60546 61563
" />
<path d="M60546 61676
L60603 61620
L60715 61563
L60884 61563
L60996 61620
L61053 61732
L61053 62351
" />
<path d="M61053 61732
L61109 61620
L61221 61563
L61390 61563
L61503 61620
L61559 61732
L61559 62351
" />
<path d="M63865 61113
L62852 62632
" />
<path d="M65383 61170
L65496 61170
L65608 61226
L65665 61282
L65721 61395
L65777 61620
L65777 61901
L65721 62126
L65665 62238
L65608 62294
L65496 62351
L65383 62351
L65271 62294
L65215 62238
L65158 62126
L65102 61901
L65102 61620
L65158 61395
L65215 61282
L65271 61226
L65383 61170
" />
<path d="M66283 62238
L66339 62294
L66283 62351
L66227 62294
L66283 62238
L66283 62351
" />
<path d="M67071 61170
L67183 61170
L67296 61226
L67352 61282
L67408 61395
L67464 61620
L67464 61901
L67408 62126
L67352 62238
L67296 62294
L67183 62351
L67071 62351
L66958 62294
L66902 62238
L66846 62126
L66789 61901
L66789 61620
L66846 61395
L66902 61282
L66958 61226
L67071 61170
" />
<path d="M67858 61170
L68589 61170
L68196 61620
L68364 61620
L68477 61676
L68533 61732
L68589 61845
L68589 62126
L68533 62238
L68477 62294
L68364 62351
L68027 62351
L67914 62294
L67858 62238
" />
<path d="M69152 62351
L69377 62351
L69489 62294
L69545 62238
L69658 62070
L69714 61845
L69714 61395
L69658 61282
L69602 61226
L69489 61170
L69264 61170
L69152 61226
L69095 61282
L69039 61395
L69039 61676
L69095 61788
L69152 61845
L69264 61901
L69489 61901
L69602 61845
L69658 61788
L69714 61676
" />
<path d="M70164 61170
L70164 61395
" />
<path d="M70614 61170
L70614 61395
" />
<path d="M72357 62801
L72301 62744
L72189 62576
L72133 62463
L72076 62294
L72020 62013
L72020 61788
L72076 61507
L72133 61338
L72189 61226
L72301 61057
L72357 61001
" />
<path d="M73314 61563
L73314 62351
" />
<path d="M73032 61113
L72751 61957
L73482 61957
" />
<path d="M74157 61170
L74270 61170
L74382 61226
L74438 61282
L74495 61395
L74551 61620
L74551 61901
L74495 62126
L74438 62238
L74382 62294
L74270 62351
L74157 62351
L74045 62294
L73989 62238
L73932 62126
L73876 61901
L73876 61620
L73932 61395
L73989 61282
L74045 61226
L74157 61170
" />
<path d="M75957 62351
L75957 61170
" />
<path d="M76463 62351
L76463 61732
L76407 61620
L76294 61563
L76126 61563
L76013 61620
L75957 61676
" />
<path d="M77194 62351
L77082 62294
L77026 62238
L76969 62126
L76969 61788
L77026 61676
L77082 61620
L77194 61563
L77363 61563
L77476 61620
L77532 61676
L77588 61788
L77588 62126
L77532 62238
L77476 62294
L77363 62351
L77194 62351
" />
<path d="M78263 62351
L78151 62294
L78094 62182
L78094 61170
" />
<path d="M79163 62294
L79050 62351
L78825 62351
L78713 62294
L78657 62182
L78657 61732
L78713 61620
L78825 61563
L79050 61563
L79163 61620
L79219 61732
L79219 61845
L78657 61957
" />
<path d="M79669 62294
L79782 62351
L80007 62351
L80119 62294
L80175 62182
L80175 62126
L80119 62013
L80007 61957
L79838 61957
L79725 61901
L79669 61788
L79669 61732
L79725 61620
L79838 61563
L80007 61563
L80119 61620
" />
<path d="M80569 62801
L80625 62744
L80738 62576
L80794 62463
L80850 62294
L80906 62013
L80906 61788
L80850 61507
L80794 61338
L80738 61226
L80625 61057
L80569 61001
" />
<path style="fill:#000000; fill-opacity:0.0; 
stroke:#000000; stroke-width:118.11; stroke-opacity:1; 
stroke-linecap:round; stroke-linejoin:round;fill:none"
d="M 53612.2,63671.3
53907.5,63376
53612.2,63080.7
53316.9,63376
Z" /> 
<text x="54694.9" y="63966.5"
textLength="25427.4" font-size="1574.8" lengthAdjust="spacingAndGlyphs"
text-anchor="start" opacity="0">1.50mm / 0.059" (4 holes)</text>
<path d="M55653 63910
L54978 63910
" />
<path d="M55316 63910
L55316 62729
L55203 62897
L55091 63010
L54978 63066
" />
<path d="M56160 63797
L56216 63854
L56160 63910
L56103 63854
L56160 63797
L56160 63910
" />
<path d="M57284 62729
L56722 62729
L56666 63291
L56722 63235
L56834 63179
L57116 63179
L57228 63235
L57284 63291
L57341 63404
L57341 63685
L57284 63797
L57228 63854
L57116 63910
L56834 63910
L56722 63854
L56666 63797
" />
<path d="M58072 62729
L58184 62729
L58297 62785
L58353 62841
L58409 62954
L58465 63179
L58465 63460
L58409 63685
L58353 63797
L58297 63854
L58184 63910
L58072 63910
L57959 63854
L57903 63797
L57847 63685
L57791 63460
L57791 63179
L57847 62954
L57903 62841
L57959 62785
L58072 62729
" />
<path d="M58972 63910
L58972 63122
" />
<path d="M58972 63235
L59028 63179
L59140 63122
L59309 63122
L59422 63179
L59478 63291
L59478 63910
" />
<path d="M59478 63291
L59534 63179
L59647 63122
L59815 63122
L59928 63179
L59984 63291
L59984 63910
" />
<path d="M60546 63910
L60546 63122
" />
<path d="M60546 63235
L60603 63179
L60715 63122
L60884 63122
L60996 63179
L61053 63291
L61053 63910
" />
<path d="M61053 63291
L61109 63179
L61221 63122
L61390 63122
L61503 63179
L61559 63291
L61559 63910
" />
<path d="M63865 62672
L62852 64191
" />
<path d="M65383 62729
L65496 62729
L65608 62785
L65665 62841
L65721 62954
L65777 63179
L65777 63460
L65721 63685
L65665 63797
L65608 63854
L65496 63910
L65383 63910
L65271 63854
L65215 63797
L65158 63685
L65102 63460
L65102 63179
L65158 62954
L65215 62841
L65271 62785
L65383 62729
" />
<path d="M66283 63797
L66339 63854
L66283 63910
L66227 63854
L66283 63797
L66283 63910
" />
<path d="M67071 62729
L67183 62729
L67296 62785
L67352 62841
L67408 62954
L67464 63179
L67464 63460
L67408 63685
L67352 63797
L67296 63854
L67183 63910
L67071 63910
L66958 63854
L66902 63797
L66846 63685
L66789 63460
L66789 63179
L66846 62954
L66902 62841
L66958 62785
L67071 62729
" />
<path d="M68533 62729
L67971 62729
L67914 63291
L67971 63235
L68083 63179
L68364 63179
L68477 63235
L68533 63291
L68589 63404
L68589 63685
L68533 63797
L68477 63854
L68364 63910
L68083 63910
L67971 63854
L67914 63797
" />
<path d="M69152 63910
L69377 63910
L69489 63854
L69545 63797
L69658 63629
L69714 63404
L69714 62954
L69658 62841
L69602 62785
L69489 62729
L69264 62729
L69152 62785
L69095 62841
L69039 62954
L69039 63235
L69095 63347
L69152 63404
L69264 63460
L69489 63460
L69602 63404
L69658 63347
L69714 63235
" />
<path d="M70164 62729
L70164 62954
" />
<path d="M70614 62729
L70614 62954
" />
<path d="M72357 64360
L72301 64303
L72189 64135
L72133 64022
L72076 63854
L72020 63572
L72020 63347
L72076 63066
L72133 62897
L72189 62785
L72301 62616
L72357 62560
" />
<path d="M73314 63122
L73314 63910
" />
<path d="M73032 62672
L72751 63516
L73482 63516
" />
<path d="M74832 63910
L74832 62729
" />
<path d="M75338 63910
L75338 63291
L75282 63179
L75170 63122
L75001 63122
L74888 63179
L74832 63235
" />
<path d="M76070 63910
L75957 63854
L75901 63797
L75845 63685
L75845 63347
L75901 63235
L75957 63179
L76070 63122
L76238 63122
L76351 63179
L76407 63235
L76463 63347
L76463 63685
L76407 63797
L76351 63854
L76238 63910
L76070 63910
" />
<path d="M77138 63910
L77026 63854
L76969 63741
L76969 62729
" />
<path d="M78038 63854
L77926 63910
L77701 63910
L77588 63854
L77532 63741
L77532 63291
L77588 63179
L77701 63122
L77926 63122
L78038 63179
L78094 63291
L78094 63404
L77532 63516
" />
<path d="M78544 63854
L78657 63910
L78882 63910
L78994 63854
L79050 63741
L79050 63685
L78994 63572
L78882 63516
L78713 63516
L78600 63460
L78544 63347
L78544 63291
L78600 63179
L78713 63122
L78882 63122
L78994 63179
" />
<path d="M79444 64360
L79500 64303
L79613 64135
L79669 64022
L79725 63854
L79782 63572
L79782 63347
L79725 63066
L79669 62897
L79613 62785
L79500 62616
L79444 62560
" />
</g> 
</svg>
