<?xml version="1.0" standalone="no"?>
 <!DOCTYPE svg PUBLIC "-//W3C//DTD SVG 1.1//EN" 
 "http://www.w3.org/Graphics/SVG/1.1/DTD/svg11.dtd"> 
<svg xmlns="http://www.w3.org/2000/svg" version="1.1" 
    width="29.7002cm" height="21.0007cm" viewBox="0 0 116930 82680 ">
<title>SVG Picture created as ESP32-S2-F_SilkS.svg date 2021/06/10 16:34:16 </title>
  <desc>Picture generated by PCBNEW </desc>
<g style="fill:#000000; fill-opacity:1;stroke:#000000; stroke-opacity:1;
stroke-linecap:round; stroke-linejoin:round; "
 transform="translate(0 0) scale(1 1)">
</g>
<g style="fill:#000000; fill-opacity:0.0; 
stroke:#000000; stroke-width:-0.000393701; stroke-opacity:1; 
stroke-linecap:round; stroke-linejoin:round;">
</g>
<g style="fill:#000000; fill-opacity:0.0; 
stroke:#000000; stroke-width:39.3701; stroke-opacity:1; 
stroke-linecap:round; stroke-linejoin:round;">
<g transform="rotate(-90 58667.6 48560.3)">
<text x="58667.6" y="48658.7"
textLength="320.02" font-size="262.467" lengthAdjust="spacingAndGlyphs"
text-anchor="middle" opacity="0">+</text>
</g>
<path d="M58681 48635
L58681 48485
" />
<path d="M58756 48560
L58606 48560
" />
</g>
<g style="fill:#000000; fill-opacity:0.0; 
stroke:#000000; stroke-width:59.0551; stroke-opacity:1; 
stroke-linecap:round; stroke-linejoin:round;">
<g transform="rotate(90 55237.6 33030.3)">
<text x="55237.6" y="33187.8"
textLength="313.648" font-size="367.454" lengthAdjust="spacingAndGlyphs"
text-anchor="middle" opacity="0">5</text>
</g>
<path d="M55410 33095
L55410 32964
L55260 32951
L55275 32964
L55290 32990
L55290 33056
L55275 33082
L55260 33095
L55230 33109
L55155 33109
L55125 33095
L55110 33082
L55095 33056
L55095 32990
L55110 32964
L55125 32951
" />
<g transform="rotate(-90 55767.6 38030.3)">
<text x="55767.6" y="38168.1"
textLength="369.235" font-size="314.961" lengthAdjust="spacingAndGlyphs"
text-anchor="middle" opacity="0">+</text>
</g>
<path d="M55787 38120
L55787 37940
" />
<path d="M55892 38030
L55682 38030
" />
<g transform="rotate(-270 55257.6 43970.3)">
<text x="55257.6" y="44127.8"
textLength="601.706" font-size="367.454" lengthAdjust="spacingAndGlyphs"
text-anchor="middle" opacity="0">16</text>
</g>
<path d="M55115 43917
L55115 43760
" />
<path d="M55115 43839
L55430 43839
L55385 43812
L55355 43786
L55340 43760
" />
<path d="M55430 44154
L55430 44101
L55415 44075
L55400 44062
L55355 44035
L55295 44022
L55175 44022
L55145 44035
L55130 44049
L55115 44075
L55115 44127
L55130 44154
L55145 44167
L55175 44180
L55250 44180
L55280 44167
L55295 44154
L55310 44127
L55310 44075
L55295 44049
L55280 44035
L55250 44022
" />
<g transform="rotate(-90 63507.6 48030.3)">
<text x="63507.6" y="48187.8"
textLength="444.226" font-size="367.454" lengthAdjust="spacingAndGlyphs"
text-anchor="middle" opacity="0">VI</text>
</g>
<path d="M63335 48187
L63650 48095
L63335 48004
" />
<path d="M63650 47912
L63335 47912
" />
<g transform="rotate(-90 63507.6 43030.3)">
<text x="63507.6" y="43187.8"
textLength="916.667" font-size="367.454" lengthAdjust="spacingAndGlyphs"
text-anchor="middle" opacity="0">GND</text>
</g>
<path d="M63350 43240
L63335 43266
L63335 43305
L63350 43345
L63380 43371
L63410 43384
L63470 43397
L63515 43397
L63575 43384
L63605 43371
L63635 43345
L63650 43305
L63650 43279
L63635 43240
L63620 43227
L63515 43227
L63515 43279
" />
<path d="M63650 43109
L63335 43109
L63650 42951
L63335 42951
" />
<path d="M63650 42820
L63335 42820
L63335 42754
L63350 42715
L63380 42689
L63410 42675
L63470 42662
L63515 42662
L63575 42675
L63605 42689
L63635 42715
L63650 42754
L63650 42820
" />
<g transform="rotate(-90 55777.6 38620.3)">
<text x="55777.6" y="38758.1"
textLength="819.179" font-size="314.961" lengthAdjust="spacingAndGlyphs"
text-anchor="middle" opacity="0">PWR</text>
</g>
<path d="M55902 38935
L55626 38935
L55626 38845
L55639 38822
L55652 38811
L55679 38800
L55718 38800
L55744 38811
L55757 38822
L55771 38845
L55771 38935
" />
<path d="M55626 38721
L55902 38665
L55705 38620
L55902 38575
L55626 38519
" />
<path d="M55902 38294
L55771 38372
" />
<path d="M55902 38429
L55626 38429
L55626 38339
L55639 38316
L55652 38305
L55679 38294
L55718 38294
L55744 38305
L55757 38316
L55771 38339
L55771 38429
" />
</g>
<g style="fill:#000000; fill-opacity:0.0; 
stroke:#000000; stroke-width:39.3701; stroke-opacity:1; 
stroke-linecap:round; stroke-linejoin:round;">
<g transform="rotate(-90 54137.6 45800.3)">
<text x="54137.6" y="45918.4"
textLength="537.964" font-size="314.961" lengthAdjust="spacingAndGlyphs"
text-anchor="middle" opacity="0">EN</text>
</g>
<path d="M54120 45974
L54120 45895
" />
<path d="M54244 45862
L54244 45974
L54008 45974
L54008 45862
" />
<path d="M54244 45760
L54008 45760
L54244 45625
L54008 45625
" />
<g transform="rotate(-90 54137.6 47580.3)">
<text x="54137.6" y="47698.4"
textLength="962.317" font-size="314.961" lengthAdjust="spacingAndGlyphs"
text-anchor="middle" opacity="0">BOOT</text>
</g>
<path d="M54120 47900
L54132 47867
L54143 47855
L54165 47844
L54199 47844
L54222 47855
L54233 47867
L54244 47889
L54244 47979
L54008 47979
L54008 47900
L54019 47878
L54030 47867
L54053 47855
L54075 47855
L54098 47867
L54109 47878
L54120 47900
L54120 47979
" />
<path d="M54008 47698
L54008 47653
L54019 47630
L54042 47608
L54087 47597
L54165 47597
L54210 47608
L54233 47630
L54244 47653
L54244 47698
L54233 47720
L54210 47743
L54165 47754
L54087 47754
L54042 47743
L54019 47720
L54008 47698
" />
<path d="M54008 47450
L54008 47405
L54019 47383
L54042 47360
L54087 47349
L54165 47349
L54210 47360
L54233 47383
L54244 47405
L54244 47450
L54233 47473
L54210 47495
L54165 47507
L54087 47507
L54042 47495
L54019 47473
L54008 47450
" />
<path d="M54008 47282
L54008 47147
" />
<path d="M54244 47214
L54008 47214
" />
</g>
<g style="fill:#000000; fill-opacity:0.0; 
stroke:#000000; stroke-width:59.0551; stroke-opacity:1; 
stroke-linecap:round; stroke-linejoin:round;">
<g transform="rotate(-90 63507.6 41990.3)">
<text x="63507.6" y="42147.8"
textLength="576.115" font-size="367.454" lengthAdjust="spacingAndGlyphs"
text-anchor="middle" opacity="0">16</text>
</g>
<path d="M63650 42042
L63650 42200
" />
<path d="M63650 42121
L63335 42121
L63380 42147
L63410 42174
L63425 42200
" />
<path d="M63335 41806
L63335 41859
L63350 41885
L63365 41898
L63410 41924
L63470 41937
L63590 41937
L63620 41924
L63635 41911
L63650 41885
L63650 41832
L63635 41806
L63620 41793
L63590 41780
L63515 41780
L63485 41793
L63470 41806
L63455 41832
L63455 41885
L63470 41911
L63485 41924
L63515 41937
" />
<g transform="rotate(-90 63484.3 46948.8)">
<text x="63484.3" y="47106.3"
textLength="601.706" font-size="367.454" lengthAdjust="spacingAndGlyphs"
text-anchor="middle" opacity="0">17</text>
</g>
<path d="M63626 47001
L63626 47158
" />
<path d="M63626 47080
L63311 47080
L63356 47106
L63386 47132
L63401 47158
" />
<path d="M63311 46909
L63311 46725
L63626 46843
" />
<g transform="rotate(-90 63484.3 45964.6)">
<text x="63484.3" y="46122"
textLength="601.706" font-size="367.454" lengthAdjust="spacingAndGlyphs"
text-anchor="middle" opacity="0">19</text>
</g>
<path d="M63626 46017
L63626 46174
" />
<path d="M63626 46095
L63311 46095
L63356 46122
L63386 46148
L63401 46174
" />
<path d="M63626 45885
L63626 45833
L63611 45807
L63596 45793
L63551 45767
L63491 45754
L63371 45754
L63341 45767
L63326 45780
L63311 45807
L63311 45859
L63326 45885
L63341 45898
L63371 45912
L63446 45912
L63476 45898
L63491 45885
L63506 45859
L63506 45807
L63491 45780
L63476 45767
L63446 45754
" />
<g transform="rotate(-90 63484.3 44980.3)">
<text x="63484.3" y="45137.8"
textLength="601.706" font-size="367.454" lengthAdjust="spacingAndGlyphs"
text-anchor="middle" opacity="0">20</text>
</g>
<path d="M63341 45190
L63326 45177
L63311 45150
L63311 45085
L63326 45059
L63341 45045
L63371 45032
L63401 45032
L63446 45045
L63626 45203
L63626 45032
" />
<path d="M63311 44862
L63311 44835
L63326 44809
L63341 44796
L63371 44783
L63431 44770
L63506 44770
L63566 44783
L63596 44796
L63611 44809
L63626 44835
L63626 44862
L63611 44888
L63596 44901
L63566 44914
L63506 44927
L63431 44927
L63371 44914
L63341 44901
L63326 44888
L63311 44862
" />
<g transform="rotate(-90 63484.3 43996.1)">
<text x="63484.3" y="44153.5"
textLength="601.706" font-size="367.454" lengthAdjust="spacingAndGlyphs"
text-anchor="middle" opacity="0">21</text>
</g>
<path d="M63341 44206
L63326 44192
L63311 44166
L63311 44101
L63326 44074
L63341 44061
L63371 44048
L63401 44048
L63446 44061
L63626 44219
L63626 44048
" />
<path d="M63626 43786
L63626 43943
" />
<path d="M63626 43864
L63311 43864
L63356 43891
L63386 43917
L63401 43943
" />
<g transform="rotate(-90 63484.3 40944.9)">
<text x="63484.3" y="41102.4"
textLength="601.706" font-size="367.454" lengthAdjust="spacingAndGlyphs"
text-anchor="middle" opacity="0">33</text>
</g>
<path d="M63311 41167
L63311 40997
L63431 41089
L63431 41049
L63446 41023
L63461 41010
L63491 40997
L63566 40997
L63596 41010
L63611 41023
L63626 41049
L63626 41128
L63611 41154
L63596 41167
" />
<path d="M63311 40905
L63311 40734
L63431 40826
L63431 40787
L63446 40761
L63461 40748
L63491 40734
L63566 40734
L63596 40748
L63611 40761
L63626 40787
L63626 40866
L63611 40892
L63596 40905
" />
<g transform="rotate(-90 63484.3 39960.6)">
<text x="63484.3" y="40118.1"
textLength="601.706" font-size="367.454" lengthAdjust="spacingAndGlyphs"
text-anchor="middle" opacity="0">34</text>
</g>
<path d="M63311 40183
L63311 40013
L63431 40104
L63431 40065
L63446 40039
L63461 40026
L63491 40013
L63566 40013
L63596 40026
L63611 40039
L63626 40065
L63626 40144
L63611 40170
L63596 40183
" />
<path d="M63416 39776
L63626 39776
" />
<path d="M63296 39842
L63521 39908
L63521 39737
" />
<g transform="rotate(-90 63484.3 38976.4)">
<text x="63484.3" y="39133.9"
textLength="601.706" font-size="367.454" lengthAdjust="spacingAndGlyphs"
text-anchor="middle" opacity="0">35</text>
</g>
<path d="M63311 39199
L63311 39028
L63431 39120
L63431 39081
L63446 39055
L63461 39041
L63491 39028
L63566 39028
L63596 39041
L63611 39055
L63626 39081
L63626 39160
L63611 39186
L63596 39199
" />
<path d="M63311 38779
L63311 38910
L63461 38923
L63446 38910
L63431 38884
L63431 38818
L63446 38792
L63461 38779
L63491 38766
L63566 38766
L63596 38779
L63611 38792
L63626 38818
L63626 38884
L63611 38910
L63596 38923
" />
<g transform="rotate(-90 63484.3 37992.1)">
<text x="63484.3" y="38149.6"
textLength="601.706" font-size="367.454" lengthAdjust="spacingAndGlyphs"
text-anchor="middle" opacity="0">36</text>
</g>
<path d="M63311 38215
L63311 38044
L63431 38136
L63431 38097
L63446 38070
L63461 38057
L63491 38044
L63566 38044
L63596 38057
L63611 38070
L63626 38097
L63626 38175
L63611 38202
L63596 38215
" />
<path d="M63311 37808
L63311 37860
L63326 37887
L63341 37900
L63386 37926
L63446 37939
L63566 37939
L63596 37926
L63611 37913
L63626 37887
L63626 37834
L63611 37808
L63596 37795
L63566 37782
L63491 37782
L63461 37795
L63446 37808
L63431 37834
L63431 37887
L63446 37913
L63461 37926
L63491 37939
" />
<g transform="rotate(-90 63484.3 37007.9)">
<text x="63484.3" y="37165.4"
textLength="601.706" font-size="367.454" lengthAdjust="spacingAndGlyphs"
text-anchor="middle" opacity="0">37</text>
</g>
<path d="M63311 37230
L63311 37060
L63431 37152
L63431 37112
L63446 37086
L63461 37073
L63491 37060
L63566 37060
L63596 37073
L63611 37086
L63626 37112
L63626 37191
L63611 37217
L63596 37230
" />
<path d="M63311 36968
L63311 36784
L63626 36902
" />
<g transform="rotate(-90 63484.3 36023.6)">
<text x="63484.3" y="36181.1"
textLength="601.706" font-size="367.454" lengthAdjust="spacingAndGlyphs"
text-anchor="middle" opacity="0">38</text>
</g>
<path d="M63311 36246
L63311 36076
L63431 36167
L63431 36128
L63446 36102
L63461 36089
L63491 36076
L63566 36076
L63596 36089
L63611 36102
L63626 36128
L63626 36207
L63611 36233
L63596 36246
" />
<path d="M63446 35918
L63431 35944
L63416 35958
L63386 35971
L63371 35971
L63341 35958
L63326 35944
L63311 35918
L63311 35866
L63326 35839
L63341 35826
L63371 35813
L63386 35813
L63416 35826
L63431 35839
L63446 35866
L63446 35918
L63461 35944
L63476 35958
L63506 35971
L63566 35971
L63596 35958
L63611 35944
L63626 35918
L63626 35866
L63611 35839
L63596 35826
L63566 35813
L63506 35813
L63476 35826
L63461 35839
L63446 35866
" />
<g transform="rotate(-90 63484.3 35039.4)">
<text x="63484.3" y="35196.9"
textLength="601.706" font-size="367.454" lengthAdjust="spacingAndGlyphs"
text-anchor="middle" opacity="0">39</text>
</g>
<path d="M63311 35262
L63311 35091
L63431 35183
L63431 35144
L63446 35118
L63461 35104
L63491 35091
L63566 35091
L63596 35104
L63611 35118
L63626 35144
L63626 35223
L63611 35249
L63596 35262
" />
<path d="M63626 34960
L63626 34908
L63611 34881
L63596 34868
L63551 34842
L63491 34829
L63371 34829
L63341 34842
L63326 34855
L63311 34881
L63311 34934
L63326 34960
L63341 34973
L63371 34986
L63446 34986
L63476 34973
L63491 34960
L63506 34934
L63506 34881
L63491 34855
L63476 34842
L63446 34829
" />
<g transform="rotate(-90 63484.3 34055.1)">
<text x="63484.3" y="34212.6"
textLength="837.926" font-size="367.454" lengthAdjust="spacingAndGlyphs"
text-anchor="middle" opacity="0">SCL</text>
</g>
<path d="M63611 34383
L63626 34343
L63626 34278
L63611 34251
L63596 34238
L63566 34225
L63536 34225
L63506 34238
L63491 34251
L63476 34278
L63461 34330
L63446 34356
L63431 34370
L63401 34383
L63371 34383
L63341 34370
L63326 34356
L63311 34330
L63311 34265
L63326 34225
" />
<path d="M63596 33950
L63611 33963
L63626 34002
L63626 34028
L63611 34068
L63581 34094
L63551 34107
L63491 34120
L63446 34120
L63386 34107
L63356 34094
L63326 34068
L63311 34028
L63311 34002
L63326 33963
L63341 33950
" />
<path d="M63626 33700
L63626 33832
L63311 33832
" />
<g transform="rotate(-90 63484.3 32972.4)">
<text x="63484.3" y="33129.9"
textLength="851.05" font-size="367.454" lengthAdjust="spacingAndGlyphs"
text-anchor="middle" opacity="0">SDA</text>
</g>
<path d="M63611 33307
L63626 33267
L63626 33202
L63611 33175
L63596 33162
L63566 33149
L63536 33149
L63506 33162
L63491 33175
L63476 33202
L63461 33254
L63446 33280
L63431 33293
L63401 33307
L63371 33307
L63341 33293
L63326 33280
L63311 33254
L63311 33188
L63326 33149
" />
<path d="M63626 33031
L63311 33031
L63311 32965
L63326 32926
L63356 32900
L63386 32887
L63446 32874
L63491 32874
L63551 32887
L63581 32900
L63611 32926
L63626 32965
L63626 33031
" />
<path d="M63536 32769
L63536 32637
" />
<path d="M63626 32795
L63311 32703
L63626 32611
" />
<g transform="rotate(-90 63484.3 31988.2)">
<text x="63484.3" y="32145.7"
textLength="601.706" font-size="367.454" lengthAdjust="spacingAndGlyphs"
text-anchor="middle" opacity="0">42</text>
</g>
<path d="M63416 32066
L63626 32066
" />
<path d="M63296 32132
L63521 32198
L63521 32027
" />
<path d="M63341 31935
L63326 31922
L63311 31896
L63311 31830
L63326 31804
L63341 31791
L63371 31778
L63401 31778
L63446 31791
L63626 31948
L63626 31778
" />
<g transform="rotate(-90 63484.3 31003.9)">
<text x="63484.3" y="31161.4"
textLength="824.803" font-size="367.454" lengthAdjust="spacingAndGlyphs"
text-anchor="middle" opacity="0">TXD</text>
</g>
<path d="M63311 31351
L63311 31194
" />
<path d="M63626 31272
L63311 31272
" />
<path d="M63311 31128
L63626 30944
" />
<path d="M63311 30944
L63626 31128
" />
<path d="M63626 30839
L63311 30839
L63311 30774
L63326 30734
L63356 30708
L63386 30695
L63446 30682
L63491 30682
L63551 30695
L63581 30708
L63611 30734
L63626 30774
L63626 30839
" />
<g transform="rotate(-90 63484.3 29921.3)">
<text x="63484.3" y="30078.7"
textLength="890.42" font-size="367.454" lengthAdjust="spacingAndGlyphs"
text-anchor="middle" opacity="0">RXD</text>
</g>
<path d="M63626 30104
L63476 30196
" />
<path d="M63626 30262
L63311 30262
L63311 30157
L63326 30131
L63341 30118
L63371 30104
L63416 30104
L63446 30118
L63461 30131
L63476 30157
L63476 30262
" />
<path d="M63311 30013
L63626 29829
" />
<path d="M63311 29829
L63626 30013
" />
<path d="M63626 29724
L63311 29724
L63311 29658
L63326 29619
L63356 29593
L63386 29580
L63446 29566
L63491 29566
L63551 29580
L63581 29593
L63611 29619
L63626 29658
L63626 29724
" />
<g transform="rotate(-90 63484.3 28937)">
<text x="63484.3" y="29094.5"
textLength="601.706" font-size="367.454" lengthAdjust="spacingAndGlyphs"
text-anchor="middle" opacity="0">45</text>
</g>
<path d="M63416 29015
L63626 29015
" />
<path d="M63296 29081
L63521 29146
L63521 28976
" />
<path d="M63311 28740
L63311 28871
L63461 28884
L63446 28871
L63431 28845
L63431 28779
L63446 28753
L63461 28740
L63491 28727
L63566 28727
L63596 28740
L63611 28753
L63626 28779
L63626 28845
L63611 28871
L63596 28884
" />
<g transform="rotate(-90 63484.3 28051.2)">
<text x="63484.3" y="28208.7"
textLength="601.706" font-size="367.454" lengthAdjust="spacingAndGlyphs"
text-anchor="middle" opacity="0">46</text>
</g>
<path d="M63416 28129
L63626 28129
" />
<path d="M63296 28195
L63521 28261
L63521 28090
" />
<path d="M63311 27867
L63311 27919
L63326 27946
L63341 27959
L63386 27985
L63446 27998
L63566 27998
L63596 27985
L63611 27972
L63626 27946
L63626 27893
L63611 27867
L63596 27854
L63566 27841
L63491 27841
L63461 27854
L63446 27867
L63431 27893
L63431 27946
L63446 27972
L63461 27985
L63491 27998
" />
<g transform="rotate(-90 63484.3 27066.9)">
<text x="63484.3" y="27224.4"
textLength="916.667" font-size="367.454" lengthAdjust="spacingAndGlyphs"
text-anchor="middle" opacity="0">GND</text>
</g>
<path d="M63326 27276
L63311 27303
L63311 27342
L63326 27381
L63356 27408
L63386 27421
L63446 27434
L63491 27434
L63551 27421
L63581 27408
L63611 27381
L63626 27342
L63626 27316
L63611 27276
L63596 27263
L63491 27263
L63491 27316
" />
<path d="M63626 27145
L63311 27145
L63626 26988
L63311 26988
" />
<path d="M63626 26856
L63311 26856
L63311 26791
L63326 26751
L63356 26725
L63386 26712
L63446 26699
L63491 26699
L63551 26712
L63581 26725
L63611 26751
L63626 26791
L63626 26856
" />
<g transform="rotate(90 55236.2 43011.8)">
<text x="55236.2" y="43169.3"
textLength="601.706" font-size="367.454" lengthAdjust="spacingAndGlyphs"
text-anchor="middle" opacity="0">15</text>
</g>
<path d="M55093 42959
L55093 42801
" />
<path d="M55093 42880
L55408 42880
L55363 42854
L55333 42828
L55318 42801
" />
<path d="M55408 43208
L55408 43077
L55258 43064
L55273 43077
L55288 43103
L55288 43169
L55273 43195
L55258 43208
L55228 43221
L55153 43221
L55123 43208
L55108 43195
L55093 43169
L55093 43103
L55108 43077
L55123 43064
" />
<g transform="rotate(90 55236.2 42035.4)">
<text x="55236.2" y="42192.9"
textLength="601.706" font-size="367.454" lengthAdjust="spacingAndGlyphs"
text-anchor="middle" opacity="0">14</text>
</g>
<path d="M55093 41982
L55093 41825
" />
<path d="M55093 41904
L55408 41904
L55363 41877
L55333 41851
L55318 41825
" />
<path d="M55303 42219
L55093 42219
" />
<path d="M55423 42153
L55198 42087
L55198 42258
" />
<g transform="rotate(90 55236.2 40944.9)">
<text x="55236.2" y="41102.4"
textLength="601.706" font-size="367.454" lengthAdjust="spacingAndGlyphs"
text-anchor="middle" opacity="0">13</text>
</g>
<path d="M55093 40892
L55093 40734
" />
<path d="M55093 40813
L55408 40813
L55363 40787
L55333 40761
L55318 40734
" />
<path d="M55408 40984
L55408 41154
L55288 41062
L55288 41102
L55273 41128
L55258 41141
L55228 41154
L55153 41154
L55123 41141
L55108 41128
L55093 41102
L55093 41023
L55108 40997
L55123 40984
" />
<g transform="rotate(90 55236.2 39960.6)">
<text x="55236.2" y="40118.1"
textLength="601.706" font-size="367.454" lengthAdjust="spacingAndGlyphs"
text-anchor="middle" opacity="0">12</text>
</g>
<path d="M55093 39908
L55093 39750
" />
<path d="M55093 39829
L55408 39829
L55363 39803
L55333 39776
L55318 39750
" />
<path d="M55378 40013
L55393 40026
L55408 40052
L55408 40118
L55393 40144
L55378 40157
L55348 40170
L55318 40170
L55273 40157
L55093 40000
L55093 40170
" />
<g transform="rotate(90 55236.2 38984.3)">
<text x="55236.2" y="39141.7"
textLength="601.706" font-size="367.454" lengthAdjust="spacingAndGlyphs"
text-anchor="middle" opacity="0">11</text>
</g>
<path d="M55093 38931
L55093 38774
" />
<path d="M55093 38853
L55408 38853
L55363 38826
L55333 38800
L55318 38774
" />
<path d="M55093 39194
L55093 39036
" />
<path d="M55093 39115
L55408 39115
L55363 39089
L55333 39062
L55318 39036
" />
<g transform="rotate(90 55236.2 37992.1)">
<text x="55236.2" y="38149.6"
textLength="601.706" font-size="367.454" lengthAdjust="spacingAndGlyphs"
text-anchor="middle" opacity="0">10</text>
</g>
<path d="M55093 37939
L55093 37782
" />
<path d="M55093 37860
L55408 37860
L55363 37834
L55333 37808
L55318 37782
" />
<path d="M55408 38110
L55408 38136
L55393 38162
L55378 38175
L55348 38188
L55288 38202
L55213 38202
L55153 38188
L55123 38175
L55108 38162
L55093 38136
L55093 38110
L55108 38083
L55123 38070
L55153 38057
L55213 38044
L55288 38044
L55348 38057
L55378 38070
L55393 38083
L55408 38110
" />
<g transform="rotate(90 55236.2 37015.7)">
<text x="55236.2" y="37173.2"
textLength="339.239" font-size="367.454" lengthAdjust="spacingAndGlyphs"
text-anchor="middle" opacity="0">9</text>
</g>
<path d="M55093 36963
L55093 37015
L55108 37041
L55123 37055
L55168 37081
L55228 37094
L55348 37094
L55378 37081
L55393 37068
L55408 37041
L55408 36989
L55393 36963
L55378 36950
L55348 36937
L55273 36937
L55243 36950
L55228 36963
L55213 36989
L55213 37041
L55228 37068
L55243 37081
L55273 37094
" />
<g transform="rotate(90 55236.2 36031.5)">
<text x="55236.2" y="36189"
textLength="339.239" font-size="367.454" lengthAdjust="spacingAndGlyphs"
text-anchor="middle" opacity="0">8</text>
</g>
<path d="M55273 36005
L55288 35979
L55303 35965
L55333 35952
L55348 35952
L55378 35965
L55393 35979
L55408 36005
L55408 36057
L55393 36083
L55378 36097
L55348 36110
L55333 36110
L55303 36097
L55288 36083
L55273 36057
L55273 36005
L55258 35979
L55243 35965
L55213 35952
L55153 35952
L55123 35965
L55108 35979
L55093 36005
L55093 36057
L55108 36083
L55123 36097
L55153 36110
L55213 36110
L55243 36097
L55258 36083
L55273 36057
" />
<g transform="rotate(90 55236.2 35047.2)">
<text x="55236.2" y="35204.7"
textLength="339.239" font-size="367.454" lengthAdjust="spacingAndGlyphs"
text-anchor="middle" opacity="0">7</text>
</g>
<path d="M55408 34955
L55408 35139
L55093 35020
" />
<g transform="rotate(90 55236.2 34063)">
<text x="55236.2" y="34220.5"
textLength="339.239" font-size="367.454" lengthAdjust="spacingAndGlyphs"
text-anchor="middle" opacity="0">6</text>
</g>
<path d="M55408 34115
L55408 34062
L55393 34036
L55378 34023
L55333 33997
L55273 33984
L55153 33984
L55123 33997
L55108 34010
L55093 34036
L55093 34089
L55108 34115
L55123 34128
L55153 34141
L55228 34141
L55258 34128
L55273 34115
L55288 34089
L55288 34036
L55273 34010
L55258 33997
L55228 33984
" />
<g transform="rotate(90 55236.2 31996.1)">
<text x="55236.2" y="32153.5"
textLength="339.239" font-size="367.454" lengthAdjust="spacingAndGlyphs"
text-anchor="middle" opacity="0">4</text>
</g>
<path d="M55303 32048
L55093 32048
" />
<path d="M55423 31982
L55198 31917
L55198 32087
" />
<g transform="rotate(90 55236.2 31011.8)">
<text x="55236.2" y="31169.3"
textLength="339.239" font-size="367.454" lengthAdjust="spacingAndGlyphs"
text-anchor="middle" opacity="0">3</text>
</g>
<path d="M55408 30919
L55408 31090
L55288 30998
L55288 31038
L55273 31064
L55258 31077
L55228 31090
L55153 31090
L55123 31077
L55108 31064
L55093 31038
L55093 30959
L55108 30933
L55123 30919
" />
<g transform="rotate(90 55236.2 30027.6)">
<text x="55236.2" y="30185"
textLength="339.239" font-size="367.454" lengthAdjust="spacingAndGlyphs"
text-anchor="middle" opacity="0">2</text>
</g>
<path d="M55378 29948
L55393 29961
L55408 29988
L55408 30053
L55393 30080
L55378 30093
L55348 30106
L55318 30106
L55273 30093
L55093 29935
L55093 30106
" />
<g transform="rotate(90 55236.2 29043.3)">
<text x="55236.2" y="29200.8"
textLength="339.239" font-size="367.454" lengthAdjust="spacingAndGlyphs"
text-anchor="middle" opacity="0">1</text>
</g>
<path d="M55093 29122
L55093 28964
" />
<path d="M55093 29043
L55408 29043
L55363 29017
L55333 28990
L55318 28964
" />
<g transform="rotate(90 55236.2 28015.7)">
<text x="55236.2" y="28173.2"
textLength="837.926" font-size="367.454" lengthAdjust="spacingAndGlyphs"
text-anchor="middle" opacity="0">3V3</text>
</g>
<path d="M55408 27674
L55408 27845
L55288 27753
L55288 27792
L55273 27818
L55258 27832
L55228 27845
L55153 27845
L55123 27832
L55108 27818
L55093 27792
L55093 27713
L55108 27687
L55123 27674
" />
<path d="M55408 27923
L55093 28015
L55408 28107
" />
<path d="M55408 28173
L55408 28343
L55288 28251
L55288 28291
L55273 28317
L55258 28330
L55228 28343
L55153 28343
L55123 28330
L55108 28317
L55093 28291
L55093 28212
L55108 28186
L55123 28173
" />
<g transform="rotate(90 55236.2 26984.3)">
<text x="55236.2" y="27141.7"
textLength="916.667" font-size="367.454" lengthAdjust="spacingAndGlyphs"
text-anchor="middle" opacity="0">GND</text>
</g>
<path d="M55393 26774
L55408 26748
L55408 26708
L55393 26669
L55363 26643
L55333 26629
L55273 26616
L55228 26616
L55168 26629
L55138 26643
L55108 26669
L55093 26708
L55093 26734
L55108 26774
L55123 26787
L55228 26787
L55228 26734
" />
<path d="M55093 26905
L55408 26905
L55093 27062
L55408 27062
" />
<path d="M55093 27194
L55408 27194
L55408 27259
L55393 27299
L55363 27325
L55333 27338
L55273 27351
L55228 27351
L55168 27338
L55138 27325
L55108 27299
L55093 27259
L55093 27194
" />
</g>
<g style="fill:#000000; fill-opacity:1.0; 
stroke:#000000; stroke-width:3.93701; stroke-opacity:1; 
stroke-linecap:round; stroke-linejoin:round;">
<path style="fill:#000000; fill-opacity:1.0; 
stroke:#000000; stroke-width:3.93701; stroke-opacity:1; 
stroke-linecap:round; stroke-linejoin:round;fill-rule:evenodd;"
d="M 62506.3,43406.9
62507.3,43126.5
62509.3,42899.2
62512.6,42718.2
62517.3,42576.7
62523.8,42467.9
62532.3,42385
62543.1,42321.2
62556.4,42269.8
62562.9,42249.8
62636.7,42096.1
62726,42002.8
62824,41970.8
62923.9,42001.2
63018.8,42094.8
63069.8,42180.4
63153.1,42347.1
63158.5,43680.4
63159.1,43977
63158.5,44256.7
63156.8,44511.5
63154.1,44733.5
63150.5,44914.8
63146.1,45047.5
63141.1,45123.6
63139.6,45133.6
63091.7,45282.3
63018.3,45408
62931.1,45492.6
62893,45511.7
62821.4,45514.9
62821.4,45227.9
62911.3,45208.2
62938.7,45195.9
62990.6,45136.2
63003.1,45080.4
62977.7,45001.6
62942.6,44968.7
62942.6,44897.4
62982.5,44873.3
62995.9,44827
62997.3,44744.7
62996.4,44731.6
62982.6,44651.7
62949.6,44618.9
62903.1,44613.8
62834.5,44632.1
62813.2,44679.7
62813.2,44563.8
62907.1,44559.1
62970.3,44547.3
62980.9,44541.6
63002.1,44482.2
62995.4,44402.3
62964.6,44340.2
62961.2,44337.1
62895.1,44318
62884.7,44319
62884.7,44264.3
62955.1,44251
62990.6,44207.3
63002.5,44134.8
62988.3,44068.1
62969.8,44047.1
62944.1,44058.3
62935.5,44103.5
62931.2,44154.9
62918.9,44147.6
62918.9,44013.6
62955.3,43995.3
62988.4,43943.1
63002.3,43874.5
62994.8,43817
62969.8,43797.1
62942.9,43825.4
62934.2,43872.1
62932,43947.1
62895.4,43871.2
62848.7,43814
62804.2,43820.3
62776.3,43887.8
62776.1,43889.1
62792.7,43959.5
62848.7,44005.9
62918.9,44013.6
62918.9,44147.6
62914.4,44144.9
62900.5,44122.1
62847.5,44067.7
62799.5,44069.7
62775.1,44123.2
62775.9,44155.2
62811.1,44234.6
62884.7,44264.3
62884.7,44319
62802.3,44327.2
62713.1,44358.3
62703.1,44366.3
62703.1,43730.4
62729.4,43702.3
62736.5,43657.4
62739.9,43606.8
62759.6,43617
62781.1,43645.4
62817.1,43686.3
62838,43672.5
62846.7,43651.8
62882.7,43603.6
62918.3,43603.7
62929.9,43648.3
62926.8,43663.8
62922.8,43717
62934,43730.4
62983.7,43702.6
62997.8,43629.7
62996.2,43615.2
62978,43571.9
62940.3,43554.4
62940.3,43463.8
62984,43449.1
63001.4,43393.8
63003.1,43347.1
62994.8,43270
62974.2,43231.5
62969.8,43230.4
62960.9,43240.9
62960.9,42897.1
62991.9,42874.5
62998.7,42800.4
62996.8,42772.1
62983.8,42689.2
62964.9,42666.7
62964.9,42580.8
62972.6,42578.7
62994.9,42536.9
63002.5,42467.9
62995.6,42400.8
62974.8,42364.7
62969.8,42363.8
62943.5,42391.9
62936.5,42436.3
62936.5,42508.7
62859.3,42436.3
62789,42384.8
62729.6,42363.8
62673.4,42391.4
62648.9,42457.2
62657.8,42513.8
62692.6,42559.7
62723.8,42552.9
62727.4,42499.3
62726.8,42497.1
62718.8,42445.4
62738.3,42437.1
62793.2,42473.4
62842.8,42514
62913.3,42563
62964.9,42580.8
62964.9,42666.7
62954.1,42653.8
62903.1,42647.1
62834.5,42665.5
62809.2,42722.1
62787,42785.8
62758.1,42790.1
62738.3,42738.3
62736.5,42707.1
62729.7,42648
62706.3,42648
62698.9,42654.7
62676.8,42717.1
62690.4,42796.9
62731.6,42861.7
62755.7,42876.8
62803.6,42870.5
62843.6,42805.2
62846.7,42797.2
62886.1,42720
62918.1,42701.1
62933.1,42740.5
62929.4,42797.1
62929.1,42873.2
62960.6,42897.1
62960.9,42897.1
62960.9,43240.9
62945.3,43259.2
62935.4,43322.1
62934.4,43413.8
62869.8,43327.3
62869.8,43147.1
62894.5,43135.3
62903.1,43082.4
62892,43018.8
62869.8,42997.1
62842.5,43024.9
62836.5,43061.8
62851.8,43125.6
62869.8,43147.1
62869.8,43327.3
62866,43322.1
62790.7,43247.5
62725.5,43237.6
62672.3,43292.5
62659.7,43362.6
62690.2,43417.5
62727.3,43459.5
62733.2,43445.6
62725.4,43405.5
62724,43333.2
62753.9,43314.9
62803.7,43353.9
62822.2,43379.4
62881.3,43440.1
62940.3,43463.8
62940.3,43554.4
62927.7,43548.5
62828.1,43537
62732.8,43533
62686.3,43543.9
62671.2,43580
62669.8,43628.6
62679.3,43699.6
62702.2,43730.4
62703.1,43730.4
62703.1,44366.3
62659.4,44401.6
62635.2,44479.3
62671.1,44533.9
62763.1,44561.3
62813.2,44563.8
62813.2,44679.7
62809.2,44688.8
62786.6,44750.1
62756.2,44759.3
62737.2,44714.1
62736.5,44697.1
62722.5,44642.9
62703.1,44630.4
62675.1,44656.5
62671.6,44717.1
62690.1,44786
62723.4,44833.4
62770.8,44858.8
62810.8,44830.9
62823.4,44814.5
62860.4,44746.6
62869.8,44707.4
62892.6,44667.3
62907.5,44663.8
62930.6,44693.6
62926.4,44779.8
62926.3,44780.4
62921.4,44867.4
62942.6,44897.4
62942.6,44968.7
62938.7,44965
62870.7,44941.8
62791.3,44931.6
62722.4,44934.3
62685.5,44950
62686.5,44963.8
62731.5,44987.7
62806.2,44997.1
62890.1,45014.7
62925.7,45050.5
62920.6,45110.1
62859.2,45149.7
62759.5,45163.3
62697.8,45173.4
62686.5,45197.1
62737,45224.2
62821.4,45227.9
62821.4,45514.9
62788.9,45516.3
62691.6,45459.8
62608,45348.1
62562.9,45244.4
62548.5,45196.2
62536.6,45138.5
62527.2,45064.6
62519.9,44967.8
62514.4,44841.1
62510.6,44677.8
62508.1,44471.2
62506.7,44214.4
62506.1,43900.7
62506.1,43747.1
Z" /> 
<path style="fill:#000000; fill-opacity:1.0; 
stroke:#000000; stroke-width:3.93701; stroke-opacity:1; 
stroke-linecap:round; stroke-linejoin:round;fill-rule:evenodd;"
d="M 62895.2,44398.1
62903.1,44397.1
62935.5,44422.5
62936.5,44430.4
62911.1,44462.8
62903.1,44463.8
62870.8,44438.4
62869.8,44430.4
Z" /> 
<path style="fill:#000000; fill-opacity:1.0; 
stroke:#000000; stroke-width:3.93701; stroke-opacity:1; 
stroke-linecap:round; stroke-linejoin:round;fill-rule:evenodd;"
d="M 62726.3,44418.4
62772.2,44397.8
62802,44419.1
62803.1,44428.5
62779.1,44473.9
62772.1,44479
62732.6,44477.4
62715.3,44442.2
Z" /> 
</g>
<g style="fill:#000000; fill-opacity:1.0; 
stroke:#000000; stroke-width:78.7402; stroke-opacity:1; 
stroke-linecap:round; stroke-linejoin:round;">
</g>
<g style="fill:#000000; fill-opacity:0.0; 
stroke:#000000; stroke-width:78.7402; stroke-opacity:1; 
stroke-linecap:round; stroke-linejoin:round;">
<path d="M55314 26850
L55314 26850
" />
<path d="M55393 26850
L55393 26850
" />
</g>
<g style="fill:#000000; fill-opacity:0.0; 
stroke:#000000; stroke-width:39.3701; stroke-opacity:1; 
stroke-linecap:round; stroke-linejoin:round;">
<path d="M62874 23897
L62874 26456
" />
<path d="M55787 23897
L62874 23897
" />
<path d="M55787 26456
L55787 23897
" />
</g>
<g style="fill:#000000; fill-opacity:0.0; 
stroke:#000000; stroke-width:78.7402; stroke-opacity:1; 
stroke-linecap:round; stroke-linejoin:round;">
<path d="M55315 26850.4 A39.3701 39.3701 0.0 0 0 55393.7 26850.4 " />
<path d="M55393.7 26850.4 A39.3701 39.3701 0.0 0 0 55315 26850.4 " />
</g>
<g style="fill:#000000; fill-opacity:0.0; 
stroke:#000000; stroke-width:47.2441; stroke-opacity:1; 
stroke-linecap:round; stroke-linejoin:round;">
<path d="M60223 48689
L60931 48689
" />
<path d="M60931 47421
L59967 47421
" />
</g>
<g style="fill:#000000; fill-opacity:0.0; 
stroke:#000000; stroke-width:50; stroke-opacity:1; 
stroke-linecap:round; stroke-linejoin:round;">
<path d="M55973 49440
L55407 49440
" />
<path d="M55973 52960
L55407 52960
" />
<path d="M54328 52960
L53844 52960
" />
<path d="M53844 52960
L53844 49440
" />
<path d="M53844 49440
L54328 49440
" />
</g>
<g style="fill:#000000; fill-opacity:0.0; 
stroke:#000000; stroke-width:78.7402; stroke-opacity:1; 
stroke-linecap:round; stroke-linejoin:round;">
<circle cx="57387.3" cy="49861.7" r="39.3701" /> 
</g>
<g style="fill:#000000; fill-opacity:0.0; 
stroke:#000000; stroke-width:47.2441; stroke-opacity:1; 
stroke-linecap:round; stroke-linejoin:round;">
<path d="M61722 49107
L63252 49107
" />
<path d="M63252 49107
L63252 48213
" />
<path d="M63252 48213
L61722 48213
" />
<path d="M56151 42159
L55964 42159
" />
<path d="M56151 42571
L55964 42571
" />
<path d="M59437 47930
L58459 47930
" />
<path d="M58459 47930
L58459 48470
" />
<path d="M58459 48470
L59437 48470
" />
</g>
<g style="fill:#000000; fill-opacity:0.0; 
stroke:#000000; stroke-width:78.7402; stroke-opacity:1; 
stroke-linecap:round; stroke-linejoin:round;">
<path d="M58361 46506
L58184 46506
" />
<path d="M58184 46506
L58184 45364
" />
<path d="M58184 45364
L58361 45364
" />
<path d="M58361 45364
L58361 46506
" />
<path d="M58912 46525
L58499 46525
" />
<path d="M60606 46496
L60429 46496
" />
<path d="M60429 46496
L60429 45354
" />
<path d="M60429 45354
L60606 45354
" />
<path d="M60606 45354
L60606 46496
" />
<path d="M61157 46515
L60744 46515
" />
</g>
<g style="fill:#000000; fill-opacity:0.0; 
stroke:#000000; stroke-width:47.2441; stroke-opacity:1; 
stroke-linecap:round; stroke-linejoin:round;">
<path d="M58206 49162
L58206 49290
" />
<path d="M57804 49162
L57804 49290
" />
<path d="M59094 49129
L58966 49129
" />
<path d="M59094 48727
L58966 48727
" />
</g>
<g style="fill:#000000; fill-opacity:0.0; 
stroke:#000000; stroke-width:50; stroke-opacity:1; 
stroke-linecap:round; stroke-linejoin:round;">
<path d="M60982 50022
L60175 50022
" />
<path d="M58679 50022
L57872 50022
" />
<path d="M57872 50022
L57872 51597
" />
</g>
<g style="fill:#000000; fill-opacity:0.0; 
stroke:#000000; stroke-width:118.11; stroke-opacity:1; 
stroke-linecap:round; stroke-linejoin:round;">
</g>
<g style="fill:#000000; fill-opacity:1.0; 
stroke:#000000; stroke-width:0; stroke-opacity:1; 
stroke-linecap:round; stroke-linejoin:round;">
<circle cx="58581.2" cy="49628.8" r="98.4252" /> 
</g>
<g style="fill:#000000; fill-opacity:1.0; 
stroke:#000000; stroke-width:50; stroke-opacity:1; 
stroke-linecap:round; stroke-linejoin:round;">
</g>
<g style="fill:#000000; fill-opacity:0.0; 
stroke:#000000; stroke-width:50; stroke-opacity:1; 
stroke-linecap:round; stroke-linejoin:round;">
<path d="M58561 53014
L60293 53014
" />
<path d="M60982 51597
L60982 50022
" />
</g>
<g style="fill:#000000; fill-opacity:0.0; 
stroke:#000000; stroke-width:39.3701; stroke-opacity:1; 
stroke-linecap:round; stroke-linejoin:round;">
<path d="M62466 41979
L62466 41979
" />
<path d="M62466 41940
L62466 41940
" />
<path d="M62466.8 41940.1 A19.685 19.685 0.0 0 0 62466.8 41979.5 " />
<path d="M62466.8 41979.5 A19.685 19.685 0.0 0 0 62466.8 41940.1 " />
</g>
<g style="fill:#000000; fill-opacity:0.0; 
stroke:#000000; stroke-width:47.2441; stroke-opacity:1; 
stroke-linecap:round; stroke-linejoin:round;">
<path d="M59633 47211
L59633 47339
" />
<path d="M59231 47211
L59231 47339
" />
</g>
<g style="fill:#000000; fill-opacity:0.0; 
stroke:#000000; stroke-width:78.7402; stroke-opacity:1; 
stroke-linecap:round; stroke-linejoin:round;">
<path d="M58242 46812
L58242 47255
" />
<path d="M57041 47392
L58183 47392
" />
<path d="M57041 47707
L57041 47392
" />
<path d="M58183 47707
L57041 47707
" />
<path d="M58183 47392
L58183 47707
" />
</g>
<g style="fill:#000000; fill-opacity:0.0; 
stroke:#000000; stroke-width:47.2441; stroke-opacity:1; 
stroke-linecap:round; stroke-linejoin:round;">
<path d="M61520 57264
L61520 53149
" />
<path d="M61520 57264
L64394 57264
" />
<path d="M64394 57264
L64394 53149
" />
<path d="M61520 52165
L61520 50393
" />
<path d="M64394 52165
L64394 50393
" />
<path d="M62367 49586
L63548 49586
" />
<path d="M64544 52567
L64544 52173
" />
<path d="M59881 41516
L59694 41516
" />
<path d="M59881 41104
L59694 41104
" />
<path d="M58586 47373
L58586 47186
" />
<path d="M58998 47373
L58998 47186
" />
<path d="M60571 47186
L60384 47186
" />
<path d="M60571 46774
L60384 46774
" />
<path d="M57716 38294
L57716 38405
" />
<path d="M58118 38294
L58118 38405
" />
<path d="M57701 39864
L57701 39975
" />
<path d="M58103 39864
L58103 39975
" />
<path d="M62105 48003
L62579 48003
" />
<path d="M62105 47287
L62579 47287
" />
<path d="M63744 48561
L64791 48561
" />
<path d="M63744 27537
L63744 48561
" />
<path d="M64791 27537
L64791 48561
" />
<path d="M63744 27537
L64791 27537
" />
<path d="M63744 27037
L63744 26513
" />
<path d="M63744 26513
L64267 26513
" />
<path d="M60894 43565
L60894 42207
" />
<path d="M60894 43565
L60894 44333
" />
<path d="M56910 43565
L56910 42797
" />
<path d="M56910 43565
L56910 44333
" />
<path d="M61436 43315
L61436 43204
" />
<path d="M61838 43315
L61838 43204
" />
<path d="M54734 45184
L56270 45184
" />
<path d="M56270 46326
L54734 46326
" />
<path d="M56270 45184
L56270 45263
" />
<path d="M54734 45184
L54734 45263
" />
<path d="M56270 46326
L56270 46247
" />
<path d="M54734 46326
L54734 46247
" />
<path d="M54719 47009
L56255 47009
" />
<path d="M56255 48151
L54719 48151
" />
<path d="M56255 47009
L56255 47088
" />
<path d="M54719 47009
L54719 47088
" />
<path d="M56255 48151
L56255 48072
" />
<path d="M54719 48151
L54719 48072
" />
<path d="M59181 45821
L59181 46008
" />
<path d="M59593 45821
L59593 46008
" />
<path d="M56216 39792
L56216 39978
" />
<path d="M56628 39792
L56628 39978
" />
<path d="M53984 26513
L54507 26513
" />
<path d="M53984 27037
L53984 26513
" />
<path d="M53984 27537
L55031 27537
" />
<path d="M55031 27537
L55031 44561
" />
<path d="M53984 27537
L53984 44561
" />
<path d="M53984 44561
L55031 44561
" />
<path d="M56676 39058
L56676 38080
" />
<path d="M56136 39058
L56676 39058
" />
<path d="M56136 38080
L56136 39058
" />
<path d="M58396 38284
L58396 38395
" />
<path d="M58798 38284
L58798 38395
" />
<path d="M57323 45789
L57323 45900
" />
<path d="M56921 45789
L56921 45900
" />
<path d="M56127 44056
L56017 44056
" />
<path d="M56127 43654
L56017 43654
" />
<path d="M58142 41511
L58032 41511
" />
<path d="M58142 41109
L58032 41109
" />
<path d="M56459 49016
L56646 49016
" />
<path d="M56459 48604
L56646 48604
" />
<path d="M55006 48604
L54819 48604
" />
<path d="M55006 49016
L54819 49016
" />
<path d="M59458 36899
L59271 36899
" />
<path d="M59458 37311
L59271 37311
" />
<path d="M61858 44743
L61858 44556
" />
<path d="M61446 44743
L61446 44556
" />
<path d="M59158 37772
L61524 37772
" />
<path d="M60044 40457
L61524 40457
" />
<path d="M61524 37772
L61524 38268
" />
<path d="M61524 40457
L61524 39961
" />
<path d="M55964 42904
L56151 42904
" />
<path d="M55964 43316
L56151 43316
" />
<path d="M56027 44399
L56137 44399
" />
<path d="M56027 44801
L56137 44801
" />
<path d="M56996 38385
L56996 38274
" />
<path d="M57398 38385
L57398 38274
" />
<path d="M57393 39844
L57393 39955
" />
<path d="M56991 39844
L56991 39955
" />
<path d="M58793 39864
L58793 39975
" />
<path d="M58391 39864
L58391 39975
" />
<path d="M61451 45921
L61451 46108
" />
<path d="M61863 45921
L61863 46108
" />
</g>
<g style="fill:#000000; fill-opacity:0.0; 
stroke:#000000; stroke-width:59.0551; stroke-opacity:1; 
stroke-linecap:round; stroke-linejoin:round;">
<text x="62327.6" y="37028.1"
textLength="549.213" font-size="314.961" lengthAdjust="spacingAndGlyphs"
text-anchor="middle" opacity="0">U1</text>
<path d="M62147 36739
L62147 36962
L62158 36988
L62170 37001
L62192 37014
L62237 37014
L62260 37001
L62271 36988
L62282 36962
L62282 36739
" />
<path d="M62518 37014
L62383 37014
" />
<path d="M62451 37014
L62451 36739
L62428 36778
L62406 36805
L62383 36818
" />
<text x="58857.6" y="28707.2"
textLength="1764.06" font-size="524.934" lengthAdjust="spacingAndGlyphs"
text-anchor="middle" opacity="0">REF**</text>
<path d="M58332 28688
L58201 28500
" />
<path d="M58107 28688
L58107 28294
L58257 28294
L58295 28313
L58313 28332
L58332 28369
L58332 28425
L58313 28463
L58295 28482
L58257 28500
L58107 28500
" />
<path d="M58501 28482
L58632 28482
" />
<path d="M58688 28688
L58501 28688
L58501 28294
L58688 28294
" />
<path d="M58988 28482
L58857 28482
" />
<path d="M58857 28688
L58857 28294
L59045 28294
" />
<path d="M59251 28294
L59251 28388
" />
<path d="M59157 28350
L59251 28388
L59345 28350
" />
<path d="M59195 28463
L59251 28388
L59307 28463
" />
<path d="M59551 28294
L59551 28388
" />
<path d="M59457 28350
L59551 28388
L59645 28350
" />
<path d="M59495 28463
L59551 28388
L59607 28463
" />
</g>
<g style="fill:#000000; fill-opacity:0.0; 
stroke:#000000; stroke-width:49.2126; stroke-opacity:1; 
stroke-linecap:round; stroke-linejoin:round;">
<text x="60517.6" y="49118.1"
textLength="549.213" font-size="314.961" lengthAdjust="spacingAndGlyphs"
text-anchor="middle" opacity="0">U4</text>
<path d="M60337 48829
L60337 49052
L60348 49078
L60360 49091
L60382 49104
L60427 49104
L60450 49091
L60461 49078
L60472 49052
L60472 48829
" />
<path d="M60686 48921
L60686 49104
" />
<path d="M60630 48816
L60573 49013
L60720 49013
" />
</g>
<g style="fill:#000000; fill-opacity:0.0; 
stroke:#000000; stroke-width:59.0551; stroke-opacity:1; 
stroke-linecap:round; stroke-linejoin:round;">
<text x="54107.6" y="49108.1"
textLength="468.926" font-size="314.961" lengthAdjust="spacingAndGlyphs"
text-anchor="middle" opacity="0">J2</text>
<path d="M54028 48819
L54028 49016
L54017 49055
L53995 49081
L53961 49094
L53938 49094
" />
<path d="M54130 48845
L54141 48832
L54163 48819
L54220 48819
L54242 48832
L54253 48845
L54265 48871
L54265 48898
L54253 48937
L54118 49094
L54265 49094
" />
<text x="61247.6" y="49098.1"
textLength="537.964" font-size="314.961" lengthAdjust="spacingAndGlyphs"
text-anchor="middle" opacity="0">D1</text>
<path d="M61073 49084
L61073 48809
L61129 48809
L61163 48822
L61185 48848
L61197 48875
L61208 48927
L61208 48966
L61197 49019
L61185 49045
L61163 49071
L61129 49084
L61073 49084
" />
<path d="M61433 49084
L61298 49084
" />
<path d="M61365 49084
L61365 48809
L61343 48848
L61320 48875
L61298 48888
" />
</g>
<g style="fill:#000000; fill-opacity:0.0; 
stroke:#000000; stroke-width:39.3701; stroke-opacity:1; 
stroke-linecap:round; stroke-linejoin:round;">
<g transform="rotate(-90 56757.6 42360.3)">
<text x="56757.6" y="42458.7"
textLength="648.575" font-size="262.467" lengthAdjust="spacingAndGlyphs"
text-anchor="middle" opacity="0">R10</text>
</g>
<path d="M56846 42486
L56752 42552
" />
<path d="M56846 42599
L56649 42599
L56649 42524
L56659 42505
L56668 42496
L56687 42486
L56715 42486
L56734 42496
L56743 42505
L56752 42524
L56752 42599
" />
<path d="M56846 42299
L56846 42411
" />
<path d="M56846 42355
L56649 42355
L56677 42374
L56696 42393
L56706 42411
" />
<path d="M56649 42177
L56649 42158
L56659 42140
L56668 42130
L56687 42121
L56724 42111
L56771 42111
L56809 42121
L56827 42130
L56837 42140
L56846 42158
L56846 42177
L56837 42196
L56827 42205
L56809 42215
L56771 42224
L56724 42224
L56687 42215
L56668 42205
L56659 42196
L56649 42177
" />
</g>
<g style="fill:#000000; fill-opacity:0.0; 
stroke:#000000; stroke-width:49.2126; stroke-opacity:1; 
stroke-linecap:round; stroke-linejoin:round;">
<text x="58067.6" y="48628.7"
textLength="435.508" font-size="262.467" lengthAdjust="spacingAndGlyphs"
text-anchor="middle" opacity="0">D3</text>
<path d="M57922 48619
L57922 48422
L57969 48422
L57997 48431
L58016 48450
L58025 48469
L58034 48506
L58034 48535
L58025 48572
L58016 48591
L57997 48609
L57969 48619
L57922 48619
" />
<path d="M58100 48422
L58222 48422
L58156 48497
L58184 48497
L58203 48506
L58212 48516
L58222 48535
L58222 48581
L58212 48600
L58203 48609
L58184 48619
L58128 48619
L58109 48609
L58100 48600
" />
</g>
<g style="fill:#000000; fill-opacity:0.0; 
stroke:#000000; stroke-width:39.3701; stroke-opacity:1; 
stroke-linecap:round; stroke-linejoin:round;">
<text x="57797.6" y="45239.1"
textLength="378.937" font-size="209.974" lengthAdjust="spacingAndGlyphs"
text-anchor="middle" opacity="0">U3</text>
<path d="M57677 45074
L57677 45201
L57685 45216
L57692 45224
L57707 45231
L57737 45231
L57752 45224
L57760 45216
L57767 45201
L57767 45074
" />
<path d="M57827 45074
L57925 45074
L57872 45134
L57895 45134
L57910 45141
L57917 45149
L57925 45164
L57925 45201
L57917 45216
L57910 45224
L57895 45231
L57850 45231
L57835 45224
L57827 45216
" />
<text x="61137.6" y="45109.1"
textLength="366.142" font-size="209.974" lengthAdjust="spacingAndGlyphs"
text-anchor="middle" opacity="0">U2</text>
<path d="M61017 44944
L61017 45071
L61025 45086
L61032 45094
L61047 45101
L61077 45101
L61092 45094
L61100 45086
L61107 45071
L61107 44944
" />
<path d="M61175 44959
L61182 44951
L61197 44944
L61235 44944
L61250 44951
L61257 44959
L61265 44974
L61265 44989
L61257 45011
L61167 45101
L61265 45101
" />
</g>
<g style="fill:#000000; fill-opacity:0.0; 
stroke:#000000; stroke-width:59.0551; stroke-opacity:1; 
stroke-linecap:round; stroke-linejoin:round;">
<text x="57477.6" y="49138.1"
textLength="512.374" font-size="314.961" lengthAdjust="spacingAndGlyphs"
text-anchor="middle" opacity="0">R8</text>
<path d="M57438 49124
L57359 48993
" />
<path d="M57303 49124
L57303 48849
L57393 48849
L57415 48862
L57427 48875
L57438 48901
L57438 48941
L57427 48967
L57415 48980
L57393 48993
L57303 48993
" />
<path d="M57573 48967
L57550 48954
L57539 48941
L57528 48915
L57528 48901
L57539 48875
L57550 48862
L57573 48849
L57618 48849
L57640 48862
L57651 48875
L57663 48901
L57663 48915
L57651 48941
L57640 48954
L57618 48967
L57573 48967
L57550 48980
L57539 48993
L57528 49020
L57528 49072
L57539 49098
L57550 49111
L57573 49124
L57618 49124
L57640 49111
L57651 49098
L57663 49072
L57663 49020
L57651 48993
L57640 48980
L57618 48967
" />
<text x="59867.6" y="49128.1"
textLength="537.964" font-size="314.961" lengthAdjust="spacingAndGlyphs"
text-anchor="middle" opacity="0">R7</text>
<path d="M59828 49114
L59749 48983
" />
<path d="M59693 49114
L59693 48839
L59783 48839
L59805 48852
L59817 48865
L59828 48891
L59828 48931
L59817 48957
L59805 48970
L59783 48983
L59693 48983
" />
<path d="M59907 48839
L60064 48839
L59963 49114
" />
<text x="60337.6" y="49908.1"
textLength="481.721" font-size="314.961" lengthAdjust="spacingAndGlyphs"
text-anchor="middle" opacity="0">J4</text>
<path d="M60258 49619
L60258 49816
L60247 49855
L60225 49881
L60191 49894
L60168 49894
" />
<path d="M60472 49711
L60472 49894
" />
<path d="M60416 49606
L60360 49803
L60506 49803
" />
<text x="61897.6" y="40898.4"
textLength="537.964" font-size="314.961" lengthAdjust="spacingAndGlyphs"
text-anchor="middle" opacity="0">D4</text>
<path d="M61723 40887
L61723 40650
L61779 40650
L61813 40662
L61835 40684
L61847 40707
L61858 40752
L61858 40785
L61847 40830
L61835 40853
L61813 40875
L61779 40887
L61723 40887
" />
<path d="M62060 40729
L62060 40887
" />
<path d="M62004 40639
L61948 40808
L62094 40808
" />
</g>
<g style="fill:#000000; fill-opacity:0.0; 
stroke:#000000; stroke-width:49.2126; stroke-opacity:1; 
stroke-linecap:round; stroke-linejoin:round;">
<text x="59417.6" y="46758.7"
textLength="461.098" font-size="262.467" lengthAdjust="spacingAndGlyphs"
text-anchor="middle" opacity="0">C9</text>
<path d="M59384 46730
L59375 46739
L59347 46749
L59328 46749
L59300 46739
L59281 46721
L59272 46702
L59262 46665
L59262 46636
L59272 46599
L59281 46580
L59300 46561
L59328 46552
L59347 46552
L59375 46561
L59384 46571
" />
<path d="M59478 46749
L59516 46749
L59534 46739
L59544 46730
L59562 46702
L59572 46665
L59572 46590
L59562 46571
L59553 46561
L59534 46552
L59497 46552
L59478 46561
L59469 46571
L59459 46590
L59459 46636
L59469 46655
L59478 46665
L59497 46674
L59534 46674
L59553 46665
L59562 46655
L59572 46636
" />
<text x="57117.6" y="46688.7"
textLength="542.042" font-size="262.467" lengthAdjust="spacingAndGlyphs"
text-anchor="middle" opacity="0">IC1</text>
<path d="M56925 46679
L56925 46482
" />
<path d="M57131 46660
L57122 46669
L57094 46679
L57075 46679
L57047 46669
L57028 46651
L57019 46632
L57009 46595
L57009 46566
L57019 46529
L57028 46510
L57047 46491
L57075 46482
L57094 46482
L57122 46491
L57131 46501
" />
<path d="M57319 46679
L57206 46679
" />
<path d="M57262 46679
L57262 46482
L57244 46510
L57225 46529
L57206 46538
" />
</g>
<g style="fill:#000000; fill-opacity:0.0; 
stroke:#000000; stroke-width:59.0551; stroke-opacity:1; 
stroke-linecap:round; stroke-linejoin:round;">
<text x="63727.6" y="49128.1"
textLength="468.926" font-size="314.961" lengthAdjust="spacingAndGlyphs"
text-anchor="middle" opacity="0">J1</text>
<path d="M63648 48839
L63648 49036
L63637 49075
L63615 49101
L63581 49114
L63558 49114
" />
<path d="M63885 49114
L63750 49114
" />
<path d="M63817 49114
L63817 48839
L63795 48878
L63772 48905
L63750 48918
" />
<text x="59777.6" y="40858.4"
textLength="762.936" font-size="314.961" lengthAdjust="spacingAndGlyphs"
text-anchor="middle" opacity="0">R14</text>
<path d="M59625 40847
L59547 40734
" />
<path d="M59490 40847
L59490 40610
L59580 40610
L59603 40622
L59614 40633
L59625 40655
L59625 40689
L59614 40712
L59603 40723
L59580 40734
L59490 40734
" />
<path d="M59850 40847
L59715 40847
" />
<path d="M59783 40847
L59783 40610
L59760 40644
L59738 40667
L59715 40678
" />
<path d="M60053 40689
L60053 40847
" />
<path d="M59996 40599
L59940 40768
L60086 40768
" />
</g>
<g style="fill:#000000; fill-opacity:0.0; 
stroke:#000000; stroke-width:39.3701; stroke-opacity:1; 
stroke-linecap:round; stroke-linejoin:round;">
<text x="58817.6" y="46768.7"
textLength="648.575" font-size="262.467" lengthAdjust="spacingAndGlyphs"
text-anchor="middle" opacity="0">R12</text>
<path d="M58691 46759
L58625 46665
" />
<path d="M58578 46759
L58578 46562
L58653 46562
L58672 46571
L58681 46581
L58691 46600
L58691 46628
L58681 46646
L58672 46656
L58653 46665
L58578 46665
" />
<path d="M58878 46759
L58766 46759
" />
<path d="M58822 46759
L58822 46562
L58803 46590
L58784 46609
L58766 46618
" />
<path d="M58953 46581
L58962 46571
L58981 46562
L59028 46562
L59047 46571
L59056 46581
L59066 46600
L59066 46618
L59056 46646
L58944 46759
L59066 46759
" />
</g>
<g style="fill:#000000; fill-opacity:0.0; 
stroke:#000000; stroke-width:59.0551; stroke-opacity:1; 
stroke-linecap:round; stroke-linejoin:round;">
<text x="61427.6" y="47128.1"
textLength="737.345" font-size="314.961" lengthAdjust="spacingAndGlyphs"
text-anchor="middle" opacity="0">R11</text>
<path d="M61275 47114
L61197 46983
" />
<path d="M61140 47114
L61140 46839
L61230 46839
L61253 46852
L61264 46865
L61275 46891
L61275 46931
L61264 46957
L61253 46970
L61230 46983
L61140 46983
" />
<path d="M61500 47114
L61365 47114
" />
<path d="M61433 47114
L61433 46839
L61410 46878
L61388 46905
L61365 46918
" />
<path d="M61725 47114
L61590 47114
" />
<path d="M61658 47114
L61658 46839
L61635 46878
L61613 46905
L61590 46918
" />
<text x="57877.6" y="37688.1"
textLength="537.964" font-size="314.961" lengthAdjust="spacingAndGlyphs"
text-anchor="middle" opacity="0">C8</text>
<path d="M57838 37648
L57827 37661
L57793 37674
L57770 37674
L57737 37661
L57714 37635
L57703 37609
L57692 37556
L57692 37517
L57703 37465
L57714 37438
L57737 37412
L57770 37399
L57793 37399
L57827 37412
L57838 37425
" />
<path d="M57973 37517
L57950 37504
L57939 37491
L57928 37465
L57928 37451
L57939 37425
L57950 37412
L57973 37399
L58018 37399
L58040 37412
L58051 37425
L58063 37451
L58063 37465
L58051 37491
L58040 37504
L58018 37517
L57973 37517
L57950 37530
L57939 37543
L57928 37570
L57928 37622
L57939 37648
L57950 37661
L57973 37674
L58018 37674
L58040 37661
L58051 37648
L58063 37622
L58063 37570
L58051 37543
L58040 37530
L58018 37517
" />
<text x="57897.6" y="40858.1"
textLength="537.964" font-size="314.961" lengthAdjust="spacingAndGlyphs"
text-anchor="middle" opacity="0">C6</text>
<path d="M57858 40818
L57847 40831
L57813 40844
L57790 40844
L57757 40831
L57734 40805
L57723 40779
L57712 40726
L57712 40687
L57723 40635
L57734 40608
L57757 40582
L57790 40569
L57813 40569
L57847 40582
L57858 40595
" />
<path d="M58060 40569
L58015 40569
L57993 40582
L57982 40595
L57959 40635
L57948 40687
L57948 40792
L57959 40818
L57970 40831
L57993 40844
L58038 40844
L58060 40831
L58071 40818
L58083 40792
L58083 40726
L58071 40700
L58060 40687
L58038 40674
L57993 40674
L57970 40687
L57959 40700
L57948 40726
" />
<text x="62057.6" y="47128.1"
textLength="504.218" font-size="314.961" lengthAdjust="spacingAndGlyphs"
text-anchor="middle" opacity="0">F1</text>
<path d="M61978 46970
L61900 46970
" />
<path d="M61900 47114
L61900 46839
L62012 46839
" />
<path d="M62226 47114
L62091 47114
" />
<path d="M62158 47114
L62158 46839
L62136 46878
L62113 46905
L62091 46918
" />
<text x="64417.6" y="49158.1"
textLength="481.721" font-size="314.961" lengthAdjust="spacingAndGlyphs"
text-anchor="middle" opacity="0">J5</text>
<path d="M64338 48869
L64338 49066
L64327 49105
L64305 49131
L64271 49144
L64248 49144
" />
<path d="M64563 48869
L64451 48869
L64440 49000
L64451 48987
L64473 48974
L64530 48974
L64552 48987
L64563 49000
L64575 49026
L64575 49092
L64563 49118
L64552 49131
L64530 49144
L64473 49144
L64451 49131
L64440 49118
" />
<text x="61237.6" y="42588.1"
textLength="549.213" font-size="314.961" lengthAdjust="spacingAndGlyphs"
text-anchor="middle" opacity="0">U6</text>
<path d="M61057 42299
L61057 42522
L61068 42548
L61080 42561
L61102 42574
L61147 42574
L61170 42561
L61181 42548
L61192 42522
L61192 42299
" />
<path d="M61406 42299
L61361 42299
L61338 42312
L61327 42325
L61305 42365
L61293 42417
L61293 42522
L61305 42548
L61316 42561
L61338 42574
L61383 42574
L61406 42561
L61417 42548
L61428 42522
L61428 42456
L61417 42430
L61406 42417
L61383 42404
L61338 42404
L61316 42417
L61305 42430
L61293 42456
" />
<g transform="rotate(-90 62187.6 43260.3)">
<text x="62187.6" y="43398.1"
textLength="762.936" font-size="314.961" lengthAdjust="spacingAndGlyphs"
text-anchor="middle" opacity="0">C11</text>
</g>
<path d="M62286 43412
L62299 43423
L62312 43457
L62312 43479
L62299 43513
L62272 43535
L62246 43547
L62194 43558
L62154 43558
L62102 43547
L62076 43535
L62049 43513
L62036 43479
L62036 43457
L62049 43423
L62062 43412
" />
<path d="M62312 43187
L62312 43322
" />
<path d="M62312 43254
L62036 43254
L62076 43277
L62102 43299
L62115 43322
" />
<path d="M62312 42962
L62312 43097
" />
<path d="M62312 43029
L62036 43029
L62076 43052
L62102 43074
L62115 43097
" />
<text x="55467.6" y="46798.1"
textLength="796.681" font-size="314.961" lengthAdjust="spacingAndGlyphs"
text-anchor="middle" opacity="0">SW2</text>
<path d="M55152 46771
L55186 46784
L55242 46784
L55265 46771
L55276 46758
L55287 46732
L55287 46706
L55276 46680
L55265 46666
L55242 46653
L55197 46640
L55175 46627
L55163 46614
L55152 46588
L55152 46561
L55163 46535
L55175 46522
L55197 46509
L55253 46509
L55287 46522
" />
<path d="M55366 46509
L55422 46784
L55467 46588
L55512 46784
L55568 46509
" />
<path d="M55647 46535
L55658 46522
L55681 46509
L55737 46509
L55760 46522
L55771 46535
L55782 46561
L55782 46588
L55771 46627
L55636 46784
L55782 46784
" />
<text x="55547.6" y="48508.1"
textLength="796.681" font-size="314.961" lengthAdjust="spacingAndGlyphs"
text-anchor="middle" opacity="0">SW1</text>
<path d="M55232 48481
L55266 48494
L55322 48494
L55345 48481
L55356 48468
L55367 48442
L55367 48416
L55356 48390
L55345 48376
L55322 48363
L55277 48350
L55255 48337
L55243 48324
L55232 48298
L55232 48271
L55243 48245
L55255 48232
L55277 48219
L55333 48219
L55367 48232
" />
<path d="M55446 48219
L55502 48494
L55547 48298
L55592 48494
L55648 48219
" />
<path d="M55862 48494
L55727 48494
" />
<path d="M55795 48494
L55795 48219
L55772 48258
L55750 48285
L55727 48298
" />
</g>
<g style="fill:#000000; fill-opacity:0.0; 
stroke:#000000; stroke-width:39.3701; stroke-opacity:1; 
stroke-linecap:round; stroke-linejoin:round;">
<text x="58847.6" y="45189.1"
textLength="384.233" font-size="209.974" lengthAdjust="spacingAndGlyphs"
text-anchor="middle" opacity="0">R5</text>
<path d="M58821 45181
L58768 45106
" />
<path d="M58731 45181
L58731 45024
L58791 45024
L58806 45031
L58813 45039
L58821 45054
L58821 45076
L58813 45091
L58806 45099
L58791 45106
L58731 45106
" />
<path d="M58963 45024
L58888 45024
L58881 45099
L58888 45091
L58903 45084
L58941 45084
L58956 45091
L58963 45099
L58971 45114
L58971 45151
L58963 45166
L58956 45174
L58941 45181
L58903 45181
L58888 45174
L58881 45166
" />
</g>
<g style="fill:#000000; fill-opacity:0.0; 
stroke:#000000; stroke-width:59.0551; stroke-opacity:1; 
stroke-linecap:round; stroke-linejoin:round;">
<text x="56427.6" y="40848.1"
textLength="737.345" font-size="314.961" lengthAdjust="spacingAndGlyphs"
text-anchor="middle" opacity="0">R13</text>
<path d="M56275 40834
L56197 40703
" />
<path d="M56140 40834
L56140 40559
L56230 40559
L56253 40572
L56264 40585
L56275 40611
L56275 40651
L56264 40677
L56253 40690
L56230 40703
L56140 40703
" />
<path d="M56500 40834
L56365 40834
" />
<path d="M56433 40834
L56433 40559
L56410 40598
L56388 40625
L56365 40638
" />
<path d="M56579 40559
L56725 40559
L56646 40664
L56680 40664
L56703 40677
L56714 40690
L56725 40716
L56725 40782
L56714 40808
L56703 40821
L56680 40834
L56613 40834
L56590 40821
L56579 40808
" />
<text x="54537.6" y="44978.1"
textLength="481.721" font-size="314.961" lengthAdjust="spacingAndGlyphs"
text-anchor="middle" opacity="0">J3</text>
<path d="M54458 44689
L54458 44886
L54447 44925
L54425 44951
L54391 44964
L54368 44964
" />
<path d="M54548 44689
L54695 44689
L54616 44794
L54650 44794
L54672 44807
L54683 44820
L54695 44846
L54695 44912
L54683 44938
L54672 44951
L54650 44964
L54582 44964
L54560 44951
L54548 44938
" />
<text x="56397.6" y="37678.1"
textLength="537.964" font-size="314.961" lengthAdjust="spacingAndGlyphs"
text-anchor="middle" opacity="0">D2</text>
<path d="M56223 37664
L56223 37389
L56279 37389
L56313 37402
L56335 37428
L56347 37455
L56358 37507
L56358 37546
L56347 37599
L56335 37625
L56313 37651
L56279 37664
L56223 37664
" />
<path d="M56448 37415
L56459 37402
L56482 37389
L56538 37389
L56560 37402
L56571 37415
L56583 37441
L56583 37468
L56571 37507
L56437 37664
L56583 37664
" />
<text x="58567.6" y="37698.1"
textLength="762.936" font-size="314.961" lengthAdjust="spacingAndGlyphs"
text-anchor="middle" opacity="0">C10</text>
<path d="M58415 37658
L58404 37671
L58370 37684
L58348 37684
L58314 37671
L58292 37645
L58280 37619
L58269 37566
L58269 37527
L58280 37475
L58292 37448
L58314 37422
L58348 37409
L58370 37409
L58404 37422
L58415 37435
" />
<path d="M58640 37684
L58505 37684
" />
<path d="M58573 37684
L58573 37409
L58550 37448
L58528 37475
L58505 37488
" />
<path d="M58786 37409
L58809 37409
L58831 37422
L58843 37435
L58854 37461
L58865 37514
L58865 37580
L58854 37632
L58843 37658
L58831 37671
L58809 37684
L58786 37684
L58764 37671
L58753 37658
L58741 37632
L58730 37580
L58730 37514
L58741 37461
L58753 37435
L58764 37422
L58786 37409
" />
</g>
<g style="fill:#000000; fill-opacity:0.0; 
stroke:#000000; stroke-width:39.3701; stroke-opacity:1; 
stroke-linecap:round; stroke-linejoin:round;">
<text x="57117.6" y="45249.1"
textLength="384.233" font-size="209.974" lengthAdjust="spacingAndGlyphs"
text-anchor="middle" opacity="0">C4</text>
<path d="M57091 45226
L57083 45234
L57061 45241
L57046 45241
L57023 45234
L57008 45219
L57001 45204
L56993 45174
L56993 45151
L57001 45121
L57008 45106
L57023 45091
L57046 45084
L57061 45084
L57083 45091
L57091 45099
" />
<path d="M57226 45136
L57226 45241
" />
<path d="M57188 45076
L57151 45189
L57248 45189
" />
<g transform="rotate(-90 56767.6 43839.6)">
<text x="56767.6" y="43938"
textLength="435.508" font-size="262.467" lengthAdjust="spacingAndGlyphs"
text-anchor="middle" opacity="0">C1</text>
</g>
<path d="M56837 43872
L56847 43881
L56856 43909
L56856 43928
L56847 43956
L56828 43975
L56809 43984
L56772 43994
L56744 43994
L56706 43984
L56687 43975
L56669 43956
L56659 43928
L56659 43909
L56669 43881
L56678 43872
" />
<path d="M56856 43684
L56856 43797
" />
<path d="M56856 43741
L56659 43741
L56687 43759
L56706 43778
L56716 43797
" />
</g>
<g style="fill:#000000; fill-opacity:0.0; 
stroke:#000000; stroke-width:59.0551; stroke-opacity:1; 
stroke-linecap:round; stroke-linejoin:round;">
<g transform="rotate(-90 57247.6 41330.3)">
<text x="57247.6" y="41468.1"
textLength="737.345" font-size="314.961" lengthAdjust="spacingAndGlyphs"
text-anchor="middle" opacity="0">C12</text>
</g>
<path d="M57346 41482
L57359 41493
L57372 41527
L57372 41549
L57359 41583
L57332 41605
L57306 41617
L57254 41628
L57214 41628
L57162 41617
L57136 41605
L57109 41583
L57096 41549
L57096 41527
L57109 41493
L57122 41482
" />
<path d="M57372 41257
L57372 41392
" />
<path d="M57372 41324
L57096 41324
L57136 41347
L57162 41369
L57175 41392
" />
<path d="M57122 41167
L57109 41155
L57096 41133
L57096 41077
L57109 41054
L57122 41043
L57149 41032
L57175 41032
L57214 41043
L57372 41178
L57372 41032
" />
<text x="55727.6" y="49098.1"
textLength="537.964" font-size="314.961" lengthAdjust="spacingAndGlyphs"
text-anchor="middle" opacity="0">R3</text>
<path d="M55688 49084
L55609 48953
" />
<path d="M55553 49084
L55553 48809
L55643 48809
L55665 48822
L55677 48835
L55688 48861
L55688 48901
L55677 48927
L55665 48940
L55643 48953
L55553 48953
" />
<path d="M55767 48809
L55913 48809
L55834 48914
L55868 48914
L55890 48927
L55901 48940
L55913 48966
L55913 49032
L55901 49058
L55890 49071
L55868 49084
L55800 49084
L55778 49071
L55767 49058
" />
<text x="54127.6" y="48598.1"
textLength="537.964" font-size="314.961" lengthAdjust="spacingAndGlyphs"
text-anchor="middle" opacity="0">R6</text>
<path d="M54088 48584
L54009 48453
" />
<path d="M53953 48584
L53953 48309
L54043 48309
L54065 48322
L54077 48335
L54088 48361
L54088 48401
L54077 48427
L54065 48440
L54043 48453
L53953 48453
" />
<path d="M54290 48309
L54245 48309
L54223 48322
L54212 48335
L54189 48375
L54178 48427
L54178 48532
L54189 48558
L54200 48571
L54223 48584
L54268 48584
L54290 48571
L54301 48558
L54313 48532
L54313 48466
L54301 48440
L54290 48427
L54268 48414
L54223 48414
L54200 48427
L54189 48440
L54178 48466
" />
<text x="60237.6" y="37238.1"
textLength="537.964" font-size="314.961" lengthAdjust="spacingAndGlyphs"
text-anchor="middle" opacity="0">R1</text>
<path d="M60198 37224
L60119 37093
" />
<path d="M60063 37224
L60063 36949
L60153 36949
L60175 36962
L60187 36975
L60198 37001
L60198 37041
L60187 37067
L60175 37080
L60153 37093
L60063 37093
" />
<path d="M60423 37224
L60288 37224
" />
<path d="M60355 37224
L60355 36949
L60333 36988
L60310 37015
L60288 37028
" />
<g transform="rotate(-90 62207.6 44700.3)">
<text x="62207.6" y="44838.1"
textLength="537.964" font-size="314.961" lengthAdjust="spacingAndGlyphs"
text-anchor="middle" opacity="0">R9</text>
</g>
<path d="M62332 44739
L62201 44818
" />
<path d="M62332 44874
L62056 44874
L62056 44784
L62069 44762
L62082 44750
L62109 44739
L62148 44739
L62174 44750
L62187 44762
L62201 44784
L62201 44874
" />
<path d="M62332 44627
L62332 44582
L62319 44559
L62306 44548
L62266 44525
L62214 44514
L62109 44514
L62082 44525
L62069 44537
L62056 44559
L62056 44604
L62069 44627
L62082 44638
L62109 44649
L62174 44649
L62201 44638
L62214 44627
L62227 44604
L62227 44559
L62214 44537
L62201 44525
L62174 44514
" />
<text x="62307.6" y="37648.1"
textLength="549.213" font-size="314.961" lengthAdjust="spacingAndGlyphs"
text-anchor="middle" opacity="0">U5</text>
<path d="M62127 37359
L62127 37582
L62138 37608
L62150 37621
L62172 37634
L62217 37634
L62240 37621
L62251 37608
L62262 37582
L62262 37359
" />
<path d="M62487 37359
L62375 37359
L62363 37490
L62375 37477
L62397 37464
L62453 37464
L62476 37477
L62487 37490
L62498 37516
L62498 37582
L62487 37608
L62476 37621
L62453 37634
L62397 37634
L62375 37621
L62363 37608
" />
</g>
<g style="fill:#000000; fill-opacity:0.0; 
stroke:#000000; stroke-width:39.3701; stroke-opacity:1; 
stroke-linecap:round; stroke-linejoin:round;">
<g transform="rotate(-90 56757.6 42970.3)">
<text x="56757.6" y="43068.7"
textLength="461.098" font-size="262.467" lengthAdjust="spacingAndGlyphs"
text-anchor="middle" opacity="0">R2</text>
</g>
<path d="M56846 43003
L56752 43068
" />
<path d="M56846 43115
L56649 43115
L56649 43040
L56659 43021
L56668 43012
L56687 43003
L56715 43003
L56734 43012
L56743 43021
L56752 43040
L56752 43115
" />
<path d="M56668 42928
L56659 42918
L56649 42900
L56649 42853
L56659 42834
L56668 42825
L56687 42815
L56706 42815
L56734 42825
L56846 42937
L56846 42815
" />
<g transform="rotate(-90 56777.6 44590.3)">
<text x="56777.6" y="44688.7"
textLength="435.508" font-size="262.467" lengthAdjust="spacingAndGlyphs"
text-anchor="middle" opacity="0">C5</text>
</g>
<path d="M56847 44623
L56857 44632
L56866 44660
L56866 44679
L56857 44707
L56838 44726
L56819 44735
L56782 44744
L56754 44744
L56716 44735
L56697 44726
L56679 44707
L56669 44679
L56669 44660
L56679 44632
L56688 44623
" />
<path d="M56669 44445
L56669 44538
L56763 44548
L56754 44538
L56744 44520
L56744 44473
L56754 44454
L56763 44445
L56782 44435
L56829 44435
L56847 44445
L56857 44454
L56866 44473
L56866 44520
L56857 44538
L56847 44548
" />
</g>
<g style="fill:#000000; fill-opacity:0.0; 
stroke:#000000; stroke-width:59.0551; stroke-opacity:1; 
stroke-linecap:round; stroke-linejoin:round;">
<text x="57207.6" y="37688.1"
textLength="512.374" font-size="314.961" lengthAdjust="spacingAndGlyphs"
text-anchor="middle" opacity="0">C3</text>
<path d="M57168 37648
L57157 37661
L57123 37674
L57100 37674
L57067 37661
L57044 37635
L57033 37609
L57022 37556
L57022 37517
L57033 37465
L57044 37438
L57067 37412
L57100 37399
L57123 37399
L57157 37412
L57168 37425
" />
<path d="M57247 37399
L57393 37399
L57314 37504
L57348 37504
L57370 37517
L57381 37530
L57393 37556
L57393 37622
L57381 37648
L57370 37661
L57348 37674
L57280 37674
L57258 37661
L57247 37648
" />
<text x="57187.6" y="40848.1"
textLength="537.964" font-size="314.961" lengthAdjust="spacingAndGlyphs"
text-anchor="middle" opacity="0">C2</text>
<path d="M57148 40808
L57137 40821
L57103 40834
L57080 40834
L57047 40821
L57024 40795
L57013 40769
L57002 40716
L57002 40677
L57013 40625
L57024 40598
L57047 40572
L57080 40559
L57103 40559
L57137 40572
L57148 40585
" />
<path d="M57238 40585
L57249 40572
L57272 40559
L57328 40559
L57350 40572
L57361 40585
L57373 40611
L57373 40638
L57361 40677
L57227 40834
L57373 40834
" />
<text x="58597.6" y="40868.1"
textLength="537.964" font-size="314.961" lengthAdjust="spacingAndGlyphs"
text-anchor="middle" opacity="0">C7</text>
<path d="M58558 40828
L58547 40841
L58513 40854
L58490 40854
L58457 40841
L58434 40815
L58423 40789
L58412 40736
L58412 40697
L58423 40645
L58434 40618
L58457 40592
L58490 40579
L58513 40579
L58547 40592
L58558 40605
" />
<path d="M58637 40579
L58794 40579
L58693 40854
" />
<g transform="rotate(-90 62237.6 45980.3)">
<text x="62237.6" y="46118.1"
textLength="537.964" font-size="314.961" lengthAdjust="spacingAndGlyphs"
text-anchor="middle" opacity="0">R4</text>
</g>
<path d="M62362 46019
L62231 46098
" />
<path d="M62362 46154
L62086 46154
L62086 46064
L62099 46042
L62112 46030
L62139 46019
L62178 46019
L62204 46030
L62217 46042
L62231 46064
L62231 46154
" />
<path d="M62178 45817
L62362 45817
" />
<path d="M62073 45873
L62270 45929
L62270 45783
" />
<g >
</g>
</g> 
</svg>
