<?xml version="1.0" standalone="no"?>
 <!DOCTYPE svg PUBLIC "-//W3C//DTD SVG 1.1//EN" 
 "http://www.w3.org/Graphics/SVG/1.1/DTD/svg11.dtd"> 
<svg xmlns="http://www.w3.org/2000/svg" version="1.1" 
    width="29.7002cm" height="21.0007cm" viewBox="0 0 116930 82680 ">
<title>SVG Picture created as ESP32-S2-NPTH-drl_map.svg date 2021/06/10 16:32:57 </title>
  <desc>Picture generated by PCBNEW </desc>
<g style="fill:#000000; fill-opacity:1;stroke:#000000; stroke-opacity:1;
stroke-linecap:round; stroke-linejoin:round; "
 transform="translate(0 0) scale(1 1)">
</g>
<g style="fill:#000000; fill-opacity:0.0; 
stroke:#000000; stroke-width:-0.000393701; stroke-opacity:1; 
stroke-linecap:round; stroke-linejoin:round;">
</g>
<g style="fill:#000000; fill-opacity:0.0; 
stroke:#000000; stroke-width:19.685; stroke-opacity:1; 
stroke-linecap:round; stroke-linejoin:round;">
<path d="M53917 52755
L53917 27000
" />
<path d="M64318 53350
L54507 53346
" />
<path d="M64909 27000
L64909 52759
" />
<path d="M54507 26409
L64318 26409
" />
<path d="M64318.9 53350.4 A590.551 590.551 0.0 0 0 64909.4 52759.8 " />
<path d="M53917.3 52755.9 A590.551 590.551 0.0 0 0 54507.9 53346.5 " />
<path d="M54507.9 26409.4 A590.551 590.551 0.0 0 0 53917.3 27000 " />
<path d="M64909.4 27000 A590.551 590.551 0.0 0 0 64318.9 26409.4 " />
</g>
<g style="fill:#000000; fill-opacity:0.0; 
stroke:#000000; stroke-width:78.7402; stroke-opacity:1; 
stroke-linecap:round; stroke-linejoin:round;">
<path d="M56166 49924
L56442 50200
" />
<path d="M56442 49924
L56166 50200
" />
<path d="M56166 52200
L56442 52475
" />
<path d="M56442 52200
L56166 52475
" />
</g>
<g style="fill:#000000; fill-opacity:0.0; 
stroke:#000000; stroke-width:118.11; stroke-opacity:1; 
stroke-linecap:round; stroke-linejoin:round;">
<text x="54694.9" y="55250"
textLength="8779.53" font-size="1574.8" lengthAdjust="spacingAndGlyphs"
text-anchor="start" opacity="0">Drill Map:</text>
<path d="M55035 55193
L55035 54012
L55316 54012
L55485 54068
L55597 54181
L55653 54293
L55710 54518
L55710 54687
L55653 54912
L55597 55025
L55485 55137
L55316 55193
L55035 55193
" />
<path d="M56216 55193
L56216 54406
" />
<path d="M56216 54631
L56272 54518
L56328 54462
L56441 54406
L56553 54406
" />
<path d="M56947 55193
L56947 54406
" />
<path d="M56947 54012
L56891 54068
L56947 54125
L57003 54068
L56947 54012
L56947 54125
" />
<path d="M57678 55193
L57566 55137
L57509 55025
L57509 54012
" />
<path d="M58297 55193
L58184 55137
L58128 55025
L58128 54012
" />
<path d="M59647 55193
L59647 54012
L60040 54856
L60434 54012
L60434 55193
" />
<path d="M61503 55193
L61503 54575
L61446 54462
L61334 54406
L61109 54406
L60996 54462
" />
<path d="M61503 55137
L61390 55193
L61109 55193
L60996 55137
L60940 55025
L60940 54912
L60996 54800
L61109 54743
L61390 54743
L61503 54687
" />
<path d="M62065 54406
L62065 55587
" />
<path d="M62065 54462
L62178 54406
L62402 54406
L62515 54462
L62571 54518
L62627 54631
L62627 54968
L62571 55081
L62515 55137
L62402 55193
L62178 55193
L62065 55137
" />
<path d="M63134 55081
L63190 55137
L63134 55193
L63077 55137
L63134 55081
L63134 55193
" />
<path d="M63134 54462
L63190 54518
L63134 54575
L63077 54518
L63134 54462
L63134 54575
" />
<path d="M53631 57001
L53907 57277
" />
<path d="M53907 57001
L53631 57277
" />
<text x="54694.9" y="57730.3"
textLength="37126" font-size="1574.8" lengthAdjust="spacingAndGlyphs"
text-anchor="start" opacity="0">0.70mm / 0.028" (2 holes) (not plated)</text>
<path d="M55260 56492
L55372 56492
L55485 56549
L55541 56605
L55597 56717
L55653 56942
L55653 57224
L55597 57449
L55541 57561
L55485 57617
L55372 57674
L55260 57674
L55147 57617
L55091 57561
L55035 57449
L54978 57224
L54978 56942
L55035 56717
L55091 56605
L55147 56549
L55260 56492
" />
<path d="M56160 57561
L56216 57617
L56160 57674
L56103 57617
L56160 57561
L56160 57674
" />
<path d="M56609 56492
L57397 56492
L56891 57674
" />
<path d="M58072 56492
L58184 56492
L58297 56549
L58353 56605
L58409 56717
L58465 56942
L58465 57224
L58409 57449
L58353 57561
L58297 57617
L58184 57674
L58072 57674
L57959 57617
L57903 57561
L57847 57449
L57791 57224
L57791 56942
L57847 56717
L57903 56605
L57959 56549
L58072 56492
" />
<path d="M58972 57674
L58972 56886
" />
<path d="M58972 56999
L59028 56942
L59140 56886
L59309 56886
L59422 56942
L59478 57055
L59478 57674
" />
<path d="M59478 57055
L59534 56942
L59647 56886
L59815 56886
L59928 56942
L59984 57055
L59984 57674
" />
<path d="M60546 57674
L60546 56886
" />
<path d="M60546 56999
L60603 56942
L60715 56886
L60884 56886
L60996 56942
L61053 57055
L61053 57674
" />
<path d="M61053 57055
L61109 56942
L61221 56886
L61390 56886
L61503 56942
L61559 57055
L61559 57674
" />
<path d="M63865 56436
L62852 57955
" />
<path d="M65383 56492
L65496 56492
L65608 56549
L65665 56605
L65721 56717
L65777 56942
L65777 57224
L65721 57449
L65665 57561
L65608 57617
L65496 57674
L65383 57674
L65271 57617
L65215 57561
L65158 57449
L65102 57224
L65102 56942
L65158 56717
L65215 56605
L65271 56549
L65383 56492
" />
<path d="M66283 57561
L66339 57617
L66283 57674
L66227 57617
L66283 57561
L66283 57674
" />
<path d="M67071 56492
L67183 56492
L67296 56549
L67352 56605
L67408 56717
L67464 56942
L67464 57224
L67408 57449
L67352 57561
L67296 57617
L67183 57674
L67071 57674
L66958 57617
L66902 57561
L66846 57449
L66789 57224
L66789 56942
L66846 56717
L66902 56605
L66958 56549
L67071 56492
" />
<path d="M67914 56605
L67971 56549
L68083 56492
L68364 56492
L68477 56549
L68533 56605
L68589 56717
L68589 56830
L68533 56999
L67858 57674
L68589 57674
" />
<path d="M69264 56999
L69152 56942
L69095 56886
L69039 56774
L69039 56717
L69095 56605
L69152 56549
L69264 56492
L69489 56492
L69602 56549
L69658 56605
L69714 56717
L69714 56774
L69658 56886
L69602 56942
L69489 56999
L69264 56999
L69152 57055
L69095 57111
L69039 57224
L69039 57449
L69095 57561
L69152 57617
L69264 57674
L69489 57674
L69602 57617
L69658 57561
L69714 57449
L69714 57224
L69658 57111
L69602 57055
L69489 56999
" />
<path d="M70164 56492
L70164 56717
" />
<path d="M70614 56492
L70614 56717
" />
<path d="M72357 58124
L72301 58067
L72189 57899
L72133 57786
L72076 57617
L72020 57336
L72020 57111
L72076 56830
L72133 56661
L72189 56549
L72301 56380
L72357 56324
" />
<path d="M72751 56605
L72807 56549
L72920 56492
L73201 56492
L73314 56549
L73370 56605
L73426 56717
L73426 56830
L73370 56999
L72695 57674
L73426 57674
" />
<path d="M74832 57674
L74832 56492
" />
<path d="M75338 57674
L75338 57055
L75282 56942
L75170 56886
L75001 56886
L74888 56942
L74832 56999
" />
<path d="M76070 57674
L75957 57617
L75901 57561
L75845 57449
L75845 57111
L75901 56999
L75957 56942
L76070 56886
L76238 56886
L76351 56942
L76407 56999
L76463 57111
L76463 57449
L76407 57561
L76351 57617
L76238 57674
L76070 57674
" />
<path d="M77138 57674
L77026 57617
L76969 57505
L76969 56492
" />
<path d="M78038 57617
L77926 57674
L77701 57674
L77588 57617
L77532 57505
L77532 57055
L77588 56942
L77701 56886
L77926 56886
L78038 56942
L78094 57055
L78094 57167
L77532 57280
" />
<path d="M78544 57617
L78657 57674
L78882 57674
L78994 57617
L79050 57505
L79050 57449
L78994 57336
L78882 57280
L78713 57280
L78600 57224
L78544 57111
L78544 57055
L78600 56942
L78713 56886
L78882 56886
L78994 56942
" />
<path d="M79444 58124
L79500 58067
L79613 57899
L79669 57786
L79725 57617
L79782 57336
L79782 57111
L79725 56830
L79669 56661
L79613 56549
L79500 56380
L79444 56324
" />
<path d="M81581 58124
L81525 58067
L81413 57899
L81356 57786
L81300 57617
L81244 57336
L81244 57111
L81300 56830
L81356 56661
L81413 56549
L81525 56380
L81581 56324
" />
<path d="M82031 56886
L82031 57674
" />
<path d="M82031 56999
L82088 56942
L82200 56886
L82369 56886
L82481 56942
L82537 57055
L82537 57674
" />
<path d="M83269 57674
L83156 57617
L83100 57561
L83044 57449
L83044 57111
L83100 56999
L83156 56942
L83269 56886
L83437 56886
L83550 56942
L83606 56999
L83662 57111
L83662 57449
L83606 57561
L83550 57617
L83437 57674
L83269 57674
" />
<path d="M84000 56886
L84450 56886
" />
<path d="M84169 56492
L84169 57505
L84225 57617
L84337 57674
L84450 57674
" />
<path d="M85743 56886
L85743 58067
" />
<path d="M85743 56942
L85856 56886
L86081 56886
L86193 56942
L86249 56999
L86306 57111
L86306 57449
L86249 57561
L86193 57617
L86081 57674
L85856 57674
L85743 57617
" />
<path d="M86981 57674
L86868 57617
L86812 57505
L86812 56492
" />
<path d="M87937 57674
L87937 57055
L87881 56942
L87768 56886
L87543 56886
L87431 56942
" />
<path d="M87937 57617
L87824 57674
L87543 57674
L87431 57617
L87374 57505
L87374 57392
L87431 57280
L87543 57224
L87824 57224
L87937 57167
" />
<path d="M88330 56886
L88780 56886
" />
<path d="M88499 56492
L88499 57505
L88555 57617
L88668 57674
L88780 57674
" />
<path d="M89624 57617
L89512 57674
L89287 57674
L89174 57617
L89118 57505
L89118 57055
L89174 56942
L89287 56886
L89512 56886
L89624 56942
L89680 57055
L89680 57167
L89118 57280
" />
<path d="M90693 57674
L90693 56492
" />
<path d="M90693 57617
L90580 57674
L90355 57674
L90243 57617
L90187 57561
L90130 57449
L90130 57111
L90187 56999
L90243 56942
L90355 56886
L90580 56886
L90693 56942
" />
<path d="M91143 58124
L91199 58067
L91311 57899
L91368 57786
L91424 57617
L91480 57336
L91480 57111
L91424 56830
L91368 56661
L91311 56549
L91199 56380
L91143 56324
" />
</g> 
</svg>
