%FSLAX45Y45*%
G04 Gerber Fmt 4.5, Leading zero omitted, Abs format (unit mm)*
G04 Created by KiCad (PCBNEW 5.1.5+dfsg1-2build2) date 2021-06-10 16:32:59*
%MOMM*%
%LPD*%
G04 APERTURE LIST*
%TA.AperFunction,Profile*%
%ADD10C,0.050000*%
%TD*%
%ADD11C,0.200000*%
%ADD12C,0.300000*%
G04 APERTURE END LIST*
D10*
X13695000Y-13400000D02*
X13695000Y-6858000D01*
X16337000Y-13551000D02*
X13845000Y-13550000D01*
X16487000Y-6858000D02*
X16487000Y-13401000D01*
X13845000Y-6708000D02*
X16337000Y-6708000D01*
X16487000Y-13401000D02*
G75*
G02X16337000Y-13551000I-150000J0D01*
G01*
X13845000Y-13550000D02*
G75*
G02X13695000Y-13400000I0J150000D01*
G01*
X13695000Y-6858000D02*
G75*
G02X13845000Y-6708000I150000J0D01*
G01*
X16337000Y-6708000D02*
G75*
G02X16487000Y-6858000I0J-150000D01*
G01*
D11*
X13843990Y-12259710D02*
X13883990Y-12299710D01*
X13883990Y-12259710D02*
X13843990Y-12299710D01*
X14020266Y-11083944D02*
X14060266Y-11123944D01*
X14060266Y-11083944D02*
X14020266Y-11123944D01*
X14021282Y-11310766D02*
X14061282Y-11350766D01*
X14061282Y-11310766D02*
X14021282Y-11350766D01*
X14025092Y-12062098D02*
X14065092Y-12102098D01*
X14065092Y-12062098D02*
X14025092Y-12102098D01*
X14028140Y-11599310D02*
X14068140Y-11639310D01*
X14068140Y-11599310D02*
X14028140Y-11639310D01*
X14142441Y-12901060D02*
X14182441Y-12941060D01*
X14182441Y-12901060D02*
X14142441Y-12941060D01*
X14291538Y-11846198D02*
X14331538Y-11886198D01*
X14331538Y-11846198D02*
X14291538Y-11886198D01*
X14303952Y-10598772D02*
X14343952Y-10638772D01*
X14343952Y-10598772D02*
X14303952Y-10638772D01*
X14310080Y-9431420D02*
X14350080Y-9471420D01*
X14350080Y-9431420D02*
X14310080Y-9471420D01*
X14317700Y-10383920D02*
X14357700Y-10423920D01*
X14357700Y-10383920D02*
X14317700Y-10423920D01*
X14339798Y-8749938D02*
X14379798Y-8789938D01*
X14379798Y-8749938D02*
X14339798Y-8789938D01*
X14340814Y-8598808D02*
X14380814Y-8638808D01*
X14380814Y-8598808D02*
X14340814Y-8638808D01*
X14341322Y-8452250D02*
X14381322Y-8492250D01*
X14381322Y-8452250D02*
X14341322Y-8492250D01*
X14346910Y-6801250D02*
X14386910Y-6841250D01*
X14386910Y-6801250D02*
X14346910Y-6841250D01*
X14347164Y-7112400D02*
X14387164Y-7152400D01*
X14387164Y-7112400D02*
X14347164Y-7152400D01*
X14401520Y-11924430D02*
X14441520Y-11964430D01*
X14441520Y-11924430D02*
X14401520Y-11964430D01*
X14412294Y-10950622D02*
X14452294Y-10990622D01*
X14452294Y-10950622D02*
X14412294Y-10990622D01*
X14420990Y-12241266D02*
X14460990Y-12281266D01*
X14460990Y-12241266D02*
X14420990Y-12281266D01*
X14482038Y-11024254D02*
X14522038Y-11064254D01*
X14522038Y-11024254D02*
X14482038Y-11064254D01*
X14552039Y-8598554D02*
X14592039Y-8638554D01*
X14592039Y-8598554D02*
X14552039Y-8638554D01*
X14552650Y-12339974D02*
X14592650Y-12379974D01*
X14592650Y-12339974D02*
X14552650Y-12379974D01*
X14612340Y-12056256D02*
X14652340Y-12096256D01*
X14652340Y-12056256D02*
X14612340Y-12096256D01*
X14613610Y-11800478D02*
X14653610Y-11840478D01*
X14653610Y-11800478D02*
X14613610Y-11840478D01*
X14626508Y-11549272D02*
X14666508Y-11589272D01*
X14666508Y-11549272D02*
X14626508Y-11589272D01*
X14656028Y-10601344D02*
X14696028Y-10641344D01*
X14696028Y-10601344D02*
X14656028Y-10641344D01*
X14691334Y-9916052D02*
X14731334Y-9956052D01*
X14731334Y-9916052D02*
X14691334Y-9956052D01*
X14696160Y-9431420D02*
X14736160Y-9471420D01*
X14736160Y-9431420D02*
X14696160Y-9471420D01*
X14705470Y-7370630D02*
X14745470Y-7410630D01*
X14745470Y-7370630D02*
X14705470Y-7410630D01*
X14705470Y-7520630D02*
X14745470Y-7560630D01*
X14745470Y-7520630D02*
X14705470Y-7560630D01*
X14705470Y-7670630D02*
X14745470Y-7710630D01*
X14745470Y-7670630D02*
X14705470Y-7710630D01*
X14705470Y-7820630D02*
X14745470Y-7860630D01*
X14745470Y-7820630D02*
X14705470Y-7860630D01*
X14794204Y-11927732D02*
X14834204Y-11967732D01*
X14834204Y-11927732D02*
X14794204Y-11967732D01*
X14794204Y-12064384D02*
X14834204Y-12104384D01*
X14834204Y-12064384D02*
X14794204Y-12104384D01*
X14840432Y-12565272D02*
X14880432Y-12605272D01*
X14880432Y-12565272D02*
X14840432Y-12605272D01*
X14855470Y-7370630D02*
X14895470Y-7410630D01*
X14895470Y-7370630D02*
X14855470Y-7410630D01*
X14855470Y-7520630D02*
X14895470Y-7560630D01*
X14895470Y-7520630D02*
X14855470Y-7560630D01*
X14855470Y-7670630D02*
X14895470Y-7710630D01*
X14895470Y-7670630D02*
X14855470Y-7710630D01*
X14855470Y-7820630D02*
X14895470Y-7860630D01*
X14895470Y-7820630D02*
X14855470Y-7860630D01*
X14863800Y-9920370D02*
X14903800Y-9960370D01*
X14903800Y-9920370D02*
X14863800Y-9960370D01*
X14940000Y-10477900D02*
X14980000Y-10517900D01*
X14980000Y-10477900D02*
X14940000Y-10517900D01*
X14956510Y-13293490D02*
X14996510Y-13333490D01*
X14996510Y-13293490D02*
X14956510Y-13333490D01*
X15005470Y-7370630D02*
X15045470Y-7410630D01*
X15045470Y-7370630D02*
X15005470Y-7410630D01*
X15005470Y-7520630D02*
X15045470Y-7560630D01*
X15045470Y-7520630D02*
X15005470Y-7560630D01*
X15005470Y-7670630D02*
X15045470Y-7710630D01*
X15045470Y-7670630D02*
X15005470Y-7710630D01*
X15005470Y-7820630D02*
X15045470Y-7860630D01*
X15045470Y-7820630D02*
X15005470Y-7860630D01*
X15064968Y-9281052D02*
X15104968Y-9321052D01*
X15104968Y-9281052D02*
X15064968Y-9321052D01*
X15078407Y-12222880D02*
X15118407Y-12262880D01*
X15118407Y-12222880D02*
X15078407Y-12262880D01*
X15079700Y-11457070D02*
X15119700Y-11497070D01*
X15119700Y-11457070D02*
X15079700Y-11497070D01*
X15101250Y-9685290D02*
X15141250Y-9725290D01*
X15141250Y-9685290D02*
X15101250Y-9725290D01*
X15101250Y-9915290D02*
X15141250Y-9955290D01*
X15141250Y-9915290D02*
X15101250Y-9955290D01*
X15132532Y-10610488D02*
X15172532Y-10650488D01*
X15172532Y-10610488D02*
X15132532Y-10650488D01*
X15155470Y-7370630D02*
X15195470Y-7410630D01*
X15195470Y-7370630D02*
X15155470Y-7410630D01*
X15155470Y-7520630D02*
X15195470Y-7560630D01*
X15195470Y-7520630D02*
X15155470Y-7560630D01*
X15155470Y-7670630D02*
X15195470Y-7710630D01*
X15195470Y-7670630D02*
X15155470Y-7710630D01*
X15155470Y-7820630D02*
X15195470Y-7860630D01*
X15195470Y-7820630D02*
X15155470Y-7860630D01*
X15213050Y-13293490D02*
X15253050Y-13333490D01*
X15253050Y-13293490D02*
X15213050Y-13333490D01*
X15260548Y-10607948D02*
X15300548Y-10647948D01*
X15300548Y-10607948D02*
X15260548Y-10647948D01*
X15272740Y-11455800D02*
X15312740Y-11495800D01*
X15312740Y-11455800D02*
X15272740Y-11495800D01*
X15345130Y-12718180D02*
X15385130Y-12758180D01*
X15385130Y-12718180D02*
X15345130Y-12758180D01*
X15373070Y-12183764D02*
X15413070Y-12223764D01*
X15413070Y-12183764D02*
X15373070Y-12223764D01*
X15479750Y-12187574D02*
X15519750Y-12227574D01*
X15519750Y-12187574D02*
X15479750Y-12227574D01*
X15526232Y-10358520D02*
X15566232Y-10398520D01*
X15566232Y-10358520D02*
X15526232Y-10398520D01*
X15675030Y-12081910D02*
X15715030Y-12121910D01*
X15715030Y-12081910D02*
X15675030Y-12121910D01*
X15692348Y-8594744D02*
X15732348Y-8634744D01*
X15732348Y-8594744D02*
X15692348Y-8634744D01*
X15692348Y-8898528D02*
X15732348Y-8938528D01*
X15732348Y-8898528D02*
X15692348Y-8938528D01*
X15692602Y-8748922D02*
X15732602Y-8788922D01*
X15732602Y-8748922D02*
X15692602Y-8788922D01*
X15694126Y-6948062D02*
X15734126Y-6988062D01*
X15734126Y-6948062D02*
X15694126Y-6988062D01*
X15695396Y-8449710D02*
X15735396Y-8489710D01*
X15735396Y-8449710D02*
X15695396Y-8489710D01*
X15697428Y-7548010D02*
X15737428Y-7588010D01*
X15737428Y-7548010D02*
X15697428Y-7588010D01*
X15698444Y-7397134D02*
X15738444Y-7437134D01*
X15738444Y-7397134D02*
X15698444Y-7437134D01*
X15705810Y-10693292D02*
X15745810Y-10733292D01*
X15745810Y-10693292D02*
X15705810Y-10733292D01*
X15732480Y-9815976D02*
X15772480Y-9855976D01*
X15772480Y-9815976D02*
X15732480Y-9855976D01*
X15732480Y-10010032D02*
X15772480Y-10050032D01*
X15772480Y-10010032D02*
X15732480Y-10050032D01*
X15758331Y-10896549D02*
X15798331Y-10936549D01*
X15798331Y-10896549D02*
X15758331Y-10936549D01*
X15768040Y-11043050D02*
X15808040Y-11083050D01*
X15808040Y-11043050D02*
X15768040Y-11083050D01*
X15769310Y-11239900D02*
X15809310Y-11279900D01*
X15809310Y-11239900D02*
X15769310Y-11279900D01*
X15851352Y-11928494D02*
X15891352Y-11968494D01*
X15891352Y-11928494D02*
X15851352Y-11968494D01*
X15877260Y-9188596D02*
X15917260Y-9228596D01*
X15917260Y-9188596D02*
X15877260Y-9228596D01*
X13968880Y-12572880D02*
G75*
G03X13968880Y-12572880I-32500J0D01*
G01*
X13966380Y-12550380D02*
X13906380Y-12550380D01*
X13966380Y-12595380D02*
X13906380Y-12595380D01*
X13906380Y-12550380D02*
G75*
G03X13906380Y-12595380I0J-22500D01*
G01*
X13966380Y-12595380D02*
G75*
G03X13966380Y-12550380I0J22500D01*
G01*
X13968880Y-13436880D02*
G75*
G03X13968880Y-13436880I-32500J0D01*
G01*
X13966380Y-13414380D02*
X13906380Y-13414380D01*
X13966380Y-13459380D02*
X13906380Y-13459380D01*
X13906380Y-13414380D02*
G75*
G03X13906380Y-13459380I0J-22500D01*
G01*
X13966380Y-13459380D02*
G75*
G03X13966380Y-13414380I0J22500D01*
G01*
X14386880Y-12572880D02*
G75*
G03X14386880Y-12572880I-32500J0D01*
G01*
X14409380Y-12550380D02*
X14299380Y-12550380D01*
X14409380Y-12595380D02*
X14299380Y-12595380D01*
X14299380Y-12550380D02*
G75*
G03X14299380Y-12595380I0J-22500D01*
G01*
X14409380Y-12595380D02*
G75*
G03X14409380Y-12550380I0J22500D01*
G01*
X14386880Y-13436880D02*
G75*
G03X14386880Y-13436880I-32500J0D01*
G01*
X14409380Y-13414380D02*
X14299380Y-13414380D01*
X14409380Y-13459380D02*
X14299380Y-13459380D01*
X14299380Y-13414380D02*
G75*
G03X14299380Y-13459380I0J-22500D01*
G01*
X14409380Y-13459380D02*
G75*
G03X14409380Y-13414380I0J22500D01*
G01*
X15991240Y-12656060D02*
X15991240Y-12748060D01*
X15945240Y-12702060D02*
X16037240Y-12702060D01*
X15991240Y-12856060D02*
X15991240Y-12948060D01*
X15945240Y-12902060D02*
X16037240Y-12902060D01*
X15991240Y-13056060D02*
X15991240Y-13148060D01*
X15945240Y-13102060D02*
X16037240Y-13102060D01*
X15991240Y-13256060D02*
X15991240Y-13348060D01*
X15945240Y-13302060D02*
X16037240Y-13302060D01*
X13880356Y-6902856D02*
X13880356Y-6832144D01*
X13809644Y-6832144D01*
X13809644Y-6902856D01*
X13880356Y-6902856D01*
X13880356Y-7156856D02*
X13880356Y-7086144D01*
X13809644Y-7086144D01*
X13809644Y-7156856D01*
X13880356Y-7156856D01*
X13880356Y-7410856D02*
X13880356Y-7340144D01*
X13809644Y-7340144D01*
X13809644Y-7410856D01*
X13880356Y-7410856D01*
X13880356Y-7664856D02*
X13880356Y-7594144D01*
X13809644Y-7594144D01*
X13809644Y-7664856D01*
X13880356Y-7664856D01*
X13880356Y-7918856D02*
X13880356Y-7848144D01*
X13809644Y-7848144D01*
X13809644Y-7918856D01*
X13880356Y-7918856D01*
X13880356Y-8172856D02*
X13880356Y-8102144D01*
X13809644Y-8102144D01*
X13809644Y-8172856D01*
X13880356Y-8172856D01*
X13880356Y-8426856D02*
X13880356Y-8356144D01*
X13809644Y-8356144D01*
X13809644Y-8426856D01*
X13880356Y-8426856D01*
X13880356Y-8680856D02*
X13880356Y-8610144D01*
X13809644Y-8610144D01*
X13809644Y-8680856D01*
X13880356Y-8680856D01*
X13880356Y-8934856D02*
X13880356Y-8864144D01*
X13809644Y-8864144D01*
X13809644Y-8934856D01*
X13880356Y-8934856D01*
X13880356Y-9188856D02*
X13880356Y-9118144D01*
X13809644Y-9118144D01*
X13809644Y-9188856D01*
X13880356Y-9188856D01*
X13880356Y-9442856D02*
X13880356Y-9372144D01*
X13809644Y-9372144D01*
X13809644Y-9442856D01*
X13880356Y-9442856D01*
X13880356Y-9696856D02*
X13880356Y-9626144D01*
X13809644Y-9626144D01*
X13809644Y-9696856D01*
X13880356Y-9696856D01*
X13880356Y-9950856D02*
X13880356Y-9880144D01*
X13809644Y-9880144D01*
X13809644Y-9950856D01*
X13880356Y-9950856D01*
X13880356Y-10204856D02*
X13880356Y-10134144D01*
X13809644Y-10134144D01*
X13809644Y-10204856D01*
X13880356Y-10204856D01*
X13880356Y-10458856D02*
X13880356Y-10388144D01*
X13809644Y-10388144D01*
X13809644Y-10458856D01*
X13880356Y-10458856D01*
X13880356Y-10712856D02*
X13880356Y-10642144D01*
X13809644Y-10642144D01*
X13809644Y-10712856D01*
X13880356Y-10712856D01*
X13880356Y-10966856D02*
X13880356Y-10896144D01*
X13809644Y-10896144D01*
X13809644Y-10966856D01*
X13880356Y-10966856D01*
X13880356Y-11220856D02*
X13880356Y-11150144D01*
X13809644Y-11150144D01*
X13809644Y-11220856D01*
X13880356Y-11220856D01*
X16359356Y-6902856D02*
X16359356Y-6832144D01*
X16288644Y-6832144D01*
X16288644Y-6902856D01*
X16359356Y-6902856D01*
X16359356Y-7156856D02*
X16359356Y-7086144D01*
X16288644Y-7086144D01*
X16288644Y-7156856D01*
X16359356Y-7156856D01*
X16359356Y-7410856D02*
X16359356Y-7340144D01*
X16288644Y-7340144D01*
X16288644Y-7410856D01*
X16359356Y-7410856D01*
X16359356Y-7664856D02*
X16359356Y-7594144D01*
X16288644Y-7594144D01*
X16288644Y-7664856D01*
X16359356Y-7664856D01*
X16359356Y-7918856D02*
X16359356Y-7848144D01*
X16288644Y-7848144D01*
X16288644Y-7918856D01*
X16359356Y-7918856D01*
X16359356Y-8172856D02*
X16359356Y-8102144D01*
X16288644Y-8102144D01*
X16288644Y-8172856D01*
X16359356Y-8172856D01*
X16359356Y-8426856D02*
X16359356Y-8356144D01*
X16288644Y-8356144D01*
X16288644Y-8426856D01*
X16359356Y-8426856D01*
X16359356Y-8680856D02*
X16359356Y-8610144D01*
X16288644Y-8610144D01*
X16288644Y-8680856D01*
X16359356Y-8680856D01*
X16359356Y-8934856D02*
X16359356Y-8864144D01*
X16288644Y-8864144D01*
X16288644Y-8934856D01*
X16359356Y-8934856D01*
X16359356Y-9188856D02*
X16359356Y-9118144D01*
X16288644Y-9118144D01*
X16288644Y-9188856D01*
X16359356Y-9188856D01*
X16359356Y-9442856D02*
X16359356Y-9372144D01*
X16288644Y-9372144D01*
X16288644Y-9442856D01*
X16359356Y-9442856D01*
X16359356Y-9696856D02*
X16359356Y-9626144D01*
X16288644Y-9626144D01*
X16288644Y-9696856D01*
X16359356Y-9696856D01*
X16359356Y-9950856D02*
X16359356Y-9880144D01*
X16288644Y-9880144D01*
X16288644Y-9950856D01*
X16359356Y-9950856D01*
X16359356Y-10204856D02*
X16359356Y-10134144D01*
X16288644Y-10134144D01*
X16288644Y-10204856D01*
X16359356Y-10204856D01*
X16359356Y-10458856D02*
X16359356Y-10388144D01*
X16288644Y-10388144D01*
X16288644Y-10458856D01*
X16359356Y-10458856D01*
X16359356Y-10712856D02*
X16359356Y-10642144D01*
X16288644Y-10642144D01*
X16288644Y-10712856D01*
X16359356Y-10712856D01*
X16359356Y-10966856D02*
X16359356Y-10896144D01*
X16288644Y-10896144D01*
X16288644Y-10966856D01*
X16359356Y-10966856D01*
X16359356Y-11220856D02*
X16359356Y-11150144D01*
X16288644Y-11150144D01*
X16288644Y-11220856D01*
X16359356Y-11220856D01*
X16359356Y-11474856D02*
X16359356Y-11404144D01*
X16288644Y-11404144D01*
X16288644Y-11474856D01*
X16359356Y-11474856D01*
X16359356Y-11728856D02*
X16359356Y-11658144D01*
X16288644Y-11658144D01*
X16288644Y-11728856D01*
X16359356Y-11728856D01*
X16359356Y-11982856D02*
X16359356Y-11912144D01*
X16288644Y-11912144D01*
X16288644Y-11982856D01*
X16359356Y-11982856D01*
X16359356Y-12236856D02*
X16359356Y-12166144D01*
X16288644Y-12166144D01*
X16288644Y-12236856D01*
X16359356Y-12236856D01*
X15719240Y-12750060D02*
X15794240Y-12675060D01*
X15719240Y-12600060D01*
X15644240Y-12675060D01*
X15719240Y-12750060D01*
X15719240Y-13450060D02*
X15794240Y-13375060D01*
X15719240Y-13300060D01*
X15644240Y-13375060D01*
X15719240Y-13450060D01*
X16263240Y-12750060D02*
X16338240Y-12675060D01*
X16263240Y-12600060D01*
X16188240Y-12675060D01*
X16263240Y-12750060D01*
X16263240Y-13450060D02*
X16338240Y-13375060D01*
X16263240Y-13300060D01*
X16188240Y-13375060D01*
X16263240Y-13450060D01*
D12*
X13978928Y-14019214D02*
X13978928Y-13719214D01*
X14050357Y-13719214D01*
X14093214Y-13733500D01*
X14121786Y-13762071D01*
X14136071Y-13790643D01*
X14150357Y-13847786D01*
X14150357Y-13890643D01*
X14136071Y-13947786D01*
X14121786Y-13976357D01*
X14093214Y-14004929D01*
X14050357Y-14019214D01*
X13978928Y-14019214D01*
X14278928Y-14019214D02*
X14278928Y-13819214D01*
X14278928Y-13876357D02*
X14293214Y-13847786D01*
X14307500Y-13833500D01*
X14336071Y-13819214D01*
X14364643Y-13819214D01*
X14464643Y-14019214D02*
X14464643Y-13819214D01*
X14464643Y-13719214D02*
X14450357Y-13733500D01*
X14464643Y-13747786D01*
X14478928Y-13733500D01*
X14464643Y-13719214D01*
X14464643Y-13747786D01*
X14650357Y-14019214D02*
X14621786Y-14004929D01*
X14607500Y-13976357D01*
X14607500Y-13719214D01*
X14807500Y-14019214D02*
X14778928Y-14004929D01*
X14764643Y-13976357D01*
X14764643Y-13719214D01*
X15150357Y-14019214D02*
X15150357Y-13719214D01*
X15250357Y-13933500D01*
X15350357Y-13719214D01*
X15350357Y-14019214D01*
X15621786Y-14019214D02*
X15621786Y-13862071D01*
X15607500Y-13833500D01*
X15578928Y-13819214D01*
X15521786Y-13819214D01*
X15493214Y-13833500D01*
X15621786Y-14004929D02*
X15593214Y-14019214D01*
X15521786Y-14019214D01*
X15493214Y-14004929D01*
X15478928Y-13976357D01*
X15478928Y-13947786D01*
X15493214Y-13919214D01*
X15521786Y-13904929D01*
X15593214Y-13904929D01*
X15621786Y-13890643D01*
X15764643Y-13819214D02*
X15764643Y-14119214D01*
X15764643Y-13833500D02*
X15793214Y-13819214D01*
X15850357Y-13819214D01*
X15878928Y-13833500D01*
X15893214Y-13847786D01*
X15907500Y-13876357D01*
X15907500Y-13962071D01*
X15893214Y-13990643D01*
X15878928Y-14004929D01*
X15850357Y-14019214D01*
X15793214Y-14019214D01*
X15764643Y-14004929D01*
X16036071Y-13990643D02*
X16050357Y-14004929D01*
X16036071Y-14019214D01*
X16021786Y-14004929D01*
X16036071Y-13990643D01*
X16036071Y-14019214D01*
X16036071Y-13833500D02*
X16050357Y-13847786D01*
X16036071Y-13862071D01*
X16021786Y-13847786D01*
X16036071Y-13833500D01*
X16036071Y-13862071D01*
X13652500Y-14493500D02*
X13692500Y-14533500D01*
X13692500Y-14493500D02*
X13652500Y-14533500D01*
X14036071Y-14349214D02*
X14064643Y-14349214D01*
X14093214Y-14363500D01*
X14107500Y-14377786D01*
X14121786Y-14406357D01*
X14136071Y-14463500D01*
X14136071Y-14534929D01*
X14121786Y-14592071D01*
X14107500Y-14620643D01*
X14093214Y-14634929D01*
X14064643Y-14649214D01*
X14036071Y-14649214D01*
X14007500Y-14634929D01*
X13993214Y-14620643D01*
X13978928Y-14592071D01*
X13964643Y-14534929D01*
X13964643Y-14463500D01*
X13978928Y-14406357D01*
X13993214Y-14377786D01*
X14007500Y-14363500D01*
X14036071Y-14349214D01*
X14264643Y-14620643D02*
X14278928Y-14634929D01*
X14264643Y-14649214D01*
X14250357Y-14634929D01*
X14264643Y-14620643D01*
X14264643Y-14649214D01*
X14536071Y-14449214D02*
X14536071Y-14649214D01*
X14464643Y-14334929D02*
X14393214Y-14549214D01*
X14578928Y-14549214D01*
X14750357Y-14349214D02*
X14778928Y-14349214D01*
X14807500Y-14363500D01*
X14821786Y-14377786D01*
X14836071Y-14406357D01*
X14850357Y-14463500D01*
X14850357Y-14534929D01*
X14836071Y-14592071D01*
X14821786Y-14620643D01*
X14807500Y-14634929D01*
X14778928Y-14649214D01*
X14750357Y-14649214D01*
X14721786Y-14634929D01*
X14707500Y-14620643D01*
X14693214Y-14592071D01*
X14678928Y-14534929D01*
X14678928Y-14463500D01*
X14693214Y-14406357D01*
X14707500Y-14377786D01*
X14721786Y-14363500D01*
X14750357Y-14349214D01*
X14978928Y-14649214D02*
X14978928Y-14449214D01*
X14978928Y-14477786D02*
X14993214Y-14463500D01*
X15021786Y-14449214D01*
X15064643Y-14449214D01*
X15093214Y-14463500D01*
X15107500Y-14492071D01*
X15107500Y-14649214D01*
X15107500Y-14492071D02*
X15121786Y-14463500D01*
X15150357Y-14449214D01*
X15193214Y-14449214D01*
X15221786Y-14463500D01*
X15236071Y-14492071D01*
X15236071Y-14649214D01*
X15378928Y-14649214D02*
X15378928Y-14449214D01*
X15378928Y-14477786D02*
X15393214Y-14463500D01*
X15421786Y-14449214D01*
X15464643Y-14449214D01*
X15493214Y-14463500D01*
X15507500Y-14492071D01*
X15507500Y-14649214D01*
X15507500Y-14492071D02*
X15521786Y-14463500D01*
X15550357Y-14449214D01*
X15593214Y-14449214D01*
X15621786Y-14463500D01*
X15636071Y-14492071D01*
X15636071Y-14649214D01*
X16221786Y-14334929D02*
X15964643Y-14720643D01*
X16607500Y-14349214D02*
X16636071Y-14349214D01*
X16664643Y-14363500D01*
X16678928Y-14377786D01*
X16693214Y-14406357D01*
X16707500Y-14463500D01*
X16707500Y-14534929D01*
X16693214Y-14592071D01*
X16678928Y-14620643D01*
X16664643Y-14634929D01*
X16636071Y-14649214D01*
X16607500Y-14649214D01*
X16578928Y-14634929D01*
X16564643Y-14620643D01*
X16550357Y-14592071D01*
X16536071Y-14534929D01*
X16536071Y-14463500D01*
X16550357Y-14406357D01*
X16564643Y-14377786D01*
X16578928Y-14363500D01*
X16607500Y-14349214D01*
X16836071Y-14620643D02*
X16850357Y-14634929D01*
X16836071Y-14649214D01*
X16821786Y-14634929D01*
X16836071Y-14620643D01*
X16836071Y-14649214D01*
X17036071Y-14349214D02*
X17064643Y-14349214D01*
X17093214Y-14363500D01*
X17107500Y-14377786D01*
X17121786Y-14406357D01*
X17136071Y-14463500D01*
X17136071Y-14534929D01*
X17121786Y-14592071D01*
X17107500Y-14620643D01*
X17093214Y-14634929D01*
X17064643Y-14649214D01*
X17036071Y-14649214D01*
X17007500Y-14634929D01*
X16993214Y-14620643D01*
X16978928Y-14592071D01*
X16964643Y-14534929D01*
X16964643Y-14463500D01*
X16978928Y-14406357D01*
X16993214Y-14377786D01*
X17007500Y-14363500D01*
X17036071Y-14349214D01*
X17421786Y-14649214D02*
X17250357Y-14649214D01*
X17336071Y-14649214D02*
X17336071Y-14349214D01*
X17307500Y-14392071D01*
X17278928Y-14420643D01*
X17250357Y-14434929D01*
X17678928Y-14349214D02*
X17621786Y-14349214D01*
X17593214Y-14363500D01*
X17578928Y-14377786D01*
X17550357Y-14420643D01*
X17536071Y-14477786D01*
X17536071Y-14592071D01*
X17550357Y-14620643D01*
X17564643Y-14634929D01*
X17593214Y-14649214D01*
X17650357Y-14649214D01*
X17678928Y-14634929D01*
X17693214Y-14620643D01*
X17707500Y-14592071D01*
X17707500Y-14520643D01*
X17693214Y-14492071D01*
X17678928Y-14477786D01*
X17650357Y-14463500D01*
X17593214Y-14463500D01*
X17564643Y-14477786D01*
X17550357Y-14492071D01*
X17536071Y-14520643D01*
X17821786Y-14349214D02*
X17821786Y-14406357D01*
X17936071Y-14349214D02*
X17936071Y-14406357D01*
X18378928Y-14763500D02*
X18364643Y-14749214D01*
X18336071Y-14706357D01*
X18321786Y-14677786D01*
X18307500Y-14634929D01*
X18293214Y-14563500D01*
X18293214Y-14506357D01*
X18307500Y-14434929D01*
X18321786Y-14392071D01*
X18336071Y-14363500D01*
X18364643Y-14320643D01*
X18378928Y-14306357D01*
X18464643Y-14349214D02*
X18664643Y-14349214D01*
X18536071Y-14649214D01*
X18821786Y-14477786D02*
X18793214Y-14463500D01*
X18778928Y-14449214D01*
X18764643Y-14420643D01*
X18764643Y-14406357D01*
X18778928Y-14377786D01*
X18793214Y-14363500D01*
X18821786Y-14349214D01*
X18878928Y-14349214D01*
X18907500Y-14363500D01*
X18921786Y-14377786D01*
X18936071Y-14406357D01*
X18936071Y-14420643D01*
X18921786Y-14449214D01*
X18907500Y-14463500D01*
X18878928Y-14477786D01*
X18821786Y-14477786D01*
X18793214Y-14492071D01*
X18778928Y-14506357D01*
X18764643Y-14534929D01*
X18764643Y-14592071D01*
X18778928Y-14620643D01*
X18793214Y-14634929D01*
X18821786Y-14649214D01*
X18878928Y-14649214D01*
X18907500Y-14634929D01*
X18921786Y-14620643D01*
X18936071Y-14592071D01*
X18936071Y-14534929D01*
X18921786Y-14506357D01*
X18907500Y-14492071D01*
X18878928Y-14477786D01*
X19293214Y-14649214D02*
X19293214Y-14349214D01*
X19421786Y-14649214D02*
X19421786Y-14492071D01*
X19407500Y-14463500D01*
X19378928Y-14449214D01*
X19336071Y-14449214D01*
X19307500Y-14463500D01*
X19293214Y-14477786D01*
X19607500Y-14649214D02*
X19578928Y-14634929D01*
X19564643Y-14620643D01*
X19550357Y-14592071D01*
X19550357Y-14506357D01*
X19564643Y-14477786D01*
X19578928Y-14463500D01*
X19607500Y-14449214D01*
X19650357Y-14449214D01*
X19678928Y-14463500D01*
X19693214Y-14477786D01*
X19707500Y-14506357D01*
X19707500Y-14592071D01*
X19693214Y-14620643D01*
X19678928Y-14634929D01*
X19650357Y-14649214D01*
X19607500Y-14649214D01*
X19878928Y-14649214D02*
X19850357Y-14634929D01*
X19836071Y-14606357D01*
X19836071Y-14349214D01*
X20107500Y-14634929D02*
X20078928Y-14649214D01*
X20021786Y-14649214D01*
X19993214Y-14634929D01*
X19978928Y-14606357D01*
X19978928Y-14492071D01*
X19993214Y-14463500D01*
X20021786Y-14449214D01*
X20078928Y-14449214D01*
X20107500Y-14463500D01*
X20121786Y-14492071D01*
X20121786Y-14520643D01*
X19978928Y-14549214D01*
X20236071Y-14634929D02*
X20264643Y-14649214D01*
X20321786Y-14649214D01*
X20350357Y-14634929D01*
X20364643Y-14606357D01*
X20364643Y-14592071D01*
X20350357Y-14563500D01*
X20321786Y-14549214D01*
X20278928Y-14549214D01*
X20250357Y-14534929D01*
X20236071Y-14506357D01*
X20236071Y-14492071D01*
X20250357Y-14463500D01*
X20278928Y-14449214D01*
X20321786Y-14449214D01*
X20350357Y-14463500D01*
X20464643Y-14763500D02*
X20478928Y-14749214D01*
X20507500Y-14706357D01*
X20521786Y-14677786D01*
X20536071Y-14634929D01*
X20550357Y-14563500D01*
X20550357Y-14506357D01*
X20536071Y-14434929D01*
X20521786Y-14392071D01*
X20507500Y-14363500D01*
X20478928Y-14320643D01*
X20464643Y-14306357D01*
X13692500Y-14909500D02*
G75*
G03X13692500Y-14909500I-32500J0D01*
G01*
X14036071Y-14745214D02*
X14064643Y-14745214D01*
X14093214Y-14759500D01*
X14107500Y-14773786D01*
X14121786Y-14802357D01*
X14136071Y-14859500D01*
X14136071Y-14930929D01*
X14121786Y-14988071D01*
X14107500Y-15016643D01*
X14093214Y-15030929D01*
X14064643Y-15045214D01*
X14036071Y-15045214D01*
X14007500Y-15030929D01*
X13993214Y-15016643D01*
X13978928Y-14988071D01*
X13964643Y-14930929D01*
X13964643Y-14859500D01*
X13978928Y-14802357D01*
X13993214Y-14773786D01*
X14007500Y-14759500D01*
X14036071Y-14745214D01*
X14264643Y-15016643D02*
X14278928Y-15030929D01*
X14264643Y-15045214D01*
X14250357Y-15030929D01*
X14264643Y-15016643D01*
X14264643Y-15045214D01*
X14536071Y-14745214D02*
X14478928Y-14745214D01*
X14450357Y-14759500D01*
X14436071Y-14773786D01*
X14407500Y-14816643D01*
X14393214Y-14873786D01*
X14393214Y-14988071D01*
X14407500Y-15016643D01*
X14421786Y-15030929D01*
X14450357Y-15045214D01*
X14507500Y-15045214D01*
X14536071Y-15030929D01*
X14550357Y-15016643D01*
X14564643Y-14988071D01*
X14564643Y-14916643D01*
X14550357Y-14888071D01*
X14536071Y-14873786D01*
X14507500Y-14859500D01*
X14450357Y-14859500D01*
X14421786Y-14873786D01*
X14407500Y-14888071D01*
X14393214Y-14916643D01*
X14836071Y-14745214D02*
X14693214Y-14745214D01*
X14678928Y-14888071D01*
X14693214Y-14873786D01*
X14721786Y-14859500D01*
X14793214Y-14859500D01*
X14821786Y-14873786D01*
X14836071Y-14888071D01*
X14850357Y-14916643D01*
X14850357Y-14988071D01*
X14836071Y-15016643D01*
X14821786Y-15030929D01*
X14793214Y-15045214D01*
X14721786Y-15045214D01*
X14693214Y-15030929D01*
X14678928Y-15016643D01*
X14978928Y-15045214D02*
X14978928Y-14845214D01*
X14978928Y-14873786D02*
X14993214Y-14859500D01*
X15021786Y-14845214D01*
X15064643Y-14845214D01*
X15093214Y-14859500D01*
X15107500Y-14888071D01*
X15107500Y-15045214D01*
X15107500Y-14888071D02*
X15121786Y-14859500D01*
X15150357Y-14845214D01*
X15193214Y-14845214D01*
X15221786Y-14859500D01*
X15236071Y-14888071D01*
X15236071Y-15045214D01*
X15378928Y-15045214D02*
X15378928Y-14845214D01*
X15378928Y-14873786D02*
X15393214Y-14859500D01*
X15421786Y-14845214D01*
X15464643Y-14845214D01*
X15493214Y-14859500D01*
X15507500Y-14888071D01*
X15507500Y-15045214D01*
X15507500Y-14888071D02*
X15521786Y-14859500D01*
X15550357Y-14845214D01*
X15593214Y-14845214D01*
X15621786Y-14859500D01*
X15636071Y-14888071D01*
X15636071Y-15045214D01*
X16221786Y-14730929D02*
X15964643Y-15116643D01*
X16607500Y-14745214D02*
X16636071Y-14745214D01*
X16664643Y-14759500D01*
X16678928Y-14773786D01*
X16693214Y-14802357D01*
X16707500Y-14859500D01*
X16707500Y-14930929D01*
X16693214Y-14988071D01*
X16678928Y-15016643D01*
X16664643Y-15030929D01*
X16636071Y-15045214D01*
X16607500Y-15045214D01*
X16578928Y-15030929D01*
X16564643Y-15016643D01*
X16550357Y-14988071D01*
X16536071Y-14930929D01*
X16536071Y-14859500D01*
X16550357Y-14802357D01*
X16564643Y-14773786D01*
X16578928Y-14759500D01*
X16607500Y-14745214D01*
X16836071Y-15016643D02*
X16850357Y-15030929D01*
X16836071Y-15045214D01*
X16821786Y-15030929D01*
X16836071Y-15016643D01*
X16836071Y-15045214D01*
X17036071Y-14745214D02*
X17064643Y-14745214D01*
X17093214Y-14759500D01*
X17107500Y-14773786D01*
X17121786Y-14802357D01*
X17136071Y-14859500D01*
X17136071Y-14930929D01*
X17121786Y-14988071D01*
X17107500Y-15016643D01*
X17093214Y-15030929D01*
X17064643Y-15045214D01*
X17036071Y-15045214D01*
X17007500Y-15030929D01*
X16993214Y-15016643D01*
X16978928Y-14988071D01*
X16964643Y-14930929D01*
X16964643Y-14859500D01*
X16978928Y-14802357D01*
X16993214Y-14773786D01*
X17007500Y-14759500D01*
X17036071Y-14745214D01*
X17250357Y-14773786D02*
X17264643Y-14759500D01*
X17293214Y-14745214D01*
X17364643Y-14745214D01*
X17393214Y-14759500D01*
X17407500Y-14773786D01*
X17421786Y-14802357D01*
X17421786Y-14830929D01*
X17407500Y-14873786D01*
X17236071Y-15045214D01*
X17421786Y-15045214D01*
X17678928Y-14745214D02*
X17621786Y-14745214D01*
X17593214Y-14759500D01*
X17578928Y-14773786D01*
X17550357Y-14816643D01*
X17536071Y-14873786D01*
X17536071Y-14988071D01*
X17550357Y-15016643D01*
X17564643Y-15030929D01*
X17593214Y-15045214D01*
X17650357Y-15045214D01*
X17678928Y-15030929D01*
X17693214Y-15016643D01*
X17707500Y-14988071D01*
X17707500Y-14916643D01*
X17693214Y-14888071D01*
X17678928Y-14873786D01*
X17650357Y-14859500D01*
X17593214Y-14859500D01*
X17564643Y-14873786D01*
X17550357Y-14888071D01*
X17536071Y-14916643D01*
X17821786Y-14745214D02*
X17821786Y-14802357D01*
X17936071Y-14745214D02*
X17936071Y-14802357D01*
X18378928Y-15159500D02*
X18364643Y-15145214D01*
X18336071Y-15102357D01*
X18321786Y-15073786D01*
X18307500Y-15030929D01*
X18293214Y-14959500D01*
X18293214Y-14902357D01*
X18307500Y-14830929D01*
X18321786Y-14788071D01*
X18336071Y-14759500D01*
X18364643Y-14716643D01*
X18378928Y-14702357D01*
X18550357Y-14745214D02*
X18578928Y-14745214D01*
X18607500Y-14759500D01*
X18621786Y-14773786D01*
X18636071Y-14802357D01*
X18650357Y-14859500D01*
X18650357Y-14930929D01*
X18636071Y-14988071D01*
X18621786Y-15016643D01*
X18607500Y-15030929D01*
X18578928Y-15045214D01*
X18550357Y-15045214D01*
X18521786Y-15030929D01*
X18507500Y-15016643D01*
X18493214Y-14988071D01*
X18478928Y-14930929D01*
X18478928Y-14859500D01*
X18493214Y-14802357D01*
X18507500Y-14773786D01*
X18521786Y-14759500D01*
X18550357Y-14745214D01*
X19007500Y-15045214D02*
X19007500Y-14745214D01*
X19136071Y-15045214D02*
X19136071Y-14888071D01*
X19121786Y-14859500D01*
X19093214Y-14845214D01*
X19050357Y-14845214D01*
X19021786Y-14859500D01*
X19007500Y-14873786D01*
X19321786Y-15045214D02*
X19293214Y-15030929D01*
X19278928Y-15016643D01*
X19264643Y-14988071D01*
X19264643Y-14902357D01*
X19278928Y-14873786D01*
X19293214Y-14859500D01*
X19321786Y-14845214D01*
X19364643Y-14845214D01*
X19393214Y-14859500D01*
X19407500Y-14873786D01*
X19421786Y-14902357D01*
X19421786Y-14988071D01*
X19407500Y-15016643D01*
X19393214Y-15030929D01*
X19364643Y-15045214D01*
X19321786Y-15045214D01*
X19593214Y-15045214D02*
X19564643Y-15030929D01*
X19550357Y-15002357D01*
X19550357Y-14745214D01*
X19821786Y-15030929D02*
X19793214Y-15045214D01*
X19736071Y-15045214D01*
X19707500Y-15030929D01*
X19693214Y-15002357D01*
X19693214Y-14888071D01*
X19707500Y-14859500D01*
X19736071Y-14845214D01*
X19793214Y-14845214D01*
X19821786Y-14859500D01*
X19836071Y-14888071D01*
X19836071Y-14916643D01*
X19693214Y-14945214D01*
X19950357Y-15030929D02*
X19978928Y-15045214D01*
X20036071Y-15045214D01*
X20064643Y-15030929D01*
X20078928Y-15002357D01*
X20078928Y-14988071D01*
X20064643Y-14959500D01*
X20036071Y-14945214D01*
X19993214Y-14945214D01*
X19964643Y-14930929D01*
X19950357Y-14902357D01*
X19950357Y-14888071D01*
X19964643Y-14859500D01*
X19993214Y-14845214D01*
X20036071Y-14845214D01*
X20064643Y-14859500D01*
X20436071Y-14930929D02*
X20664643Y-14930929D01*
X20550357Y-15045214D02*
X20550357Y-14816643D01*
X21164643Y-14845214D02*
X21164643Y-15045214D01*
X21093214Y-14730929D02*
X21021786Y-14945214D01*
X21207500Y-14945214D01*
X21536071Y-15030929D02*
X21564643Y-15045214D01*
X21621786Y-15045214D01*
X21650357Y-15030929D01*
X21664643Y-15002357D01*
X21664643Y-14988071D01*
X21650357Y-14959500D01*
X21621786Y-14945214D01*
X21578928Y-14945214D01*
X21550357Y-14930929D01*
X21536071Y-14902357D01*
X21536071Y-14888071D01*
X21550357Y-14859500D01*
X21578928Y-14845214D01*
X21621786Y-14845214D01*
X21650357Y-14859500D01*
X21836071Y-15045214D02*
X21807500Y-15030929D01*
X21793214Y-15002357D01*
X21793214Y-14745214D01*
X21993214Y-15045214D02*
X21964643Y-15030929D01*
X21950357Y-15016643D01*
X21936071Y-14988071D01*
X21936071Y-14902357D01*
X21950357Y-14873786D01*
X21964643Y-14859500D01*
X21993214Y-14845214D01*
X22036071Y-14845214D01*
X22064643Y-14859500D01*
X22078928Y-14873786D01*
X22093214Y-14902357D01*
X22093214Y-14988071D01*
X22078928Y-15016643D01*
X22064643Y-15030929D01*
X22036071Y-15045214D01*
X21993214Y-15045214D01*
X22178928Y-14845214D02*
X22293214Y-14845214D01*
X22221786Y-14745214D02*
X22221786Y-15002357D01*
X22236071Y-15030929D01*
X22264643Y-15045214D01*
X22293214Y-15045214D01*
X22378928Y-15030929D02*
X22407500Y-15045214D01*
X22464643Y-15045214D01*
X22493214Y-15030929D01*
X22507500Y-15002357D01*
X22507500Y-14988071D01*
X22493214Y-14959500D01*
X22464643Y-14945214D01*
X22421786Y-14945214D01*
X22393214Y-14930929D01*
X22378928Y-14902357D01*
X22378928Y-14888071D01*
X22393214Y-14859500D01*
X22421786Y-14845214D01*
X22464643Y-14845214D01*
X22493214Y-14859500D01*
X22607500Y-15159500D02*
X22621786Y-15145214D01*
X22650357Y-15102357D01*
X22664643Y-15073786D01*
X22678928Y-15030929D01*
X22693214Y-14959500D01*
X22693214Y-14902357D01*
X22678928Y-14830929D01*
X22664643Y-14788071D01*
X22650357Y-14759500D01*
X22621786Y-14716643D01*
X22607500Y-14702357D01*
X13646500Y-15259500D02*
X13646500Y-15351500D01*
X13600500Y-15305500D02*
X13692500Y-15305500D01*
X14036071Y-15141214D02*
X14064643Y-15141214D01*
X14093214Y-15155500D01*
X14107500Y-15169786D01*
X14121786Y-15198357D01*
X14136071Y-15255500D01*
X14136071Y-15326929D01*
X14121786Y-15384071D01*
X14107500Y-15412643D01*
X14093214Y-15426929D01*
X14064643Y-15441214D01*
X14036071Y-15441214D01*
X14007500Y-15426929D01*
X13993214Y-15412643D01*
X13978928Y-15384071D01*
X13964643Y-15326929D01*
X13964643Y-15255500D01*
X13978928Y-15198357D01*
X13993214Y-15169786D01*
X14007500Y-15155500D01*
X14036071Y-15141214D01*
X14264643Y-15412643D02*
X14278928Y-15426929D01*
X14264643Y-15441214D01*
X14250357Y-15426929D01*
X14264643Y-15412643D01*
X14264643Y-15441214D01*
X14421786Y-15441214D02*
X14478928Y-15441214D01*
X14507500Y-15426929D01*
X14521786Y-15412643D01*
X14550357Y-15369786D01*
X14564643Y-15312643D01*
X14564643Y-15198357D01*
X14550357Y-15169786D01*
X14536071Y-15155500D01*
X14507500Y-15141214D01*
X14450357Y-15141214D01*
X14421786Y-15155500D01*
X14407500Y-15169786D01*
X14393214Y-15198357D01*
X14393214Y-15269786D01*
X14407500Y-15298357D01*
X14421786Y-15312643D01*
X14450357Y-15326929D01*
X14507500Y-15326929D01*
X14536071Y-15312643D01*
X14550357Y-15298357D01*
X14564643Y-15269786D01*
X14678928Y-15169786D02*
X14693214Y-15155500D01*
X14721786Y-15141214D01*
X14793214Y-15141214D01*
X14821786Y-15155500D01*
X14836071Y-15169786D01*
X14850357Y-15198357D01*
X14850357Y-15226929D01*
X14836071Y-15269786D01*
X14664643Y-15441214D01*
X14850357Y-15441214D01*
X14978928Y-15441214D02*
X14978928Y-15241214D01*
X14978928Y-15269786D02*
X14993214Y-15255500D01*
X15021786Y-15241214D01*
X15064643Y-15241214D01*
X15093214Y-15255500D01*
X15107500Y-15284071D01*
X15107500Y-15441214D01*
X15107500Y-15284071D02*
X15121786Y-15255500D01*
X15150357Y-15241214D01*
X15193214Y-15241214D01*
X15221786Y-15255500D01*
X15236071Y-15284071D01*
X15236071Y-15441214D01*
X15378928Y-15441214D02*
X15378928Y-15241214D01*
X15378928Y-15269786D02*
X15393214Y-15255500D01*
X15421786Y-15241214D01*
X15464643Y-15241214D01*
X15493214Y-15255500D01*
X15507500Y-15284071D01*
X15507500Y-15441214D01*
X15507500Y-15284071D02*
X15521786Y-15255500D01*
X15550357Y-15241214D01*
X15593214Y-15241214D01*
X15621786Y-15255500D01*
X15636071Y-15284071D01*
X15636071Y-15441214D01*
X16221786Y-15126929D02*
X15964643Y-15512643D01*
X16607500Y-15141214D02*
X16636071Y-15141214D01*
X16664643Y-15155500D01*
X16678928Y-15169786D01*
X16693214Y-15198357D01*
X16707500Y-15255500D01*
X16707500Y-15326929D01*
X16693214Y-15384071D01*
X16678928Y-15412643D01*
X16664643Y-15426929D01*
X16636071Y-15441214D01*
X16607500Y-15441214D01*
X16578928Y-15426929D01*
X16564643Y-15412643D01*
X16550357Y-15384071D01*
X16536071Y-15326929D01*
X16536071Y-15255500D01*
X16550357Y-15198357D01*
X16564643Y-15169786D01*
X16578928Y-15155500D01*
X16607500Y-15141214D01*
X16836071Y-15412643D02*
X16850357Y-15426929D01*
X16836071Y-15441214D01*
X16821786Y-15426929D01*
X16836071Y-15412643D01*
X16836071Y-15441214D01*
X17036071Y-15141214D02*
X17064643Y-15141214D01*
X17093214Y-15155500D01*
X17107500Y-15169786D01*
X17121786Y-15198357D01*
X17136071Y-15255500D01*
X17136071Y-15326929D01*
X17121786Y-15384071D01*
X17107500Y-15412643D01*
X17093214Y-15426929D01*
X17064643Y-15441214D01*
X17036071Y-15441214D01*
X17007500Y-15426929D01*
X16993214Y-15412643D01*
X16978928Y-15384071D01*
X16964643Y-15326929D01*
X16964643Y-15255500D01*
X16978928Y-15198357D01*
X16993214Y-15169786D01*
X17007500Y-15155500D01*
X17036071Y-15141214D01*
X17236071Y-15141214D02*
X17421786Y-15141214D01*
X17321786Y-15255500D01*
X17364643Y-15255500D01*
X17393214Y-15269786D01*
X17407500Y-15284071D01*
X17421786Y-15312643D01*
X17421786Y-15384071D01*
X17407500Y-15412643D01*
X17393214Y-15426929D01*
X17364643Y-15441214D01*
X17278928Y-15441214D01*
X17250357Y-15426929D01*
X17236071Y-15412643D01*
X17678928Y-15141214D02*
X17621786Y-15141214D01*
X17593214Y-15155500D01*
X17578928Y-15169786D01*
X17550357Y-15212643D01*
X17536071Y-15269786D01*
X17536071Y-15384071D01*
X17550357Y-15412643D01*
X17564643Y-15426929D01*
X17593214Y-15441214D01*
X17650357Y-15441214D01*
X17678928Y-15426929D01*
X17693214Y-15412643D01*
X17707500Y-15384071D01*
X17707500Y-15312643D01*
X17693214Y-15284071D01*
X17678928Y-15269786D01*
X17650357Y-15255500D01*
X17593214Y-15255500D01*
X17564643Y-15269786D01*
X17550357Y-15284071D01*
X17536071Y-15312643D01*
X17821786Y-15141214D02*
X17821786Y-15198357D01*
X17936071Y-15141214D02*
X17936071Y-15198357D01*
X18378928Y-15555500D02*
X18364643Y-15541214D01*
X18336071Y-15498357D01*
X18321786Y-15469786D01*
X18307500Y-15426929D01*
X18293214Y-15355500D01*
X18293214Y-15298357D01*
X18307500Y-15226929D01*
X18321786Y-15184071D01*
X18336071Y-15155500D01*
X18364643Y-15112643D01*
X18378928Y-15098357D01*
X18621786Y-15241214D02*
X18621786Y-15441214D01*
X18550357Y-15126929D02*
X18478928Y-15341214D01*
X18664643Y-15341214D01*
X19007500Y-15441214D02*
X19007500Y-15141214D01*
X19136071Y-15441214D02*
X19136071Y-15284071D01*
X19121786Y-15255500D01*
X19093214Y-15241214D01*
X19050357Y-15241214D01*
X19021786Y-15255500D01*
X19007500Y-15269786D01*
X19321786Y-15441214D02*
X19293214Y-15426929D01*
X19278928Y-15412643D01*
X19264643Y-15384071D01*
X19264643Y-15298357D01*
X19278928Y-15269786D01*
X19293214Y-15255500D01*
X19321786Y-15241214D01*
X19364643Y-15241214D01*
X19393214Y-15255500D01*
X19407500Y-15269786D01*
X19421786Y-15298357D01*
X19421786Y-15384071D01*
X19407500Y-15412643D01*
X19393214Y-15426929D01*
X19364643Y-15441214D01*
X19321786Y-15441214D01*
X19593214Y-15441214D02*
X19564643Y-15426929D01*
X19550357Y-15398357D01*
X19550357Y-15141214D01*
X19821786Y-15426929D02*
X19793214Y-15441214D01*
X19736071Y-15441214D01*
X19707500Y-15426929D01*
X19693214Y-15398357D01*
X19693214Y-15284071D01*
X19707500Y-15255500D01*
X19736071Y-15241214D01*
X19793214Y-15241214D01*
X19821786Y-15255500D01*
X19836071Y-15284071D01*
X19836071Y-15312643D01*
X19693214Y-15341214D01*
X19950357Y-15426929D02*
X19978928Y-15441214D01*
X20036071Y-15441214D01*
X20064643Y-15426929D01*
X20078928Y-15398357D01*
X20078928Y-15384071D01*
X20064643Y-15355500D01*
X20036071Y-15341214D01*
X19993214Y-15341214D01*
X19964643Y-15326929D01*
X19950357Y-15298357D01*
X19950357Y-15284071D01*
X19964643Y-15255500D01*
X19993214Y-15241214D01*
X20036071Y-15241214D01*
X20064643Y-15255500D01*
X20178928Y-15555500D02*
X20193214Y-15541214D01*
X20221786Y-15498357D01*
X20236071Y-15469786D01*
X20250357Y-15426929D01*
X20264643Y-15355500D01*
X20264643Y-15298357D01*
X20250357Y-15226929D01*
X20236071Y-15184071D01*
X20221786Y-15155500D01*
X20193214Y-15112643D01*
X20178928Y-15098357D01*
X13677856Y-15736856D02*
X13677856Y-15666144D01*
X13607144Y-15666144D01*
X13607144Y-15736856D01*
X13677856Y-15736856D01*
X14136071Y-15837214D02*
X13964643Y-15837214D01*
X14050357Y-15837214D02*
X14050357Y-15537214D01*
X14021786Y-15580071D01*
X13993214Y-15608643D01*
X13964643Y-15622929D01*
X14264643Y-15808643D02*
X14278928Y-15822929D01*
X14264643Y-15837214D01*
X14250357Y-15822929D01*
X14264643Y-15808643D01*
X14264643Y-15837214D01*
X14464643Y-15537214D02*
X14493214Y-15537214D01*
X14521786Y-15551500D01*
X14536071Y-15565786D01*
X14550357Y-15594357D01*
X14564643Y-15651500D01*
X14564643Y-15722929D01*
X14550357Y-15780071D01*
X14536071Y-15808643D01*
X14521786Y-15822929D01*
X14493214Y-15837214D01*
X14464643Y-15837214D01*
X14436071Y-15822929D01*
X14421786Y-15808643D01*
X14407500Y-15780071D01*
X14393214Y-15722929D01*
X14393214Y-15651500D01*
X14407500Y-15594357D01*
X14421786Y-15565786D01*
X14436071Y-15551500D01*
X14464643Y-15537214D01*
X14750357Y-15537214D02*
X14778928Y-15537214D01*
X14807500Y-15551500D01*
X14821786Y-15565786D01*
X14836071Y-15594357D01*
X14850357Y-15651500D01*
X14850357Y-15722929D01*
X14836071Y-15780071D01*
X14821786Y-15808643D01*
X14807500Y-15822929D01*
X14778928Y-15837214D01*
X14750357Y-15837214D01*
X14721786Y-15822929D01*
X14707500Y-15808643D01*
X14693214Y-15780071D01*
X14678928Y-15722929D01*
X14678928Y-15651500D01*
X14693214Y-15594357D01*
X14707500Y-15565786D01*
X14721786Y-15551500D01*
X14750357Y-15537214D01*
X14978928Y-15837214D02*
X14978928Y-15637214D01*
X14978928Y-15665786D02*
X14993214Y-15651500D01*
X15021786Y-15637214D01*
X15064643Y-15637214D01*
X15093214Y-15651500D01*
X15107500Y-15680071D01*
X15107500Y-15837214D01*
X15107500Y-15680071D02*
X15121786Y-15651500D01*
X15150357Y-15637214D01*
X15193214Y-15637214D01*
X15221786Y-15651500D01*
X15236071Y-15680071D01*
X15236071Y-15837214D01*
X15378928Y-15837214D02*
X15378928Y-15637214D01*
X15378928Y-15665786D02*
X15393214Y-15651500D01*
X15421786Y-15637214D01*
X15464643Y-15637214D01*
X15493214Y-15651500D01*
X15507500Y-15680071D01*
X15507500Y-15837214D01*
X15507500Y-15680071D02*
X15521786Y-15651500D01*
X15550357Y-15637214D01*
X15593214Y-15637214D01*
X15621786Y-15651500D01*
X15636071Y-15680071D01*
X15636071Y-15837214D01*
X16221786Y-15522929D02*
X15964643Y-15908643D01*
X16607500Y-15537214D02*
X16636071Y-15537214D01*
X16664643Y-15551500D01*
X16678928Y-15565786D01*
X16693214Y-15594357D01*
X16707500Y-15651500D01*
X16707500Y-15722929D01*
X16693214Y-15780071D01*
X16678928Y-15808643D01*
X16664643Y-15822929D01*
X16636071Y-15837214D01*
X16607500Y-15837214D01*
X16578928Y-15822929D01*
X16564643Y-15808643D01*
X16550357Y-15780071D01*
X16536071Y-15722929D01*
X16536071Y-15651500D01*
X16550357Y-15594357D01*
X16564643Y-15565786D01*
X16578928Y-15551500D01*
X16607500Y-15537214D01*
X16836071Y-15808643D02*
X16850357Y-15822929D01*
X16836071Y-15837214D01*
X16821786Y-15822929D01*
X16836071Y-15808643D01*
X16836071Y-15837214D01*
X17036071Y-15537214D02*
X17064643Y-15537214D01*
X17093214Y-15551500D01*
X17107500Y-15565786D01*
X17121786Y-15594357D01*
X17136071Y-15651500D01*
X17136071Y-15722929D01*
X17121786Y-15780071D01*
X17107500Y-15808643D01*
X17093214Y-15822929D01*
X17064643Y-15837214D01*
X17036071Y-15837214D01*
X17007500Y-15822929D01*
X16993214Y-15808643D01*
X16978928Y-15780071D01*
X16964643Y-15722929D01*
X16964643Y-15651500D01*
X16978928Y-15594357D01*
X16993214Y-15565786D01*
X17007500Y-15551500D01*
X17036071Y-15537214D01*
X17236071Y-15537214D02*
X17421786Y-15537214D01*
X17321786Y-15651500D01*
X17364643Y-15651500D01*
X17393214Y-15665786D01*
X17407500Y-15680071D01*
X17421786Y-15708643D01*
X17421786Y-15780071D01*
X17407500Y-15808643D01*
X17393214Y-15822929D01*
X17364643Y-15837214D01*
X17278928Y-15837214D01*
X17250357Y-15822929D01*
X17236071Y-15808643D01*
X17564643Y-15837214D02*
X17621786Y-15837214D01*
X17650357Y-15822929D01*
X17664643Y-15808643D01*
X17693214Y-15765786D01*
X17707500Y-15708643D01*
X17707500Y-15594357D01*
X17693214Y-15565786D01*
X17678928Y-15551500D01*
X17650357Y-15537214D01*
X17593214Y-15537214D01*
X17564643Y-15551500D01*
X17550357Y-15565786D01*
X17536071Y-15594357D01*
X17536071Y-15665786D01*
X17550357Y-15694357D01*
X17564643Y-15708643D01*
X17593214Y-15722929D01*
X17650357Y-15722929D01*
X17678928Y-15708643D01*
X17693214Y-15694357D01*
X17707500Y-15665786D01*
X17821786Y-15537214D02*
X17821786Y-15594357D01*
X17936071Y-15537214D02*
X17936071Y-15594357D01*
X18378928Y-15951500D02*
X18364643Y-15937214D01*
X18336071Y-15894357D01*
X18321786Y-15865786D01*
X18307500Y-15822929D01*
X18293214Y-15751500D01*
X18293214Y-15694357D01*
X18307500Y-15622929D01*
X18321786Y-15580071D01*
X18336071Y-15551500D01*
X18364643Y-15508643D01*
X18378928Y-15494357D01*
X18621786Y-15637214D02*
X18621786Y-15837214D01*
X18550357Y-15522929D02*
X18478928Y-15737214D01*
X18664643Y-15737214D01*
X18836071Y-15537214D02*
X18864643Y-15537214D01*
X18893214Y-15551500D01*
X18907500Y-15565786D01*
X18921786Y-15594357D01*
X18936071Y-15651500D01*
X18936071Y-15722929D01*
X18921786Y-15780071D01*
X18907500Y-15808643D01*
X18893214Y-15822929D01*
X18864643Y-15837214D01*
X18836071Y-15837214D01*
X18807500Y-15822929D01*
X18793214Y-15808643D01*
X18778928Y-15780071D01*
X18764643Y-15722929D01*
X18764643Y-15651500D01*
X18778928Y-15594357D01*
X18793214Y-15565786D01*
X18807500Y-15551500D01*
X18836071Y-15537214D01*
X19293214Y-15837214D02*
X19293214Y-15537214D01*
X19421786Y-15837214D02*
X19421786Y-15680071D01*
X19407500Y-15651500D01*
X19378928Y-15637214D01*
X19336071Y-15637214D01*
X19307500Y-15651500D01*
X19293214Y-15665786D01*
X19607500Y-15837214D02*
X19578928Y-15822929D01*
X19564643Y-15808643D01*
X19550357Y-15780071D01*
X19550357Y-15694357D01*
X19564643Y-15665786D01*
X19578928Y-15651500D01*
X19607500Y-15637214D01*
X19650357Y-15637214D01*
X19678928Y-15651500D01*
X19693214Y-15665786D01*
X19707500Y-15694357D01*
X19707500Y-15780071D01*
X19693214Y-15808643D01*
X19678928Y-15822929D01*
X19650357Y-15837214D01*
X19607500Y-15837214D01*
X19878928Y-15837214D02*
X19850357Y-15822929D01*
X19836071Y-15794357D01*
X19836071Y-15537214D01*
X20107500Y-15822929D02*
X20078928Y-15837214D01*
X20021786Y-15837214D01*
X19993214Y-15822929D01*
X19978928Y-15794357D01*
X19978928Y-15680071D01*
X19993214Y-15651500D01*
X20021786Y-15637214D01*
X20078928Y-15637214D01*
X20107500Y-15651500D01*
X20121786Y-15680071D01*
X20121786Y-15708643D01*
X19978928Y-15737214D01*
X20236071Y-15822929D02*
X20264643Y-15837214D01*
X20321786Y-15837214D01*
X20350357Y-15822929D01*
X20364643Y-15794357D01*
X20364643Y-15780071D01*
X20350357Y-15751500D01*
X20321786Y-15737214D01*
X20278928Y-15737214D01*
X20250357Y-15722929D01*
X20236071Y-15694357D01*
X20236071Y-15680071D01*
X20250357Y-15651500D01*
X20278928Y-15637214D01*
X20321786Y-15637214D01*
X20350357Y-15651500D01*
X20464643Y-15951500D02*
X20478928Y-15937214D01*
X20507500Y-15894357D01*
X20521786Y-15865786D01*
X20536071Y-15822929D01*
X20550357Y-15751500D01*
X20550357Y-15694357D01*
X20536071Y-15622929D01*
X20521786Y-15580071D01*
X20507500Y-15551500D01*
X20478928Y-15508643D01*
X20464643Y-15494357D01*
X13617500Y-16172500D02*
X13692500Y-16097500D01*
X13617500Y-16022500D01*
X13542500Y-16097500D01*
X13617500Y-16172500D01*
X14136071Y-16233214D02*
X13964643Y-16233214D01*
X14050357Y-16233214D02*
X14050357Y-15933214D01*
X14021786Y-15976071D01*
X13993214Y-16004643D01*
X13964643Y-16018929D01*
X14264643Y-16204643D02*
X14278928Y-16218929D01*
X14264643Y-16233214D01*
X14250357Y-16218929D01*
X14264643Y-16204643D01*
X14264643Y-16233214D01*
X14550357Y-15933214D02*
X14407500Y-15933214D01*
X14393214Y-16076071D01*
X14407500Y-16061786D01*
X14436071Y-16047500D01*
X14507500Y-16047500D01*
X14536071Y-16061786D01*
X14550357Y-16076071D01*
X14564643Y-16104643D01*
X14564643Y-16176071D01*
X14550357Y-16204643D01*
X14536071Y-16218929D01*
X14507500Y-16233214D01*
X14436071Y-16233214D01*
X14407500Y-16218929D01*
X14393214Y-16204643D01*
X14750357Y-15933214D02*
X14778928Y-15933214D01*
X14807500Y-15947500D01*
X14821786Y-15961786D01*
X14836071Y-15990357D01*
X14850357Y-16047500D01*
X14850357Y-16118929D01*
X14836071Y-16176071D01*
X14821786Y-16204643D01*
X14807500Y-16218929D01*
X14778928Y-16233214D01*
X14750357Y-16233214D01*
X14721786Y-16218929D01*
X14707500Y-16204643D01*
X14693214Y-16176071D01*
X14678928Y-16118929D01*
X14678928Y-16047500D01*
X14693214Y-15990357D01*
X14707500Y-15961786D01*
X14721786Y-15947500D01*
X14750357Y-15933214D01*
X14978928Y-16233214D02*
X14978928Y-16033214D01*
X14978928Y-16061786D02*
X14993214Y-16047500D01*
X15021786Y-16033214D01*
X15064643Y-16033214D01*
X15093214Y-16047500D01*
X15107500Y-16076071D01*
X15107500Y-16233214D01*
X15107500Y-16076071D02*
X15121786Y-16047500D01*
X15150357Y-16033214D01*
X15193214Y-16033214D01*
X15221786Y-16047500D01*
X15236071Y-16076071D01*
X15236071Y-16233214D01*
X15378928Y-16233214D02*
X15378928Y-16033214D01*
X15378928Y-16061786D02*
X15393214Y-16047500D01*
X15421786Y-16033214D01*
X15464643Y-16033214D01*
X15493214Y-16047500D01*
X15507500Y-16076071D01*
X15507500Y-16233214D01*
X15507500Y-16076071D02*
X15521786Y-16047500D01*
X15550357Y-16033214D01*
X15593214Y-16033214D01*
X15621786Y-16047500D01*
X15636071Y-16076071D01*
X15636071Y-16233214D01*
X16221786Y-15918929D02*
X15964643Y-16304643D01*
X16607500Y-15933214D02*
X16636071Y-15933214D01*
X16664643Y-15947500D01*
X16678928Y-15961786D01*
X16693214Y-15990357D01*
X16707500Y-16047500D01*
X16707500Y-16118929D01*
X16693214Y-16176071D01*
X16678928Y-16204643D01*
X16664643Y-16218929D01*
X16636071Y-16233214D01*
X16607500Y-16233214D01*
X16578928Y-16218929D01*
X16564643Y-16204643D01*
X16550357Y-16176071D01*
X16536071Y-16118929D01*
X16536071Y-16047500D01*
X16550357Y-15990357D01*
X16564643Y-15961786D01*
X16578928Y-15947500D01*
X16607500Y-15933214D01*
X16836071Y-16204643D02*
X16850357Y-16218929D01*
X16836071Y-16233214D01*
X16821786Y-16218929D01*
X16836071Y-16204643D01*
X16836071Y-16233214D01*
X17036071Y-15933214D02*
X17064643Y-15933214D01*
X17093214Y-15947500D01*
X17107500Y-15961786D01*
X17121786Y-15990357D01*
X17136071Y-16047500D01*
X17136071Y-16118929D01*
X17121786Y-16176071D01*
X17107500Y-16204643D01*
X17093214Y-16218929D01*
X17064643Y-16233214D01*
X17036071Y-16233214D01*
X17007500Y-16218929D01*
X16993214Y-16204643D01*
X16978928Y-16176071D01*
X16964643Y-16118929D01*
X16964643Y-16047500D01*
X16978928Y-15990357D01*
X16993214Y-15961786D01*
X17007500Y-15947500D01*
X17036071Y-15933214D01*
X17407500Y-15933214D02*
X17264643Y-15933214D01*
X17250357Y-16076071D01*
X17264643Y-16061786D01*
X17293214Y-16047500D01*
X17364643Y-16047500D01*
X17393214Y-16061786D01*
X17407500Y-16076071D01*
X17421786Y-16104643D01*
X17421786Y-16176071D01*
X17407500Y-16204643D01*
X17393214Y-16218929D01*
X17364643Y-16233214D01*
X17293214Y-16233214D01*
X17264643Y-16218929D01*
X17250357Y-16204643D01*
X17564643Y-16233214D02*
X17621786Y-16233214D01*
X17650357Y-16218929D01*
X17664643Y-16204643D01*
X17693214Y-16161786D01*
X17707500Y-16104643D01*
X17707500Y-15990357D01*
X17693214Y-15961786D01*
X17678928Y-15947500D01*
X17650357Y-15933214D01*
X17593214Y-15933214D01*
X17564643Y-15947500D01*
X17550357Y-15961786D01*
X17536071Y-15990357D01*
X17536071Y-16061786D01*
X17550357Y-16090357D01*
X17564643Y-16104643D01*
X17593214Y-16118929D01*
X17650357Y-16118929D01*
X17678928Y-16104643D01*
X17693214Y-16090357D01*
X17707500Y-16061786D01*
X17821786Y-15933214D02*
X17821786Y-15990357D01*
X17936071Y-15933214D02*
X17936071Y-15990357D01*
X18378928Y-16347500D02*
X18364643Y-16333214D01*
X18336071Y-16290357D01*
X18321786Y-16261786D01*
X18307500Y-16218929D01*
X18293214Y-16147500D01*
X18293214Y-16090357D01*
X18307500Y-16018929D01*
X18321786Y-15976071D01*
X18336071Y-15947500D01*
X18364643Y-15904643D01*
X18378928Y-15890357D01*
X18621786Y-16033214D02*
X18621786Y-16233214D01*
X18550357Y-15918929D02*
X18478928Y-16133214D01*
X18664643Y-16133214D01*
X19007500Y-16233214D02*
X19007500Y-15933214D01*
X19136071Y-16233214D02*
X19136071Y-16076071D01*
X19121786Y-16047500D01*
X19093214Y-16033214D01*
X19050357Y-16033214D01*
X19021786Y-16047500D01*
X19007500Y-16061786D01*
X19321786Y-16233214D02*
X19293214Y-16218929D01*
X19278928Y-16204643D01*
X19264643Y-16176071D01*
X19264643Y-16090357D01*
X19278928Y-16061786D01*
X19293214Y-16047500D01*
X19321786Y-16033214D01*
X19364643Y-16033214D01*
X19393214Y-16047500D01*
X19407500Y-16061786D01*
X19421786Y-16090357D01*
X19421786Y-16176071D01*
X19407500Y-16204643D01*
X19393214Y-16218929D01*
X19364643Y-16233214D01*
X19321786Y-16233214D01*
X19593214Y-16233214D02*
X19564643Y-16218929D01*
X19550357Y-16190357D01*
X19550357Y-15933214D01*
X19821786Y-16218929D02*
X19793214Y-16233214D01*
X19736071Y-16233214D01*
X19707500Y-16218929D01*
X19693214Y-16190357D01*
X19693214Y-16076071D01*
X19707500Y-16047500D01*
X19736071Y-16033214D01*
X19793214Y-16033214D01*
X19821786Y-16047500D01*
X19836071Y-16076071D01*
X19836071Y-16104643D01*
X19693214Y-16133214D01*
X19950357Y-16218929D02*
X19978928Y-16233214D01*
X20036071Y-16233214D01*
X20064643Y-16218929D01*
X20078928Y-16190357D01*
X20078928Y-16176071D01*
X20064643Y-16147500D01*
X20036071Y-16133214D01*
X19993214Y-16133214D01*
X19964643Y-16118929D01*
X19950357Y-16090357D01*
X19950357Y-16076071D01*
X19964643Y-16047500D01*
X19993214Y-16033214D01*
X20036071Y-16033214D01*
X20064643Y-16047500D01*
X20178928Y-16347500D02*
X20193214Y-16333214D01*
X20221786Y-16290357D01*
X20236071Y-16261786D01*
X20250357Y-16218929D01*
X20264643Y-16147500D01*
X20264643Y-16090357D01*
X20250357Y-16018929D01*
X20236071Y-15976071D01*
X20221786Y-15947500D01*
X20193214Y-15904643D01*
X20178928Y-15890357D01*
M02*
