<?xml version="1.0" standalone="no"?>
 <!DOCTYPE svg PUBLIC "-//W3C//DTD SVG 1.1//EN" 
 "http://www.w3.org/Graphics/SVG/1.1/DTD/svg11.dtd"> 
<svg xmlns="http://www.w3.org/2000/svg" version="1.1" 
    width="29.7002cm" height="21.0007cm" viewBox="0 0 116930 82680 ">
<title>SVG Picture created as ESP32-S2-GND.svg date 2021/06/10 16:34:16 </title>
  <desc>Picture generated by PCBNEW </desc>
<g style="fill:#000000; fill-opacity:1;stroke:#000000; stroke-opacity:1;
stroke-linecap:round; stroke-linejoin:round; "
 transform="translate(0 0) scale(1 1)">
</g>
<g style="fill:#000000; fill-opacity:0.0; 
stroke:#000000; stroke-width:-0.000393701; stroke-opacity:1; 
stroke-linecap:round; stroke-linejoin:round;">
<g >
</g>
<g >
</g>
<g >
</g>
<g >
</g>
<g >
</g>
<g >
</g>
<g >
</g>
<g >
</g>
<g >
</g>
<g >
</g>
<g style="fill:#000000; fill-opacity:0.0; 
stroke:#000000; stroke-width:-0.000393701; stroke-opacity:1; 
stroke-linecap:round; stroke-linejoin:round;">
</g>
<g style="fill:#000000; fill-opacity:0.0; 
stroke:#000000; stroke-width:413.386; stroke-opacity:1; 
stroke-linecap:round; stroke-linejoin:round;">
<path d="M55074 52901
L54660 52901
" />
<path d="M55074 49499
L54660 49499
" />
<path d="M56720 52901
L56306 52901
" />
<path d="M56720 49499
L56306 49499
" />
</g>
<g >
</g>
<g >
</g>
<g >
</g>
<g >
</g>
<g >
</g>
<g >
</g>
<g >
</g>
<g >
</g>
<g >
</g>
<g >
</g>
<g >
</g>
<g >
</g>
<g style="fill:#000000; fill-opacity:0.0; 
stroke:#000000; stroke-width:413.386; stroke-opacity:1; 
stroke-linecap:round; stroke-linejoin:round;">
</g>
<g style="fill:#000000; fill-opacity:1.0; 
stroke:#000000; stroke-width:0; stroke-opacity:1; 
stroke-linecap:round; stroke-linejoin:round;">
<circle cx="61886.8" cy="52657.7" r="423.228" /> 
</g>
<g style="fill:#000000; fill-opacity:1.0; 
stroke:#000000; stroke-width:39.3701; stroke-opacity:1; 
stroke-linecap:round; stroke-linejoin:round;">
</g>
<g style="fill:#000000; fill-opacity:1.0; 
stroke:#000000; stroke-width:0; stroke-opacity:1; 
stroke-linecap:round; stroke-linejoin:round;">
<circle cx="61886.8" cy="49901.8" r="423.228" /> 
</g>
<g style="fill:#000000; fill-opacity:1.0; 
stroke:#000000; stroke-width:39.3701; stroke-opacity:1; 
stroke-linecap:round; stroke-linejoin:round;">
</g>
<g style="fill:#000000; fill-opacity:1.0; 
stroke:#000000; stroke-width:0; stroke-opacity:1; 
stroke-linecap:round; stroke-linejoin:round;">
<circle cx="64028.5" cy="49901.8" r="423.228" /> 
</g>
<g style="fill:#000000; fill-opacity:1.0; 
stroke:#000000; stroke-width:39.3701; stroke-opacity:1; 
stroke-linecap:round; stroke-linejoin:round;">
</g>
<g style="fill:#000000; fill-opacity:1.0; 
stroke:#000000; stroke-width:0; stroke-opacity:1; 
stroke-linecap:round; stroke-linejoin:round;">
<circle cx="64028.5" cy="52657.7" r="423.228" /> 
</g>
<g style="fill:#000000; fill-opacity:1.0; 
stroke:#000000; stroke-width:39.3701; stroke-opacity:1; 
stroke-linecap:round; stroke-linejoin:round;">
</g>
<g style="fill:#000000; fill-opacity:1.0; 
stroke:#000000; stroke-width:0; stroke-opacity:1; 
stroke-linecap:round; stroke-linejoin:round;">
<path style="fill:#000000; fill-opacity:1.0; 
stroke:#000000; stroke-width:0; stroke-opacity:1; 
stroke-linecap:round; stroke-linejoin:round;fill-rule:evenodd;"
d="M 63272.6,52685.3
62642.7,52685.3
62642.7,52055.4
63272.6,52055.4
Z" /> 
<circle cx="62957.6" cy="51582.9" r="314.961" /> 
</g>
<g style="fill:#000000; fill-opacity:1.0; 
stroke:#000000; stroke-width:39.3701; stroke-opacity:1; 
stroke-linecap:round; stroke-linejoin:round;">
</g>
<g style="fill:#000000; fill-opacity:1.0; 
stroke:#000000; stroke-width:0; stroke-opacity:1; 
stroke-linecap:round; stroke-linejoin:round;">
<circle cx="62957.6" cy="50795.5" r="314.961" /> 
</g>
<g style="fill:#000000; fill-opacity:1.0; 
stroke:#000000; stroke-width:39.3701; stroke-opacity:1; 
stroke-linecap:round; stroke-linejoin:round;">
</g>
<g style="fill:#000000; fill-opacity:1.0; 
stroke:#000000; stroke-width:0; stroke-opacity:1; 
stroke-linecap:round; stroke-linejoin:round;">
<circle cx="62957.6" cy="50008.1" r="314.961" /> 
</g>
<g style="fill:#000000; fill-opacity:1.0; 
stroke:#000000; stroke-width:39.3701; stroke-opacity:1; 
stroke-linecap:round; stroke-linejoin:round;">
</g>
<g >
</g>
<g >
</g>
<g >
</g>
<g >
</g>
<g >
</g>
<g >
</g>
<g >
</g>
<g style="fill:#000000; fill-opacity:1.0; 
stroke:#000000; stroke-width:39.3701; stroke-opacity:1; 
stroke-linecap:round; stroke-linejoin:round;">
</g>
<g style="fill:#000000; fill-opacity:1.0; 
stroke:#000000; stroke-width:669.291; stroke-opacity:1; 
stroke-linecap:round; stroke-linejoin:round;">
</g>
<g style="fill:#000000; fill-opacity:0.0; 
stroke:#000000; stroke-width:669.291; stroke-opacity:1; 
stroke-linecap:round; stroke-linejoin:round;">
<path d="M64267 48037
L64267 48037
" />
<path d="M64267 47037
L64267 47037
" />
<path d="M64267 46037
L64267 46037
" />
<path d="M64267 45037
L64267 45037
" />
<path d="M64267 44037
L64267 44037
" />
<path d="M64267 43037
L64267 43037
" />
<path d="M64267 42037
L64267 42037
" />
<path d="M64267 41037
L64267 41037
" />
<path d="M64267 40037
L64267 40037
" />
<path d="M64267 39037
L64267 39037
" />
<path d="M64267 38037
L64267 38037
" />
<path d="M64267 37037
L64267 37037
" />
<path d="M64267 36037
L64267 36037
" />
<path d="M64267 35037
L64267 35037
" />
<path d="M64267 34037
L64267 34037
" />
<path d="M64267 33037
L64267 33037
" />
<path d="M64267 32037
L64267 32037
" />
<path d="M64267 31037
L64267 31037
" />
<path d="M64267 30037
L64267 30037
" />
<path d="M64267 29037
L64267 29037
" />
<path d="M64267 28037
L64267 28037
" />
</g>
<g style="fill:#000000; fill-opacity:0.0; 
stroke:#000000; stroke-width:0; stroke-opacity:1; 
stroke-linecap:round; stroke-linejoin:round;">
</g>
<g style="fill:#000000; fill-opacity:1.0; 
stroke:#000000; stroke-width:0; stroke-opacity:1; 
stroke-linecap:round; stroke-linejoin:round;">
<path style="fill:#000000; fill-opacity:1.0; 
stroke:#000000; stroke-width:0; stroke-opacity:1; 
stroke-linecap:round; stroke-linejoin:round;fill-rule:evenodd;"
d="M 63933.1,27372
63933.1,26702.8
64602.4,26702.8
64602.4,27372
Z" /> 
</g>
<g >
</g>
<g >
</g>
<g >
</g>
<g >
</g>
<g >
</g>
<g >
</g>
<g >
</g>
<g style="fill:#000000; fill-opacity:1.0; 
stroke:#000000; stroke-width:0; stroke-opacity:1; 
stroke-linecap:round; stroke-linejoin:round;">
</g>
<g style="fill:#000000; fill-opacity:1.0; 
stroke:#000000; stroke-width:669.291; stroke-opacity:1; 
stroke-linecap:round; stroke-linejoin:round;">
</g>
<g style="fill:#000000; fill-opacity:0.0; 
stroke:#000000; stroke-width:669.291; stroke-opacity:1; 
stroke-linecap:round; stroke-linejoin:round;">
<path d="M54507 44037
L54507 44037
" />
<path d="M54507 43037
L54507 43037
" />
<path d="M54507 42037
L54507 42037
" />
<path d="M54507 41037
L54507 41037
" />
<path d="M54507 40037
L54507 40037
" />
<path d="M54507 39037
L54507 39037
" />
<path d="M54507 38037
L54507 38037
" />
<path d="M54507 37037
L54507 37037
" />
<path d="M54507 36037
L54507 36037
" />
<path d="M54507 35037
L54507 35037
" />
<path d="M54507 34037
L54507 34037
" />
<path d="M54507 33037
L54507 33037
" />
<path d="M54507 32037
L54507 32037
" />
<path d="M54507 31037
L54507 31037
" />
<path d="M54507 30037
L54507 30037
" />
<path d="M54507 29037
L54507 29037
" />
<path d="M54507 28037
L54507 28037
" />
</g>
<g style="fill:#000000; fill-opacity:0.0; 
stroke:#000000; stroke-width:0; stroke-opacity:1; 
stroke-linecap:round; stroke-linejoin:round;">
</g>
<g style="fill:#000000; fill-opacity:1.0; 
stroke:#000000; stroke-width:0; stroke-opacity:1; 
stroke-linecap:round; stroke-linejoin:round;">
<path style="fill:#000000; fill-opacity:1.0; 
stroke:#000000; stroke-width:0; stroke-opacity:1; 
stroke-linecap:round; stroke-linejoin:round;fill-rule:evenodd;"
d="M 54173.2,27372
54173.2,26702.8
54842.5,26702.8
54842.5,27372
Z" /> 
</g>
<g >
</g>
<g >
</g>
<g >
</g>
<g >
</g>
<g >
</g>
<g >
</g>
<g >
</g>
<g >
</g>
<g >
</g>
<g >
</g>
<g >
</g>
<g >
</g>
<g >
</g>
<g >
</g>
<g >
</g>
<g >
</g>
<g >
</g>
<g style="fill:#000000; fill-opacity:1.0; 
stroke:#000000; stroke-width:0; stroke-opacity:1; 
stroke-linecap:round; stroke-linejoin:round;">
<circle cx="57974.3" cy="29097" r="157.48" /> 
</g>
<g style="fill:#000000; fill-opacity:1.0; 
stroke:#000000; stroke-width:39.3701; stroke-opacity:1; 
stroke-linecap:round; stroke-linejoin:round;">
</g>
<g style="fill:#000000; fill-opacity:1.0; 
stroke:#000000; stroke-width:0; stroke-opacity:1; 
stroke-linecap:round; stroke-linejoin:round;">
<circle cx="58564.8" cy="29097" r="157.48" /> 
</g>
<g style="fill:#000000; fill-opacity:1.0; 
stroke:#000000; stroke-width:39.3701; stroke-opacity:1; 
stroke-linecap:round; stroke-linejoin:round;">
</g>
<g style="fill:#000000; fill-opacity:1.0; 
stroke:#000000; stroke-width:0; stroke-opacity:1; 
stroke-linecap:round; stroke-linejoin:round;">
<circle cx="59155.4" cy="29097" r="157.48" /> 
</g>
<g style="fill:#000000; fill-opacity:1.0; 
stroke:#000000; stroke-width:39.3701; stroke-opacity:1; 
stroke-linecap:round; stroke-linejoin:round;">
</g>
<g style="fill:#000000; fill-opacity:1.0; 
stroke:#000000; stroke-width:0; stroke-opacity:1; 
stroke-linecap:round; stroke-linejoin:round;">
<circle cx="59745.9" cy="29097" r="157.48" /> 
</g>
<g style="fill:#000000; fill-opacity:1.0; 
stroke:#000000; stroke-width:39.3701; stroke-opacity:1; 
stroke-linecap:round; stroke-linejoin:round;">
</g>
<g style="fill:#000000; fill-opacity:1.0; 
stroke:#000000; stroke-width:0; stroke-opacity:1; 
stroke-linecap:round; stroke-linejoin:round;">
<circle cx="57974.3" cy="29687.5" r="157.48" /> 
</g>
<g style="fill:#000000; fill-opacity:1.0; 
stroke:#000000; stroke-width:39.3701; stroke-opacity:1; 
stroke-linecap:round; stroke-linejoin:round;">
</g>
<g style="fill:#000000; fill-opacity:1.0; 
stroke:#000000; stroke-width:0; stroke-opacity:1; 
stroke-linecap:round; stroke-linejoin:round;">
<circle cx="58564.8" cy="29687.5" r="157.48" /> 
</g>
<g style="fill:#000000; fill-opacity:1.0; 
stroke:#000000; stroke-width:39.3701; stroke-opacity:1; 
stroke-linecap:round; stroke-linejoin:round;">
</g>
<g style="fill:#000000; fill-opacity:1.0; 
stroke:#000000; stroke-width:0; stroke-opacity:1; 
stroke-linecap:round; stroke-linejoin:round;">
<circle cx="59155.4" cy="29687.5" r="157.48" /> 
</g>
<g style="fill:#000000; fill-opacity:1.0; 
stroke:#000000; stroke-width:39.3701; stroke-opacity:1; 
stroke-linecap:round; stroke-linejoin:round;">
</g>
<g style="fill:#000000; fill-opacity:1.0; 
stroke:#000000; stroke-width:0; stroke-opacity:1; 
stroke-linecap:round; stroke-linejoin:round;">
<circle cx="59745.9" cy="29687.5" r="157.48" /> 
</g>
<g style="fill:#000000; fill-opacity:1.0; 
stroke:#000000; stroke-width:39.3701; stroke-opacity:1; 
stroke-linecap:round; stroke-linejoin:round;">
</g>
<g style="fill:#000000; fill-opacity:1.0; 
stroke:#000000; stroke-width:0; stroke-opacity:1; 
stroke-linecap:round; stroke-linejoin:round;">
<circle cx="57974.3" cy="30278.1" r="157.48" /> 
</g>
<g style="fill:#000000; fill-opacity:1.0; 
stroke:#000000; stroke-width:39.3701; stroke-opacity:1; 
stroke-linecap:round; stroke-linejoin:round;">
</g>
<g style="fill:#000000; fill-opacity:1.0; 
stroke:#000000; stroke-width:0; stroke-opacity:1; 
stroke-linecap:round; stroke-linejoin:round;">
<circle cx="58564.8" cy="30278.1" r="157.48" /> 
</g>
<g style="fill:#000000; fill-opacity:1.0; 
stroke:#000000; stroke-width:39.3701; stroke-opacity:1; 
stroke-linecap:round; stroke-linejoin:round;">
</g>
<g style="fill:#000000; fill-opacity:1.0; 
stroke:#000000; stroke-width:0; stroke-opacity:1; 
stroke-linecap:round; stroke-linejoin:round;">
<circle cx="59155.4" cy="30278.1" r="157.48" /> 
</g>
<g style="fill:#000000; fill-opacity:1.0; 
stroke:#000000; stroke-width:39.3701; stroke-opacity:1; 
stroke-linecap:round; stroke-linejoin:round;">
</g>
<g style="fill:#000000; fill-opacity:1.0; 
stroke:#000000; stroke-width:0; stroke-opacity:1; 
stroke-linecap:round; stroke-linejoin:round;">
<circle cx="59745.9" cy="30278.1" r="157.48" /> 
</g>
<g style="fill:#000000; fill-opacity:1.0; 
stroke:#000000; stroke-width:39.3701; stroke-opacity:1; 
stroke-linecap:round; stroke-linejoin:round;">
</g>
<g style="fill:#000000; fill-opacity:1.0; 
stroke:#000000; stroke-width:0; stroke-opacity:1; 
stroke-linecap:round; stroke-linejoin:round;">
<circle cx="57974.3" cy="30868.6" r="157.48" /> 
</g>
<g style="fill:#000000; fill-opacity:1.0; 
stroke:#000000; stroke-width:39.3701; stroke-opacity:1; 
stroke-linecap:round; stroke-linejoin:round;">
</g>
<g style="fill:#000000; fill-opacity:1.0; 
stroke:#000000; stroke-width:0; stroke-opacity:1; 
stroke-linecap:round; stroke-linejoin:round;">
<circle cx="58564.8" cy="30868.6" r="157.48" /> 
</g>
<g style="fill:#000000; fill-opacity:1.0; 
stroke:#000000; stroke-width:39.3701; stroke-opacity:1; 
stroke-linecap:round; stroke-linejoin:round;">
</g>
<g style="fill:#000000; fill-opacity:1.0; 
stroke:#000000; stroke-width:0; stroke-opacity:1; 
stroke-linecap:round; stroke-linejoin:round;">
<circle cx="59155.4" cy="30868.6" r="157.48" /> 
</g>
<g style="fill:#000000; fill-opacity:1.0; 
stroke:#000000; stroke-width:39.3701; stroke-opacity:1; 
stroke-linecap:round; stroke-linejoin:round;">
</g>
<g style="fill:#000000; fill-opacity:1.0; 
stroke:#000000; stroke-width:0; stroke-opacity:1; 
stroke-linecap:round; stroke-linejoin:round;">
<circle cx="59745.9" cy="30868.6" r="157.48" /> 
</g>
<g style="fill:#000000; fill-opacity:1.0; 
stroke:#000000; stroke-width:39.3701; stroke-opacity:1; 
stroke-linecap:round; stroke-linejoin:round;">
</g>
<g style="fill:#000000; fill-opacity:1.0; 
stroke:#000000; stroke-width:0; stroke-opacity:1; 
stroke-linecap:round; stroke-linejoin:round;">
<circle cx="58962.6" cy="52415.3" r="157.48" /> 
</g>
<g style="fill:#000000; fill-opacity:1.0; 
stroke:#000000; stroke-width:39.3701; stroke-opacity:1; 
stroke-linecap:round; stroke-linejoin:round;">
</g>
<g style="fill:#000000; fill-opacity:1.0; 
stroke:#000000; stroke-width:0; stroke-opacity:1; 
stroke-linecap:round; stroke-linejoin:round;">
<circle cx="59972.6" cy="52415.3" r="157.48" /> 
</g>
<g style="fill:#000000; fill-opacity:1.0; 
stroke:#000000; stroke-width:39.3701; stroke-opacity:1; 
stroke-linecap:round; stroke-linejoin:round;">
</g>
<g style="fill:#000000; fill-opacity:1.0; 
stroke:#000000; stroke-width:0; stroke-opacity:1; 
stroke-linecap:round; stroke-linejoin:round;">
<circle cx="60492.6" cy="50150.3" r="157.48" /> 
</g>
<g style="fill:#000000; fill-opacity:1.0; 
stroke:#000000; stroke-width:39.3701; stroke-opacity:1; 
stroke-linecap:round; stroke-linejoin:round;">
</g>
<g style="fill:#000000; fill-opacity:1.0; 
stroke:#000000; stroke-width:0; stroke-opacity:1; 
stroke-linecap:round; stroke-linejoin:round;">
<circle cx="55307.6" cy="45745.3" r="157.48" /> 
</g>
<g style="fill:#000000; fill-opacity:1.0; 
stroke:#000000; stroke-width:39.3701; stroke-opacity:1; 
stroke-linecap:round; stroke-linejoin:round;">
</g>
<g style="fill:#000000; fill-opacity:1.0; 
stroke:#000000; stroke-width:0; stroke-opacity:1; 
stroke-linecap:round; stroke-linejoin:round;">
<circle cx="62119.4" cy="42978.5" r="157.48" /> 
</g>
<g style="fill:#000000; fill-opacity:1.0; 
stroke:#000000; stroke-width:39.3701; stroke-opacity:1; 
stroke-linecap:round; stroke-linejoin:round;">
</g>
<g style="fill:#000000; fill-opacity:1.0; 
stroke:#000000; stroke-width:0; stroke-opacity:1; 
stroke-linecap:round; stroke-linejoin:round;">
<circle cx="54582.6" cy="48345.3" r="157.48" /> 
</g>
<g style="fill:#000000; fill-opacity:1.0; 
stroke:#000000; stroke-width:39.3701; stroke-opacity:1; 
stroke-linecap:round; stroke-linejoin:round;">
</g>
<g style="fill:#000000; fill-opacity:1.0; 
stroke:#000000; stroke-width:0; stroke-opacity:1; 
stroke-linecap:round; stroke-linejoin:round;">
<circle cx="56562.6" cy="26855.3" r="157.48" /> 
</g>
<g style="fill:#000000; fill-opacity:1.0; 
stroke:#000000; stroke-width:39.3701; stroke-opacity:1; 
stroke-linecap:round; stroke-linejoin:round;">
</g>
<g style="fill:#000000; fill-opacity:1.0; 
stroke:#000000; stroke-width:0; stroke-opacity:1; 
stroke-linecap:round; stroke-linejoin:round;">
<circle cx="58897.6" cy="41330.3" r="157.48" /> 
</g>
<g style="fill:#000000; fill-opacity:1.0; 
stroke:#000000; stroke-width:39.3701; stroke-opacity:1; 
stroke-linecap:round; stroke-linejoin:round;">
</g>
<g style="fill:#000000; fill-opacity:1.0; 
stroke:#000000; stroke-width:0; stroke-opacity:1; 
stroke-linecap:round; stroke-linejoin:round;">
<circle cx="55295.6" cy="47567.3" r="157.48" /> 
</g>
<g style="fill:#000000; fill-opacity:1.0; 
stroke:#000000; stroke-width:39.3701; stroke-opacity:1; 
stroke-linecap:round; stroke-linejoin:round;">
</g>
<g style="fill:#000000; fill-opacity:1.0; 
stroke:#000000; stroke-width:0; stroke-opacity:1; 
stroke-linecap:round; stroke-linejoin:round;">
<circle cx="60602.6" cy="48046.3" r="157.48" /> 
</g>
<g style="fill:#000000; fill-opacity:1.0; 
stroke:#000000; stroke-width:39.3701; stroke-opacity:1; 
stroke-linecap:round; stroke-linejoin:round;">
</g>
<g style="fill:#000000; fill-opacity:1.0; 
stroke:#000000; stroke-width:0; stroke-opacity:1; 
stroke-linecap:round; stroke-linejoin:round;">
<circle cx="58597.6" cy="39135.3" r="157.48" /> 
</g>
<g style="fill:#000000; fill-opacity:1.0; 
stroke:#000000; stroke-width:39.3701; stroke-opacity:1; 
stroke-linecap:round; stroke-linejoin:round;">
</g>
<g style="fill:#000000; fill-opacity:1.0; 
stroke:#000000; stroke-width:0; stroke-opacity:1; 
stroke-linecap:round; stroke-linejoin:round;">
<circle cx="57779.6" cy="41816.3" r="157.48" /> 
</g>
<g style="fill:#000000; fill-opacity:1.0; 
stroke:#000000; stroke-width:39.3701; stroke-opacity:1; 
stroke-linecap:round; stroke-linejoin:round;">
</g>
<g style="fill:#000000; fill-opacity:1.0; 
stroke:#000000; stroke-width:0; stroke-opacity:1; 
stroke-linecap:round; stroke-linejoin:round;">
<circle cx="55280.6" cy="44609.3" r="157.48" /> 
</g>
<g style="fill:#000000; fill-opacity:1.0; 
stroke:#000000; stroke-width:39.3701; stroke-opacity:1; 
stroke-linecap:round; stroke-linejoin:round;">
</g>
<g style="fill:#000000; fill-opacity:1.0; 
stroke:#000000; stroke-width:0; stroke-opacity:1; 
stroke-linecap:round; stroke-linejoin:round;">
<circle cx="57663.4" cy="45548.3" r="157.48" /> 
</g>
<g style="fill:#000000; fill-opacity:1.0; 
stroke:#000000; stroke-width:39.3701; stroke-opacity:1; 
stroke-linecap:round; stroke-linejoin:round;">
</g>
<g style="fill:#000000; fill-opacity:1.0; 
stroke:#000000; stroke-width:0; stroke-opacity:1; 
stroke-linecap:round; stroke-linejoin:round;">
<circle cx="58505.6" cy="49548.3" r="157.48" /> 
</g>
<g style="fill:#000000; fill-opacity:1.0; 
stroke:#000000; stroke-width:39.3701; stroke-opacity:1; 
stroke-linecap:round; stroke-linejoin:round;">
</g>
<g style="fill:#000000; fill-opacity:1.0; 
stroke:#000000; stroke-width:0; stroke-opacity:1; 
stroke-linecap:round; stroke-linejoin:round;">
<circle cx="62587.6" cy="36254.3" r="157.48" /> 
</g>
<g style="fill:#000000; fill-opacity:1.0; 
stroke:#000000; stroke-width:39.3701; stroke-opacity:1; 
stroke-linecap:round; stroke-linejoin:round;">
</g>
<g style="fill:#000000; fill-opacity:1.0; 
stroke:#000000; stroke-width:0; stroke-opacity:1; 
stroke-linecap:round; stroke-linejoin:round;">
<circle cx="61205.6" cy="40860.3" r="157.48" /> 
</g>
<g style="fill:#000000; fill-opacity:1.0; 
stroke:#000000; stroke-width:39.3701; stroke-opacity:1; 
stroke-linecap:round; stroke-linejoin:round;">
</g>
<g style="fill:#000000; fill-opacity:1.0; 
stroke:#000000; stroke-width:0; stroke-opacity:1; 
stroke-linecap:round; stroke-linejoin:round;">
<circle cx="57612.6" cy="46537.3" r="157.48" /> 
</g>
<g style="fill:#000000; fill-opacity:1.0; 
stroke:#000000; stroke-width:39.3701; stroke-opacity:1; 
stroke-linecap:round; stroke-linejoin:round;">
</g>
<g style="fill:#000000; fill-opacity:1.0; 
stroke:#000000; stroke-width:0; stroke-opacity:1; 
stroke-linecap:round; stroke-linejoin:round;">
<circle cx="59532.5" cy="38209.8" r="157.48" /> 
</g>
<g style="fill:#000000; fill-opacity:1.0; 
stroke:#000000; stroke-width:39.3701; stroke-opacity:1; 
stroke-linecap:round; stroke-linejoin:round;">
</g>
<g style="fill:#000000; fill-opacity:1.0; 
stroke:#000000; stroke-width:0; stroke-opacity:1; 
stroke-linecap:round; stroke-linejoin:round;">
<circle cx="57937.6" cy="37210.3" r="157.48" /> 
</g>
<g style="fill:#000000; fill-opacity:1.0; 
stroke:#000000; stroke-width:39.3701; stroke-opacity:1; 
stroke-linecap:round; stroke-linejoin:round;">
</g>
<g style="fill:#000000; fill-opacity:1.0; 
stroke:#000000; stroke-width:0; stroke-opacity:1; 
stroke-linecap:round; stroke-linejoin:round;">
<circle cx="56447.6" cy="40960.3" r="157.48" /> 
</g>
<g style="fill:#000000; fill-opacity:1.0; 
stroke:#000000; stroke-width:39.3701; stroke-opacity:1; 
stroke-linecap:round; stroke-linejoin:round;">
</g>
<g style="fill:#000000; fill-opacity:1.0; 
stroke:#000000; stroke-width:0; stroke-opacity:1; 
stroke-linecap:round; stroke-linejoin:round;">
<circle cx="62017.6" cy="39488.3" r="157.48" /> 
</g>
<g style="fill:#000000; fill-opacity:1.0; 
stroke:#000000; stroke-width:39.3701; stroke-opacity:1; 
stroke-linecap:round; stroke-linejoin:round;">
</g>
<g style="fill:#000000; fill-opacity:1.0; 
stroke:#000000; stroke-width:0; stroke-opacity:1; 
stroke-linecap:round; stroke-linejoin:round;">
<circle cx="62017.6" cy="38724.3" r="157.48" /> 
</g>
<g style="fill:#000000; fill-opacity:1.0; 
stroke:#000000; stroke-width:39.3701; stroke-opacity:1; 
stroke-linecap:round; stroke-linejoin:round;">
</g>
<g style="fill:#000000; fill-opacity:1.0; 
stroke:#000000; stroke-width:0; stroke-opacity:1; 
stroke-linecap:round; stroke-linejoin:round;">
<circle cx="62157.6" cy="43555.3" r="157.48" /> 
</g>
<g style="fill:#000000; fill-opacity:1.0; 
stroke:#000000; stroke-width:39.3701; stroke-opacity:1; 
stroke-linecap:round; stroke-linejoin:round;">
</g>
<g style="fill:#000000; fill-opacity:1.0; 
stroke:#000000; stroke-width:0; stroke-opacity:1; 
stroke-linecap:round; stroke-linejoin:round;">
<circle cx="62162.6" cy="44330.3" r="157.48" /> 
</g>
<g style="fill:#000000; fill-opacity:1.0; 
stroke:#000000; stroke-width:39.3701; stroke-opacity:1; 
stroke-linecap:round; stroke-linejoin:round;">
</g>
<g style="fill:#000000; fill-opacity:1.0; 
stroke:#000000; stroke-width:0; stroke-opacity:1; 
stroke-linecap:round; stroke-linejoin:round;">
<circle cx="55276.6" cy="43716.3" r="157.48" /> 
</g>
<g style="fill:#000000; fill-opacity:1.0; 
stroke:#000000; stroke-width:39.3701; stroke-opacity:1; 
stroke-linecap:round; stroke-linejoin:round;">
</g>
<g style="fill:#000000; fill-opacity:1.0; 
stroke:#000000; stroke-width:0; stroke-opacity:1; 
stroke-linecap:round; stroke-linejoin:round;">
<circle cx="59389.6" cy="36618.3" r="157.48" /> 
</g>
<g style="fill:#000000; fill-opacity:1.0; 
stroke:#000000; stroke-width:39.3701; stroke-opacity:1; 
stroke-linecap:round; stroke-linejoin:round;">
</g>
<g style="fill:#000000; fill-opacity:1.0; 
stroke:#000000; stroke-width:0; stroke-opacity:1; 
stroke-linecap:round; stroke-linejoin:round;">
<circle cx="59532.5" cy="39115.3" r="157.48" /> 
</g>
<g style="fill:#000000; fill-opacity:1.0; 
stroke:#000000; stroke-width:39.3701; stroke-opacity:1; 
stroke-linecap:round; stroke-linejoin:round;">
</g>
<g style="fill:#000000; fill-opacity:1.0; 
stroke:#000000; stroke-width:0; stroke-opacity:1; 
stroke-linecap:round; stroke-linejoin:round;">
<circle cx="57918.6" cy="39118.3" r="157.48" /> 
</g>
<g style="fill:#000000; fill-opacity:1.0; 
stroke:#000000; stroke-width:39.3701; stroke-opacity:1; 
stroke-linecap:round; stroke-linejoin:round;">
</g>
<g style="fill:#000000; fill-opacity:1.0; 
stroke:#000000; stroke-width:0; stroke-opacity:1; 
stroke-linecap:round; stroke-linejoin:round;">
<circle cx="56417.6" cy="37210.3" r="157.48" /> 
</g>
<g style="fill:#000000; fill-opacity:1.0; 
stroke:#000000; stroke-width:39.3701; stroke-opacity:1; 
stroke-linecap:round; stroke-linejoin:round;">
</g>
<g style="fill:#000000; fill-opacity:1.0; 
stroke:#000000; stroke-width:0; stroke-opacity:1; 
stroke-linecap:round; stroke-linejoin:round;">
<circle cx="61866.6" cy="27433.3" r="157.48" /> 
</g>
<g style="fill:#000000; fill-opacity:1.0; 
stroke:#000000; stroke-width:39.3701; stroke-opacity:1; 
stroke-linecap:round; stroke-linejoin:round;">
</g>
<g style="fill:#000000; fill-opacity:1.0; 
stroke:#000000; stroke-width:0; stroke-opacity:1; 
stroke-linecap:round; stroke-linejoin:round;">
<circle cx="56393.5" cy="41806.2" r="157.48" /> 
</g>
<g style="fill:#000000; fill-opacity:1.0; 
stroke:#000000; stroke-width:39.3701; stroke-opacity:1; 
stroke-linecap:round; stroke-linejoin:round;">
</g>
<g style="fill:#000000; fill-opacity:1.0; 
stroke:#000000; stroke-width:0; stroke-opacity:1; 
stroke-linecap:round; stroke-linejoin:round;">
<circle cx="56563.6" cy="28080.3" r="157.48" /> 
</g>
<g style="fill:#000000; fill-opacity:1.0; 
stroke:#000000; stroke-width:39.3701; stroke-opacity:1; 
stroke-linecap:round; stroke-linejoin:round;">
</g>
<g style="fill:#000000; fill-opacity:1.0; 
stroke:#000000; stroke-width:0; stroke-opacity:1; 
stroke-linecap:round; stroke-linejoin:round;">
<circle cx="56344.6" cy="46717.3" r="157.48" /> 
</g>
<g style="fill:#000000; fill-opacity:1.0; 
stroke:#000000; stroke-width:39.3701; stroke-opacity:1; 
stroke-linecap:round; stroke-linejoin:round;">
</g>
<g style="fill:#000000; fill-opacity:1.0; 
stroke:#000000; stroke-width:0; stroke-opacity:1; 
stroke-linecap:round; stroke-linejoin:round;">
<circle cx="61883.6" cy="29201.3" r="157.48" /> 
</g>
<g style="fill:#000000; fill-opacity:1.0; 
stroke:#000000; stroke-width:39.3701; stroke-opacity:1; 
stroke-linecap:round; stroke-linejoin:round;">
</g>
<g style="fill:#000000; fill-opacity:1.0; 
stroke:#000000; stroke-width:0; stroke-opacity:1; 
stroke-linecap:round; stroke-linejoin:round;">
<circle cx="60159.6" cy="41842.3" r="157.48" /> 
</g>
<g style="fill:#000000; fill-opacity:1.0; 
stroke:#000000; stroke-width:39.3701; stroke-opacity:1; 
stroke-linecap:round; stroke-linejoin:round;">
</g>
<g style="fill:#000000; fill-opacity:1.0; 
stroke:#000000; stroke-width:0; stroke-opacity:1; 
stroke-linecap:round; stroke-linejoin:round;">
<circle cx="61879.6" cy="29795.3" r="157.48" /> 
</g>
<g style="fill:#000000; fill-opacity:1.0; 
stroke:#000000; stroke-width:39.3701; stroke-opacity:1; 
stroke-linecap:round; stroke-linejoin:round;">
</g>
<g style="fill:#000000; fill-opacity:1.0; 
stroke:#000000; stroke-width:0; stroke-opacity:1; 
stroke-linecap:round; stroke-linejoin:round;">
<circle cx="59655.6" cy="41852.3" r="157.48" /> 
</g>
<g style="fill:#000000; fill-opacity:1.0; 
stroke:#000000; stroke-width:39.3701; stroke-opacity:1; 
stroke-linecap:round; stroke-linejoin:round;">
</g>
<g style="fill:#000000; fill-opacity:1.0; 
stroke:#000000; stroke-width:0; stroke-opacity:1; 
stroke-linecap:round; stroke-linejoin:round;">
<circle cx="56534.6" cy="34527.3" r="157.48" /> 
</g>
<g style="fill:#000000; fill-opacity:1.0; 
stroke:#000000; stroke-width:39.3701; stroke-opacity:1; 
stroke-linecap:round; stroke-linejoin:round;">
</g>
<g style="fill:#000000; fill-opacity:1.0; 
stroke:#000000; stroke-width:0; stroke-opacity:1; 
stroke-linecap:round; stroke-linejoin:round;">
<circle cx="56538.6" cy="33932.3" r="157.48" /> 
</g>
<g style="fill:#000000; fill-opacity:1.0; 
stroke:#000000; stroke-width:39.3701; stroke-opacity:1; 
stroke-linecap:round; stroke-linejoin:round;">
</g>
<g style="fill:#000000; fill-opacity:1.0; 
stroke:#000000; stroke-width:0; stroke-opacity:1; 
stroke-linecap:round; stroke-linejoin:round;">
<circle cx="56540.6" cy="33355.3" r="157.48" /> 
</g>
<g style="fill:#000000; fill-opacity:1.0; 
stroke:#000000; stroke-width:39.3701; stroke-opacity:1; 
stroke-linecap:round; stroke-linejoin:round;">
</g>
<g style="fill:#000000; fill-opacity:1.0; 
stroke:#000000; stroke-width:0; stroke-opacity:1; 
stroke-linecap:round; stroke-linejoin:round;">
<circle cx="57370.2" cy="33931.3" r="157.48" /> 
</g>
<g style="fill:#000000; fill-opacity:1.0; 
stroke:#000000; stroke-width:39.3701; stroke-opacity:1; 
stroke-linecap:round; stroke-linejoin:round;">
</g>
<g style="fill:#000000; fill-opacity:1.0; 
stroke:#000000; stroke-width:0; stroke-opacity:1; 
stroke-linecap:round; stroke-linejoin:round;">
<circle cx="57372.6" cy="48661.3" r="157.48" /> 
</g>
<g style="fill:#000000; fill-opacity:1.0; 
stroke:#000000; stroke-width:39.3701; stroke-opacity:1; 
stroke-linecap:round; stroke-linejoin:round;">
</g>
<g style="fill:#000000; fill-opacity:1.0; 
stroke:#000000; stroke-width:0; stroke-opacity:1; 
stroke-linecap:round; stroke-linejoin:round;">
<circle cx="58323.6" cy="47038.3" r="157.48" /> 
</g>
<g style="fill:#000000; fill-opacity:1.0; 
stroke:#000000; stroke-width:39.3701; stroke-opacity:1; 
stroke-linecap:round; stroke-linejoin:round;">
</g>
<g style="fill:#000000; fill-opacity:1.0; 
stroke:#000000; stroke-width:0; stroke-opacity:1; 
stroke-linecap:round; stroke-linejoin:round;">
<circle cx="62485.6" cy="47041.3" r="157.48" /> 
</g>
<g style="fill:#000000; fill-opacity:1.0; 
stroke:#000000; stroke-width:39.3701; stroke-opacity:1; 
stroke-linecap:round; stroke-linejoin:round;">
</g>
<g style="fill:#000000; fill-opacity:1.0; 
stroke:#000000; stroke-width:0; stroke-opacity:1; 
stroke-linecap:round; stroke-linejoin:round;">
<circle cx="61859.6" cy="35112.3" r="157.48" /> 
</g>
<g style="fill:#000000; fill-opacity:1.0; 
stroke:#000000; stroke-width:39.3701; stroke-opacity:1; 
stroke-linecap:round; stroke-linejoin:round;">
</g>
<g style="fill:#000000; fill-opacity:1.0; 
stroke:#000000; stroke-width:0; stroke-opacity:1; 
stroke-linecap:round; stroke-linejoin:round;">
<circle cx="61912.6" cy="42178.3" r="157.48" /> 
</g>
<g style="fill:#000000; fill-opacity:1.0; 
stroke:#000000; stroke-width:39.3701; stroke-opacity:1; 
stroke-linecap:round; stroke-linejoin:round;">
</g>
<g style="fill:#000000; fill-opacity:1.0; 
stroke:#000000; stroke-width:0; stroke-opacity:1; 
stroke-linecap:round; stroke-linejoin:round;">
<circle cx="61860.6" cy="34523.3" r="157.48" /> 
</g>
<g style="fill:#000000; fill-opacity:1.0; 
stroke:#000000; stroke-width:39.3701; stroke-opacity:1; 
stroke-linecap:round; stroke-linejoin:round;">
</g>
<g style="fill:#000000; fill-opacity:1.0; 
stroke:#000000; stroke-width:0; stroke-opacity:1; 
stroke-linecap:round; stroke-linejoin:round;">
<circle cx="61859.6" cy="33916.3" r="157.48" /> 
</g>
<g style="fill:#000000; fill-opacity:1.0; 
stroke:#000000; stroke-width:39.3701; stroke-opacity:1; 
stroke-linecap:round; stroke-linejoin:round;">
</g>
<g style="fill:#000000; fill-opacity:1.0; 
stroke:#000000; stroke-width:0; stroke-opacity:1; 
stroke-linecap:round; stroke-linejoin:round;">
<circle cx="61871.6" cy="33345.3" r="157.48" /> 
</g>
<g style="fill:#000000; fill-opacity:1.0; 
stroke:#000000; stroke-width:39.3701; stroke-opacity:1; 
stroke-linecap:round; stroke-linejoin:round;">
</g>
<g style="fill:#000000; fill-opacity:1.0; 
stroke:#000000; stroke-width:0; stroke-opacity:1; 
stroke-linecap:round; stroke-linejoin:round;">
<circle cx="60207.6" cy="45180.3" r="157.48" /> 
</g>
<g style="fill:#000000; fill-opacity:1.0; 
stroke:#000000; stroke-width:39.3701; stroke-opacity:1; 
stroke-linecap:round; stroke-linejoin:round;">
</g>
<g style="fill:#000000; fill-opacity:1.0; 
stroke:#000000; stroke-width:0; stroke-opacity:1; 
stroke-linecap:round; stroke-linejoin:round;">
<circle cx="59447.6" cy="45185.3" r="157.48" /> 
</g>
<g style="fill:#000000; fill-opacity:1.0; 
stroke:#000000; stroke-width:39.3701; stroke-opacity:1; 
stroke-linecap:round; stroke-linejoin:round;">
</g>
<g style="fill:#000000; fill-opacity:1.0; 
stroke:#000000; stroke-width:0; stroke-opacity:1; 
stroke-linecap:round; stroke-linejoin:round;">
<circle cx="58323.6" cy="47576.3" r="157.48" /> 
</g>
<g style="fill:#000000; fill-opacity:1.0; 
stroke:#000000; stroke-width:39.3701; stroke-opacity:1; 
stroke-linecap:round; stroke-linejoin:round;">
</g>
<g style="fill:#000000; fill-opacity:1.0; 
stroke:#000000; stroke-width:0; stroke-opacity:1; 
stroke-linecap:round; stroke-linejoin:round;">
<circle cx="57094.6" cy="43481.3" r="157.48" /> 
</g>
<g style="fill:#000000; fill-opacity:1.0; 
stroke:#000000; stroke-width:39.3701; stroke-opacity:1; 
stroke-linecap:round; stroke-linejoin:round;">
</g>
<g style="fill:#000000; fill-opacity:1.0; 
stroke:#000000; stroke-width:0; stroke-opacity:1; 
stroke-linecap:round; stroke-linejoin:round;">
<circle cx="56854.3" cy="48272.7" r="157.48" /> 
</g>
<g style="fill:#000000; fill-opacity:1.0; 
stroke:#000000; stroke-width:39.3701; stroke-opacity:1; 
stroke-linecap:round; stroke-linejoin:round;">
</g>
<g style="fill:#000000; fill-opacity:1.0; 
stroke:#000000; stroke-width:0; stroke-opacity:1; 
stroke-linecap:round; stroke-linejoin:round;">
<circle cx="55757.6" cy="50870.3" r="157.48" /> 
</g>
<g style="fill:#000000; fill-opacity:1.0; 
stroke:#000000; stroke-width:39.3701; stroke-opacity:1; 
stroke-linecap:round; stroke-linejoin:round;">
</g>
<g style="fill:#000000; fill-opacity:1.0; 
stroke:#000000; stroke-width:0; stroke-opacity:1; 
stroke-linecap:round; stroke-linejoin:round;">
<circle cx="56820.1" cy="43191.4" r="157.48" /> 
</g>
<g style="fill:#000000; fill-opacity:1.0; 
stroke:#000000; stroke-width:39.3701; stroke-opacity:1; 
stroke-linecap:round; stroke-linejoin:round;">
</g>
<g style="fill:#000000; fill-opacity:1.0; 
stroke:#000000; stroke-width:0; stroke-opacity:1; 
stroke-linecap:round; stroke-linejoin:round;">
<circle cx="56777.6" cy="47025.3" r="157.48" /> 
</g>
<g style="fill:#000000; fill-opacity:1.0; 
stroke:#000000; stroke-width:39.3701; stroke-opacity:1; 
stroke-linecap:round; stroke-linejoin:round;">
</g>
<g style="fill:#000000; fill-opacity:1.0; 
stroke:#000000; stroke-width:0; stroke-opacity:1; 
stroke-linecap:round; stroke-linejoin:round;">
<circle cx="61022.6" cy="48061.3" r="157.48" /> 
</g>
<g style="fill:#000000; fill-opacity:1.0; 
stroke:#000000; stroke-width:39.3701; stroke-opacity:1; 
stroke-linecap:round; stroke-linejoin:round;">
</g>
<g style="fill:#000000; fill-opacity:1.0; 
stroke:#000000; stroke-width:0; stroke-opacity:1; 
stroke-linecap:round; stroke-linejoin:round;">
<circle cx="61791.5" cy="47645.3" r="157.48" /> 
</g>
<g style="fill:#000000; fill-opacity:1.0; 
stroke:#000000; stroke-width:39.3701; stroke-opacity:1; 
stroke-linecap:round; stroke-linejoin:round;">
</g>
<g style="fill:#000000; fill-opacity:1.0; 
stroke:#000000; stroke-width:0; stroke-opacity:1; 
stroke-linecap:round; stroke-linejoin:round;">
<circle cx="59442.5" cy="48200.3" r="157.48" /> 
</g>
<g style="fill:#000000; fill-opacity:1.0; 
stroke:#000000; stroke-width:39.3701; stroke-opacity:1; 
stroke-linecap:round; stroke-linejoin:round;">
</g>
<g style="fill:#000000; fill-opacity:1.0; 
stroke:#000000; stroke-width:0; stroke-opacity:1; 
stroke-linecap:round; stroke-linejoin:round;">
<circle cx="57607.6" cy="47544.3" r="157.48" /> 
</g>
<g style="fill:#000000; fill-opacity:1.0; 
stroke:#000000; stroke-width:39.3701; stroke-opacity:1; 
stroke-linecap:round; stroke-linejoin:round;">
</g>
<g >
</g>
<g >
</g>
<g style="fill:#000000; fill-opacity:1.0; 
stroke:#000000; stroke-width:39.3701; stroke-opacity:1; 
stroke-linecap:round; stroke-linejoin:round;">
</g>
<g style="fill:#000000; fill-opacity:1.0; 
stroke:#000000; stroke-width:100; stroke-opacity:1; 
stroke-linecap:round; stroke-linejoin:round;">
<path style="fill:#000000; fill-opacity:1.0; 
stroke:#000000; stroke-width:100; stroke-opacity:1; 
stroke-linecap:round; stroke-linejoin:round;fill-rule:evenodd;"
d="M 64402.4,26578.2
64482.7,26602.5
64556.8,26641.9
64621.8,26694.9
64675.3,26759.6
64715.2,26833.4
64740.1,26913.5
64749.6,27004.4
64749.6,27975.8
64733.7,27896
64697.2,27807.8
64644.2,27728.5
64576.7,27661
64497.3,27607.9
64409.1,27571.4
64315.4,27552.8
64220,27552.8
64126.4,27571.4
64038.2,27607.9
63958.8,27661
63891.3,27728.5
63838.2,27807.8
63801.7,27896
63783.1,27989.7
63783.1,28085.1
63801.7,28178.8
63838.2,28267
63891.3,28346.3
63958.8,28413.9
64038.2,28466.9
64126.4,28503.4
64220,28522
64315.4,28522
64409.1,28503.4
64497.3,28466.9
64576.7,28413.9
64644.2,28346.3
64697.2,28267
64733.7,28178.8
64749.6,28099
64749.6,28975.8
64733.7,28896
64697.2,28807.8
64644.2,28728.5
64576.7,28661
64497.3,28607.9
64409.1,28571.4
64315.4,28552.8
64220,28552.8
64126.4,28571.4
64038.2,28607.9
63958.8,28661
63891.3,28728.5
63838.2,28807.8
63801.7,28896
63783.1,28989.7
63783.1,29085.1
63801.7,29178.8
63838.2,29267
63891.3,29346.3
63958.8,29413.9
64038.2,29466.9
64126.4,29503.4
64220,29522
64315.4,29522
64409.1,29503.4
64497.3,29466.9
64576.7,29413.9
64644.2,29346.3
64697.2,29267
64733.7,29178.8
64749.6,29099
64749.6,29975.8
64733.7,29896
64697.2,29807.8
64644.2,29728.5
64576.7,29661
64497.3,29607.9
64409.1,29571.4
64315.4,29552.8
64220,29552.8
64126.4,29571.4
64038.2,29607.9
63958.8,29661
63891.3,29728.5
63838.2,29807.8
63801.7,29896
63783.1,29989.7
63783.1,30085.1
63801.7,30178.8
63838.2,30267
63891.3,30346.3
63958.8,30413.9
64038.2,30466.9
64126.4,30503.4
64220,30522
64315.4,30522
64409.1,30503.4
64497.3,30466.9
64576.7,30413.9
64644.2,30346.3
64697.2,30267
64733.7,30178.8
64749.6,30099
64749.6,30975.8
64733.7,30896
64697.2,30807.8
64644.2,30728.5
64576.7,30661
64497.3,30607.9
64409.1,30571.4
64315.4,30552.8
64220,30552.8
64126.4,30571.4
64038.2,30607.9
63958.8,30661
63891.3,30728.5
63838.2,30807.8
63801.7,30896
63783.1,30989.7
63783.1,31085.1
63801.7,31178.8
63838.2,31267
63891.3,31346.3
63958.8,31413.9
64038.2,31466.9
64126.4,31503.4
64220,31522
64315.4,31522
64409.1,31503.4
64497.3,31466.9
64576.7,31413.9
64644.2,31346.3
64697.2,31267
64733.7,31178.8
64749.6,31099
64749.6,31975.8
64733.7,31896
64697.2,31807.8
64644.2,31728.5
64576.7,31661
64497.3,31607.9
64409.1,31571.4
64315.4,31552.8
64220,31552.8
64126.4,31571.4
64038.2,31607.9
63958.8,31661
63891.3,31728.5
63838.2,31807.8
63801.7,31896
63783.1,31989.7
63783.1,32085.1
63801.7,32178.8
63838.2,32267
63891.3,32346.3
63958.8,32413.9
64038.2,32466.9
64126.4,32503.4
64220,32522
64315.4,32522
64409.1,32503.4
64497.3,32466.9
64576.7,32413.9
64644.2,32346.3
64697.2,32267
64733.7,32178.8
64749.6,32099
64749.6,32975.8
64733.7,32896
64697.2,32807.8
64644.2,32728.5
64576.7,32661
64497.3,32607.9
64409.1,32571.4
64315.4,32552.8
64220,32552.8
64126.4,32571.4
64038.2,32607.9
63958.8,32661
63891.3,32728.5
63838.2,32807.8
63801.7,32896
63783.1,32989.7
63783.1,33085.1
63801.7,33178.8
63838.2,33267
63891.3,33346.3
63958.8,33413.9
64038.2,33466.9
64126.4,33503.4
64220,33522
64315.4,33522
64409.1,33503.4
64497.3,33466.9
64576.7,33413.9
64644.2,33346.3
64697.2,33267
64733.7,33178.8
64749.6,33099
64749.6,33975.8
64733.7,33896
64697.2,33807.8
64644.2,33728.5
64576.7,33661
64497.3,33607.9
64409.1,33571.4
64315.4,33552.8
64220,33552.8
64126.4,33571.4
64038.2,33607.9
63958.8,33661
63891.3,33728.5
63838.2,33807.8
63801.7,33896
63783.1,33989.7
63783.1,34085.1
63801.7,34178.8
63838.2,34267
63891.3,34346.3
63958.8,34413.9
64038.2,34466.9
64126.4,34503.4
64220,34522
64315.4,34522
64409.1,34503.4
64497.3,34466.9
64576.7,34413.9
64644.2,34346.3
64697.2,34267
64733.7,34178.8
64749.6,34099
64749.6,34975.8
64733.7,34896
64697.2,34807.8
64644.2,34728.5
64576.7,34661
64497.3,34607.9
64409.1,34571.4
64315.4,34552.8
64220,34552.8
64126.4,34571.4
64038.2,34607.9
63958.8,34661
63891.3,34728.5
63838.2,34807.8
63801.7,34896
63783.1,34989.7
63783.1,35085.1
63801.7,35178.8
63838.2,35267
63891.3,35346.3
63958.8,35413.9
64038.2,35466.9
64126.4,35503.4
64220,35522
64315.4,35522
64409.1,35503.4
64497.3,35466.9
64576.7,35413.9
64644.2,35346.3
64697.2,35267
64733.7,35178.8
64749.6,35099
64749.6,35975.8
64733.7,35896
64697.2,35807.8
64644.2,35728.5
64576.7,35661
64497.3,35607.9
64409.1,35571.4
64315.4,35552.8
64220,35552.8
64126.4,35571.4
64038.2,35607.9
63958.8,35661
63891.3,35728.5
63838.2,35807.8
63801.7,35896
63783.1,35989.7
63783.1,36085.1
63801.7,36178.8
63838.2,36267
63891.3,36346.3
63958.8,36413.9
64038.2,36466.9
64126.4,36503.4
64220,36522
64315.4,36522
64409.1,36503.4
64497.3,36466.9
64576.7,36413.9
64644.2,36346.3
64697.2,36267
64733.7,36178.8
64749.6,36099
64749.6,36975.8
64733.7,36896
64697.2,36807.8
64644.2,36728.5
64576.7,36661
64497.3,36607.9
64409.1,36571.4
64315.4,36552.8
64220,36552.8
64126.4,36571.4
64038.2,36607.9
63958.8,36661
63891.3,36728.5
63838.2,36807.8
63801.7,36896
63783.1,36989.7
63783.1,37085.1
63801.7,37178.8
63838.2,37267
63891.3,37346.3
63958.8,37413.9
64038.2,37466.9
64126.4,37503.4
64220,37522
64315.4,37522
64409.1,37503.4
64497.3,37466.9
64576.7,37413.9
64644.2,37346.3
64697.2,37267
64733.7,37178.8
64749.6,37099
64749.6,37975.8
64733.7,37896
64697.2,37807.8
64644.2,37728.5
64576.7,37661
64497.3,37607.9
64409.1,37571.4
64315.4,37552.8
64220,37552.8
64126.4,37571.4
64038.2,37607.9
63958.8,37661
63891.3,37728.5
63838.2,37807.8
63801.7,37896
63783.1,37989.7
63783.1,38085.1
63801.7,38178.8
63838.2,38267
63891.3,38346.3
63958.8,38413.9
64038.2,38466.9
64126.4,38503.4
64220,38522
64315.4,38522
64409.1,38503.4
64497.3,38466.9
64576.7,38413.9
64644.2,38346.3
64697.2,38267
64733.7,38178.8
64749.6,38099
64749.6,38975.8
64733.7,38896
64697.2,38807.8
64644.2,38728.5
64576.7,38661
64497.3,38607.9
64409.1,38571.4
64315.4,38552.8
64220,38552.8
64126.4,38571.4
64038.2,38607.9
63958.8,38661
63891.3,38728.5
63838.2,38807.8
63801.7,38896
63783.1,38989.7
63783.1,39085.1
63801.7,39178.8
63838.2,39267
63891.3,39346.3
63958.8,39413.9
64038.2,39466.9
64126.4,39503.4
64220,39522
64315.4,39522
64409.1,39503.4
64497.3,39466.9
64576.7,39413.9
64644.2,39346.3
64697.2,39267
64733.7,39178.8
64749.6,39099
64749.6,39975.8
64733.7,39896
64697.2,39807.8
64644.2,39728.5
64576.7,39661
64497.3,39607.9
64409.1,39571.4
64315.4,39552.8
64220,39552.8
64126.4,39571.4
64038.2,39607.9
63958.8,39661
63891.3,39728.5
63838.2,39807.8
63801.7,39896
63783.1,39989.7
63783.1,40085.1
63801.7,40178.8
63838.2,40267
63891.3,40346.3
63958.8,40413.9
64038.2,40466.9
64126.4,40503.4
64220,40522
64315.4,40522
64409.1,40503.4
64497.3,40466.9
64576.7,40413.9
64644.2,40346.3
64697.2,40267
64733.7,40178.8
64749.6,40099
64749.6,40975.8
64733.7,40896
64697.2,40807.8
64644.2,40728.5
64576.7,40661
64497.3,40607.9
64409.1,40571.4
64315.4,40552.8
64220,40552.8
64126.4,40571.4
64038.2,40607.9
63958.8,40661
63891.3,40728.5
63838.2,40807.8
63801.7,40896
63783.1,40989.7
63783.1,41085.1
63801.7,41178.8
63838.2,41267
63891.3,41346.3
63958.8,41413.9
64038.2,41466.9
64126.4,41503.4
64220,41522
64315.4,41522
64409.1,41503.4
64497.3,41466.9
64576.7,41413.9
64644.2,41346.3
64697.2,41267
64733.7,41178.8
64749.6,41099
64749.6,41975.8
64733.7,41896
64697.2,41807.8
64644.2,41728.5
64576.7,41661
64497.3,41607.9
64409.1,41571.4
64315.4,41552.8
64220,41552.8
64126.4,41571.4
64038.2,41607.9
63958.8,41661
63891.3,41728.5
63838.2,41807.8
63801.7,41896
63783.1,41989.7
63783.1,42085.1
63801.7,42178.8
63838.2,42267
63891.3,42346.3
63958.8,42413.9
64038.2,42466.9
64126.4,42503.4
64220,42522
64315.4,42522
64409.1,42503.4
64497.3,42466.9
64576.7,42413.9
64644.2,42346.3
64697.2,42267
64733.7,42178.8
64749.6,42099
64749.6,43975.8
64733.7,43896
64697.2,43807.8
64644.2,43728.5
64576.7,43661
64497.3,43607.9
64409.1,43571.4
64315.4,43552.8
64220,43552.8
64126.4,43571.4
64038.2,43607.9
63958.8,43661
63891.3,43728.5
63838.2,43807.8
63801.7,43896
63783.1,43989.7
63783.1,44085.1
63801.7,44178.8
63838.2,44267
63891.3,44346.3
63958.8,44413.9
64038.2,44466.9
64126.4,44503.4
64220,44522
64315.4,44522
64409.1,44503.4
64497.3,44466.9
64576.7,44413.9
64644.2,44346.3
64697.2,44267
64733.7,44178.8
64749.6,44099
64749.6,44975.8
64733.7,44896
64697.2,44807.8
64644.2,44728.5
64576.7,44661
64497.3,44607.9
64409.1,44571.4
64315.4,44552.8
64220,44552.8
64126.4,44571.4
64038.2,44607.9
63958.8,44661
63891.3,44728.5
63838.2,44807.8
63801.7,44896
63783.1,44989.7
63783.1,45085.1
63801.7,45178.8
63838.2,45267
63891.3,45346.3
63958.8,45413.9
64038.2,45466.9
64126.4,45503.4
64220,45522
64315.4,45522
64409.1,45503.4
64497.3,45466.9
64576.7,45413.9
64644.2,45346.3
64697.2,45267
64733.7,45178.8
64749.6,45099
64749.6,45975.8
64733.7,45896
64697.2,45807.8
64644.2,45728.5
64576.7,45661
64497.3,45607.9
64409.1,45571.4
64315.4,45552.8
64220,45552.8
64126.4,45571.4
64038.2,45607.9
63958.8,45661
63891.3,45728.5
63838.2,45807.8
63801.7,45896
63783.1,45989.7
63783.1,46085.1
63801.7,46178.8
63838.2,46267
63891.3,46346.3
63958.8,46413.9
64038.2,46466.9
64126.4,46503.4
64220,46522
64315.4,46522
64409.1,46503.4
64497.3,46466.9
64576.7,46413.9
64644.2,46346.3
64697.2,46267
64733.7,46178.8
64749.6,46099
64749.6,46975.8
64733.7,46896
64697.2,46807.8
64644.2,46728.5
64576.7,46661
64497.3,46607.9
64409.1,46571.4
64315.4,46552.8
64220,46552.8
64126.4,46571.4
64038.2,46607.9
63958.8,46661
63891.3,46728.5
63838.2,46807.8
63801.7,46896
63783.1,46989.7
63783.1,47085.1
63801.7,47178.8
63838.2,47267
63891.3,47346.3
63958.8,47413.9
64038.2,47466.9
64126.4,47503.4
64220,47522
64315.4,47522
64409.1,47503.4
64497.3,47466.9
64576.7,47413.9
64644.2,47346.3
64697.2,47267
64733.7,47178.8
64749.6,47099
64749.6,47975.8
64733.7,47896
64697.2,47807.8
64644.2,47728.5
64576.7,47661
64497.3,47607.9
64409.1,47571.4
64315.4,47552.8
64220,47552.8
64126.4,47571.4
64038.2,47607.9
63958.8,47661
63891.3,47728.5
63838.2,47807.8
63801.7,47896
63783.1,47989.7
63783.1,48085.1
63801.7,48178.8
63838.2,48267
63891.3,48346.3
63958.8,48413.9
64038.2,48466.9
64126.4,48503.4
64220,48522
64315.4,48522
64409.1,48503.4
64497.3,48466.9
64576.7,48413.9
64644.2,48346.3
64697.2,48267
64733.7,48178.8
64749.6,48099
64749.6,52752
64740.7,52843.4
64716.4,52923.7
64677,52997.8
64624,53062.8
64559.3,53116.3
64485.5,53156.2
64405.3,53181
64314.5,53190.5
54515.7,53186.6
54424.4,53177.7
54344,53153.4
54269.9,53114
54204.9,53061
54151.4,52996.3
54111.5,52922.5
54086.7,52842.4
54077.2,52751.5
54077.2,52309.8
56016.9,52309.8
56016.9,52366.5
56027.9,52422.1
56049.6,52474.4
56081.1,52521.6
56121.2,52561.7
56168.3,52593.2
56220.7,52614.8
56276.3,52625.9
56333,52625.9
56388.6,52614.8
56441,52593.2
56488.1,52561.7
56528.2,52521.6
56559.7,52474.4
56581.4,52422.1
56592.4,52366.5
56592.4,52309.8
56581.4,52254.2
56559.7,52201.8
56528.2,52154.7
56488.1,52114.6
56441,52083.1
56388.6,52061.4
56358.3,52055.4
62492,52055.4
62492,52685.3
62494.8,52714.7
62503.4,52743
62517.4,52769
62536.1,52791.9
62558.9,52810.6
62585,52824.5
62613.3,52833.1
62642.7,52836
63272.6,52836
63302,52833.1
63330.3,52824.5
63356.3,52810.6
63379.2,52791.9
63397.9,52769
63411.9,52743
63420.4,52714.7
63423.3,52685.3
63423.3,52055.4
63420.4,52025.9
63411.9,51997.7
63397.9,51971.6
63379.2,51948.8
63356.3,51930
63330.3,51916.1
63302,51907.5
63291.6,51906.5
63318.8,51879.3
63369.7,51803.2
63404.7,51718.5
63422.6,51628.7
63422.6,51537.1
63404.7,51447.3
63369.7,51362.7
63318.8,51286.5
63254,51221.8
63205.3,51189.2
63254,51156.7
63318.8,51091.9
63369.7,51015.8
63404.7,50931.1
63422.6,50841.3
63422.6,50749.7
63404.7,50659.9
63369.7,50575.3
63318.8,50499.1
63254,50434.4
63177.9,50383.5
63093.3,50348.4
63003.4,50330.6
62911.8,50330.6
62822,50348.4
62737.4,50383.5
62661.2,50434.4
62596.5,50499.1
62545.6,50575.3
62510.5,50659.9
62492.7,50749.7
62492.7,50841.3
62510.5,50931.1
62545.6,51015.8
62596.5,51091.9
62661.2,51156.7
62709.9,51189.2
62661.2,51221.8
62596.5,51286.5
62545.6,51362.7
62510.5,51447.3
62492.7,51537.1
62492.7,51628.7
62510.5,51718.5
62545.6,51803.2
62596.5,51879.3
62623.7,51906.5
62613.3,51907.5
62585,51916.1
62558.9,51930
62536.1,51948.8
62517.4,51971.6
62503.4,51997.7
62494.8,52025.9
62492,52055.4
56358.3,52055.4
56333,52050.3
56276.3,52050.3
56220.7,52061.4
56168.3,52083.1
56121.2,52114.6
56081.1,52154.7
56049.6,52201.8
56027.9,52254.2
56016.9,52309.8
54077.2,52309.8
54077.2,50840
55450.2,50840
55450.2,50900.6
55462,50960
55485.2,51016
55518.8,51066.3
55561.6,51109.2
55612,51142.8
55668,51166
55727.4,51177.8
55787.9,51177.8
55847.3,51166
55903.3,51142.8
55953.6,51109.2
55996.5,51066.3
56030.1,51016
56053.3,50960
56065.1,50900.6
56065.1,50840
56053.3,50780.6
56030.1,50724.7
55996.5,50674.3
55953.6,50631.5
55903.3,50597.8
55847.3,50574.7
55787.9,50562.8
55727.4,50562.8
55668,50574.7
55612,50597.8
55561.6,50631.5
55518.8,50674.3
55485.2,50724.7
55462,50780.6
55450.2,50840
54077.2,50840
54077.2,50034.2
56016.9,50034.2
56016.9,50090.9
56027.9,50146.5
56049.6,50198.8
56081.1,50246
56121.2,50286.1
56168.3,50317.6
56220.7,50339.3
56276.3,50350.3
56333,50350.3
56388.6,50339.3
56441,50317.6
56488.1,50286.1
56528.2,50246
56559.7,50198.8
56581.4,50146.5
56592.4,50090.9
56592.4,50034.2
56581.4,49978.6
56559.7,49926.2
56528.2,49879.1
56488.1,49839
56441,49807.5
56388.6,49785.8
56333,49774.7
56276.3,49774.7
56220.7,49785.8
56168.3,49807.5
56121.2,49839
56081.1,49879.1
56049.6,49926.2
56027.9,49978.6
56016.9,50034.2
54077.2,50034.2
54077.2,48631
57065.2,48631
57065.2,48691.6
57077,48751
57100.2,48807
57133.8,48857.3
57176.6,48900.2
57227,48933.8
57282.9,48957
57342.4,48968.8
57402.9,48968.8
57462.3,48957
57518.3,48933.8
57568.6,48900.2
57611.5,48857.3
57645.1,48807
57668.3,48751
57680.1,48691.6
57680.1,48631
57668.3,48571.6
57645.1,48515.7
57611.5,48465.3
57568.6,48422.5
57518.3,48388.8
57462.3,48365.7
57402.9,48353.8
57342.4,48353.8
57282.9,48365.7
57227,48388.8
57176.6,48422.5
57133.8,48465.3
57100.2,48515.7
57077,48571.6
57065.2,48631
54077.2,48631
54077.2,48242.4
56546.8,48242.4
56546.8,48303
56558.6,48362.4
56581.8,48418.3
56615.5,48468.7
56658.3,48511.5
56708.6,48545.2
56764.6,48568.4
56824,48580.2
56884.6,48580.2
56944,48568.4
56999.9,48545.2
57050.3,48511.5
57093.1,48468.7
57126.8,48418.3
57150,48362.4
57161.8,48303
57161.8,48242.4
57150,48183
57144.6,48170
59135.1,48170
59135.1,48230.6
59146.9,48290
59170.1,48346
59203.7,48396.3
59246.5,48439.2
59296.9,48472.8
59352.9,48496
59412.3,48507.8
59472.8,48507.8
59532.2,48496
59588.2,48472.8
59638.6,48439.2
59681.4,48396.3
59715,48346
59738.2,48290
59750,48230.6
59750,48170
59738.2,48110.6
59715,48054.7
59699.2,48031
60715.2,48031
60715.2,48091.6
60727,48151
60750.2,48207
60783.8,48257.3
60826.6,48300.2
60877,48333.8
60932.9,48357
60992.4,48368.8
61052.9,48368.8
61112.3,48357
61168.3,48333.8
61218.6,48300.2
61261.5,48257.3
61295.1,48207
61318.3,48151
61330.1,48091.6
61330.1,48031
61318.3,47971.6
61295.1,47915.7
61261.5,47865.3
61218.6,47822.5
61168.3,47788.8
61112.3,47765.7
61052.9,47753.8
60992.4,47753.8
60932.9,47765.7
60877,47788.8
60826.6,47822.5
60783.8,47865.3
60750.2,47915.7
60727,47971.6
60715.2,48031
59699.2,48031
59681.4,48004.3
59638.6,47961.5
59588.2,47927.8
59532.2,47904.7
59472.8,47892.8
59412.3,47892.8
59352.9,47904.7
59296.9,47927.8
59246.5,47961.5
59203.7,48004.3
59170.1,48054.7
59146.9,48110.6
59135.1,48170
57144.6,48170
57126.8,48127.1
57093.1,48076.7
57050.3,48033.9
56999.9,48000.2
56944,47977
56884.6,47965.2
56824,47965.2
56764.6,47977
56708.6,48000.2
56658.3,48033.9
56615.5,48076.7
56581.8,48127.1
56558.6,48183
56546.8,48242.4
54077.2,48242.4
54077.2,47514
57300.2,47514
57300.2,47574.6
57312,47634
57335.2,47690
57368.8,47740.3
57411.6,47783.2
57462,47816.8
57517.9,47840
57577.4,47851.8
57637.9,47851.8
57697.3,47840
57753.3,47816.8
57803.6,47783.2
57846.5,47740.3
57880.1,47690
57903.3,47634
57915.1,47574.6
57915.1,47514
57903.3,47454.6
57880.1,47398.7
57846.5,47348.3
57803.6,47305.5
57753.3,47271.8
57697.3,47248.7
57637.9,47236.8
57577.4,47236.8
57517.9,47248.7
57462,47271.8
57411.6,47305.5
57368.8,47348.3
57335.2,47398.7
57312,47454.6
57300.2,47514
54077.2,47514
54077.2,46687
56037.2,46687
56037.2,46747.6
56049,46807
56072.2,46863
56105.8,46913.3
56148.6,46956.2
56199,46989.8
56254.9,47013
56314.4,47024.8
56374.9,47024.8
56434.3,47013
56470.2,46998.1
56470.2,47055.6
56482,47115
56505.2,47171
56538.8,47221.3
56581.6,47264.2
56632,47297.8
56687.9,47321
56747.4,47332.8
56807.9,47332.8
56867.3,47321
56923.3,47297.8
56973.6,47264.2
57016.5,47221.3
57050.1,47171
57073.3,47115
57085.1,47055.6
57085.1,47008
58016.2,47008
58016.2,47068.6
58028,47128
58051.2,47184
58084.8,47234.3
58127.6,47277.2
58172.8,47307.3
58127.6,47337.5
58084.8,47380.3
58051.2,47430.7
58028,47486.6
58016.2,47546
58016.2,47606.6
58028,47666
58051.2,47722
58084.8,47772.3
58127.6,47815.2
58178,47848.8
58233.9,47872
58293.4,47883.8
58353.9,47883.8
58413.3,47872
58469.3,47848.8
58519.6,47815.2
58562.5,47772.3
58596.1,47722
58619.3,47666
58629.4,47615
61484,47615
61484,47675.6
61495.8,47735
61519,47791
61552.6,47841.3
61595.4,47884.2
61645.8,47917.8
61701.8,47941
61761.2,47952.8
61821.7,47952.8
61881.1,47941
61937.1,47917.8
61987.5,47884.2
62030.3,47841.3
62063.9,47791
62087.1,47735
62098.9,47675.6
62098.9,47615
62087.1,47555.6
62063.9,47499.7
62030.3,47449.3
61987.5,47406.5
61937.1,47372.8
61881.1,47349.7
61821.7,47337.8
61761.2,47337.8
61701.8,47349.7
61645.8,47372.8
61595.4,47406.5
61552.6,47449.3
61519,47499.7
61495.8,47555.6
61484,47615
58629.4,47615
58631.1,47606.6
58631.1,47546
58619.3,47486.6
58596.1,47430.7
58562.5,47380.3
58519.6,47337.5
58474.5,47307.3
58519.6,47277.2
58562.5,47234.3
58596.1,47184
58619.3,47128
58631.1,47068.6
58631.1,47011
62178.2,47011
62178.2,47071.6
62190,47131
62213.2,47187
62246.8,47237.3
62289.6,47280.2
62340,47313.8
62395.9,47337
62455.4,47348.8
62515.9,47348.8
62575.3,47337
62631.3,47313.8
62681.6,47280.2
62724.5,47237.3
62758.1,47187
62781.3,47131
62793.1,47071.6
62793.1,47011
62781.3,46951.6
62758.1,46895.7
62724.5,46845.3
62681.6,46802.5
62631.3,46768.8
62575.3,46745.7
62515.9,46733.8
62455.4,46733.8
62395.9,46745.7
62340,46768.8
62289.6,46802.5
62246.8,46845.3
62213.2,46895.7
62190,46951.6
62178.2,47011
58631.1,47011
58631.1,47008
58619.3,46948.6
58596.1,46892.7
58562.5,46842.3
58519.6,46799.5
58469.3,46765.8
58413.3,46742.7
58353.9,46730.8
58293.4,46730.8
58233.9,46742.7
58178,46765.8
58127.6,46799.5
58084.8,46842.3
58051.2,46892.7
58028,46948.6
58016.2,47008
57085.1,47008
57085.1,46995
57073.3,46935.6
57050.1,46879.7
57016.5,46829.3
56973.6,46786.5
56923.3,46752.8
56867.3,46729.7
56807.9,46717.8
56747.4,46717.8
56687.9,46729.7
56652.1,46744.5
56652.1,46687
56640.3,46627.6
56617.1,46571.7
56583.5,46521.3
56540.6,46478.5
56490.3,46444.8
56434.3,46421.7
56374.9,46409.8
56314.4,46409.8
56254.9,46421.7
56199,46444.8
56148.6,46478.5
56105.8,46521.3
56072.2,46571.7
56049,46627.6
56037.2,46687
54077.2,46687
54077.2,45155
59140.2,45155
59140.2,45215.6
59152,45275
59175.2,45331
59208.8,45381.3
59251.6,45424.2
59302,45457.8
59357.9,45481
59417.4,45492.8
59477.9,45492.8
59537.3,45481
59593.3,45457.8
59643.6,45424.2
59686.5,45381.3
59720.1,45331
59743.3,45275
59755.1,45215.6
59755.1,45155
59754.1,45150
59900.2,45150
59900.2,45210.6
59912,45270
59935.2,45326
59968.8,45376.3
60011.6,45419.2
60062,45452.8
60117.9,45476
60177.4,45487.8
60237.9,45487.8
60297.3,45476
60353.3,45452.8
60403.6,45419.2
60446.5,45376.3
60480.1,45326
60503.3,45270
60515.1,45210.6
60515.1,45150
60503.3,45090.6
60480.1,45034.7
60446.5,44984.3
60403.6,44941.5
60353.3,44907.8
60297.3,44884.7
60237.9,44872.8
60177.4,44872.8
60117.9,44884.7
60062,44907.8
60011.6,44941.5
59968.8,44984.3
59935.2,45034.7
59912,45090.6
59900.2,45150
59754.1,45150
59743.3,45095.6
59720.1,45039.7
59686.5,44989.3
59643.6,44946.5
59593.3,44912.8
59537.3,44889.7
59477.9,44877.8
59417.4,44877.8
59357.9,44889.7
59302,44912.8
59251.6,44946.5
59208.8,44989.3
59175.2,45039.7
59152,45095.6
59140.2,45155
54077.2,45155
54077.2,44264
54078.4,44267
54131.4,44346.3
54198.9,44413.9
54278.3,44466.9
54366.5,44503.4
54460.1,44522
54555.6,44522
54649.2,44503.4
54737.4,44466.9
54816.8,44413.9
54884.3,44346.3
54915.3,44300
61855.2,44300
61855.2,44360.6
61867,44420
61890.2,44476
61923.8,44526.3
61966.6,44569.2
62017,44602.8
62072.9,44626
62132.4,44637.8
62192.9,44637.8
62252.3,44626
62308.3,44602.8
62358.6,44569.2
62401.5,44526.3
62435.1,44476
62458.3,44420
62470.1,44360.6
62470.1,44300
62458.3,44240.6
62435.1,44184.7
62401.5,44134.3
62358.6,44091.5
62308.3,44057.8
62252.3,44034.7
62192.9,44022.8
62132.4,44022.8
62072.9,44034.7
62017,44057.8
61966.6,44091.5
61923.8,44134.3
61890.2,44184.7
61867,44240.6
61855.2,44300
54915.3,44300
54937.4,44267
54973.9,44178.8
54992.5,44085.1
54992.5,43989.7
54973.9,43896
54937.4,43807.8
54884.3,43728.5
54841.9,43686
54969.2,43686
54969.2,43746.6
54981,43806
55004.2,43862
55037.8,43912.3
55080.6,43955.2
55131,43988.8
55186.9,44012
55246.4,44023.8
55306.9,44023.8
55366.3,44012
55422.3,43988.8
55472.6,43955.2
55515.5,43912.3
55549.1,43862
55572.3,43806
55584.1,43746.6
55584.1,43686
55572.3,43626.6
55549.1,43570.7
55515.5,43520.3
55472.6,43477.5
55422.3,43443.8
55366.3,43420.7
55306.9,43408.8
55246.4,43408.8
55186.9,43420.7
55131,43443.8
55080.6,43477.5
55037.8,43520.3
55004.2,43570.7
54981,43626.6
54969.2,43686
54841.9,43686
54816.8,43661
54737.4,43607.9
54649.2,43571.4
54555.6,43552.8
54460.1,43552.8
54366.5,43571.4
54278.3,43607.9
54198.9,43661
54131.4,43728.5
54078.4,43807.8
54077.2,43810.8
54077.2,43264
54078.4,43267
54131.4,43346.3
54198.9,43413.9
54278.3,43466.9
54366.5,43503.4
54460.1,43522
54555.6,43522
54649.2,43503.4
54737.4,43466.9
54816.8,43413.9
54884.3,43346.3
54937.4,43267
54973.9,43178.8
54977.4,43161.1
56512.6,43161.1
56512.6,43221.7
56524.4,43281.1
56547.6,43337.1
56581.2,43387.4
56624,43430.3
56674.4,43463.9
56730.4,43487.1
56787.2,43498.4
56787.2,43511.6
56799,43571
56822.2,43627
56855.8,43677.3
56898.6,43720.2
56949,43753.8
57004.9,43777
57064.4,43788.8
57124.9,43788.8
57184.3,43777
57240.3,43753.8
57290.6,43720.2
57333.5,43677.3
57367.1,43627
57390.3,43571
57399.4,43525
61850.2,43525
61850.2,43585.6
61862,43645
61885.2,43701
61918.8,43751.3
61961.6,43794.2
62012,43827.8
62067.9,43851
62127.4,43862.8
62187.9,43862.8
62247.3,43851
62303.3,43827.8
62353.6,43794.2
62396.5,43751.3
62430.1,43701
62453.3,43645
62465.1,43585.6
62465.1,43525
62453.3,43465.6
62430.1,43409.7
62396.5,43359.3
62353.6,43316.5
62303.3,43282.8
62247.3,43259.7
62187.9,43247.8
62127.4,43247.8
62067.9,43259.7
62012,43282.8
61961.6,43316.5
61918.8,43359.3
61885.2,43409.7
61862,43465.6
61850.2,43525
57399.4,43525
57402.1,43511.6
57402.1,43451
57390.3,43391.6
57367.1,43335.7
57333.5,43285.3
57290.6,43242.5
57240.3,43208.8
57184.3,43185.7
57127.5,43174.4
57127.5,43161.1
57115.7,43101.7
57092.5,43045.8
57058.9,42995.4
57016.1,42952.6
56965.7,42918.9
56909.7,42895.8
56850.3,42883.9
56789.8,42883.9
56730.4,42895.8
56674.4,42918.9
56624,42952.6
56581.2,42995.4
56547.6,43045.8
56524.4,43101.7
56512.6,43161.1
54977.4,43161.1
54992.5,43085.1
54992.5,42989.7
54973.9,42896
54937.4,42807.8
54884.3,42728.5
54816.8,42661
54737.4,42607.9
54649.2,42571.4
54555.6,42552.8
54460.1,42552.8
54366.5,42571.4
54278.3,42607.9
54198.9,42661
54131.4,42728.5
54078.4,42807.8
54077.2,42810.8
54077.2,42264
54078.4,42267
54131.4,42346.3
54198.9,42413.9
54278.3,42466.9
54366.5,42503.4
54460.1,42522
54555.6,42522
54649.2,42503.4
54737.4,42466.9
54816.8,42413.9
54884.3,42346.3
54937.4,42267
54973.9,42178.8
54992.5,42085.1
54992.5,41989.7
54973.9,41896
54937.4,41807.8
54916,41775.9
56086,41775.9
56086,41836.5
56097.8,41895.9
56121,41951.8
56154.7,42002.2
56197.5,42045
56247.9,42078.7
56303.8,42101.9
56363.2,42113.7
56423.8,42113.7
56483.2,42101.9
56539.2,42078.7
56589.5,42045
56632.3,42002.2
56666,41951.8
56689.2,41895.9
56701,41836.5
56701,41822
59348.2,41822
59348.2,41882.6
59360,41942
59383.2,41998
59416.8,42048.3
59459.6,42091.2
59510,42124.8
59565.9,42148
59625.4,42159.8
59685.9,42159.8
59745.3,42148
59801.3,42124.8
59851.6,42091.2
59894.5,42048.3
59911,42023.6
59920.8,42038.3
59963.6,42081.2
60014,42114.8
60069.9,42138
60129.4,42149.8
60189.9,42149.8
60198.8,42148
61605.2,42148
61605.2,42208.6
61617,42268
61640.2,42324
61673.8,42374.3
61716.6,42417.2
61767,42450.8
61822.9,42474
61882.4,42485.8
61942.9,42485.8
62002.3,42474
62058.3,42450.8
62108.6,42417.2
62151.5,42374.3
62185.1,42324
62208.3,42268
62220.1,42208.6
62220.1,42148
62208.3,42088.6
62185.1,42032.7
62151.5,41982.3
62108.6,41939.5
62058.3,41905.8
62002.3,41882.7
61942.9,41870.8
61882.4,41870.8
61822.9,41882.7
61767,41905.8
61716.6,41939.5
61673.8,41982.3
61640.2,42032.7
61617,42088.6
61605.2,42148
60198.8,42148
60249.3,42138
60305.3,42114.8
60355.6,42081.2
60398.5,42038.3
60432.1,41988
60455.3,41932
60467.1,41872.6
60467.1,41812
60455.3,41752.6
60432.1,41696.7
60398.5,41646.3
60355.6,41603.5
60305.3,41569.8
60249.3,41546.7
60189.9,41534.8
60129.4,41534.8
60069.9,41546.7
60014,41569.8
59963.6,41603.5
59920.8,41646.3
59904.3,41671
59894.5,41656.3
59851.6,41613.5
59801.3,41579.8
59745.3,41556.7
59685.9,41544.8
59625.4,41544.8
59565.9,41556.7
59510,41579.8
59459.6,41613.5
59416.8,41656.3
59383.2,41706.7
59360,41762.6
59348.2,41822
56701,41822
56701,41775.9
56689.2,41716.5
56666,41660.5
56632.3,41610.2
56589.5,41567.4
56539.2,41533.7
56483.2,41510.5
56423.8,41498.7
56363.2,41498.7
56303.8,41510.5
56247.9,41533.7
56197.5,41567.4
56154.7,41610.2
56121,41660.5
56097.8,41716.5
56086,41775.9
54916,41775.9
54884.3,41728.5
54816.8,41661
54737.4,41607.9
54649.2,41571.4
54555.6,41552.8
54460.1,41552.8
54366.5,41571.4
54278.3,41607.9
54198.9,41661
54131.4,41728.5
54078.4,41807.8
54077.2,41810.8
54077.2,41264
54078.4,41267
54131.4,41346.3
54198.9,41413.9
54278.3,41466.9
54366.5,41503.4
54460.1,41522
54555.6,41522
54649.2,41503.4
54737.4,41466.9
54816.8,41413.9
54884.3,41346.3
54937.4,41267
54973.9,41178.8
54992.5,41085.1
54992.5,40989.7
54973.9,40896
54937.4,40807.8
54884.3,40728.5
54816.8,40661
54737.4,40607.9
54649.2,40571.4
54555.6,40552.8
54460.1,40552.8
54366.5,40571.4
54278.3,40607.9
54198.9,40661
54131.4,40728.5
54078.4,40807.8
54077.2,40810.8
54077.2,40264
54078.4,40267
54131.4,40346.3
54198.9,40413.9
54278.3,40466.9
54366.5,40503.4
54460.1,40522
54555.6,40522
54649.2,40503.4
54737.4,40466.9
54816.8,40413.9
54884.3,40346.3
54937.4,40267
54973.9,40178.8
54992.5,40085.1
54992.5,39989.7
54973.9,39896
54937.4,39807.8
54884.3,39728.5
54816.8,39661
54737.4,39607.9
54649.2,39571.4
54555.6,39552.8
54460.1,39552.8
54366.5,39571.4
54278.3,39607.9
54198.9,39661
54131.4,39728.5
54078.4,39807.8
54077.2,39810.8
54077.2,39264
54078.4,39267
54131.4,39346.3
54198.9,39413.9
54278.3,39466.9
54366.5,39503.4
54460.1,39522
54555.6,39522
54649.2,39503.4
54737.4,39466.9
54750.7,39458
61710.2,39458
61710.2,39518.6
61722,39578
61745.2,39634
61778.8,39684.3
61821.6,39727.2
61872,39760.8
61927.9,39784
61987.4,39795.8
62047.9,39795.8
62107.3,39784
62163.3,39760.8
62213.6,39727.2
62256.5,39684.3
62290.1,39634
62313.3,39578
62325.1,39518.6
62325.1,39458
62313.3,39398.6
62290.1,39342.7
62256.5,39292.3
62213.6,39249.5
62163.3,39215.8
62107.3,39192.7
62047.9,39180.8
61987.4,39180.8
61927.9,39192.7
61872,39215.8
61821.6,39249.5
61778.8,39292.3
61745.2,39342.7
61722,39398.6
61710.2,39458
54750.7,39458
54816.8,39413.9
54884.3,39346.3
54937.4,39267
54973.9,39178.8
54991.9,39088
57611.2,39088
57611.2,39148.6
57623,39208
57646.2,39264
57679.8,39314.3
57722.6,39357.2
57773,39390.8
57828.9,39414
57888.4,39425.8
57948.9,39425.8
58008.3,39414
58064.3,39390.8
58114.6,39357.2
58157.5,39314.3
58191.1,39264
58214.3,39208
58226.1,39148.6
58226.1,39088
58225.5,39085
59225,39085
59225,39145.6
59236.8,39205
59260,39261
59293.6,39311.3
59336.5,39354.2
59386.8,39387.8
59442.8,39411
59502.2,39422.8
59562.8,39422.8
59622.2,39411
59678.1,39387.8
59728.5,39354.2
59771.3,39311.3
59805,39261
59828.1,39205
59840,39145.6
59840,39085
59828.1,39025.6
59805,38969.7
59771.3,38919.3
59728.5,38876.5
59678.1,38842.8
59622.2,38819.7
59562.8,38807.8
59502.2,38807.8
59442.8,38819.7
59386.8,38842.8
59336.5,38876.5
59293.6,38919.3
59260,38969.7
59236.8,39025.6
59225,39085
58225.5,39085
58214.3,39028.6
58191.1,38972.7
58157.5,38922.3
58114.6,38879.5
58064.3,38845.8
58008.3,38822.7
57948.9,38810.8
57888.4,38810.8
57828.9,38822.7
57773,38845.8
57722.6,38879.5
57679.8,38922.3
57646.2,38972.7
57623,39028.6
57611.2,39088
54991.9,39088
54992.5,39085.1
54992.5,38989.7
54973.9,38896
54937.4,38807.8
54884.3,38728.5
54849.9,38694
61710.2,38694
61710.2,38754.6
61722,38814
61745.2,38870
61778.8,38920.3
61821.6,38963.2
61872,38996.8
61927.9,39020
61987.4,39031.8
62047.9,39031.8
62107.3,39020
62163.3,38996.8
62213.6,38963.2
62256.5,38920.3
62290.1,38870
62313.3,38814
62325.1,38754.6
62325.1,38694
62313.3,38634.6
62290.1,38578.7
62256.5,38528.3
62213.6,38485.5
62163.3,38451.8
62107.3,38428.7
62047.9,38416.8
61987.4,38416.8
61927.9,38428.7
61872,38451.8
61821.6,38485.5
61778.8,38528.3
61745.2,38578.7
61722,38634.6
61710.2,38694
54849.9,38694
54816.8,38661
54737.4,38607.9
54649.2,38571.4
54555.6,38552.8
54460.1,38552.8
54366.5,38571.4
54278.3,38607.9
54198.9,38661
54131.4,38728.5
54078.4,38807.8
54077.2,38810.8
54077.2,38264
54078.4,38267
54131.4,38346.3
54198.9,38413.9
54278.3,38466.9
54366.5,38503.4
54460.1,38522
54555.6,38522
54649.2,38503.4
54737.4,38466.9
54816.8,38413.9
54884.3,38346.3
54937.4,38267
54973.9,38178.8
54992.5,38085.1
54992.5,37989.7
54973.9,37896
54937.4,37807.8
54884.3,37728.5
54816.8,37661
54737.4,37607.9
54649.2,37571.4
54555.6,37552.8
54460.1,37552.8
54366.5,37571.4
54278.3,37607.9
54198.9,37661
54131.4,37728.5
54078.4,37807.8
54077.2,37810.8
54077.2,37264
54078.4,37267
54131.4,37346.3
54198.9,37413.9
54278.3,37466.9
54366.5,37503.4
54460.1,37522
54555.6,37522
54649.2,37503.4
54737.4,37466.9
54816.8,37413.9
54884.3,37346.3
54937.4,37267
54973.4,37180
56110.2,37180
56110.2,37240.6
56122,37300
56145.2,37356
56178.8,37406.3
56221.6,37449.2
56272,37482.8
56327.9,37506
56387.4,37517.8
56447.9,37517.8
56507.3,37506
56563.3,37482.8
56613.6,37449.2
56656.5,37406.3
56690.1,37356
56713.3,37300
56725.1,37240.6
56725.1,37180
56713.3,37120.6
56690.1,37064.7
56656.5,37014.3
56613.6,36971.5
56563.3,36937.8
56507.3,36914.7
56447.9,36902.8
56387.4,36902.8
56327.9,36914.7
56272,36937.8
56221.6,36971.5
56178.8,37014.3
56145.2,37064.7
56122,37120.6
56110.2,37180
54973.4,37180
54973.9,37178.8
54992.5,37085.1
54992.5,36989.7
54973.9,36896
54937.4,36807.8
54884.3,36728.5
54816.8,36661
54737.4,36607.9
54689.4,36588
59082.2,36588
59082.2,36648.6
59094,36708
59117.2,36764
59150.8,36814.3
59193.6,36857.2
59244,36890.8
59299.9,36914
59359.4,36925.8
59419.9,36925.8
59479.3,36914
59535.3,36890.8
59585.6,36857.2
59628.5,36814.3
59662.1,36764
59685.3,36708
59697.1,36648.6
59697.1,36588
59685.3,36528.6
59662.1,36472.7
59628.5,36422.3
59585.6,36379.5
59535.3,36345.8
59479.3,36322.7
59419.9,36310.8
59359.4,36310.8
59299.9,36322.7
59244,36345.8
59193.6,36379.5
59150.8,36422.3
59117.2,36472.7
59094,36528.6
59082.2,36588
54689.4,36588
54649.2,36571.4
54555.6,36552.8
54460.1,36552.8
54366.5,36571.4
54278.3,36607.9
54198.9,36661
54131.4,36728.5
54078.4,36807.8
54077.2,36810.8
54077.2,36264
54078.4,36267
54131.4,36346.3
54198.9,36413.9
54278.3,36466.9
54366.5,36503.4
54460.1,36522
54555.6,36522
54649.2,36503.4
54737.4,36466.9
54816.8,36413.9
54884.3,36346.3
54937.4,36267
54973.9,36178.8
54992.5,36085.1
54992.5,35989.7
54973.9,35896
54937.4,35807.8
54884.3,35728.5
54816.8,35661
54737.4,35607.9
54649.2,35571.4
54555.6,35552.8
54460.1,35552.8
54366.5,35571.4
54278.3,35607.9
54198.9,35661
54131.4,35728.5
54078.4,35807.8
54077.2,35810.8
54077.2,35264
54078.4,35267
54131.4,35346.3
54198.9,35413.9
54278.3,35466.9
54366.5,35503.4
54460.1,35522
54555.6,35522
54649.2,35503.4
54737.4,35466.9
54816.8,35413.9
54884.3,35346.3
54937.4,35267
54973.9,35178.8
54992.5,35085.1
54992.5,34989.7
54973.9,34896
54937.4,34807.8
54884.3,34728.5
54816.8,34661
54737.4,34607.9
54649.2,34571.4
54555.6,34552.8
54460.1,34552.8
54366.5,34571.4
54278.3,34607.9
54198.9,34661
54131.4,34728.5
54078.4,34807.8
54077.2,34810.8
54077.2,34264
54078.4,34267
54131.4,34346.3
54198.9,34413.9
54278.3,34466.9
54366.5,34503.4
54460.1,34522
54555.6,34522
54649.2,34503.4
54664.7,34497
56227.2,34497
56227.2,34557.6
56239,34617
56262.2,34673
56295.8,34723.3
56338.6,34766.2
56389,34799.8
56444.9,34823
56504.4,34834.8
56564.9,34834.8
56624.3,34823
56680.3,34799.8
56730.6,34766.2
56773.5,34723.3
56807.1,34673
56830.3,34617
56842.1,34557.6
56842.1,34497
56830.3,34437.6
56807.1,34381.7
56773.5,34331.3
56730.6,34288.5
56680.3,34254.8
56624.3,34231.7
56617.1,34230.2
56628.3,34228
56684.3,34204.8
56734.6,34171.2
56777.5,34128.3
56811.1,34078
56834.3,34022
56846.1,33962.6
56846.1,33902
56845.9,33901
57062.8,33901
57062.8,33961.6
57074.6,34021
57097.7,34077
57131.4,34127.3
57174.2,34170.2
57224.6,34203.8
57280.5,34227
57339.9,34238.8
57400.5,34238.8
57459.9,34227
57515.9,34203.8
57566.2,34170.2
57609.1,34127.3
57642.7,34077
57665.9,34021
57677.7,33961.6
57677.7,33901
57674.7,33886
61552.2,33886
61552.2,33946.6
61564,34006
61587.2,34062
61620.8,34112.3
61663.6,34155.2
61714,34188.8
61769.9,34212
61809.8,34219.9
61770.9,34227.7
61715,34250.8
61664.6,34284.5
61621.8,34327.3
61588.2,34377.7
61565,34433.6
61553.2,34493
61553.2,34553.6
61565,34613
61588.2,34669
61621.8,34719.3
61664.6,34762.2
61715,34795.8
61767.6,34817.6
61714,34839.8
61663.6,34873.5
61620.8,34916.3
61587.2,34966.7
61564,35022.6
61552.2,35082
61552.2,35142.6
61564,35202
61587.2,35258
61620.8,35308.3
61663.6,35351.2
61714,35384.8
61769.9,35408
61829.4,35419.8
61889.9,35419.8
61949.3,35408
62005.3,35384.8
62055.6,35351.2
62098.5,35308.3
62132.1,35258
62155.3,35202
62167.1,35142.6
62167.1,35082
62155.3,35022.6
62132.1,34966.7
62098.5,34916.3
62055.6,34873.5
62005.3,34839.8
61952.6,34818
62006.3,34795.8
62056.6,34762.2
62099.5,34719.3
62133.1,34669
62156.3,34613
62168.1,34553.6
62168.1,34493
62156.3,34433.6
62133.1,34377.7
62099.5,34327.3
62056.6,34284.5
62006.3,34250.8
61950.3,34227.7
61910.4,34219.7
61949.3,34212
62005.3,34188.8
62055.6,34155.2
62098.5,34112.3
62132.1,34062
62155.3,34006
62167.1,33946.6
62167.1,33886
62155.3,33826.6
62132.1,33770.7
62098.5,33720.3
62055.6,33677.5
62005.3,33643.8
61979.9,33633.3
62017.3,33617.8
62067.6,33584.2
62110.5,33541.3
62144.1,33491
62167.3,33435
62179.1,33375.6
62179.1,33315
62167.3,33255.6
62144.1,33199.7
62110.5,33149.3
62067.6,33106.5
62017.3,33072.8
61961.3,33049.7
61901.9,33037.8
61841.4,33037.8
61781.9,33049.7
61726,33072.8
61675.6,33106.5
61632.8,33149.3
61599.2,33199.7
61576,33255.6
61564.2,33315
61564.2,33375.6
61576,33435
61599.2,33491
61632.8,33541.3
61675.6,33584.2
61726,33617.8
61751.4,33628.3
61714,33643.8
61663.6,33677.5
61620.8,33720.3
61587.2,33770.7
61564,33826.6
61552.2,33886
57674.7,33886
57665.9,33841.6
57642.7,33785.7
57609.1,33735.3
57566.2,33692.5
57515.9,33658.8
57459.9,33635.7
57400.5,33623.8
57339.9,33623.8
57280.5,33635.7
57224.6,33658.8
57174.2,33692.5
57131.4,33735.3
57097.7,33785.7
57074.6,33841.6
57062.8,33901
56845.9,33901
56834.3,33842.6
56811.1,33786.7
56777.5,33736.3
56734.6,33693.5
56684.3,33659.8
56646.6,33644.2
56686.3,33627.8
56736.6,33594.2
56779.5,33551.3
56813.1,33501
56836.3,33445
56848.1,33385.6
56848.1,33325
56836.3,33265.6
56813.1,33209.7
56779.5,33159.3
56736.6,33116.5
56686.3,33082.8
56630.3,33059.7
56570.9,33047.8
56510.4,33047.8
56450.9,33059.7
56395,33082.8
56344.6,33116.5
56301.8,33159.3
56268.2,33209.7
56245,33265.6
56233.2,33325
56233.2,33385.6
56245,33445
56268.2,33501
56301.8,33551.3
56344.6,33594.2
56395,33627.8
56432.7,33643.4
56393,33659.8
56342.6,33693.5
56299.8,33736.3
56266.2,33786.7
56243,33842.6
56231.2,33902
56231.2,33962.6
56243,34022
56266.2,34078
56299.8,34128.3
56342.6,34171.2
56393,34204.8
56448.9,34228
56456.2,34229.4
56444.9,34231.7
56389,34254.8
56338.6,34288.5
56295.8,34331.3
56262.2,34381.7
56239,34437.6
56227.2,34497
54664.7,34497
54737.4,34466.9
54816.8,34413.9
54884.3,34346.3
54937.4,34267
54973.9,34178.8
54992.5,34085.1
54992.5,33989.7
54973.9,33896
54937.4,33807.8
54884.3,33728.5
54816.8,33661
54737.4,33607.9
54649.2,33571.4
54555.6,33552.8
54460.1,33552.8
54366.5,33571.4
54278.3,33607.9
54198.9,33661
54131.4,33728.5
54078.4,33807.8
54077.2,33810.8
54077.2,33264
54078.4,33267
54131.4,33346.3
54198.9,33413.9
54278.3,33466.9
54366.5,33503.4
54460.1,33522
54555.6,33522
54649.2,33503.4
54737.4,33466.9
54816.8,33413.9
54884.3,33346.3
54937.4,33267
54973.9,33178.8
54992.5,33085.1
54992.5,32989.7
54973.9,32896
54937.4,32807.8
54884.3,32728.5
54816.8,32661
54737.4,32607.9
54649.2,32571.4
54555.6,32552.8
54460.1,32552.8
54366.5,32571.4
54278.3,32607.9
54198.9,32661
54131.4,32728.5
54078.4,32807.8
54077.2,32810.8
54077.2,32264
54078.4,32267
54131.4,32346.3
54198.9,32413.9
54278.3,32466.9
54366.5,32503.4
54460.1,32522
54555.6,32522
54649.2,32503.4
54737.4,32466.9
54816.8,32413.9
54884.3,32346.3
54937.4,32267
54973.9,32178.8
54992.5,32085.1
54992.5,31989.7
54973.9,31896
54937.4,31807.8
54884.3,31728.5
54816.8,31661
54737.4,31607.9
54649.2,31571.4
54555.6,31552.8
54460.1,31552.8
54366.5,31571.4
54278.3,31607.9
54198.9,31661
54131.4,31728.5
54078.4,31807.8
54077.2,31810.8
54077.2,31264
54078.4,31267
54131.4,31346.3
54198.9,31413.9
54278.3,31466.9
54366.5,31503.4
54460.1,31522
54555.6,31522
54649.2,31503.4
54737.4,31466.9
54816.8,31413.9
54884.3,31346.3
54937.4,31267
54973.9,31178.8
54992.5,31085.1
54992.5,30989.7
54973.9,30896
54937.4,30807.8
54884.3,30728.5
54816.8,30661
54737.4,30607.9
54649.2,30571.4
54555.6,30552.8
54460.1,30552.8
54366.5,30571.4
54278.3,30607.9
54198.9,30661
54131.4,30728.5
54078.4,30807.8
54077.2,30810.8
54077.2,30264
54078.4,30267
54131.4,30346.3
54198.9,30413.9
54278.3,30466.9
54366.5,30503.4
54460.1,30522
54555.6,30522
54649.2,30503.4
54737.4,30466.9
54816.8,30413.9
54884.3,30346.3
54937.4,30267
54973.9,30178.8
54992.5,30085.1
54992.5,29989.7
54973.9,29896
54937.4,29807.8
54908.8,29765
61572.2,29765
61572.2,29825.6
61584,29885
61607.2,29941
61640.8,29991.3
61683.6,30034.2
61734,30067.8
61789.9,30091
61849.4,30102.8
61909.9,30102.8
61969.3,30091
62025.3,30067.8
62075.6,30034.2
62118.5,29991.3
62152.1,29941
62175.3,29885
62187.1,29825.6
62187.1,29765
62175.3,29705.6
62152.1,29649.7
62118.5,29599.3
62075.6,29556.5
62025.3,29522.8
61969.3,29499.7
61964.6,29498.7
61973.3,29497
62029.3,29473.8
62079.6,29440.2
62122.5,29397.3
62156.1,29347
62179.3,29291
62191.1,29231.6
62191.1,29171
62179.3,29111.6
62156.1,29055.7
62122.5,29005.3
62079.6,28962.5
62029.3,28928.8
61973.3,28905.7
61913.9,28893.8
61853.4,28893.8
61793.9,28905.7
61738,28928.8
61687.6,28962.5
61644.8,29005.3
61611.2,29055.7
61588,29111.6
61576.2,29171
61576.2,29231.6
61588,29291
61611.2,29347
61644.8,29397.3
61687.6,29440.2
61738,29473.8
61793.9,29497
61798.7,29497.9
61789.9,29499.7
61734,29522.8
61683.6,29556.5
61640.8,29599.3
61607.2,29649.7
61584,29705.6
61572.2,29765
54908.8,29765
54884.3,29728.5
54816.8,29661
54737.4,29607.9
54649.2,29571.4
54555.6,29552.8
54460.1,29552.8
54366.5,29571.4
54278.3,29607.9
54198.9,29661
54131.4,29728.5
54078.4,29807.8
54077.2,29810.8
54077.2,29264
54078.4,29267
54131.4,29346.3
54198.9,29413.9
54278.3,29466.9
54366.5,29503.4
54460.1,29522
54555.6,29522
54649.2,29503.4
54737.4,29466.9
54816.8,29413.9
54884.3,29346.3
54937.4,29267
54973.9,29178.8
54992.5,29085.1
54992.5,28989.7
54973.9,28896
54937.4,28807.8
54884.3,28728.5
54816.8,28661
54737.4,28607.9
54649.2,28571.4
54555.6,28552.8
54460.1,28552.8
54366.5,28571.4
54278.3,28607.9
54198.9,28661
54131.4,28728.5
54078.4,28807.8
54077.2,28810.8
54077.2,28264
54078.4,28267
54131.4,28346.3
54198.9,28413.9
54278.3,28466.9
54366.5,28503.4
54460.1,28522
54555.6,28522
54649.2,28503.4
54737.4,28466.9
54816.8,28413.9
54884.3,28346.3
54937.4,28267
54973.9,28178.8
54992.5,28085.1
54992.5,28050
56256.2,28050
56256.2,28110.6
56268,28170
56291.2,28226
56324.8,28276.3
56367.6,28319.2
56418,28352.8
56474,28376
56533.4,28387.8
56593.9,28387.8
56653.3,28376
56709.3,28352.8
56759.6,28319.2
56802.5,28276.3
56836.1,28226
56859.3,28170
56871.1,28110.6
56871.1,28050
56859.3,27990.6
56836.1,27934.7
56802.5,27884.3
56759.6,27841.5
56709.3,27807.8
56653.3,27784.7
56593.9,27772.8
56533.4,27772.8
56474,27784.7
56418,27807.8
56367.6,27841.5
56324.8,27884.3
56291.2,27934.7
56268,27990.6
56256.2,28050
54992.5,28050
54992.5,27989.7
54973.9,27896
54937.4,27807.8
54884.3,27728.5
54816.8,27661
54737.4,27607.9
54649.2,27571.4
54555.6,27552.8
54460.1,27552.8
54366.5,27571.4
54278.3,27607.9
54198.9,27661
54131.4,27728.5
54078.4,27807.8
54077.2,27810.8
54077.2,27403
61559.2,27403
61559.2,27463.6
61571,27523
61594.2,27579
61627.8,27629.3
61670.6,27672.2
61721,27705.8
61776.9,27729
61836.4,27740.8
61896.9,27740.8
61956.3,27729
62012.3,27705.8
62062.6,27672.2
62105.5,27629.3
62139.1,27579
62162.3,27523
62174.1,27463.6
62174.1,27403
62162.3,27343.6
62139.1,27287.7
62105.5,27237.3
62062.6,27194.5
62012.3,27160.8
61956.3,27137.7
61896.9,27125.8
61836.4,27125.8
61776.9,27137.7
61721,27160.8
61670.6,27194.5
61627.8,27237.3
61594.2,27287.7
61571,27343.6
61559.2,27403
54077.2,27403
54077.2,27007.8
54086.1,26916.5
54110.4,26836.2
54149.8,26762.1
54202.8,26697
54267.5,26643.6
54341.3,26603.7
54421.4,26578.8
54512.3,26569.3
64311.1,26569.3
Z" /> 
</g>
</g> 
</svg>
