<?xml version="1.0" standalone="no"?>
 <!DOCTYPE svg PUBLIC "-//W3C//DTD SVG 1.1//EN" 
 "http://www.w3.org/Graphics/SVG/1.1/DTD/svg11.dtd"> 
<svg xmlns="http://www.w3.org/2000/svg" version="1.1" 
    width="29.7002cm" height="21.0007cm" viewBox="0 0 116930 82680 ">
<title>SVG Picture created as ESP32-S2-B_Cu.svg date 2021/06/10 16:34:16 </title>
  <desc>Picture generated by PCBNEW </desc>
<g style="fill:#000000; fill-opacity:1;stroke:#000000; stroke-opacity:1;
stroke-linecap:round; stroke-linejoin:round; "
 transform="translate(0 0) scale(1 1)">
</g>
<g style="fill:#000000; fill-opacity:0.0; 
stroke:#000000; stroke-width:-0.000393701; stroke-opacity:1; 
stroke-linecap:round; stroke-linejoin:round;">
<g >
</g>
<g >
</g>
<g >
</g>
<g >
</g>
<g >
</g>
<g >
</g>
<g >
</g>
<g >
</g>
<g >
</g>
<g >
</g>
<g style="fill:#000000; fill-opacity:0.0; 
stroke:#000000; stroke-width:-0.000393701; stroke-opacity:1; 
stroke-linecap:round; stroke-linejoin:round;">
</g>
<g style="fill:#000000; fill-opacity:0.0; 
stroke:#000000; stroke-width:413.386; stroke-opacity:1; 
stroke-linecap:round; stroke-linejoin:round;">
<path d="M55074 52901
L54660 52901
" />
<path d="M55074 49499
L54660 49499
" />
<path d="M56720 52901
L56306 52901
" />
<path d="M56720 49499
L56306 49499
" />
</g>
<g >
</g>
<g >
</g>
<g >
</g>
<g >
</g>
<g >
</g>
<g >
</g>
<g >
</g>
<g >
</g>
<g >
</g>
<g >
</g>
<g >
</g>
<g >
</g>
<g style="fill:#000000; fill-opacity:0.0; 
stroke:#000000; stroke-width:413.386; stroke-opacity:1; 
stroke-linecap:round; stroke-linejoin:round;">
</g>
<g style="fill:#000000; fill-opacity:1.0; 
stroke:#000000; stroke-width:0; stroke-opacity:1; 
stroke-linecap:round; stroke-linejoin:round;">
<circle cx="61886.8" cy="52657.7" r="423.228" /> 
</g>
<g style="fill:#000000; fill-opacity:1.0; 
stroke:#000000; stroke-width:39.3701; stroke-opacity:1; 
stroke-linecap:round; stroke-linejoin:round;">
</g>
<g style="fill:#000000; fill-opacity:1.0; 
stroke:#000000; stroke-width:0; stroke-opacity:1; 
stroke-linecap:round; stroke-linejoin:round;">
<circle cx="61886.8" cy="49901.8" r="423.228" /> 
</g>
<g style="fill:#000000; fill-opacity:1.0; 
stroke:#000000; stroke-width:39.3701; stroke-opacity:1; 
stroke-linecap:round; stroke-linejoin:round;">
</g>
<g style="fill:#000000; fill-opacity:1.0; 
stroke:#000000; stroke-width:0; stroke-opacity:1; 
stroke-linecap:round; stroke-linejoin:round;">
<circle cx="64028.5" cy="49901.8" r="423.228" /> 
</g>
<g style="fill:#000000; fill-opacity:1.0; 
stroke:#000000; stroke-width:39.3701; stroke-opacity:1; 
stroke-linecap:round; stroke-linejoin:round;">
</g>
<g style="fill:#000000; fill-opacity:1.0; 
stroke:#000000; stroke-width:0; stroke-opacity:1; 
stroke-linecap:round; stroke-linejoin:round;">
<circle cx="64028.5" cy="52657.7" r="423.228" /> 
</g>
<g style="fill:#000000; fill-opacity:1.0; 
stroke:#000000; stroke-width:39.3701; stroke-opacity:1; 
stroke-linecap:round; stroke-linejoin:round;">
</g>
<g style="fill:#000000; fill-opacity:1.0; 
stroke:#000000; stroke-width:0; stroke-opacity:1; 
stroke-linecap:round; stroke-linejoin:round;">
<path style="fill:#000000; fill-opacity:1.0; 
stroke:#000000; stroke-width:0; stroke-opacity:1; 
stroke-linecap:round; stroke-linejoin:round;fill-rule:evenodd;"
d="M 63272.6,52685.3
62642.7,52685.3
62642.7,52055.4
63272.6,52055.4
Z" /> 
<circle cx="62957.6" cy="51582.9" r="314.961" /> 
</g>
<g style="fill:#000000; fill-opacity:1.0; 
stroke:#000000; stroke-width:39.3701; stroke-opacity:1; 
stroke-linecap:round; stroke-linejoin:round;">
</g>
<g style="fill:#000000; fill-opacity:1.0; 
stroke:#000000; stroke-width:0; stroke-opacity:1; 
stroke-linecap:round; stroke-linejoin:round;">
<circle cx="62957.6" cy="50795.5" r="314.961" /> 
</g>
<g style="fill:#000000; fill-opacity:1.0; 
stroke:#000000; stroke-width:39.3701; stroke-opacity:1; 
stroke-linecap:round; stroke-linejoin:round;">
</g>
<g style="fill:#000000; fill-opacity:1.0; 
stroke:#000000; stroke-width:0; stroke-opacity:1; 
stroke-linecap:round; stroke-linejoin:round;">
<circle cx="62957.6" cy="50008.1" r="314.961" /> 
</g>
<g style="fill:#000000; fill-opacity:1.0; 
stroke:#000000; stroke-width:39.3701; stroke-opacity:1; 
stroke-linecap:round; stroke-linejoin:round;">
</g>
<g >
</g>
<g >
</g>
<g >
</g>
<g >
</g>
<g >
</g>
<g >
</g>
<g >
</g>
<g style="fill:#000000; fill-opacity:1.0; 
stroke:#000000; stroke-width:39.3701; stroke-opacity:1; 
stroke-linecap:round; stroke-linejoin:round;">
</g>
<g style="fill:#000000; fill-opacity:1.0; 
stroke:#000000; stroke-width:669.291; stroke-opacity:1; 
stroke-linecap:round; stroke-linejoin:round;">
</g>
<g style="fill:#000000; fill-opacity:0.0; 
stroke:#000000; stroke-width:669.291; stroke-opacity:1; 
stroke-linecap:round; stroke-linejoin:round;">
<path d="M64267 48037
L64267 48037
" />
<path d="M64267 47037
L64267 47037
" />
<path d="M64267 46037
L64267 46037
" />
<path d="M64267 45037
L64267 45037
" />
<path d="M64267 44037
L64267 44037
" />
<path d="M64267 43037
L64267 43037
" />
<path d="M64267 42037
L64267 42037
" />
<path d="M64267 41037
L64267 41037
" />
<path d="M64267 40037
L64267 40037
" />
<path d="M64267 39037
L64267 39037
" />
<path d="M64267 38037
L64267 38037
" />
<path d="M64267 37037
L64267 37037
" />
<path d="M64267 36037
L64267 36037
" />
<path d="M64267 35037
L64267 35037
" />
<path d="M64267 34037
L64267 34037
" />
<path d="M64267 33037
L64267 33037
" />
<path d="M64267 32037
L64267 32037
" />
<path d="M64267 31037
L64267 31037
" />
<path d="M64267 30037
L64267 30037
" />
<path d="M64267 29037
L64267 29037
" />
<path d="M64267 28037
L64267 28037
" />
</g>
<g style="fill:#000000; fill-opacity:0.0; 
stroke:#000000; stroke-width:0; stroke-opacity:1; 
stroke-linecap:round; stroke-linejoin:round;">
</g>
<g style="fill:#000000; fill-opacity:1.0; 
stroke:#000000; stroke-width:0; stroke-opacity:1; 
stroke-linecap:round; stroke-linejoin:round;">
<path style="fill:#000000; fill-opacity:1.0; 
stroke:#000000; stroke-width:0; stroke-opacity:1; 
stroke-linecap:round; stroke-linejoin:round;fill-rule:evenodd;"
d="M 63933.1,27372
63933.1,26702.8
64602.4,26702.8
64602.4,27372
Z" /> 
</g>
<g >
</g>
<g >
</g>
<g >
</g>
<g >
</g>
<g >
</g>
<g >
</g>
<g >
</g>
<g style="fill:#000000; fill-opacity:1.0; 
stroke:#000000; stroke-width:0; stroke-opacity:1; 
stroke-linecap:round; stroke-linejoin:round;">
</g>
<g style="fill:#000000; fill-opacity:1.0; 
stroke:#000000; stroke-width:669.291; stroke-opacity:1; 
stroke-linecap:round; stroke-linejoin:round;">
</g>
<g style="fill:#000000; fill-opacity:0.0; 
stroke:#000000; stroke-width:669.291; stroke-opacity:1; 
stroke-linecap:round; stroke-linejoin:round;">
<path d="M54507 44037
L54507 44037
" />
<path d="M54507 43037
L54507 43037
" />
<path d="M54507 42037
L54507 42037
" />
<path d="M54507 41037
L54507 41037
" />
<path d="M54507 40037
L54507 40037
" />
<path d="M54507 39037
L54507 39037
" />
<path d="M54507 38037
L54507 38037
" />
<path d="M54507 37037
L54507 37037
" />
<path d="M54507 36037
L54507 36037
" />
<path d="M54507 35037
L54507 35037
" />
<path d="M54507 34037
L54507 34037
" />
<path d="M54507 33037
L54507 33037
" />
<path d="M54507 32037
L54507 32037
" />
<path d="M54507 31037
L54507 31037
" />
<path d="M54507 30037
L54507 30037
" />
<path d="M54507 29037
L54507 29037
" />
<path d="M54507 28037
L54507 28037
" />
</g>
<g style="fill:#000000; fill-opacity:0.0; 
stroke:#000000; stroke-width:0; stroke-opacity:1; 
stroke-linecap:round; stroke-linejoin:round;">
</g>
<g style="fill:#000000; fill-opacity:1.0; 
stroke:#000000; stroke-width:0; stroke-opacity:1; 
stroke-linecap:round; stroke-linejoin:round;">
<path style="fill:#000000; fill-opacity:1.0; 
stroke:#000000; stroke-width:0; stroke-opacity:1; 
stroke-linecap:round; stroke-linejoin:round;fill-rule:evenodd;"
d="M 54173.2,27372
54173.2,26702.8
54842.5,26702.8
54842.5,27372
Z" /> 
</g>
<g >
</g>
<g >
</g>
<g >
</g>
<g >
</g>
<g >
</g>
<g >
</g>
<g >
</g>
<g >
</g>
<g >
</g>
<g >
</g>
<g >
</g>
<g >
</g>
<g >
</g>
<g >
</g>
<g >
</g>
<g >
</g>
<g >
</g>
<g style="fill:#000000; fill-opacity:1.0; 
stroke:#000000; stroke-width:0; stroke-opacity:1; 
stroke-linecap:round; stroke-linejoin:round;">
<circle cx="57974.3" cy="29097" r="157.48" /> 
</g>
<g style="fill:#000000; fill-opacity:1.0; 
stroke:#000000; stroke-width:39.3701; stroke-opacity:1; 
stroke-linecap:round; stroke-linejoin:round;">
</g>
<g style="fill:#000000; fill-opacity:1.0; 
stroke:#000000; stroke-width:0; stroke-opacity:1; 
stroke-linecap:round; stroke-linejoin:round;">
<circle cx="58564.8" cy="29097" r="157.48" /> 
</g>
<g style="fill:#000000; fill-opacity:1.0; 
stroke:#000000; stroke-width:39.3701; stroke-opacity:1; 
stroke-linecap:round; stroke-linejoin:round;">
</g>
<g style="fill:#000000; fill-opacity:1.0; 
stroke:#000000; stroke-width:0; stroke-opacity:1; 
stroke-linecap:round; stroke-linejoin:round;">
<circle cx="59155.4" cy="29097" r="157.48" /> 
</g>
<g style="fill:#000000; fill-opacity:1.0; 
stroke:#000000; stroke-width:39.3701; stroke-opacity:1; 
stroke-linecap:round; stroke-linejoin:round;">
</g>
<g style="fill:#000000; fill-opacity:1.0; 
stroke:#000000; stroke-width:0; stroke-opacity:1; 
stroke-linecap:round; stroke-linejoin:round;">
<circle cx="59745.9" cy="29097" r="157.48" /> 
</g>
<g style="fill:#000000; fill-opacity:1.0; 
stroke:#000000; stroke-width:39.3701; stroke-opacity:1; 
stroke-linecap:round; stroke-linejoin:round;">
</g>
<g style="fill:#000000; fill-opacity:1.0; 
stroke:#000000; stroke-width:0; stroke-opacity:1; 
stroke-linecap:round; stroke-linejoin:round;">
<circle cx="57974.3" cy="29687.5" r="157.48" /> 
</g>
<g style="fill:#000000; fill-opacity:1.0; 
stroke:#000000; stroke-width:39.3701; stroke-opacity:1; 
stroke-linecap:round; stroke-linejoin:round;">
</g>
<g style="fill:#000000; fill-opacity:1.0; 
stroke:#000000; stroke-width:0; stroke-opacity:1; 
stroke-linecap:round; stroke-linejoin:round;">
<circle cx="58564.8" cy="29687.5" r="157.48" /> 
</g>
<g style="fill:#000000; fill-opacity:1.0; 
stroke:#000000; stroke-width:39.3701; stroke-opacity:1; 
stroke-linecap:round; stroke-linejoin:round;">
</g>
<g style="fill:#000000; fill-opacity:1.0; 
stroke:#000000; stroke-width:0; stroke-opacity:1; 
stroke-linecap:round; stroke-linejoin:round;">
<circle cx="59155.4" cy="29687.5" r="157.48" /> 
</g>
<g style="fill:#000000; fill-opacity:1.0; 
stroke:#000000; stroke-width:39.3701; stroke-opacity:1; 
stroke-linecap:round; stroke-linejoin:round;">
</g>
<g style="fill:#000000; fill-opacity:1.0; 
stroke:#000000; stroke-width:0; stroke-opacity:1; 
stroke-linecap:round; stroke-linejoin:round;">
<circle cx="59745.9" cy="29687.5" r="157.48" /> 
</g>
<g style="fill:#000000; fill-opacity:1.0; 
stroke:#000000; stroke-width:39.3701; stroke-opacity:1; 
stroke-linecap:round; stroke-linejoin:round;">
</g>
<g style="fill:#000000; fill-opacity:1.0; 
stroke:#000000; stroke-width:0; stroke-opacity:1; 
stroke-linecap:round; stroke-linejoin:round;">
<circle cx="57974.3" cy="30278.1" r="157.48" /> 
</g>
<g style="fill:#000000; fill-opacity:1.0; 
stroke:#000000; stroke-width:39.3701; stroke-opacity:1; 
stroke-linecap:round; stroke-linejoin:round;">
</g>
<g style="fill:#000000; fill-opacity:1.0; 
stroke:#000000; stroke-width:0; stroke-opacity:1; 
stroke-linecap:round; stroke-linejoin:round;">
<circle cx="58564.8" cy="30278.1" r="157.48" /> 
</g>
<g style="fill:#000000; fill-opacity:1.0; 
stroke:#000000; stroke-width:39.3701; stroke-opacity:1; 
stroke-linecap:round; stroke-linejoin:round;">
</g>
<g style="fill:#000000; fill-opacity:1.0; 
stroke:#000000; stroke-width:0; stroke-opacity:1; 
stroke-linecap:round; stroke-linejoin:round;">
<circle cx="59155.4" cy="30278.1" r="157.48" /> 
</g>
<g style="fill:#000000; fill-opacity:1.0; 
stroke:#000000; stroke-width:39.3701; stroke-opacity:1; 
stroke-linecap:round; stroke-linejoin:round;">
</g>
<g style="fill:#000000; fill-opacity:1.0; 
stroke:#000000; stroke-width:0; stroke-opacity:1; 
stroke-linecap:round; stroke-linejoin:round;">
<circle cx="59745.9" cy="30278.1" r="157.48" /> 
</g>
<g style="fill:#000000; fill-opacity:1.0; 
stroke:#000000; stroke-width:39.3701; stroke-opacity:1; 
stroke-linecap:round; stroke-linejoin:round;">
</g>
<g style="fill:#000000; fill-opacity:1.0; 
stroke:#000000; stroke-width:0; stroke-opacity:1; 
stroke-linecap:round; stroke-linejoin:round;">
<circle cx="57974.3" cy="30868.6" r="157.48" /> 
</g>
<g style="fill:#000000; fill-opacity:1.0; 
stroke:#000000; stroke-width:39.3701; stroke-opacity:1; 
stroke-linecap:round; stroke-linejoin:round;">
</g>
<g style="fill:#000000; fill-opacity:1.0; 
stroke:#000000; stroke-width:0; stroke-opacity:1; 
stroke-linecap:round; stroke-linejoin:round;">
<circle cx="58564.8" cy="30868.6" r="157.48" /> 
</g>
<g style="fill:#000000; fill-opacity:1.0; 
stroke:#000000; stroke-width:39.3701; stroke-opacity:1; 
stroke-linecap:round; stroke-linejoin:round;">
</g>
<g style="fill:#000000; fill-opacity:1.0; 
stroke:#000000; stroke-width:0; stroke-opacity:1; 
stroke-linecap:round; stroke-linejoin:round;">
<circle cx="59155.4" cy="30868.6" r="157.48" /> 
</g>
<g style="fill:#000000; fill-opacity:1.0; 
stroke:#000000; stroke-width:39.3701; stroke-opacity:1; 
stroke-linecap:round; stroke-linejoin:round;">
</g>
<g style="fill:#000000; fill-opacity:1.0; 
stroke:#000000; stroke-width:0; stroke-opacity:1; 
stroke-linecap:round; stroke-linejoin:round;">
<circle cx="59745.9" cy="30868.6" r="157.48" /> 
</g>
<g style="fill:#000000; fill-opacity:1.0; 
stroke:#000000; stroke-width:39.3701; stroke-opacity:1; 
stroke-linecap:round; stroke-linejoin:round;">
</g>
<g style="fill:#000000; fill-opacity:1.0; 
stroke:#000000; stroke-width:0; stroke-opacity:1; 
stroke-linecap:round; stroke-linejoin:round;">
<circle cx="58962.6" cy="52415.3" r="157.48" /> 
</g>
<g style="fill:#000000; fill-opacity:1.0; 
stroke:#000000; stroke-width:39.3701; stroke-opacity:1; 
stroke-linecap:round; stroke-linejoin:round;">
</g>
<g style="fill:#000000; fill-opacity:1.0; 
stroke:#000000; stroke-width:0; stroke-opacity:1; 
stroke-linecap:round; stroke-linejoin:round;">
<circle cx="59972.6" cy="52415.3" r="157.48" /> 
</g>
<g style="fill:#000000; fill-opacity:1.0; 
stroke:#000000; stroke-width:39.3701; stroke-opacity:1; 
stroke-linecap:round; stroke-linejoin:round;">
</g>
<g style="fill:#000000; fill-opacity:1.0; 
stroke:#000000; stroke-width:0; stroke-opacity:1; 
stroke-linecap:round; stroke-linejoin:round;">
<circle cx="60492.6" cy="50150.3" r="157.48" /> 
</g>
<g style="fill:#000000; fill-opacity:1.0; 
stroke:#000000; stroke-width:39.3701; stroke-opacity:1; 
stroke-linecap:round; stroke-linejoin:round;">
</g>
<g style="fill:#000000; fill-opacity:1.0; 
stroke:#000000; stroke-width:0; stroke-opacity:1; 
stroke-linecap:round; stroke-linejoin:round;">
<circle cx="55307.6" cy="45745.3" r="157.48" /> 
</g>
<g style="fill:#000000; fill-opacity:1.0; 
stroke:#000000; stroke-width:39.3701; stroke-opacity:1; 
stroke-linecap:round; stroke-linejoin:round;">
</g>
<g style="fill:#000000; fill-opacity:1.0; 
stroke:#000000; stroke-width:0; stroke-opacity:1; 
stroke-linecap:round; stroke-linejoin:round;">
<circle cx="62119.4" cy="42978.5" r="157.48" /> 
</g>
<g style="fill:#000000; fill-opacity:1.0; 
stroke:#000000; stroke-width:39.3701; stroke-opacity:1; 
stroke-linecap:round; stroke-linejoin:round;">
</g>
<g style="fill:#000000; fill-opacity:1.0; 
stroke:#000000; stroke-width:0; stroke-opacity:1; 
stroke-linecap:round; stroke-linejoin:round;">
<circle cx="54582.6" cy="48345.3" r="157.48" /> 
</g>
<g style="fill:#000000; fill-opacity:1.0; 
stroke:#000000; stroke-width:39.3701; stroke-opacity:1; 
stroke-linecap:round; stroke-linejoin:round;">
</g>
<g style="fill:#000000; fill-opacity:1.0; 
stroke:#000000; stroke-width:0; stroke-opacity:1; 
stroke-linecap:round; stroke-linejoin:round;">
<circle cx="56562.6" cy="26855.3" r="157.48" /> 
</g>
<g style="fill:#000000; fill-opacity:1.0; 
stroke:#000000; stroke-width:39.3701; stroke-opacity:1; 
stroke-linecap:round; stroke-linejoin:round;">
</g>
<g style="fill:#000000; fill-opacity:1.0; 
stroke:#000000; stroke-width:0; stroke-opacity:1; 
stroke-linecap:round; stroke-linejoin:round;">
<circle cx="58897.6" cy="41330.3" r="157.48" /> 
</g>
<g style="fill:#000000; fill-opacity:1.0; 
stroke:#000000; stroke-width:39.3701; stroke-opacity:1; 
stroke-linecap:round; stroke-linejoin:round;">
</g>
<g style="fill:#000000; fill-opacity:1.0; 
stroke:#000000; stroke-width:0; stroke-opacity:1; 
stroke-linecap:round; stroke-linejoin:round;">
<circle cx="55295.6" cy="47567.3" r="157.48" /> 
</g>
<g style="fill:#000000; fill-opacity:1.0; 
stroke:#000000; stroke-width:39.3701; stroke-opacity:1; 
stroke-linecap:round; stroke-linejoin:round;">
</g>
<g style="fill:#000000; fill-opacity:1.0; 
stroke:#000000; stroke-width:0; stroke-opacity:1; 
stroke-linecap:round; stroke-linejoin:round;">
<circle cx="60602.6" cy="48046.3" r="157.48" /> 
</g>
<g style="fill:#000000; fill-opacity:1.0; 
stroke:#000000; stroke-width:39.3701; stroke-opacity:1; 
stroke-linecap:round; stroke-linejoin:round;">
</g>
<g style="fill:#000000; fill-opacity:1.0; 
stroke:#000000; stroke-width:0; stroke-opacity:1; 
stroke-linecap:round; stroke-linejoin:round;">
<circle cx="58597.6" cy="39135.3" r="157.48" /> 
</g>
<g style="fill:#000000; fill-opacity:1.0; 
stroke:#000000; stroke-width:39.3701; stroke-opacity:1; 
stroke-linecap:round; stroke-linejoin:round;">
</g>
<g style="fill:#000000; fill-opacity:1.0; 
stroke:#000000; stroke-width:0; stroke-opacity:1; 
stroke-linecap:round; stroke-linejoin:round;">
<circle cx="57779.6" cy="41816.3" r="157.48" /> 
</g>
<g style="fill:#000000; fill-opacity:1.0; 
stroke:#000000; stroke-width:39.3701; stroke-opacity:1; 
stroke-linecap:round; stroke-linejoin:round;">
</g>
<g style="fill:#000000; fill-opacity:1.0; 
stroke:#000000; stroke-width:0; stroke-opacity:1; 
stroke-linecap:round; stroke-linejoin:round;">
<circle cx="55280.6" cy="44609.3" r="157.48" /> 
</g>
<g style="fill:#000000; fill-opacity:1.0; 
stroke:#000000; stroke-width:39.3701; stroke-opacity:1; 
stroke-linecap:round; stroke-linejoin:round;">
</g>
<g style="fill:#000000; fill-opacity:1.0; 
stroke:#000000; stroke-width:0; stroke-opacity:1; 
stroke-linecap:round; stroke-linejoin:round;">
<circle cx="57663.4" cy="45548.3" r="157.48" /> 
</g>
<g style="fill:#000000; fill-opacity:1.0; 
stroke:#000000; stroke-width:39.3701; stroke-opacity:1; 
stroke-linecap:round; stroke-linejoin:round;">
</g>
<g style="fill:#000000; fill-opacity:1.0; 
stroke:#000000; stroke-width:0; stroke-opacity:1; 
stroke-linecap:round; stroke-linejoin:round;">
<circle cx="58505.6" cy="49548.3" r="157.48" /> 
</g>
<g style="fill:#000000; fill-opacity:1.0; 
stroke:#000000; stroke-width:39.3701; stroke-opacity:1; 
stroke-linecap:round; stroke-linejoin:round;">
</g>
<g style="fill:#000000; fill-opacity:1.0; 
stroke:#000000; stroke-width:0; stroke-opacity:1; 
stroke-linecap:round; stroke-linejoin:round;">
<circle cx="62587.6" cy="36254.3" r="157.48" /> 
</g>
<g style="fill:#000000; fill-opacity:1.0; 
stroke:#000000; stroke-width:39.3701; stroke-opacity:1; 
stroke-linecap:round; stroke-linejoin:round;">
</g>
<g style="fill:#000000; fill-opacity:1.0; 
stroke:#000000; stroke-width:0; stroke-opacity:1; 
stroke-linecap:round; stroke-linejoin:round;">
<circle cx="61205.6" cy="40860.3" r="157.48" /> 
</g>
<g style="fill:#000000; fill-opacity:1.0; 
stroke:#000000; stroke-width:39.3701; stroke-opacity:1; 
stroke-linecap:round; stroke-linejoin:round;">
</g>
<g style="fill:#000000; fill-opacity:1.0; 
stroke:#000000; stroke-width:0; stroke-opacity:1; 
stroke-linecap:round; stroke-linejoin:round;">
<circle cx="57612.6" cy="46537.3" r="157.48" /> 
</g>
<g style="fill:#000000; fill-opacity:1.0; 
stroke:#000000; stroke-width:39.3701; stroke-opacity:1; 
stroke-linecap:round; stroke-linejoin:round;">
</g>
<g style="fill:#000000; fill-opacity:1.0; 
stroke:#000000; stroke-width:0; stroke-opacity:1; 
stroke-linecap:round; stroke-linejoin:round;">
<circle cx="59532.5" cy="38209.8" r="157.48" /> 
</g>
<g style="fill:#000000; fill-opacity:1.0; 
stroke:#000000; stroke-width:39.3701; stroke-opacity:1; 
stroke-linecap:round; stroke-linejoin:round;">
</g>
<g style="fill:#000000; fill-opacity:1.0; 
stroke:#000000; stroke-width:0; stroke-opacity:1; 
stroke-linecap:round; stroke-linejoin:round;">
<circle cx="57937.6" cy="37210.3" r="157.48" /> 
</g>
<g style="fill:#000000; fill-opacity:1.0; 
stroke:#000000; stroke-width:39.3701; stroke-opacity:1; 
stroke-linecap:round; stroke-linejoin:round;">
</g>
<g style="fill:#000000; fill-opacity:1.0; 
stroke:#000000; stroke-width:0; stroke-opacity:1; 
stroke-linecap:round; stroke-linejoin:round;">
<circle cx="56447.6" cy="40960.3" r="157.48" /> 
</g>
<g style="fill:#000000; fill-opacity:1.0; 
stroke:#000000; stroke-width:39.3701; stroke-opacity:1; 
stroke-linecap:round; stroke-linejoin:round;">
</g>
<g style="fill:#000000; fill-opacity:1.0; 
stroke:#000000; stroke-width:0; stroke-opacity:1; 
stroke-linecap:round; stroke-linejoin:round;">
<circle cx="62017.6" cy="39488.3" r="157.48" /> 
</g>
<g style="fill:#000000; fill-opacity:1.0; 
stroke:#000000; stroke-width:39.3701; stroke-opacity:1; 
stroke-linecap:round; stroke-linejoin:round;">
</g>
<g style="fill:#000000; fill-opacity:1.0; 
stroke:#000000; stroke-width:0; stroke-opacity:1; 
stroke-linecap:round; stroke-linejoin:round;">
<circle cx="62017.6" cy="38724.3" r="157.48" /> 
</g>
<g style="fill:#000000; fill-opacity:1.0; 
stroke:#000000; stroke-width:39.3701; stroke-opacity:1; 
stroke-linecap:round; stroke-linejoin:round;">
</g>
<g style="fill:#000000; fill-opacity:1.0; 
stroke:#000000; stroke-width:0; stroke-opacity:1; 
stroke-linecap:round; stroke-linejoin:round;">
<circle cx="62157.6" cy="43555.3" r="157.48" /> 
</g>
<g style="fill:#000000; fill-opacity:1.0; 
stroke:#000000; stroke-width:39.3701; stroke-opacity:1; 
stroke-linecap:round; stroke-linejoin:round;">
</g>
<g style="fill:#000000; fill-opacity:1.0; 
stroke:#000000; stroke-width:0; stroke-opacity:1; 
stroke-linecap:round; stroke-linejoin:round;">
<circle cx="62162.6" cy="44330.3" r="157.48" /> 
</g>
<g style="fill:#000000; fill-opacity:1.0; 
stroke:#000000; stroke-width:39.3701; stroke-opacity:1; 
stroke-linecap:round; stroke-linejoin:round;">
</g>
<g style="fill:#000000; fill-opacity:1.0; 
stroke:#000000; stroke-width:0; stroke-opacity:1; 
stroke-linecap:round; stroke-linejoin:round;">
<circle cx="55276.6" cy="43716.3" r="157.48" /> 
</g>
<g style="fill:#000000; fill-opacity:1.0; 
stroke:#000000; stroke-width:39.3701; stroke-opacity:1; 
stroke-linecap:round; stroke-linejoin:round;">
</g>
<g style="fill:#000000; fill-opacity:1.0; 
stroke:#000000; stroke-width:0; stroke-opacity:1; 
stroke-linecap:round; stroke-linejoin:round;">
<circle cx="59389.6" cy="36618.3" r="157.48" /> 
</g>
<g style="fill:#000000; fill-opacity:1.0; 
stroke:#000000; stroke-width:39.3701; stroke-opacity:1; 
stroke-linecap:round; stroke-linejoin:round;">
</g>
<g style="fill:#000000; fill-opacity:1.0; 
stroke:#000000; stroke-width:0; stroke-opacity:1; 
stroke-linecap:round; stroke-linejoin:round;">
<circle cx="59532.5" cy="39115.3" r="157.48" /> 
</g>
<g style="fill:#000000; fill-opacity:1.0; 
stroke:#000000; stroke-width:39.3701; stroke-opacity:1; 
stroke-linecap:round; stroke-linejoin:round;">
</g>
<g style="fill:#000000; fill-opacity:1.0; 
stroke:#000000; stroke-width:0; stroke-opacity:1; 
stroke-linecap:round; stroke-linejoin:round;">
<circle cx="57918.6" cy="39118.3" r="157.48" /> 
</g>
<g style="fill:#000000; fill-opacity:1.0; 
stroke:#000000; stroke-width:39.3701; stroke-opacity:1; 
stroke-linecap:round; stroke-linejoin:round;">
</g>
<g style="fill:#000000; fill-opacity:1.0; 
stroke:#000000; stroke-width:0; stroke-opacity:1; 
stroke-linecap:round; stroke-linejoin:round;">
<circle cx="56417.6" cy="37210.3" r="157.48" /> 
</g>
<g style="fill:#000000; fill-opacity:1.0; 
stroke:#000000; stroke-width:39.3701; stroke-opacity:1; 
stroke-linecap:round; stroke-linejoin:round;">
</g>
<g style="fill:#000000; fill-opacity:1.0; 
stroke:#000000; stroke-width:0; stroke-opacity:1; 
stroke-linecap:round; stroke-linejoin:round;">
<circle cx="61866.6" cy="27433.3" r="157.48" /> 
</g>
<g style="fill:#000000; fill-opacity:1.0; 
stroke:#000000; stroke-width:39.3701; stroke-opacity:1; 
stroke-linecap:round; stroke-linejoin:round;">
</g>
<g style="fill:#000000; fill-opacity:1.0; 
stroke:#000000; stroke-width:0; stroke-opacity:1; 
stroke-linecap:round; stroke-linejoin:round;">
<circle cx="56393.5" cy="41806.2" r="157.48" /> 
</g>
<g style="fill:#000000; fill-opacity:1.0; 
stroke:#000000; stroke-width:39.3701; stroke-opacity:1; 
stroke-linecap:round; stroke-linejoin:round;">
</g>
<g style="fill:#000000; fill-opacity:1.0; 
stroke:#000000; stroke-width:0; stroke-opacity:1; 
stroke-linecap:round; stroke-linejoin:round;">
<circle cx="56563.6" cy="28080.3" r="157.48" /> 
</g>
<g style="fill:#000000; fill-opacity:1.0; 
stroke:#000000; stroke-width:39.3701; stroke-opacity:1; 
stroke-linecap:round; stroke-linejoin:round;">
</g>
<g style="fill:#000000; fill-opacity:1.0; 
stroke:#000000; stroke-width:0; stroke-opacity:1; 
stroke-linecap:round; stroke-linejoin:round;">
<circle cx="56344.6" cy="46717.3" r="157.48" /> 
</g>
<g style="fill:#000000; fill-opacity:1.0; 
stroke:#000000; stroke-width:39.3701; stroke-opacity:1; 
stroke-linecap:round; stroke-linejoin:round;">
</g>
<g style="fill:#000000; fill-opacity:1.0; 
stroke:#000000; stroke-width:0; stroke-opacity:1; 
stroke-linecap:round; stroke-linejoin:round;">
<circle cx="61883.6" cy="29201.3" r="157.48" /> 
</g>
<g style="fill:#000000; fill-opacity:1.0; 
stroke:#000000; stroke-width:39.3701; stroke-opacity:1; 
stroke-linecap:round; stroke-linejoin:round;">
</g>
<g style="fill:#000000; fill-opacity:1.0; 
stroke:#000000; stroke-width:0; stroke-opacity:1; 
stroke-linecap:round; stroke-linejoin:round;">
<circle cx="60159.6" cy="41842.3" r="157.48" /> 
</g>
<g style="fill:#000000; fill-opacity:1.0; 
stroke:#000000; stroke-width:39.3701; stroke-opacity:1; 
stroke-linecap:round; stroke-linejoin:round;">
</g>
<g style="fill:#000000; fill-opacity:1.0; 
stroke:#000000; stroke-width:0; stroke-opacity:1; 
stroke-linecap:round; stroke-linejoin:round;">
<circle cx="61879.6" cy="29795.3" r="157.48" /> 
</g>
<g style="fill:#000000; fill-opacity:1.0; 
stroke:#000000; stroke-width:39.3701; stroke-opacity:1; 
stroke-linecap:round; stroke-linejoin:round;">
</g>
<g style="fill:#000000; fill-opacity:1.0; 
stroke:#000000; stroke-width:0; stroke-opacity:1; 
stroke-linecap:round; stroke-linejoin:round;">
<circle cx="59655.6" cy="41852.3" r="157.48" /> 
</g>
<g style="fill:#000000; fill-opacity:1.0; 
stroke:#000000; stroke-width:39.3701; stroke-opacity:1; 
stroke-linecap:round; stroke-linejoin:round;">
</g>
<g style="fill:#000000; fill-opacity:1.0; 
stroke:#000000; stroke-width:0; stroke-opacity:1; 
stroke-linecap:round; stroke-linejoin:round;">
<circle cx="56534.6" cy="34527.3" r="157.48" /> 
</g>
<g style="fill:#000000; fill-opacity:1.0; 
stroke:#000000; stroke-width:39.3701; stroke-opacity:1; 
stroke-linecap:round; stroke-linejoin:round;">
</g>
<g style="fill:#000000; fill-opacity:1.0; 
stroke:#000000; stroke-width:0; stroke-opacity:1; 
stroke-linecap:round; stroke-linejoin:round;">
<circle cx="56538.6" cy="33932.3" r="157.48" /> 
</g>
<g style="fill:#000000; fill-opacity:1.0; 
stroke:#000000; stroke-width:39.3701; stroke-opacity:1; 
stroke-linecap:round; stroke-linejoin:round;">
</g>
<g style="fill:#000000; fill-opacity:1.0; 
stroke:#000000; stroke-width:0; stroke-opacity:1; 
stroke-linecap:round; stroke-linejoin:round;">
<circle cx="56540.6" cy="33355.3" r="157.48" /> 
</g>
<g style="fill:#000000; fill-opacity:1.0; 
stroke:#000000; stroke-width:39.3701; stroke-opacity:1; 
stroke-linecap:round; stroke-linejoin:round;">
</g>
<g style="fill:#000000; fill-opacity:1.0; 
stroke:#000000; stroke-width:0; stroke-opacity:1; 
stroke-linecap:round; stroke-linejoin:round;">
<circle cx="57370.2" cy="33931.3" r="157.48" /> 
</g>
<g style="fill:#000000; fill-opacity:1.0; 
stroke:#000000; stroke-width:39.3701; stroke-opacity:1; 
stroke-linecap:round; stroke-linejoin:round;">
</g>
<g style="fill:#000000; fill-opacity:1.0; 
stroke:#000000; stroke-width:0; stroke-opacity:1; 
stroke-linecap:round; stroke-linejoin:round;">
<circle cx="57372.6" cy="48661.3" r="157.48" /> 
</g>
<g style="fill:#000000; fill-opacity:1.0; 
stroke:#000000; stroke-width:39.3701; stroke-opacity:1; 
stroke-linecap:round; stroke-linejoin:round;">
</g>
<g style="fill:#000000; fill-opacity:1.0; 
stroke:#000000; stroke-width:0; stroke-opacity:1; 
stroke-linecap:round; stroke-linejoin:round;">
<circle cx="58323.6" cy="47038.3" r="157.48" /> 
</g>
<g style="fill:#000000; fill-opacity:1.0; 
stroke:#000000; stroke-width:39.3701; stroke-opacity:1; 
stroke-linecap:round; stroke-linejoin:round;">
</g>
<g style="fill:#000000; fill-opacity:1.0; 
stroke:#000000; stroke-width:0; stroke-opacity:1; 
stroke-linecap:round; stroke-linejoin:round;">
<circle cx="62485.6" cy="47041.3" r="157.48" /> 
</g>
<g style="fill:#000000; fill-opacity:1.0; 
stroke:#000000; stroke-width:39.3701; stroke-opacity:1; 
stroke-linecap:round; stroke-linejoin:round;">
</g>
<g style="fill:#000000; fill-opacity:1.0; 
stroke:#000000; stroke-width:0; stroke-opacity:1; 
stroke-linecap:round; stroke-linejoin:round;">
<circle cx="61859.6" cy="35112.3" r="157.48" /> 
</g>
<g style="fill:#000000; fill-opacity:1.0; 
stroke:#000000; stroke-width:39.3701; stroke-opacity:1; 
stroke-linecap:round; stroke-linejoin:round;">
</g>
<g style="fill:#000000; fill-opacity:1.0; 
stroke:#000000; stroke-width:0; stroke-opacity:1; 
stroke-linecap:round; stroke-linejoin:round;">
<circle cx="61912.6" cy="42178.3" r="157.48" /> 
</g>
<g style="fill:#000000; fill-opacity:1.0; 
stroke:#000000; stroke-width:39.3701; stroke-opacity:1; 
stroke-linecap:round; stroke-linejoin:round;">
</g>
<g style="fill:#000000; fill-opacity:1.0; 
stroke:#000000; stroke-width:0; stroke-opacity:1; 
stroke-linecap:round; stroke-linejoin:round;">
<circle cx="61860.6" cy="34523.3" r="157.48" /> 
</g>
<g style="fill:#000000; fill-opacity:1.0; 
stroke:#000000; stroke-width:39.3701; stroke-opacity:1; 
stroke-linecap:round; stroke-linejoin:round;">
</g>
<g style="fill:#000000; fill-opacity:1.0; 
stroke:#000000; stroke-width:0; stroke-opacity:1; 
stroke-linecap:round; stroke-linejoin:round;">
<circle cx="61859.6" cy="33916.3" r="157.48" /> 
</g>
<g style="fill:#000000; fill-opacity:1.0; 
stroke:#000000; stroke-width:39.3701; stroke-opacity:1; 
stroke-linecap:round; stroke-linejoin:round;">
</g>
<g style="fill:#000000; fill-opacity:1.0; 
stroke:#000000; stroke-width:0; stroke-opacity:1; 
stroke-linecap:round; stroke-linejoin:round;">
<circle cx="61871.6" cy="33345.3" r="157.48" /> 
</g>
<g style="fill:#000000; fill-opacity:1.0; 
stroke:#000000; stroke-width:39.3701; stroke-opacity:1; 
stroke-linecap:round; stroke-linejoin:round;">
</g>
<g style="fill:#000000; fill-opacity:1.0; 
stroke:#000000; stroke-width:0; stroke-opacity:1; 
stroke-linecap:round; stroke-linejoin:round;">
<circle cx="60207.6" cy="45180.3" r="157.48" /> 
</g>
<g style="fill:#000000; fill-opacity:1.0; 
stroke:#000000; stroke-width:39.3701; stroke-opacity:1; 
stroke-linecap:round; stroke-linejoin:round;">
</g>
<g style="fill:#000000; fill-opacity:1.0; 
stroke:#000000; stroke-width:0; stroke-opacity:1; 
stroke-linecap:round; stroke-linejoin:round;">
<circle cx="59447.6" cy="45185.3" r="157.48" /> 
</g>
<g style="fill:#000000; fill-opacity:1.0; 
stroke:#000000; stroke-width:39.3701; stroke-opacity:1; 
stroke-linecap:round; stroke-linejoin:round;">
</g>
<g style="fill:#000000; fill-opacity:1.0; 
stroke:#000000; stroke-width:0; stroke-opacity:1; 
stroke-linecap:round; stroke-linejoin:round;">
<circle cx="58323.6" cy="47576.3" r="157.48" /> 
</g>
<g style="fill:#000000; fill-opacity:1.0; 
stroke:#000000; stroke-width:39.3701; stroke-opacity:1; 
stroke-linecap:round; stroke-linejoin:round;">
</g>
<g style="fill:#000000; fill-opacity:1.0; 
stroke:#000000; stroke-width:0; stroke-opacity:1; 
stroke-linecap:round; stroke-linejoin:round;">
<circle cx="57094.6" cy="43481.3" r="157.48" /> 
</g>
<g style="fill:#000000; fill-opacity:1.0; 
stroke:#000000; stroke-width:39.3701; stroke-opacity:1; 
stroke-linecap:round; stroke-linejoin:round;">
</g>
<g style="fill:#000000; fill-opacity:1.0; 
stroke:#000000; stroke-width:0; stroke-opacity:1; 
stroke-linecap:round; stroke-linejoin:round;">
<circle cx="56854.3" cy="48272.7" r="157.48" /> 
</g>
<g style="fill:#000000; fill-opacity:1.0; 
stroke:#000000; stroke-width:39.3701; stroke-opacity:1; 
stroke-linecap:round; stroke-linejoin:round;">
</g>
<g style="fill:#000000; fill-opacity:1.0; 
stroke:#000000; stroke-width:0; stroke-opacity:1; 
stroke-linecap:round; stroke-linejoin:round;">
<circle cx="55757.6" cy="50870.3" r="157.48" /> 
</g>
<g style="fill:#000000; fill-opacity:1.0; 
stroke:#000000; stroke-width:39.3701; stroke-opacity:1; 
stroke-linecap:round; stroke-linejoin:round;">
</g>
<g style="fill:#000000; fill-opacity:1.0; 
stroke:#000000; stroke-width:0; stroke-opacity:1; 
stroke-linecap:round; stroke-linejoin:round;">
<circle cx="56820.1" cy="43191.4" r="157.48" /> 
</g>
<g style="fill:#000000; fill-opacity:1.0; 
stroke:#000000; stroke-width:39.3701; stroke-opacity:1; 
stroke-linecap:round; stroke-linejoin:round;">
</g>
<g style="fill:#000000; fill-opacity:1.0; 
stroke:#000000; stroke-width:0; stroke-opacity:1; 
stroke-linecap:round; stroke-linejoin:round;">
<circle cx="56777.6" cy="47025.3" r="157.48" /> 
</g>
<g style="fill:#000000; fill-opacity:1.0; 
stroke:#000000; stroke-width:39.3701; stroke-opacity:1; 
stroke-linecap:round; stroke-linejoin:round;">
</g>
<g style="fill:#000000; fill-opacity:1.0; 
stroke:#000000; stroke-width:0; stroke-opacity:1; 
stroke-linecap:round; stroke-linejoin:round;">
<circle cx="61022.6" cy="48061.3" r="157.48" /> 
</g>
<g style="fill:#000000; fill-opacity:1.0; 
stroke:#000000; stroke-width:39.3701; stroke-opacity:1; 
stroke-linecap:round; stroke-linejoin:round;">
</g>
<g style="fill:#000000; fill-opacity:1.0; 
stroke:#000000; stroke-width:0; stroke-opacity:1; 
stroke-linecap:round; stroke-linejoin:round;">
<circle cx="61791.5" cy="47645.3" r="157.48" /> 
</g>
<g style="fill:#000000; fill-opacity:1.0; 
stroke:#000000; stroke-width:39.3701; stroke-opacity:1; 
stroke-linecap:round; stroke-linejoin:round;">
</g>
<g style="fill:#000000; fill-opacity:1.0; 
stroke:#000000; stroke-width:0; stroke-opacity:1; 
stroke-linecap:round; stroke-linejoin:round;">
<circle cx="59442.5" cy="48200.3" r="157.48" /> 
</g>
<g style="fill:#000000; fill-opacity:1.0; 
stroke:#000000; stroke-width:39.3701; stroke-opacity:1; 
stroke-linecap:round; stroke-linejoin:round;">
</g>
<g style="fill:#000000; fill-opacity:1.0; 
stroke:#000000; stroke-width:0; stroke-opacity:1; 
stroke-linecap:round; stroke-linejoin:round;">
<circle cx="57607.6" cy="47544.3" r="157.48" /> 
</g>
<g style="fill:#000000; fill-opacity:1.0; 
stroke:#000000; stroke-width:39.3701; stroke-opacity:1; 
stroke-linecap:round; stroke-linejoin:round;">
</g>
<g >
</g>
<g style="fill:#000000; fill-opacity:1.0; 
stroke:#000000; stroke-width:39.3701; stroke-opacity:1; 
stroke-linecap:round; stroke-linejoin:round;">
</g>
<g style="fill:#000000; fill-opacity:1.0; 
stroke:#000000; stroke-width:78.7402; stroke-opacity:1; 
stroke-linecap:round; stroke-linejoin:round;">
</g>
<g style="fill:#000000; fill-opacity:0.0; 
stroke:#000000; stroke-width:78.7402; stroke-opacity:1; 
stroke-linecap:round; stroke-linejoin:round;">
<path d="M56550 41648
L56393 41806
" />
<path d="M57080 41119
L56550 41648
" />
<path d="M57080 28319
L57080 41119
" />
<path d="M61866 27433
L57966 27433
" />
<path d="M57966 27433
L57080 28319
" />
<path d="M56187 46559
L56344 46717
" />
<path d="M56102 41707
L56102 46474
" />
<path d="M56870 40939
L56102 41707
" />
<path d="M56563 28080
L56870 28387
" />
<path d="M56870 28387
L56870 40939
" />
<path d="M56102 46474
L56187 46559
" />
<path d="M60729 30355
L61883 29201
" />
<path d="M60729 41711
L60729 30355
" />
<path d="M60598 41842
L60729 41711
" />
<path d="M60159 41842
L60598 41842
" />
<path d="M61722 29952
L61879 29795
" />
<path d="M60887 30787
L61722 29952
" />
<path d="M60887 42006
L60887 30787
" />
<path d="M60475 42418
L60887 42006
" />
<path d="M59811 42418
L60475 42418
" />
<path d="M59655 42262
L59811 42418
" />
<path d="M59655 41852
L59655 42262
" />
<path d="M56534 34527
L56534 34527
" />
<path d="M55717 34695
L55885 34527
" />
<path d="M55717 37827
L55717 34695
" />
<path d="M55885 34527
L56534 34527
" />
<path d="M54507 39037
L55717 37827
" />
<path d="M55442 34380
L55890 33932
" />
<path d="M55442 37102
L55442 34380
" />
<path d="M55890 33932
L56538 33932
" />
<path d="M54507 38037
L55442 37102
" />
<path d="M55212 36332
L55212 33764
" />
<path d="M54507 37037
L55212 36332
" />
<path d="M55212 33764
L55621 33355
" />
<path d="M55621 33355
L56540 33355
" />
<path d="M57279 48568
L57372 48661
" />
<path d="M57279 44213
L57279 48568
" />
<path d="M57370 44122
L57279 44213
" />
<path d="M57370 33931
L57370 44122
" />
<path d="M62429 47076
L62423 47082
" />
<path d="M58323 47038
L62482 47038
" />
<path d="M62482 47038
L62485 47041
" />
<path d="M64267 45259
L64267 45037
" />
<path d="M62485 47041
L64267 45259
" />
<path d="M63156 35499
L62769 35112
" />
<path d="M62769 35112
L61859 35112
" />
<path d="M63156 38926
L63156 35499
" />
<path d="M64267 40037
L63156 38926
" />
<path d="M63156 38926
L63156 41039
" />
<path d="M63156 41039
L63156 41754
" />
<path d="M62732 42178
L61912 42178
" />
<path d="M63156 41754
L62732 42178
" />
<path d="M61864 34527
L61860 34523
" />
<path d="M62950 34527
L61864 34527
" />
<path d="M63387 34964
L62950 34527
" />
<path d="M63387 38157
L63387 34964
" />
<path d="M64267 39037
L63387 38157
" />
<path d="M63600 34432
L63083 33916
" />
<path d="M63083 33916
L62082 33916
" />
<path d="M64267 38037
L63600 37369
" />
<path d="M63600 37369
L63600 34432
" />
<path d="M62082 33916
L61859 33916
" />
<path d="M63757 34140
L62962 33345
" />
<path d="M62962 33345
L62094 33345
" />
<path d="M64267 37037
L63757 36527
" />
<path d="M63757 36527
L63757 34140
" />
<path d="M62094 33345
L61871 33345
" />
<path d="M60207 45180
L59452 45180
" />
<path d="M59452 45180
L59447 45185
" />
<path d="M63435 51104
L63435 47676
" />
<path d="M62957 51582
L63435 51104
" />
<path d="M64267 46037
L63435 46869
" />
<path d="M63437 46873
L63435 47676
" />
<path d="M63435 46869
L63437 46873
" />
<path d="M62967 47343
L63437 46873
" />
<path d="M58556 47343
L62967 47343
" />
<path d="M58323 47576
L58556 47343
" />
<path d="M57011 48115
L56854 48272
" />
<path d="M57063 48063
L57011 48115
" />
<path d="M57063 43512
L57063 48063
" />
<path d="M57094 43481
L57063 43512
" />
<path d="M56854 48272
L55757 49369
" />
<path d="M55757 49369
L55757 50870
" />
<path d="M56797 47005
L56777 47025
" />
<path d="M56797 43213
L56797 47005
" />
<path d="M56820 43191
L56797 43213
" />
</g>
<g >
</g>
<g style="fill:#000000; fill-opacity:0.0; 
stroke:#000000; stroke-width:78.7402; stroke-opacity:1; 
stroke-linecap:round; stroke-linejoin:round;">
</g>
<g style="fill:#000000; fill-opacity:1.0; 
stroke:#000000; stroke-width:100; stroke-opacity:1; 
stroke-linecap:round; stroke-linejoin:round;">
<path style="fill:#000000; fill-opacity:1.0; 
stroke:#000000; stroke-width:100; stroke-opacity:1; 
stroke-linecap:round; stroke-linejoin:round;fill-rule:evenodd;"
d="M 64402.4,26578.2
64482.7,26602.5
64556.8,26641.9
64621.8,26694.9
64675.3,26759.6
64715.2,26833.4
64740.1,26913.5
64749.6,27004.4
64749.6,27975.8
64733.7,27896
64697.2,27807.8
64644.2,27728.5
64576.7,27661
64497.3,27607.9
64409.1,27571.4
64315.4,27552.8
64220,27552.8
64126.4,27571.4
64038.2,27607.9
63958.8,27661
63891.3,27728.5
63838.2,27807.8
63801.7,27896
63783.1,27989.7
63783.1,28085.1
63801.7,28178.8
63838.2,28267
63891.3,28346.3
63958.8,28413.9
64038.2,28466.9
64126.4,28503.4
64220,28522
64315.4,28522
64409.1,28503.4
64497.3,28466.9
64576.7,28413.9
64644.2,28346.3
64697.2,28267
64733.7,28178.8
64749.6,28099
64749.6,28975.8
64733.7,28896
64697.2,28807.8
64644.2,28728.5
64576.7,28661
64497.3,28607.9
64409.1,28571.4
64315.4,28552.8
64220,28552.8
64126.4,28571.4
64038.2,28607.9
63958.8,28661
63891.3,28728.5
63838.2,28807.8
63801.7,28896
63783.1,28989.7
63783.1,29085.1
63801.7,29178.8
63838.2,29267
63891.3,29346.3
63958.8,29413.9
64038.2,29466.9
64126.4,29503.4
64220,29522
64315.4,29522
64409.1,29503.4
64497.3,29466.9
64576.7,29413.9
64644.2,29346.3
64697.2,29267
64733.7,29178.8
64749.6,29099
64749.6,29975.8
64733.7,29896
64697.2,29807.8
64644.2,29728.5
64576.7,29661
64497.3,29607.9
64409.1,29571.4
64315.4,29552.8
64220,29552.8
64126.4,29571.4
64038.2,29607.9
63958.8,29661
63891.3,29728.5
63838.2,29807.8
63801.7,29896
63783.1,29989.7
63783.1,30085.1
63801.7,30178.8
63838.2,30267
63891.3,30346.3
63958.8,30413.9
64038.2,30466.9
64126.4,30503.4
64220,30522
64315.4,30522
64409.1,30503.4
64497.3,30466.9
64576.7,30413.9
64644.2,30346.3
64697.2,30267
64733.7,30178.8
64749.6,30099
64749.6,30975.8
64733.7,30896
64697.2,30807.8
64644.2,30728.5
64576.7,30661
64497.3,30607.9
64409.1,30571.4
64315.4,30552.8
64220,30552.8
64126.4,30571.4
64038.2,30607.9
63958.8,30661
63891.3,30728.5
63838.2,30807.8
63801.7,30896
63783.1,30989.7
63783.1,31085.1
63801.7,31178.8
63838.2,31267
63891.3,31346.3
63958.8,31413.9
64038.2,31466.9
64126.4,31503.4
64220,31522
64315.4,31522
64409.1,31503.4
64497.3,31466.9
64576.7,31413.9
64644.2,31346.3
64697.2,31267
64733.7,31178.8
64749.6,31099
64749.6,31975.8
64733.7,31896
64697.2,31807.8
64644.2,31728.5
64576.7,31661
64497.3,31607.9
64409.1,31571.4
64315.4,31552.8
64220,31552.8
64126.4,31571.4
64038.2,31607.9
63958.8,31661
63891.3,31728.5
63838.2,31807.8
63801.7,31896
63783.1,31989.7
63783.1,32085.1
63801.7,32178.8
63838.2,32267
63891.3,32346.3
63958.8,32413.9
64038.2,32466.9
64126.4,32503.4
64220,32522
64315.4,32522
64409.1,32503.4
64497.3,32466.9
64576.7,32413.9
64644.2,32346.3
64697.2,32267
64733.7,32178.8
64749.6,32099
64749.6,32975.8
64733.7,32896
64697.2,32807.8
64644.2,32728.5
64576.7,32661
64497.3,32607.9
64409.1,32571.4
64315.4,32552.8
64220,32552.8
64126.4,32571.4
64038.2,32607.9
63958.8,32661
63891.3,32728.5
63838.2,32807.8
63801.7,32896
63783.1,32989.7
63783.1,33085.1
63801.7,33178.8
63838.2,33267
63891.3,33346.3
63958.8,33413.9
64038.2,33466.9
64126.4,33503.4
64220,33522
64315.4,33522
64409.1,33503.4
64497.3,33466.9
64576.7,33413.9
64644.2,33346.3
64697.2,33267
64733.7,33178.8
64749.6,33099
64749.6,33975.8
64733.7,33896
64697.2,33807.8
64644.2,33728.5
64576.7,33661
64497.3,33607.9
64409.1,33571.4
64315.4,33552.8
64220,33552.8
64126.4,33571.4
64038.2,33607.9
63958.8,33661
63891.3,33728.5
63838.2,33807.8
63801.7,33896
63798.3,33913.2
63103.1,33218
63097.2,33210.8
63068.4,33187.1
63035.5,33169.5
62999.8,33158.7
62971.9,33155.9
62962.6,33155
62953.3,33155.9
62114.9,33155.9
62110.5,33149.3
62067.6,33106.5
62017.3,33072.8
61961.3,33049.7
61901.9,33037.8
61841.4,33037.8
61781.9,33049.7
61726,33072.8
61675.6,33106.5
61632.8,33149.3
61599.2,33199.7
61576,33255.6
61564.2,33315
61564.2,33375.6
61576,33435
61599.2,33491
61632.8,33541.3
61675.6,33584.2
61726,33617.8
61751.4,33628.3
61714,33643.8
61663.6,33677.5
61620.8,33720.3
61587.2,33770.7
61564,33826.6
61552.2,33886
61552.2,33946.6
61564,34006
61587.2,34062
61620.8,34112.3
61663.6,34155.2
61714,34188.8
61769.9,34212
61809.8,34219.9
61770.9,34227.7
61715,34250.8
61664.6,34284.5
61621.8,34327.3
61588.2,34377.7
61565,34433.6
61553.2,34493
61553.2,34553.6
61565,34613
61588.2,34669
61621.8,34719.3
61664.6,34762.2
61715,34795.8
61767.6,34817.6
61714,34839.8
61663.6,34873.5
61620.8,34916.3
61587.2,34966.7
61564,35022.6
61552.2,35082
61552.2,35142.6
61564,35202
61587.2,35258
61620.8,35308.3
61663.6,35351.2
61714,35384.8
61769.9,35408
61829.4,35419.8
61889.9,35419.8
61949.3,35408
62005.3,35384.8
62055.6,35351.2
62098.5,35308.3
62102.9,35301.7
62691.4,35301.7
62967.3,35577.6
62967.3,38917
62966.4,38926.3
62967.3,38935.6
62967.3,41030
62967.3,41030
62967.3,41675.9
62654.2,41988.9
62155.9,41988.9
62151.5,41982.3
62108.6,41939.5
62058.3,41905.8
62002.3,41882.7
61942.9,41870.8
61882.4,41870.8
61822.9,41882.7
61767,41905.8
61716.6,41939.5
61673.8,41982.3
61640.2,42032.7
61617,42088.6
61605.2,42148
61605.2,42208.6
61617,42268
61640.2,42324
61673.8,42374.3
61716.6,42417.2
61767,42450.8
61822.9,42474
61882.4,42485.8
61942.9,42485.8
62002.3,42474
62058.3,42450.8
62108.6,42417.2
62151.5,42374.3
62155.9,42367.7
62723.3,42367.7
62732.6,42368.6
62741.9,42367.7
62769.8,42364.9
62805.5,42354.1
62838.4,42336.5
62867.2,42312.9
62873.1,42305.6
63284,41894.8
63291.2,41888.9
63314.9,41860
63332.4,41827.1
63343.3,41791.4
63346,41763.6
63346,41763.6
63346.9,41754.3
63346,41745
63346,39383.5
63818.3,39855.8
63801.7,39896
63783.1,39989.7
63783.1,40085.1
63801.7,40178.8
63838.2,40267
63891.3,40346.3
63958.8,40413.9
64038.2,40466.9
64126.4,40503.4
64220,40522
64315.4,40522
64409.1,40503.4
64497.3,40466.9
64576.7,40413.9
64644.2,40346.3
64697.2,40267
64733.7,40178.8
64749.6,40099
64749.6,40975.8
64733.7,40896
64697.2,40807.8
64644.2,40728.5
64576.7,40661
64497.3,40607.9
64409.1,40571.4
64315.4,40552.8
64220,40552.8
64126.4,40571.4
64038.2,40607.9
63958.8,40661
63891.3,40728.5
63838.2,40807.8
63801.7,40896
63783.1,40989.7
63783.1,41085.1
63801.7,41178.8
63838.2,41267
63891.3,41346.3
63958.8,41413.9
64038.2,41466.9
64126.4,41503.4
64220,41522
64315.4,41522
64409.1,41503.4
64497.3,41466.9
64576.7,41413.9
64644.2,41346.3
64697.2,41267
64733.7,41178.8
64749.6,41099
64749.6,41975.8
64733.7,41896
64697.2,41807.8
64644.2,41728.5
64576.7,41661
64497.3,41607.9
64409.1,41571.4
64315.4,41552.8
64220,41552.8
64126.4,41571.4
64038.2,41607.9
63958.8,41661
63891.3,41728.5
63838.2,41807.8
63801.7,41896
63783.1,41989.7
63783.1,42085.1
63801.7,42178.8
63838.2,42267
63891.3,42346.3
63958.8,42413.9
64038.2,42466.9
64126.4,42503.4
64220,42522
64315.4,42522
64409.1,42503.4
64497.3,42466.9
64576.7,42413.9
64644.2,42346.3
64697.2,42267
64733.7,42178.8
64749.6,42099
64749.6,43975.8
64733.7,43896
64697.2,43807.8
64644.2,43728.5
64576.7,43661
64497.3,43607.9
64409.1,43571.4
64315.4,43552.8
64220,43552.8
64126.4,43571.4
64038.2,43607.9
63958.8,43661
63891.3,43728.5
63838.2,43807.8
63801.7,43896
63783.1,43989.7
63783.1,44085.1
63801.7,44178.8
63838.2,44267
63891.3,44346.3
63958.8,44413.9
64038.2,44466.9
64126.4,44503.4
64220,44522
64315.4,44522
64409.1,44503.4
64497.3,44466.9
64576.7,44413.9
64644.2,44346.3
64697.2,44267
64733.7,44178.8
64749.6,44099
64749.6,44975.8
64733.7,44896
64697.2,44807.8
64644.2,44728.5
64576.7,44661
64497.3,44607.9
64409.1,44571.4
64315.4,44552.8
64220,44552.8
64126.4,44571.4
64038.2,44607.9
63958.8,44661
63891.3,44728.5
63838.2,44807.8
63801.7,44896
63783.1,44989.7
63783.1,45085.1
63801.7,45178.8
63838.2,45267
63891.3,45346.3
63902,45357.1
62523.8,46735.4
62515.9,46733.8
62455.4,46733.8
62395.9,46745.7
62340,46768.8
62289.6,46802.5
62246.8,46845.3
62244.4,46848.9
58566.9,46848.9
58562.5,46842.3
58519.6,46799.5
58469.3,46765.8
58413.3,46742.7
58353.9,46730.8
58293.4,46730.8
58233.9,46742.7
58178,46765.8
58127.6,46799.5
58084.8,46842.3
58051.2,46892.7
58028,46948.6
58016.2,47008
58016.2,47068.6
58028,47128
58051.2,47184
58084.8,47234.3
58127.6,47277.2
58172.8,47307.3
58127.6,47337.5
58084.8,47380.3
58051.2,47430.7
58028,47486.6
58016.2,47546
58016.2,47606.6
58028,47666
58051.2,47722
58084.8,47772.3
58127.6,47815.2
58178,47848.8
58233.9,47872
58293.4,47883.8
58353.9,47883.8
58413.3,47872
58469.3,47848.8
58519.6,47815.2
58562.5,47772.3
58596.1,47722
58619.3,47666
58631.1,47606.6
58631.1,47546
58629.6,47538.2
58635.1,47532.7
61505.3,47532.7
61495.8,47555.6
61484,47615
61484,47675.6
61495.8,47735
61519,47791
61552.6,47841.3
61595.4,47884.2
61645.8,47917.8
61701.8,47941
61761.2,47952.8
61821.7,47952.8
61881.1,47941
61937.1,47917.8
61987.5,47884.2
62030.3,47841.3
62063.9,47791
62087.1,47735
62098.9,47675.6
62098.9,47615
62087.1,47555.6
62077.6,47532.7
62958.3,47532.7
62967.6,47533.6
62976.9,47532.7
63004.8,47529.9
63040.5,47519.1
63073.4,47501.5
63102.2,47477.9
63108.1,47470.6
63247.1,47331.6
63246.3,47666.8
63246.3,47667
63246.3,47676
63246.2,47685.1
63246.3,47685.4
63246.3,50429.2
63177.9,50383.5
63093.3,50348.4
63003.4,50330.6
62911.8,50330.6
62822,50348.4
62737.4,50383.5
62661.2,50434.4
62596.5,50499.1
62545.6,50575.3
62510.5,50659.9
62492.7,50749.7
62492.7,50841.3
62510.5,50931.1
62545.6,51015.8
62596.5,51091.9
62661.2,51156.7
62709.9,51189.2
62661.2,51221.8
62596.5,51286.5
62545.6,51362.7
62510.5,51447.3
62492.7,51537.1
62492.7,51628.7
62510.5,51718.5
62545.6,51803.2
62596.5,51879.3
62623.7,51906.5
62613.3,51907.5
62585,51916.1
62558.9,51930
62536.1,51948.8
62517.4,51971.6
62503.4,51997.7
62494.8,52025.9
62492,52055.4
62492,52685.3
62494.8,52714.7
62503.4,52743
62517.4,52769
62536.1,52791.9
62558.9,52810.6
62585,52824.5
62613.3,52833.1
62642.7,52836
63272.6,52836
63302,52833.1
63330.3,52824.5
63356.3,52810.6
63379.2,52791.9
63397.9,52769
63411.9,52743
63420.4,52714.7
63423.3,52685.3
63423.3,52055.4
63420.4,52025.9
63411.9,51997.7
63397.9,51971.6
63379.2,51948.8
63356.3,51930
63330.3,51916.1
63302,51907.5
63291.6,51906.5
63318.8,51879.3
63369.7,51803.2
63404.7,51718.5
63422.6,51628.7
63422.6,51537.1
63404.7,51447.3
63391.9,51416.4
63563,51245.4
63570.2,51239.5
63593.9,51210.6
63611.4,51177.7
63622.3,51142
63625,51114.2
63625,51114.2
63625.9,51104.9
63625,51095.6
63625,47676.4
63626.8,46946.1
64086.2,46486.8
64126.4,46503.4
64220,46522
64315.4,46522
64409.1,46503.4
64497.3,46466.9
64576.7,46413.9
64644.2,46346.3
64697.2,46267
64733.7,46178.8
64749.6,46099
64749.6,46975.8
64733.7,46896
64697.2,46807.8
64644.2,46728.5
64576.7,46661
64497.3,46607.9
64409.1,46571.4
64315.4,46552.8
64220,46552.8
64126.4,46571.4
64038.2,46607.9
63958.8,46661
63891.3,46728.5
63838.2,46807.8
63801.7,46896
63783.1,46989.7
63783.1,47085.1
63801.7,47178.8
63838.2,47267
63891.3,47346.3
63958.8,47413.9
64038.2,47466.9
64126.4,47503.4
64220,47522
64315.4,47522
64409.1,47503.4
64497.3,47466.9
64576.7,47413.9
64644.2,47346.3
64697.2,47267
64733.7,47178.8
64749.6,47099
64749.6,47975.8
64733.7,47896
64697.2,47807.8
64644.2,47728.5
64576.7,47661
64497.3,47607.9
64409.1,47571.4
64315.4,47552.8
64220,47552.8
64126.4,47571.4
64038.2,47607.9
63958.8,47661
63891.3,47728.5
63838.2,47807.8
63801.7,47896
63783.1,47989.7
63783.1,48085.1
63801.7,48178.8
63838.2,48267
63891.3,48346.3
63958.8,48413.9
64038.2,48466.9
64126.4,48503.4
64220,48522
64315.4,48522
64409.1,48503.4
64497.3,48466.9
64576.7,48413.9
64644.2,48346.3
64697.2,48267
64733.7,48178.8
64749.6,48099
64749.6,52752
64740.7,52843.4
64716.4,52923.7
64677,52997.8
64624,53062.8
64559.3,53116.3
64485.5,53156.2
64405.3,53181
64314.5,53190.5
54515.7,53186.6
54424.4,53177.7
54344,53153.4
54269.9,53114
54204.9,53061
54151.4,52996.3
54111.5,52922.5
54086.7,52842.4
54077.2,52751.5
54077.2,52309.8
56016.9,52309.8
56016.9,52366.5
56027.9,52422.1
56049.6,52474.4
56081.1,52521.6
56121.2,52561.7
56168.3,52593.2
56220.7,52614.8
56276.3,52625.9
56333,52625.9
56388.6,52614.8
56441,52593.2
56488.1,52561.7
56528.2,52521.6
56559.7,52474.4
56581.4,52422.1
56592.4,52366.5
56592.4,52309.8
56581.4,52254.2
56559.7,52201.8
56528.2,52154.7
56488.1,52114.6
56441,52083.1
56388.6,52061.4
56333,52050.3
56276.3,52050.3
56220.7,52061.4
56168.3,52083.1
56121.2,52114.6
56081.1,52154.7
56049.6,52201.8
56027.9,52254.2
56016.9,52309.8
54077.2,52309.8
54077.2,44264
54078.4,44267
54131.4,44346.3
54198.9,44413.9
54278.3,44466.9
54366.5,44503.4
54460.1,44522
54555.6,44522
54649.2,44503.4
54737.4,44466.9
54816.8,44413.9
54884.3,44346.3
54937.4,44267
54973.9,44178.8
54992.5,44085.1
54992.5,43989.7
54973.9,43896
54937.4,43807.8
54884.3,43728.5
54841.9,43686
54969.2,43686
54969.2,43746.6
54981,43806
55004.2,43862
55037.8,43912.3
55080.6,43955.2
55131,43988.8
55186.9,44012
55246.4,44023.8
55306.9,44023.8
55366.3,44012
55422.3,43988.8
55472.6,43955.2
55515.5,43912.3
55549.1,43862
55572.3,43806
55584.1,43746.6
55584.1,43686
55572.3,43626.6
55549.1,43570.7
55515.5,43520.3
55472.6,43477.5
55422.3,43443.8
55366.3,43420.7
55306.9,43408.8
55246.4,43408.8
55186.9,43420.7
55131,43443.8
55080.6,43477.5
55037.8,43520.3
55004.2,43570.7
54981,43626.6
54969.2,43686
54841.9,43686
54816.8,43661
54737.4,43607.9
54649.2,43571.4
54555.6,43552.8
54460.1,43552.8
54366.5,43571.4
54278.3,43607.9
54198.9,43661
54131.4,43728.5
54078.4,43807.8
54077.2,43810.8
54077.2,43264
54078.4,43267
54131.4,43346.3
54198.9,43413.9
54278.3,43466.9
54366.5,43503.4
54460.1,43522
54555.6,43522
54649.2,43503.4
54737.4,43466.9
54816.8,43413.9
54884.3,43346.3
54937.4,43267
54973.9,43178.8
54992.5,43085.1
54992.5,42989.7
54973.9,42896
54937.4,42807.8
54884.3,42728.5
54816.8,42661
54737.4,42607.9
54649.2,42571.4
54555.6,42552.8
54460.1,42552.8
54366.5,42571.4
54278.3,42607.9
54198.9,42661
54131.4,42728.5
54078.4,42807.8
54077.2,42810.8
54077.2,42264
54078.4,42267
54131.4,42346.3
54198.9,42413.9
54278.3,42466.9
54366.5,42503.4
54460.1,42522
54555.6,42522
54649.2,42503.4
54737.4,42466.9
54816.8,42413.9
54884.3,42346.3
54937.4,42267
54973.9,42178.8
54992.5,42085.1
54992.5,41989.7
54973.9,41896
54937.4,41807.8
54884.3,41728.5
54816.8,41661
54737.4,41607.9
54649.2,41571.4
54555.6,41552.8
54460.1,41552.8
54366.5,41571.4
54278.3,41607.9
54198.9,41661
54131.4,41728.5
54078.4,41807.8
54077.2,41810.8
54077.2,41264
54078.4,41267
54131.4,41346.3
54198.9,41413.9
54278.3,41466.9
54366.5,41503.4
54460.1,41522
54555.6,41522
54649.2,41503.4
54737.4,41466.9
54816.8,41413.9
54884.3,41346.3
54937.4,41267
54973.9,41178.8
54992.5,41085.1
54992.5,40989.7
54973.9,40896
54937.4,40807.8
54884.3,40728.5
54816.8,40661
54737.4,40607.9
54649.2,40571.4
54555.6,40552.8
54460.1,40552.8
54366.5,40571.4
54278.3,40607.9
54198.9,40661
54131.4,40728.5
54078.4,40807.8
54077.2,40810.8
54077.2,40264
54078.4,40267
54131.4,40346.3
54198.9,40413.9
54278.3,40466.9
54366.5,40503.4
54460.1,40522
54555.6,40522
54649.2,40503.4
54737.4,40466.9
54816.8,40413.9
54884.3,40346.3
54937.4,40267
54973.9,40178.8
54992.5,40085.1
54992.5,39989.7
54973.9,39896
54937.4,39807.8
54884.3,39728.5
54816.8,39661
54737.4,39607.9
54649.2,39571.4
54555.6,39552.8
54460.1,39552.8
54366.5,39571.4
54278.3,39607.9
54198.9,39661
54131.4,39728.5
54078.4,39807.8
54077.2,39810.8
54077.2,39264
54078.4,39267
54131.4,39346.3
54198.9,39413.9
54278.3,39466.9
54366.5,39503.4
54460.1,39522
54555.6,39522
54649.2,39503.4
54737.4,39466.9
54816.8,39413.9
54884.3,39346.3
54937.4,39267
54973.9,39178.8
54992.5,39085.1
54992.5,38989.7
54973.9,38896
54957.2,38855.8
55845,37968.1
55852.2,37962.2
55875.9,37933.4
55893.4,37900.5
55904.3,37864.8
55907,37836.9
55907,37836.9
55907.9,37827.6
55907,37818.3
55907,34774.2
55964.3,34716.9
56291.5,34716.9
56295.8,34723.3
56338.6,34766.2
56389,34799.8
56444.9,34823
56504.4,34834.8
56564.9,34834.8
56624.3,34823
56680.3,34799.8
56681.3,34799.1
56681.3,37051.4
56656.5,37014.3
56613.6,36971.5
56563.3,36937.8
56507.3,36914.7
56447.9,36902.8
56387.4,36902.8
56327.9,36914.7
56272,36937.8
56221.6,36971.5
56178.8,37014.3
56145.2,37064.7
56122,37120.6
56110.2,37180
56110.2,37240.6
56122,37300
56145.2,37356
56178.8,37406.3
56221.6,37449.2
56272,37482.8
56327.9,37506
56387.4,37517.8
56447.9,37517.8
56507.3,37506
56563.3,37482.8
56613.6,37449.2
56656.5,37406.3
56681.3,37369.2
56681.3,40860.9
55974.8,41567.3
55967.6,41573.2
55943.9,41602.1
55926.4,41635
55925.3,41638.6
55915.5,41670.7
55911.9,41707.8
55912.8,41717.1
55912.8,46465.5
55911.9,46474.8
55915.5,46512
55926.4,46547.7
55943.9,46580.6
55967.6,46609.4
55974.8,46615.3
56038.7,46679.2
56037.2,46687
56037.2,46747.6
56049,46807
56072.2,46863
56105.8,46913.3
56148.6,46956.2
56199,46989.8
56254.9,47013
56314.4,47024.8
56374.9,47024.8
56434.3,47013
56470.2,46998.1
56470.2,47055.6
56482,47115
56505.2,47171
56538.8,47221.3
56581.6,47264.2
56632,47297.8
56687.9,47321
56747.4,47332.8
56807.9,47332.8
56867.3,47321
56874.3,47318.1
56874.3,47965.2
56824,47965.2
56764.6,47977
56708.6,48000.2
56658.3,48033.9
56615.5,48076.7
56581.8,48127.1
56558.6,48183
56546.8,48242.4
56546.8,48303
56548.4,48310.8
55630.3,49228.9
55623.1,49234.8
55599.4,49263.6
55581.8,49296.5
55574.3,49321.4
55571,49332.2
55567.4,49369.4
55568.3,49378.7
55568.3,50627
55561.6,50631.5
55518.8,50674.3
55485.2,50724.7
55462,50780.6
55450.2,50840
55450.2,50900.6
55462,50960
55485.2,51016
55518.8,51066.3
55561.6,51109.2
55612,51142.8
55668,51166
55727.4,51177.8
55787.9,51177.8
55847.3,51166
55903.3,51142.8
55953.6,51109.2
55996.5,51066.3
56030.1,51016
56053.3,50960
56065.1,50900.6
56065.1,50840
56053.3,50780.6
56030.1,50724.7
55996.5,50674.3
55953.6,50631.5
55947,50627
55947,50034.2
56016.9,50034.2
56016.9,50090.9
56027.9,50146.5
56049.6,50198.8
56081.1,50246
56121.2,50286.1
56168.3,50317.6
56220.7,50339.3
56276.3,50350.3
56333,50350.3
56388.6,50339.3
56441,50317.6
56488.1,50286.1
56528.2,50246
56559.7,50198.8
56581.4,50146.5
56592.4,50090.9
56592.4,50034.2
56581.4,49978.6
56559.7,49926.2
56528.2,49879.1
56488.1,49839
56441,49807.5
56388.6,49785.8
56333,49774.7
56276.3,49774.7
56220.7,49785.8
56168.3,49807.5
56121.2,49839
56081.1,49879.1
56049.6,49926.2
56027.9,49978.6
56016.9,50034.2
55947,50034.2
55947,49447.8
56816.2,48578.6
56824,48580.2
56884.6,48580.2
56944,48568.4
56999.9,48545.2
57050.3,48511.5
57090.3,48471.6
57090.3,48539.5
57077,48571.6
57065.2,48631
57065.2,48691.6
57077,48751
57100.2,48807
57133.8,48857.3
57176.6,48900.2
57227,48933.8
57282.9,48957
57342.4,48968.8
57402.9,48968.8
57462.3,48957
57518.3,48933.8
57568.6,48900.2
57611.5,48857.3
57645.1,48807
57668.3,48751
57680.1,48691.6
57680.1,48631
57668.3,48571.6
57645.1,48515.7
57611.5,48465.3
57568.6,48422.5
57518.3,48388.8
57469,48368.4
57469,48170
59135.1,48170
59135.1,48230.6
59146.9,48290
59170.1,48346
59203.7,48396.3
59246.5,48439.2
59296.9,48472.8
59352.9,48496
59412.3,48507.8
59472.8,48507.8
59532.2,48496
59588.2,48472.8
59638.6,48439.2
59681.4,48396.3
59715,48346
59738.2,48290
59750,48230.6
59750,48170
59738.2,48110.6
59715,48054.7
59699.2,48031
60715.2,48031
60715.2,48091.6
60727,48151
60750.2,48207
60783.8,48257.3
60826.6,48300.2
60877,48333.8
60932.9,48357
60992.4,48368.8
61052.9,48368.8
61112.3,48357
61168.3,48333.8
61218.6,48300.2
61261.5,48257.3
61295.1,48207
61318.3,48151
61330.1,48091.6
61330.1,48031
61318.3,47971.6
61295.1,47915.7
61261.5,47865.3
61218.6,47822.5
61168.3,47788.8
61112.3,47765.7
61052.9,47753.8
60992.4,47753.8
60932.9,47765.7
60877,47788.8
60826.6,47822.5
60783.8,47865.3
60750.2,47915.7
60727,47971.6
60715.2,48031
59699.2,48031
59681.4,48004.3
59638.6,47961.5
59588.2,47927.8
59532.2,47904.7
59472.8,47892.8
59412.3,47892.8
59352.9,47904.7
59296.9,47927.8
59246.5,47961.5
59203.7,48004.3
59170.1,48054.7
59146.9,48110.6
59135.1,48170
57469,48170
57469,47819.7
57517.9,47840
57577.4,47851.8
57637.9,47851.8
57697.3,47840
57753.3,47816.8
57803.6,47783.2
57846.5,47740.3
57880.1,47690
57903.3,47634
57915.1,47574.6
57915.1,47514
57903.3,47454.6
57880.1,47398.7
57846.5,47348.3
57803.6,47305.5
57753.3,47271.8
57697.3,47248.7
57637.9,47236.8
57577.4,47236.8
57517.9,47248.7
57469,47268.9
57469,45155
59140.2,45155
59140.2,45215.6
59152,45275
59175.2,45331
59208.8,45381.3
59251.6,45424.2
59302,45457.8
59357.9,45481
59417.4,45492.8
59477.9,45492.8
59537.3,45481
59593.3,45457.8
59643.6,45424.2
59686.5,45381.3
59694.2,45369.7
59964.4,45369.7
59968.8,45376.3
60011.6,45419.2
60062,45452.8
60117.9,45476
60177.4,45487.8
60237.9,45487.8
60297.3,45476
60353.3,45452.8
60403.6,45419.2
60446.5,45376.3
60480.1,45326
60503.3,45270
60515.1,45210.6
60515.1,45150
60503.3,45090.6
60480.1,45034.7
60446.5,44984.3
60403.6,44941.5
60353.3,44907.8
60297.3,44884.7
60237.9,44872.8
60177.4,44872.8
60117.9,44884.7
60062,44907.8
60011.6,44941.5
59968.8,44984.3
59964.4,44990.9
59687.6,44990.9
59686.5,44989.3
59643.6,44946.5
59593.3,44912.8
59537.3,44889.7
59477.9,44877.8
59417.4,44877.8
59357.9,44889.7
59302,44912.8
59251.6,44946.5
59208.8,44989.3
59175.2,45039.7
59152,45095.6
59140.2,45155
57469,45155
57469,44300
61855.2,44300
61855.2,44360.6
61867,44420
61890.2,44476
61923.8,44526.3
61966.6,44569.2
62017,44602.8
62072.9,44626
62132.4,44637.8
62192.9,44637.8
62252.3,44626
62308.3,44602.8
62358.6,44569.2
62401.5,44526.3
62435.1,44476
62458.3,44420
62470.1,44360.6
62470.1,44300
62458.3,44240.6
62435.1,44184.7
62401.5,44134.3
62358.6,44091.5
62308.3,44057.8
62252.3,44034.7
62192.9,44022.8
62132.4,44022.8
62072.9,44034.7
62017,44057.8
61966.6,44091.5
61923.8,44134.3
61890.2,44184.7
61867,44240.6
61855.2,44300
57469,44300
57469,44291.8
57497.6,44263.2
57504.8,44257.3
57528.4,44228.4
57541.5,44204
57546,44195.5
57556.9,44159.8
57560.5,44122.7
57559.6,44113.4
57559.6,43525
61850.2,43525
61850.2,43585.6
61862,43645
61885.2,43701
61918.8,43751.3
61961.6,43794.2
62012,43827.8
62067.9,43851
62127.4,43862.8
62187.9,43862.8
62247.3,43851
62303.3,43827.8
62353.6,43794.2
62396.5,43751.3
62430.1,43701
62453.3,43645
62465.1,43585.6
62465.1,43525
62453.3,43465.6
62430.1,43409.7
62396.5,43359.3
62353.6,43316.5
62303.3,43282.8
62247.3,43259.7
62187.9,43247.8
62127.4,43247.8
62067.9,43259.7
62012,43282.8
61961.6,43316.5
61918.8,43359.3
61885.2,43409.7
61862,43465.6
61850.2,43525
57559.6,43525
57559.6,41822
59348.2,41822
59348.2,41882.6
59360,41942
59383.2,41998
59416.8,42048.3
59459.6,42091.2
59466.3,42095.6
59466.3,42253
59465.4,42262.3
59469,42299.4
59474.9,42318.8
59479.8,42335.1
59497.4,42368
59521.1,42396.9
59528.3,42402.8
59671.2,42545.6
59677.1,42552.9
59705.9,42576.5
59738.8,42594.1
59763.7,42601.7
59774.5,42604.9
59811.6,42608.6
59820.9,42607.7
60466.3,42607.7
60475.6,42608.6
60484.9,42607.7
60512.8,42604.9
60548.5,42594.1
60581.4,42576.5
60610.2,42552.9
60616.1,42545.6
61014.4,42147.4
61021.6,42141.5
61045.3,42112.6
61062.8,42079.7
61073.7,42044
61076.4,42016.2
61076.4,42016.2
61077.3,42006.9
61076.4,41997.6
61076.4,39458
61710.2,39458
61710.2,39518.6
61722,39578
61745.2,39634
61778.8,39684.3
61821.6,39727.2
61872,39760.8
61927.9,39784
61987.4,39795.8
62047.9,39795.8
62107.3,39784
62163.3,39760.8
62213.6,39727.2
62256.5,39684.3
62290.1,39634
62313.3,39578
62325.1,39518.6
62325.1,39458
62313.3,39398.6
62290.1,39342.7
62256.5,39292.3
62213.6,39249.5
62163.3,39215.8
62107.3,39192.7
62047.9,39180.8
61987.4,39180.8
61927.9,39192.7
61872,39215.8
61821.6,39249.5
61778.8,39292.3
61745.2,39342.7
61722,39398.6
61710.2,39458
61076.4,39458
61076.4,38694
61710.2,38694
61710.2,38754.6
61722,38814
61745.2,38870
61778.8,38920.3
61821.6,38963.2
61872,38996.8
61927.9,39020
61987.4,39031.8
62047.9,39031.8
62107.3,39020
62163.3,38996.8
62213.6,38963.2
62256.5,38920.3
62290.1,38870
62313.3,38814
62325.1,38754.6
62325.1,38694
62313.3,38634.6
62290.1,38578.7
62256.5,38528.3
62213.6,38485.5
62163.3,38451.8
62107.3,38428.7
62047.9,38416.8
61987.4,38416.8
61927.9,38428.7
61872,38451.8
61821.6,38485.5
61778.8,38528.3
61745.2,38578.7
61722,38634.6
61710.2,38694
61076.4,38694
61076.4,30866.3
61841.5,30101.2
61849.4,30102.8
61909.9,30102.8
61969.3,30091
62025.3,30067.8
62075.6,30034.2
62118.5,29991.3
62152.1,29941
62175.3,29885
62187.1,29825.6
62187.1,29765
62175.3,29705.6
62152.1,29649.7
62118.5,29599.3
62075.6,29556.5
62025.3,29522.8
61969.3,29499.7
61964.6,29498.7
61973.3,29497
62029.3,29473.8
62079.6,29440.2
62122.5,29397.3
62156.1,29347
62179.3,29291
62191.1,29231.6
62191.1,29171
62179.3,29111.6
62156.1,29055.7
62122.5,29005.3
62079.6,28962.5
62029.3,28928.8
61973.3,28905.7
61913.9,28893.8
61853.4,28893.8
61793.9,28905.7
61738,28928.8
61687.6,28962.5
61644.8,29005.3
61611.2,29055.7
61588,29111.6
61576.2,29171
61576.2,29231.6
61577.7,29239.4
60602.2,30214.9
60595,30220.8
60589.1,30228.1
60571.3,30249.7
60553.8,30282.6
60542.9,30318.3
60539.3,30355.4
60540.2,30364.7
60540.2,41633
60520.2,41652.9
60402.9,41652.9
60398.5,41646.3
60355.6,41603.5
60305.3,41569.8
60249.3,41546.7
60189.9,41534.8
60129.4,41534.8
60069.9,41546.7
60014,41569.8
59963.6,41603.5
59920.8,41646.3
59904.3,41671
59894.5,41656.3
59851.6,41613.5
59801.3,41579.8
59745.3,41556.7
59685.9,41544.8
59625.4,41544.8
59565.9,41556.7
59510,41579.8
59459.6,41613.5
59416.8,41656.3
59383.2,41706.7
59360,41762.6
59348.2,41822
57559.6,41822
57559.6,39088
57611.2,39088
57611.2,39148.6
57623,39208
57646.2,39264
57679.8,39314.3
57722.6,39357.2
57773,39390.8
57828.9,39414
57888.4,39425.8
57948.9,39425.8
58008.3,39414
58064.3,39390.8
58114.6,39357.2
58157.5,39314.3
58191.1,39264
58214.3,39208
58226.1,39148.6
58226.1,39088
58225.5,39085
59225,39085
59225,39145.6
59236.8,39205
59260,39261
59293.6,39311.3
59336.5,39354.2
59386.8,39387.8
59442.8,39411
59502.2,39422.8
59562.8,39422.8
59622.2,39411
59678.1,39387.8
59728.5,39354.2
59771.3,39311.3
59805,39261
59828.1,39205
59840,39145.6
59840,39085
59828.1,39025.6
59805,38969.7
59771.3,38919.3
59728.5,38876.5
59678.1,38842.8
59622.2,38819.7
59562.8,38807.8
59502.2,38807.8
59442.8,38819.7
59386.8,38842.8
59336.5,38876.5
59293.6,38919.3
59260,38969.7
59236.8,39025.6
59225,39085
58225.5,39085
58214.3,39028.6
58191.1,38972.7
58157.5,38922.3
58114.6,38879.5
58064.3,38845.8
58008.3,38822.7
57948.9,38810.8
57888.4,38810.8
57828.9,38822.7
57773,38845.8
57722.6,38879.5
57679.8,38922.3
57646.2,38972.7
57623,39028.6
57611.2,39088
57559.6,39088
57559.6,36588
59082.2,36588
59082.2,36648.6
59094,36708
59117.2,36764
59150.8,36814.3
59193.6,36857.2
59244,36890.8
59299.9,36914
59359.4,36925.8
59419.9,36925.8
59479.3,36914
59535.3,36890.8
59585.6,36857.2
59628.5,36814.3
59662.1,36764
59685.3,36708
59697.1,36648.6
59697.1,36588
59685.3,36528.6
59662.1,36472.7
59628.5,36422.3
59585.6,36379.5
59535.3,36345.8
59479.3,36322.7
59419.9,36310.8
59359.4,36310.8
59299.9,36322.7
59244,36345.8
59193.6,36379.5
59150.8,36422.3
59117.2,36472.7
59094,36528.6
59082.2,36588
57559.6,36588
57559.6,34174.6
57566.2,34170.2
57609.1,34127.3
57642.7,34077
57665.9,34021
57677.7,33961.6
57677.7,33901
57665.9,33841.6
57642.7,33785.7
57609.1,33735.3
57566.2,33692.5
57515.9,33658.8
57459.9,33635.7
57400.5,33623.8
57339.9,33623.8
57280.5,33635.7
57270,33640
57270,28397.8
58045.1,27622.7
61623.4,27622.7
61627.8,27629.3
61670.6,27672.2
61721,27705.8
61776.9,27729
61836.4,27740.8
61896.9,27740.8
61956.3,27729
62012.3,27705.8
62062.6,27672.2
62105.5,27629.3
62139.1,27579
62162.3,27523
62174.1,27463.6
62174.1,27403
62162.3,27343.6
62139.1,27287.7
62105.5,27237.3
62062.6,27194.5
62012.3,27160.8
61956.3,27137.7
61896.9,27125.8
61836.4,27125.8
61776.9,27137.7
61721,27160.8
61670.6,27194.5
61627.8,27237.3
61623.4,27243.9
57975.9,27243.9
57966.6,27243
57929.5,27246.7
57918.7,27250
57893.8,27257.5
57860.9,27275.1
57832.1,27298.8
57826.2,27306
56953.3,28178.8
56946.1,28184.8
56941.5,28190.4
56869.6,28118.4
56871.1,28110.6
56871.1,28050
56859.3,27990.6
56836.1,27934.7
56802.5,27884.3
56759.6,27841.5
56709.3,27807.8
56653.3,27784.7
56593.9,27772.8
56533.4,27772.8
56474,27784.7
56418,27807.8
56367.6,27841.5
56324.8,27884.3
56291.2,27934.7
56268,27990.6
56256.2,28050
56256.2,28110.6
56268,28170
56291.2,28226
56324.8,28276.3
56367.6,28319.2
56418,28352.8
56474,28376
56533.4,28387.8
56593.9,28387.8
56601.8,28386.2
56681.3,28465.8
56681.3,33080.8
56630.3,33059.7
56570.9,33047.8
56510.4,33047.8
56450.9,33059.7
56395,33082.8
56344.6,33116.5
56301.8,33159.3
56297.4,33165.9
55630.9,33165.9
55621.6,33165
55584.5,33168.7
55573.7,33172
55548.8,33179.5
55515.9,33197.1
55487.1,33220.8
55481.2,33228
55085.3,33623.8
55078.1,33629.8
55072.2,33637
55054.4,33658.6
55036.8,33691.5
55026,33727.2
55022.4,33764.3
55023.3,33773.6
55023.3,36254.2
54689.4,36588
54649.2,36571.4
54555.6,36552.8
54460.1,36552.8
54366.5,36571.4
54278.3,36607.9
54198.9,36661
54131.4,36728.5
54078.4,36807.8
54077.2,36810.8
54077.2,36264
54078.4,36267
54131.4,36346.3
54198.9,36413.9
54278.3,36466.9
54366.5,36503.4
54460.1,36522
54555.6,36522
54649.2,36503.4
54737.4,36466.9
54816.8,36413.9
54884.3,36346.3
54937.4,36267
54973.9,36178.8
54992.5,36085.1
54992.5,35989.7
54973.9,35896
54937.4,35807.8
54884.3,35728.5
54816.8,35661
54737.4,35607.9
54649.2,35571.4
54555.6,35552.8
54460.1,35552.8
54366.5,35571.4
54278.3,35607.9
54198.9,35661
54131.4,35728.5
54078.4,35807.8
54077.2,35810.8
54077.2,35264
54078.4,35267
54131.4,35346.3
54198.9,35413.9
54278.3,35466.9
54366.5,35503.4
54460.1,35522
54555.6,35522
54649.2,35503.4
54737.4,35466.9
54816.8,35413.9
54884.3,35346.3
54937.4,35267
54973.9,35178.8
54992.5,35085.1
54992.5,34989.7
54973.9,34896
54937.4,34807.8
54884.3,34728.5
54816.8,34661
54737.4,34607.9
54649.2,34571.4
54555.6,34552.8
54460.1,34552.8
54366.5,34571.4
54278.3,34607.9
54198.9,34661
54131.4,34728.5
54078.4,34807.8
54077.2,34810.8
54077.2,34264
54078.4,34267
54131.4,34346.3
54198.9,34413.9
54278.3,34466.9
54366.5,34503.4
54460.1,34522
54555.6,34522
54649.2,34503.4
54737.4,34466.9
54816.8,34413.9
54884.3,34346.3
54937.4,34267
54973.9,34178.8
54992.5,34085.1
54992.5,33989.7
54973.9,33896
54937.4,33807.8
54884.3,33728.5
54816.8,33661
54737.4,33607.9
54649.2,33571.4
54555.6,33552.8
54460.1,33552.8
54366.5,33571.4
54278.3,33607.9
54198.9,33661
54131.4,33728.5
54078.4,33807.8
54077.2,33810.8
54077.2,33264
54078.4,33267
54131.4,33346.3
54198.9,33413.9
54278.3,33466.9
54366.5,33503.4
54460.1,33522
54555.6,33522
54649.2,33503.4
54737.4,33466.9
54816.8,33413.9
54884.3,33346.3
54937.4,33267
54973.9,33178.8
54992.5,33085.1
54992.5,32989.7
54973.9,32896
54937.4,32807.8
54884.3,32728.5
54816.8,32661
54737.4,32607.9
54649.2,32571.4
54555.6,32552.8
54460.1,32552.8
54366.5,32571.4
54278.3,32607.9
54198.9,32661
54131.4,32728.5
54078.4,32807.8
54077.2,32810.8
54077.2,32264
54078.4,32267
54131.4,32346.3
54198.9,32413.9
54278.3,32466.9
54366.5,32503.4
54460.1,32522
54555.6,32522
54649.2,32503.4
54737.4,32466.9
54816.8,32413.9
54884.3,32346.3
54937.4,32267
54973.9,32178.8
54992.5,32085.1
54992.5,31989.7
54973.9,31896
54937.4,31807.8
54884.3,31728.5
54816.8,31661
54737.4,31607.9
54649.2,31571.4
54555.6,31552.8
54460.1,31552.8
54366.5,31571.4
54278.3,31607.9
54198.9,31661
54131.4,31728.5
54078.4,31807.8
54077.2,31810.8
54077.2,31264
54078.4,31267
54131.4,31346.3
54198.9,31413.9
54278.3,31466.9
54366.5,31503.4
54460.1,31522
54555.6,31522
54649.2,31503.4
54737.4,31466.9
54816.8,31413.9
54884.3,31346.3
54937.4,31267
54973.9,31178.8
54992.5,31085.1
54992.5,30989.7
54973.9,30896
54937.4,30807.8
54884.3,30728.5
54816.8,30661
54737.4,30607.9
54649.2,30571.4
54555.6,30552.8
54460.1,30552.8
54366.5,30571.4
54278.3,30607.9
54198.9,30661
54131.4,30728.5
54078.4,30807.8
54077.2,30810.8
54077.2,30264
54078.4,30267
54131.4,30346.3
54198.9,30413.9
54278.3,30466.9
54366.5,30503.4
54460.1,30522
54555.6,30522
54649.2,30503.4
54737.4,30466.9
54816.8,30413.9
54884.3,30346.3
54937.4,30267
54973.9,30178.8
54992.5,30085.1
54992.5,29989.7
54973.9,29896
54937.4,29807.8
54884.3,29728.5
54816.8,29661
54737.4,29607.9
54649.2,29571.4
54555.6,29552.8
54460.1,29552.8
54366.5,29571.4
54278.3,29607.9
54198.9,29661
54131.4,29728.5
54078.4,29807.8
54077.2,29810.8
54077.2,29264
54078.4,29267
54131.4,29346.3
54198.9,29413.9
54278.3,29466.9
54366.5,29503.4
54460.1,29522
54555.6,29522
54649.2,29503.4
54737.4,29466.9
54816.8,29413.9
54884.3,29346.3
54937.4,29267
54973.9,29178.8
54992.5,29085.1
54992.5,28989.7
54973.9,28896
54937.4,28807.8
54884.3,28728.5
54816.8,28661
54737.4,28607.9
54649.2,28571.4
54555.6,28552.8
54460.1,28552.8
54366.5,28571.4
54278.3,28607.9
54198.9,28661
54131.4,28728.5
54078.4,28807.8
54077.2,28810.8
54077.2,28264
54078.4,28267
54131.4,28346.3
54198.9,28413.9
54278.3,28466.9
54366.5,28503.4
54460.1,28522
54555.6,28522
54649.2,28503.4
54737.4,28466.9
54816.8,28413.9
54884.3,28346.3
54937.4,28267
54973.9,28178.8
54992.5,28085.1
54992.5,27989.7
54973.9,27896
54937.4,27807.8
54884.3,27728.5
54816.8,27661
54737.4,27607.9
54649.2,27571.4
54555.6,27552.8
54460.1,27552.8
54366.5,27571.4
54278.3,27607.9
54198.9,27661
54131.4,27728.5
54078.4,27807.8
54077.2,27810.8
54077.2,27007.8
54086.1,26916.5
54110.4,26836.2
54149.8,26762.1
54202.8,26697
54267.5,26643.6
54341.3,26603.7
54421.4,26578.8
54512.3,26569.3
64311.1,26569.3
Z" /> 
</g>
</g> 
</svg>
