<?xml version="1.0" standalone="no"?>
 <!DOCTYPE svg PUBLIC "-//W3C//DTD SVG 1.1//EN" 
 "http://www.w3.org/Graphics/SVG/1.1/DTD/svg11.dtd"> 
<svg xmlns="http://www.w3.org/2000/svg" version="1.1" 
    width="29.7002cm" height="21.0007cm" viewBox="0 0 116930 82680 ">
<title>SVG Picture created as ESP32-S2-B_SilkS.svg date 2021/06/10 16:34:16 </title>
  <desc>Picture generated by PCBNEW </desc>
<g style="fill:#000000; fill-opacity:1;stroke:#000000; stroke-opacity:1;
stroke-linecap:round; stroke-linejoin:round; "
 transform="translate(0 0) scale(1 1)">
</g>
<g style="fill:#000000; fill-opacity:0.0; 
stroke:#000000; stroke-width:-0.000393701; stroke-opacity:1; 
stroke-linecap:round; stroke-linejoin:round;">
</g>
<g style="fill:#000000; fill-opacity:0.0; 
stroke:#000000; stroke-width:59.0551; stroke-opacity:1; 
stroke-linecap:round; stroke-linejoin:round;">
<g transform="rotate(90 55232.3 26988.2)">
<text x="55232.3" y="27145.7"
textLength="-763.123" font-size="-367.454" lengthAdjust="spacingAndGlyphs"
text-anchor="middle" opacity="0">GND</text>
</g>
<path d="M55389 27198
L55404 27224
L55404 27263
L55389 27303
L55359 27329
L55329 27342
L55269 27355
L55224 27355
L55164 27342
L55134 27329
L55104 27303
L55089 27263
L55089 27237
L55104 27198
L55119 27185
L55224 27185
L55224 27237
" />
<path d="M55089 27066
L55404 27066
L55089 26909
L55404 26909
" />
<path d="M55089 26778
L55404 26778
L55404 26712
L55389 26673
L55359 26646
L55329 26633
L55269 26620
L55224 26620
L55164 26633
L55134 26646
L55104 26673
L55089 26712
L55089 26778
" />
<g transform="rotate(-90 63484.3 27066.9)">
<text x="63484.3" y="27224.4"
textLength="-763.123" font-size="-367.454" lengthAdjust="spacingAndGlyphs"
text-anchor="middle" opacity="0">GND</text>
</g>
<path d="M63326 26856
L63311 26830
L63311 26791
L63326 26751
L63356 26725
L63386 26712
L63446 26699
L63491 26699
L63551 26712
L63581 26725
L63611 26751
L63626 26791
L63626 26817
L63611 26856
L63596 26870
L63491 26870
L63491 26817
" />
<path d="M63626 26988
L63311 26988
L63626 27145
L63311 27145
" />
<path d="M63626 27276
L63311 27276
L63311 27342
L63326 27381
L63356 27408
L63386 27421
L63446 27434
L63491 27434
L63551 27421
L63581 27408
L63611 27381
L63626 27342
L63626 27276
" />
<g transform="rotate(-90 63507.6 48030.3)">
<text x="63507.6" y="48187.8"
textLength="-290.682" font-size="-367.454" lengthAdjust="spacingAndGlyphs"
text-anchor="middle" opacity="0">VI</text>
</g>
<path d="M63335 47872
L63650 47964
L63335 48056
" />
<path d="M63650 48148
L63335 48148
" />
<g transform="rotate(-90 63484.3 46948.8)">
<text x="63484.3" y="47106.3"
textLength="-448.163" font-size="-367.454" lengthAdjust="spacingAndGlyphs"
text-anchor="middle" opacity="0">17</text>
</g>
<path d="M63626 46896
L63626 46738
" />
<path d="M63626 46817
L63311 46817
L63356 46791
L63386 46765
L63401 46738
" />
<path d="M63311 46988
L63311 47171
L63626 47053
" />
<g transform="rotate(-90 63484.3 45964.6)">
<text x="63484.3" y="46122"
textLength="-448.163" font-size="-367.454" lengthAdjust="spacingAndGlyphs"
text-anchor="middle" opacity="0">19</text>
</g>
<path d="M63626 45912
L63626 45754
" />
<path d="M63626 45833
L63311 45833
L63356 45807
L63386 45780
L63401 45754
" />
<path d="M63626 46043
L63626 46095
L63611 46122
L63596 46135
L63551 46161
L63491 46174
L63371 46174
L63341 46161
L63326 46148
L63311 46122
L63311 46069
L63326 46043
L63341 46030
L63371 46017
L63446 46017
L63476 46030
L63491 46043
L63506 46069
L63506 46122
L63491 46148
L63476 46161
L63446 46174
" />
<g transform="rotate(-90 63484.3 44980.3)">
<text x="63484.3" y="45137.8"
textLength="-448.163" font-size="-367.454" lengthAdjust="spacingAndGlyphs"
text-anchor="middle" opacity="0">20</text>
</g>
<path d="M63341 44770
L63326 44783
L63311 44809
L63311 44875
L63326 44901
L63341 44914
L63371 44927
L63401 44927
L63446 44914
L63626 44757
L63626 44927
" />
<path d="M63311 45098
L63311 45124
L63326 45150
L63341 45164
L63371 45177
L63431 45190
L63506 45190
L63566 45177
L63596 45164
L63611 45150
L63626 45124
L63626 45098
L63611 45072
L63596 45059
L63566 45045
L63506 45032
L63431 45032
L63371 45045
L63341 45059
L63326 45072
L63311 45098
" />
<g transform="rotate(-90 63484.3 43996.1)">
<text x="63484.3" y="44153.5"
textLength="-448.163" font-size="-367.454" lengthAdjust="spacingAndGlyphs"
text-anchor="middle" opacity="0">21</text>
</g>
<path d="M63341 43786
L63326 43799
L63311 43825
L63311 43891
L63326 43917
L63341 43930
L63371 43943
L63401 43943
L63446 43930
L63626 43772
L63626 43943
" />
<path d="M63626 44206
L63626 44048
" />
<path d="M63626 44127
L63311 44127
L63356 44101
L63386 44074
L63401 44048
" />
<g transform="rotate(-90 63507.6 43030.3)">
<text x="63507.6" y="43187.8"
textLength="-763.123" font-size="-367.454" lengthAdjust="spacingAndGlyphs"
text-anchor="middle" opacity="0">GND</text>
</g>
<path d="M63350 42820
L63335 42794
L63335 42754
L63350 42715
L63380 42689
L63410 42675
L63470 42662
L63515 42662
L63575 42675
L63605 42689
L63635 42715
L63650 42754
L63650 42780
L63635 42820
L63620 42833
L63515 42833
L63515 42780
" />
<path d="M63650 42951
L63335 42951
L63650 43109
L63335 43109
" />
<path d="M63650 43240
L63335 43240
L63335 43305
L63350 43345
L63380 43371
L63410 43384
L63470 43397
L63515 43397
L63575 43384
L63605 43371
L63635 43345
L63650 43305
L63650 43240
" />
<g transform="rotate(-90 63507.6 41990.3)">
<text x="63507.6" y="42147.8"
textLength="-448.163" font-size="-367.454" lengthAdjust="spacingAndGlyphs"
text-anchor="middle" opacity="0">16</text>
</g>
<path d="M63650 41937
L63650 41780
" />
<path d="M63650 41859
L63335 41859
L63380 41832
L63410 41806
L63425 41780
" />
<path d="M63335 42174
L63335 42121
L63350 42095
L63365 42082
L63410 42055
L63470 42042
L63590 42042
L63620 42055
L63635 42069
L63650 42095
L63650 42147
L63635 42174
L63620 42187
L63590 42200
L63515 42200
L63485 42187
L63470 42174
L63455 42147
L63455 42095
L63470 42069
L63485 42055
L63515 42042
" />
<g transform="rotate(-90 63484.3 40944.9)">
<text x="63484.3" y="41102.4"
textLength="-448.163" font-size="-367.454" lengthAdjust="spacingAndGlyphs"
text-anchor="middle" opacity="0">33</text>
</g>
<path d="M63311 40721
L63311 40892
L63431 40800
L63431 40839
L63446 40866
L63461 40879
L63491 40892
L63566 40892
L63596 40879
L63611 40866
L63626 40839
L63626 40761
L63611 40734
L63596 40721
" />
<path d="M63311 40984
L63311 41154
L63431 41062
L63431 41102
L63446 41128
L63461 41141
L63491 41154
L63566 41154
L63596 41141
L63611 41128
L63626 41102
L63626 41023
L63611 40997
L63596 40984
" />
<g transform="rotate(-90 63484.3 39960.3)">
<text x="63484.3" y="40117.8"
textLength="-448.163" font-size="-367.454" lengthAdjust="spacingAndGlyphs"
text-anchor="middle" opacity="0">34</text>
</g>
<path d="M63311 39737
L63311 39907
L63431 39815
L63431 39855
L63446 39881
L63461 39894
L63491 39907
L63566 39907
L63596 39894
L63611 39881
L63626 39855
L63626 39776
L63611 39750
L63596 39737
" />
<path d="M63416 40144
L63626 40144
" />
<path d="M63296 40078
L63521 40012
L63521 40183
" />
<g transform="rotate(-90 63484.3 38976.4)">
<text x="63484.3" y="39133.9"
textLength="-448.163" font-size="-367.454" lengthAdjust="spacingAndGlyphs"
text-anchor="middle" opacity="0">35</text>
</g>
<path d="M63311 38753
L63311 38923
L63431 38832
L63431 38871
L63446 38897
L63461 38910
L63491 38923
L63566 38923
L63596 38910
L63611 38897
L63626 38871
L63626 38792
L63611 38766
L63596 38753
" />
<path d="M63311 39173
L63311 39041
L63461 39028
L63446 39041
L63431 39068
L63431 39133
L63446 39160
L63461 39173
L63491 39186
L63566 39186
L63596 39173
L63611 39160
L63626 39133
L63626 39068
L63611 39041
L63596 39028
" />
<g transform="rotate(-90 63484.3 37990.3)">
<text x="63484.3" y="38147.8"
textLength="-448.163" font-size="-367.454" lengthAdjust="spacingAndGlyphs"
text-anchor="middle" opacity="0">36</text>
</g>
<path d="M63311 37767
L63311 37937
L63431 37845
L63431 37885
L63446 37911
L63461 37924
L63491 37937
L63566 37937
L63596 37924
L63611 37911
L63626 37885
L63626 37806
L63611 37780
L63596 37767
" />
<path d="M63311 38174
L63311 38121
L63326 38095
L63341 38082
L63386 38055
L63446 38042
L63566 38042
L63596 38055
L63611 38069
L63626 38095
L63626 38147
L63611 38174
L63596 38187
L63566 38200
L63491 38200
L63461 38187
L63446 38174
L63431 38147
L63431 38095
L63446 38069
L63461 38055
L63491 38042
" />
<g transform="rotate(-90 63484.3 37007.9)">
<text x="63484.3" y="37165.4"
textLength="-448.163" font-size="-367.454" lengthAdjust="spacingAndGlyphs"
text-anchor="middle" opacity="0">37</text>
</g>
<path d="M63311 36784
L63311 36955
L63431 36863
L63431 36902
L63446 36929
L63461 36942
L63491 36955
L63566 36955
L63596 36942
L63611 36929
L63626 36902
L63626 36824
L63611 36797
L63596 36784
" />
<path d="M63311 37047
L63311 37230
L63626 37112
" />
<g transform="rotate(-90 63484.3 36023.6)">
<text x="63484.3" y="36181.1"
textLength="-448.163" font-size="-367.454" lengthAdjust="spacingAndGlyphs"
text-anchor="middle" opacity="0">38</text>
</g>
<path d="M63311 35800
L63311 35971
L63431 35879
L63431 35918
L63446 35944
L63461 35958
L63491 35971
L63566 35971
L63596 35958
L63611 35944
L63626 35918
L63626 35839
L63611 35813
L63596 35800
" />
<path d="M63446 36128
L63431 36102
L63416 36089
L63386 36076
L63371 36076
L63341 36089
L63326 36102
L63311 36128
L63311 36181
L63326 36207
L63341 36220
L63371 36233
L63386 36233
L63416 36220
L63431 36207
L63446 36181
L63446 36128
L63461 36102
L63476 36089
L63506 36076
L63566 36076
L63596 36089
L63611 36102
L63626 36128
L63626 36181
L63611 36207
L63596 36220
L63566 36233
L63506 36233
L63476 36220
L63461 36207
L63446 36181
" />
<g transform="rotate(-90 63484.3 35039.4)">
<text x="63484.3" y="35196.9"
textLength="-448.163" font-size="-367.454" lengthAdjust="spacingAndGlyphs"
text-anchor="middle" opacity="0">39</text>
</g>
<path d="M63311 34816
L63311 34986
L63431 34895
L63431 34934
L63446 34960
L63461 34973
L63491 34986
L63566 34986
L63596 34973
L63611 34960
L63626 34934
L63626 34855
L63611 34829
L63596 34816
" />
<path d="M63626 35118
L63626 35170
L63611 35196
L63596 35209
L63551 35236
L63491 35249
L63371 35249
L63341 35236
L63326 35223
L63311 35196
L63311 35144
L63326 35118
L63341 35104
L63371 35091
L63446 35091
L63476 35104
L63491 35118
L63506 35144
L63506 35196
L63491 35223
L63476 35236
L63446 35249
" />
<g transform="rotate(-90 63484.3 34055.1)">
<text x="63484.3" y="34212.6"
textLength="-684.383" font-size="-367.454" lengthAdjust="spacingAndGlyphs"
text-anchor="middle" opacity="0">SCL</text>
</g>
<path d="M63611 33727
L63626 33766
L63626 33832
L63611 33858
L63596 33871
L63566 33884
L63536 33884
L63506 33871
L63491 33858
L63476 33832
L63461 33779
L63446 33753
L63431 33740
L63401 33727
L63371 33727
L63341 33740
L63326 33753
L63311 33779
L63311 33845
L63326 33884
" />
<path d="M63596 34160
L63611 34146
L63626 34107
L63626 34081
L63611 34041
L63581 34015
L63551 34002
L63491 33989
L63446 33989
L63386 34002
L63356 34015
L63326 34041
L63311 34081
L63311 34107
L63326 34146
L63341 34160
" />
<path d="M63626 34409
L63626 34278
L63311 34278
" />
<g transform="rotate(-90 63484.3 32970.3)">
<text x="63484.3" y="33127.8"
textLength="-697.507" font-size="-367.454" lengthAdjust="spacingAndGlyphs"
text-anchor="middle" opacity="0">SDA</text>
</g>
<path d="M63611 32635
L63626 32675
L63626 32740
L63611 32766
L63596 32780
L63566 32793
L63536 32793
L63506 32780
L63491 32766
L63476 32740
L63461 32688
L63446 32661
L63431 32648
L63401 32635
L63371 32635
L63341 32648
L63326 32661
L63311 32688
L63311 32753
L63326 32793
" />
<path d="M63626 32911
L63311 32911
L63311 32976
L63326 33016
L63356 33042
L63386 33055
L63446 33068
L63491 33068
L63551 33055
L63581 33042
L63611 33016
L63626 32976
L63626 32911
" />
<path d="M63536 33173
L63536 33304
" />
<path d="M63626 33147
L63311 33239
L63626 33331
" />
<g transform="rotate(-90 63484.3 31988.2)">
<text x="63484.3" y="32145.7"
textLength="-448.163" font-size="-367.454" lengthAdjust="spacingAndGlyphs"
text-anchor="middle" opacity="0">42</text>
</g>
<path d="M63416 31909
L63626 31909
" />
<path d="M63296 31843
L63521 31778
L63521 31948
" />
<path d="M63341 32040
L63326 32053
L63311 32080
L63311 32145
L63326 32171
L63341 32185
L63371 32198
L63401 32198
L63446 32185
L63626 32027
L63626 32198
" />
<g transform="rotate(-90 63477.6 31000.3)">
<text x="63477.6" y="31157.8"
textLength="-671.26" font-size="-367.454" lengthAdjust="spacingAndGlyphs"
text-anchor="middle" opacity="0">TXD</text>
</g>
<path d="M63305 30652
L63305 30810
" />
<path d="M63620 30731
L63305 30731
" />
<path d="M63305 30875
L63620 31059
" />
<path d="M63305 31059
L63620 30875
" />
<path d="M63620 31164
L63305 31164
L63305 31229
L63320 31269
L63350 31295
L63380 31308
L63440 31321
L63485 31321
L63545 31308
L63575 31295
L63605 31269
L63620 31229
L63620 31164
" />
<g transform="rotate(-90 63484.3 29920.3)">
<text x="63484.3" y="30077.8"
textLength="-736.877" font-size="-367.454" lengthAdjust="spacingAndGlyphs"
text-anchor="middle" opacity="0">RXD</text>
</g>
<path d="M63626 29736
L63476 29644
" />
<path d="M63626 29579
L63311 29579
L63311 29684
L63326 29710
L63341 29723
L63371 29736
L63416 29736
L63446 29723
L63461 29710
L63476 29684
L63476 29579
" />
<path d="M63311 29828
L63626 30012
" />
<path d="M63311 30012
L63626 29828
" />
<path d="M63626 30117
L63311 30117
L63311 30182
L63326 30222
L63356 30248
L63386 30261
L63446 30274
L63491 30274
L63551 30261
L63581 30248
L63611 30222
L63626 30182
L63626 30117
" />
<g transform="rotate(-90 63484.3 28937)">
<text x="63484.3" y="29094.5"
textLength="-448.163" font-size="-367.454" lengthAdjust="spacingAndGlyphs"
text-anchor="middle" opacity="0">45</text>
</g>
<path d="M63416 28858
L63626 28858
" />
<path d="M63296 28792
L63521 28727
L63521 28897
" />
<path d="M63311 29133
L63311 29002
L63461 28989
L63446 29002
L63431 29028
L63431 29094
L63446 29120
L63461 29133
L63491 29146
L63566 29146
L63596 29133
L63611 29120
L63626 29094
L63626 29028
L63611 29002
L63596 28989
" />
<g transform="rotate(-90 63484.3 28050.3)">
<text x="63484.3" y="28207.8"
textLength="-448.163" font-size="-367.454" lengthAdjust="spacingAndGlyphs"
text-anchor="middle" opacity="0">46</text>
</g>
<path d="M63416 27971
L63626 27971
" />
<path d="M63296 27905
L63521 27840
L63521 28010
" />
<path d="M63311 28234
L63311 28181
L63326 28155
L63341 28142
L63386 28115
L63446 28102
L63566 28102
L63596 28115
L63611 28129
L63626 28155
L63626 28207
L63611 28234
L63596 28247
L63566 28260
L63491 28260
L63461 28247
L63446 28234
L63431 28207
L63431 28155
L63446 28129
L63461 28115
L63491 28102
" />
<g transform="rotate(-270 55257.6 43970.3)">
<text x="55257.6" y="44127.8"
textLength="-448.163" font-size="-367.454" lengthAdjust="spacingAndGlyphs"
text-anchor="middle" opacity="0">16</text>
</g>
<path d="M55115 44022
L55115 44180
" />
<path d="M55115 44101
L55430 44101
L55385 44127
L55355 44154
L55340 44180
" />
<path d="M55430 43786
L55430 43839
L55415 43865
L55400 43878
L55355 43904
L55295 43917
L55175 43917
L55145 43904
L55130 43891
L55115 43865
L55115 43812
L55130 43786
L55145 43773
L55175 43760
L55250 43760
L55280 43773
L55295 43786
L55310 43812
L55310 43865
L55295 43891
L55280 43904
L55250 43917
" />
<g transform="rotate(90 55236.2 43010.3)">
<text x="55236.2" y="43167.8"
textLength="-448.163" font-size="-367.454" lengthAdjust="spacingAndGlyphs"
text-anchor="middle" opacity="0">15</text>
</g>
<path d="M55093 43062
L55093 43220
" />
<path d="M55093 43141
L55408 43141
L55363 43167
L55333 43194
L55318 43220
" />
<path d="M55408 42813
L55408 42944
L55258 42957
L55273 42944
L55288 42918
L55288 42852
L55273 42826
L55258 42813
L55228 42800
L55153 42800
L55123 42813
L55108 42826
L55093 42852
L55093 42918
L55108 42944
L55123 42957
" />
<g transform="rotate(90 55236.2 42035.4)">
<text x="55236.2" y="42192.9"
textLength="-448.163" font-size="-367.454" lengthAdjust="spacingAndGlyphs"
text-anchor="middle" opacity="0">14</text>
</g>
<path d="M55093 42087
L55093 42245
" />
<path d="M55093 42166
L55408 42166
L55363 42192
L55333 42219
L55318 42245
" />
<path d="M55303 41851
L55093 41851
" />
<path d="M55423 41917
L55198 41982
L55198 41812
" />
<g transform="rotate(90 55236.2 40940.3)">
<text x="55236.2" y="41097.8"
textLength="-448.163" font-size="-367.454" lengthAdjust="spacingAndGlyphs"
text-anchor="middle" opacity="0">13</text>
</g>
<path d="M55093 40992
L55093 41150
" />
<path d="M55093 41071
L55408 41071
L55363 41097
L55333 41124
L55318 41150
" />
<path d="M55408 40900
L55408 40730
L55288 40822
L55288 40782
L55273 40756
L55258 40743
L55228 40730
L55153 40730
L55123 40743
L55108 40756
L55093 40782
L55093 40861
L55108 40887
L55123 40900
" />
<g transform="rotate(90 55236.2 39960.3)">
<text x="55236.2" y="40117.8"
textLength="-448.163" font-size="-367.454" lengthAdjust="spacingAndGlyphs"
text-anchor="middle" opacity="0">12</text>
</g>
<path d="M55093 40012
L55093 40170
" />
<path d="M55093 40091
L55408 40091
L55363 40117
L55333 40144
L55318 40170
" />
<path d="M55378 39907
L55393 39894
L55408 39868
L55408 39802
L55393 39776
L55378 39763
L55348 39750
L55318 39750
L55273 39763
L55093 39920
L55093 39750
" />
<g transform="rotate(90 55236.2 38980.3)">
<text x="55236.2" y="39137.8"
textLength="-448.163" font-size="-367.454" lengthAdjust="spacingAndGlyphs"
text-anchor="middle" opacity="0">11</text>
</g>
<path d="M55093 39032
L55093 39190
" />
<path d="M55093 39111
L55408 39111
L55363 39137
L55333 39164
L55318 39190
" />
<path d="M55093 38770
L55093 38927
" />
<path d="M55093 38849
L55408 38849
L55363 38875
L55333 38901
L55318 38927
" />
<g transform="rotate(90 55236.2 37990.3)">
<text x="55236.2" y="38147.8"
textLength="-448.163" font-size="-367.454" lengthAdjust="spacingAndGlyphs"
text-anchor="middle" opacity="0">10</text>
</g>
<path d="M55093 38042
L55093 38200
" />
<path d="M55093 38121
L55408 38121
L55363 38147
L55333 38174
L55318 38200
" />
<path d="M55408 37872
L55408 37845
L55393 37819
L55378 37806
L55348 37793
L55288 37780
L55213 37780
L55153 37793
L55123 37806
L55108 37819
L55093 37845
L55093 37872
L55108 37898
L55123 37911
L55153 37924
L55213 37937
L55288 37937
L55348 37924
L55378 37911
L55393 37898
L55408 37872
" />
<g transform="rotate(90 55236.2 37010.3)">
<text x="55236.2" y="37167.8"
textLength="-185.696" font-size="-367.454" lengthAdjust="spacingAndGlyphs"
text-anchor="middle" opacity="0">9</text>
</g>
<path d="M55093 37062
L55093 37010
L55108 36984
L55123 36970
L55168 36944
L55228 36931
L55348 36931
L55378 36944
L55393 36957
L55408 36984
L55408 37036
L55393 37062
L55378 37075
L55348 37089
L55273 37089
L55243 37075
L55228 37062
L55213 37036
L55213 36984
L55228 36957
L55243 36944
L55273 36931
" />
<g transform="rotate(90 55236.2 36031.5)">
<text x="55236.2" y="36189"
textLength="-185.696" font-size="-367.454" lengthAdjust="spacingAndGlyphs"
text-anchor="middle" opacity="0">8</text>
</g>
<path d="M55273 36057
L55288 36083
L55303 36097
L55333 36110
L55348 36110
L55378 36097
L55393 36083
L55408 36057
L55408 36005
L55393 35979
L55378 35965
L55348 35952
L55333 35952
L55303 35965
L55288 35979
L55273 36005
L55273 36057
L55258 36083
L55243 36097
L55213 36110
L55153 36110
L55123 36097
L55108 36083
L55093 36057
L55093 36005
L55108 35979
L55123 35965
L55153 35952
L55213 35952
L55243 35965
L55258 35979
L55273 36005
" />
<g transform="rotate(90 55236.2 35047.2)">
<text x="55236.2" y="35204.7"
textLength="-185.696" font-size="-367.454" lengthAdjust="spacingAndGlyphs"
text-anchor="middle" opacity="0">7</text>
</g>
<path d="M55408 35139
L55408 34955
L55093 35073
" />
<g transform="rotate(90 55236.2 34063)">
<text x="55236.2" y="34220.5"
textLength="-185.696" font-size="-367.454" lengthAdjust="spacingAndGlyphs"
text-anchor="middle" opacity="0">6</text>
</g>
<path d="M55408 34010
L55408 34062
L55393 34089
L55378 34102
L55333 34128
L55273 34141
L55153 34141
L55123 34128
L55108 34115
L55093 34089
L55093 34036
L55108 34010
L55123 33997
L55153 33984
L55228 33984
L55258 33997
L55273 34010
L55288 34036
L55288 34089
L55273 34115
L55258 34128
L55228 34141
" />
<g transform="rotate(90 55237.6 33020.3)">
<text x="55237.6" y="33177.8"
textLength="-185.696" font-size="-367.454" lengthAdjust="spacingAndGlyphs"
text-anchor="middle" opacity="0">5</text>
</g>
<path d="M55410 32954
L55410 33085
L55260 33099
L55275 33085
L55290 33059
L55290 32994
L55275 32967
L55260 32954
L55230 32941
L55155 32941
L55125 32954
L55110 32967
L55095 32994
L55095 33059
L55110 33085
L55125 33099
" />
<g transform="rotate(90 55236.2 32010.3)">
<text x="55236.2" y="32167.8"
textLength="-185.696" font-size="-367.454" lengthAdjust="spacingAndGlyphs"
text-anchor="middle" opacity="0">4</text>
</g>
<path d="M55303 31957
L55093 31957
" />
<path d="M55423 32023
L55198 32089
L55198 31918
" />
<g transform="rotate(90 55236.2 30990.3)">
<text x="55236.2" y="31147.8"
textLength="-185.696" font-size="-367.454" lengthAdjust="spacingAndGlyphs"
text-anchor="middle" opacity="0">3</text>
</g>
<path d="M55408 31082
L55408 30911
L55288 31003
L55288 30964
L55273 30937
L55258 30924
L55228 30911
L55153 30911
L55123 30924
L55108 30937
L55093 30964
L55093 31042
L55108 31069
L55123 31082
" />
<g transform="rotate(90 55237.6 30020.3)">
<text x="55237.6" y="30177.8"
textLength="-185.696" font-size="-367.454" lengthAdjust="spacingAndGlyphs"
text-anchor="middle" opacity="0">2</text>
</g>
<path d="M55380 30099
L55395 30085
L55410 30059
L55410 29994
L55395 29967
L55380 29954
L55350 29941
L55320 29941
L55275 29954
L55095 30112
L55095 29941
" />
<g transform="rotate(90 55237.6 29043.3)">
<text x="55237.6" y="29200.8"
textLength="-185.696" font-size="-367.454" lengthAdjust="spacingAndGlyphs"
text-anchor="middle" opacity="0">1</text>
</g>
<path d="M55095 28964
L55095 29122
" />
<path d="M55095 29043
L55410 29043
L55365 29069
L55335 29095
L55320 29122
" />
<g transform="rotate(90 55237.6 28000.3)">
<text x="55237.6" y="28157.8"
textLength="-684.383" font-size="-367.454" lengthAdjust="spacingAndGlyphs"
text-anchor="middle" opacity="0">3V3</text>
</g>
<path d="M55410 28341
L55410 28170
L55290 28262
L55290 28223
L55275 28197
L55260 28184
L55230 28170
L55155 28170
L55125 28184
L55110 28197
L55095 28223
L55095 28302
L55110 28328
L55125 28341
" />
<path d="M55410 28092
L55095 28000
L55410 27908
" />
<path d="M55410 27842
L55410 27672
L55290 27764
L55290 27724
L55275 27698
L55260 27685
L55230 27672
L55155 27672
L55125 27685
L55110 27698
L55095 27724
L55095 27803
L55110 27829
L55125 27842
" />
<text x="60697.6" y="28927.2"
textLength="-4441.41" font-size="-524.934" lengthAdjust="spacingAndGlyphs"
text-anchor="middle" opacity="0">DESIGNED WITH</text>
<path d="M62862 28908
L62862 28514
L62769 28514
L62713 28533
L62675 28570
L62656 28608
L62638 28683
L62638 28739
L62656 28814
L62675 28852
L62713 28889
L62769 28908
L62862 28908
" />
<path d="M62469 28702
L62338 28702
" />
<path d="M62281 28908
L62469 28908
L62469 28514
L62281 28514
" />
<path d="M62131 28889
L62075 28908
L61981 28908
L61944 28889
L61925 28870
L61906 28833
L61906 28795
L61925 28758
L61944 28739
L61981 28720
L62056 28702
L62094 28683
L62113 28664
L62131 28627
L62131 28589
L62113 28552
L62094 28533
L62056 28514
L61963 28514
L61906 28533
" />
<path d="M61738 28908
L61738 28514
" />
<path d="M61344 28533
L61381 28514
L61438 28514
L61494 28533
L61531 28570
L61550 28608
L61569 28683
L61569 28739
L61550 28814
L61531 28852
L61494 28889
L61438 28908
L61400 28908
L61344 28889
L61325 28870
L61325 28739
L61400 28739
" />
<path d="M61156 28908
L61156 28514
L60931 28908
L60931 28514
" />
<path d="M60744 28702
L60613 28702
" />
<path d="M60557 28908
L60744 28908
L60744 28514
L60557 28514
" />
<path d="M60388 28908
L60388 28514
L60294 28514
L60238 28533
L60200 28570
L60182 28608
L60163 28683
L60163 28739
L60182 28814
L60200 28852
L60238 28889
L60294 28908
L60388 28908
" />
<path d="M59732 28514
L59638 28908
L59563 28627
L59488 28908
L59394 28514
" />
<path d="M59244 28908
L59244 28514
" />
<path d="M59113 28514
L58888 28514
" />
<path d="M59000 28908
L59000 28514
" />
<path d="M58757 28908
L58757 28514
" />
<path d="M58757 28702
L58532 28702
" />
<path d="M58532 28908
L58532 28514
" />
</g>
<g style="fill:#000000; fill-opacity:1.0; 
stroke:#000000; stroke-width:3.93701; stroke-opacity:1; 
stroke-linecap:round; stroke-linejoin:round;">
<path style="fill:#000000; fill-opacity:1.0; 
stroke:#000000; stroke-width:3.93701; stroke-opacity:1; 
stroke-linecap:round; stroke-linejoin:round;fill-rule:evenodd;"
d="M 56885.6,38516.8
57585.6,38516.8
57585.6,37816.8
56885.6,37816.8
Z" /> 
<path style="fill:#000000; fill-opacity:1.0; 
stroke:#000000; stroke-width:3.93701; stroke-opacity:1; 
stroke-linecap:round; stroke-linejoin:round;fill-rule:evenodd;"
d="M 61085.6,38516.8
61785.6,38516.8
61785.6,37816.8
61085.6,37816.8
Z" /> 
<path style="fill:#000000; fill-opacity:1.0; 
stroke:#000000; stroke-width:3.93701; stroke-opacity:1; 
stroke-linecap:round; stroke-linejoin:round;fill-rule:evenodd;"
d="M 57390.7,40388.6
57358.6,40417.7
57352.2,40491.3
57352.2,40500.1
57357.4,40578.3
57386.5,40610.4
57460,40616.8
57468.9,40616.8
57547.1,40622
57579.2,40651.1
57585.5,40724.6
57585.6,40733.5
57590.7,40811.7
57619.8,40843.7
57693.4,40850.1
57702.2,40850.1
57780.4,40845
57812.5,40815.9
57818.9,40742.3
57818.9,40733.5
57813.7,40655.3
57784.6,40623.2
57711.1,40616.8
57702.2,40616.8
57624,40611.6
57592,40582.5
57585.6,40509
57585.6,40500.1
57580.4,40421.9
57551.3,40389.9
57477.8,40383.5
57468.9,40383.5
Z" /> 
<path style="fill:#000000; fill-opacity:1.0; 
stroke:#000000; stroke-width:3.93701; stroke-opacity:1; 
stroke-linecap:round; stroke-linejoin:round;fill-rule:evenodd;"
d="M 57857.4,41555.3
57825.3,41584.4
57818.9,41657.9
57818.9,41666.8
57824.1,41745
57853.2,41777.1
57926.7,41783.4
57935.6,41783.5
58013.8,41778.3
58045.8,41749.2
58052.2,41675.7
58052.2,41666.8
58047.1,41588.6
58018,41556.5
57944.4,41550.1
57935.6,41550.1
Z" /> 
<path style="fill:#000000; fill-opacity:1.0; 
stroke:#000000; stroke-width:3.93701; stroke-opacity:1; 
stroke-linecap:round; stroke-linejoin:round;fill-rule:evenodd;"
d="M 61085.6,42716.8
61785.6,42716.8
61785.6,42016.8
61085.6,42016.8
Z" /> 
<path style="fill:#000000; fill-opacity:1.0; 
stroke:#000000; stroke-width:3.93701; stroke-opacity:1; 
stroke-linecap:round; stroke-linejoin:round;fill-rule:evenodd;"
d="M 56418.9,38983.5
58052.2,38983.5
58052.2,37583.5
57818.9,37583.5
57818.9,38750.1
56652.2,38750.1
56652.2,37583.5
57818.9,37583.5
58052.2,37583.5
58052.2,37350.1
56418.9,37350.1
Z" /> 
<path style="fill:#000000; fill-opacity:1.0; 
stroke:#000000; stroke-width:3.93701; stroke-opacity:1; 
stroke-linecap:round; stroke-linejoin:round;fill-rule:evenodd;"
d="M 60618.9,38983.5
62252.2,38983.5
62252.2,37583.5
62018.9,37583.5
62018.9,38750.1
60852.2,38750.1
60852.2,37583.5
62018.9,37583.5
62252.2,37583.5
62252.2,37350.1
60618.9,37350.1
Z" /> 
<path style="fill:#000000; fill-opacity:1.0; 
stroke:#000000; stroke-width:3.93701; stroke-opacity:1; 
stroke-linecap:round; stroke-linejoin:round;fill-rule:evenodd;"
d="M 58752.2,39216.8
58985.6,39216.8
58985.6,38750.1
58752.2,38750.1
Z" /> 
<path style="fill:#000000; fill-opacity:1.0; 
stroke:#000000; stroke-width:3.93701; stroke-opacity:1; 
stroke-linecap:round; stroke-linejoin:round;fill-rule:evenodd;"
d="M 61785.6,39450.1
61318.9,39450.1
61318.9,39216.8
60618.9,39216.8
60618.9,39333.5
60613.7,39411.7
60584.6,39443.7
60511.1,39450.1
60502.2,39450.1
60424,39455.3
60392,39484.4
60385.6,39557.9
60385.6,39566.8
60390.7,39645
60419.8,39677.1
60493.4,39683.4
60502.2,39683.5
60580.4,39688.6
60612.5,39717.7
60618.9,39791.3
60618.9,39800.1
60613.7,39878.3
60584.6,39910.4
60511.1,39916.8
60502.2,39916.8
60424,39922
60392,39951.1
60385.6,40024.6
60385.6,40033.5
60390.7,40111.7
60419.8,40143.7
60493.4,40150.1
60502.2,40150.1
60580.4,40155.3
60612.5,40184.4
60618.9,40257.9
60618.9,40266.8
60618.9,40383.5
60152.2,40383.5
60152.2,40500.1
60157.4,40578.3
60186.5,40610.4
60260,40616.8
60268.9,40616.8
60347.1,40622
60379.2,40651.1
60385.5,40724.6
60385.6,40733.5
60385.6,40850.1
60852.2,40850.1
60852.2,40966.8
60847.1,41045
60818,41077.1
60744.4,41083.4
60735.6,41083.5
60657.4,41088.6
60625.3,41117.7
60618.9,41191.3
60618.9,41200.1
60618.9,41316.8
61318.9,41316.8
61318.9,41200.1
61324.1,41121.9
61353.2,41089.9
61426.7,41083.5
61435.6,41083.5
61513.8,41078.3
61545.8,41049.2
61552.2,40975.7
61552.2,40966.8
61557.4,40888.6
61586.5,40856.5
61660,40850.1
61668.9,40850.1
61747.1,40845
61779.2,40815.9
61785.5,40742.3
61785.6,40733.5
61785.6,40616.8
62252.2,40616.8
62252.2,40383.5
61552.2,40383.5
61552.2,39916.8
62018.9,39916.8
62018.9,40033.5
62024.1,40111.7
62053.2,40143.7
62126.7,40150.1
62135.6,40150.1
62213.8,40145
62245.8,40115.9
62252.2,40042.3
62252.2,40033.5
62247.1,39955.3
62218,39923.2
62144.4,39916.8
62135.6,39916.8
62057.4,39911.6
62025.3,39882.5
62018.9,39809
62018.9,39800.1
62024.1,39721.9
62053.2,39689.9
62126.7,39683.5
62135.6,39683.5
61552.2,39683.5
61552.2,39800.1
61547.1,39878.3
61518,39910.4
61444.4,39916.8
61435.6,39916.8
61318.9,39916.8
61318.9,40383.5
61435.6,40383.5
61513.8,40388.6
61545.8,40417.7
61552.2,40491.3
61552.2,40500.1
61547.1,40578.3
61518,40610.4
61444.4,40616.8
61435.6,40616.8
61318.9,40616.8
61318.9,41083.5
61202.2,41083.5
61124,41078.3
61092,41049.2
61085.6,40975.7
61085.6,40966.8
61080.4,40888.6
61051.3,40856.5
60977.8,40850.1
60968.9,40850.1
60890.7,40845
60858.6,40815.9
60852.2,40742.3
60852.2,40733.5
60847.1,40655.3
60818,40623.2
60744.4,40616.8
60735.6,40616.8
60657.4,40611.6
60625.3,40582.5
60618.9,40509
60618.9,40500.1
60624.1,40421.9
60653.2,40389.9
60726.7,40383.5
60735.6,40383.5
60813.8,40388.6
60845.8,40417.7
60852.2,40491.3
60852.2,40500.1
60857.4,40578.3
60886.5,40610.4
60960,40616.8
60968.9,40616.8
61085.6,40616.8
61085.6,39916.8
60968.9,39916.8
60890.7,39922
60858.6,39951.1
60852.2,40024.6
60852.2,40033.5
60847.1,40111.7
60818,40143.7
60744.4,40150.1
60735.6,40150.1
60657.4,40145
60625.3,40115.9
60618.9,40042.3
60618.9,40033.5
60624.1,39955.3
60653.2,39923.2
60726.7,39916.8
60735.6,39916.8
60813.8,39911.6
60845.8,39882.5
60852.2,39809
60852.2,39800.1
60847.1,39721.9
60818,39689.9
60744.4,39683.5
60735.6,39683.5
60657.4,39678.3
60625.3,39649.2
60618.9,39575.7
60618.9,39566.8
60618.9,39450.1
61085.6,39450.1
61085.6,39683.5
61552.2,39683.5
62135.6,39683.5
62252.2,39683.5
62252.2,39216.8
61785.6,39216.8
Z" /> 
<path style="fill:#000000; fill-opacity:1.0; 
stroke:#000000; stroke-width:3.93701; stroke-opacity:1; 
stroke-linecap:round; stroke-linejoin:round;fill-rule:evenodd;"
d="M 61785.6,41316.8
62252.2,41316.8
62252.2,41083.5
61785.6,41083.5
Z" /> 
<path style="fill:#000000; fill-opacity:1.0; 
stroke:#000000; stroke-width:3.93701; stroke-opacity:1; 
stroke-linecap:round; stroke-linejoin:round;fill-rule:evenodd;"
d="M 58752.2,42250.1
58518.9,42250.1
58518.9,42716.8
58752.2,42716.8
Z" /> 
<path style="fill:#000000; fill-opacity:1.0; 
stroke:#000000; stroke-width:3.93701; stroke-opacity:1; 
stroke-linecap:round; stroke-linejoin:round;fill-rule:evenodd;"
d="M 58985.6,37700.1
58980.4,37778.3
58951.3,37810.4
58877.8,37816.8
58868.9,37816.8
58790.7,37822
58758.6,37851.1
58752.2,37924.6
58752.2,37933.5
58757.4,38011.7
58786.5,38043.7
58860,38050.1
58868.9,38050.1
58947.1,38055.3
58979.2,38084.4
58985.5,38157.9
58985.6,38166.8
58985.6,38283.5
58518.9,38283.5
58518.9,38166.8
58513.7,38088.6
58484.6,38056.5
58411.1,38050.1
58402.2,38050.1
58285.6,38050.1
58285.6,39216.8
58518.9,39216.8
58518.9,38516.8
58985.6,38516.8
58985.6,38400.1
58990.7,38321.9
59019.8,38289.9
59093.4,38283.5
59102.2,38283.5
59180.4,38288.6
59212.5,38317.7
59218.9,38391.3
59218.9,38400.1
59218.9,38516.8
59685.6,38516.8
59685.6,38983.5
59568.9,38983.5
59490.7,38978.3
59458.6,38949.2
59452.2,38875.7
59452.2,38866.8
59447.1,38788.6
59418,38756.5
59344.4,38750.1
59335.6,38750.1
59257.4,38755.3
59225.3,38784.4
59218.9,38857.9
59218.9,38866.8
59224.1,38945
59253.2,38977.1
59326.7,38983.4
59335.6,38983.5
59413.8,38988.6
59445.8,39017.7
59452.2,39091.3
59452.2,39100.1
59447.1,39178.3
59418,39210.4
59344.4,39216.8
59335.6,39216.8
59257.4,39222
59225.3,39251.1
59218.9,39324.6
59218.9,39333.5
59218.9,39450.1
59335.6,39450.1
59413.8,39445
59445.8,39415.9
59452.2,39342.3
59452.2,39333.5
59457.4,39255.3
59486.5,39223.2
59560,39216.8
59568.9,39216.8
59647.1,39222
59679.2,39251.1
59685.5,39324.6
59685.6,39333.5
59690.7,39411.7
59719.8,39443.7
59793.4,39450.1
59802.2,39450.1
59918.9,39450.1
59918.9,38750.1
60035.6,38750.1
60113.8,38755.3
60145.8,38784.4
60152.2,38857.9
60152.2,38866.8
60157.4,38945
60186.5,38977.1
60260,38983.4
60268.9,38983.5
60385.6,38983.5
60385.6,38516.8
60268.9,38516.8
60190.7,38511.6
60158.6,38482.5
60152.2,38409
60152.2,38400.1
59918.9,38400.1
59913.7,38478.3
59884.6,38510.4
59811.1,38516.8
59802.2,38516.8
59724,38511.6
59692,38482.5
59685.6,38409
59685.6,38400.1
59690.7,38321.9
59719.8,38289.9
59793.4,38283.5
59802.2,38283.5
59880.4,38288.6
59912.5,38317.7
59918.9,38391.3
59918.9,38400.1
60152.2,38400.1
60157.4,38321.9
60186.5,38289.9
60260,38283.5
60268.9,38283.5
60385.6,38283.5
60385.6,37933.5
59918.9,37933.5
59913.7,38011.7
59884.6,38043.7
59811.1,38050.1
59802.2,38050.1
59724,38045
59692,38015.9
59685.6,37942.3
59685.6,37933.5
59218.9,37933.5
59213.7,38011.7
59184.6,38043.7
59111.1,38050.1
59102.2,38050.1
59024,38045
58992,38015.9
58985.6,37942.3
58985.6,37933.5
58990.7,37855.3
59019.8,37823.2
59093.4,37816.8
59102.2,37816.8
59180.4,37822
59212.5,37851.1
59218.9,37924.6
59218.9,37933.5
59685.6,37933.5
59680.4,37855.3
59651.3,37823.2
59577.8,37816.8
59568.9,37816.8
59490.7,37811.6
59458.6,37782.5
59452.2,37709
59452.2,37700.1
59457.4,37621.9
59486.5,37589.9
59560,37583.5
59568.9,37583.5
59647.1,37588.6
59679.2,37617.7
59685.5,37691.3
59685.6,37700.1
59690.7,37778.3
59719.8,37810.4
59793.4,37816.8
59802.2,37816.8
59880.4,37822
59912.5,37851.1
59918.9,37924.6
59918.9,37933.5
60385.6,37933.5
60385.6,37350.1
60268.9,37350.1
60190.7,37355.3
60158.6,37384.4
60152.2,37457.9
60152.2,37466.8
60147.1,37545
60118,37577.1
60044.4,37583.4
60035.6,37583.5
59957.4,37578.3
59925.3,37549.2
59918.9,37475.7
59918.9,37466.8
59918.9,37350.1
59452.2,37350.1
59452.2,37583.5
58985.6,37583.5
Z" /> 
<path style="fill:#000000; fill-opacity:1.0; 
stroke:#000000; stroke-width:3.93701; stroke-opacity:1; 
stroke-linecap:round; stroke-linejoin:round;fill-rule:evenodd;"
d="M 58752.2,43183.5
58985.6,43183.5
58985.6,42716.8
58752.2,42716.8
Z" /> 
<path style="fill:#000000; fill-opacity:1.0; 
stroke:#000000; stroke-width:3.93701; stroke-opacity:1; 
stroke-linecap:round; stroke-linejoin:round;fill-rule:evenodd;"
d="M 58518.9,40850.1
58635.6,40850.1
58713.8,40855.3
58745.8,40884.4
58752.2,40957.9
58752.2,40966.8
58757.4,41045
58786.5,41077.1
58860,41083.4
58868.9,41083.5
58947.1,41078.3
58979.2,41049.2
58985.5,40975.7
58985.6,40966.8
58990.7,40888.6
59019.8,40856.5
59093.4,40850.1
59102.2,40850.1
59218.9,40850.1
59218.9,41316.8
59685.6,41316.8
59685.6,41083.5
60152.2,41083.5
60152.2,40966.8
59685.6,40966.8
59680.4,41045
59651.3,41077.1
59577.8,41083.4
59568.9,41083.5
59490.7,41078.3
59458.6,41049.2
59452.2,40975.7
59452.2,40966.8
59457.4,40888.6
59486.5,40856.5
59560,40850.1
59568.9,40850.1
59647.1,40855.3
59679.2,40884.4
59685.5,40957.9
59685.6,40966.8
60152.2,40966.8
60152.2,40850.1
59685.6,40850.1
59685.6,40733.5
59690.7,40655.3
59719.8,40623.2
59793.4,40616.8
59802.2,40616.8
59880.4,40611.6
59912.5,40582.5
59918.9,40509
59918.9,40500.1
59913.7,40421.9
59884.6,40389.9
59811.1,40383.5
59802.2,40383.5
59685.6,40383.5
59685.6,39916.8
59802.2,39916.8
59880.4,39922
59912.5,39951.1
59918.9,40024.6
59918.9,40033.5
59924.1,40111.7
59953.2,40143.7
60026.7,40150.1
60035.6,40150.1
60152.2,40150.1
60152.2,39683.5
59452.2,39683.5
59452.2,40383.5
59568.9,40383.5
59647.1,40388.6
59679.2,40417.7
59685.5,40491.3
59685.6,40500.1
59680.4,40578.3
59651.3,40610.4
59577.8,40616.8
59568.9,40616.8
59490.7,40622
59458.6,40651.1
59452.2,40724.6
59452.2,40733.5
59447.1,40811.7
59418,40843.7
59344.4,40850.1
59335.6,40850.1
59257.4,40845
59225.3,40815.9
59218.9,40742.3
59218.9,40733.5
59213.7,40655.3
59184.6,40623.2
59111.1,40616.8
59102.2,40616.8
58985.6,40616.8
58985.6,39916.8
58752.2,39916.8
58752.2,40033.5
58747.1,40111.7
58718,40143.7
58644.4,40150.1
58635.6,40150.1
58518.9,40150.1
58518.9,40616.8
58285.6,40616.8
58285.6,39916.8
58752.2,39916.8
58985.6,39916.8
59218.9,39916.8
59218.9,39450.1
58285.6,39450.1
58285.6,39916.8
58168.9,39916.8
58090.7,39911.6
58058.6,39882.5
58052.2,39809
58052.2,39800.1
58047.1,39721.9
58018,39689.9
57944.4,39683.5
57935.6,39683.5
57818.9,39683.5
57818.9,39566.8
57118.9,39566.8
57113.7,39645
57084.6,39677.1
57011.1,39683.4
57002.2,39683.5
56924,39678.3
56892,39649.2
56885.6,39575.7
56885.6,39566.8
56890.7,39488.6
56919.8,39456.5
56993.4,39450.1
57002.2,39450.1
57080.4,39455.3
57112.5,39484.4
57118.9,39557.9
57118.9,39566.8
57818.9,39566.8
57818.9,39216.8
57702.2,39216.8
57624,39222
57592,39251.1
57585.6,39324.6
57585.6,39333.5
57580.4,39411.7
57551.3,39443.7
57477.8,39450.1
57468.9,39450.1
57390.7,39445
57358.6,39415.9
57352.2,39342.3
57352.2,39333.5
57352.2,39216.8
56418.9,39216.8
56418.9,39333.5
56424.1,39411.7
56453.2,39443.7
56526.7,39450.1
56535.6,39450.1
56613.8,39455.3
56645.8,39484.4
56652.2,39557.9
56652.2,39566.8
56657.4,39645
56686.5,39677.1
56760,39683.4
56768.9,39683.5
56847.1,39688.6
56879.2,39717.7
56885.5,39791.3
56885.6,39800.1
56880.4,39878.3
56851.3,39910.4
56777.8,39916.8
56768.9,39916.8
56690.7,39922
56658.6,39951.1
56652.2,40024.6
56652.2,40033.5
56647.1,40111.7
56618,40143.7
56544.4,40150.1
56535.6,40150.1
56457.4,40155.3
56425.3,40184.4
56418.9,40257.9
56418.9,40266.8
56424.1,40345
56453.2,40377.1
56526.7,40383.4
56535.6,40383.5
56613.8,40388.6
56645.8,40417.7
56652.2,40491.3
56652.2,40500.1
56657.4,40578.3
56686.5,40610.4
56760,40616.8
56768.9,40616.8
56847.1,40622
56879.2,40651.1
56885.5,40724.6
56885.6,40733.5
56880.4,40811.7
56851.3,40843.7
56777.8,40850.1
56768.9,40850.1
56690.7,40855.3
56658.6,40884.4
56652.2,40957.9
56652.2,40966.8
56657.4,41045
56686.5,41077.1
56760,41083.4
56768.9,41083.5
56885.6,41083.5
56885.6,41550.1
57002.2,41550.1
57080.4,41555.3
57112.5,41584.4
57118.9,41657.9
57118.9,41666.8
57118.9,41783.5
56418.9,41783.5
56418.9,41900.1
56424.1,41978.3
56453.2,42010.4
56526.7,42016.8
56535.6,42016.8
56613.8,42022
56645.8,42051.1
56652.2,42124.6
56652.2,42133.5
56647.1,42211.7
56618,42243.7
56544.4,42250.1
56535.6,42250.1
56457.4,42255.3
56425.3,42284.4
56418.9,42357.9
56418.9,42366.8
56424.1,42445
56453.2,42477.1
56526.7,42483.4
56535.6,42483.5
56652.2,42483.5
56652.2,42950.1
56535.6,42950.1
56457.4,42955.3
56425.3,42984.4
56418.9,43057.9
56418.9,43066.8
56418.9,43183.5
57118.9,43183.5
57118.9,42950.1
57818.9,42950.1
57818.9,42833.5
57824.1,42755.3
57853.2,42723.2
57926.7,42716.8
57935.6,42716.8
58052.2,42716.8
58052.2,42250.1
57818.9,42250.1
57818.9,42366.8
57813.7,42445
57784.6,42477.1
57711.1,42483.4
57702.2,42483.5
57624,42488.6
57592,42517.7
57585.6,42591.3
57585.6,42600.1
57585.6,42716.8
56885.6,42716.8
56885.6,42483.5
57352.2,42483.5
57352.2,42366.8
57347.1,42288.6
57318,42256.5
57244.4,42250.1
57235.6,42250.1
57157.4,42245
57125.3,42215.9
57118.9,42142.3
57118.9,42133.5
57124.1,42055.3
57153.2,42023.2
57226.7,42016.8
57235.6,42016.8
57313.8,42022
57345.8,42051.1
57352.2,42124.6
57352.2,42133.5
57352.2,42250.1
57818.9,42250.1
58052.2,42250.1
58518.9,42250.1
58518.9,41316.8
58285.6,41316.8
58285.6,42016.8
57585.6,42016.8
57585.6,41433.5
57352.2,41433.5
57347.1,41511.7
57318,41543.7
57244.4,41550.1
57235.6,41550.1
57157.4,41545
57125.3,41515.9
57118.9,41442.3
57118.9,41433.5
57124.1,41355.3
57153.2,41323.2
57226.7,41316.8
57235.6,41316.8
57313.8,41322
57345.8,41351.1
57352.2,41424.6
57352.2,41433.5
57585.6,41433.5
57585.6,41316.8
58285.6,41316.8
58518.9,41316.8
58518.9,41083.5
58285.6,41083.5
58168.9,41083.5
58090.7,41078.3
58058.6,41049.2
58052.2,40975.7
58052.2,40966.8
58047.1,40888.6
58018,40856.5
57944.4,40850.1
57935.6,40850.1
57857.4,40855.3
57825.3,40884.4
57818.9,40957.9
57818.9,40966.8
57818.9,41083.5
57352.2,41083.5
57352.2,40616.8
56885.6,40616.8
56885.6,40383.5
57352.2,40383.5
57352.2,40266.8
57347.1,40188.6
57318,40156.5
57244.4,40150.1
57235.6,40150.1
57157.4,40145
57125.3,40115.9
57118.9,40042.3
57118.9,40033.5
57118.9,39916.8
57585.6,39916.8
57585.6,39800.1
57590.7,39721.9
57619.8,39689.9
57693.4,39683.5
57702.2,39683.5
57818.9,39683.5
57818.9,40383.5
57935.6,40383.5
58013.8,40388.6
58045.8,40417.7
58052.2,40491.3
58052.2,40500.1
58057.4,40578.3
58086.5,40610.4
58160,40616.8
58168.9,40616.8
58285.6,40616.8
58285.6,41083.5
58518.9,41083.5
Z" /> 
<path style="fill:#000000; fill-opacity:1.0; 
stroke:#000000; stroke-width:3.93701; stroke-opacity:1; 
stroke-linecap:round; stroke-linejoin:round;fill-rule:evenodd;"
d="M 58985.6,37350.1
58285.6,37350.1
58285.6,37816.8
58402.2,37816.8
58480.4,37811.6
58512.5,37782.5
58518.9,37709
58518.9,37700.1
58518.9,37583.5
58985.6,37583.5
Z" /> 
<path style="fill:#000000; fill-opacity:1.0; 
stroke:#000000; stroke-width:3.93701; stroke-opacity:1; 
stroke-linecap:round; stroke-linejoin:round;fill-rule:evenodd;"
d="M 58868.9,42250.1
58947.1,42255.3
58979.2,42284.4
58985.5,42357.9
58985.6,42366.8
58990.7,42445
59019.8,42477.1
59093.4,42483.4
59102.2,42483.5
59180.4,42488.6
59212.5,42517.7
59218.9,42591.3
59218.9,42600.1
59224.1,42678.3
59253.2,42710.4
59326.7,42716.8
59335.6,42716.8
59413.8,42722
59445.8,42751.1
59452.2,42824.6
59452.2,42833.5
59457.4,42911.7
59486.5,42943.7
59560,42950.1
59568.9,42950.1
59685.6,42950.1
59685.6,42366.8
59452.2,42366.8
59447.1,42445
59418,42477.1
59344.4,42483.4
59335.6,42483.5
59257.4,42478.3
59225.3,42449.2
59218.9,42375.7
59218.9,42366.8
59224.1,42288.6
59253.2,42256.5
59326.7,42250.1
59335.6,42250.1
59413.8,42255.3
59445.8,42284.4
59452.2,42357.9
59452.2,42366.8
59685.6,42366.8
59685.6,42250.1
59568.9,42250.1
59490.7,42245
59458.6,42215.9
59452.2,42142.3
59452.2,42133.5
59457.4,42055.3
59486.5,42023.2
59560,42016.8
59568.9,42016.8
59647.1,42011.6
59679.2,41982.5
59685.5,41909
59685.6,41900.1
59685.6,41783.5
60152.2,41783.5
60152.2,41900.1
60147.1,41978.3
60118,42010.4
60044.4,42016.8
60035.6,42016.8
59957.4,42022
59925.3,42051.1
59918.9,42124.6
59918.9,42133.5
59918.9,42250.1
60385.6,42250.1
60385.6,41783.5
60268.9,41783.5
60190.7,41778.3
60158.6,41749.2
60152.2,41675.7
60152.2,41666.8
60157.4,41588.6
60186.5,41556.5
60260,41550.1
60268.9,41550.1
60347.1,41545
60379.2,41515.9
60385.5,41442.3
60385.6,41433.5
60385.6,41316.8
59918.9,41316.8
59918.9,41550.1
59452.2,41550.1
59452.2,41666.8
59447.1,41745
59418,41777.1
59344.4,41783.4
59335.6,41783.5
59218.9,41783.5
59218.9,42250.1
58985.6,42250.1
58985.6,41316.8
58752.2,41316.8
58752.2,42250.1
Z" /> 
<path style="fill:#000000; fill-opacity:1.0; 
stroke:#000000; stroke-width:3.93701; stroke-opacity:1; 
stroke-linecap:round; stroke-linejoin:round;fill-rule:evenodd;"
d="M 59918.9,42950.1
60035.6,42950.1
60113.8,42955.3
60145.8,42984.4
60152.2,43057.9
60152.2,43066.8
60157.4,43145
60186.5,43177.1
60260,43183.4
60268.9,43183.5
60385.6,43183.5
60385.6,42716.8
60268.9,42716.8
60190.7,42711.6
60158.6,42682.5
60152.2,42609
60152.2,42600.1
60147.1,42521.9
60118,42489.9
60044.4,42483.5
60035.6,42483.5
59918.9,42483.5
Z" /> 
<path style="fill:#000000; fill-opacity:1.0; 
stroke:#000000; stroke-width:3.93701; stroke-opacity:1; 
stroke-linecap:round; stroke-linejoin:round;fill-rule:evenodd;"
d="M 60618.9,43183.5
62252.2,43183.5
62252.2,41783.5
62018.9,41783.5
62018.9,42950.1
60852.2,42950.1
60852.2,41783.5
62018.9,41783.5
62252.2,41783.5
62252.2,41550.1
60618.9,41550.1
Z" /> 
<path style="fill:#000000; fill-opacity:1.0; 
stroke:#000000; stroke-width:3.93701; stroke-opacity:1; 
stroke-linecap:round; stroke-linejoin:round;fill-rule:evenodd;"
d="M 59028.7,34248.4
58690.4,34249.6
58366.8,34251.7
58065.5,34254.6
57793.8,34258.3
57559.2,34262.8
57369,34268.2
57230.6,34274.4
57154.8,34281
56930.2,34332
56737.6,34412.2
56585.2,34515.8
56481,34636.9
56433.2,34769.7
56431,34805.3
56440.7,34885.7
56478,34957.9
56554.7,35043.4
56576.8,35064.8
56628.4,35114.6
56675,35157.8
56721.7,35194.7
56773.5,35225.9
56835.3,35251.9
56912.1,35273.1
57008.9,35290.2
57130.6,35303.5
57282.3,35313.6
57468.9,35321
57695.4,35326.2
57966.8,35329.6
58288,35331.8
58664.1,35333.2
59100,35334.4
59281,35334.9
59665.1,35335.6
60032.7,35335.3
60377.9,35334.2
60694.7,35332.4
60977.2,35329.8
61219.4,35326.6
61415.4,35322.8
61559.3,35318.4
61645,35313.6
61662.8,35311.3
61814.4,35267.9
61970.4,35201.9
62109.7,35124.1
62210.9,35045.4
62230.2,35023.8
62285.4,34904.7
62294.8,34763.8
62286.6,34733.1
61757.7,34733.1
61752.1,34897.2
61712.7,35006.7
61636.7,35066
61546.4,35080.3
61458.1,35068.4
61397.3,35020.8
61363.9,34972
61358.1,34956.5
61221.5,34956.5
61214.2,35006.1
61196.4,35031.8
61131.6,35066.3
61030.2,35079
60918.7,35070
60823.6,35039.6
60805.1,35028.4
60744.5,34956.5
60740.7,34877.7
60787.2,34806
60803.1,34797
60664.3,34797
60664.3,35080.3
60534.7,35080.3
60412.7,35060.8
60327.5,35017.6
60275.4,34963.6
60272.7,34909.9
60281.2,34888.5
60220.2,34888.5
60205.1,34977.8
60179.8,35015
60098.8,35064.6
59996.4,35079
59901.9,35057.1
59860.1,35025.1
59836.8,34990.5
59855,34980.6
59925.9,34990.8
59936.7,34992.8
60034,35000
60077.1,34981.4
60061.9,34945.5
60061.5,34945.2
59790.1,34945.2
59743.5,35029.7
59677.2,35063.5
59587.6,35074.1
59501.2,35062.5
59444.5,35030
59437.4,35016.9
59441.3,34986.9
59491,34984.8
59525.2,34990.8
59613.2,34997.6
59643.2,34975.6
59633.5,34960.9
59349,34960.9
59322.8,35016.2
59312.2,35027.6
59222.9,35075.7
59120.8,35073.6
59033,35024.2
59012.2,34998.4
58980.3,34922.8
58985.1,34873.7
59002.5,34814.2
59012.3,34721.2
59012.9,34698.2
59018.7,34631.5
58864.3,34631.5
58843.9,34675.3
58801.7,34670
58781,34647
58735.6,34617.8
58676.2,34617.7
58635.1,34643.8
58631,34659.7
58655.6,34706.7
58717.5,34770.2
58747.6,34794.7
58829.7,34872.7
58862.2,34951.1
58864.3,34983.8
58861.4,35041.7
58841.6,35070.2
58788,35077.9
58689.3,35073.7
58591.5,35062.4
58528,35044
58514.3,35030.3
58543.8,35006.4
58607.4,34991.3
57973.9,34991.3
57963.2,35015.7
57905.9,35060.1
57810.1,35080.3
57699.8,35075.4
57599.1,35044.6
57572.1,35028.6
57423,35028.6
57414.4,35046.8
57368.8,35068.4
57285.9,35074.8
57191.7,35068
57111.9,35049.8
57072.5,35022.1
57072.5,35022
57088.2,34992.9
57163.4,34980.8
57193.8,34980.3
57284.8,34969.8
57312.7,34939.4
57277.3,34890.5
57196.8,34835.1
57114.3,34761.1
57073.9,34671.8
57082.8,34587
57098,34563.2
57171,34521.3
57266.5,34519.5
57355.1,34556.4
57378,34577
57410.3,34635.1
57392.7,34664.3
57335.9,34649.3
57329.4,34645.3
57254.8,34617
57191.8,34622.5
57164.3,34659.3
57164.3,34660.9
57190.5,34706.9
57255.8,34763.6
57281,34780.3
57370.7,34857.8
57421,34946.5
57423,35028.6
57572.1,35028.6
57571.7,35028.4
57505.8,34954
57499.4,34875.8
57547.3,34806.4
57644.4,34758.8
57682.4,34750.6
57773.3,34725.3
57798.9,34694.3
57759.3,34664.8
57681,34647
57590.5,34624.2
57558.2,34594.9
57586.1,34567.8
57658.3,34553
57771.5,34562.3
57863.7,34605.6
57918.1,34671.9
57924.7,34724.1
57900,34776.6
57833.8,34813.4
57766.3,34832.7
57656.2,34868.3
57611.6,34905.9
57632.8,34944.4
57701.6,34976.7
57785.1,34997
57841.8,34981.1
57867.7,34960.6
57931.7,34924.8
57972.5,34938.1
57973.9,34991.3
58607.4,34991.3
58616.9,34989
58639.3,34986.6
58719.7,34975.3
58762.3,34960.2
58764.3,34956.5
58741.8,34924.8
58691.4,34872
58356,34872
58340.7,34900.7
58266.7,34912.9
58231,34913.6
58137.7,34906.2
58104.7,34882.8
58106,34872
58145.4,34843.6
58222.7,34830.4
58231,34830.3
58310.4,34841.5
58354.6,34868.9
58356,34872
58691.4,34872
58683.9,34864.2
58631,34813.6
58543.9,34726.8
58505.5,34665.4
58511.1,34614.7
58550,34566
58624.4,34525.9
58714.9,34520.3
58799,34544.4
58854.3,34593.5
58864.3,34631.5
59018.7,34631.5
59020.7,34608.2
59050.7,34560.1
59107.7,34532.5
59211.7,34520.8
59292.1,34558.6
59324.2,34609.9
59315.5,34635
59257.7,34635.3
59217.8,34628.8
59128.7,34626.5
59094,34653.7
59117.4,34696.1
59189.3,34735.2
59281,34769.5
59189.3,34813.6
59123.5,34863.8
59097.6,34919
59121.8,34969.3
59186.6,34976.3
59264.5,34946.9
59326.3,34932.3
59349,34960.9
59633.5,34960.9
59613.9,34931.4
59547.6,34884.7
59460.7,34823.3
59435.5,34774.1
59469.9,34730.1
59495.4,34714.8
59599.7,34682.5
59689.8,34712
59731,34747
59787,34841.6
59790.1,34945.2
60061.5,34945.2
59984.3,34900.5
59982.3,34899.7
59894.4,34845.6
59868.3,34787.2
59905.4,34731.8
59946.3,34708.2
60040.7,34695
60125.9,34731.2
60189.7,34801
60220.2,34888.5
60281.2,34888.5
60287,34873.6
60310,34779
60308.4,34710.4
60318.3,34615.7
60383.6,34547.9
60496.3,34512.6
60589.3,34509.7
60625.7,34515.5
60647.9,34537
60659.4,34587.7
60663.7,34680.8
60664.3,34797
60803.1,34797
60877.4,34755.1
60940.3,34741.4
61014.7,34721
61027.8,34691.4
60982.1,34662.3
60914.3,34647
60821.7,34623.9
60792.1,34594.9
60825.8,34568.2
60909.2,34553.1
61028,34564.3
61115.2,34612.6
61157,34688.2
61157.4,34728.5
61128.8,34780.9
61051.9,34818.5
61004.3,34831.6
60901,34865
60863.3,34901.2
60890.3,34942.5
60944.8,34974.7
61020,35001.3
61082.4,34986
61114.3,34966.7
61183.6,34939.7
61221.5,34956.5
61358.1,34956.5
61311.4,34832.9
61297.8,34702.5
61306.3,34597.8
61327.5,34554
61354.8,34568.3
61381.3,34637.9
61398.9,34744.9
61427.9,34883.2
61478.9,34968
61548,34994.7
61600.7,34978.7
61637.2,34942.2
61659,34871.2
61670.5,34750.2
61671.1,34738.3
61683.9,34612
61704,34550
61726.5,34552.9
61746.4,34620.8
61757.7,34733.1
62286.6,34733.1
62258.4,34627.6
62230.2,34579.2
62134.1,34487.7
61988.3,34402.8
61809.8,34332.5
61615.4,34284.7
61597.6,34281.8
61518.5,34274.7
61380.1,34268.5
61189.9,34263.1
60955.2,34258.6
60683.5,34254.8
60382.2,34251.9
60058.6,34249.8
59720.3,34248.5
59374.5,34248.1
Z" /> 
<path style="fill:#000000; fill-opacity:1.0; 
stroke:#000000; stroke-width:3.93701; stroke-opacity:1; 
stroke-linecap:round; stroke-linejoin:round;fill-rule:evenodd;"
d="M 60397.6,34880.8
60364.4,34912.2
60391,34942
60397.6,34946.5
60478.8,34978.8
60540.3,34966.5
60564.3,34913.6
60539.8,34860.5
60478,34848.6
Z" /> 
<path style="fill:#000000; fill-opacity:1.0; 
stroke:#000000; stroke-width:3.93701; stroke-opacity:1; 
stroke-linecap:round; stroke-linejoin:round;fill-rule:evenodd;"
d="M 60448.9,34625.3
60409.5,34679.6
60428.1,34726.4
60497,34747
60499.6,34747
60550.6,34726.4
60564.3,34663.6
60553.7,34596.6
60516.2,34586
Z" /> 
<path style="fill:#000000; fill-opacity:1.0; 
stroke:#000000; stroke-width:3.93701; stroke-opacity:1; 
stroke-linecap:round; stroke-linejoin:round;fill-rule:evenodd;"
d="M 60009,34800.9
60014.3,34813.6
60058.5,34845.7
60068.2,34847
60086.3,34826.4
60081,34813.6
60036.8,34781.6
60027,34780.3
Z" /> 
<path style="fill:#000000; fill-opacity:1.0; 
stroke:#000000; stroke-width:3.93701; stroke-opacity:1; 
stroke-linecap:round; stroke-linejoin:round;fill-rule:evenodd;"
d="M 59577.4,34797
59581,34813.6
59629.1,34844
59651.6,34847
59684.5,34830.3
59681,34813.6
59632.9,34783.3
59610.4,34780.3
Z" /> 
<path style="fill:#000000; fill-opacity:1.0; 
stroke:#000000; stroke-width:3.93701; stroke-opacity:1; 
stroke-linecap:round; stroke-linejoin:round;fill-rule:evenodd;"
d="M 57549.1,28358.7
57538.7,28363.9
57525.8,28372.9
57516.4,28382.7
57510,28395
57506,28411.5
57503.9,28433.9
57503.1,28463.9
57503.1,28476.7
57503.2,28505
57503.8,28525.2
57504.9,28539.1
57506.9,28548.7
57510.1,28555.8
57513.3,28560.6
57533.9,28581.1
57558.2,28593.4
57584.5,28597.1
57610.8,28591.7
57619.2,28587.9
57639.2,28577.5
57639.2,28741
57624.6,28733.4
57605.4,28727.6
57581.7,28726.1
57558.1,28728.8
57540.3,28735
57525.5,28746.9
57512.8,28763.8
57511.9,28765.5
57507.9,28773.7
57504.9,28782
57502.9,28791.9
57501.6,28805.4
57500.9,28823.9
57500.7,28849.2
57500.6,28877.6
57500.6,28968.4
57555.1,28968.4
57555.1,28801
57570.3,28788.2
57586.1,28777.9
57601.1,28776.1
57616.2,28780.9
57624.2,28785.6
57630.2,28792.2
57634.4,28802.4
57637.3,28817.3
57639.1,28838.6
57640.1,28867.5
57640.5,28886.8
57641.7,28966
57667.7,28967.5
57693.7,28969
57693.7,28477.4
57639.2,28477.4
57637.8,28504.8
57633.2,28523.8
57624.4,28535.7
57610.8,28541.5
57597.1,28542.7
57581.6,28541.3
57571.3,28536.1
57564.9,28529.1
57559.8,28521.6
57556.8,28513.2
57555.5,28501.5
57555.4,28484
57555.9,28469.2
57556.9,28447.1
57558.4,28432.5
57561,28423.3
57565.3,28417.1
57569.2,28413.5
57585.8,28405.7
57605.4,28404.5
57616.7,28407.2
57627.9,28416.7
57635.3,28435.3
57638.9,28462.8
57639.2,28477.4
57693.7,28477.4
57693.7,28354.6
57666.4,28354.6
57650.1,28355.2
57641.7,28357.5
57639.2,28362
57639.2,28362.1
57638.1,28366.5
57633.1,28366
57623.1,28361.2
57599.9,28353.8
57573.9,28353
Z" /> 
<path style="fill:#000000; fill-opacity:1.0; 
stroke:#000000; stroke-width:3.93701; stroke-opacity:1; 
stroke-linecap:round; stroke-linejoin:round;fill-rule:evenodd;"
d="M 57342.6,28727.8
57319.3,28734
57301.6,28745.3
57289.1,28760
57285.2,28766.3
57282.3,28772.9
57280.3,28781.3
57279,28793.2
57278.3,28809.9
57277.9,28833.1
57277.8,28864.3
57277.8,28872.6
57277.8,28968.4
57301.6,28968.4
57316.8,28967.4
57328,28964.7
57330.8,28963
57338.4,28960.2
57346.3,28963
57359.2,28966.6
57377.9,28968
57398.7,28967.4
57417.7,28964.8
57428.8,28961.4
57450.3,28947.7
57463.7,28928.5
57469.7,28903.1
57469.8,28902.5
57469.3,28891.2
57421.4,28891.2
57417.2,28904
57410.4,28911.2
57396.7,28916.7
57378.7,28918.9
57360.2,28917.8
57345.5,28913.5
57341.3,28910.7
57334.1,28898
57332.3,28883.5
57332.3,28864.5
57359.7,28864.5
57385.7,28866.5
57405.4,28872.2
57417.7,28881
57421.4,28891.2
57469.3,28891.2
57468.5,28874.7
57459.3,28852.7
57442.1,28836.1
57439.7,28834.6
57429.5,28829.6
57416.8,28826.7
57399.1,28825.2
57378.1,28824.9
57332.3,28824.9
57332.3,28805.7
57334.2,28790.8
57339.2,28780.8
57339.8,28780.3
57350.8,28775.9
57367.5,28774.2
57385.9,28775
57402.1,28778.3
57411.8,28783.1
57417,28786.9
57422.6,28787.6
57430.2,28784.5
57441.7,28776.7
57459,28763.4
57460.6,28762.2
57459.7,28757.6
57453,28749.9
57442.7,28741.4
57431.3,28734.3
57427.7,28732.6
57414.7,28729.2
57395.6,28726.8
57374.3,28725.9
57373.3,28725.9
Z" /> 
<path style="fill:#000000; fill-opacity:1.0; 
stroke:#000000; stroke-width:3.93701; stroke-opacity:1; 
stroke-linecap:round; stroke-linejoin:round;fill-rule:evenodd;"
d="M 57188.7,28726.4
57181.3,28728.6
57178.9,28733.5
57178.8,28735.7
57178.4,28741.8
57175.4,28742.8
57167.5,28738.6
57162.7,28735.7
57147.8,28729.6
57129.9,28726.5
57111.2,28726.3
57093.7,28728.5
57079.4,28733
57070.3,28739.4
57068.5,28747.4
57069.4,28749.5
57076,28758.5
57086.2,28769.5
57088.1,28771.3
57097.8,28779.5
57106.2,28782.2
57117.9,28780.3
57122.6,28779.1
57137.3,28776.1
57147.6,28777.5
57156.3,28782.2
57164.2,28788.4
57170.1,28796.3
57174.2,28807.4
57176.8,28823
57178.2,28844.8
57178.8,28874.2
57178.8,28892
57178.8,28968.4
57228.3,28968.4
57228.3,28725.9
57203.6,28725.9
Z" /> 
<path style="fill:#000000; fill-opacity:1.0; 
stroke:#000000; stroke-width:3.93701; stroke-opacity:1; 
stroke-linecap:round; stroke-linejoin:round;fill-rule:evenodd;"
d="M 56876.8,28968.4
56904.1,28968.4
56919.9,28968
56928.1,28966.1
56931.1,28961.9
56931.3,28959.1
56931.8,28953.4
56935,28952.3
56943.2,28955.8
56949.7,28959.1
56974.4,28966.8
57001.3,28967.2
57023.1,28961.5
57043.5,28947.6
57059,28927.1
57067.5,28902.9
57067.7,28901.6
57069,28886.8
57069.6,28865.7
57069.5,28849.7
57015.5,28849.7
57014.2,28870.9
57011.4,28888.5
57007.5,28898.4
56992.9,28911.9
56975.6,28916.8
56957.7,28912.8
56942.4,28901.1
56936.7,28893.3
56933.3,28883.9
56931.7,28870.2
56931.3,28849.6
56932,28829.2
56933.8,28811.3
56936.5,28799.3
56936.9,28798.2
56947.4,28785.4
56962.8,28778.4
56980,28777.3
56996.1,28782.2
57007.9,28793.1
57009.1,28795.3
57013,28808.7
57015.1,28827.8
57015.5,28849.7
57069.5,28849.7
57069.5,28841.6
57069.2,28828.6
57066.7,28796.4
57061.7,28772.3
57053.3,28754.5
57040.9,28741.3
57028.8,28733.5
57012,28728
56991,28726.1
56969.5,28727.7
56951.1,28732.4
56941.4,28738.1
56931.3,28747.2
56931.3,28631.8
56876.8,28631.8
Z" /> 
<path style="fill:#000000; fill-opacity:1.0; 
stroke:#000000; stroke-width:3.93701; stroke-opacity:1; 
stroke-linecap:round; stroke-linejoin:round;fill-rule:evenodd;"
d="M 56686.8,28726.9
56667.2,28728.3
56616,28881.8
56608,28854.6
56603.2,28837.7
56596.8,28815
56590,28790
56586.3,28776.6
56572.7,28725.9
56516.4,28725.9
56533.2,28779.1
56541.5,28805.3
56551.5,28836.8
56562,28869.8
56571.3,28899.1
56592.6,28966
56615.5,28967.5
56638.5,28968.9
56650.9,28927.8
56658.6,28902.3
56667,28874.2
56674.3,28849.3
56674.6,28848.3
56680,28831.5
56684.9,28820
56688.2,28815.6
56688.9,28816.1
56691.4,28822.9
56696,28837.3
56702.3,28857.6
56709.6,28882
56713.6,28895.4
56735,28968.4
56780.6,28968.4
56817,28853.3
56827.3,28821
56836.6,28791.7
56844.6,28766.7
56850.7,28747.5
56854.7,28735.3
56855.9,28731.8
56854.9,28728.1
56847.5,28726.6
56832,28726.7
56829.5,28726.8
56800.8,28728.3
56781.9,28797.6
56775,28822.9
56768.8,28845.1
56763.9,28862.4
56760.8,28872.7
56760.2,28874.4
56757.9,28872.4
56753.1,28862.4
56746.5,28845.7
56738.6,28823.6
56731.9,28803.6
56706.4,28725.4
Z" /> 
<path style="fill:#000000; fill-opacity:1.0; 
stroke:#000000; stroke-width:3.93701; stroke-opacity:1; 
stroke-linecap:round; stroke-linejoin:round;fill-rule:evenodd;"
d="M 56388.8,28727.3
56367.9,28732.4
56361.9,28735.1
56350.2,28742.1
56341.3,28750
56334.6,28760.2
56329.9,28774
56326.8,28792.9
56324.8,28818.1
56323.7,28851.1
56323.2,28873.1
56321.6,28968.4
56349.2,28968.4
56366,28967.7
56374.6,28965.3
56376.8,28961.3
56378,28956.9
56383.3,28957.8
56390.5,28961.3
56408.4,28966.6
56431.5,28968.1
56455.8,28965.7
56477.3,28959.7
56479.2,28958.8
56498.9,28945
56511.9,28925.8
56517.9,28903.3
56517.4,28895.2
56468.7,28895.2
56464.4,28906.1
56451.7,28913.9
56431.1,28918
56420.2,28918.6
56401.9,28917.2
56389.7,28911.7
56386.7,28909
56378.7,28894.8
56376.8,28881.8
56376.8,28864.5
56401,28864.5
56429,28865.9
56448.7,28870.4
56461.1,28878.3
56463.9,28881.8
56468.7,28895.2
56517.4,28895.2
56516.5,28879.7
56507.6,28857.2
56495.4,28842
56488,28835.4
56480.8,28831.1
56471.4,28828.4
56457.5,28826.9
56436.7,28825.9
56428.5,28825.7
56376.8,28824
56376.9,28808.3
56378.9,28791.9
56386.2,28782
56400.8,28775.6
56401.2,28775.5
56421.9,28773
56442.2,28776.3
56457.2,28784.2
56463.3,28788.1
56469.8,28787.6
56479.8,28781.9
56485.7,28777.9
56497.2,28769.3
56504.3,28762.9
56505.5,28761.1
56500.8,28751.6
56486.9,28740.2
56480.8,28736.4
56463.4,28729.8
56440,28726.1
56414,28725.2
Z" /> 
<path style="fill:#000000; fill-opacity:1.0; 
stroke:#000000; stroke-width:3.93701; stroke-opacity:1; 
stroke-linecap:round; stroke-linejoin:round;fill-rule:evenodd;"
d="M 56153.8,28725.8
56134.8,28729.5
56124,28735.1
56112.6,28744.3
56128.8,28764.8
56138.8,28777.2
56145.6,28783.2
56152.3,28784.2
56162.2,28781.2
56166.8,28779.5
56185.7,28777
56203,28782.3
56215.7,28794.4
56217.8,28798.2
56220,28808.4
56221.8,28827.1
56222.9,28853.1
56223.4,28884.9
56223.4,28889.5
56223.4,28968.4
56277.8,28968.4
56277.8,28725.9
56250.6,28725.9
56234.9,28726.3
56226.7,28728.1
56223.7,28732.2
56223.4,28736.1
56223.4,28746.4
56210.3,28736.1
56195.4,28729.1
56175.3,28725.7
Z" /> 
<path style="fill:#000000; fill-opacity:1.0; 
stroke:#000000; stroke-width:3.93701; stroke-opacity:1; 
stroke-linecap:round; stroke-linejoin:round;fill-rule:evenodd;"
d="M 55997.4,28727.2
55973.7,28733.3
55953.9,28746
55944.3,28755.5
55928.6,28777.9
55919.6,28803.9
55916.5,28835.9
55916.5,28838.5
55916.4,28864.5
56066,28864.5
56062.8,28878.1
56057.1,28890.4
56047,28903.3
56044.9,28905.3
56026.8,28916.4
56006.1,28918.3
55982.4,28911
55978.3,28909
55966,28903
55957.7,28899.6
55956.2,28899.3
55951.2,28902.4
55941.6,28909.9
55936.7,28914
55926.6,28923.4
55923.3,28929.6
55925.6,28935.3
55926.8,28936.8
55935.1,28943.7
55948.9,28952
55958.5,28956.8
55985.8,28965.3
56016,28968.1
56044.6,28964.8
56052.6,28962.5
56077.4,28949.2
56095.7,28928.8
56107.8,28901
56113.7,28865.6
56114.3,28847.1
56112.4,28820.2
56065,28820.2
56060.4,28822.2
56048,28823.8
56030.1,28824.7
56017.9,28824.9
55996.1,28824.7
55982.3,28824
55974.7,28822.4
55971.5,28819.4
55970.9,28815
55975.1,28801.7
55985.8,28788.6
55999.9,28778.5
56014,28774.3
56033.1,28778
56049.6,28788.6
56061,28803.9
56065,28820.2
56112.4,28820.2
56111.6,28808
56103.1,28776.8
56088.8,28753.3
56068.4,28737.2
56041.7,28728.4
56027.3,28726.7
Z" /> 
<path style="fill:#000000; fill-opacity:1.0; 
stroke:#000000; stroke-width:3.93701; stroke-opacity:1; 
stroke-linecap:round; stroke-linejoin:round;fill-rule:evenodd;"
d="M 57797,28357.1
57771.1,28368.6
57751.4,28387.7
57737.9,28414.5
57730.7,28449.1
57730.2,28454.5
57729.7,28492.5
57735,28525.8
57745.7,28552.8
57751.4,28561.5
57771.3,28579.9
57796.7,28591.8
57825.1,28596.8
57854,28594.3
57876,28586.5
57894.9,28573.5
57910.4,28556.4
57910.7,28556
57916.9,28545.4
57921,28534.8
57923.5,28521.4
57924.9,28502.5
57925.6,28487
57925.9,28472.9
57876.4,28472.9
57875.9,28486.9
57874.1,28505.5
57871,28517.5
57865.4,28526
57860.2,28531
57841.7,28541.4
57822.2,28542.8
57804.2,28535.3
57795.1,28526.9
57788.6,28518.4
57784.8,28510.4
57783.1,28499.8
57783,28484.1
57783.6,28469.5
57784.7,28448.8
57786.4,28435.3
57789.6,28426.6
57794.9,28419.9
57799.2,28416
57816.8,28406
57835.9,28405.5
57851.9,28411.4
57865.6,28423.9
57873.7,28444.3
57876.4,28472.9
57925.9,28472.9
57926.2,28456.1
57925.2,28433.1
57922.2,28415.8
57916.8,28402.1
57908.6,28390
57905.6,28386.4
57886.6,28368.5
57866.2,28358.1
57841.3,28353.7
57829.1,28353.3
Z" /> 
<path style="fill:#000000; fill-opacity:1.0; 
stroke:#000000; stroke-width:3.93701; stroke-opacity:1; 
stroke-linecap:round; stroke-linejoin:round;fill-rule:evenodd;"
d="M 57331.8,28360.1
57326.8,28362.4
57309.8,28374.9
57293.6,28393.2
57281.6,28413.3
57278.1,28422.5
57275,28439
57273.1,28459
57272.9,28467.2
57272.9,28493.2
57422.5,28493.2
57419.3,28506.8
57411.5,28522.9
57397.8,28536.8
57381.5,28545.8
57371.1,28547.6
57357.1,28545.4
57340.3,28539.7
57334.6,28537.1
57313.5,28526.6
57295.5,28540.3
57285.1,28549.6
57279.6,28557.3
57279.3,28559.5
57284.2,28565
57295.1,28573.2
57304.9,28579.7
57331.4,28591.3
57361.1,28596.6
57390.5,28595.2
57414,28588.1
57438.2,28572.7
57455.4,28552.6
57466.1,28526.5
57471,28493.5
57471.4,28478.3
57469.7,28443.6
57469.5,28442.6
57419.9,28442.6
57418.5,28445.9
57412.9,28447.7
57401.4,28448.5
57382.1,28448.6
57374.7,28448.6
57352.2,28448.4
57337.9,28447.4
57330.2,28445.5
57327.4,28442.3
57327.3,28441.3
57330.4,28433.2
57338.2,28422
57341.6,28418
57354,28406.9
57366.9,28402.5
57373.9,28402.1
57392.7,28406.7
57408.5,28419
57418.6,28436.9
57418.8,28437.5
57419.9,28442.6
57469.5,28442.6
57463.9,28416.3
57453.6,28394.5
57440.9,28379
57417.4,28362.2
57389.8,28353.2
57360.5,28352.4
Z" /> 
<path style="fill:#000000; fill-opacity:1.0; 
stroke:#000000; stroke-width:3.93701; stroke-opacity:1; 
stroke-linecap:round; stroke-linejoin:round;fill-rule:evenodd;"
d="M 56792.1,28353.7
56773.4,28357.3
56753.9,28364.7
56751.8,28365.7
56737.1,28373.4
56726.9,28380.6
56723.6,28385.2
56726.7,28392.8
56734.4,28403.9
56737.8,28408
56751.7,28424.3
56769.7,28413.7
56786.9,28406.6
56806.7,28402.9
56825.7,28402.6
56840.4,28406.2
56843.9,28408.4
56850.6,28418.6
56851.4,28430.3
56846.4,28439.4
56843.4,28441.2
56834.5,28443.4
56818.9,28446
56799.5,28448.5
56796,28448.9
56765,28454.3
56742.5,28463.4
56727.5,28477.1
56719.3,28496.2
56716.7,28519.6
56720.2,28546.1
56731.8,28567
56751.5,28582.2
56779.2,28591.8
56810,28595.5
56835.1,28595.5
56855.5,28592.1
56869.4,28587.3
56887,28579.1
56903.2,28569.5
56909,28565.3
56923.9,28553.2
56906,28535.1
56888.1,28516.9
56867.7,28530.4
56847.3,28540.5
56825.5,28545.8
56804.5,28546.4
56786.6,28542.3
56774,28533.7
56769.9,28526.4
56770.6,28514.7
56780.7,28505.8
56800.2,28499.6
56821.6,28496.7
56854.6,28491.3
56879.1,28481
56895.5,28465.6
56904,28444.8
56905.2,28420.1
56899.3,28394.3
56886,28374.9
56865.2,28361.6
56836.6,28354.4
56815.4,28353
Z" /> 
<path style="fill:#000000; fill-opacity:1.0; 
stroke:#000000; stroke-width:3.93701; stroke-opacity:1; 
stroke-linecap:round; stroke-linejoin:round;fill-rule:evenodd;"
d="M 56557.2,28357.5
56532.1,28371.1
56512.5,28392.7
56503.3,28410.2
56499.4,28425.6
56496.8,28447.7
56495.7,28473.1
56496.1,28498.6
56498.2,28521
56500.6,28533
56508.7,28549.3
56522.7,28566.7
56539.5,28581.9
56556.2,28591.7
56556.6,28591.9
56577.3,28596.2
56601.9,28596.3
56625.2,28592.4
56634.2,28589.3
56657.4,28576.1
56674.1,28558.9
56685,28536
56691.1,28506.1
56692.5,28490.5
56692.3,28470.8
56639.2,28470.8
56637.4,28499.5
56632.3,28521.4
56624.1,28535.4
56618.3,28539.4
56603.4,28542.2
56585.6,28541.3
56570.3,28537.3
56566.3,28535.1
56555.6,28522.3
56548.6,28502.6
56545.7,28478.6
56547.1,28453
56550.4,28437.5
56559.7,28419.6
56574.5,28408.4
56592.2,28404.6
56610.6,28408.6
56624.8,28418.5
56632.2,28426.7
56636.5,28434.8
56638.6,28445.7
56639.2,28462.5
56639.2,28470.8
56692.3,28470.8
56692.1,28448.7
56685.3,28414.4
56672,28387.6
56652.4,28368.4
56626.2,28356.7
56620.6,28355.3
56586.9,28352.1
Z" /> 
<path style="fill:#000000; fill-opacity:1.0; 
stroke:#000000; stroke-width:3.93701; stroke-opacity:1; 
stroke-linecap:round; stroke-linejoin:round;fill-rule:evenodd;"
d="M 56406.5,28431.6
56406.1,28467.9
56404.4,28495.5
56401,28515.5
56395.4,28529
56387.2,28537.3
56375.9,28541.3
56362,28542.4
56347.4,28541.2
56336.3,28537
56328.3,28528.5
56322.8,28514.6
56319.5,28494.3
56317.9,28466.3
56317.4,28431.6
56317.4,28354.6
56263,28354.6
56263,28592.2
56290.2,28592.2
56306.6,28591.5
56315.1,28589.2
56317.4,28584.8
56318.9,28580.8
56324.5,28581.6
56335.9,28587.2
56362.1,28595.9
56389.8,28595.2
56416.4,28585.9
56429,28578.5
56438.7,28570.5
56445.7,28560.5
56450.6,28547
56453.7,28528.8
56455.3,28504.3
56456,28472.3
56456.1,28447.5
56456.1,28354.6
56406.5,28354.6
Z" /> 
<path style="fill:#000000; fill-opacity:1.0; 
stroke:#000000; stroke-width:3.93701; stroke-opacity:1; 
stroke-linecap:round; stroke-linejoin:round;fill-rule:evenodd;"
d="M 55924.7,28356.6
55896,28368.8
55887,28374.8
55875.5,28383.9
55868.2,28391
55866.9,28393.4
55870.5,28398.6
55879.6,28407.3
55886.9,28413.5
55906.8,28429.5
55922.5,28416.3
55934.7,28407.7
55946.6,28404.8
55960.1,28405.5
55981.7,28410.8
55996.5,28422
56005.5,28439.9
56009.6,28465.9
56009.6,28465.9
56009.3,28494.9
56003.8,28516.1
55992.8,28530.6
55985.3,28535.5
55965.4,28541.6
55944.2,28541.6
55925.8,28535.7
55921.4,28532.8
55910.4,28525.4
55901.9,28524.2
55892.6,28529.7
55882.4,28539.6
55866.3,28556.3
55884.2,28571
55911.9,28587.7
55943.2,28596
55975.9,28595.4
55997.4,28589.9
56022.5,28576.4
56042.5,28555.2
56051.6,28540.2
56059,28518.7
56062.7,28491.5
56062.7,28462
56059.1,28433.6
56051.9,28409.9
56050.8,28407.5
56033.9,28383.6
56011,28366.2
55984,28355.7
55954.6,28352.4
Z" /> 
<path style="fill:#000000; fill-opacity:1.0; 
stroke:#000000; stroke-width:3.93701; stroke-opacity:1; 
stroke-linecap:round; stroke-linejoin:round;fill-rule:evenodd;"
d="M 55743.3,28353.7
55730.7,28356.8
55706.4,28368.1
55685.6,28385.3
55671.2,28406
55669.2,28410.6
55666.5,28422.7
55664.6,28440.7
55664,28458.9
55664,28493.2
55735.8,28493.2
55765.4,28493.3
55786.2,28494
55799.5,28495.7
55806.3,28499.1
55807.8,28504.6
55805.2,28512.7
55800.5,28522.2
55787.4,28538
55769.1,28545.9
55746.9,28545.6
55721.6,28537
55699.8,28526.5
55681.7,28540.8
55663.6,28555.1
55680.7,28570.8
55703.4,28585.7
55731.3,28594.6
55761.4,28597.1
55790.5,28592.6
55795.2,28591.1
55820.7,28577.8
55839.7,28557.9
55852.6,28530.8
55859.7,28496.1
55859.8,28495.3
55860.4,28457.4
55857.8,28443.9
55807.5,28443.9
55802.9,28446
55790.4,28447.6
55771.9,28448.5
55760.2,28448.6
55738.3,28448.5
55724.7,28448
55717.5,28446.6
55715.1,28443.8
55715.7,28439.2
55716.2,28437.5
55725,28421
55739,28407.7
55751.3,28401.9
55767.6,28402.2
55784.1,28409.5
55798,28421.6
55806.4,28436.2
55807.5,28443.9
55857.8,28443.9
55854.1,28424.1
55841.5,28396.1
55823.3,28374.3
55800.5,28359.5
55773.6,28352.3
Z" /> 
<path style="fill:#000000; fill-opacity:1.0; 
stroke:#000000; stroke-width:3.93701; stroke-opacity:1; 
stroke-linecap:round; stroke-linejoin:round;fill-rule:evenodd;"
d="M 57094.5,28358.7
57082.2,28364.5
57070.2,28373
57061.1,28382.8
57054.5,28395.3
57050,28411.9
57047.2,28434
57045.8,28463
57045.3,28500.4
57045.3,28504.3
57045.2,28592.2
57099.6,28592.2
57099.6,28511.2
57099.7,28481.2
57099.9,28459.4
57100.7,28444.3
57102.1,28434.1
57104.4,28427.3
57107.8,28422.2
57112.7,28417.1
57129.5,28406.2
57148,28404.2
57165.5,28411.1
57171.6,28416.2
57176.1,28421
57179.3,28426.2
57181.5,28433.3
57182.8,28444
57183.5,28459.9
57183.7,28482.6
57183.8,28510.3
57183.8,28592.2
57238.2,28592.2
57238.2,28354.6
57211,28354.6
57194.7,28355.2
57186.2,28357.5
57183.8,28362
57183.8,28362.1
57182.6,28366.5
57177.6,28366
57167.7,28361.2
57145.1,28354.1
57119.3,28353.3
Z" /> 
<path style="fill:#000000; fill-opacity:1.0; 
stroke:#000000; stroke-width:3.93701; stroke-opacity:1; 
stroke-linecap:round; stroke-linejoin:round;fill-rule:evenodd;"
d="M 56089.2,28354.3
56072.2,28359.5
56061.2,28366.1
56057.6,28371.3
56058.6,28377.5
56065,28387.2
56070.4,28394
56081.5,28406.4
56089.9,28411.6
56097,28411.3
56118.1,28405.9
56133.6,28406.2
56146.2,28412.2
56150.4,28415.8
56164,28428.4
56164,28592.2
56218.4,28592.2
56218.4,28354.6
56191.2,28354.6
56174.9,28355.2
56166.4,28357.5
56164,28362
56164,28362.1
56162.8,28366.8
56157.6,28366.2
56150.4,28362.8
56135.4,28356.5
56123.3,28352.7
56107.7,28351.8
Z" /> 
<path style="fill:#000000; fill-opacity:1.0; 
stroke:#000000; stroke-width:3.93701; stroke-opacity:1; 
stroke-linecap:round; stroke-linejoin:round;fill-rule:evenodd;"
d="M 56649.2,26713.4
56626.8,26832.1
56461.7,26900.2
56362.6,26832.8
56334.9,26814.1
56309.8,26797.3
56288.5,26783.4
56272.3,26772.9
56262.2,26766.8
56259.5,26765.5
56254.6,26768.9
56244,26778.3
56229,26792.5
56210.8,26810.3
56190.5,26830.5
56169.3,26851.9
56148.5,26873.2
56129.1,26893.4
56112.3,26911.2
56099.4,26925.4
56091.6,26934.7
56089.7,26937.9
56092.4,26943.6
56100,26956.3
56111.6,26974.6
56126.6,26997.3
56144,27023.2
56154.1,27037.9
56172.5,27064.9
56188.8,27089.2
56202.3,27109.7
56212.2,27125.1
56217.6,27134.2
56218.4,27136.2
56216.6,27141.6
56211.5,27154.4
56204,27172.6
56194.9,27194.6
56184.8,27218.4
56174.6,27242.4
56165,27264.6
56156.7,27283.4
56150.7,27296.9
56147.5,27303.4
56147.3,27303.6
56142.2,27304.9
56128.9,27307.6
56108.5,27311.6
56082.6,27316.6
56052.5,27322.2
56034.9,27325.5
56002.7,27331.6
55973.7,27337.5
55949.2,27342.7
55930.8,27347
55919.9,27350
55917.7,27351
55915.5,27357.5
55913.8,27372.1
55912.5,27393.3
55911.6,27419.1
55911.1,27448
55911,27478.3
55911.3,27508.1
55912.1,27535.8
55913.2,27559.6
55914.7,27578
55916.7,27589
55917.9,27591.3
55924.8,27594.1
55939.6,27598
55960.3,27602.7
55984.8,27607.6
55993.3,27609.2
56034.6,27616.7
56067.3,27622.8
56092.3,27627.7
56110.8,27631.6
56123.8,27634.7
56132.5,27637.3
56137.9,27639.7
56141.1,27642
56141.6,27642.5
56146.1,27649.9
56152.9,27664.4
56161.4,27684.2
56170.9,27707.5
56180.7,27732.5
56190.1,27757.5
56198.5,27780.6
56205.1,27800.1
56209.3,27814.2
56210.4,27821.2
56210.3,27821.5
56206.6,27827.2
56198.1,27839.7
56185.8,27857.8
56170.5,27880.1
56153.2,27905.4
56148.3,27912.5
56130.7,27938.5
56115.2,27962.3
56102.7,27982.4
56094,27997.5
56089.9,28006.2
56089.7,28007.3
56093.1,28012.9
56102.6,28024
56116.9,28039.5
56134.9,28058.1
56155.2,28078.7
56176.7,28099.9
56198.1,28120.7
56218.3,28139.9
56236,28156.1
56250,28168.3
56259.1,28175.2
56261.6,28176.4
56267.4,28173.7
56279.4,28166.5
56295.6,28156
56308,28147.6
56330.5,28132.1
56357.2,28113.8
56383.9,28095.6
56398.3,28085.9
56446.9,28053
56487.8,28075.1
56506.4,28084.7
56522.2,28092.3
56532.9,28096.5
56535.7,28097.1
56538.9,28092.7
56545.4,28080.3
56554.6,28060.9
56566,28035.8
56579.1,28006.1
56593.5,27973
56608.7,27937.5
56624.1,27900.9
56639.4,27864.3
56654,27828.8
56667.4,27795.6
56679.2,27765.9
56688.9,27740.8
56696,27721.4
56700,27708.8
56700.6,27704.5
56695.6,27699
56684.4,27690.1
56669.5,27679.7
56668.3,27678.8
56629.9,27648.1
56598.9,27612.2
56575.6,27572.3
56560.3,27529.7
56553.3,27485.3
56554.8,27440.4
56565,27396.1
56584.3,27353.5
56590,27344.2
56619.5,27306.6
56654.4,27276.5
56693.5,27253.9
56735.5,27238.9
56779.2,27231.9
56823.4,27232.9
56867,27242.1
56908.7,27259.6
56947.3,27285.7
56959.2,27296.3
56989.6,27329.3
57011.7,27364.2
57026.9,27403.2
57035.4,27441.9
57037.5,27485.3
57030.5,27529
57015.2,27571.4
56992.3,27611.1
56962.4,27646.6
56926.3,27676.3
56921.6,27679.5
56906.5,27689.8
56895.1,27698.7
56889.7,27704.3
56889.6,27704.5
56890.8,27710.7
56895.4,27724.6
56903,27745.3
56913.2,27771.4
56925.4,27801.9
56939.1,27835.6
56953.9,27871.4
56969.2,27908.1
56984.7,27944.6
56999.7,27979.7
57013.9,28012.2
57026.7,28041.1
57037.7,28065.2
57046.4,28083.3
57052.3,28094.3
57054.7,28097.1
57061.9,28094.9
57075.4,28088.9
57092.9,28080.2
57102.5,28075.1
57143.4,28053
57192,28085.9
57216.9,28102.8
57244.1,28121.3
57269.6,28138.8
57282.3,28147.6
57300.3,28159.6
57315.5,28169.2
57326,28175
57329.4,28176.3
57334.3,28172.9
57345.3,28163.6
57361.2,28149.3
57380.9,28131
57403.5,28109.6
57417.8,28095.8
57442.8,28071.3
57464.4,28049.3
57481.8,28030.8
57494,28016.9
57500.2,28008.3
57500.8,28006.6
57498,28000
57490.4,27986.6
57478.8,27967.9
57464,27945.1
57446.9,27919.6
57442,27912.5
57424.3,27886.7
57408.4,27863.5
57395.2,27844.1
57385.6,27829.9
57380.5,27822.2
57380,27821.5
57380.8,27815.3
57384.7,27801.9
57391.1,27782.8
57399.3,27760
57408.6,27735.1
57418.4,27710.1
57428,27686.5
57436.6,27666.3
57443.6,27651.1
57448.4,27642.9
57448.7,27642.5
57451.6,27640.1
57456.5,27637.8
57464.5,27635.2
57476.7,27632.2
57494.1,27628.5
57517.8,27623.8
57548.9,27618
57588.4,27610.7
57597,27609.2
57622.4,27604.3
57644.5,27599.5
57661.4,27595.2
57671.2,27592.1
57672.5,27591.3
57674.6,27584.7
57676.4,27569.9
57677.7,27548.7
57678.7,27522.8
57679.2,27493.9
57679.3,27463.7
57679,27433.9
57678.4,27406.2
57677.3,27382.4
57675.7,27364.1
57673.8,27353.2
57672.6,27351
57666.2,27348.7
57651.4,27345
57629.8,27340.2
57602.9,27334.7
57572.2,27328.7
57555.4,27325.5
57523.6,27319.6
57495.2,27314.2
57471.7,27309.6
57454.4,27306.2
57444.7,27304.1
57443.1,27303.6
57440.4,27298.4
57434.6,27285.8
57426.7,27267.7
57417.2,27245.9
57407.1,27222
57396.9,27198
57387.6,27175.6
57379.8,27156.7
57374.3,27143
57371.9,27136.2
57371.9,27135.9
57374.6,27130.6
57382.2,27118.4
57393.8,27100.5
57408.7,27078.1
57426.1,27052.5
57436.3,27037.7
57454.7,27010.7
57471.1,26986.2
57484.6,26965.4
57494.4,26949.6
57499.8,26940
57500.6,26937.8
57497.3,26932.8
57488,26922.1
57474,26906.9
57456.5,26888.4
57436.6,26867.8
57415.5,26846.3
57394.4,26825.1
57374.5,26805.4
57357,26788.4
57343,26775.3
57333.8,26767.4
57330.7,26765.5
57325.7,26768.1
57313.7,26775.6
57295.8,26787.2
57273.3,26802.1
57247.3,26819.6
57227.7,26832.8
57128.6,26900.2
57046.1,26866.2
56963.5,26832.1
56941.1,26713.4
56918.7,26594.7
56671.6,26594.7
Z" /> 
<path style="fill:#000000; fill-opacity:1.0; 
stroke:#000000; stroke-width:3.93701; stroke-opacity:1; 
stroke-linecap:round; stroke-linejoin:round;fill-rule:evenodd;"
d="M 61607.6,26691.8
61603.4,26736.6
61590.9,26779
61570.9,26818
61543.8,26852.6
61510.3,26882.1
61472.1,26904.9
61430.3,26920.5
61388.2,26927.8
61346.6,26927.3
61306.3,26919.7
61268.3,26905.3
61233.3,26884.7
61202.2,26858.5
61175.7,26827.2
61154.8,26791.3
61140.2,26751.4
61132.8,26707.9
61132.1,26688.3
61132.1,26653.6
61111.6,26653.6
61097.3,26654.8
61086.8,26659.4
61076.1,26668.8
61061,26683.9
61061,27546.7
61061,27649.9
61061,27744.6
61061,27831.1
61061.1,27909.9
61061.1,27981.2
61061.2,28045.6
61061.3,28103.2
61061.4,28154.6
61061.6,28200
61061.8,28239.9
61062,28274.6
61062.3,28304.5
61062.7,28329.9
61063,28351.3
61063.5,28369
61063.9,28383.4
61064.5,28394.8
61065.1,28403.6
61065.7,28410.2
61066.5,28414.9
61067.2,28418.2
61068.1,28420.3
61068.5,28421.1
61070.2,28423.8
61071.6,28426.4
61073.1,28428.7
61075.1,28430.8
61077.9,28432.7
61081.9,28434.5
61087.5,28436.1
61095.1,28437.4
61104.9,28438.7
61117.4,28439.8
61132.9,28440.7
61151.8,28441.6
61174.5,28442.3
61201.3,28442.8
61232.5,28443.3
61268.6,28443.7
61309.9,28444
61356.8,28444.3
61409.6,28444.5
61468.7,28444.6
61534.4,28444.7
61607.2,28444.7
61687.3,28444.7
61775.2,28444.7
61871.2,28444.7
61975.7,28444.7
61990.8,28444.7
62095.9,28444.6
62192.5,28444.6
62280.9,28444.6
62361.6,28444.5
62434.7,28444.4
62500.8,28444.3
62560.2,28444.2
62613.2,28444.1
62660.3,28443.9
62701.7,28443.7
62737.8,28443.4
62769,28443.1
62795.7,28442.8
62818.2,28442.4
62836.9,28442
62852.1,28441.5
62864.2,28441
62873.6,28440.4
62880.6,28439.7
62885.6,28439
62888.9,28438.2
62890.7,28437.6
62894,28436.2
62897,28435.1
62899.8,28434.1
62902.4,28432.7
62904.7,28430.6
62906.8,28427.3
62908.7,28422.6
62910.3,28416
62911.8,28407.3
62913.1,28395.9
62914.2,28381.6
62915.2,28364
62916,28342.8
62916.7,28317.4
62917.3,28287.7
62917.7,28253.2
62918.1,28213.5
62918.3,28168.3
62918.5,28117.2
62918.7,28059.8
62918.7,27995.9
62918.8,27924.9
62918.8,27846.6
62918.8,27760.5
62918.8,27666.4
62918.7,27563.8
62918.7,27547.2
62918.8,27443.7
62918.8,27348.7
62918.8,27261.9
62918.8,27182.8
62918.7,27111.2
62918.6,27046.5
62918.5,26988.6
62918.4,26936.9
62918.1,26893.6
62798.9,26893.6
62783.2,26916.4
62778.8,26922.6
62774.9,26928.1
62771.3,26933.4
62768.1,26938.9
62765.3,26945
62762.9,26952.3
62760.8,26961.3
62758.9,26972.3
62757.4,26985.9
62756.1,27002.6
62755,27022.7
62754.1,27046.7
62753.4,27075.3
62752.9,27108.7
62752.6,27147.4
62752.3,27192
62752.2,27242.9
62752.1,27300.5
62752.1,27365.4
62752.1,27438
62752.1,27518.7
62752.1,27567
62752.1,27652.4
62752.1,27729.4
62752.1,27798.4
62752.1,27860
62752.2,27914.5
62752.4,27962.5
62752.7,28004.4
62753.1,28040.7
62753.7,28071.8
62754.5,28098.3
62755.4,28120.5
62756.6,28139
62758,28154.2
62759.6,28166.6
62761.6,28176.7
62763.8,28184.9
62766.4,28191.7
62769.4,28197.5
62772.7,28202.9
62776.4,28208.3
62780.5,28214.1
62782.9,28217.6
62798.1,28240.3
62588.9,28240.3
62540.3,28240.3
62500,28240.2
62467.1,28240.1
62440.9,28239.9
62420.8,28239.5
62405.9,28239
62395.6,28238.3
62389.2,28237.4
62386,28236.2
62385.1,28234.8
62386,28233.1
62386.4,28232.5
62396.3,28217.9
62406.5,28197.2
62415.8,28172.7
62419.1,28162.3
62420.9,28155.3
62422.4,28147
62423.7,28136.6
62424.8,28123.4
62425.7,28106.5
62426.4,28085.1
62427,28058.4
62427.5,28025.5
62428,27985.6
62428.5,27937.9
62428.6,27920.3
62429,27871
62429.3,27830
62429.5,27796.3
62429.5,27769.5
62429.4,27748.7
62429,27733.3
62428.5,27722.6
62427.7,27715.7
62426.6,27712.2
62425.3,27711.1
62423.6,27711.9
62421.9,27713.6
62417.8,27718.7
62409.1,27730.2
62396.4,27747.1
62380.4,27768.8
62361.6,27794.3
62340.6,27822.7
62318.1,27853.4
62294.7,27885.3
62270.9,27917.7
62247.5,27949.8
62225,27980.7
62204,28009.5
62185.2,28035.5
62169.2,28057.7
62156.5,28075.4
62147.8,28087.7
62146,28090.3
62137,28104.9
62126.5,28123.8
62116.5,28143.3
62115.2,28145.9
62106.6,28164.9
62101.7,28179.7
62099.4,28193.8
62099,28210.3
62099.2,28240.3
61644.7,28240.3
61680.6,28203.4
61699.1,28183.8
61718.9,28161.5
61737,28140.2
61745,28130.2
61757,28114.6
61772.8,28093.7
61791.9,28068
61813.8,28038.2
61838.2,28005
61864.5,27968.9
61892.3,27930.7
61921.1,27890.9
61950.4,27850.3
61979.9,27809.4
62009,27768.9
62037.3,27729.4
62064.2,27691.6
62089.5,27656.1
62112.5,27623.6
62132.9,27594.7
62150.1,27570
62163.7,27550.2
62173.3,27536
62178.4,27527.9
62179.1,27526.2
62175.9,27521.8
62167.8,27511.1
62155.1,27494.8
62138.4,27473.6
62118.2,27448.2
62095.2,27419.3
62069.8,27387.4
62042.6,27353.3
62014,27317.7
61984.7,27281.1
61961.2,27251.9
61563.2,27251.9
61560.9,27257
61555.2,27265.7
61554.8,27266.3
61547.4,27278.2
61539.7,27292.7
61538.1,27295.9
61536.8,27299.2
61535.5,27303.2
61534.4,27308.4
61533.5,27315.3
61532.7,27324.6
61532,27336.7
61531.4,27352.3
61530.9,27371.8
61530.4,27395.8
61530.1,27424.8
61529.8,27459.5
61529.5,27500.3
61529.3,27547.8
61529.1,27602.5
61528.8,27665.1
61528.6,27735.5
61528.4,27808.3
61528.3,27872.9
61528.2,27929.6
61528.1,27979.2
61528.3,28022
61528.5,28058.7
61528.9,28089.8
61529.6,28115.9
61530.4,28137.5
61531.5,28155.1
61532.9,28169.4
61534.6,28180.8
61536.7,28190
61539,28197.4
61541.8,28203.7
61545,28209.3
61548.6,28214.8
61552,28219.7
61558.7,28230.1
61562.7,28237
61563.2,28238.3
61558.9,28238.7
61546.6,28239.1
61527.3,28239.5
61501.7,28239.8
61470.9,28240
61435.7,28240.2
61397,28240.3
61369.9,28240.3
61328.5,28240.2
61290.4,28240
61256.3,28239.6
61227.2,28239.1
61203.9,28238.4
61187.2,28237.7
61178.1,28236.9
61176.5,28236.4
61179.6,28230.5
61182.7,28227.4
61187.9,28220.6
61194.7,28208.7
61199.4,28199.1
61209.9,28175.9
61211.1,27712.5
61212.3,27249.2
61387.7,27249.2
61426.2,27249.3
61461.8,27249.5
61493.6,27249.7
61520.5,27250.1
61541.6,27250.6
61556,27251.1
61562.8,27251.7
61563.2,27251.9
61961.2,27251.9
61955.2,27244.4
61926,27208.1
61897.7,27172.9
61870.7,27139.5
61845.7,27108.6
61823.1,27080.8
61803.5,27056.9
61787.4,27037.3
61780.7,27029.2
61746.7,26989.6
61716.5,26956.8
61689.4,26930.1
61664.7,26908.7
61661,26905.8
61645.4,26893.7
62091,26893.6
62088.9,26912.5
62090.2,26935.1
62098.7,26962
62114.4,26993.4
62132.3,27021.8
62138.6,27030.8
62149.7,27045.5
62164.7,27065.4
62183.1,27089.4
62204.2,27116.7
62227.3,27146.5
62251.8,27178
62276.9,27210.3
62302.2,27242.6
62326.8,27274
62350.1,27303.7
62371.6,27330.8
62390.4,27354.5
62406,27374
62417.7,27388.3
62424.9,27396.8
62426.1,27398.1
62427.2,27394.9
62428.1,27383
62428.7,27362.4
62429,27333.3
62429.1,27295.7
62429,27249.8
62428.6,27202.5
62428.1,27150.5
62427.5,27106.5
62426.7,27069.7
62425.7,27039.1
62424.2,27014
62422.3,26993.4
62419.9,26976.5
62416.7,26962.4
62412.8,26950.3
62408.1,26939.2
62402.4,26928.3
62396.6,26918.5
62381.6,26893.6
62798.9,26893.6
62918.1,26893.6
62918.1,26891.2
62917.8,26851
62917.4,26816
62916.9,26785.8
62916.3,26760
62915.6,26738.4
62914.7,26720.4
62913.7,26705.7
62912.6,26694
62911.3,26684.9
62909.8,26678
62908.2,26673
62906.4,26669.4
62904.4,26666.9
62902.2,26665.2
62899.7,26663.8
62897,26662.4
62894.7,26661
62892.6,26660
62889.4,26659
62884.6,26658.2
62877.8,26657.5
62868.5,26656.8
62856.3,26656.3
62840.9,26655.8
62821.6,26655.3
62798.2,26654.9
62770.2,26654.6
62737.2,26654.4
62698.7,26654.2
62654.3,26654
62603.6,26653.9
62546.1,26653.8
62481.4,26653.7
62409.1,26653.7
62328.7,26653.7
62245.6,26653.6
61607.6,26653.6
Z" /> 
<path style="fill:#000000; fill-opacity:1.0; 
stroke:#000000; stroke-width:3.93701; stroke-opacity:1; 
stroke-linecap:round; stroke-linejoin:round;fill-rule:evenodd;"
d="M 60318.3,26872.9
60255.3,26881.2
60190.7,26897
60123.9,26920.4
60053.9,26951.6
60049.5,26953.8
60026.8,26964.9
60006.5,26974.3
59990.1,26981.6
59979.1,26986
59975.3,26987
59967.7,26989
59965.9,26990.6
59967.9,26994.7
59974.2,27005.1
59984.1,27020.6
59996.9,27040.2
60011.8,27062.7
60028,27087.2
60045,27112.5
60061.8,27137.5
60077.9,27161.2
60092.5,27182.4
60104.9,27200.2
60114.3,27213.3
60120,27220.7
60120.7,27221.6
60124.7,27219.7
60133.5,27213
60145.6,27202.5
60151.8,27196.8
60189.7,27167.2
60231.8,27145.4
60277.2,27131.6
60325.6,27125.9
60352.9,27126.4
60400.6,27133.2
60443.6,27147.3
60482.1,27168.9
60516.1,27198.1
60545.7,27234.9
60571.3,27279.6
60586,27313.6
60603.2,27367.1
60616,27425.1
60624.2,27486.3
60627.9,27549.2
60627.2,27612.2
60622.1,27673.8
60612.6,27732.6
60598.8,27787.1
60580.7,27835.7
60574.3,27849.2
60547.4,27894.1
60515.7,27932.1
60479.7,27962.9
60439.8,27986.1
60396.5,28001.4
60350.2,28008.6
60333.9,28009.1
60286,28004.8
60238.6,27991.9
60192.3,27970.6
60147.5,27941.3
60111.5,27910.4
60093.2,27892.9
60021.9,28009.9
60004.1,28039.1
59987.9,28066
59973.7,28089.6
59962.3,28108.8
59954,28122.9
59949.6,28130.7
59949.1,28131.9
59952.3,28135.7
59962.4,28142.5
59978,28151.7
59997.9,28162.6
60020.8,28174.5
60045.5,28186.9
60070.6,28199.1
60094.9,28210.4
60117.2,28220.2
60136,28227.9
60145.3,28231.2
60197.9,28246.1
60252.2,28256
60310.4,28261.1
60360.3,28262
60387.1,28261.6
60412.9,28260.7
60435.5,28259.6
60452.6,28258.3
60458.2,28257.6
60512.9,28246.3
60568.6,28228.5
60622.7,28205.4
60672.7,28178
60703.2,28157.3
60753.4,28114.7
60799.9,28064.8
60842.1,28009
60878.9,27948.4
60909.5,27884.3
60926.8,27838.1
60946.6,27765.8
60959.8,27689.2
60966.4,27610
60966.4,27529.8
60959.8,27450.2
60946.7,27373
60926.9,27299.8
60925.4,27295.2
60900.7,27231.4
60870.5,27173.2
60833.8,27118.8
60789.6,27066.8
60772.3,27049
60718.7,27000.2
60663.6,26959.8
60606.1,26927.4
60545.5,26902.6
60480.8,26884.9
60443.2,26878
60380.7,26871.8
Z" /> 
<path style="fill:#000000; fill-opacity:1.0; 
stroke:#000000; stroke-width:3.93701; stroke-opacity:1; 
stroke-linecap:round; stroke-linejoin:round;fill-rule:evenodd;"
d="M 59395,27234.1
59335.2,27242
59282,27255.2
59234.9,27273.9
59193.8,27298.2
59163.2,27323.2
59136.1,27352.4
59115,27383.8
59098.1,27420.1
59092,27437.1
59086.9,27452.4
59082.5,27466.6
59078.7,27480.5
59075.4,27494.6
59072.7,27509.9
59070.4,27526.8
59068.5,27546.3
59066.9,27569
59065.6,27595.6
59064.6,27626.9
59063.8,27663.6
59063.1,27706.3
59062.5,27755.9
59061.9,27813
59061.4,27869.2
59060.9,27930.7
59060.4,27984
59059.9,28029.6
59059.4,28068.4
59058.8,28100.8
59058,28127.7
59057,28149.5
59055.8,28167
59054.3,28180.9
59052.4,28191.7
59050.1,28200.2
59047.4,28207
59044.2,28212.7
59040.5,28218
59036.1,28223.5
59034.4,28225.6
59028.2,28234.6
59025.4,28240.7
59025.4,28240.9
59029.7,28241.8
59041.9,28242.6
59061,28243.3
59086.2,28243.9
59116.3,28244.3
59150.4,28244.6
59187.6,28244.8
59191.9,28244.8
59358.4,28244.8
59359.7,28206.9
59361,28169.1
59385.4,28189.2
59423.7,28215.8
59467,28237.3
59501,28249.2
59528.2,28255
59561.1,28258.9
59596.4,28260.9
59631.2,28260.8
59662.3,28258.4
59676.5,28256.2
59731.7,28241.3
59781.4,28219.7
59825.5,28191.7
59863.5,28157.7
59895,28118
59919.8,28072.9
59937.3,28023.2
59942.1,28000.9
59945.1,27976.5
59946.6,27947
59946.8,27933.6
59946.7,27932.4
59647.5,27932.4
59643.9,27961.9
59632.8,27987.1
59613.7,28009
59611.7,28010.7
59592.7,28024.4
59572.3,28033.3
59548.4,28038
59518.8,28039.1
59511.6,28039
59490.4,28037.9
59474.7,28035.8
59460.9,28031.8
59445.6,28025.1
59441.4,28023.1
59417.6,28009
59399.1,27992.2
59394.1,27986.2
59376.5,27964
59376.5,27886.8
59376.7,27855.9
59377.4,27833.1
59378.6,27817.7
59380.3,27809
59381.9,27806.4
59388.2,27805.2
59401.5,27804.1
59419.9,27803.4
59441.7,27803.1
59445.2,27803.1
59492.8,27805.2
59533.2,27811.5
59567.3,27822.4
59595.8,27838.1
59617.4,27856.6
59635,27879.4
59644.7,27904.2
59647.5,27932.4
59946.7,27932.4
59946,27896.7
59942.7,27865.7
59936.3,27837.6
59926.2,27809.8
59916.8,27789.2
59893.7,27751.7
59862.9,27717
59825.5,27685.8
59782.2,27658.8
59734.1,27636.5
59682,27619.6
59656.5,27613.7
59602.9,27605
59544.5,27599.3
59484.8,27596.8
59435,27597.4
59371.3,27600.1
59374.2,27576.9
59381.8,27537.8
59394.1,27506.1
59411.3,27481.3
59433.9,27463.3
59462.2,27451.8
59496.5,27446.6
59537.1,27447.5
59552.1,27449.1
59607.7,27459
59661.5,27475.1
59698.7,27490.1
59716.5,27497.7
59731.7,27503.8
59742,27507.6
59745.1,27508.4
59748.9,27504.9
59755.5,27493.5
59764.9,27474.1
59777.1,27446.6
59792.3,27411
59794.9,27404.8
59806.8,27376.3
59817.4,27350.6
59826.3,27328.7
59833.1,27311.8
59837.4,27301.1
59838.6,27297.6
59834.7,27295.7
59824.3,27293.7
59813.2,27292.2
59801.3,27290.3
59782.5,27286.6
59758.4,27281.4
59730.7,27275.1
59701.1,27268
59689.9,27265.3
59648.5,27255.2
59614,27247.3
59584.6,27241.3
59558.7,27237
59534.5,27234.1
59510.4,27232.4
59484.6,27231.6
59461.8,27231.5
Z" /> 
<path style="fill:#000000; fill-opacity:1.0; 
stroke:#000000; stroke-width:3.93701; stroke-opacity:1; 
stroke-linecap:round; stroke-linejoin:round;fill-rule:evenodd;"
d="M 58012,27472.5
58012,27564.8
58012,27648.7
58012,27724.5
58011.9,27792.7
58011.8,27853.8
58011.6,27908.1
58011.4,27956.2
58011,27998.4
58010.5,28035.2
58010,28067
58009.2,28094.2
58008.4,28117.3
58007.3,28136.8
58006.1,28152.9
58004.6,28166.3
58002.9,28177.3
58001.1,28186.3
57998.9,28193.8
57996.5,28200.2
57993.8,28206
57990.8,28211.5
57987.5,28217.3
57985.5,28220.9
57972,28244.8
58309.9,28244.8
58309.9,28207
58310.1,28189.9
58310.9,28176.9
58312,28169.9
58312.5,28169.2
58317,28171.9
58326,28178.9
58334.9,28186.6
58356.4,28202.6
58383.7,28218.7
58414.1,28233.5
58444.5,28245.4
58456.6,28249.2
58483.6,28255
58516.2,28258.9
58551.4,28260.9
58586.1,28260.8
58617.2,28258.5
58632.1,28256.2
58686.5,28241.3
58736.6,28218.5
58782.2,28188.3
58823,28150.7
58858.7,28106
58885,28062.4
58906.6,28016.4
58923.2,27969.4
58935,27919.8
58942.4,27866
58945.8,27806.4
58946.1,27775.9
58945.2,27753.5
58618.8,27753.5
58618.7,27790.2
58617.6,27824.7
58615.4,27855
58612,27879.1
58611,27884
58598.5,27926.2
58582.1,27960.5
58561.7,27986.9
58537.1,28005.4
58508.2,28016.3
58474.9,28019.5
58437.1,28015.2
58412.1,28009
58392.7,28001.8
58371.4,27991.6
58355.4,27982.3
58327.6,27964.1
58327.6,27511.2
58354.2,27494.1
58385.1,27478
58418.2,27467.5
58451.7,27462.8
58483.8,27464.1
58512.4,27471.5
58525,27477.6
58547.8,27494.6
58567.1,27516.9
58583.3,27545.5
58596.9,27581.1
58608.3,27624.7
58608.8,27627
58612.8,27651.5
58615.9,27682.1
58617.8,27716.8
58618.8,27753.5
58945.2,27753.5
58943,27692.1
58934.3,27615
58920.2,27544.6
58900.5,27481
58875.3,27424.3
58844.7,27374.5
58808.6,27331.5
58767.1,27295.6
58749.3,27283.4
58709.6,27261.3
58668.9,27245.7
58625.6,27236.2
58577.8,27232.4
58541.4,27232.8
58490.4,27237.1
58446,27245.7
58407.1,27258.9
58372.4,27277.3
58353.2,27290.7
58341.6,27299.4
58333.1,27305.2
58329.8,27307
58329.2,27302.7
58328.7,27290.6
58328.3,27271.9
58328,27247.4
58327.9,27218.4
58327.8,27186
58327.9,27151.2
58328,27115
58328.3,27078.6
58328.6,27043.1
58329,27009.6
58329.5,26979
58330.1,26952.6
58330.7,26931.4
58331.4,26916.4
58331.6,26913.6
58334.6,26885.9
58339.2,26864.2
58346.1,26845.7
58356.4,26827.4
58358.9,26823.6
58368.5,26809.2
58012.1,26809.2
Z" /> 
<path style="fill:#000000; fill-opacity:1.0; 
stroke:#000000; stroke-width:3.93701; stroke-opacity:1; 
stroke-linecap:round; stroke-linejoin:round;fill-rule:evenodd;"
d="M 61342.5,26509.7
61304.6,26519.2
61270.5,26536.1
61241.1,26559.6
61217.1,26589.2
61199.4,26624.1
61189,26662
61186.7,26700.3
61192.6,26737.3
61205.8,26771.9
61225.8,26803.1
61251.7,26829.9
61282.8,26851.2
61318.5,26866.1
61338.7,26871
61356.2,26874
61369.7,26875.2
61382.7,26874.4
61398.6,26871.7
61411.6,26869
61448.4,26856.6
61481.3,26836.5
61509.7,26809.2
61532.8,26775.5
61538.2,26764.8
61544.7,26750.4
61548.8,26738.4
61551,26725.8
61551.8,26709.6
61551.9,26691.4
61550.3,26658.2
61545.1,26630.9
61535.1,26607.1
61519.6,26584.1
61504.4,26566.7
61476.1,26540.7
61446.6,26522.9
61414,26512.1
61383.4,26508.1
Z" /> 
<path style="fill:#000000; fill-opacity:1.0; 
stroke:#000000; stroke-width:3.93701; stroke-opacity:1; 
stroke-linecap:round; stroke-linejoin:round;fill-rule:evenodd;"
d="M 59147.6,32084.9
59110.9,32128.6
59097.9,32199.7
59112.4,32262.7
59127.2,32278
59156.9,32265.3
59176.7,32221.6
59195.5,32125.5
59184,32083
Z" /> 
<path style="fill:#000000; fill-opacity:1.0; 
stroke:#000000; stroke-width:3.93701; stroke-opacity:1; 
stroke-linecap:round; stroke-linejoin:round;fill-rule:evenodd;"
d="M 57159.5,31189.2
57097.7,31230.1
57048.2,31272.6
57009.6,31324.4
56980.5,31392.9
56959.6,31485.6
56945.6,31610.1
56937.1,31773.7
56932.7,31984.1
56931.2,32248.7
56931,32455.4
56931.1,32734.5
56931.9,32954.9
56933.9,33124.6
56937.7,33251.7
56943.9,33344.3
56953,33410.2
56965.5,33457.6
56982.1,33494.4
57003.2,33528.6
57006.6,33533.7
57042.3,33586.2
57077.2,33630.1
57117.1,33666
57168.3,33694.8
57236.6,33717.3
57328.2,33734.2
57449.1,33746.2
57605.3,33754.2
57802.9,33759
58047.9,33761.2
58346.2,33761.8
58704.1,33761.4
58781,33761.3
59131,33760.6
59419.5,33759.8
59651.6,33758.6
59832.3,33756.7
59966.8,33753.9
60060.2,33749.9
60117.6,33744.6
60144.1,33737.7
60144.8,33728.9
60124.9,33718.1
60089.4,33705
60079.4,33701.5
59869.6,33612.7
59690.9,33494.5
59522.2,33335.3
59355.7,33125.2
59245.2,32905.5
59194.1,32728.2
59165,32626.3
59137.4,32590.2
59113.6,32619.1
59095.9,32712.2
59091.4,32763.6
59081,32913.6
58787.2,32913.6
58787.5,32881.9
58531,32881.9
58501,32890.6
58424.2,32892.8
58360.2,32890.4
58189.4,32880.3
57991.6,32531.2
57914.3,32395.3
57849.2,32282.2
57803.2,32203.7
57783.1,32171.4
57783.1,32171.3
57763.7,32194.4
57718.6,32265.3
57654.1,32373.4
57576.8,32508.2
57565.2,32528.7
57358.2,32897
57194.6,32897
57100.7,32892.4
57041.9,32880.7
57031.8,32872
57047.9,32836.3
57092,32752.7
57158.9,32630.8
57243.2,32480.4
57328.6,32330.3
57624.6,31813.6
57772.7,31803.7
57920.8,31793.7
58225.9,32328.6
58322.4,32498.8
58406.4,32648.6
58472.6,32768.7
58515.9,32849.7
58531,32881.9
58787.5,32881.9
58788.7,32738.2
58797.2,32628.3
58817.3,32541.3
58832.2,32512.2
58857.2,32455.2
58836.7,32379.7
58835.9,32377.8
58813.8,32295.8
58799.9,32180.5
58797.6,32114
58810.6,31980.7
58855.9,31894.8
58943.3,31847.7
59082.4,31830.8
59120.9,31830.3
59226.8,31826.5
59288.2,31808.9
59327.1,31768.6
59344.2,31738.6
59399.9,31658.2
59487.6,31559.2
59594.2,31453.3
59706.6,31352.4
59811.9,31268.4
59896.9,31212.9
59942.6,31197
59934.3,31214.6
59883.1,31260.5
59807.5,31319.3
59712,31399.8
59614.8,31497.9
59526.5,31600.5
59457.6,31694.5
59418.9,31767
59416.6,31800.7
59455.8,31813.6
59546,31823.6
59671.6,31829.4
59749.6,31830.3
60064.3,31830.3
60064.3,32061.5
59689.3,32070.9
59314.3,32080.3
59303.9,32188.6
59293.4,32297
60064.3,32297
60064.3,32934.1
59922.6,32923.9
59781,32913.6
59760.8,32563.6
59323.7,32563.6
59346.3,32655.3
59417.4,32832.9
59537.6,33014.7
59693.1,33183.3
59869.8,33321.6
59906.1,33343.9
60162.2,33458.1
60429.4,33512.6
60698.1,33510.3
60959,33454
61202.8,33346.6
61419.9,33190.9
61600.9,32990
61717.6,32789.7
61752.2,32712.6
61664.3,32712.6
61639.1,32815.2
61561.6,32884.2
61428.8,32921.2
61306,32929
61131,32930.3
61131,32813.6
61136.5,32735.3
61164.8,32703.1
61232,32697
61313.8,32681.3
61352.2,32647
61398.9,32610.4
61504.1,32597.1
61517.9,32597
61608.6,32599.7
61651.1,32617.5
61663.5,32664.8
61664.3,32712.6
61752.2,32712.6
61752.5,32712.1
61777.8,32644.7
61795,32575
61805.7,32490.4
61811.5,32378.1
61813.8,32225.7
61814,32167.8
61664.3,32167.8
61662.4,32289.6
61652.5,32363
61628.7,32406.4
61584.9,32437.8
61572.6,32444.6
61484.9,32474.1
61366.3,32492.6
61306,32495.6
61131,32497
61131,32380.3
61137.8,32300.8
61166.2,32268.2
61202,32263.6
60897.6,32263.6
60897.6,32378.2
60891.2,32456.5
60858.8,32491
60789.6,32503.2
60701.5,32530.9
60664.7,32580.8
60676.4,32636.1
60733.7,32680.2
60822.6,32696.5
60873.7,32707.4
60894.6,32751.8
60897.6,32813.6
60897.6,32930.3
60716.2,32930.3
60590.3,32922.4
60502.5,32893.6
60443.6,32852
60391.8,32800.1
60365.6,32744.3
60357.8,32661.1
60359.4,32577
60375.3,32431.8
60418,32338.2
60498.6,32286
60628,32265.4
60701.3,32263.6
60897.6,32263.6
61202,32263.6
61206,32263.1
61305.5,32243.2
61357.4,32196.2
61359.7,32139
61310.3,32088.4
61230.6,32063.6
61153.2,32046.8
61124.4,32013.7
61125.8,31950.3
60897.6,31950.3
60891.6,32027.3
60861.6,32058.2
60799.6,32063.6
60722.6,32073.9
60681,32097
60637.9,32117.1
60553.2,32129
60510.2,32130.3
60418.2,32128
60376.1,32112.3
60366.8,32070.3
60370.5,32022
60410.3,31919.5
60502.8,31852.2
60642.7,31823
60740.9,31824.6
60835.6,31834.7
60881.6,31854.8
60896.4,31899
60897.6,31950.3
61125.8,31950.3
61125.9,31947
61136.7,31873.4
61146.5,31837.4
61182,31831.9
61264.2,31827.5
61345.2,31825.6
61489.3,31833
61583.3,31866.3
61637,31936.1
61660.5,32053.2
61664.3,32167.8
61814,32167.8
61814.3,32020.5
61814.3,31997
61813.1,31765.9
61807.6,31591
61794.9,31461.9
61771.9,31368.1
61735.6,31299.1
61683.2,31244.5
61611.6,31193.9
61589.8,31180.3
60031,31180.3
60014.3,31197
59997.6,31180.3
60014.3,31163.6
60031,31180.3
61589.8,31180.3
61581,31174.8
61557.6,31162.4
61528,31151.7
61487,31142.8
61429.7,31135.3
61350.8,31129.3
61245.4,31124.4
61108.3,31120.7
60934.5,31118
60718.9,31116
60456.5,31114.8
60142.2,31114
59770.8,31113.7
59381,31113.6
57281,31113.6
Z" /> 
<g >
</g>
</g> 
</svg>
