%TF.GenerationSoftware,KiCad,Pcbnew,5.1.5+dfsg1-2build2*%
%TF.CreationDate,2021-06-08T17:36:12+05:30*%
%TF.ProjectId,ESP32-S2,45535033-322d-4533-922e-6b696361645f,rev?*%
%TF.SameCoordinates,Original*%
%TF.FileFunction,Copper,L2,Inr*%
%TF.FilePolarity,Positive*%
%FSLAX46Y46*%
G04 Gerber Fmt 4.6, Leading zero omitted, Abs format (unit mm)*
G04 Created by KiCad (PCBNEW 5.1.5+dfsg1-2build2) date 2021-06-08 17:36:12*
%MOMM*%
%LPD*%
G04 APERTURE LIST*
%ADD10O,2.100000X1.050000*%
%ADD11C,2.150000*%
%ADD12R,1.600000X1.600000*%
%ADD13C,1.600000*%
%ADD14O,1.700000X1.700000*%
%ADD15R,1.700000X1.700000*%
%ADD16C,0.800000*%
%ADD17C,0.254000*%
G04 APERTURE END LIST*
D10*
X140024200Y-134394200D03*
X140024200Y-125754200D03*
X144204200Y-134394200D03*
X144204200Y-125754200D03*
D11*
X157192400Y-133750600D03*
X157192400Y-126750600D03*
X162632400Y-126750600D03*
X162632400Y-133750600D03*
D12*
X159912400Y-133020600D03*
D13*
X159912400Y-131020600D03*
X159912400Y-129020600D03*
X159912400Y-127020600D03*
D14*
X163240000Y-122015000D03*
X163240000Y-119475000D03*
X163240000Y-116935000D03*
X163240000Y-114395000D03*
X163240000Y-111855000D03*
X163240000Y-109315000D03*
X163240000Y-106775000D03*
X163240000Y-104235000D03*
X163240000Y-101695000D03*
X163240000Y-99155000D03*
X163240000Y-96615000D03*
X163240000Y-94075000D03*
X163240000Y-91535000D03*
X163240000Y-88995000D03*
X163240000Y-86455000D03*
X163240000Y-83915000D03*
X163240000Y-81375000D03*
X163240000Y-78835000D03*
X163240000Y-76295000D03*
X163240000Y-73755000D03*
X163240000Y-71215000D03*
D15*
X163240000Y-68675000D03*
D14*
X138450000Y-111855000D03*
X138450000Y-109315000D03*
X138450000Y-106775000D03*
X138450000Y-104235000D03*
X138450000Y-101695000D03*
X138450000Y-99155000D03*
X138450000Y-96615000D03*
X138450000Y-94075000D03*
X138450000Y-91535000D03*
X138450000Y-88995000D03*
X138450000Y-86455000D03*
X138450000Y-83915000D03*
X138450000Y-81375000D03*
X138450000Y-78835000D03*
X138450000Y-76295000D03*
X138450000Y-73755000D03*
X138450000Y-71215000D03*
D15*
X138450000Y-68675000D03*
D16*
X147254700Y-73906300D03*
X148754700Y-73906300D03*
X150254700Y-73906300D03*
X151754700Y-73906300D03*
X147254700Y-75406300D03*
X148754700Y-75406300D03*
X150254700Y-75406300D03*
X151754700Y-75406300D03*
X147254700Y-76906300D03*
X148754700Y-76906300D03*
X150254700Y-76906300D03*
X151754700Y-76906300D03*
X147254700Y-78406300D03*
X148754700Y-78406300D03*
X150254700Y-78406300D03*
X151754700Y-78406300D03*
X149765100Y-133134900D03*
X152330500Y-133134900D03*
X153651300Y-127381800D03*
X140481400Y-116193100D03*
X157783314Y-109165486D03*
X138639900Y-122797100D03*
X143669100Y-68212500D03*
X149600000Y-104979000D03*
X140450920Y-120820980D03*
X153930700Y-122037640D03*
X148838000Y-99403700D03*
X146760280Y-106213440D03*
X140412820Y-113307660D03*
X146465081Y-115692720D03*
X148604320Y-125852720D03*
X158972600Y-92085960D03*
X155462320Y-103785200D03*
X146336100Y-118204780D03*
X151212500Y-97052900D03*
X147161600Y-94514200D03*
X143377000Y-104039200D03*
X157524800Y-100300320D03*
X157524800Y-98359760D03*
X157880400Y-110630500D03*
X157893100Y-112599000D03*
X140402660Y-111039440D03*
X150849680Y-93010520D03*
X151212500Y-99352900D03*
X147113340Y-99360520D03*
X143300800Y-94514200D03*
X157141260Y-69680620D03*
X143239522Y-106187722D03*
X143671644Y-71324000D03*
X143115380Y-118661980D03*
X157184440Y-74171340D03*
X152805480Y-106279480D03*
X157174280Y-75680100D03*
X151525320Y-106304880D03*
X143597980Y-87699380D03*
X143608140Y-86188080D03*
X143613220Y-84722500D03*
X145720390Y-86185540D03*
X145726500Y-123599740D03*
X148142040Y-119477320D03*
X158713520Y-119484940D03*
X157123482Y-89185280D03*
X157258100Y-107132920D03*
X157126020Y-87689220D03*
X157123480Y-86147440D03*
X157153960Y-84697100D03*
X152927400Y-114758000D03*
X150997000Y-114770700D03*
X148142040Y-120843840D03*
X143110300Y-129731300D03*
X145020380Y-110442540D03*
X144409902Y-122612665D03*
X144322941Y-109706217D03*
X144215200Y-119444300D03*
X154997500Y-122075740D03*
X156950300Y-121019100D03*
X150984068Y-122428800D03*
X146323400Y-120762560D03*
D17*
G36*
X164434400Y-70909758D02*
G01*
X164423693Y-70855931D01*
X164330898Y-70631903D01*
X164196180Y-70430283D01*
X164024717Y-70258820D01*
X163823097Y-70124102D01*
X163599069Y-70031307D01*
X163361243Y-69984000D01*
X163118757Y-69984000D01*
X162880931Y-70031307D01*
X162656903Y-70124102D01*
X162455283Y-70258820D01*
X162283820Y-70430283D01*
X162149102Y-70631903D01*
X162056307Y-70855931D01*
X162009000Y-71093757D01*
X162009000Y-71336243D01*
X162056307Y-71574069D01*
X162149102Y-71798097D01*
X162283820Y-71999717D01*
X162455283Y-72171180D01*
X162656903Y-72305898D01*
X162880931Y-72398693D01*
X163118757Y-72446000D01*
X163361243Y-72446000D01*
X163599069Y-72398693D01*
X163823097Y-72305898D01*
X164024717Y-72171180D01*
X164196180Y-71999717D01*
X164330898Y-71798097D01*
X164423693Y-71574069D01*
X164434400Y-71520241D01*
X164434400Y-73449759D01*
X164423693Y-73395931D01*
X164330898Y-73171903D01*
X164196180Y-72970283D01*
X164024717Y-72798820D01*
X163823097Y-72664102D01*
X163599069Y-72571307D01*
X163361243Y-72524000D01*
X163118757Y-72524000D01*
X162880931Y-72571307D01*
X162656903Y-72664102D01*
X162455283Y-72798820D01*
X162283820Y-72970283D01*
X162149102Y-73171903D01*
X162056307Y-73395931D01*
X162009000Y-73633757D01*
X162009000Y-73876243D01*
X162056307Y-74114069D01*
X162149102Y-74338097D01*
X162283820Y-74539717D01*
X162455283Y-74711180D01*
X162656903Y-74845898D01*
X162880931Y-74938693D01*
X163118757Y-74986000D01*
X163361243Y-74986000D01*
X163599069Y-74938693D01*
X163823097Y-74845898D01*
X164024717Y-74711180D01*
X164196180Y-74539717D01*
X164330898Y-74338097D01*
X164423693Y-74114069D01*
X164434400Y-74060241D01*
X164434400Y-75989759D01*
X164423693Y-75935931D01*
X164330898Y-75711903D01*
X164196180Y-75510283D01*
X164024717Y-75338820D01*
X163823097Y-75204102D01*
X163599069Y-75111307D01*
X163361243Y-75064000D01*
X163118757Y-75064000D01*
X162880931Y-75111307D01*
X162656903Y-75204102D01*
X162455283Y-75338820D01*
X162283820Y-75510283D01*
X162149102Y-75711903D01*
X162056307Y-75935931D01*
X162009000Y-76173757D01*
X162009000Y-76416243D01*
X162056307Y-76654069D01*
X162149102Y-76878097D01*
X162283820Y-77079717D01*
X162455283Y-77251180D01*
X162656903Y-77385898D01*
X162880931Y-77478693D01*
X163118757Y-77526000D01*
X163361243Y-77526000D01*
X163599069Y-77478693D01*
X163823097Y-77385898D01*
X164024717Y-77251180D01*
X164196180Y-77079717D01*
X164330898Y-76878097D01*
X164423693Y-76654069D01*
X164434400Y-76600241D01*
X164434400Y-78529759D01*
X164423693Y-78475931D01*
X164330898Y-78251903D01*
X164196180Y-78050283D01*
X164024717Y-77878820D01*
X163823097Y-77744102D01*
X163599069Y-77651307D01*
X163361243Y-77604000D01*
X163118757Y-77604000D01*
X162880931Y-77651307D01*
X162656903Y-77744102D01*
X162455283Y-77878820D01*
X162283820Y-78050283D01*
X162149102Y-78251903D01*
X162056307Y-78475931D01*
X162009000Y-78713757D01*
X162009000Y-78956243D01*
X162056307Y-79194069D01*
X162149102Y-79418097D01*
X162283820Y-79619717D01*
X162455283Y-79791180D01*
X162656903Y-79925898D01*
X162880931Y-80018693D01*
X163118757Y-80066000D01*
X163361243Y-80066000D01*
X163599069Y-80018693D01*
X163823097Y-79925898D01*
X164024717Y-79791180D01*
X164196180Y-79619717D01*
X164330898Y-79418097D01*
X164423693Y-79194069D01*
X164434400Y-79140241D01*
X164434400Y-81069759D01*
X164423693Y-81015931D01*
X164330898Y-80791903D01*
X164196180Y-80590283D01*
X164024717Y-80418820D01*
X163823097Y-80284102D01*
X163599069Y-80191307D01*
X163361243Y-80144000D01*
X163118757Y-80144000D01*
X162880931Y-80191307D01*
X162656903Y-80284102D01*
X162455283Y-80418820D01*
X162283820Y-80590283D01*
X162149102Y-80791903D01*
X162056307Y-81015931D01*
X162009000Y-81253757D01*
X162009000Y-81496243D01*
X162056307Y-81734069D01*
X162149102Y-81958097D01*
X162283820Y-82159717D01*
X162455283Y-82331180D01*
X162656903Y-82465898D01*
X162880931Y-82558693D01*
X163118757Y-82606000D01*
X163361243Y-82606000D01*
X163599069Y-82558693D01*
X163823097Y-82465898D01*
X164024717Y-82331180D01*
X164196180Y-82159717D01*
X164330898Y-81958097D01*
X164423693Y-81734069D01*
X164434400Y-81680241D01*
X164434400Y-83609759D01*
X164423693Y-83555931D01*
X164330898Y-83331903D01*
X164196180Y-83130283D01*
X164024717Y-82958820D01*
X163823097Y-82824102D01*
X163599069Y-82731307D01*
X163361243Y-82684000D01*
X163118757Y-82684000D01*
X162880931Y-82731307D01*
X162656903Y-82824102D01*
X162455283Y-82958820D01*
X162283820Y-83130283D01*
X162149102Y-83331903D01*
X162056307Y-83555931D01*
X162009000Y-83793757D01*
X162009000Y-84036243D01*
X162056307Y-84274069D01*
X162149102Y-84498097D01*
X162283820Y-84699717D01*
X162455283Y-84871180D01*
X162656903Y-85005898D01*
X162880931Y-85098693D01*
X163118757Y-85146000D01*
X163361243Y-85146000D01*
X163599069Y-85098693D01*
X163823097Y-85005898D01*
X164024717Y-84871180D01*
X164196180Y-84699717D01*
X164330898Y-84498097D01*
X164423693Y-84274069D01*
X164434400Y-84220241D01*
X164434400Y-86149760D01*
X164423693Y-86095931D01*
X164330898Y-85871903D01*
X164196180Y-85670283D01*
X164024717Y-85498820D01*
X163823097Y-85364102D01*
X163599069Y-85271307D01*
X163361243Y-85224000D01*
X163118757Y-85224000D01*
X162880931Y-85271307D01*
X162656903Y-85364102D01*
X162455283Y-85498820D01*
X162283820Y-85670283D01*
X162149102Y-85871903D01*
X162056307Y-86095931D01*
X162009000Y-86333757D01*
X162009000Y-86576243D01*
X162056307Y-86814069D01*
X162149102Y-87038097D01*
X162283820Y-87239717D01*
X162455283Y-87411180D01*
X162656903Y-87545898D01*
X162880931Y-87638693D01*
X163118757Y-87686000D01*
X163361243Y-87686000D01*
X163599069Y-87638693D01*
X163823097Y-87545898D01*
X164024717Y-87411180D01*
X164196180Y-87239717D01*
X164330898Y-87038097D01*
X164423693Y-86814069D01*
X164434400Y-86760240D01*
X164434400Y-88689760D01*
X164423693Y-88635931D01*
X164330898Y-88411903D01*
X164196180Y-88210283D01*
X164024717Y-88038820D01*
X163823097Y-87904102D01*
X163599069Y-87811307D01*
X163361243Y-87764000D01*
X163118757Y-87764000D01*
X162880931Y-87811307D01*
X162656903Y-87904102D01*
X162455283Y-88038820D01*
X162283820Y-88210283D01*
X162149102Y-88411903D01*
X162056307Y-88635931D01*
X162009000Y-88873757D01*
X162009000Y-89116243D01*
X162056307Y-89354069D01*
X162149102Y-89578097D01*
X162283820Y-89779717D01*
X162455283Y-89951180D01*
X162656903Y-90085898D01*
X162880931Y-90178693D01*
X163118757Y-90226000D01*
X163361243Y-90226000D01*
X163599069Y-90178693D01*
X163823097Y-90085898D01*
X164024717Y-89951180D01*
X164196180Y-89779717D01*
X164330898Y-89578097D01*
X164423693Y-89354069D01*
X164434400Y-89300240D01*
X164434400Y-91229760D01*
X164423693Y-91175931D01*
X164330898Y-90951903D01*
X164196180Y-90750283D01*
X164024717Y-90578820D01*
X163823097Y-90444102D01*
X163599069Y-90351307D01*
X163361243Y-90304000D01*
X163118757Y-90304000D01*
X162880931Y-90351307D01*
X162656903Y-90444102D01*
X162455283Y-90578820D01*
X162283820Y-90750283D01*
X162149102Y-90951903D01*
X162056307Y-91175931D01*
X162009000Y-91413757D01*
X162009000Y-91656243D01*
X162056307Y-91894069D01*
X162149102Y-92118097D01*
X162283820Y-92319717D01*
X162455283Y-92491180D01*
X162656903Y-92625898D01*
X162880931Y-92718693D01*
X163118757Y-92766000D01*
X163361243Y-92766000D01*
X163599069Y-92718693D01*
X163823097Y-92625898D01*
X164024717Y-92491180D01*
X164196180Y-92319717D01*
X164330898Y-92118097D01*
X164423693Y-91894069D01*
X164434400Y-91840240D01*
X164434400Y-93769760D01*
X164423693Y-93715931D01*
X164330898Y-93491903D01*
X164196180Y-93290283D01*
X164024717Y-93118820D01*
X163823097Y-92984102D01*
X163599069Y-92891307D01*
X163361243Y-92844000D01*
X163118757Y-92844000D01*
X162880931Y-92891307D01*
X162656903Y-92984102D01*
X162455283Y-93118820D01*
X162283820Y-93290283D01*
X162149102Y-93491903D01*
X162056307Y-93715931D01*
X162009000Y-93953757D01*
X162009000Y-94196243D01*
X162056307Y-94434069D01*
X162149102Y-94658097D01*
X162283820Y-94859717D01*
X162455283Y-95031180D01*
X162656903Y-95165898D01*
X162880931Y-95258693D01*
X163118757Y-95306000D01*
X163361243Y-95306000D01*
X163599069Y-95258693D01*
X163823097Y-95165898D01*
X164024717Y-95031180D01*
X164196180Y-94859717D01*
X164330898Y-94658097D01*
X164423693Y-94434069D01*
X164434400Y-94380240D01*
X164434400Y-96309760D01*
X164423693Y-96255931D01*
X164330898Y-96031903D01*
X164196180Y-95830283D01*
X164024717Y-95658820D01*
X163823097Y-95524102D01*
X163599069Y-95431307D01*
X163361243Y-95384000D01*
X163118757Y-95384000D01*
X162880931Y-95431307D01*
X162656903Y-95524102D01*
X162455283Y-95658820D01*
X162283820Y-95830283D01*
X162149102Y-96031903D01*
X162056307Y-96255931D01*
X162009000Y-96493757D01*
X162009000Y-96736243D01*
X162056307Y-96974069D01*
X162149102Y-97198097D01*
X162283820Y-97399717D01*
X162455283Y-97571180D01*
X162656903Y-97705898D01*
X162880931Y-97798693D01*
X163118757Y-97846000D01*
X163361243Y-97846000D01*
X163599069Y-97798693D01*
X163823097Y-97705898D01*
X164024717Y-97571180D01*
X164196180Y-97399717D01*
X164330898Y-97198097D01*
X164423693Y-96974069D01*
X164434400Y-96920240D01*
X164434400Y-98849761D01*
X164423693Y-98795931D01*
X164330898Y-98571903D01*
X164196180Y-98370283D01*
X164024717Y-98198820D01*
X163823097Y-98064102D01*
X163599069Y-97971307D01*
X163361243Y-97924000D01*
X163118757Y-97924000D01*
X162880931Y-97971307D01*
X162656903Y-98064102D01*
X162455283Y-98198820D01*
X162283820Y-98370283D01*
X162149102Y-98571903D01*
X162056307Y-98795931D01*
X162009000Y-99033757D01*
X162009000Y-99276243D01*
X162056307Y-99514069D01*
X162149102Y-99738097D01*
X162283820Y-99939717D01*
X162455283Y-100111180D01*
X162656903Y-100245898D01*
X162880931Y-100338693D01*
X163118757Y-100386000D01*
X163361243Y-100386000D01*
X163599069Y-100338693D01*
X163823097Y-100245898D01*
X164024717Y-100111180D01*
X164196180Y-99939717D01*
X164330898Y-99738097D01*
X164423693Y-99514069D01*
X164434400Y-99460239D01*
X164434401Y-101389761D01*
X164423693Y-101335931D01*
X164330898Y-101111903D01*
X164196180Y-100910283D01*
X164024717Y-100738820D01*
X163823097Y-100604102D01*
X163599069Y-100511307D01*
X163361243Y-100464000D01*
X163118757Y-100464000D01*
X162880931Y-100511307D01*
X162656903Y-100604102D01*
X162455283Y-100738820D01*
X162283820Y-100910283D01*
X162149102Y-101111903D01*
X162056307Y-101335931D01*
X162009000Y-101573757D01*
X162009000Y-101816243D01*
X162056307Y-102054069D01*
X162149102Y-102278097D01*
X162283820Y-102479717D01*
X162455283Y-102651180D01*
X162656903Y-102785898D01*
X162880931Y-102878693D01*
X163118757Y-102926000D01*
X163361243Y-102926000D01*
X163599069Y-102878693D01*
X163823097Y-102785898D01*
X164024717Y-102651180D01*
X164196180Y-102479717D01*
X164330898Y-102278097D01*
X164423693Y-102054069D01*
X164434401Y-102000239D01*
X164434401Y-103929761D01*
X164423693Y-103875931D01*
X164330898Y-103651903D01*
X164196180Y-103450283D01*
X164024717Y-103278820D01*
X163823097Y-103144102D01*
X163599069Y-103051307D01*
X163361243Y-103004000D01*
X163118757Y-103004000D01*
X162880931Y-103051307D01*
X162656903Y-103144102D01*
X162455283Y-103278820D01*
X162283820Y-103450283D01*
X162149102Y-103651903D01*
X162056307Y-103875931D01*
X162009000Y-104113757D01*
X162009000Y-104356243D01*
X162056307Y-104594069D01*
X162149102Y-104818097D01*
X162283820Y-105019717D01*
X162455283Y-105191180D01*
X162656903Y-105325898D01*
X162880931Y-105418693D01*
X163118757Y-105466000D01*
X163361243Y-105466000D01*
X163599069Y-105418693D01*
X163823097Y-105325898D01*
X164024717Y-105191180D01*
X164196180Y-105019717D01*
X164330898Y-104818097D01*
X164423693Y-104594069D01*
X164434401Y-104540239D01*
X164434401Y-106469761D01*
X164423693Y-106415931D01*
X164330898Y-106191903D01*
X164196180Y-105990283D01*
X164024717Y-105818820D01*
X163823097Y-105684102D01*
X163599069Y-105591307D01*
X163361243Y-105544000D01*
X163118757Y-105544000D01*
X162880931Y-105591307D01*
X162656903Y-105684102D01*
X162455283Y-105818820D01*
X162283820Y-105990283D01*
X162149102Y-106191903D01*
X162056307Y-106415931D01*
X162009000Y-106653757D01*
X162009000Y-106896243D01*
X162056307Y-107134069D01*
X162149102Y-107358097D01*
X162283820Y-107559717D01*
X162455283Y-107731180D01*
X162656903Y-107865898D01*
X162880931Y-107958693D01*
X163118757Y-108006000D01*
X163361243Y-108006000D01*
X163599069Y-107958693D01*
X163823097Y-107865898D01*
X164024717Y-107731180D01*
X164196180Y-107559717D01*
X164330898Y-107358097D01*
X164423693Y-107134069D01*
X164434401Y-107080239D01*
X164434401Y-111549761D01*
X164423693Y-111495931D01*
X164330898Y-111271903D01*
X164196180Y-111070283D01*
X164024717Y-110898820D01*
X163823097Y-110764102D01*
X163599069Y-110671307D01*
X163361243Y-110624000D01*
X163118757Y-110624000D01*
X162880931Y-110671307D01*
X162656903Y-110764102D01*
X162455283Y-110898820D01*
X162283820Y-111070283D01*
X162149102Y-111271903D01*
X162056307Y-111495931D01*
X162009000Y-111733757D01*
X162009000Y-111976243D01*
X162056307Y-112214069D01*
X162149102Y-112438097D01*
X162283820Y-112639717D01*
X162455283Y-112811180D01*
X162656903Y-112945898D01*
X162880931Y-113038693D01*
X163118757Y-113086000D01*
X163361243Y-113086000D01*
X163599069Y-113038693D01*
X163823097Y-112945898D01*
X164024717Y-112811180D01*
X164196180Y-112639717D01*
X164330898Y-112438097D01*
X164423693Y-112214069D01*
X164434401Y-112160238D01*
X164434401Y-114089762D01*
X164423693Y-114035931D01*
X164330898Y-113811903D01*
X164196180Y-113610283D01*
X164024717Y-113438820D01*
X163823097Y-113304102D01*
X163599069Y-113211307D01*
X163361243Y-113164000D01*
X163118757Y-113164000D01*
X162880931Y-113211307D01*
X162656903Y-113304102D01*
X162455283Y-113438820D01*
X162283820Y-113610283D01*
X162149102Y-113811903D01*
X162056307Y-114035931D01*
X162009000Y-114273757D01*
X162009000Y-114516243D01*
X162056307Y-114754069D01*
X162149102Y-114978097D01*
X162283820Y-115179717D01*
X162455283Y-115351180D01*
X162656903Y-115485898D01*
X162880931Y-115578693D01*
X163118757Y-115626000D01*
X163361243Y-115626000D01*
X163599069Y-115578693D01*
X163823097Y-115485898D01*
X164024717Y-115351180D01*
X164196180Y-115179717D01*
X164330898Y-114978097D01*
X164423693Y-114754069D01*
X164434401Y-114700238D01*
X164434401Y-116629762D01*
X164423693Y-116575931D01*
X164330898Y-116351903D01*
X164196180Y-116150283D01*
X164024717Y-115978820D01*
X163823097Y-115844102D01*
X163599069Y-115751307D01*
X163361243Y-115704000D01*
X163118757Y-115704000D01*
X162880931Y-115751307D01*
X162656903Y-115844102D01*
X162455283Y-115978820D01*
X162283820Y-116150283D01*
X162149102Y-116351903D01*
X162056307Y-116575931D01*
X162009000Y-116813757D01*
X162009000Y-117056243D01*
X162056307Y-117294069D01*
X162149102Y-117518097D01*
X162283820Y-117719717D01*
X162455283Y-117891180D01*
X162656903Y-118025898D01*
X162880931Y-118118693D01*
X163118757Y-118166000D01*
X163361243Y-118166000D01*
X163599069Y-118118693D01*
X163823097Y-118025898D01*
X164024717Y-117891180D01*
X164196180Y-117719717D01*
X164330898Y-117518097D01*
X164423693Y-117294069D01*
X164434401Y-117240238D01*
X164434401Y-119169762D01*
X164423693Y-119115931D01*
X164330898Y-118891903D01*
X164196180Y-118690283D01*
X164024717Y-118518820D01*
X163823097Y-118384102D01*
X163599069Y-118291307D01*
X163361243Y-118244000D01*
X163118757Y-118244000D01*
X162880931Y-118291307D01*
X162656903Y-118384102D01*
X162455283Y-118518820D01*
X162283820Y-118690283D01*
X162149102Y-118891903D01*
X162056307Y-119115931D01*
X162009000Y-119353757D01*
X162009000Y-119596243D01*
X162056307Y-119834069D01*
X162149102Y-120058097D01*
X162283820Y-120259717D01*
X162455283Y-120431180D01*
X162656903Y-120565898D01*
X162880931Y-120658693D01*
X163118757Y-120706000D01*
X163361243Y-120706000D01*
X163599069Y-120658693D01*
X163823097Y-120565898D01*
X164024717Y-120431180D01*
X164196180Y-120259717D01*
X164330898Y-120058097D01*
X164423693Y-119834069D01*
X164434401Y-119780238D01*
X164434401Y-121709762D01*
X164423693Y-121655931D01*
X164330898Y-121431903D01*
X164196180Y-121230283D01*
X164024717Y-121058820D01*
X163823097Y-120924102D01*
X163599069Y-120831307D01*
X163361243Y-120784000D01*
X163118757Y-120784000D01*
X162880931Y-120831307D01*
X162656903Y-120924102D01*
X162455283Y-121058820D01*
X162283820Y-121230283D01*
X162149102Y-121431903D01*
X162056307Y-121655931D01*
X162009000Y-121893757D01*
X162009000Y-122136243D01*
X162056307Y-122374069D01*
X162149102Y-122598097D01*
X162283820Y-122799717D01*
X162455283Y-122971180D01*
X162656903Y-123105898D01*
X162880931Y-123198693D01*
X163118757Y-123246000D01*
X163361243Y-123246000D01*
X163599069Y-123198693D01*
X163823097Y-123105898D01*
X164024717Y-122971180D01*
X164196180Y-122799717D01*
X164330898Y-122598097D01*
X164423693Y-122374069D01*
X164434401Y-122320238D01*
X164434401Y-135078800D01*
X137381800Y-135078800D01*
X137381800Y-132892203D01*
X142943200Y-132892203D01*
X142943200Y-133036197D01*
X142971292Y-133177425D01*
X143026396Y-133310458D01*
X143106395Y-133430185D01*
X143208215Y-133532005D01*
X143327942Y-133612004D01*
X143460975Y-133667108D01*
X143602203Y-133695200D01*
X143746197Y-133695200D01*
X143887425Y-133667108D01*
X144020458Y-133612004D01*
X144140185Y-133532005D01*
X144242005Y-133430185D01*
X144322004Y-133310458D01*
X144377108Y-133177425D01*
X144405200Y-133036197D01*
X144405200Y-132892203D01*
X144377108Y-132750975D01*
X144322004Y-132617942D01*
X144242005Y-132498215D01*
X144140185Y-132396395D01*
X144020458Y-132316396D01*
X143887425Y-132261292D01*
X143746197Y-132233200D01*
X143602203Y-132233200D01*
X143460975Y-132261292D01*
X143327942Y-132316396D01*
X143208215Y-132396395D01*
X143106395Y-132498215D01*
X143026396Y-132617942D01*
X142971292Y-132750975D01*
X142943200Y-132892203D01*
X137381800Y-132892203D01*
X137381800Y-132220600D01*
X158729557Y-132220600D01*
X158729557Y-133820600D01*
X158736913Y-133895289D01*
X158758699Y-133967108D01*
X158794078Y-134033296D01*
X158841689Y-134091311D01*
X158899704Y-134138922D01*
X158965892Y-134174301D01*
X159037711Y-134196087D01*
X159112400Y-134203443D01*
X160712400Y-134203443D01*
X160787089Y-134196087D01*
X160858908Y-134174301D01*
X160925096Y-134138922D01*
X160983111Y-134091311D01*
X161030722Y-134033296D01*
X161066101Y-133967108D01*
X161087887Y-133895289D01*
X161095243Y-133820600D01*
X161095243Y-132220600D01*
X161087887Y-132145911D01*
X161066101Y-132074092D01*
X161030722Y-132007904D01*
X160983111Y-131949889D01*
X160925096Y-131902278D01*
X160858908Y-131866899D01*
X160787089Y-131845113D01*
X160760674Y-131842511D01*
X160829742Y-131773443D01*
X160958988Y-131580013D01*
X161048014Y-131365085D01*
X161093400Y-131136918D01*
X161093400Y-130904282D01*
X161048014Y-130676115D01*
X160958988Y-130461187D01*
X160829742Y-130267757D01*
X160665243Y-130103258D01*
X160541537Y-130020600D01*
X160665243Y-129937942D01*
X160829742Y-129773443D01*
X160958988Y-129580013D01*
X161048014Y-129365085D01*
X161093400Y-129136918D01*
X161093400Y-128904282D01*
X161048014Y-128676115D01*
X160958988Y-128461187D01*
X160829742Y-128267757D01*
X160665243Y-128103258D01*
X160471813Y-127974012D01*
X160256885Y-127884986D01*
X160028718Y-127839600D01*
X159796082Y-127839600D01*
X159567915Y-127884986D01*
X159352987Y-127974012D01*
X159159557Y-128103258D01*
X158995058Y-128267757D01*
X158865812Y-128461187D01*
X158776786Y-128676115D01*
X158731400Y-128904282D01*
X158731400Y-129136918D01*
X158776786Y-129365085D01*
X158865812Y-129580013D01*
X158995058Y-129773443D01*
X159159557Y-129937942D01*
X159283263Y-130020600D01*
X159159557Y-130103258D01*
X158995058Y-130267757D01*
X158865812Y-130461187D01*
X158776786Y-130676115D01*
X158731400Y-130904282D01*
X158731400Y-131136918D01*
X158776786Y-131365085D01*
X158865812Y-131580013D01*
X158995058Y-131773443D01*
X159064126Y-131842511D01*
X159037711Y-131845113D01*
X158965892Y-131866899D01*
X158899704Y-131902278D01*
X158841689Y-131949889D01*
X158794078Y-132007904D01*
X158758699Y-132074092D01*
X158736913Y-132145911D01*
X158729557Y-132220600D01*
X137381800Y-132220600D01*
X137381800Y-129654378D01*
X142329300Y-129654378D01*
X142329300Y-129808222D01*
X142359313Y-129959109D01*
X142418187Y-130101242D01*
X142503658Y-130229159D01*
X142612441Y-130337942D01*
X142740358Y-130423413D01*
X142882491Y-130482287D01*
X143033378Y-130512300D01*
X143187222Y-130512300D01*
X143338109Y-130482287D01*
X143480242Y-130423413D01*
X143608159Y-130337942D01*
X143716942Y-130229159D01*
X143802413Y-130101242D01*
X143861287Y-129959109D01*
X143891300Y-129808222D01*
X143891300Y-129654378D01*
X143861287Y-129503491D01*
X143802413Y-129361358D01*
X143716942Y-129233441D01*
X143608159Y-129124658D01*
X143480242Y-129039187D01*
X143338109Y-128980313D01*
X143187222Y-128950300D01*
X143033378Y-128950300D01*
X142882491Y-128980313D01*
X142740358Y-129039187D01*
X142612441Y-129124658D01*
X142503658Y-129233441D01*
X142418187Y-129361358D01*
X142359313Y-129503491D01*
X142329300Y-129654378D01*
X137381800Y-129654378D01*
X137381800Y-127112203D01*
X142943200Y-127112203D01*
X142943200Y-127256197D01*
X142971292Y-127397425D01*
X143026396Y-127530458D01*
X143106395Y-127650185D01*
X143208215Y-127752005D01*
X143327942Y-127832004D01*
X143460975Y-127887108D01*
X143602203Y-127915200D01*
X143746197Y-127915200D01*
X143887425Y-127887108D01*
X144020458Y-127832004D01*
X144140185Y-127752005D01*
X144242005Y-127650185D01*
X144322004Y-127530458D01*
X144377108Y-127397425D01*
X144405200Y-127256197D01*
X144405200Y-127112203D01*
X144377108Y-126970975D01*
X144322004Y-126837942D01*
X144242005Y-126718215D01*
X144140185Y-126616395D01*
X144020458Y-126536396D01*
X143887425Y-126481292D01*
X143746197Y-126453200D01*
X143602203Y-126453200D01*
X143460975Y-126481292D01*
X143327942Y-126536396D01*
X143208215Y-126616395D01*
X143106395Y-126718215D01*
X143026396Y-126837942D01*
X142971292Y-126970975D01*
X142943200Y-127112203D01*
X137381800Y-127112203D01*
X137381800Y-123522818D01*
X144945500Y-123522818D01*
X144945500Y-123676662D01*
X144975513Y-123827549D01*
X145034387Y-123969682D01*
X145119858Y-124097599D01*
X145228641Y-124206382D01*
X145356558Y-124291853D01*
X145498691Y-124350727D01*
X145649578Y-124380740D01*
X145803422Y-124380740D01*
X145954309Y-124350727D01*
X146096442Y-124291853D01*
X146224359Y-124206382D01*
X146333142Y-124097599D01*
X146418613Y-123969682D01*
X146477487Y-123827549D01*
X146507500Y-123676662D01*
X146507500Y-123522818D01*
X146477487Y-123371931D01*
X146418613Y-123229798D01*
X146333142Y-123101881D01*
X146224359Y-122993098D01*
X146096442Y-122907627D01*
X145954309Y-122848753D01*
X145803422Y-122818740D01*
X145649578Y-122818740D01*
X145498691Y-122848753D01*
X145356558Y-122907627D01*
X145228641Y-122993098D01*
X145119858Y-123101881D01*
X145034387Y-123229798D01*
X144975513Y-123371931D01*
X144945500Y-123522818D01*
X137381800Y-123522818D01*
X137381800Y-122535743D01*
X143628902Y-122535743D01*
X143628902Y-122689587D01*
X143658915Y-122840474D01*
X143717789Y-122982607D01*
X143803260Y-123110524D01*
X143912043Y-123219307D01*
X144039960Y-123304778D01*
X144182093Y-123363652D01*
X144332980Y-123393665D01*
X144486824Y-123393665D01*
X144637711Y-123363652D01*
X144779844Y-123304778D01*
X144907761Y-123219307D01*
X145016544Y-123110524D01*
X145102015Y-122982607D01*
X145160889Y-122840474D01*
X145190902Y-122689587D01*
X145190902Y-122535743D01*
X145160889Y-122384856D01*
X145147229Y-122351878D01*
X150203068Y-122351878D01*
X150203068Y-122505722D01*
X150233081Y-122656609D01*
X150291955Y-122798742D01*
X150377426Y-122926659D01*
X150486209Y-123035442D01*
X150614126Y-123120913D01*
X150756259Y-123179787D01*
X150907146Y-123209800D01*
X151060990Y-123209800D01*
X151211877Y-123179787D01*
X151354010Y-123120913D01*
X151481927Y-123035442D01*
X151590710Y-122926659D01*
X151676181Y-122798742D01*
X151735055Y-122656609D01*
X151765068Y-122505722D01*
X151765068Y-122351878D01*
X151735055Y-122200991D01*
X151676181Y-122058858D01*
X151636064Y-121998818D01*
X154216500Y-121998818D01*
X154216500Y-122152662D01*
X154246513Y-122303549D01*
X154305387Y-122445682D01*
X154390858Y-122573599D01*
X154499641Y-122682382D01*
X154627558Y-122767853D01*
X154769691Y-122826727D01*
X154920578Y-122856740D01*
X155074422Y-122856740D01*
X155225309Y-122826727D01*
X155367442Y-122767853D01*
X155495359Y-122682382D01*
X155604142Y-122573599D01*
X155689613Y-122445682D01*
X155748487Y-122303549D01*
X155778500Y-122152662D01*
X155778500Y-121998818D01*
X155748487Y-121847931D01*
X155689613Y-121705798D01*
X155604142Y-121577881D01*
X155495359Y-121469098D01*
X155367442Y-121383627D01*
X155225309Y-121324753D01*
X155074422Y-121294740D01*
X154920578Y-121294740D01*
X154769691Y-121324753D01*
X154627558Y-121383627D01*
X154499641Y-121469098D01*
X154390858Y-121577881D01*
X154305387Y-121705798D01*
X154246513Y-121847931D01*
X154216500Y-121998818D01*
X151636064Y-121998818D01*
X151590710Y-121930941D01*
X151481927Y-121822158D01*
X151354010Y-121736687D01*
X151211877Y-121677813D01*
X151060990Y-121647800D01*
X150907146Y-121647800D01*
X150756259Y-121677813D01*
X150614126Y-121736687D01*
X150486209Y-121822158D01*
X150377426Y-121930941D01*
X150291955Y-122058858D01*
X150233081Y-122200991D01*
X150203068Y-122351878D01*
X145147229Y-122351878D01*
X145102015Y-122242723D01*
X145016544Y-122114806D01*
X144907761Y-122006023D01*
X144779844Y-121920552D01*
X144637711Y-121861678D01*
X144486824Y-121831665D01*
X144332980Y-121831665D01*
X144182093Y-121861678D01*
X144039960Y-121920552D01*
X143912043Y-122006023D01*
X143803260Y-122114806D01*
X143717789Y-122242723D01*
X143658915Y-122384856D01*
X143628902Y-122535743D01*
X137381800Y-122535743D01*
X137381800Y-120685638D01*
X145542400Y-120685638D01*
X145542400Y-120839482D01*
X145572413Y-120990369D01*
X145631287Y-121132502D01*
X145716758Y-121260419D01*
X145825541Y-121369202D01*
X145953458Y-121454673D01*
X146095591Y-121513547D01*
X146246478Y-121543560D01*
X146400322Y-121543560D01*
X146551209Y-121513547D01*
X146693342Y-121454673D01*
X146821259Y-121369202D01*
X146930042Y-121260419D01*
X147015513Y-121132502D01*
X147074387Y-120990369D01*
X147104400Y-120839482D01*
X147104400Y-120685638D01*
X147074387Y-120534751D01*
X147015513Y-120392618D01*
X146930042Y-120264701D01*
X146821259Y-120155918D01*
X146693342Y-120070447D01*
X146551209Y-120011573D01*
X146400322Y-119981560D01*
X146246478Y-119981560D01*
X146095591Y-120011573D01*
X145953458Y-120070447D01*
X145825541Y-120155918D01*
X145716758Y-120264701D01*
X145631287Y-120392618D01*
X145572413Y-120534751D01*
X145542400Y-120685638D01*
X137381800Y-120685638D01*
X137381800Y-118585058D01*
X142334380Y-118585058D01*
X142334380Y-118738902D01*
X142364393Y-118889789D01*
X142423267Y-119031922D01*
X142508738Y-119159839D01*
X142617521Y-119268622D01*
X142745438Y-119354093D01*
X142887571Y-119412967D01*
X143038458Y-119442980D01*
X143192302Y-119442980D01*
X143343189Y-119412967D01*
X143434200Y-119375269D01*
X143434200Y-119521222D01*
X143464213Y-119672109D01*
X143523087Y-119814242D01*
X143608558Y-119942159D01*
X143717341Y-120050942D01*
X143845258Y-120136413D01*
X143987391Y-120195287D01*
X144138278Y-120225300D01*
X144292122Y-120225300D01*
X144443009Y-120195287D01*
X144585142Y-120136413D01*
X144713059Y-120050942D01*
X144821842Y-119942159D01*
X144907313Y-119814242D01*
X144966187Y-119672109D01*
X144996200Y-119521222D01*
X144996200Y-119400398D01*
X147361040Y-119400398D01*
X147361040Y-119554242D01*
X147391053Y-119705129D01*
X147449927Y-119847262D01*
X147535398Y-119975179D01*
X147644181Y-120083962D01*
X147758848Y-120160580D01*
X147644181Y-120237198D01*
X147535398Y-120345981D01*
X147449927Y-120473898D01*
X147391053Y-120616031D01*
X147361040Y-120766918D01*
X147361040Y-120920762D01*
X147391053Y-121071649D01*
X147449927Y-121213782D01*
X147535398Y-121341699D01*
X147644181Y-121450482D01*
X147772098Y-121535953D01*
X147914231Y-121594827D01*
X148065118Y-121624840D01*
X148218962Y-121624840D01*
X148369849Y-121594827D01*
X148511982Y-121535953D01*
X148639899Y-121450482D01*
X148748682Y-121341699D01*
X148834153Y-121213782D01*
X148893027Y-121071649D01*
X148918780Y-120942178D01*
X156169300Y-120942178D01*
X156169300Y-121096022D01*
X156199313Y-121246909D01*
X156258187Y-121389042D01*
X156343658Y-121516959D01*
X156452441Y-121625742D01*
X156580358Y-121711213D01*
X156722491Y-121770087D01*
X156873378Y-121800100D01*
X157027222Y-121800100D01*
X157178109Y-121770087D01*
X157320242Y-121711213D01*
X157448159Y-121625742D01*
X157556942Y-121516959D01*
X157642413Y-121389042D01*
X157701287Y-121246909D01*
X157731300Y-121096022D01*
X157731300Y-120942178D01*
X157701287Y-120791291D01*
X157642413Y-120649158D01*
X157556942Y-120521241D01*
X157448159Y-120412458D01*
X157320242Y-120326987D01*
X157178109Y-120268113D01*
X157027222Y-120238100D01*
X156873378Y-120238100D01*
X156722491Y-120268113D01*
X156580358Y-120326987D01*
X156452441Y-120412458D01*
X156343658Y-120521241D01*
X156258187Y-120649158D01*
X156199313Y-120791291D01*
X156169300Y-120942178D01*
X148918780Y-120942178D01*
X148923040Y-120920762D01*
X148923040Y-120766918D01*
X148893027Y-120616031D01*
X148834153Y-120473898D01*
X148748682Y-120345981D01*
X148639899Y-120237198D01*
X148525232Y-120160580D01*
X148639899Y-120083962D01*
X148748682Y-119975179D01*
X148834153Y-119847262D01*
X148893027Y-119705129D01*
X148923040Y-119554242D01*
X148923040Y-119408018D01*
X157932520Y-119408018D01*
X157932520Y-119561862D01*
X157962533Y-119712749D01*
X158021407Y-119854882D01*
X158106878Y-119982799D01*
X158215661Y-120091582D01*
X158343578Y-120177053D01*
X158485711Y-120235927D01*
X158636598Y-120265940D01*
X158790442Y-120265940D01*
X158941329Y-120235927D01*
X159083462Y-120177053D01*
X159211379Y-120091582D01*
X159320162Y-119982799D01*
X159405633Y-119854882D01*
X159464507Y-119712749D01*
X159494520Y-119561862D01*
X159494520Y-119408018D01*
X159464507Y-119257131D01*
X159405633Y-119114998D01*
X159320162Y-118987081D01*
X159211379Y-118878298D01*
X159083462Y-118792827D01*
X158941329Y-118733953D01*
X158790442Y-118703940D01*
X158636598Y-118703940D01*
X158485711Y-118733953D01*
X158343578Y-118792827D01*
X158215661Y-118878298D01*
X158106878Y-118987081D01*
X158021407Y-119114998D01*
X157962533Y-119257131D01*
X157932520Y-119408018D01*
X148923040Y-119408018D01*
X148923040Y-119400398D01*
X148893027Y-119249511D01*
X148834153Y-119107378D01*
X148748682Y-118979461D01*
X148639899Y-118870678D01*
X148511982Y-118785207D01*
X148369849Y-118726333D01*
X148218962Y-118696320D01*
X148065118Y-118696320D01*
X147914231Y-118726333D01*
X147772098Y-118785207D01*
X147644181Y-118870678D01*
X147535398Y-118979461D01*
X147449927Y-119107378D01*
X147391053Y-119249511D01*
X147361040Y-119400398D01*
X144996200Y-119400398D01*
X144996200Y-119367378D01*
X144966187Y-119216491D01*
X144907313Y-119074358D01*
X144821842Y-118946441D01*
X144713059Y-118837658D01*
X144585142Y-118752187D01*
X144443009Y-118693313D01*
X144292122Y-118663300D01*
X144138278Y-118663300D01*
X143987391Y-118693313D01*
X143896380Y-118731011D01*
X143896380Y-118585058D01*
X143866367Y-118434171D01*
X143807493Y-118292038D01*
X143722022Y-118164121D01*
X143613239Y-118055338D01*
X143485322Y-117969867D01*
X143343189Y-117910993D01*
X143192302Y-117880980D01*
X143038458Y-117880980D01*
X142887571Y-117910993D01*
X142745438Y-117969867D01*
X142617521Y-118055338D01*
X142508738Y-118164121D01*
X142423267Y-118292038D01*
X142364393Y-118434171D01*
X142334380Y-118585058D01*
X137381800Y-118585058D01*
X137381800Y-114693778D01*
X150216000Y-114693778D01*
X150216000Y-114847622D01*
X150246013Y-114998509D01*
X150304887Y-115140642D01*
X150390358Y-115268559D01*
X150499141Y-115377342D01*
X150627058Y-115462813D01*
X150769191Y-115521687D01*
X150920078Y-115551700D01*
X151073922Y-115551700D01*
X151224809Y-115521687D01*
X151366942Y-115462813D01*
X151494859Y-115377342D01*
X151603642Y-115268559D01*
X151689113Y-115140642D01*
X151747987Y-114998509D01*
X151778000Y-114847622D01*
X151778000Y-114693778D01*
X151775474Y-114681078D01*
X152146400Y-114681078D01*
X152146400Y-114834922D01*
X152176413Y-114985809D01*
X152235287Y-115127942D01*
X152320758Y-115255859D01*
X152429541Y-115364642D01*
X152557458Y-115450113D01*
X152699591Y-115508987D01*
X152850478Y-115539000D01*
X153004322Y-115539000D01*
X153155209Y-115508987D01*
X153297342Y-115450113D01*
X153425259Y-115364642D01*
X153534042Y-115255859D01*
X153619513Y-115127942D01*
X153678387Y-114985809D01*
X153708400Y-114834922D01*
X153708400Y-114681078D01*
X153678387Y-114530191D01*
X153619513Y-114388058D01*
X153534042Y-114260141D01*
X153425259Y-114151358D01*
X153297342Y-114065887D01*
X153155209Y-114007013D01*
X153004322Y-113977000D01*
X152850478Y-113977000D01*
X152699591Y-114007013D01*
X152557458Y-114065887D01*
X152429541Y-114151358D01*
X152320758Y-114260141D01*
X152235287Y-114388058D01*
X152176413Y-114530191D01*
X152146400Y-114681078D01*
X151775474Y-114681078D01*
X151747987Y-114542891D01*
X151689113Y-114400758D01*
X151603642Y-114272841D01*
X151494859Y-114164058D01*
X151366942Y-114078587D01*
X151224809Y-114019713D01*
X151073922Y-113989700D01*
X150920078Y-113989700D01*
X150769191Y-114019713D01*
X150627058Y-114078587D01*
X150499141Y-114164058D01*
X150390358Y-114272841D01*
X150304887Y-114400758D01*
X150246013Y-114542891D01*
X150216000Y-114693778D01*
X137381800Y-114693778D01*
X137381800Y-112472067D01*
X137493820Y-112639717D01*
X137665283Y-112811180D01*
X137866903Y-112945898D01*
X138090931Y-113038693D01*
X138328757Y-113086000D01*
X138571243Y-113086000D01*
X138809069Y-113038693D01*
X139033097Y-112945898D01*
X139234717Y-112811180D01*
X139406180Y-112639717D01*
X139484783Y-112522078D01*
X157112100Y-112522078D01*
X157112100Y-112675922D01*
X157142113Y-112826809D01*
X157200987Y-112968942D01*
X157286458Y-113096859D01*
X157395241Y-113205642D01*
X157523158Y-113291113D01*
X157665291Y-113349987D01*
X157816178Y-113380000D01*
X157970022Y-113380000D01*
X158120909Y-113349987D01*
X158263042Y-113291113D01*
X158390959Y-113205642D01*
X158499742Y-113096859D01*
X158585213Y-112968942D01*
X158644087Y-112826809D01*
X158674100Y-112675922D01*
X158674100Y-112522078D01*
X158644087Y-112371191D01*
X158585213Y-112229058D01*
X158499742Y-112101141D01*
X158390959Y-111992358D01*
X158263042Y-111906887D01*
X158120909Y-111848013D01*
X157970022Y-111818000D01*
X157816178Y-111818000D01*
X157665291Y-111848013D01*
X157523158Y-111906887D01*
X157395241Y-111992358D01*
X157286458Y-112101141D01*
X157200987Y-112229058D01*
X157142113Y-112371191D01*
X157112100Y-112522078D01*
X139484783Y-112522078D01*
X139540898Y-112438097D01*
X139633693Y-112214069D01*
X139681000Y-111976243D01*
X139681000Y-111733757D01*
X139633693Y-111495931D01*
X139540898Y-111271903D01*
X139406180Y-111070283D01*
X139298415Y-110962518D01*
X139621660Y-110962518D01*
X139621660Y-111116362D01*
X139651673Y-111267249D01*
X139710547Y-111409382D01*
X139796018Y-111537299D01*
X139904801Y-111646082D01*
X140032718Y-111731553D01*
X140174851Y-111790427D01*
X140325738Y-111820440D01*
X140479582Y-111820440D01*
X140630469Y-111790427D01*
X140772602Y-111731553D01*
X140900519Y-111646082D01*
X141009302Y-111537299D01*
X141094773Y-111409382D01*
X141153647Y-111267249D01*
X141183660Y-111116362D01*
X141183660Y-110962518D01*
X141153647Y-110811631D01*
X141094773Y-110669498D01*
X141009302Y-110541581D01*
X140900519Y-110432798D01*
X140772602Y-110347327D01*
X140630469Y-110288453D01*
X140479582Y-110258440D01*
X140325738Y-110258440D01*
X140174851Y-110288453D01*
X140032718Y-110347327D01*
X139904801Y-110432798D01*
X139796018Y-110541581D01*
X139710547Y-110669498D01*
X139651673Y-110811631D01*
X139621660Y-110962518D01*
X139298415Y-110962518D01*
X139234717Y-110898820D01*
X139033097Y-110764102D01*
X138809069Y-110671307D01*
X138571243Y-110624000D01*
X138328757Y-110624000D01*
X138090931Y-110671307D01*
X137866903Y-110764102D01*
X137665283Y-110898820D01*
X137493820Y-111070283D01*
X137381800Y-111237933D01*
X137381800Y-109932067D01*
X137493820Y-110099717D01*
X137665283Y-110271180D01*
X137866903Y-110405898D01*
X138090931Y-110498693D01*
X138328757Y-110546000D01*
X138571243Y-110546000D01*
X138809069Y-110498693D01*
X139033097Y-110405898D01*
X139234717Y-110271180D01*
X139406180Y-110099717D01*
X139540898Y-109898097D01*
X139633693Y-109674069D01*
X139642599Y-109629295D01*
X143541941Y-109629295D01*
X143541941Y-109783139D01*
X143571954Y-109934026D01*
X143630828Y-110076159D01*
X143716299Y-110204076D01*
X143825082Y-110312859D01*
X143952999Y-110398330D01*
X144095132Y-110457204D01*
X144239380Y-110485896D01*
X144239380Y-110519462D01*
X144269393Y-110670349D01*
X144328267Y-110812482D01*
X144413738Y-110940399D01*
X144522521Y-111049182D01*
X144650438Y-111134653D01*
X144792571Y-111193527D01*
X144943458Y-111223540D01*
X145097302Y-111223540D01*
X145248189Y-111193527D01*
X145390322Y-111134653D01*
X145518239Y-111049182D01*
X145627022Y-110940399D01*
X145712493Y-110812482D01*
X145771367Y-110670349D01*
X145794593Y-110553578D01*
X157099400Y-110553578D01*
X157099400Y-110707422D01*
X157129413Y-110858309D01*
X157188287Y-111000442D01*
X157273758Y-111128359D01*
X157382541Y-111237142D01*
X157510458Y-111322613D01*
X157652591Y-111381487D01*
X157803478Y-111411500D01*
X157957322Y-111411500D01*
X158108209Y-111381487D01*
X158250342Y-111322613D01*
X158378259Y-111237142D01*
X158487042Y-111128359D01*
X158572513Y-111000442D01*
X158631387Y-110858309D01*
X158661400Y-110707422D01*
X158661400Y-110553578D01*
X158631387Y-110402691D01*
X158572513Y-110260558D01*
X158487042Y-110132641D01*
X158378259Y-110023858D01*
X158250342Y-109938387D01*
X158108209Y-109879513D01*
X157957322Y-109849500D01*
X157803478Y-109849500D01*
X157652591Y-109879513D01*
X157510458Y-109938387D01*
X157382541Y-110023858D01*
X157273758Y-110132641D01*
X157188287Y-110260558D01*
X157129413Y-110402691D01*
X157099400Y-110553578D01*
X145794593Y-110553578D01*
X145801380Y-110519462D01*
X145801380Y-110365618D01*
X145771367Y-110214731D01*
X145712493Y-110072598D01*
X145627022Y-109944681D01*
X145518239Y-109835898D01*
X145390322Y-109750427D01*
X145248189Y-109691553D01*
X145103941Y-109662861D01*
X145103941Y-109629295D01*
X145073928Y-109478408D01*
X145015054Y-109336275D01*
X144929583Y-109208358D01*
X144820800Y-109099575D01*
X144692883Y-109014104D01*
X144550750Y-108955230D01*
X144399863Y-108925217D01*
X144246019Y-108925217D01*
X144095132Y-108955230D01*
X143952999Y-109014104D01*
X143825082Y-109099575D01*
X143716299Y-109208358D01*
X143630828Y-109336275D01*
X143571954Y-109478408D01*
X143541941Y-109629295D01*
X139642599Y-109629295D01*
X139681000Y-109436243D01*
X139681000Y-109193757D01*
X139633693Y-108955931D01*
X139540898Y-108731903D01*
X139406180Y-108530283D01*
X139234717Y-108358820D01*
X139033097Y-108224102D01*
X138809069Y-108131307D01*
X138571243Y-108084000D01*
X138328757Y-108084000D01*
X138090931Y-108131307D01*
X137866903Y-108224102D01*
X137665283Y-108358820D01*
X137493820Y-108530283D01*
X137381800Y-108697933D01*
X137381800Y-107392067D01*
X137493820Y-107559717D01*
X137665283Y-107731180D01*
X137866903Y-107865898D01*
X138090931Y-107958693D01*
X138328757Y-108006000D01*
X138571243Y-108006000D01*
X138809069Y-107958693D01*
X139033097Y-107865898D01*
X139234717Y-107731180D01*
X139406180Y-107559717D01*
X139540898Y-107358097D01*
X139633693Y-107134069D01*
X139681000Y-106896243D01*
X139681000Y-106653757D01*
X139633693Y-106415931D01*
X139540898Y-106191903D01*
X139486707Y-106110800D01*
X142458522Y-106110800D01*
X142458522Y-106264644D01*
X142488535Y-106415531D01*
X142547409Y-106557664D01*
X142632880Y-106685581D01*
X142741663Y-106794364D01*
X142869580Y-106879835D01*
X143011713Y-106938709D01*
X143162600Y-106968722D01*
X143316444Y-106968722D01*
X143467331Y-106938709D01*
X143609464Y-106879835D01*
X143737381Y-106794364D01*
X143846164Y-106685581D01*
X143931635Y-106557664D01*
X143990509Y-106415531D01*
X144020522Y-106264644D01*
X144020522Y-106227958D01*
X150744320Y-106227958D01*
X150744320Y-106381802D01*
X150774333Y-106532689D01*
X150833207Y-106674822D01*
X150918678Y-106802739D01*
X151027461Y-106911522D01*
X151155378Y-106996993D01*
X151297511Y-107055867D01*
X151448398Y-107085880D01*
X151602242Y-107085880D01*
X151753129Y-107055867D01*
X151895262Y-106996993D01*
X152023179Y-106911522D01*
X152131962Y-106802739D01*
X152173886Y-106739995D01*
X152198838Y-106777339D01*
X152307621Y-106886122D01*
X152435538Y-106971593D01*
X152577671Y-107030467D01*
X152728558Y-107060480D01*
X152882402Y-107060480D01*
X152904934Y-107055998D01*
X156477100Y-107055998D01*
X156477100Y-107209842D01*
X156507113Y-107360729D01*
X156565987Y-107502862D01*
X156651458Y-107630779D01*
X156760241Y-107739562D01*
X156888158Y-107825033D01*
X157030291Y-107883907D01*
X157181178Y-107913920D01*
X157335022Y-107913920D01*
X157485909Y-107883907D01*
X157628042Y-107825033D01*
X157755959Y-107739562D01*
X157864742Y-107630779D01*
X157950213Y-107502862D01*
X158009087Y-107360729D01*
X158039100Y-107209842D01*
X158039100Y-107055998D01*
X158009087Y-106905111D01*
X157950213Y-106762978D01*
X157864742Y-106635061D01*
X157755959Y-106526278D01*
X157628042Y-106440807D01*
X157485909Y-106381933D01*
X157335022Y-106351920D01*
X157181178Y-106351920D01*
X157030291Y-106381933D01*
X156888158Y-106440807D01*
X156760241Y-106526278D01*
X156651458Y-106635061D01*
X156565987Y-106762978D01*
X156507113Y-106905111D01*
X156477100Y-107055998D01*
X152904934Y-107055998D01*
X153033289Y-107030467D01*
X153175422Y-106971593D01*
X153303339Y-106886122D01*
X153412122Y-106777339D01*
X153497593Y-106649422D01*
X153556467Y-106507289D01*
X153586480Y-106356402D01*
X153586480Y-106202558D01*
X153556467Y-106051671D01*
X153497593Y-105909538D01*
X153412122Y-105781621D01*
X153303339Y-105672838D01*
X153175422Y-105587367D01*
X153033289Y-105528493D01*
X152882402Y-105498480D01*
X152728558Y-105498480D01*
X152577671Y-105528493D01*
X152435538Y-105587367D01*
X152307621Y-105672838D01*
X152198838Y-105781621D01*
X152156914Y-105844365D01*
X152131962Y-105807021D01*
X152023179Y-105698238D01*
X151895262Y-105612767D01*
X151753129Y-105553893D01*
X151602242Y-105523880D01*
X151448398Y-105523880D01*
X151297511Y-105553893D01*
X151155378Y-105612767D01*
X151027461Y-105698238D01*
X150918678Y-105807021D01*
X150833207Y-105934938D01*
X150774333Y-106077071D01*
X150744320Y-106227958D01*
X144020522Y-106227958D01*
X144020522Y-106110800D01*
X143990509Y-105959913D01*
X143931635Y-105817780D01*
X143846164Y-105689863D01*
X143737381Y-105581080D01*
X143609464Y-105495609D01*
X143467331Y-105436735D01*
X143316444Y-105406722D01*
X143162600Y-105406722D01*
X143011713Y-105436735D01*
X142869580Y-105495609D01*
X142741663Y-105581080D01*
X142632880Y-105689863D01*
X142547409Y-105817780D01*
X142488535Y-105959913D01*
X142458522Y-106110800D01*
X139486707Y-106110800D01*
X139406180Y-105990283D01*
X139234717Y-105818820D01*
X139033097Y-105684102D01*
X138809069Y-105591307D01*
X138571243Y-105544000D01*
X138328757Y-105544000D01*
X138090931Y-105591307D01*
X137866903Y-105684102D01*
X137665283Y-105818820D01*
X137493820Y-105990283D01*
X137381800Y-106157933D01*
X137381800Y-104852067D01*
X137493820Y-105019717D01*
X137665283Y-105191180D01*
X137866903Y-105325898D01*
X138090931Y-105418693D01*
X138328757Y-105466000D01*
X138571243Y-105466000D01*
X138809069Y-105418693D01*
X139033097Y-105325898D01*
X139234717Y-105191180D01*
X139406180Y-105019717D01*
X139540898Y-104818097D01*
X139633693Y-104594069D01*
X139681000Y-104356243D01*
X139681000Y-104113757D01*
X139633693Y-103875931D01*
X139540898Y-103651903D01*
X139406180Y-103450283D01*
X139234717Y-103278820D01*
X139033097Y-103144102D01*
X138809069Y-103051307D01*
X138571243Y-103004000D01*
X138328757Y-103004000D01*
X138090931Y-103051307D01*
X137866903Y-103144102D01*
X137665283Y-103278820D01*
X137493820Y-103450283D01*
X137381800Y-103617933D01*
X137381800Y-102312067D01*
X137493820Y-102479717D01*
X137665283Y-102651180D01*
X137866903Y-102785898D01*
X138090931Y-102878693D01*
X138328757Y-102926000D01*
X138571243Y-102926000D01*
X138809069Y-102878693D01*
X139033097Y-102785898D01*
X139234717Y-102651180D01*
X139406180Y-102479717D01*
X139540898Y-102278097D01*
X139633693Y-102054069D01*
X139681000Y-101816243D01*
X139681000Y-101573757D01*
X139633693Y-101335931D01*
X139540898Y-101111903D01*
X139406180Y-100910283D01*
X139234717Y-100738820D01*
X139033097Y-100604102D01*
X138809069Y-100511307D01*
X138571243Y-100464000D01*
X138328757Y-100464000D01*
X138090931Y-100511307D01*
X137866903Y-100604102D01*
X137665283Y-100738820D01*
X137493820Y-100910283D01*
X137381800Y-101077933D01*
X137381800Y-99772067D01*
X137493820Y-99939717D01*
X137665283Y-100111180D01*
X137866903Y-100245898D01*
X138090931Y-100338693D01*
X138328757Y-100386000D01*
X138571243Y-100386000D01*
X138809069Y-100338693D01*
X139033097Y-100245898D01*
X139066770Y-100223398D01*
X156743800Y-100223398D01*
X156743800Y-100377242D01*
X156773813Y-100528129D01*
X156832687Y-100670262D01*
X156918158Y-100798179D01*
X157026941Y-100906962D01*
X157154858Y-100992433D01*
X157296991Y-101051307D01*
X157447878Y-101081320D01*
X157601722Y-101081320D01*
X157752609Y-101051307D01*
X157894742Y-100992433D01*
X158022659Y-100906962D01*
X158131442Y-100798179D01*
X158216913Y-100670262D01*
X158275787Y-100528129D01*
X158305800Y-100377242D01*
X158305800Y-100223398D01*
X158275787Y-100072511D01*
X158216913Y-99930378D01*
X158131442Y-99802461D01*
X158022659Y-99693678D01*
X157894742Y-99608207D01*
X157752609Y-99549333D01*
X157601722Y-99519320D01*
X157447878Y-99519320D01*
X157296991Y-99549333D01*
X157154858Y-99608207D01*
X157026941Y-99693678D01*
X156918158Y-99802461D01*
X156832687Y-99930378D01*
X156773813Y-100072511D01*
X156743800Y-100223398D01*
X139066770Y-100223398D01*
X139234717Y-100111180D01*
X139406180Y-99939717D01*
X139540898Y-99738097D01*
X139633693Y-99514069D01*
X139679536Y-99283598D01*
X146332340Y-99283598D01*
X146332340Y-99437442D01*
X146362353Y-99588329D01*
X146421227Y-99730462D01*
X146506698Y-99858379D01*
X146615481Y-99967162D01*
X146743398Y-100052633D01*
X146885531Y-100111507D01*
X147036418Y-100141520D01*
X147190262Y-100141520D01*
X147341149Y-100111507D01*
X147483282Y-100052633D01*
X147611199Y-99967162D01*
X147719982Y-99858379D01*
X147805453Y-99730462D01*
X147864327Y-99588329D01*
X147894340Y-99437442D01*
X147894340Y-99283598D01*
X147892825Y-99275978D01*
X150431500Y-99275978D01*
X150431500Y-99429822D01*
X150461513Y-99580709D01*
X150520387Y-99722842D01*
X150605858Y-99850759D01*
X150714641Y-99959542D01*
X150842558Y-100045013D01*
X150984691Y-100103887D01*
X151135578Y-100133900D01*
X151289422Y-100133900D01*
X151440309Y-100103887D01*
X151582442Y-100045013D01*
X151710359Y-99959542D01*
X151819142Y-99850759D01*
X151904613Y-99722842D01*
X151963487Y-99580709D01*
X151993500Y-99429822D01*
X151993500Y-99275978D01*
X151963487Y-99125091D01*
X151904613Y-98982958D01*
X151819142Y-98855041D01*
X151710359Y-98746258D01*
X151582442Y-98660787D01*
X151440309Y-98601913D01*
X151289422Y-98571900D01*
X151135578Y-98571900D01*
X150984691Y-98601913D01*
X150842558Y-98660787D01*
X150714641Y-98746258D01*
X150605858Y-98855041D01*
X150520387Y-98982958D01*
X150461513Y-99125091D01*
X150431500Y-99275978D01*
X147892825Y-99275978D01*
X147864327Y-99132711D01*
X147805453Y-98990578D01*
X147719982Y-98862661D01*
X147611199Y-98753878D01*
X147483282Y-98668407D01*
X147341149Y-98609533D01*
X147190262Y-98579520D01*
X147036418Y-98579520D01*
X146885531Y-98609533D01*
X146743398Y-98668407D01*
X146615481Y-98753878D01*
X146506698Y-98862661D01*
X146421227Y-98990578D01*
X146362353Y-99132711D01*
X146332340Y-99283598D01*
X139679536Y-99283598D01*
X139681000Y-99276243D01*
X139681000Y-99033757D01*
X139633693Y-98795931D01*
X139540898Y-98571903D01*
X139406180Y-98370283D01*
X139318735Y-98282838D01*
X156743800Y-98282838D01*
X156743800Y-98436682D01*
X156773813Y-98587569D01*
X156832687Y-98729702D01*
X156918158Y-98857619D01*
X157026941Y-98966402D01*
X157154858Y-99051873D01*
X157296991Y-99110747D01*
X157447878Y-99140760D01*
X157601722Y-99140760D01*
X157752609Y-99110747D01*
X157894742Y-99051873D01*
X158022659Y-98966402D01*
X158131442Y-98857619D01*
X158216913Y-98729702D01*
X158275787Y-98587569D01*
X158305800Y-98436682D01*
X158305800Y-98282838D01*
X158275787Y-98131951D01*
X158216913Y-97989818D01*
X158131442Y-97861901D01*
X158022659Y-97753118D01*
X157894742Y-97667647D01*
X157752609Y-97608773D01*
X157601722Y-97578760D01*
X157447878Y-97578760D01*
X157296991Y-97608773D01*
X157154858Y-97667647D01*
X157026941Y-97753118D01*
X156918158Y-97861901D01*
X156832687Y-97989818D01*
X156773813Y-98131951D01*
X156743800Y-98282838D01*
X139318735Y-98282838D01*
X139234717Y-98198820D01*
X139033097Y-98064102D01*
X138809069Y-97971307D01*
X138571243Y-97924000D01*
X138328757Y-97924000D01*
X138090931Y-97971307D01*
X137866903Y-98064102D01*
X137665283Y-98198820D01*
X137493820Y-98370283D01*
X137381800Y-98537933D01*
X137381800Y-97232067D01*
X137493820Y-97399717D01*
X137665283Y-97571180D01*
X137866903Y-97705898D01*
X138090931Y-97798693D01*
X138328757Y-97846000D01*
X138571243Y-97846000D01*
X138809069Y-97798693D01*
X139033097Y-97705898D01*
X139234717Y-97571180D01*
X139406180Y-97399717D01*
X139540898Y-97198097D01*
X139633693Y-96974069D01*
X139681000Y-96736243D01*
X139681000Y-96493757D01*
X139633693Y-96255931D01*
X139540898Y-96031903D01*
X139406180Y-95830283D01*
X139234717Y-95658820D01*
X139033097Y-95524102D01*
X138809069Y-95431307D01*
X138571243Y-95384000D01*
X138328757Y-95384000D01*
X138090931Y-95431307D01*
X137866903Y-95524102D01*
X137665283Y-95658820D01*
X137493820Y-95830283D01*
X137381800Y-95997933D01*
X137381800Y-94692067D01*
X137493820Y-94859717D01*
X137665283Y-95031180D01*
X137866903Y-95165898D01*
X138090931Y-95258693D01*
X138328757Y-95306000D01*
X138571243Y-95306000D01*
X138809069Y-95258693D01*
X139033097Y-95165898D01*
X139234717Y-95031180D01*
X139406180Y-94859717D01*
X139540898Y-94658097D01*
X139632363Y-94437278D01*
X142519800Y-94437278D01*
X142519800Y-94591122D01*
X142549813Y-94742009D01*
X142608687Y-94884142D01*
X142694158Y-95012059D01*
X142802941Y-95120842D01*
X142930858Y-95206313D01*
X143072991Y-95265187D01*
X143223878Y-95295200D01*
X143377722Y-95295200D01*
X143528609Y-95265187D01*
X143670742Y-95206313D01*
X143798659Y-95120842D01*
X143907442Y-95012059D01*
X143992913Y-94884142D01*
X144051787Y-94742009D01*
X144081800Y-94591122D01*
X144081800Y-94437278D01*
X144051787Y-94286391D01*
X143992913Y-94144258D01*
X143907442Y-94016341D01*
X143798659Y-93907558D01*
X143670742Y-93822087D01*
X143528609Y-93763213D01*
X143377722Y-93733200D01*
X143223878Y-93733200D01*
X143072991Y-93763213D01*
X142930858Y-93822087D01*
X142802941Y-93907558D01*
X142694158Y-94016341D01*
X142608687Y-94144258D01*
X142549813Y-94286391D01*
X142519800Y-94437278D01*
X139632363Y-94437278D01*
X139633693Y-94434069D01*
X139681000Y-94196243D01*
X139681000Y-93953757D01*
X139633693Y-93715931D01*
X139540898Y-93491903D01*
X139406180Y-93290283D01*
X139234717Y-93118820D01*
X139033097Y-92984102D01*
X138911169Y-92933598D01*
X150068680Y-92933598D01*
X150068680Y-93087442D01*
X150098693Y-93238329D01*
X150157567Y-93380462D01*
X150243038Y-93508379D01*
X150351821Y-93617162D01*
X150479738Y-93702633D01*
X150621871Y-93761507D01*
X150772758Y-93791520D01*
X150926602Y-93791520D01*
X151077489Y-93761507D01*
X151219622Y-93702633D01*
X151347539Y-93617162D01*
X151456322Y-93508379D01*
X151541793Y-93380462D01*
X151600667Y-93238329D01*
X151630680Y-93087442D01*
X151630680Y-92933598D01*
X151600667Y-92782711D01*
X151541793Y-92640578D01*
X151456322Y-92512661D01*
X151347539Y-92403878D01*
X151219622Y-92318407D01*
X151077489Y-92259533D01*
X150926602Y-92229520D01*
X150772758Y-92229520D01*
X150621871Y-92259533D01*
X150479738Y-92318407D01*
X150351821Y-92403878D01*
X150243038Y-92512661D01*
X150157567Y-92640578D01*
X150098693Y-92782711D01*
X150068680Y-92933598D01*
X138911169Y-92933598D01*
X138809069Y-92891307D01*
X138571243Y-92844000D01*
X138328757Y-92844000D01*
X138090931Y-92891307D01*
X137866903Y-92984102D01*
X137665283Y-93118820D01*
X137493820Y-93290283D01*
X137381800Y-93457933D01*
X137381800Y-92152067D01*
X137493820Y-92319717D01*
X137665283Y-92491180D01*
X137866903Y-92625898D01*
X138090931Y-92718693D01*
X138328757Y-92766000D01*
X138571243Y-92766000D01*
X138809069Y-92718693D01*
X139033097Y-92625898D01*
X139234717Y-92491180D01*
X139406180Y-92319717D01*
X139540898Y-92118097D01*
X139633693Y-91894069D01*
X139681000Y-91656243D01*
X139681000Y-91413757D01*
X139633693Y-91175931D01*
X139540898Y-90951903D01*
X139406180Y-90750283D01*
X139234717Y-90578820D01*
X139033097Y-90444102D01*
X138809069Y-90351307D01*
X138571243Y-90304000D01*
X138328757Y-90304000D01*
X138090931Y-90351307D01*
X137866903Y-90444102D01*
X137665283Y-90578820D01*
X137493820Y-90750283D01*
X137381800Y-90917933D01*
X137381800Y-89612067D01*
X137493820Y-89779717D01*
X137665283Y-89951180D01*
X137866903Y-90085898D01*
X138090931Y-90178693D01*
X138328757Y-90226000D01*
X138571243Y-90226000D01*
X138809069Y-90178693D01*
X139033097Y-90085898D01*
X139234717Y-89951180D01*
X139406180Y-89779717D01*
X139540898Y-89578097D01*
X139633693Y-89354069D01*
X139681000Y-89116243D01*
X139681000Y-88873757D01*
X139633693Y-88635931D01*
X139540898Y-88411903D01*
X139406180Y-88210283D01*
X139234717Y-88038820D01*
X139033097Y-87904102D01*
X138809069Y-87811307D01*
X138571243Y-87764000D01*
X138328757Y-87764000D01*
X138090931Y-87811307D01*
X137866903Y-87904102D01*
X137665283Y-88038820D01*
X137493820Y-88210283D01*
X137381800Y-88377933D01*
X137381800Y-87072067D01*
X137493820Y-87239717D01*
X137665283Y-87411180D01*
X137866903Y-87545898D01*
X138090931Y-87638693D01*
X138328757Y-87686000D01*
X138571243Y-87686000D01*
X138809069Y-87638693D01*
X138848263Y-87622458D01*
X142816980Y-87622458D01*
X142816980Y-87776302D01*
X142846993Y-87927189D01*
X142905867Y-88069322D01*
X142991338Y-88197239D01*
X143100121Y-88306022D01*
X143228038Y-88391493D01*
X143370171Y-88450367D01*
X143521058Y-88480380D01*
X143674902Y-88480380D01*
X143825789Y-88450367D01*
X143967922Y-88391493D01*
X144095839Y-88306022D01*
X144204622Y-88197239D01*
X144290093Y-88069322D01*
X144348967Y-87927189D01*
X144378980Y-87776302D01*
X144378980Y-87622458D01*
X144348967Y-87471571D01*
X144290093Y-87329438D01*
X144204622Y-87201521D01*
X144095839Y-87092738D01*
X143967922Y-87007267D01*
X143825789Y-86948393D01*
X143807426Y-86944740D01*
X143835949Y-86939067D01*
X143978082Y-86880193D01*
X144105999Y-86794722D01*
X144214782Y-86685939D01*
X144300253Y-86558022D01*
X144359127Y-86415889D01*
X144389140Y-86265002D01*
X144389140Y-86111158D01*
X144388635Y-86108618D01*
X144939390Y-86108618D01*
X144939390Y-86262462D01*
X144969403Y-86413349D01*
X145028277Y-86555482D01*
X145113748Y-86683399D01*
X145222531Y-86792182D01*
X145350448Y-86877653D01*
X145492581Y-86936527D01*
X145643468Y-86966540D01*
X145797312Y-86966540D01*
X145948199Y-86936527D01*
X146090332Y-86877653D01*
X146218249Y-86792182D01*
X146327032Y-86683399D01*
X146412503Y-86555482D01*
X146471377Y-86413349D01*
X146501390Y-86262462D01*
X146501390Y-86108618D01*
X146493812Y-86070518D01*
X156342480Y-86070518D01*
X156342480Y-86224362D01*
X156372493Y-86375249D01*
X156431367Y-86517382D01*
X156516838Y-86645299D01*
X156625621Y-86754082D01*
X156753538Y-86839553D01*
X156895671Y-86898427D01*
X156997001Y-86918583D01*
X156898211Y-86938233D01*
X156756078Y-86997107D01*
X156628161Y-87082578D01*
X156519378Y-87191361D01*
X156433907Y-87319278D01*
X156375033Y-87461411D01*
X156345020Y-87612298D01*
X156345020Y-87766142D01*
X156375033Y-87917029D01*
X156433907Y-88059162D01*
X156519378Y-88187079D01*
X156628161Y-88295862D01*
X156756078Y-88381333D01*
X156889803Y-88436724D01*
X156753540Y-88493167D01*
X156625623Y-88578638D01*
X156516840Y-88687421D01*
X156431369Y-88815338D01*
X156372495Y-88957471D01*
X156342482Y-89108358D01*
X156342482Y-89262202D01*
X156372495Y-89413089D01*
X156431369Y-89555222D01*
X156516840Y-89683139D01*
X156625623Y-89791922D01*
X156753540Y-89877393D01*
X156895673Y-89936267D01*
X157046560Y-89966280D01*
X157200404Y-89966280D01*
X157351291Y-89936267D01*
X157493424Y-89877393D01*
X157621341Y-89791922D01*
X157730124Y-89683139D01*
X157815595Y-89555222D01*
X157874469Y-89413089D01*
X157904482Y-89262202D01*
X157904482Y-89108358D01*
X157874469Y-88957471D01*
X157815595Y-88815338D01*
X157730124Y-88687421D01*
X157621341Y-88578638D01*
X157493424Y-88493167D01*
X157359699Y-88437776D01*
X157495962Y-88381333D01*
X157623879Y-88295862D01*
X157732662Y-88187079D01*
X157818133Y-88059162D01*
X157877007Y-87917029D01*
X157907020Y-87766142D01*
X157907020Y-87612298D01*
X157877007Y-87461411D01*
X157818133Y-87319278D01*
X157732662Y-87191361D01*
X157623879Y-87082578D01*
X157495962Y-86997107D01*
X157353829Y-86938233D01*
X157252499Y-86918077D01*
X157351289Y-86898427D01*
X157493422Y-86839553D01*
X157621339Y-86754082D01*
X157730122Y-86645299D01*
X157815593Y-86517382D01*
X157874467Y-86375249D01*
X157904480Y-86224362D01*
X157904480Y-86070518D01*
X157874467Y-85919631D01*
X157815593Y-85777498D01*
X157730122Y-85649581D01*
X157621339Y-85540798D01*
X157493422Y-85455327D01*
X157428856Y-85428583D01*
X157523902Y-85389213D01*
X157651819Y-85303742D01*
X157760602Y-85194959D01*
X157846073Y-85067042D01*
X157904947Y-84924909D01*
X157934960Y-84774022D01*
X157934960Y-84620178D01*
X157904947Y-84469291D01*
X157846073Y-84327158D01*
X157760602Y-84199241D01*
X157651819Y-84090458D01*
X157523902Y-84004987D01*
X157381769Y-83946113D01*
X157230882Y-83916100D01*
X157077038Y-83916100D01*
X156926151Y-83946113D01*
X156784018Y-84004987D01*
X156656101Y-84090458D01*
X156547318Y-84199241D01*
X156461847Y-84327158D01*
X156402973Y-84469291D01*
X156372960Y-84620178D01*
X156372960Y-84774022D01*
X156402973Y-84924909D01*
X156461847Y-85067042D01*
X156547318Y-85194959D01*
X156656101Y-85303742D01*
X156784018Y-85389213D01*
X156848584Y-85415957D01*
X156753538Y-85455327D01*
X156625621Y-85540798D01*
X156516838Y-85649581D01*
X156431367Y-85777498D01*
X156372493Y-85919631D01*
X156342480Y-86070518D01*
X146493812Y-86070518D01*
X146471377Y-85957731D01*
X146412503Y-85815598D01*
X146327032Y-85687681D01*
X146218249Y-85578898D01*
X146090332Y-85493427D01*
X145948199Y-85434553D01*
X145797312Y-85404540D01*
X145643468Y-85404540D01*
X145492581Y-85434553D01*
X145350448Y-85493427D01*
X145222531Y-85578898D01*
X145113748Y-85687681D01*
X145028277Y-85815598D01*
X144969403Y-85957731D01*
X144939390Y-86108618D01*
X144388635Y-86108618D01*
X144359127Y-85960271D01*
X144300253Y-85818138D01*
X144214782Y-85690221D01*
X144105999Y-85581438D01*
X143978082Y-85495967D01*
X143882420Y-85456342D01*
X143983162Y-85414613D01*
X144111079Y-85329142D01*
X144219862Y-85220359D01*
X144305333Y-85092442D01*
X144364207Y-84950309D01*
X144394220Y-84799422D01*
X144394220Y-84645578D01*
X144364207Y-84494691D01*
X144305333Y-84352558D01*
X144219862Y-84224641D01*
X144111079Y-84115858D01*
X143983162Y-84030387D01*
X143841029Y-83971513D01*
X143690142Y-83941500D01*
X143536298Y-83941500D01*
X143385411Y-83971513D01*
X143243278Y-84030387D01*
X143115361Y-84115858D01*
X143006578Y-84224641D01*
X142921107Y-84352558D01*
X142862233Y-84494691D01*
X142832220Y-84645578D01*
X142832220Y-84799422D01*
X142862233Y-84950309D01*
X142921107Y-85092442D01*
X143006578Y-85220359D01*
X143115361Y-85329142D01*
X143243278Y-85414613D01*
X143338940Y-85454238D01*
X143238198Y-85495967D01*
X143110281Y-85581438D01*
X143001498Y-85690221D01*
X142916027Y-85818138D01*
X142857153Y-85960271D01*
X142827140Y-86111158D01*
X142827140Y-86265002D01*
X142857153Y-86415889D01*
X142916027Y-86558022D01*
X143001498Y-86685939D01*
X143110281Y-86794722D01*
X143238198Y-86880193D01*
X143380331Y-86939067D01*
X143398694Y-86942720D01*
X143370171Y-86948393D01*
X143228038Y-87007267D01*
X143100121Y-87092738D01*
X142991338Y-87201521D01*
X142905867Y-87329438D01*
X142846993Y-87471571D01*
X142816980Y-87622458D01*
X138848263Y-87622458D01*
X139033097Y-87545898D01*
X139234717Y-87411180D01*
X139406180Y-87239717D01*
X139540898Y-87038097D01*
X139633693Y-86814069D01*
X139681000Y-86576243D01*
X139681000Y-86333757D01*
X139633693Y-86095931D01*
X139540898Y-85871903D01*
X139406180Y-85670283D01*
X139234717Y-85498820D01*
X139033097Y-85364102D01*
X138809069Y-85271307D01*
X138571243Y-85224000D01*
X138328757Y-85224000D01*
X138090931Y-85271307D01*
X137866903Y-85364102D01*
X137665283Y-85498820D01*
X137493820Y-85670283D01*
X137381800Y-85837933D01*
X137381800Y-84532067D01*
X137493820Y-84699717D01*
X137665283Y-84871180D01*
X137866903Y-85005898D01*
X138090931Y-85098693D01*
X138328757Y-85146000D01*
X138571243Y-85146000D01*
X138809069Y-85098693D01*
X139033097Y-85005898D01*
X139234717Y-84871180D01*
X139406180Y-84699717D01*
X139540898Y-84498097D01*
X139633693Y-84274069D01*
X139681000Y-84036243D01*
X139681000Y-83793757D01*
X139633693Y-83555931D01*
X139540898Y-83331903D01*
X139406180Y-83130283D01*
X139234717Y-82958820D01*
X139033097Y-82824102D01*
X138809069Y-82731307D01*
X138571243Y-82684000D01*
X138328757Y-82684000D01*
X138090931Y-82731307D01*
X137866903Y-82824102D01*
X137665283Y-82958820D01*
X137493820Y-83130283D01*
X137381800Y-83297933D01*
X137381800Y-81992067D01*
X137493820Y-82159717D01*
X137665283Y-82331180D01*
X137866903Y-82465898D01*
X138090931Y-82558693D01*
X138328757Y-82606000D01*
X138571243Y-82606000D01*
X138809069Y-82558693D01*
X139033097Y-82465898D01*
X139234717Y-82331180D01*
X139406180Y-82159717D01*
X139540898Y-81958097D01*
X139633693Y-81734069D01*
X139681000Y-81496243D01*
X139681000Y-81253757D01*
X139633693Y-81015931D01*
X139540898Y-80791903D01*
X139406180Y-80590283D01*
X139234717Y-80418820D01*
X139033097Y-80284102D01*
X138809069Y-80191307D01*
X138571243Y-80144000D01*
X138328757Y-80144000D01*
X138090931Y-80191307D01*
X137866903Y-80284102D01*
X137665283Y-80418820D01*
X137493820Y-80590283D01*
X137381800Y-80757933D01*
X137381800Y-79452067D01*
X137493820Y-79619717D01*
X137665283Y-79791180D01*
X137866903Y-79925898D01*
X138090931Y-80018693D01*
X138328757Y-80066000D01*
X138571243Y-80066000D01*
X138809069Y-80018693D01*
X139033097Y-79925898D01*
X139234717Y-79791180D01*
X139406180Y-79619717D01*
X139540898Y-79418097D01*
X139633693Y-79194069D01*
X139681000Y-78956243D01*
X139681000Y-78713757D01*
X139633693Y-78475931D01*
X139540898Y-78251903D01*
X139406180Y-78050283D01*
X139234717Y-77878820D01*
X139033097Y-77744102D01*
X138809069Y-77651307D01*
X138571243Y-77604000D01*
X138328757Y-77604000D01*
X138090931Y-77651307D01*
X137866903Y-77744102D01*
X137665283Y-77878820D01*
X137493820Y-78050283D01*
X137381800Y-78217933D01*
X137381800Y-76912067D01*
X137493820Y-77079717D01*
X137665283Y-77251180D01*
X137866903Y-77385898D01*
X138090931Y-77478693D01*
X138328757Y-77526000D01*
X138571243Y-77526000D01*
X138809069Y-77478693D01*
X139033097Y-77385898D01*
X139234717Y-77251180D01*
X139406180Y-77079717D01*
X139540898Y-76878097D01*
X139633693Y-76654069D01*
X139681000Y-76416243D01*
X139681000Y-76173757D01*
X139633693Y-75935931D01*
X139540898Y-75711903D01*
X139468251Y-75603178D01*
X156393280Y-75603178D01*
X156393280Y-75757022D01*
X156423293Y-75907909D01*
X156482167Y-76050042D01*
X156567638Y-76177959D01*
X156676421Y-76286742D01*
X156804338Y-76372213D01*
X156946471Y-76431087D01*
X157097358Y-76461100D01*
X157251202Y-76461100D01*
X157402089Y-76431087D01*
X157544222Y-76372213D01*
X157672139Y-76286742D01*
X157780922Y-76177959D01*
X157866393Y-76050042D01*
X157925267Y-75907909D01*
X157955280Y-75757022D01*
X157955280Y-75603178D01*
X157925267Y-75452291D01*
X157866393Y-75310158D01*
X157780922Y-75182241D01*
X157672139Y-75073458D01*
X157544222Y-74987987D01*
X157402089Y-74929113D01*
X157390111Y-74926730D01*
X157412249Y-74922327D01*
X157554382Y-74863453D01*
X157682299Y-74777982D01*
X157791082Y-74669199D01*
X157876553Y-74541282D01*
X157935427Y-74399149D01*
X157965440Y-74248262D01*
X157965440Y-74094418D01*
X157935427Y-73943531D01*
X157876553Y-73801398D01*
X157791082Y-73673481D01*
X157682299Y-73564698D01*
X157554382Y-73479227D01*
X157412249Y-73420353D01*
X157261362Y-73390340D01*
X157107518Y-73390340D01*
X156956631Y-73420353D01*
X156814498Y-73479227D01*
X156686581Y-73564698D01*
X156577798Y-73673481D01*
X156492327Y-73801398D01*
X156433453Y-73943531D01*
X156403440Y-74094418D01*
X156403440Y-74248262D01*
X156433453Y-74399149D01*
X156492327Y-74541282D01*
X156577798Y-74669199D01*
X156686581Y-74777982D01*
X156814498Y-74863453D01*
X156956631Y-74922327D01*
X156968609Y-74924710D01*
X156946471Y-74929113D01*
X156804338Y-74987987D01*
X156676421Y-75073458D01*
X156567638Y-75182241D01*
X156482167Y-75310158D01*
X156423293Y-75452291D01*
X156393280Y-75603178D01*
X139468251Y-75603178D01*
X139406180Y-75510283D01*
X139234717Y-75338820D01*
X139033097Y-75204102D01*
X138809069Y-75111307D01*
X138571243Y-75064000D01*
X138328757Y-75064000D01*
X138090931Y-75111307D01*
X137866903Y-75204102D01*
X137665283Y-75338820D01*
X137493820Y-75510283D01*
X137381800Y-75677933D01*
X137381800Y-74372067D01*
X137493820Y-74539717D01*
X137665283Y-74711180D01*
X137866903Y-74845898D01*
X138090931Y-74938693D01*
X138328757Y-74986000D01*
X138571243Y-74986000D01*
X138809069Y-74938693D01*
X139033097Y-74845898D01*
X139234717Y-74711180D01*
X139406180Y-74539717D01*
X139540898Y-74338097D01*
X139633693Y-74114069D01*
X139681000Y-73876243D01*
X139681000Y-73633757D01*
X139633693Y-73395931D01*
X139540898Y-73171903D01*
X139406180Y-72970283D01*
X139234717Y-72798820D01*
X139033097Y-72664102D01*
X138809069Y-72571307D01*
X138571243Y-72524000D01*
X138328757Y-72524000D01*
X138090931Y-72571307D01*
X137866903Y-72664102D01*
X137665283Y-72798820D01*
X137493820Y-72970283D01*
X137381800Y-73137933D01*
X137381800Y-71832067D01*
X137493820Y-71999717D01*
X137665283Y-72171180D01*
X137866903Y-72305898D01*
X138090931Y-72398693D01*
X138328757Y-72446000D01*
X138571243Y-72446000D01*
X138809069Y-72398693D01*
X139033097Y-72305898D01*
X139234717Y-72171180D01*
X139406180Y-71999717D01*
X139540898Y-71798097D01*
X139633693Y-71574069D01*
X139681000Y-71336243D01*
X139681000Y-71247078D01*
X142890644Y-71247078D01*
X142890644Y-71400922D01*
X142920657Y-71551809D01*
X142979531Y-71693942D01*
X143065002Y-71821859D01*
X143173785Y-71930642D01*
X143301702Y-72016113D01*
X143443835Y-72074987D01*
X143594722Y-72105000D01*
X143748566Y-72105000D01*
X143899453Y-72074987D01*
X144041586Y-72016113D01*
X144169503Y-71930642D01*
X144278286Y-71821859D01*
X144363757Y-71693942D01*
X144422631Y-71551809D01*
X144452644Y-71400922D01*
X144452644Y-71247078D01*
X144422631Y-71096191D01*
X144363757Y-70954058D01*
X144278286Y-70826141D01*
X144169503Y-70717358D01*
X144041586Y-70631887D01*
X143899453Y-70573013D01*
X143748566Y-70543000D01*
X143594722Y-70543000D01*
X143443835Y-70573013D01*
X143301702Y-70631887D01*
X143173785Y-70717358D01*
X143065002Y-70826141D01*
X142979531Y-70954058D01*
X142920657Y-71096191D01*
X142890644Y-71247078D01*
X139681000Y-71247078D01*
X139681000Y-71093757D01*
X139633693Y-70855931D01*
X139540898Y-70631903D01*
X139406180Y-70430283D01*
X139234717Y-70258820D01*
X139033097Y-70124102D01*
X138809069Y-70031307D01*
X138571243Y-69984000D01*
X138328757Y-69984000D01*
X138090931Y-70031307D01*
X137866903Y-70124102D01*
X137665283Y-70258820D01*
X137493820Y-70430283D01*
X137381800Y-70597933D01*
X137381800Y-69603698D01*
X156360260Y-69603698D01*
X156360260Y-69757542D01*
X156390273Y-69908429D01*
X156449147Y-70050562D01*
X156534618Y-70178479D01*
X156643401Y-70287262D01*
X156771318Y-70372733D01*
X156913451Y-70431607D01*
X157064338Y-70461620D01*
X157218182Y-70461620D01*
X157369069Y-70431607D01*
X157511202Y-70372733D01*
X157639119Y-70287262D01*
X157747902Y-70178479D01*
X157833373Y-70050562D01*
X157892247Y-69908429D01*
X157922260Y-69757542D01*
X157922260Y-69603698D01*
X157892247Y-69452811D01*
X157833373Y-69310678D01*
X157747902Y-69182761D01*
X157639119Y-69073978D01*
X157511202Y-68988507D01*
X157369069Y-68929633D01*
X157218182Y-68899620D01*
X157064338Y-68899620D01*
X156913451Y-68929633D01*
X156771318Y-68988507D01*
X156643401Y-69073978D01*
X156534618Y-69182761D01*
X156449147Y-69310678D01*
X156390273Y-69452811D01*
X156360260Y-69603698D01*
X137381800Y-69603698D01*
X137381800Y-67513200D01*
X164434400Y-67513200D01*
X164434400Y-70909758D01*
G37*
X164434400Y-70909758D02*
X164423693Y-70855931D01*
X164330898Y-70631903D01*
X164196180Y-70430283D01*
X164024717Y-70258820D01*
X163823097Y-70124102D01*
X163599069Y-70031307D01*
X163361243Y-69984000D01*
X163118757Y-69984000D01*
X162880931Y-70031307D01*
X162656903Y-70124102D01*
X162455283Y-70258820D01*
X162283820Y-70430283D01*
X162149102Y-70631903D01*
X162056307Y-70855931D01*
X162009000Y-71093757D01*
X162009000Y-71336243D01*
X162056307Y-71574069D01*
X162149102Y-71798097D01*
X162283820Y-71999717D01*
X162455283Y-72171180D01*
X162656903Y-72305898D01*
X162880931Y-72398693D01*
X163118757Y-72446000D01*
X163361243Y-72446000D01*
X163599069Y-72398693D01*
X163823097Y-72305898D01*
X164024717Y-72171180D01*
X164196180Y-71999717D01*
X164330898Y-71798097D01*
X164423693Y-71574069D01*
X164434400Y-71520241D01*
X164434400Y-73449759D01*
X164423693Y-73395931D01*
X164330898Y-73171903D01*
X164196180Y-72970283D01*
X164024717Y-72798820D01*
X163823097Y-72664102D01*
X163599069Y-72571307D01*
X163361243Y-72524000D01*
X163118757Y-72524000D01*
X162880931Y-72571307D01*
X162656903Y-72664102D01*
X162455283Y-72798820D01*
X162283820Y-72970283D01*
X162149102Y-73171903D01*
X162056307Y-73395931D01*
X162009000Y-73633757D01*
X162009000Y-73876243D01*
X162056307Y-74114069D01*
X162149102Y-74338097D01*
X162283820Y-74539717D01*
X162455283Y-74711180D01*
X162656903Y-74845898D01*
X162880931Y-74938693D01*
X163118757Y-74986000D01*
X163361243Y-74986000D01*
X163599069Y-74938693D01*
X163823097Y-74845898D01*
X164024717Y-74711180D01*
X164196180Y-74539717D01*
X164330898Y-74338097D01*
X164423693Y-74114069D01*
X164434400Y-74060241D01*
X164434400Y-75989759D01*
X164423693Y-75935931D01*
X164330898Y-75711903D01*
X164196180Y-75510283D01*
X164024717Y-75338820D01*
X163823097Y-75204102D01*
X163599069Y-75111307D01*
X163361243Y-75064000D01*
X163118757Y-75064000D01*
X162880931Y-75111307D01*
X162656903Y-75204102D01*
X162455283Y-75338820D01*
X162283820Y-75510283D01*
X162149102Y-75711903D01*
X162056307Y-75935931D01*
X162009000Y-76173757D01*
X162009000Y-76416243D01*
X162056307Y-76654069D01*
X162149102Y-76878097D01*
X162283820Y-77079717D01*
X162455283Y-77251180D01*
X162656903Y-77385898D01*
X162880931Y-77478693D01*
X163118757Y-77526000D01*
X163361243Y-77526000D01*
X163599069Y-77478693D01*
X163823097Y-77385898D01*
X164024717Y-77251180D01*
X164196180Y-77079717D01*
X164330898Y-76878097D01*
X164423693Y-76654069D01*
X164434400Y-76600241D01*
X164434400Y-78529759D01*
X164423693Y-78475931D01*
X164330898Y-78251903D01*
X164196180Y-78050283D01*
X164024717Y-77878820D01*
X163823097Y-77744102D01*
X163599069Y-77651307D01*
X163361243Y-77604000D01*
X163118757Y-77604000D01*
X162880931Y-77651307D01*
X162656903Y-77744102D01*
X162455283Y-77878820D01*
X162283820Y-78050283D01*
X162149102Y-78251903D01*
X162056307Y-78475931D01*
X162009000Y-78713757D01*
X162009000Y-78956243D01*
X162056307Y-79194069D01*
X162149102Y-79418097D01*
X162283820Y-79619717D01*
X162455283Y-79791180D01*
X162656903Y-79925898D01*
X162880931Y-80018693D01*
X163118757Y-80066000D01*
X163361243Y-80066000D01*
X163599069Y-80018693D01*
X163823097Y-79925898D01*
X164024717Y-79791180D01*
X164196180Y-79619717D01*
X164330898Y-79418097D01*
X164423693Y-79194069D01*
X164434400Y-79140241D01*
X164434400Y-81069759D01*
X164423693Y-81015931D01*
X164330898Y-80791903D01*
X164196180Y-80590283D01*
X164024717Y-80418820D01*
X163823097Y-80284102D01*
X163599069Y-80191307D01*
X163361243Y-80144000D01*
X163118757Y-80144000D01*
X162880931Y-80191307D01*
X162656903Y-80284102D01*
X162455283Y-80418820D01*
X162283820Y-80590283D01*
X162149102Y-80791903D01*
X162056307Y-81015931D01*
X162009000Y-81253757D01*
X162009000Y-81496243D01*
X162056307Y-81734069D01*
X162149102Y-81958097D01*
X162283820Y-82159717D01*
X162455283Y-82331180D01*
X162656903Y-82465898D01*
X162880931Y-82558693D01*
X163118757Y-82606000D01*
X163361243Y-82606000D01*
X163599069Y-82558693D01*
X163823097Y-82465898D01*
X164024717Y-82331180D01*
X164196180Y-82159717D01*
X164330898Y-81958097D01*
X164423693Y-81734069D01*
X164434400Y-81680241D01*
X164434400Y-83609759D01*
X164423693Y-83555931D01*
X164330898Y-83331903D01*
X164196180Y-83130283D01*
X164024717Y-82958820D01*
X163823097Y-82824102D01*
X163599069Y-82731307D01*
X163361243Y-82684000D01*
X163118757Y-82684000D01*
X162880931Y-82731307D01*
X162656903Y-82824102D01*
X162455283Y-82958820D01*
X162283820Y-83130283D01*
X162149102Y-83331903D01*
X162056307Y-83555931D01*
X162009000Y-83793757D01*
X162009000Y-84036243D01*
X162056307Y-84274069D01*
X162149102Y-84498097D01*
X162283820Y-84699717D01*
X162455283Y-84871180D01*
X162656903Y-85005898D01*
X162880931Y-85098693D01*
X163118757Y-85146000D01*
X163361243Y-85146000D01*
X163599069Y-85098693D01*
X163823097Y-85005898D01*
X164024717Y-84871180D01*
X164196180Y-84699717D01*
X164330898Y-84498097D01*
X164423693Y-84274069D01*
X164434400Y-84220241D01*
X164434400Y-86149760D01*
X164423693Y-86095931D01*
X164330898Y-85871903D01*
X164196180Y-85670283D01*
X164024717Y-85498820D01*
X163823097Y-85364102D01*
X163599069Y-85271307D01*
X163361243Y-85224000D01*
X163118757Y-85224000D01*
X162880931Y-85271307D01*
X162656903Y-85364102D01*
X162455283Y-85498820D01*
X162283820Y-85670283D01*
X162149102Y-85871903D01*
X162056307Y-86095931D01*
X162009000Y-86333757D01*
X162009000Y-86576243D01*
X162056307Y-86814069D01*
X162149102Y-87038097D01*
X162283820Y-87239717D01*
X162455283Y-87411180D01*
X162656903Y-87545898D01*
X162880931Y-87638693D01*
X163118757Y-87686000D01*
X163361243Y-87686000D01*
X163599069Y-87638693D01*
X163823097Y-87545898D01*
X164024717Y-87411180D01*
X164196180Y-87239717D01*
X164330898Y-87038097D01*
X164423693Y-86814069D01*
X164434400Y-86760240D01*
X164434400Y-88689760D01*
X164423693Y-88635931D01*
X164330898Y-88411903D01*
X164196180Y-88210283D01*
X164024717Y-88038820D01*
X163823097Y-87904102D01*
X163599069Y-87811307D01*
X163361243Y-87764000D01*
X163118757Y-87764000D01*
X162880931Y-87811307D01*
X162656903Y-87904102D01*
X162455283Y-88038820D01*
X162283820Y-88210283D01*
X162149102Y-88411903D01*
X162056307Y-88635931D01*
X162009000Y-88873757D01*
X162009000Y-89116243D01*
X162056307Y-89354069D01*
X162149102Y-89578097D01*
X162283820Y-89779717D01*
X162455283Y-89951180D01*
X162656903Y-90085898D01*
X162880931Y-90178693D01*
X163118757Y-90226000D01*
X163361243Y-90226000D01*
X163599069Y-90178693D01*
X163823097Y-90085898D01*
X164024717Y-89951180D01*
X164196180Y-89779717D01*
X164330898Y-89578097D01*
X164423693Y-89354069D01*
X164434400Y-89300240D01*
X164434400Y-91229760D01*
X164423693Y-91175931D01*
X164330898Y-90951903D01*
X164196180Y-90750283D01*
X164024717Y-90578820D01*
X163823097Y-90444102D01*
X163599069Y-90351307D01*
X163361243Y-90304000D01*
X163118757Y-90304000D01*
X162880931Y-90351307D01*
X162656903Y-90444102D01*
X162455283Y-90578820D01*
X162283820Y-90750283D01*
X162149102Y-90951903D01*
X162056307Y-91175931D01*
X162009000Y-91413757D01*
X162009000Y-91656243D01*
X162056307Y-91894069D01*
X162149102Y-92118097D01*
X162283820Y-92319717D01*
X162455283Y-92491180D01*
X162656903Y-92625898D01*
X162880931Y-92718693D01*
X163118757Y-92766000D01*
X163361243Y-92766000D01*
X163599069Y-92718693D01*
X163823097Y-92625898D01*
X164024717Y-92491180D01*
X164196180Y-92319717D01*
X164330898Y-92118097D01*
X164423693Y-91894069D01*
X164434400Y-91840240D01*
X164434400Y-93769760D01*
X164423693Y-93715931D01*
X164330898Y-93491903D01*
X164196180Y-93290283D01*
X164024717Y-93118820D01*
X163823097Y-92984102D01*
X163599069Y-92891307D01*
X163361243Y-92844000D01*
X163118757Y-92844000D01*
X162880931Y-92891307D01*
X162656903Y-92984102D01*
X162455283Y-93118820D01*
X162283820Y-93290283D01*
X162149102Y-93491903D01*
X162056307Y-93715931D01*
X162009000Y-93953757D01*
X162009000Y-94196243D01*
X162056307Y-94434069D01*
X162149102Y-94658097D01*
X162283820Y-94859717D01*
X162455283Y-95031180D01*
X162656903Y-95165898D01*
X162880931Y-95258693D01*
X163118757Y-95306000D01*
X163361243Y-95306000D01*
X163599069Y-95258693D01*
X163823097Y-95165898D01*
X164024717Y-95031180D01*
X164196180Y-94859717D01*
X164330898Y-94658097D01*
X164423693Y-94434069D01*
X164434400Y-94380240D01*
X164434400Y-96309760D01*
X164423693Y-96255931D01*
X164330898Y-96031903D01*
X164196180Y-95830283D01*
X164024717Y-95658820D01*
X163823097Y-95524102D01*
X163599069Y-95431307D01*
X163361243Y-95384000D01*
X163118757Y-95384000D01*
X162880931Y-95431307D01*
X162656903Y-95524102D01*
X162455283Y-95658820D01*
X162283820Y-95830283D01*
X162149102Y-96031903D01*
X162056307Y-96255931D01*
X162009000Y-96493757D01*
X162009000Y-96736243D01*
X162056307Y-96974069D01*
X162149102Y-97198097D01*
X162283820Y-97399717D01*
X162455283Y-97571180D01*
X162656903Y-97705898D01*
X162880931Y-97798693D01*
X163118757Y-97846000D01*
X163361243Y-97846000D01*
X163599069Y-97798693D01*
X163823097Y-97705898D01*
X164024717Y-97571180D01*
X164196180Y-97399717D01*
X164330898Y-97198097D01*
X164423693Y-96974069D01*
X164434400Y-96920240D01*
X164434400Y-98849761D01*
X164423693Y-98795931D01*
X164330898Y-98571903D01*
X164196180Y-98370283D01*
X164024717Y-98198820D01*
X163823097Y-98064102D01*
X163599069Y-97971307D01*
X163361243Y-97924000D01*
X163118757Y-97924000D01*
X162880931Y-97971307D01*
X162656903Y-98064102D01*
X162455283Y-98198820D01*
X162283820Y-98370283D01*
X162149102Y-98571903D01*
X162056307Y-98795931D01*
X162009000Y-99033757D01*
X162009000Y-99276243D01*
X162056307Y-99514069D01*
X162149102Y-99738097D01*
X162283820Y-99939717D01*
X162455283Y-100111180D01*
X162656903Y-100245898D01*
X162880931Y-100338693D01*
X163118757Y-100386000D01*
X163361243Y-100386000D01*
X163599069Y-100338693D01*
X163823097Y-100245898D01*
X164024717Y-100111180D01*
X164196180Y-99939717D01*
X164330898Y-99738097D01*
X164423693Y-99514069D01*
X164434400Y-99460239D01*
X164434401Y-101389761D01*
X164423693Y-101335931D01*
X164330898Y-101111903D01*
X164196180Y-100910283D01*
X164024717Y-100738820D01*
X163823097Y-100604102D01*
X163599069Y-100511307D01*
X163361243Y-100464000D01*
X163118757Y-100464000D01*
X162880931Y-100511307D01*
X162656903Y-100604102D01*
X162455283Y-100738820D01*
X162283820Y-100910283D01*
X162149102Y-101111903D01*
X162056307Y-101335931D01*
X162009000Y-101573757D01*
X162009000Y-101816243D01*
X162056307Y-102054069D01*
X162149102Y-102278097D01*
X162283820Y-102479717D01*
X162455283Y-102651180D01*
X162656903Y-102785898D01*
X162880931Y-102878693D01*
X163118757Y-102926000D01*
X163361243Y-102926000D01*
X163599069Y-102878693D01*
X163823097Y-102785898D01*
X164024717Y-102651180D01*
X164196180Y-102479717D01*
X164330898Y-102278097D01*
X164423693Y-102054069D01*
X164434401Y-102000239D01*
X164434401Y-103929761D01*
X164423693Y-103875931D01*
X164330898Y-103651903D01*
X164196180Y-103450283D01*
X164024717Y-103278820D01*
X163823097Y-103144102D01*
X163599069Y-103051307D01*
X163361243Y-103004000D01*
X163118757Y-103004000D01*
X162880931Y-103051307D01*
X162656903Y-103144102D01*
X162455283Y-103278820D01*
X162283820Y-103450283D01*
X162149102Y-103651903D01*
X162056307Y-103875931D01*
X162009000Y-104113757D01*
X162009000Y-104356243D01*
X162056307Y-104594069D01*
X162149102Y-104818097D01*
X162283820Y-105019717D01*
X162455283Y-105191180D01*
X162656903Y-105325898D01*
X162880931Y-105418693D01*
X163118757Y-105466000D01*
X163361243Y-105466000D01*
X163599069Y-105418693D01*
X163823097Y-105325898D01*
X164024717Y-105191180D01*
X164196180Y-105019717D01*
X164330898Y-104818097D01*
X164423693Y-104594069D01*
X164434401Y-104540239D01*
X164434401Y-106469761D01*
X164423693Y-106415931D01*
X164330898Y-106191903D01*
X164196180Y-105990283D01*
X164024717Y-105818820D01*
X163823097Y-105684102D01*
X163599069Y-105591307D01*
X163361243Y-105544000D01*
X163118757Y-105544000D01*
X162880931Y-105591307D01*
X162656903Y-105684102D01*
X162455283Y-105818820D01*
X162283820Y-105990283D01*
X162149102Y-106191903D01*
X162056307Y-106415931D01*
X162009000Y-106653757D01*
X162009000Y-106896243D01*
X162056307Y-107134069D01*
X162149102Y-107358097D01*
X162283820Y-107559717D01*
X162455283Y-107731180D01*
X162656903Y-107865898D01*
X162880931Y-107958693D01*
X163118757Y-108006000D01*
X163361243Y-108006000D01*
X163599069Y-107958693D01*
X163823097Y-107865898D01*
X164024717Y-107731180D01*
X164196180Y-107559717D01*
X164330898Y-107358097D01*
X164423693Y-107134069D01*
X164434401Y-107080239D01*
X164434401Y-111549761D01*
X164423693Y-111495931D01*
X164330898Y-111271903D01*
X164196180Y-111070283D01*
X164024717Y-110898820D01*
X163823097Y-110764102D01*
X163599069Y-110671307D01*
X163361243Y-110624000D01*
X163118757Y-110624000D01*
X162880931Y-110671307D01*
X162656903Y-110764102D01*
X162455283Y-110898820D01*
X162283820Y-111070283D01*
X162149102Y-111271903D01*
X162056307Y-111495931D01*
X162009000Y-111733757D01*
X162009000Y-111976243D01*
X162056307Y-112214069D01*
X162149102Y-112438097D01*
X162283820Y-112639717D01*
X162455283Y-112811180D01*
X162656903Y-112945898D01*
X162880931Y-113038693D01*
X163118757Y-113086000D01*
X163361243Y-113086000D01*
X163599069Y-113038693D01*
X163823097Y-112945898D01*
X164024717Y-112811180D01*
X164196180Y-112639717D01*
X164330898Y-112438097D01*
X164423693Y-112214069D01*
X164434401Y-112160238D01*
X164434401Y-114089762D01*
X164423693Y-114035931D01*
X164330898Y-113811903D01*
X164196180Y-113610283D01*
X164024717Y-113438820D01*
X163823097Y-113304102D01*
X163599069Y-113211307D01*
X163361243Y-113164000D01*
X163118757Y-113164000D01*
X162880931Y-113211307D01*
X162656903Y-113304102D01*
X162455283Y-113438820D01*
X162283820Y-113610283D01*
X162149102Y-113811903D01*
X162056307Y-114035931D01*
X162009000Y-114273757D01*
X162009000Y-114516243D01*
X162056307Y-114754069D01*
X162149102Y-114978097D01*
X162283820Y-115179717D01*
X162455283Y-115351180D01*
X162656903Y-115485898D01*
X162880931Y-115578693D01*
X163118757Y-115626000D01*
X163361243Y-115626000D01*
X163599069Y-115578693D01*
X163823097Y-115485898D01*
X164024717Y-115351180D01*
X164196180Y-115179717D01*
X164330898Y-114978097D01*
X164423693Y-114754069D01*
X164434401Y-114700238D01*
X164434401Y-116629762D01*
X164423693Y-116575931D01*
X164330898Y-116351903D01*
X164196180Y-116150283D01*
X164024717Y-115978820D01*
X163823097Y-115844102D01*
X163599069Y-115751307D01*
X163361243Y-115704000D01*
X163118757Y-115704000D01*
X162880931Y-115751307D01*
X162656903Y-115844102D01*
X162455283Y-115978820D01*
X162283820Y-116150283D01*
X162149102Y-116351903D01*
X162056307Y-116575931D01*
X162009000Y-116813757D01*
X162009000Y-117056243D01*
X162056307Y-117294069D01*
X162149102Y-117518097D01*
X162283820Y-117719717D01*
X162455283Y-117891180D01*
X162656903Y-118025898D01*
X162880931Y-118118693D01*
X163118757Y-118166000D01*
X163361243Y-118166000D01*
X163599069Y-118118693D01*
X163823097Y-118025898D01*
X164024717Y-117891180D01*
X164196180Y-117719717D01*
X164330898Y-117518097D01*
X164423693Y-117294069D01*
X164434401Y-117240238D01*
X164434401Y-119169762D01*
X164423693Y-119115931D01*
X164330898Y-118891903D01*
X164196180Y-118690283D01*
X164024717Y-118518820D01*
X163823097Y-118384102D01*
X163599069Y-118291307D01*
X163361243Y-118244000D01*
X163118757Y-118244000D01*
X162880931Y-118291307D01*
X162656903Y-118384102D01*
X162455283Y-118518820D01*
X162283820Y-118690283D01*
X162149102Y-118891903D01*
X162056307Y-119115931D01*
X162009000Y-119353757D01*
X162009000Y-119596243D01*
X162056307Y-119834069D01*
X162149102Y-120058097D01*
X162283820Y-120259717D01*
X162455283Y-120431180D01*
X162656903Y-120565898D01*
X162880931Y-120658693D01*
X163118757Y-120706000D01*
X163361243Y-120706000D01*
X163599069Y-120658693D01*
X163823097Y-120565898D01*
X164024717Y-120431180D01*
X164196180Y-120259717D01*
X164330898Y-120058097D01*
X164423693Y-119834069D01*
X164434401Y-119780238D01*
X164434401Y-121709762D01*
X164423693Y-121655931D01*
X164330898Y-121431903D01*
X164196180Y-121230283D01*
X164024717Y-121058820D01*
X163823097Y-120924102D01*
X163599069Y-120831307D01*
X163361243Y-120784000D01*
X163118757Y-120784000D01*
X162880931Y-120831307D01*
X162656903Y-120924102D01*
X162455283Y-121058820D01*
X162283820Y-121230283D01*
X162149102Y-121431903D01*
X162056307Y-121655931D01*
X162009000Y-121893757D01*
X162009000Y-122136243D01*
X162056307Y-122374069D01*
X162149102Y-122598097D01*
X162283820Y-122799717D01*
X162455283Y-122971180D01*
X162656903Y-123105898D01*
X162880931Y-123198693D01*
X163118757Y-123246000D01*
X163361243Y-123246000D01*
X163599069Y-123198693D01*
X163823097Y-123105898D01*
X164024717Y-122971180D01*
X164196180Y-122799717D01*
X164330898Y-122598097D01*
X164423693Y-122374069D01*
X164434401Y-122320238D01*
X164434401Y-135078800D01*
X137381800Y-135078800D01*
X137381800Y-132892203D01*
X142943200Y-132892203D01*
X142943200Y-133036197D01*
X142971292Y-133177425D01*
X143026396Y-133310458D01*
X143106395Y-133430185D01*
X143208215Y-133532005D01*
X143327942Y-133612004D01*
X143460975Y-133667108D01*
X143602203Y-133695200D01*
X143746197Y-133695200D01*
X143887425Y-133667108D01*
X144020458Y-133612004D01*
X144140185Y-133532005D01*
X144242005Y-133430185D01*
X144322004Y-133310458D01*
X144377108Y-133177425D01*
X144405200Y-133036197D01*
X144405200Y-132892203D01*
X144377108Y-132750975D01*
X144322004Y-132617942D01*
X144242005Y-132498215D01*
X144140185Y-132396395D01*
X144020458Y-132316396D01*
X143887425Y-132261292D01*
X143746197Y-132233200D01*
X143602203Y-132233200D01*
X143460975Y-132261292D01*
X143327942Y-132316396D01*
X143208215Y-132396395D01*
X143106395Y-132498215D01*
X143026396Y-132617942D01*
X142971292Y-132750975D01*
X142943200Y-132892203D01*
X137381800Y-132892203D01*
X137381800Y-132220600D01*
X158729557Y-132220600D01*
X158729557Y-133820600D01*
X158736913Y-133895289D01*
X158758699Y-133967108D01*
X158794078Y-134033296D01*
X158841689Y-134091311D01*
X158899704Y-134138922D01*
X158965892Y-134174301D01*
X159037711Y-134196087D01*
X159112400Y-134203443D01*
X160712400Y-134203443D01*
X160787089Y-134196087D01*
X160858908Y-134174301D01*
X160925096Y-134138922D01*
X160983111Y-134091311D01*
X161030722Y-134033296D01*
X161066101Y-133967108D01*
X161087887Y-133895289D01*
X161095243Y-133820600D01*
X161095243Y-132220600D01*
X161087887Y-132145911D01*
X161066101Y-132074092D01*
X161030722Y-132007904D01*
X160983111Y-131949889D01*
X160925096Y-131902278D01*
X160858908Y-131866899D01*
X160787089Y-131845113D01*
X160760674Y-131842511D01*
X160829742Y-131773443D01*
X160958988Y-131580013D01*
X161048014Y-131365085D01*
X161093400Y-131136918D01*
X161093400Y-130904282D01*
X161048014Y-130676115D01*
X160958988Y-130461187D01*
X160829742Y-130267757D01*
X160665243Y-130103258D01*
X160541537Y-130020600D01*
X160665243Y-129937942D01*
X160829742Y-129773443D01*
X160958988Y-129580013D01*
X161048014Y-129365085D01*
X161093400Y-129136918D01*
X161093400Y-128904282D01*
X161048014Y-128676115D01*
X160958988Y-128461187D01*
X160829742Y-128267757D01*
X160665243Y-128103258D01*
X160471813Y-127974012D01*
X160256885Y-127884986D01*
X160028718Y-127839600D01*
X159796082Y-127839600D01*
X159567915Y-127884986D01*
X159352987Y-127974012D01*
X159159557Y-128103258D01*
X158995058Y-128267757D01*
X158865812Y-128461187D01*
X158776786Y-128676115D01*
X158731400Y-128904282D01*
X158731400Y-129136918D01*
X158776786Y-129365085D01*
X158865812Y-129580013D01*
X158995058Y-129773443D01*
X159159557Y-129937942D01*
X159283263Y-130020600D01*
X159159557Y-130103258D01*
X158995058Y-130267757D01*
X158865812Y-130461187D01*
X158776786Y-130676115D01*
X158731400Y-130904282D01*
X158731400Y-131136918D01*
X158776786Y-131365085D01*
X158865812Y-131580013D01*
X158995058Y-131773443D01*
X159064126Y-131842511D01*
X159037711Y-131845113D01*
X158965892Y-131866899D01*
X158899704Y-131902278D01*
X158841689Y-131949889D01*
X158794078Y-132007904D01*
X158758699Y-132074092D01*
X158736913Y-132145911D01*
X158729557Y-132220600D01*
X137381800Y-132220600D01*
X137381800Y-129654378D01*
X142329300Y-129654378D01*
X142329300Y-129808222D01*
X142359313Y-129959109D01*
X142418187Y-130101242D01*
X142503658Y-130229159D01*
X142612441Y-130337942D01*
X142740358Y-130423413D01*
X142882491Y-130482287D01*
X143033378Y-130512300D01*
X143187222Y-130512300D01*
X143338109Y-130482287D01*
X143480242Y-130423413D01*
X143608159Y-130337942D01*
X143716942Y-130229159D01*
X143802413Y-130101242D01*
X143861287Y-129959109D01*
X143891300Y-129808222D01*
X143891300Y-129654378D01*
X143861287Y-129503491D01*
X143802413Y-129361358D01*
X143716942Y-129233441D01*
X143608159Y-129124658D01*
X143480242Y-129039187D01*
X143338109Y-128980313D01*
X143187222Y-128950300D01*
X143033378Y-128950300D01*
X142882491Y-128980313D01*
X142740358Y-129039187D01*
X142612441Y-129124658D01*
X142503658Y-129233441D01*
X142418187Y-129361358D01*
X142359313Y-129503491D01*
X142329300Y-129654378D01*
X137381800Y-129654378D01*
X137381800Y-127112203D01*
X142943200Y-127112203D01*
X142943200Y-127256197D01*
X142971292Y-127397425D01*
X143026396Y-127530458D01*
X143106395Y-127650185D01*
X143208215Y-127752005D01*
X143327942Y-127832004D01*
X143460975Y-127887108D01*
X143602203Y-127915200D01*
X143746197Y-127915200D01*
X143887425Y-127887108D01*
X144020458Y-127832004D01*
X144140185Y-127752005D01*
X144242005Y-127650185D01*
X144322004Y-127530458D01*
X144377108Y-127397425D01*
X144405200Y-127256197D01*
X144405200Y-127112203D01*
X144377108Y-126970975D01*
X144322004Y-126837942D01*
X144242005Y-126718215D01*
X144140185Y-126616395D01*
X144020458Y-126536396D01*
X143887425Y-126481292D01*
X143746197Y-126453200D01*
X143602203Y-126453200D01*
X143460975Y-126481292D01*
X143327942Y-126536396D01*
X143208215Y-126616395D01*
X143106395Y-126718215D01*
X143026396Y-126837942D01*
X142971292Y-126970975D01*
X142943200Y-127112203D01*
X137381800Y-127112203D01*
X137381800Y-123522818D01*
X144945500Y-123522818D01*
X144945500Y-123676662D01*
X144975513Y-123827549D01*
X145034387Y-123969682D01*
X145119858Y-124097599D01*
X145228641Y-124206382D01*
X145356558Y-124291853D01*
X145498691Y-124350727D01*
X145649578Y-124380740D01*
X145803422Y-124380740D01*
X145954309Y-124350727D01*
X146096442Y-124291853D01*
X146224359Y-124206382D01*
X146333142Y-124097599D01*
X146418613Y-123969682D01*
X146477487Y-123827549D01*
X146507500Y-123676662D01*
X146507500Y-123522818D01*
X146477487Y-123371931D01*
X146418613Y-123229798D01*
X146333142Y-123101881D01*
X146224359Y-122993098D01*
X146096442Y-122907627D01*
X145954309Y-122848753D01*
X145803422Y-122818740D01*
X145649578Y-122818740D01*
X145498691Y-122848753D01*
X145356558Y-122907627D01*
X145228641Y-122993098D01*
X145119858Y-123101881D01*
X145034387Y-123229798D01*
X144975513Y-123371931D01*
X144945500Y-123522818D01*
X137381800Y-123522818D01*
X137381800Y-122535743D01*
X143628902Y-122535743D01*
X143628902Y-122689587D01*
X143658915Y-122840474D01*
X143717789Y-122982607D01*
X143803260Y-123110524D01*
X143912043Y-123219307D01*
X144039960Y-123304778D01*
X144182093Y-123363652D01*
X144332980Y-123393665D01*
X144486824Y-123393665D01*
X144637711Y-123363652D01*
X144779844Y-123304778D01*
X144907761Y-123219307D01*
X145016544Y-123110524D01*
X145102015Y-122982607D01*
X145160889Y-122840474D01*
X145190902Y-122689587D01*
X145190902Y-122535743D01*
X145160889Y-122384856D01*
X145147229Y-122351878D01*
X150203068Y-122351878D01*
X150203068Y-122505722D01*
X150233081Y-122656609D01*
X150291955Y-122798742D01*
X150377426Y-122926659D01*
X150486209Y-123035442D01*
X150614126Y-123120913D01*
X150756259Y-123179787D01*
X150907146Y-123209800D01*
X151060990Y-123209800D01*
X151211877Y-123179787D01*
X151354010Y-123120913D01*
X151481927Y-123035442D01*
X151590710Y-122926659D01*
X151676181Y-122798742D01*
X151735055Y-122656609D01*
X151765068Y-122505722D01*
X151765068Y-122351878D01*
X151735055Y-122200991D01*
X151676181Y-122058858D01*
X151636064Y-121998818D01*
X154216500Y-121998818D01*
X154216500Y-122152662D01*
X154246513Y-122303549D01*
X154305387Y-122445682D01*
X154390858Y-122573599D01*
X154499641Y-122682382D01*
X154627558Y-122767853D01*
X154769691Y-122826727D01*
X154920578Y-122856740D01*
X155074422Y-122856740D01*
X155225309Y-122826727D01*
X155367442Y-122767853D01*
X155495359Y-122682382D01*
X155604142Y-122573599D01*
X155689613Y-122445682D01*
X155748487Y-122303549D01*
X155778500Y-122152662D01*
X155778500Y-121998818D01*
X155748487Y-121847931D01*
X155689613Y-121705798D01*
X155604142Y-121577881D01*
X155495359Y-121469098D01*
X155367442Y-121383627D01*
X155225309Y-121324753D01*
X155074422Y-121294740D01*
X154920578Y-121294740D01*
X154769691Y-121324753D01*
X154627558Y-121383627D01*
X154499641Y-121469098D01*
X154390858Y-121577881D01*
X154305387Y-121705798D01*
X154246513Y-121847931D01*
X154216500Y-121998818D01*
X151636064Y-121998818D01*
X151590710Y-121930941D01*
X151481927Y-121822158D01*
X151354010Y-121736687D01*
X151211877Y-121677813D01*
X151060990Y-121647800D01*
X150907146Y-121647800D01*
X150756259Y-121677813D01*
X150614126Y-121736687D01*
X150486209Y-121822158D01*
X150377426Y-121930941D01*
X150291955Y-122058858D01*
X150233081Y-122200991D01*
X150203068Y-122351878D01*
X145147229Y-122351878D01*
X145102015Y-122242723D01*
X145016544Y-122114806D01*
X144907761Y-122006023D01*
X144779844Y-121920552D01*
X144637711Y-121861678D01*
X144486824Y-121831665D01*
X144332980Y-121831665D01*
X144182093Y-121861678D01*
X144039960Y-121920552D01*
X143912043Y-122006023D01*
X143803260Y-122114806D01*
X143717789Y-122242723D01*
X143658915Y-122384856D01*
X143628902Y-122535743D01*
X137381800Y-122535743D01*
X137381800Y-120685638D01*
X145542400Y-120685638D01*
X145542400Y-120839482D01*
X145572413Y-120990369D01*
X145631287Y-121132502D01*
X145716758Y-121260419D01*
X145825541Y-121369202D01*
X145953458Y-121454673D01*
X146095591Y-121513547D01*
X146246478Y-121543560D01*
X146400322Y-121543560D01*
X146551209Y-121513547D01*
X146693342Y-121454673D01*
X146821259Y-121369202D01*
X146930042Y-121260419D01*
X147015513Y-121132502D01*
X147074387Y-120990369D01*
X147104400Y-120839482D01*
X147104400Y-120685638D01*
X147074387Y-120534751D01*
X147015513Y-120392618D01*
X146930042Y-120264701D01*
X146821259Y-120155918D01*
X146693342Y-120070447D01*
X146551209Y-120011573D01*
X146400322Y-119981560D01*
X146246478Y-119981560D01*
X146095591Y-120011573D01*
X145953458Y-120070447D01*
X145825541Y-120155918D01*
X145716758Y-120264701D01*
X145631287Y-120392618D01*
X145572413Y-120534751D01*
X145542400Y-120685638D01*
X137381800Y-120685638D01*
X137381800Y-118585058D01*
X142334380Y-118585058D01*
X142334380Y-118738902D01*
X142364393Y-118889789D01*
X142423267Y-119031922D01*
X142508738Y-119159839D01*
X142617521Y-119268622D01*
X142745438Y-119354093D01*
X142887571Y-119412967D01*
X143038458Y-119442980D01*
X143192302Y-119442980D01*
X143343189Y-119412967D01*
X143434200Y-119375269D01*
X143434200Y-119521222D01*
X143464213Y-119672109D01*
X143523087Y-119814242D01*
X143608558Y-119942159D01*
X143717341Y-120050942D01*
X143845258Y-120136413D01*
X143987391Y-120195287D01*
X144138278Y-120225300D01*
X144292122Y-120225300D01*
X144443009Y-120195287D01*
X144585142Y-120136413D01*
X144713059Y-120050942D01*
X144821842Y-119942159D01*
X144907313Y-119814242D01*
X144966187Y-119672109D01*
X144996200Y-119521222D01*
X144996200Y-119400398D01*
X147361040Y-119400398D01*
X147361040Y-119554242D01*
X147391053Y-119705129D01*
X147449927Y-119847262D01*
X147535398Y-119975179D01*
X147644181Y-120083962D01*
X147758848Y-120160580D01*
X147644181Y-120237198D01*
X147535398Y-120345981D01*
X147449927Y-120473898D01*
X147391053Y-120616031D01*
X147361040Y-120766918D01*
X147361040Y-120920762D01*
X147391053Y-121071649D01*
X147449927Y-121213782D01*
X147535398Y-121341699D01*
X147644181Y-121450482D01*
X147772098Y-121535953D01*
X147914231Y-121594827D01*
X148065118Y-121624840D01*
X148218962Y-121624840D01*
X148369849Y-121594827D01*
X148511982Y-121535953D01*
X148639899Y-121450482D01*
X148748682Y-121341699D01*
X148834153Y-121213782D01*
X148893027Y-121071649D01*
X148918780Y-120942178D01*
X156169300Y-120942178D01*
X156169300Y-121096022D01*
X156199313Y-121246909D01*
X156258187Y-121389042D01*
X156343658Y-121516959D01*
X156452441Y-121625742D01*
X156580358Y-121711213D01*
X156722491Y-121770087D01*
X156873378Y-121800100D01*
X157027222Y-121800100D01*
X157178109Y-121770087D01*
X157320242Y-121711213D01*
X157448159Y-121625742D01*
X157556942Y-121516959D01*
X157642413Y-121389042D01*
X157701287Y-121246909D01*
X157731300Y-121096022D01*
X157731300Y-120942178D01*
X157701287Y-120791291D01*
X157642413Y-120649158D01*
X157556942Y-120521241D01*
X157448159Y-120412458D01*
X157320242Y-120326987D01*
X157178109Y-120268113D01*
X157027222Y-120238100D01*
X156873378Y-120238100D01*
X156722491Y-120268113D01*
X156580358Y-120326987D01*
X156452441Y-120412458D01*
X156343658Y-120521241D01*
X156258187Y-120649158D01*
X156199313Y-120791291D01*
X156169300Y-120942178D01*
X148918780Y-120942178D01*
X148923040Y-120920762D01*
X148923040Y-120766918D01*
X148893027Y-120616031D01*
X148834153Y-120473898D01*
X148748682Y-120345981D01*
X148639899Y-120237198D01*
X148525232Y-120160580D01*
X148639899Y-120083962D01*
X148748682Y-119975179D01*
X148834153Y-119847262D01*
X148893027Y-119705129D01*
X148923040Y-119554242D01*
X148923040Y-119408018D01*
X157932520Y-119408018D01*
X157932520Y-119561862D01*
X157962533Y-119712749D01*
X158021407Y-119854882D01*
X158106878Y-119982799D01*
X158215661Y-120091582D01*
X158343578Y-120177053D01*
X158485711Y-120235927D01*
X158636598Y-120265940D01*
X158790442Y-120265940D01*
X158941329Y-120235927D01*
X159083462Y-120177053D01*
X159211379Y-120091582D01*
X159320162Y-119982799D01*
X159405633Y-119854882D01*
X159464507Y-119712749D01*
X159494520Y-119561862D01*
X159494520Y-119408018D01*
X159464507Y-119257131D01*
X159405633Y-119114998D01*
X159320162Y-118987081D01*
X159211379Y-118878298D01*
X159083462Y-118792827D01*
X158941329Y-118733953D01*
X158790442Y-118703940D01*
X158636598Y-118703940D01*
X158485711Y-118733953D01*
X158343578Y-118792827D01*
X158215661Y-118878298D01*
X158106878Y-118987081D01*
X158021407Y-119114998D01*
X157962533Y-119257131D01*
X157932520Y-119408018D01*
X148923040Y-119408018D01*
X148923040Y-119400398D01*
X148893027Y-119249511D01*
X148834153Y-119107378D01*
X148748682Y-118979461D01*
X148639899Y-118870678D01*
X148511982Y-118785207D01*
X148369849Y-118726333D01*
X148218962Y-118696320D01*
X148065118Y-118696320D01*
X147914231Y-118726333D01*
X147772098Y-118785207D01*
X147644181Y-118870678D01*
X147535398Y-118979461D01*
X147449927Y-119107378D01*
X147391053Y-119249511D01*
X147361040Y-119400398D01*
X144996200Y-119400398D01*
X144996200Y-119367378D01*
X144966187Y-119216491D01*
X144907313Y-119074358D01*
X144821842Y-118946441D01*
X144713059Y-118837658D01*
X144585142Y-118752187D01*
X144443009Y-118693313D01*
X144292122Y-118663300D01*
X144138278Y-118663300D01*
X143987391Y-118693313D01*
X143896380Y-118731011D01*
X143896380Y-118585058D01*
X143866367Y-118434171D01*
X143807493Y-118292038D01*
X143722022Y-118164121D01*
X143613239Y-118055338D01*
X143485322Y-117969867D01*
X143343189Y-117910993D01*
X143192302Y-117880980D01*
X143038458Y-117880980D01*
X142887571Y-117910993D01*
X142745438Y-117969867D01*
X142617521Y-118055338D01*
X142508738Y-118164121D01*
X142423267Y-118292038D01*
X142364393Y-118434171D01*
X142334380Y-118585058D01*
X137381800Y-118585058D01*
X137381800Y-114693778D01*
X150216000Y-114693778D01*
X150216000Y-114847622D01*
X150246013Y-114998509D01*
X150304887Y-115140642D01*
X150390358Y-115268559D01*
X150499141Y-115377342D01*
X150627058Y-115462813D01*
X150769191Y-115521687D01*
X150920078Y-115551700D01*
X151073922Y-115551700D01*
X151224809Y-115521687D01*
X151366942Y-115462813D01*
X151494859Y-115377342D01*
X151603642Y-115268559D01*
X151689113Y-115140642D01*
X151747987Y-114998509D01*
X151778000Y-114847622D01*
X151778000Y-114693778D01*
X151775474Y-114681078D01*
X152146400Y-114681078D01*
X152146400Y-114834922D01*
X152176413Y-114985809D01*
X152235287Y-115127942D01*
X152320758Y-115255859D01*
X152429541Y-115364642D01*
X152557458Y-115450113D01*
X152699591Y-115508987D01*
X152850478Y-115539000D01*
X153004322Y-115539000D01*
X153155209Y-115508987D01*
X153297342Y-115450113D01*
X153425259Y-115364642D01*
X153534042Y-115255859D01*
X153619513Y-115127942D01*
X153678387Y-114985809D01*
X153708400Y-114834922D01*
X153708400Y-114681078D01*
X153678387Y-114530191D01*
X153619513Y-114388058D01*
X153534042Y-114260141D01*
X153425259Y-114151358D01*
X153297342Y-114065887D01*
X153155209Y-114007013D01*
X153004322Y-113977000D01*
X152850478Y-113977000D01*
X152699591Y-114007013D01*
X152557458Y-114065887D01*
X152429541Y-114151358D01*
X152320758Y-114260141D01*
X152235287Y-114388058D01*
X152176413Y-114530191D01*
X152146400Y-114681078D01*
X151775474Y-114681078D01*
X151747987Y-114542891D01*
X151689113Y-114400758D01*
X151603642Y-114272841D01*
X151494859Y-114164058D01*
X151366942Y-114078587D01*
X151224809Y-114019713D01*
X151073922Y-113989700D01*
X150920078Y-113989700D01*
X150769191Y-114019713D01*
X150627058Y-114078587D01*
X150499141Y-114164058D01*
X150390358Y-114272841D01*
X150304887Y-114400758D01*
X150246013Y-114542891D01*
X150216000Y-114693778D01*
X137381800Y-114693778D01*
X137381800Y-112472067D01*
X137493820Y-112639717D01*
X137665283Y-112811180D01*
X137866903Y-112945898D01*
X138090931Y-113038693D01*
X138328757Y-113086000D01*
X138571243Y-113086000D01*
X138809069Y-113038693D01*
X139033097Y-112945898D01*
X139234717Y-112811180D01*
X139406180Y-112639717D01*
X139484783Y-112522078D01*
X157112100Y-112522078D01*
X157112100Y-112675922D01*
X157142113Y-112826809D01*
X157200987Y-112968942D01*
X157286458Y-113096859D01*
X157395241Y-113205642D01*
X157523158Y-113291113D01*
X157665291Y-113349987D01*
X157816178Y-113380000D01*
X157970022Y-113380000D01*
X158120909Y-113349987D01*
X158263042Y-113291113D01*
X158390959Y-113205642D01*
X158499742Y-113096859D01*
X158585213Y-112968942D01*
X158644087Y-112826809D01*
X158674100Y-112675922D01*
X158674100Y-112522078D01*
X158644087Y-112371191D01*
X158585213Y-112229058D01*
X158499742Y-112101141D01*
X158390959Y-111992358D01*
X158263042Y-111906887D01*
X158120909Y-111848013D01*
X157970022Y-111818000D01*
X157816178Y-111818000D01*
X157665291Y-111848013D01*
X157523158Y-111906887D01*
X157395241Y-111992358D01*
X157286458Y-112101141D01*
X157200987Y-112229058D01*
X157142113Y-112371191D01*
X157112100Y-112522078D01*
X139484783Y-112522078D01*
X139540898Y-112438097D01*
X139633693Y-112214069D01*
X139681000Y-111976243D01*
X139681000Y-111733757D01*
X139633693Y-111495931D01*
X139540898Y-111271903D01*
X139406180Y-111070283D01*
X139298415Y-110962518D01*
X139621660Y-110962518D01*
X139621660Y-111116362D01*
X139651673Y-111267249D01*
X139710547Y-111409382D01*
X139796018Y-111537299D01*
X139904801Y-111646082D01*
X140032718Y-111731553D01*
X140174851Y-111790427D01*
X140325738Y-111820440D01*
X140479582Y-111820440D01*
X140630469Y-111790427D01*
X140772602Y-111731553D01*
X140900519Y-111646082D01*
X141009302Y-111537299D01*
X141094773Y-111409382D01*
X141153647Y-111267249D01*
X141183660Y-111116362D01*
X141183660Y-110962518D01*
X141153647Y-110811631D01*
X141094773Y-110669498D01*
X141009302Y-110541581D01*
X140900519Y-110432798D01*
X140772602Y-110347327D01*
X140630469Y-110288453D01*
X140479582Y-110258440D01*
X140325738Y-110258440D01*
X140174851Y-110288453D01*
X140032718Y-110347327D01*
X139904801Y-110432798D01*
X139796018Y-110541581D01*
X139710547Y-110669498D01*
X139651673Y-110811631D01*
X139621660Y-110962518D01*
X139298415Y-110962518D01*
X139234717Y-110898820D01*
X139033097Y-110764102D01*
X138809069Y-110671307D01*
X138571243Y-110624000D01*
X138328757Y-110624000D01*
X138090931Y-110671307D01*
X137866903Y-110764102D01*
X137665283Y-110898820D01*
X137493820Y-111070283D01*
X137381800Y-111237933D01*
X137381800Y-109932067D01*
X137493820Y-110099717D01*
X137665283Y-110271180D01*
X137866903Y-110405898D01*
X138090931Y-110498693D01*
X138328757Y-110546000D01*
X138571243Y-110546000D01*
X138809069Y-110498693D01*
X139033097Y-110405898D01*
X139234717Y-110271180D01*
X139406180Y-110099717D01*
X139540898Y-109898097D01*
X139633693Y-109674069D01*
X139642599Y-109629295D01*
X143541941Y-109629295D01*
X143541941Y-109783139D01*
X143571954Y-109934026D01*
X143630828Y-110076159D01*
X143716299Y-110204076D01*
X143825082Y-110312859D01*
X143952999Y-110398330D01*
X144095132Y-110457204D01*
X144239380Y-110485896D01*
X144239380Y-110519462D01*
X144269393Y-110670349D01*
X144328267Y-110812482D01*
X144413738Y-110940399D01*
X144522521Y-111049182D01*
X144650438Y-111134653D01*
X144792571Y-111193527D01*
X144943458Y-111223540D01*
X145097302Y-111223540D01*
X145248189Y-111193527D01*
X145390322Y-111134653D01*
X145518239Y-111049182D01*
X145627022Y-110940399D01*
X145712493Y-110812482D01*
X145771367Y-110670349D01*
X145794593Y-110553578D01*
X157099400Y-110553578D01*
X157099400Y-110707422D01*
X157129413Y-110858309D01*
X157188287Y-111000442D01*
X157273758Y-111128359D01*
X157382541Y-111237142D01*
X157510458Y-111322613D01*
X157652591Y-111381487D01*
X157803478Y-111411500D01*
X157957322Y-111411500D01*
X158108209Y-111381487D01*
X158250342Y-111322613D01*
X158378259Y-111237142D01*
X158487042Y-111128359D01*
X158572513Y-111000442D01*
X158631387Y-110858309D01*
X158661400Y-110707422D01*
X158661400Y-110553578D01*
X158631387Y-110402691D01*
X158572513Y-110260558D01*
X158487042Y-110132641D01*
X158378259Y-110023858D01*
X158250342Y-109938387D01*
X158108209Y-109879513D01*
X157957322Y-109849500D01*
X157803478Y-109849500D01*
X157652591Y-109879513D01*
X157510458Y-109938387D01*
X157382541Y-110023858D01*
X157273758Y-110132641D01*
X157188287Y-110260558D01*
X157129413Y-110402691D01*
X157099400Y-110553578D01*
X145794593Y-110553578D01*
X145801380Y-110519462D01*
X145801380Y-110365618D01*
X145771367Y-110214731D01*
X145712493Y-110072598D01*
X145627022Y-109944681D01*
X145518239Y-109835898D01*
X145390322Y-109750427D01*
X145248189Y-109691553D01*
X145103941Y-109662861D01*
X145103941Y-109629295D01*
X145073928Y-109478408D01*
X145015054Y-109336275D01*
X144929583Y-109208358D01*
X144820800Y-109099575D01*
X144692883Y-109014104D01*
X144550750Y-108955230D01*
X144399863Y-108925217D01*
X144246019Y-108925217D01*
X144095132Y-108955230D01*
X143952999Y-109014104D01*
X143825082Y-109099575D01*
X143716299Y-109208358D01*
X143630828Y-109336275D01*
X143571954Y-109478408D01*
X143541941Y-109629295D01*
X139642599Y-109629295D01*
X139681000Y-109436243D01*
X139681000Y-109193757D01*
X139633693Y-108955931D01*
X139540898Y-108731903D01*
X139406180Y-108530283D01*
X139234717Y-108358820D01*
X139033097Y-108224102D01*
X138809069Y-108131307D01*
X138571243Y-108084000D01*
X138328757Y-108084000D01*
X138090931Y-108131307D01*
X137866903Y-108224102D01*
X137665283Y-108358820D01*
X137493820Y-108530283D01*
X137381800Y-108697933D01*
X137381800Y-107392067D01*
X137493820Y-107559717D01*
X137665283Y-107731180D01*
X137866903Y-107865898D01*
X138090931Y-107958693D01*
X138328757Y-108006000D01*
X138571243Y-108006000D01*
X138809069Y-107958693D01*
X139033097Y-107865898D01*
X139234717Y-107731180D01*
X139406180Y-107559717D01*
X139540898Y-107358097D01*
X139633693Y-107134069D01*
X139681000Y-106896243D01*
X139681000Y-106653757D01*
X139633693Y-106415931D01*
X139540898Y-106191903D01*
X139486707Y-106110800D01*
X142458522Y-106110800D01*
X142458522Y-106264644D01*
X142488535Y-106415531D01*
X142547409Y-106557664D01*
X142632880Y-106685581D01*
X142741663Y-106794364D01*
X142869580Y-106879835D01*
X143011713Y-106938709D01*
X143162600Y-106968722D01*
X143316444Y-106968722D01*
X143467331Y-106938709D01*
X143609464Y-106879835D01*
X143737381Y-106794364D01*
X143846164Y-106685581D01*
X143931635Y-106557664D01*
X143990509Y-106415531D01*
X144020522Y-106264644D01*
X144020522Y-106227958D01*
X150744320Y-106227958D01*
X150744320Y-106381802D01*
X150774333Y-106532689D01*
X150833207Y-106674822D01*
X150918678Y-106802739D01*
X151027461Y-106911522D01*
X151155378Y-106996993D01*
X151297511Y-107055867D01*
X151448398Y-107085880D01*
X151602242Y-107085880D01*
X151753129Y-107055867D01*
X151895262Y-106996993D01*
X152023179Y-106911522D01*
X152131962Y-106802739D01*
X152173886Y-106739995D01*
X152198838Y-106777339D01*
X152307621Y-106886122D01*
X152435538Y-106971593D01*
X152577671Y-107030467D01*
X152728558Y-107060480D01*
X152882402Y-107060480D01*
X152904934Y-107055998D01*
X156477100Y-107055998D01*
X156477100Y-107209842D01*
X156507113Y-107360729D01*
X156565987Y-107502862D01*
X156651458Y-107630779D01*
X156760241Y-107739562D01*
X156888158Y-107825033D01*
X157030291Y-107883907D01*
X157181178Y-107913920D01*
X157335022Y-107913920D01*
X157485909Y-107883907D01*
X157628042Y-107825033D01*
X157755959Y-107739562D01*
X157864742Y-107630779D01*
X157950213Y-107502862D01*
X158009087Y-107360729D01*
X158039100Y-107209842D01*
X158039100Y-107055998D01*
X158009087Y-106905111D01*
X157950213Y-106762978D01*
X157864742Y-106635061D01*
X157755959Y-106526278D01*
X157628042Y-106440807D01*
X157485909Y-106381933D01*
X157335022Y-106351920D01*
X157181178Y-106351920D01*
X157030291Y-106381933D01*
X156888158Y-106440807D01*
X156760241Y-106526278D01*
X156651458Y-106635061D01*
X156565987Y-106762978D01*
X156507113Y-106905111D01*
X156477100Y-107055998D01*
X152904934Y-107055998D01*
X153033289Y-107030467D01*
X153175422Y-106971593D01*
X153303339Y-106886122D01*
X153412122Y-106777339D01*
X153497593Y-106649422D01*
X153556467Y-106507289D01*
X153586480Y-106356402D01*
X153586480Y-106202558D01*
X153556467Y-106051671D01*
X153497593Y-105909538D01*
X153412122Y-105781621D01*
X153303339Y-105672838D01*
X153175422Y-105587367D01*
X153033289Y-105528493D01*
X152882402Y-105498480D01*
X152728558Y-105498480D01*
X152577671Y-105528493D01*
X152435538Y-105587367D01*
X152307621Y-105672838D01*
X152198838Y-105781621D01*
X152156914Y-105844365D01*
X152131962Y-105807021D01*
X152023179Y-105698238D01*
X151895262Y-105612767D01*
X151753129Y-105553893D01*
X151602242Y-105523880D01*
X151448398Y-105523880D01*
X151297511Y-105553893D01*
X151155378Y-105612767D01*
X151027461Y-105698238D01*
X150918678Y-105807021D01*
X150833207Y-105934938D01*
X150774333Y-106077071D01*
X150744320Y-106227958D01*
X144020522Y-106227958D01*
X144020522Y-106110800D01*
X143990509Y-105959913D01*
X143931635Y-105817780D01*
X143846164Y-105689863D01*
X143737381Y-105581080D01*
X143609464Y-105495609D01*
X143467331Y-105436735D01*
X143316444Y-105406722D01*
X143162600Y-105406722D01*
X143011713Y-105436735D01*
X142869580Y-105495609D01*
X142741663Y-105581080D01*
X142632880Y-105689863D01*
X142547409Y-105817780D01*
X142488535Y-105959913D01*
X142458522Y-106110800D01*
X139486707Y-106110800D01*
X139406180Y-105990283D01*
X139234717Y-105818820D01*
X139033097Y-105684102D01*
X138809069Y-105591307D01*
X138571243Y-105544000D01*
X138328757Y-105544000D01*
X138090931Y-105591307D01*
X137866903Y-105684102D01*
X137665283Y-105818820D01*
X137493820Y-105990283D01*
X137381800Y-106157933D01*
X137381800Y-104852067D01*
X137493820Y-105019717D01*
X137665283Y-105191180D01*
X137866903Y-105325898D01*
X138090931Y-105418693D01*
X138328757Y-105466000D01*
X138571243Y-105466000D01*
X138809069Y-105418693D01*
X139033097Y-105325898D01*
X139234717Y-105191180D01*
X139406180Y-105019717D01*
X139540898Y-104818097D01*
X139633693Y-104594069D01*
X139681000Y-104356243D01*
X139681000Y-104113757D01*
X139633693Y-103875931D01*
X139540898Y-103651903D01*
X139406180Y-103450283D01*
X139234717Y-103278820D01*
X139033097Y-103144102D01*
X138809069Y-103051307D01*
X138571243Y-103004000D01*
X138328757Y-103004000D01*
X138090931Y-103051307D01*
X137866903Y-103144102D01*
X137665283Y-103278820D01*
X137493820Y-103450283D01*
X137381800Y-103617933D01*
X137381800Y-102312067D01*
X137493820Y-102479717D01*
X137665283Y-102651180D01*
X137866903Y-102785898D01*
X138090931Y-102878693D01*
X138328757Y-102926000D01*
X138571243Y-102926000D01*
X138809069Y-102878693D01*
X139033097Y-102785898D01*
X139234717Y-102651180D01*
X139406180Y-102479717D01*
X139540898Y-102278097D01*
X139633693Y-102054069D01*
X139681000Y-101816243D01*
X139681000Y-101573757D01*
X139633693Y-101335931D01*
X139540898Y-101111903D01*
X139406180Y-100910283D01*
X139234717Y-100738820D01*
X139033097Y-100604102D01*
X138809069Y-100511307D01*
X138571243Y-100464000D01*
X138328757Y-100464000D01*
X138090931Y-100511307D01*
X137866903Y-100604102D01*
X137665283Y-100738820D01*
X137493820Y-100910283D01*
X137381800Y-101077933D01*
X137381800Y-99772067D01*
X137493820Y-99939717D01*
X137665283Y-100111180D01*
X137866903Y-100245898D01*
X138090931Y-100338693D01*
X138328757Y-100386000D01*
X138571243Y-100386000D01*
X138809069Y-100338693D01*
X139033097Y-100245898D01*
X139066770Y-100223398D01*
X156743800Y-100223398D01*
X156743800Y-100377242D01*
X156773813Y-100528129D01*
X156832687Y-100670262D01*
X156918158Y-100798179D01*
X157026941Y-100906962D01*
X157154858Y-100992433D01*
X157296991Y-101051307D01*
X157447878Y-101081320D01*
X157601722Y-101081320D01*
X157752609Y-101051307D01*
X157894742Y-100992433D01*
X158022659Y-100906962D01*
X158131442Y-100798179D01*
X158216913Y-100670262D01*
X158275787Y-100528129D01*
X158305800Y-100377242D01*
X158305800Y-100223398D01*
X158275787Y-100072511D01*
X158216913Y-99930378D01*
X158131442Y-99802461D01*
X158022659Y-99693678D01*
X157894742Y-99608207D01*
X157752609Y-99549333D01*
X157601722Y-99519320D01*
X157447878Y-99519320D01*
X157296991Y-99549333D01*
X157154858Y-99608207D01*
X157026941Y-99693678D01*
X156918158Y-99802461D01*
X156832687Y-99930378D01*
X156773813Y-100072511D01*
X156743800Y-100223398D01*
X139066770Y-100223398D01*
X139234717Y-100111180D01*
X139406180Y-99939717D01*
X139540898Y-99738097D01*
X139633693Y-99514069D01*
X139679536Y-99283598D01*
X146332340Y-99283598D01*
X146332340Y-99437442D01*
X146362353Y-99588329D01*
X146421227Y-99730462D01*
X146506698Y-99858379D01*
X146615481Y-99967162D01*
X146743398Y-100052633D01*
X146885531Y-100111507D01*
X147036418Y-100141520D01*
X147190262Y-100141520D01*
X147341149Y-100111507D01*
X147483282Y-100052633D01*
X147611199Y-99967162D01*
X147719982Y-99858379D01*
X147805453Y-99730462D01*
X147864327Y-99588329D01*
X147894340Y-99437442D01*
X147894340Y-99283598D01*
X147892825Y-99275978D01*
X150431500Y-99275978D01*
X150431500Y-99429822D01*
X150461513Y-99580709D01*
X150520387Y-99722842D01*
X150605858Y-99850759D01*
X150714641Y-99959542D01*
X150842558Y-100045013D01*
X150984691Y-100103887D01*
X151135578Y-100133900D01*
X151289422Y-100133900D01*
X151440309Y-100103887D01*
X151582442Y-100045013D01*
X151710359Y-99959542D01*
X151819142Y-99850759D01*
X151904613Y-99722842D01*
X151963487Y-99580709D01*
X151993500Y-99429822D01*
X151993500Y-99275978D01*
X151963487Y-99125091D01*
X151904613Y-98982958D01*
X151819142Y-98855041D01*
X151710359Y-98746258D01*
X151582442Y-98660787D01*
X151440309Y-98601913D01*
X151289422Y-98571900D01*
X151135578Y-98571900D01*
X150984691Y-98601913D01*
X150842558Y-98660787D01*
X150714641Y-98746258D01*
X150605858Y-98855041D01*
X150520387Y-98982958D01*
X150461513Y-99125091D01*
X150431500Y-99275978D01*
X147892825Y-99275978D01*
X147864327Y-99132711D01*
X147805453Y-98990578D01*
X147719982Y-98862661D01*
X147611199Y-98753878D01*
X147483282Y-98668407D01*
X147341149Y-98609533D01*
X147190262Y-98579520D01*
X147036418Y-98579520D01*
X146885531Y-98609533D01*
X146743398Y-98668407D01*
X146615481Y-98753878D01*
X146506698Y-98862661D01*
X146421227Y-98990578D01*
X146362353Y-99132711D01*
X146332340Y-99283598D01*
X139679536Y-99283598D01*
X139681000Y-99276243D01*
X139681000Y-99033757D01*
X139633693Y-98795931D01*
X139540898Y-98571903D01*
X139406180Y-98370283D01*
X139318735Y-98282838D01*
X156743800Y-98282838D01*
X156743800Y-98436682D01*
X156773813Y-98587569D01*
X156832687Y-98729702D01*
X156918158Y-98857619D01*
X157026941Y-98966402D01*
X157154858Y-99051873D01*
X157296991Y-99110747D01*
X157447878Y-99140760D01*
X157601722Y-99140760D01*
X157752609Y-99110747D01*
X157894742Y-99051873D01*
X158022659Y-98966402D01*
X158131442Y-98857619D01*
X158216913Y-98729702D01*
X158275787Y-98587569D01*
X158305800Y-98436682D01*
X158305800Y-98282838D01*
X158275787Y-98131951D01*
X158216913Y-97989818D01*
X158131442Y-97861901D01*
X158022659Y-97753118D01*
X157894742Y-97667647D01*
X157752609Y-97608773D01*
X157601722Y-97578760D01*
X157447878Y-97578760D01*
X157296991Y-97608773D01*
X157154858Y-97667647D01*
X157026941Y-97753118D01*
X156918158Y-97861901D01*
X156832687Y-97989818D01*
X156773813Y-98131951D01*
X156743800Y-98282838D01*
X139318735Y-98282838D01*
X139234717Y-98198820D01*
X139033097Y-98064102D01*
X138809069Y-97971307D01*
X138571243Y-97924000D01*
X138328757Y-97924000D01*
X138090931Y-97971307D01*
X137866903Y-98064102D01*
X137665283Y-98198820D01*
X137493820Y-98370283D01*
X137381800Y-98537933D01*
X137381800Y-97232067D01*
X137493820Y-97399717D01*
X137665283Y-97571180D01*
X137866903Y-97705898D01*
X138090931Y-97798693D01*
X138328757Y-97846000D01*
X138571243Y-97846000D01*
X138809069Y-97798693D01*
X139033097Y-97705898D01*
X139234717Y-97571180D01*
X139406180Y-97399717D01*
X139540898Y-97198097D01*
X139633693Y-96974069D01*
X139681000Y-96736243D01*
X139681000Y-96493757D01*
X139633693Y-96255931D01*
X139540898Y-96031903D01*
X139406180Y-95830283D01*
X139234717Y-95658820D01*
X139033097Y-95524102D01*
X138809069Y-95431307D01*
X138571243Y-95384000D01*
X138328757Y-95384000D01*
X138090931Y-95431307D01*
X137866903Y-95524102D01*
X137665283Y-95658820D01*
X137493820Y-95830283D01*
X137381800Y-95997933D01*
X137381800Y-94692067D01*
X137493820Y-94859717D01*
X137665283Y-95031180D01*
X137866903Y-95165898D01*
X138090931Y-95258693D01*
X138328757Y-95306000D01*
X138571243Y-95306000D01*
X138809069Y-95258693D01*
X139033097Y-95165898D01*
X139234717Y-95031180D01*
X139406180Y-94859717D01*
X139540898Y-94658097D01*
X139632363Y-94437278D01*
X142519800Y-94437278D01*
X142519800Y-94591122D01*
X142549813Y-94742009D01*
X142608687Y-94884142D01*
X142694158Y-95012059D01*
X142802941Y-95120842D01*
X142930858Y-95206313D01*
X143072991Y-95265187D01*
X143223878Y-95295200D01*
X143377722Y-95295200D01*
X143528609Y-95265187D01*
X143670742Y-95206313D01*
X143798659Y-95120842D01*
X143907442Y-95012059D01*
X143992913Y-94884142D01*
X144051787Y-94742009D01*
X144081800Y-94591122D01*
X144081800Y-94437278D01*
X144051787Y-94286391D01*
X143992913Y-94144258D01*
X143907442Y-94016341D01*
X143798659Y-93907558D01*
X143670742Y-93822087D01*
X143528609Y-93763213D01*
X143377722Y-93733200D01*
X143223878Y-93733200D01*
X143072991Y-93763213D01*
X142930858Y-93822087D01*
X142802941Y-93907558D01*
X142694158Y-94016341D01*
X142608687Y-94144258D01*
X142549813Y-94286391D01*
X142519800Y-94437278D01*
X139632363Y-94437278D01*
X139633693Y-94434069D01*
X139681000Y-94196243D01*
X139681000Y-93953757D01*
X139633693Y-93715931D01*
X139540898Y-93491903D01*
X139406180Y-93290283D01*
X139234717Y-93118820D01*
X139033097Y-92984102D01*
X138911169Y-92933598D01*
X150068680Y-92933598D01*
X150068680Y-93087442D01*
X150098693Y-93238329D01*
X150157567Y-93380462D01*
X150243038Y-93508379D01*
X150351821Y-93617162D01*
X150479738Y-93702633D01*
X150621871Y-93761507D01*
X150772758Y-93791520D01*
X150926602Y-93791520D01*
X151077489Y-93761507D01*
X151219622Y-93702633D01*
X151347539Y-93617162D01*
X151456322Y-93508379D01*
X151541793Y-93380462D01*
X151600667Y-93238329D01*
X151630680Y-93087442D01*
X151630680Y-92933598D01*
X151600667Y-92782711D01*
X151541793Y-92640578D01*
X151456322Y-92512661D01*
X151347539Y-92403878D01*
X151219622Y-92318407D01*
X151077489Y-92259533D01*
X150926602Y-92229520D01*
X150772758Y-92229520D01*
X150621871Y-92259533D01*
X150479738Y-92318407D01*
X150351821Y-92403878D01*
X150243038Y-92512661D01*
X150157567Y-92640578D01*
X150098693Y-92782711D01*
X150068680Y-92933598D01*
X138911169Y-92933598D01*
X138809069Y-92891307D01*
X138571243Y-92844000D01*
X138328757Y-92844000D01*
X138090931Y-92891307D01*
X137866903Y-92984102D01*
X137665283Y-93118820D01*
X137493820Y-93290283D01*
X137381800Y-93457933D01*
X137381800Y-92152067D01*
X137493820Y-92319717D01*
X137665283Y-92491180D01*
X137866903Y-92625898D01*
X138090931Y-92718693D01*
X138328757Y-92766000D01*
X138571243Y-92766000D01*
X138809069Y-92718693D01*
X139033097Y-92625898D01*
X139234717Y-92491180D01*
X139406180Y-92319717D01*
X139540898Y-92118097D01*
X139633693Y-91894069D01*
X139681000Y-91656243D01*
X139681000Y-91413757D01*
X139633693Y-91175931D01*
X139540898Y-90951903D01*
X139406180Y-90750283D01*
X139234717Y-90578820D01*
X139033097Y-90444102D01*
X138809069Y-90351307D01*
X138571243Y-90304000D01*
X138328757Y-90304000D01*
X138090931Y-90351307D01*
X137866903Y-90444102D01*
X137665283Y-90578820D01*
X137493820Y-90750283D01*
X137381800Y-90917933D01*
X137381800Y-89612067D01*
X137493820Y-89779717D01*
X137665283Y-89951180D01*
X137866903Y-90085898D01*
X138090931Y-90178693D01*
X138328757Y-90226000D01*
X138571243Y-90226000D01*
X138809069Y-90178693D01*
X139033097Y-90085898D01*
X139234717Y-89951180D01*
X139406180Y-89779717D01*
X139540898Y-89578097D01*
X139633693Y-89354069D01*
X139681000Y-89116243D01*
X139681000Y-88873757D01*
X139633693Y-88635931D01*
X139540898Y-88411903D01*
X139406180Y-88210283D01*
X139234717Y-88038820D01*
X139033097Y-87904102D01*
X138809069Y-87811307D01*
X138571243Y-87764000D01*
X138328757Y-87764000D01*
X138090931Y-87811307D01*
X137866903Y-87904102D01*
X137665283Y-88038820D01*
X137493820Y-88210283D01*
X137381800Y-88377933D01*
X137381800Y-87072067D01*
X137493820Y-87239717D01*
X137665283Y-87411180D01*
X137866903Y-87545898D01*
X138090931Y-87638693D01*
X138328757Y-87686000D01*
X138571243Y-87686000D01*
X138809069Y-87638693D01*
X138848263Y-87622458D01*
X142816980Y-87622458D01*
X142816980Y-87776302D01*
X142846993Y-87927189D01*
X142905867Y-88069322D01*
X142991338Y-88197239D01*
X143100121Y-88306022D01*
X143228038Y-88391493D01*
X143370171Y-88450367D01*
X143521058Y-88480380D01*
X143674902Y-88480380D01*
X143825789Y-88450367D01*
X143967922Y-88391493D01*
X144095839Y-88306022D01*
X144204622Y-88197239D01*
X144290093Y-88069322D01*
X144348967Y-87927189D01*
X144378980Y-87776302D01*
X144378980Y-87622458D01*
X144348967Y-87471571D01*
X144290093Y-87329438D01*
X144204622Y-87201521D01*
X144095839Y-87092738D01*
X143967922Y-87007267D01*
X143825789Y-86948393D01*
X143807426Y-86944740D01*
X143835949Y-86939067D01*
X143978082Y-86880193D01*
X144105999Y-86794722D01*
X144214782Y-86685939D01*
X144300253Y-86558022D01*
X144359127Y-86415889D01*
X144389140Y-86265002D01*
X144389140Y-86111158D01*
X144388635Y-86108618D01*
X144939390Y-86108618D01*
X144939390Y-86262462D01*
X144969403Y-86413349D01*
X145028277Y-86555482D01*
X145113748Y-86683399D01*
X145222531Y-86792182D01*
X145350448Y-86877653D01*
X145492581Y-86936527D01*
X145643468Y-86966540D01*
X145797312Y-86966540D01*
X145948199Y-86936527D01*
X146090332Y-86877653D01*
X146218249Y-86792182D01*
X146327032Y-86683399D01*
X146412503Y-86555482D01*
X146471377Y-86413349D01*
X146501390Y-86262462D01*
X146501390Y-86108618D01*
X146493812Y-86070518D01*
X156342480Y-86070518D01*
X156342480Y-86224362D01*
X156372493Y-86375249D01*
X156431367Y-86517382D01*
X156516838Y-86645299D01*
X156625621Y-86754082D01*
X156753538Y-86839553D01*
X156895671Y-86898427D01*
X156997001Y-86918583D01*
X156898211Y-86938233D01*
X156756078Y-86997107D01*
X156628161Y-87082578D01*
X156519378Y-87191361D01*
X156433907Y-87319278D01*
X156375033Y-87461411D01*
X156345020Y-87612298D01*
X156345020Y-87766142D01*
X156375033Y-87917029D01*
X156433907Y-88059162D01*
X156519378Y-88187079D01*
X156628161Y-88295862D01*
X156756078Y-88381333D01*
X156889803Y-88436724D01*
X156753540Y-88493167D01*
X156625623Y-88578638D01*
X156516840Y-88687421D01*
X156431369Y-88815338D01*
X156372495Y-88957471D01*
X156342482Y-89108358D01*
X156342482Y-89262202D01*
X156372495Y-89413089D01*
X156431369Y-89555222D01*
X156516840Y-89683139D01*
X156625623Y-89791922D01*
X156753540Y-89877393D01*
X156895673Y-89936267D01*
X157046560Y-89966280D01*
X157200404Y-89966280D01*
X157351291Y-89936267D01*
X157493424Y-89877393D01*
X157621341Y-89791922D01*
X157730124Y-89683139D01*
X157815595Y-89555222D01*
X157874469Y-89413089D01*
X157904482Y-89262202D01*
X157904482Y-89108358D01*
X157874469Y-88957471D01*
X157815595Y-88815338D01*
X157730124Y-88687421D01*
X157621341Y-88578638D01*
X157493424Y-88493167D01*
X157359699Y-88437776D01*
X157495962Y-88381333D01*
X157623879Y-88295862D01*
X157732662Y-88187079D01*
X157818133Y-88059162D01*
X157877007Y-87917029D01*
X157907020Y-87766142D01*
X157907020Y-87612298D01*
X157877007Y-87461411D01*
X157818133Y-87319278D01*
X157732662Y-87191361D01*
X157623879Y-87082578D01*
X157495962Y-86997107D01*
X157353829Y-86938233D01*
X157252499Y-86918077D01*
X157351289Y-86898427D01*
X157493422Y-86839553D01*
X157621339Y-86754082D01*
X157730122Y-86645299D01*
X157815593Y-86517382D01*
X157874467Y-86375249D01*
X157904480Y-86224362D01*
X157904480Y-86070518D01*
X157874467Y-85919631D01*
X157815593Y-85777498D01*
X157730122Y-85649581D01*
X157621339Y-85540798D01*
X157493422Y-85455327D01*
X157428856Y-85428583D01*
X157523902Y-85389213D01*
X157651819Y-85303742D01*
X157760602Y-85194959D01*
X157846073Y-85067042D01*
X157904947Y-84924909D01*
X157934960Y-84774022D01*
X157934960Y-84620178D01*
X157904947Y-84469291D01*
X157846073Y-84327158D01*
X157760602Y-84199241D01*
X157651819Y-84090458D01*
X157523902Y-84004987D01*
X157381769Y-83946113D01*
X157230882Y-83916100D01*
X157077038Y-83916100D01*
X156926151Y-83946113D01*
X156784018Y-84004987D01*
X156656101Y-84090458D01*
X156547318Y-84199241D01*
X156461847Y-84327158D01*
X156402973Y-84469291D01*
X156372960Y-84620178D01*
X156372960Y-84774022D01*
X156402973Y-84924909D01*
X156461847Y-85067042D01*
X156547318Y-85194959D01*
X156656101Y-85303742D01*
X156784018Y-85389213D01*
X156848584Y-85415957D01*
X156753538Y-85455327D01*
X156625621Y-85540798D01*
X156516838Y-85649581D01*
X156431367Y-85777498D01*
X156372493Y-85919631D01*
X156342480Y-86070518D01*
X146493812Y-86070518D01*
X146471377Y-85957731D01*
X146412503Y-85815598D01*
X146327032Y-85687681D01*
X146218249Y-85578898D01*
X146090332Y-85493427D01*
X145948199Y-85434553D01*
X145797312Y-85404540D01*
X145643468Y-85404540D01*
X145492581Y-85434553D01*
X145350448Y-85493427D01*
X145222531Y-85578898D01*
X145113748Y-85687681D01*
X145028277Y-85815598D01*
X144969403Y-85957731D01*
X144939390Y-86108618D01*
X144388635Y-86108618D01*
X144359127Y-85960271D01*
X144300253Y-85818138D01*
X144214782Y-85690221D01*
X144105999Y-85581438D01*
X143978082Y-85495967D01*
X143882420Y-85456342D01*
X143983162Y-85414613D01*
X144111079Y-85329142D01*
X144219862Y-85220359D01*
X144305333Y-85092442D01*
X144364207Y-84950309D01*
X144394220Y-84799422D01*
X144394220Y-84645578D01*
X144364207Y-84494691D01*
X144305333Y-84352558D01*
X144219862Y-84224641D01*
X144111079Y-84115858D01*
X143983162Y-84030387D01*
X143841029Y-83971513D01*
X143690142Y-83941500D01*
X143536298Y-83941500D01*
X143385411Y-83971513D01*
X143243278Y-84030387D01*
X143115361Y-84115858D01*
X143006578Y-84224641D01*
X142921107Y-84352558D01*
X142862233Y-84494691D01*
X142832220Y-84645578D01*
X142832220Y-84799422D01*
X142862233Y-84950309D01*
X142921107Y-85092442D01*
X143006578Y-85220359D01*
X143115361Y-85329142D01*
X143243278Y-85414613D01*
X143338940Y-85454238D01*
X143238198Y-85495967D01*
X143110281Y-85581438D01*
X143001498Y-85690221D01*
X142916027Y-85818138D01*
X142857153Y-85960271D01*
X142827140Y-86111158D01*
X142827140Y-86265002D01*
X142857153Y-86415889D01*
X142916027Y-86558022D01*
X143001498Y-86685939D01*
X143110281Y-86794722D01*
X143238198Y-86880193D01*
X143380331Y-86939067D01*
X143398694Y-86942720D01*
X143370171Y-86948393D01*
X143228038Y-87007267D01*
X143100121Y-87092738D01*
X142991338Y-87201521D01*
X142905867Y-87329438D01*
X142846993Y-87471571D01*
X142816980Y-87622458D01*
X138848263Y-87622458D01*
X139033097Y-87545898D01*
X139234717Y-87411180D01*
X139406180Y-87239717D01*
X139540898Y-87038097D01*
X139633693Y-86814069D01*
X139681000Y-86576243D01*
X139681000Y-86333757D01*
X139633693Y-86095931D01*
X139540898Y-85871903D01*
X139406180Y-85670283D01*
X139234717Y-85498820D01*
X139033097Y-85364102D01*
X138809069Y-85271307D01*
X138571243Y-85224000D01*
X138328757Y-85224000D01*
X138090931Y-85271307D01*
X137866903Y-85364102D01*
X137665283Y-85498820D01*
X137493820Y-85670283D01*
X137381800Y-85837933D01*
X137381800Y-84532067D01*
X137493820Y-84699717D01*
X137665283Y-84871180D01*
X137866903Y-85005898D01*
X138090931Y-85098693D01*
X138328757Y-85146000D01*
X138571243Y-85146000D01*
X138809069Y-85098693D01*
X139033097Y-85005898D01*
X139234717Y-84871180D01*
X139406180Y-84699717D01*
X139540898Y-84498097D01*
X139633693Y-84274069D01*
X139681000Y-84036243D01*
X139681000Y-83793757D01*
X139633693Y-83555931D01*
X139540898Y-83331903D01*
X139406180Y-83130283D01*
X139234717Y-82958820D01*
X139033097Y-82824102D01*
X138809069Y-82731307D01*
X138571243Y-82684000D01*
X138328757Y-82684000D01*
X138090931Y-82731307D01*
X137866903Y-82824102D01*
X137665283Y-82958820D01*
X137493820Y-83130283D01*
X137381800Y-83297933D01*
X137381800Y-81992067D01*
X137493820Y-82159717D01*
X137665283Y-82331180D01*
X137866903Y-82465898D01*
X138090931Y-82558693D01*
X138328757Y-82606000D01*
X138571243Y-82606000D01*
X138809069Y-82558693D01*
X139033097Y-82465898D01*
X139234717Y-82331180D01*
X139406180Y-82159717D01*
X139540898Y-81958097D01*
X139633693Y-81734069D01*
X139681000Y-81496243D01*
X139681000Y-81253757D01*
X139633693Y-81015931D01*
X139540898Y-80791903D01*
X139406180Y-80590283D01*
X139234717Y-80418820D01*
X139033097Y-80284102D01*
X138809069Y-80191307D01*
X138571243Y-80144000D01*
X138328757Y-80144000D01*
X138090931Y-80191307D01*
X137866903Y-80284102D01*
X137665283Y-80418820D01*
X137493820Y-80590283D01*
X137381800Y-80757933D01*
X137381800Y-79452067D01*
X137493820Y-79619717D01*
X137665283Y-79791180D01*
X137866903Y-79925898D01*
X138090931Y-80018693D01*
X138328757Y-80066000D01*
X138571243Y-80066000D01*
X138809069Y-80018693D01*
X139033097Y-79925898D01*
X139234717Y-79791180D01*
X139406180Y-79619717D01*
X139540898Y-79418097D01*
X139633693Y-79194069D01*
X139681000Y-78956243D01*
X139681000Y-78713757D01*
X139633693Y-78475931D01*
X139540898Y-78251903D01*
X139406180Y-78050283D01*
X139234717Y-77878820D01*
X139033097Y-77744102D01*
X138809069Y-77651307D01*
X138571243Y-77604000D01*
X138328757Y-77604000D01*
X138090931Y-77651307D01*
X137866903Y-77744102D01*
X137665283Y-77878820D01*
X137493820Y-78050283D01*
X137381800Y-78217933D01*
X137381800Y-76912067D01*
X137493820Y-77079717D01*
X137665283Y-77251180D01*
X137866903Y-77385898D01*
X138090931Y-77478693D01*
X138328757Y-77526000D01*
X138571243Y-77526000D01*
X138809069Y-77478693D01*
X139033097Y-77385898D01*
X139234717Y-77251180D01*
X139406180Y-77079717D01*
X139540898Y-76878097D01*
X139633693Y-76654069D01*
X139681000Y-76416243D01*
X139681000Y-76173757D01*
X139633693Y-75935931D01*
X139540898Y-75711903D01*
X139468251Y-75603178D01*
X156393280Y-75603178D01*
X156393280Y-75757022D01*
X156423293Y-75907909D01*
X156482167Y-76050042D01*
X156567638Y-76177959D01*
X156676421Y-76286742D01*
X156804338Y-76372213D01*
X156946471Y-76431087D01*
X157097358Y-76461100D01*
X157251202Y-76461100D01*
X157402089Y-76431087D01*
X157544222Y-76372213D01*
X157672139Y-76286742D01*
X157780922Y-76177959D01*
X157866393Y-76050042D01*
X157925267Y-75907909D01*
X157955280Y-75757022D01*
X157955280Y-75603178D01*
X157925267Y-75452291D01*
X157866393Y-75310158D01*
X157780922Y-75182241D01*
X157672139Y-75073458D01*
X157544222Y-74987987D01*
X157402089Y-74929113D01*
X157390111Y-74926730D01*
X157412249Y-74922327D01*
X157554382Y-74863453D01*
X157682299Y-74777982D01*
X157791082Y-74669199D01*
X157876553Y-74541282D01*
X157935427Y-74399149D01*
X157965440Y-74248262D01*
X157965440Y-74094418D01*
X157935427Y-73943531D01*
X157876553Y-73801398D01*
X157791082Y-73673481D01*
X157682299Y-73564698D01*
X157554382Y-73479227D01*
X157412249Y-73420353D01*
X157261362Y-73390340D01*
X157107518Y-73390340D01*
X156956631Y-73420353D01*
X156814498Y-73479227D01*
X156686581Y-73564698D01*
X156577798Y-73673481D01*
X156492327Y-73801398D01*
X156433453Y-73943531D01*
X156403440Y-74094418D01*
X156403440Y-74248262D01*
X156433453Y-74399149D01*
X156492327Y-74541282D01*
X156577798Y-74669199D01*
X156686581Y-74777982D01*
X156814498Y-74863453D01*
X156956631Y-74922327D01*
X156968609Y-74924710D01*
X156946471Y-74929113D01*
X156804338Y-74987987D01*
X156676421Y-75073458D01*
X156567638Y-75182241D01*
X156482167Y-75310158D01*
X156423293Y-75452291D01*
X156393280Y-75603178D01*
X139468251Y-75603178D01*
X139406180Y-75510283D01*
X139234717Y-75338820D01*
X139033097Y-75204102D01*
X138809069Y-75111307D01*
X138571243Y-75064000D01*
X138328757Y-75064000D01*
X138090931Y-75111307D01*
X137866903Y-75204102D01*
X137665283Y-75338820D01*
X137493820Y-75510283D01*
X137381800Y-75677933D01*
X137381800Y-74372067D01*
X137493820Y-74539717D01*
X137665283Y-74711180D01*
X137866903Y-74845898D01*
X138090931Y-74938693D01*
X138328757Y-74986000D01*
X138571243Y-74986000D01*
X138809069Y-74938693D01*
X139033097Y-74845898D01*
X139234717Y-74711180D01*
X139406180Y-74539717D01*
X139540898Y-74338097D01*
X139633693Y-74114069D01*
X139681000Y-73876243D01*
X139681000Y-73633757D01*
X139633693Y-73395931D01*
X139540898Y-73171903D01*
X139406180Y-72970283D01*
X139234717Y-72798820D01*
X139033097Y-72664102D01*
X138809069Y-72571307D01*
X138571243Y-72524000D01*
X138328757Y-72524000D01*
X138090931Y-72571307D01*
X137866903Y-72664102D01*
X137665283Y-72798820D01*
X137493820Y-72970283D01*
X137381800Y-73137933D01*
X137381800Y-71832067D01*
X137493820Y-71999717D01*
X137665283Y-72171180D01*
X137866903Y-72305898D01*
X138090931Y-72398693D01*
X138328757Y-72446000D01*
X138571243Y-72446000D01*
X138809069Y-72398693D01*
X139033097Y-72305898D01*
X139234717Y-72171180D01*
X139406180Y-71999717D01*
X139540898Y-71798097D01*
X139633693Y-71574069D01*
X139681000Y-71336243D01*
X139681000Y-71247078D01*
X142890644Y-71247078D01*
X142890644Y-71400922D01*
X142920657Y-71551809D01*
X142979531Y-71693942D01*
X143065002Y-71821859D01*
X143173785Y-71930642D01*
X143301702Y-72016113D01*
X143443835Y-72074987D01*
X143594722Y-72105000D01*
X143748566Y-72105000D01*
X143899453Y-72074987D01*
X144041586Y-72016113D01*
X144169503Y-71930642D01*
X144278286Y-71821859D01*
X144363757Y-71693942D01*
X144422631Y-71551809D01*
X144452644Y-71400922D01*
X144452644Y-71247078D01*
X144422631Y-71096191D01*
X144363757Y-70954058D01*
X144278286Y-70826141D01*
X144169503Y-70717358D01*
X144041586Y-70631887D01*
X143899453Y-70573013D01*
X143748566Y-70543000D01*
X143594722Y-70543000D01*
X143443835Y-70573013D01*
X143301702Y-70631887D01*
X143173785Y-70717358D01*
X143065002Y-70826141D01*
X142979531Y-70954058D01*
X142920657Y-71096191D01*
X142890644Y-71247078D01*
X139681000Y-71247078D01*
X139681000Y-71093757D01*
X139633693Y-70855931D01*
X139540898Y-70631903D01*
X139406180Y-70430283D01*
X139234717Y-70258820D01*
X139033097Y-70124102D01*
X138809069Y-70031307D01*
X138571243Y-69984000D01*
X138328757Y-69984000D01*
X138090931Y-70031307D01*
X137866903Y-70124102D01*
X137665283Y-70258820D01*
X137493820Y-70430283D01*
X137381800Y-70597933D01*
X137381800Y-69603698D01*
X156360260Y-69603698D01*
X156360260Y-69757542D01*
X156390273Y-69908429D01*
X156449147Y-70050562D01*
X156534618Y-70178479D01*
X156643401Y-70287262D01*
X156771318Y-70372733D01*
X156913451Y-70431607D01*
X157064338Y-70461620D01*
X157218182Y-70461620D01*
X157369069Y-70431607D01*
X157511202Y-70372733D01*
X157639119Y-70287262D01*
X157747902Y-70178479D01*
X157833373Y-70050562D01*
X157892247Y-69908429D01*
X157922260Y-69757542D01*
X157922260Y-69603698D01*
X157892247Y-69452811D01*
X157833373Y-69310678D01*
X157747902Y-69182761D01*
X157639119Y-69073978D01*
X157511202Y-68988507D01*
X157369069Y-68929633D01*
X157218182Y-68899620D01*
X157064338Y-68899620D01*
X156913451Y-68929633D01*
X156771318Y-68988507D01*
X156643401Y-69073978D01*
X156534618Y-69182761D01*
X156449147Y-69310678D01*
X156390273Y-69452811D01*
X156360260Y-69603698D01*
X137381800Y-69603698D01*
X137381800Y-67513200D01*
X164434400Y-67513200D01*
X164434400Y-70909758D01*
M02*
