<?xml version="1.0" standalone="no"?>
 <!DOCTYPE svg PUBLIC "-//W3C//DTD SVG 1.1//EN" 
 "http://www.w3.org/Graphics/SVG/1.1/DTD/svg11.dtd"> 
<svg xmlns="http://www.w3.org/2000/svg" version="1.1" 
    width="29.7002cm" height="21.0007cm" viewBox="0 0 116930 82680 ">
<title>SVG Picture created as ESP32-S2-PWR.svg date 2021/06/10 16:34:16 </title>
  <desc>Picture generated by PCBNEW </desc>
<g style="fill:#000000; fill-opacity:1;stroke:#000000; stroke-opacity:1;
stroke-linecap:round; stroke-linejoin:round; "
 transform="translate(0 0) scale(1 1)">
</g>
<g style="fill:#000000; fill-opacity:0.0; 
stroke:#000000; stroke-width:-0.000393701; stroke-opacity:1; 
stroke-linecap:round; stroke-linejoin:round;">
<g >
</g>
<g >
</g>
<g >
</g>
<g >
</g>
<g >
</g>
<g >
</g>
<g >
</g>
<g >
</g>
<g >
</g>
<g >
</g>
<g style="fill:#000000; fill-opacity:0.0; 
stroke:#000000; stroke-width:-0.000393701; stroke-opacity:1; 
stroke-linecap:round; stroke-linejoin:round;">
</g>
<g style="fill:#000000; fill-opacity:0.0; 
stroke:#000000; stroke-width:413.386; stroke-opacity:1; 
stroke-linecap:round; stroke-linejoin:round;">
<path d="M55074 52901
L54660 52901
" />
<path d="M55074 49499
L54660 49499
" />
<path d="M56720 52901
L56306 52901
" />
<path d="M56720 49499
L56306 49499
" />
</g>
<g >
</g>
<g >
</g>
<g >
</g>
<g >
</g>
<g >
</g>
<g >
</g>
<g >
</g>
<g >
</g>
<g >
</g>
<g >
</g>
<g >
</g>
<g >
</g>
<g style="fill:#000000; fill-opacity:0.0; 
stroke:#000000; stroke-width:413.386; stroke-opacity:1; 
stroke-linecap:round; stroke-linejoin:round;">
</g>
<g style="fill:#000000; fill-opacity:1.0; 
stroke:#000000; stroke-width:0; stroke-opacity:1; 
stroke-linecap:round; stroke-linejoin:round;">
<circle cx="61886.8" cy="52657.7" r="423.228" /> 
</g>
<g style="fill:#000000; fill-opacity:1.0; 
stroke:#000000; stroke-width:39.3701; stroke-opacity:1; 
stroke-linecap:round; stroke-linejoin:round;">
</g>
<g style="fill:#000000; fill-opacity:1.0; 
stroke:#000000; stroke-width:0; stroke-opacity:1; 
stroke-linecap:round; stroke-linejoin:round;">
<circle cx="61886.8" cy="49901.8" r="423.228" /> 
</g>
<g style="fill:#000000; fill-opacity:1.0; 
stroke:#000000; stroke-width:39.3701; stroke-opacity:1; 
stroke-linecap:round; stroke-linejoin:round;">
</g>
<g style="fill:#000000; fill-opacity:1.0; 
stroke:#000000; stroke-width:0; stroke-opacity:1; 
stroke-linecap:round; stroke-linejoin:round;">
<circle cx="64028.5" cy="49901.8" r="423.228" /> 
</g>
<g style="fill:#000000; fill-opacity:1.0; 
stroke:#000000; stroke-width:39.3701; stroke-opacity:1; 
stroke-linecap:round; stroke-linejoin:round;">
</g>
<g style="fill:#000000; fill-opacity:1.0; 
stroke:#000000; stroke-width:0; stroke-opacity:1; 
stroke-linecap:round; stroke-linejoin:round;">
<circle cx="64028.5" cy="52657.7" r="423.228" /> 
</g>
<g style="fill:#000000; fill-opacity:1.0; 
stroke:#000000; stroke-width:39.3701; stroke-opacity:1; 
stroke-linecap:round; stroke-linejoin:round;">
</g>
<g style="fill:#000000; fill-opacity:1.0; 
stroke:#000000; stroke-width:0; stroke-opacity:1; 
stroke-linecap:round; stroke-linejoin:round;">
<path style="fill:#000000; fill-opacity:1.0; 
stroke:#000000; stroke-width:0; stroke-opacity:1; 
stroke-linecap:round; stroke-linejoin:round;fill-rule:evenodd;"
d="M 63272.6,52685.3
62642.7,52685.3
62642.7,52055.4
63272.6,52055.4
Z" /> 
<circle cx="62957.6" cy="51582.9" r="314.961" /> 
</g>
<g style="fill:#000000; fill-opacity:1.0; 
stroke:#000000; stroke-width:39.3701; stroke-opacity:1; 
stroke-linecap:round; stroke-linejoin:round;">
</g>
<g style="fill:#000000; fill-opacity:1.0; 
stroke:#000000; stroke-width:0; stroke-opacity:1; 
stroke-linecap:round; stroke-linejoin:round;">
<circle cx="62957.6" cy="50795.5" r="314.961" /> 
</g>
<g style="fill:#000000; fill-opacity:1.0; 
stroke:#000000; stroke-width:39.3701; stroke-opacity:1; 
stroke-linecap:round; stroke-linejoin:round;">
</g>
<g style="fill:#000000; fill-opacity:1.0; 
stroke:#000000; stroke-width:0; stroke-opacity:1; 
stroke-linecap:round; stroke-linejoin:round;">
<circle cx="62957.6" cy="50008.1" r="314.961" /> 
</g>
<g style="fill:#000000; fill-opacity:1.0; 
stroke:#000000; stroke-width:39.3701; stroke-opacity:1; 
stroke-linecap:round; stroke-linejoin:round;">
</g>
<g >
</g>
<g >
</g>
<g >
</g>
<g >
</g>
<g >
</g>
<g >
</g>
<g >
</g>
<g style="fill:#000000; fill-opacity:1.0; 
stroke:#000000; stroke-width:39.3701; stroke-opacity:1; 
stroke-linecap:round; stroke-linejoin:round;">
</g>
<g style="fill:#000000; fill-opacity:1.0; 
stroke:#000000; stroke-width:669.291; stroke-opacity:1; 
stroke-linecap:round; stroke-linejoin:round;">
</g>
<g style="fill:#000000; fill-opacity:0.0; 
stroke:#000000; stroke-width:669.291; stroke-opacity:1; 
stroke-linecap:round; stroke-linejoin:round;">
<path d="M64267 48037
L64267 48037
" />
<path d="M64267 47037
L64267 47037
" />
<path d="M64267 46037
L64267 46037
" />
<path d="M64267 45037
L64267 45037
" />
<path d="M64267 44037
L64267 44037
" />
<path d="M64267 43037
L64267 43037
" />
<path d="M64267 42037
L64267 42037
" />
<path d="M64267 41037
L64267 41037
" />
<path d="M64267 40037
L64267 40037
" />
<path d="M64267 39037
L64267 39037
" />
<path d="M64267 38037
L64267 38037
" />
<path d="M64267 37037
L64267 37037
" />
<path d="M64267 36037
L64267 36037
" />
<path d="M64267 35037
L64267 35037
" />
<path d="M64267 34037
L64267 34037
" />
<path d="M64267 33037
L64267 33037
" />
<path d="M64267 32037
L64267 32037
" />
<path d="M64267 31037
L64267 31037
" />
<path d="M64267 30037
L64267 30037
" />
<path d="M64267 29037
L64267 29037
" />
<path d="M64267 28037
L64267 28037
" />
</g>
<g style="fill:#000000; fill-opacity:0.0; 
stroke:#000000; stroke-width:0; stroke-opacity:1; 
stroke-linecap:round; stroke-linejoin:round;">
</g>
<g style="fill:#000000; fill-opacity:1.0; 
stroke:#000000; stroke-width:0; stroke-opacity:1; 
stroke-linecap:round; stroke-linejoin:round;">
<path style="fill:#000000; fill-opacity:1.0; 
stroke:#000000; stroke-width:0; stroke-opacity:1; 
stroke-linecap:round; stroke-linejoin:round;fill-rule:evenodd;"
d="M 63933.1,27372
63933.1,26702.8
64602.4,26702.8
64602.4,27372
Z" /> 
</g>
<g >
</g>
<g >
</g>
<g >
</g>
<g >
</g>
<g >
</g>
<g >
</g>
<g >
</g>
<g style="fill:#000000; fill-opacity:1.0; 
stroke:#000000; stroke-width:0; stroke-opacity:1; 
stroke-linecap:round; stroke-linejoin:round;">
</g>
<g style="fill:#000000; fill-opacity:1.0; 
stroke:#000000; stroke-width:669.291; stroke-opacity:1; 
stroke-linecap:round; stroke-linejoin:round;">
</g>
<g style="fill:#000000; fill-opacity:0.0; 
stroke:#000000; stroke-width:669.291; stroke-opacity:1; 
stroke-linecap:round; stroke-linejoin:round;">
<path d="M54507 44037
L54507 44037
" />
<path d="M54507 43037
L54507 43037
" />
<path d="M54507 42037
L54507 42037
" />
<path d="M54507 41037
L54507 41037
" />
<path d="M54507 40037
L54507 40037
" />
<path d="M54507 39037
L54507 39037
" />
<path d="M54507 38037
L54507 38037
" />
<path d="M54507 37037
L54507 37037
" />
<path d="M54507 36037
L54507 36037
" />
<path d="M54507 35037
L54507 35037
" />
<path d="M54507 34037
L54507 34037
" />
<path d="M54507 33037
L54507 33037
" />
<path d="M54507 32037
L54507 32037
" />
<path d="M54507 31037
L54507 31037
" />
<path d="M54507 30037
L54507 30037
" />
<path d="M54507 29037
L54507 29037
" />
<path d="M54507 28037
L54507 28037
" />
</g>
<g style="fill:#000000; fill-opacity:0.0; 
stroke:#000000; stroke-width:0; stroke-opacity:1; 
stroke-linecap:round; stroke-linejoin:round;">
</g>
<g style="fill:#000000; fill-opacity:1.0; 
stroke:#000000; stroke-width:0; stroke-opacity:1; 
stroke-linecap:round; stroke-linejoin:round;">
<path style="fill:#000000; fill-opacity:1.0; 
stroke:#000000; stroke-width:0; stroke-opacity:1; 
stroke-linecap:round; stroke-linejoin:round;fill-rule:evenodd;"
d="M 54173.2,27372
54173.2,26702.8
54842.5,26702.8
54842.5,27372
Z" /> 
</g>
<g >
</g>
<g >
</g>
<g >
</g>
<g >
</g>
<g >
</g>
<g >
</g>
<g >
</g>
<g >
</g>
<g >
</g>
<g >
</g>
<g >
</g>
<g >
</g>
<g >
</g>
<g >
</g>
<g >
</g>
<g >
</g>
<g >
</g>
<g style="fill:#000000; fill-opacity:1.0; 
stroke:#000000; stroke-width:0; stroke-opacity:1; 
stroke-linecap:round; stroke-linejoin:round;">
<circle cx="57974.3" cy="29097" r="157.48" /> 
</g>
<g style="fill:#000000; fill-opacity:1.0; 
stroke:#000000; stroke-width:39.3701; stroke-opacity:1; 
stroke-linecap:round; stroke-linejoin:round;">
</g>
<g style="fill:#000000; fill-opacity:1.0; 
stroke:#000000; stroke-width:0; stroke-opacity:1; 
stroke-linecap:round; stroke-linejoin:round;">
<circle cx="58564.8" cy="29097" r="157.48" /> 
</g>
<g style="fill:#000000; fill-opacity:1.0; 
stroke:#000000; stroke-width:39.3701; stroke-opacity:1; 
stroke-linecap:round; stroke-linejoin:round;">
</g>
<g style="fill:#000000; fill-opacity:1.0; 
stroke:#000000; stroke-width:0; stroke-opacity:1; 
stroke-linecap:round; stroke-linejoin:round;">
<circle cx="59155.4" cy="29097" r="157.48" /> 
</g>
<g style="fill:#000000; fill-opacity:1.0; 
stroke:#000000; stroke-width:39.3701; stroke-opacity:1; 
stroke-linecap:round; stroke-linejoin:round;">
</g>
<g style="fill:#000000; fill-opacity:1.0; 
stroke:#000000; stroke-width:0; stroke-opacity:1; 
stroke-linecap:round; stroke-linejoin:round;">
<circle cx="59745.9" cy="29097" r="157.48" /> 
</g>
<g style="fill:#000000; fill-opacity:1.0; 
stroke:#000000; stroke-width:39.3701; stroke-opacity:1; 
stroke-linecap:round; stroke-linejoin:round;">
</g>
<g style="fill:#000000; fill-opacity:1.0; 
stroke:#000000; stroke-width:0; stroke-opacity:1; 
stroke-linecap:round; stroke-linejoin:round;">
<circle cx="57974.3" cy="29687.5" r="157.48" /> 
</g>
<g style="fill:#000000; fill-opacity:1.0; 
stroke:#000000; stroke-width:39.3701; stroke-opacity:1; 
stroke-linecap:round; stroke-linejoin:round;">
</g>
<g style="fill:#000000; fill-opacity:1.0; 
stroke:#000000; stroke-width:0; stroke-opacity:1; 
stroke-linecap:round; stroke-linejoin:round;">
<circle cx="58564.8" cy="29687.5" r="157.48" /> 
</g>
<g style="fill:#000000; fill-opacity:1.0; 
stroke:#000000; stroke-width:39.3701; stroke-opacity:1; 
stroke-linecap:round; stroke-linejoin:round;">
</g>
<g style="fill:#000000; fill-opacity:1.0; 
stroke:#000000; stroke-width:0; stroke-opacity:1; 
stroke-linecap:round; stroke-linejoin:round;">
<circle cx="59155.4" cy="29687.5" r="157.48" /> 
</g>
<g style="fill:#000000; fill-opacity:1.0; 
stroke:#000000; stroke-width:39.3701; stroke-opacity:1; 
stroke-linecap:round; stroke-linejoin:round;">
</g>
<g style="fill:#000000; fill-opacity:1.0; 
stroke:#000000; stroke-width:0; stroke-opacity:1; 
stroke-linecap:round; stroke-linejoin:round;">
<circle cx="59745.9" cy="29687.5" r="157.48" /> 
</g>
<g style="fill:#000000; fill-opacity:1.0; 
stroke:#000000; stroke-width:39.3701; stroke-opacity:1; 
stroke-linecap:round; stroke-linejoin:round;">
</g>
<g style="fill:#000000; fill-opacity:1.0; 
stroke:#000000; stroke-width:0; stroke-opacity:1; 
stroke-linecap:round; stroke-linejoin:round;">
<circle cx="57974.3" cy="30278.1" r="157.48" /> 
</g>
<g style="fill:#000000; fill-opacity:1.0; 
stroke:#000000; stroke-width:39.3701; stroke-opacity:1; 
stroke-linecap:round; stroke-linejoin:round;">
</g>
<g style="fill:#000000; fill-opacity:1.0; 
stroke:#000000; stroke-width:0; stroke-opacity:1; 
stroke-linecap:round; stroke-linejoin:round;">
<circle cx="58564.8" cy="30278.1" r="157.48" /> 
</g>
<g style="fill:#000000; fill-opacity:1.0; 
stroke:#000000; stroke-width:39.3701; stroke-opacity:1; 
stroke-linecap:round; stroke-linejoin:round;">
</g>
<g style="fill:#000000; fill-opacity:1.0; 
stroke:#000000; stroke-width:0; stroke-opacity:1; 
stroke-linecap:round; stroke-linejoin:round;">
<circle cx="59155.4" cy="30278.1" r="157.48" /> 
</g>
<g style="fill:#000000; fill-opacity:1.0; 
stroke:#000000; stroke-width:39.3701; stroke-opacity:1; 
stroke-linecap:round; stroke-linejoin:round;">
</g>
<g style="fill:#000000; fill-opacity:1.0; 
stroke:#000000; stroke-width:0; stroke-opacity:1; 
stroke-linecap:round; stroke-linejoin:round;">
<circle cx="59745.9" cy="30278.1" r="157.48" /> 
</g>
<g style="fill:#000000; fill-opacity:1.0; 
stroke:#000000; stroke-width:39.3701; stroke-opacity:1; 
stroke-linecap:round; stroke-linejoin:round;">
</g>
<g style="fill:#000000; fill-opacity:1.0; 
stroke:#000000; stroke-width:0; stroke-opacity:1; 
stroke-linecap:round; stroke-linejoin:round;">
<circle cx="57974.3" cy="30868.6" r="157.48" /> 
</g>
<g style="fill:#000000; fill-opacity:1.0; 
stroke:#000000; stroke-width:39.3701; stroke-opacity:1; 
stroke-linecap:round; stroke-linejoin:round;">
</g>
<g style="fill:#000000; fill-opacity:1.0; 
stroke:#000000; stroke-width:0; stroke-opacity:1; 
stroke-linecap:round; stroke-linejoin:round;">
<circle cx="58564.8" cy="30868.6" r="157.48" /> 
</g>
<g style="fill:#000000; fill-opacity:1.0; 
stroke:#000000; stroke-width:39.3701; stroke-opacity:1; 
stroke-linecap:round; stroke-linejoin:round;">
</g>
<g style="fill:#000000; fill-opacity:1.0; 
stroke:#000000; stroke-width:0; stroke-opacity:1; 
stroke-linecap:round; stroke-linejoin:round;">
<circle cx="59155.4" cy="30868.6" r="157.48" /> 
</g>
<g style="fill:#000000; fill-opacity:1.0; 
stroke:#000000; stroke-width:39.3701; stroke-opacity:1; 
stroke-linecap:round; stroke-linejoin:round;">
</g>
<g style="fill:#000000; fill-opacity:1.0; 
stroke:#000000; stroke-width:0; stroke-opacity:1; 
stroke-linecap:round; stroke-linejoin:round;">
<circle cx="59745.9" cy="30868.6" r="157.48" /> 
</g>
<g style="fill:#000000; fill-opacity:1.0; 
stroke:#000000; stroke-width:39.3701; stroke-opacity:1; 
stroke-linecap:round; stroke-linejoin:round;">
</g>
<g style="fill:#000000; fill-opacity:1.0; 
stroke:#000000; stroke-width:0; stroke-opacity:1; 
stroke-linecap:round; stroke-linejoin:round;">
<circle cx="58962.6" cy="52415.3" r="157.48" /> 
</g>
<g style="fill:#000000; fill-opacity:1.0; 
stroke:#000000; stroke-width:39.3701; stroke-opacity:1; 
stroke-linecap:round; stroke-linejoin:round;">
</g>
<g style="fill:#000000; fill-opacity:1.0; 
stroke:#000000; stroke-width:0; stroke-opacity:1; 
stroke-linecap:round; stroke-linejoin:round;">
<circle cx="59972.6" cy="52415.3" r="157.48" /> 
</g>
<g style="fill:#000000; fill-opacity:1.0; 
stroke:#000000; stroke-width:39.3701; stroke-opacity:1; 
stroke-linecap:round; stroke-linejoin:round;">
</g>
<g style="fill:#000000; fill-opacity:1.0; 
stroke:#000000; stroke-width:0; stroke-opacity:1; 
stroke-linecap:round; stroke-linejoin:round;">
<circle cx="60492.6" cy="50150.3" r="157.48" /> 
</g>
<g style="fill:#000000; fill-opacity:1.0; 
stroke:#000000; stroke-width:39.3701; stroke-opacity:1; 
stroke-linecap:round; stroke-linejoin:round;">
</g>
<g style="fill:#000000; fill-opacity:1.0; 
stroke:#000000; stroke-width:0; stroke-opacity:1; 
stroke-linecap:round; stroke-linejoin:round;">
<circle cx="55307.6" cy="45745.3" r="157.48" /> 
</g>
<g style="fill:#000000; fill-opacity:1.0; 
stroke:#000000; stroke-width:39.3701; stroke-opacity:1; 
stroke-linecap:round; stroke-linejoin:round;">
</g>
<g style="fill:#000000; fill-opacity:1.0; 
stroke:#000000; stroke-width:0; stroke-opacity:1; 
stroke-linecap:round; stroke-linejoin:round;">
<circle cx="62119.4" cy="42978.5" r="157.48" /> 
</g>
<g style="fill:#000000; fill-opacity:1.0; 
stroke:#000000; stroke-width:39.3701; stroke-opacity:1; 
stroke-linecap:round; stroke-linejoin:round;">
</g>
<g style="fill:#000000; fill-opacity:1.0; 
stroke:#000000; stroke-width:0; stroke-opacity:1; 
stroke-linecap:round; stroke-linejoin:round;">
<circle cx="54582.6" cy="48345.3" r="157.48" /> 
</g>
<g style="fill:#000000; fill-opacity:1.0; 
stroke:#000000; stroke-width:39.3701; stroke-opacity:1; 
stroke-linecap:round; stroke-linejoin:round;">
</g>
<g style="fill:#000000; fill-opacity:1.0; 
stroke:#000000; stroke-width:0; stroke-opacity:1; 
stroke-linecap:round; stroke-linejoin:round;">
<circle cx="56562.6" cy="26855.3" r="157.48" /> 
</g>
<g style="fill:#000000; fill-opacity:1.0; 
stroke:#000000; stroke-width:39.3701; stroke-opacity:1; 
stroke-linecap:round; stroke-linejoin:round;">
</g>
<g style="fill:#000000; fill-opacity:1.0; 
stroke:#000000; stroke-width:0; stroke-opacity:1; 
stroke-linecap:round; stroke-linejoin:round;">
<circle cx="58897.6" cy="41330.3" r="157.48" /> 
</g>
<g style="fill:#000000; fill-opacity:1.0; 
stroke:#000000; stroke-width:39.3701; stroke-opacity:1; 
stroke-linecap:round; stroke-linejoin:round;">
</g>
<g style="fill:#000000; fill-opacity:1.0; 
stroke:#000000; stroke-width:0; stroke-opacity:1; 
stroke-linecap:round; stroke-linejoin:round;">
<circle cx="55295.6" cy="47567.3" r="157.48" /> 
</g>
<g style="fill:#000000; fill-opacity:1.0; 
stroke:#000000; stroke-width:39.3701; stroke-opacity:1; 
stroke-linecap:round; stroke-linejoin:round;">
</g>
<g style="fill:#000000; fill-opacity:1.0; 
stroke:#000000; stroke-width:0; stroke-opacity:1; 
stroke-linecap:round; stroke-linejoin:round;">
<circle cx="60602.6" cy="48046.3" r="157.48" /> 
</g>
<g style="fill:#000000; fill-opacity:1.0; 
stroke:#000000; stroke-width:39.3701; stroke-opacity:1; 
stroke-linecap:round; stroke-linejoin:round;">
</g>
<g style="fill:#000000; fill-opacity:1.0; 
stroke:#000000; stroke-width:0; stroke-opacity:1; 
stroke-linecap:round; stroke-linejoin:round;">
<circle cx="58597.6" cy="39135.3" r="157.48" /> 
</g>
<g style="fill:#000000; fill-opacity:1.0; 
stroke:#000000; stroke-width:39.3701; stroke-opacity:1; 
stroke-linecap:round; stroke-linejoin:round;">
</g>
<g style="fill:#000000; fill-opacity:1.0; 
stroke:#000000; stroke-width:0; stroke-opacity:1; 
stroke-linecap:round; stroke-linejoin:round;">
<circle cx="57779.6" cy="41816.3" r="157.48" /> 
</g>
<g style="fill:#000000; fill-opacity:1.0; 
stroke:#000000; stroke-width:39.3701; stroke-opacity:1; 
stroke-linecap:round; stroke-linejoin:round;">
</g>
<g style="fill:#000000; fill-opacity:1.0; 
stroke:#000000; stroke-width:0; stroke-opacity:1; 
stroke-linecap:round; stroke-linejoin:round;">
<circle cx="55280.6" cy="44609.3" r="157.48" /> 
</g>
<g style="fill:#000000; fill-opacity:1.0; 
stroke:#000000; stroke-width:39.3701; stroke-opacity:1; 
stroke-linecap:round; stroke-linejoin:round;">
</g>
<g style="fill:#000000; fill-opacity:1.0; 
stroke:#000000; stroke-width:0; stroke-opacity:1; 
stroke-linecap:round; stroke-linejoin:round;">
<circle cx="57663.4" cy="45548.3" r="157.48" /> 
</g>
<g style="fill:#000000; fill-opacity:1.0; 
stroke:#000000; stroke-width:39.3701; stroke-opacity:1; 
stroke-linecap:round; stroke-linejoin:round;">
</g>
<g style="fill:#000000; fill-opacity:1.0; 
stroke:#000000; stroke-width:0; stroke-opacity:1; 
stroke-linecap:round; stroke-linejoin:round;">
<circle cx="58505.6" cy="49548.3" r="157.48" /> 
</g>
<g style="fill:#000000; fill-opacity:1.0; 
stroke:#000000; stroke-width:39.3701; stroke-opacity:1; 
stroke-linecap:round; stroke-linejoin:round;">
</g>
<g style="fill:#000000; fill-opacity:1.0; 
stroke:#000000; stroke-width:0; stroke-opacity:1; 
stroke-linecap:round; stroke-linejoin:round;">
<circle cx="62587.6" cy="36254.3" r="157.48" /> 
</g>
<g style="fill:#000000; fill-opacity:1.0; 
stroke:#000000; stroke-width:39.3701; stroke-opacity:1; 
stroke-linecap:round; stroke-linejoin:round;">
</g>
<g style="fill:#000000; fill-opacity:1.0; 
stroke:#000000; stroke-width:0; stroke-opacity:1; 
stroke-linecap:round; stroke-linejoin:round;">
<circle cx="61205.6" cy="40860.3" r="157.48" /> 
</g>
<g style="fill:#000000; fill-opacity:1.0; 
stroke:#000000; stroke-width:39.3701; stroke-opacity:1; 
stroke-linecap:round; stroke-linejoin:round;">
</g>
<g style="fill:#000000; fill-opacity:1.0; 
stroke:#000000; stroke-width:0; stroke-opacity:1; 
stroke-linecap:round; stroke-linejoin:round;">
<circle cx="57612.6" cy="46537.3" r="157.48" /> 
</g>
<g style="fill:#000000; fill-opacity:1.0; 
stroke:#000000; stroke-width:39.3701; stroke-opacity:1; 
stroke-linecap:round; stroke-linejoin:round;">
</g>
<g style="fill:#000000; fill-opacity:1.0; 
stroke:#000000; stroke-width:0; stroke-opacity:1; 
stroke-linecap:round; stroke-linejoin:round;">
<circle cx="59532.5" cy="38209.8" r="157.48" /> 
</g>
<g style="fill:#000000; fill-opacity:1.0; 
stroke:#000000; stroke-width:39.3701; stroke-opacity:1; 
stroke-linecap:round; stroke-linejoin:round;">
</g>
<g style="fill:#000000; fill-opacity:1.0; 
stroke:#000000; stroke-width:0; stroke-opacity:1; 
stroke-linecap:round; stroke-linejoin:round;">
<circle cx="57937.6" cy="37210.3" r="157.48" /> 
</g>
<g style="fill:#000000; fill-opacity:1.0; 
stroke:#000000; stroke-width:39.3701; stroke-opacity:1; 
stroke-linecap:round; stroke-linejoin:round;">
</g>
<g style="fill:#000000; fill-opacity:1.0; 
stroke:#000000; stroke-width:0; stroke-opacity:1; 
stroke-linecap:round; stroke-linejoin:round;">
<circle cx="56447.6" cy="40960.3" r="157.48" /> 
</g>
<g style="fill:#000000; fill-opacity:1.0; 
stroke:#000000; stroke-width:39.3701; stroke-opacity:1; 
stroke-linecap:round; stroke-linejoin:round;">
</g>
<g style="fill:#000000; fill-opacity:1.0; 
stroke:#000000; stroke-width:0; stroke-opacity:1; 
stroke-linecap:round; stroke-linejoin:round;">
<circle cx="62017.6" cy="39488.3" r="157.48" /> 
</g>
<g style="fill:#000000; fill-opacity:1.0; 
stroke:#000000; stroke-width:39.3701; stroke-opacity:1; 
stroke-linecap:round; stroke-linejoin:round;">
</g>
<g style="fill:#000000; fill-opacity:1.0; 
stroke:#000000; stroke-width:0; stroke-opacity:1; 
stroke-linecap:round; stroke-linejoin:round;">
<circle cx="62017.6" cy="38724.3" r="157.48" /> 
</g>
<g style="fill:#000000; fill-opacity:1.0; 
stroke:#000000; stroke-width:39.3701; stroke-opacity:1; 
stroke-linecap:round; stroke-linejoin:round;">
</g>
<g style="fill:#000000; fill-opacity:1.0; 
stroke:#000000; stroke-width:0; stroke-opacity:1; 
stroke-linecap:round; stroke-linejoin:round;">
<circle cx="62157.6" cy="43555.3" r="157.48" /> 
</g>
<g style="fill:#000000; fill-opacity:1.0; 
stroke:#000000; stroke-width:39.3701; stroke-opacity:1; 
stroke-linecap:round; stroke-linejoin:round;">
</g>
<g style="fill:#000000; fill-opacity:1.0; 
stroke:#000000; stroke-width:0; stroke-opacity:1; 
stroke-linecap:round; stroke-linejoin:round;">
<circle cx="62162.6" cy="44330.3" r="157.48" /> 
</g>
<g style="fill:#000000; fill-opacity:1.0; 
stroke:#000000; stroke-width:39.3701; stroke-opacity:1; 
stroke-linecap:round; stroke-linejoin:round;">
</g>
<g style="fill:#000000; fill-opacity:1.0; 
stroke:#000000; stroke-width:0; stroke-opacity:1; 
stroke-linecap:round; stroke-linejoin:round;">
<circle cx="55276.6" cy="43716.3" r="157.48" /> 
</g>
<g style="fill:#000000; fill-opacity:1.0; 
stroke:#000000; stroke-width:39.3701; stroke-opacity:1; 
stroke-linecap:round; stroke-linejoin:round;">
</g>
<g style="fill:#000000; fill-opacity:1.0; 
stroke:#000000; stroke-width:0; stroke-opacity:1; 
stroke-linecap:round; stroke-linejoin:round;">
<circle cx="59389.6" cy="36618.3" r="157.48" /> 
</g>
<g style="fill:#000000; fill-opacity:1.0; 
stroke:#000000; stroke-width:39.3701; stroke-opacity:1; 
stroke-linecap:round; stroke-linejoin:round;">
</g>
<g style="fill:#000000; fill-opacity:1.0; 
stroke:#000000; stroke-width:0; stroke-opacity:1; 
stroke-linecap:round; stroke-linejoin:round;">
<circle cx="59532.5" cy="39115.3" r="157.48" /> 
</g>
<g style="fill:#000000; fill-opacity:1.0; 
stroke:#000000; stroke-width:39.3701; stroke-opacity:1; 
stroke-linecap:round; stroke-linejoin:round;">
</g>
<g style="fill:#000000; fill-opacity:1.0; 
stroke:#000000; stroke-width:0; stroke-opacity:1; 
stroke-linecap:round; stroke-linejoin:round;">
<circle cx="57918.6" cy="39118.3" r="157.48" /> 
</g>
<g style="fill:#000000; fill-opacity:1.0; 
stroke:#000000; stroke-width:39.3701; stroke-opacity:1; 
stroke-linecap:round; stroke-linejoin:round;">
</g>
<g style="fill:#000000; fill-opacity:1.0; 
stroke:#000000; stroke-width:0; stroke-opacity:1; 
stroke-linecap:round; stroke-linejoin:round;">
<circle cx="56417.6" cy="37210.3" r="157.48" /> 
</g>
<g style="fill:#000000; fill-opacity:1.0; 
stroke:#000000; stroke-width:39.3701; stroke-opacity:1; 
stroke-linecap:round; stroke-linejoin:round;">
</g>
<g style="fill:#000000; fill-opacity:1.0; 
stroke:#000000; stroke-width:0; stroke-opacity:1; 
stroke-linecap:round; stroke-linejoin:round;">
<circle cx="61866.6" cy="27433.3" r="157.48" /> 
</g>
<g style="fill:#000000; fill-opacity:1.0; 
stroke:#000000; stroke-width:39.3701; stroke-opacity:1; 
stroke-linecap:round; stroke-linejoin:round;">
</g>
<g style="fill:#000000; fill-opacity:1.0; 
stroke:#000000; stroke-width:0; stroke-opacity:1; 
stroke-linecap:round; stroke-linejoin:round;">
<circle cx="56393.5" cy="41806.2" r="157.48" /> 
</g>
<g style="fill:#000000; fill-opacity:1.0; 
stroke:#000000; stroke-width:39.3701; stroke-opacity:1; 
stroke-linecap:round; stroke-linejoin:round;">
</g>
<g style="fill:#000000; fill-opacity:1.0; 
stroke:#000000; stroke-width:0; stroke-opacity:1; 
stroke-linecap:round; stroke-linejoin:round;">
<circle cx="56563.6" cy="28080.3" r="157.48" /> 
</g>
<g style="fill:#000000; fill-opacity:1.0; 
stroke:#000000; stroke-width:39.3701; stroke-opacity:1; 
stroke-linecap:round; stroke-linejoin:round;">
</g>
<g style="fill:#000000; fill-opacity:1.0; 
stroke:#000000; stroke-width:0; stroke-opacity:1; 
stroke-linecap:round; stroke-linejoin:round;">
<circle cx="56344.6" cy="46717.3" r="157.48" /> 
</g>
<g style="fill:#000000; fill-opacity:1.0; 
stroke:#000000; stroke-width:39.3701; stroke-opacity:1; 
stroke-linecap:round; stroke-linejoin:round;">
</g>
<g style="fill:#000000; fill-opacity:1.0; 
stroke:#000000; stroke-width:0; stroke-opacity:1; 
stroke-linecap:round; stroke-linejoin:round;">
<circle cx="61883.6" cy="29201.3" r="157.48" /> 
</g>
<g style="fill:#000000; fill-opacity:1.0; 
stroke:#000000; stroke-width:39.3701; stroke-opacity:1; 
stroke-linecap:round; stroke-linejoin:round;">
</g>
<g style="fill:#000000; fill-opacity:1.0; 
stroke:#000000; stroke-width:0; stroke-opacity:1; 
stroke-linecap:round; stroke-linejoin:round;">
<circle cx="60159.6" cy="41842.3" r="157.48" /> 
</g>
<g style="fill:#000000; fill-opacity:1.0; 
stroke:#000000; stroke-width:39.3701; stroke-opacity:1; 
stroke-linecap:round; stroke-linejoin:round;">
</g>
<g style="fill:#000000; fill-opacity:1.0; 
stroke:#000000; stroke-width:0; stroke-opacity:1; 
stroke-linecap:round; stroke-linejoin:round;">
<circle cx="61879.6" cy="29795.3" r="157.48" /> 
</g>
<g style="fill:#000000; fill-opacity:1.0; 
stroke:#000000; stroke-width:39.3701; stroke-opacity:1; 
stroke-linecap:round; stroke-linejoin:round;">
</g>
<g style="fill:#000000; fill-opacity:1.0; 
stroke:#000000; stroke-width:0; stroke-opacity:1; 
stroke-linecap:round; stroke-linejoin:round;">
<circle cx="59655.6" cy="41852.3" r="157.48" /> 
</g>
<g style="fill:#000000; fill-opacity:1.0; 
stroke:#000000; stroke-width:39.3701; stroke-opacity:1; 
stroke-linecap:round; stroke-linejoin:round;">
</g>
<g style="fill:#000000; fill-opacity:1.0; 
stroke:#000000; stroke-width:0; stroke-opacity:1; 
stroke-linecap:round; stroke-linejoin:round;">
<circle cx="56534.6" cy="34527.3" r="157.48" /> 
</g>
<g style="fill:#000000; fill-opacity:1.0; 
stroke:#000000; stroke-width:39.3701; stroke-opacity:1; 
stroke-linecap:round; stroke-linejoin:round;">
</g>
<g style="fill:#000000; fill-opacity:1.0; 
stroke:#000000; stroke-width:0; stroke-opacity:1; 
stroke-linecap:round; stroke-linejoin:round;">
<circle cx="56538.6" cy="33932.3" r="157.48" /> 
</g>
<g style="fill:#000000; fill-opacity:1.0; 
stroke:#000000; stroke-width:39.3701; stroke-opacity:1; 
stroke-linecap:round; stroke-linejoin:round;">
</g>
<g style="fill:#000000; fill-opacity:1.0; 
stroke:#000000; stroke-width:0; stroke-opacity:1; 
stroke-linecap:round; stroke-linejoin:round;">
<circle cx="56540.6" cy="33355.3" r="157.48" /> 
</g>
<g style="fill:#000000; fill-opacity:1.0; 
stroke:#000000; stroke-width:39.3701; stroke-opacity:1; 
stroke-linecap:round; stroke-linejoin:round;">
</g>
<g style="fill:#000000; fill-opacity:1.0; 
stroke:#000000; stroke-width:0; stroke-opacity:1; 
stroke-linecap:round; stroke-linejoin:round;">
<circle cx="57370.2" cy="33931.3" r="157.48" /> 
</g>
<g style="fill:#000000; fill-opacity:1.0; 
stroke:#000000; stroke-width:39.3701; stroke-opacity:1; 
stroke-linecap:round; stroke-linejoin:round;">
</g>
<g style="fill:#000000; fill-opacity:1.0; 
stroke:#000000; stroke-width:0; stroke-opacity:1; 
stroke-linecap:round; stroke-linejoin:round;">
<circle cx="57372.6" cy="48661.3" r="157.48" /> 
</g>
<g style="fill:#000000; fill-opacity:1.0; 
stroke:#000000; stroke-width:39.3701; stroke-opacity:1; 
stroke-linecap:round; stroke-linejoin:round;">
</g>
<g style="fill:#000000; fill-opacity:1.0; 
stroke:#000000; stroke-width:0; stroke-opacity:1; 
stroke-linecap:round; stroke-linejoin:round;">
<circle cx="58323.6" cy="47038.3" r="157.48" /> 
</g>
<g style="fill:#000000; fill-opacity:1.0; 
stroke:#000000; stroke-width:39.3701; stroke-opacity:1; 
stroke-linecap:round; stroke-linejoin:round;">
</g>
<g style="fill:#000000; fill-opacity:1.0; 
stroke:#000000; stroke-width:0; stroke-opacity:1; 
stroke-linecap:round; stroke-linejoin:round;">
<circle cx="62485.6" cy="47041.3" r="157.48" /> 
</g>
<g style="fill:#000000; fill-opacity:1.0; 
stroke:#000000; stroke-width:39.3701; stroke-opacity:1; 
stroke-linecap:round; stroke-linejoin:round;">
</g>
<g style="fill:#000000; fill-opacity:1.0; 
stroke:#000000; stroke-width:0; stroke-opacity:1; 
stroke-linecap:round; stroke-linejoin:round;">
<circle cx="61859.6" cy="35112.3" r="157.48" /> 
</g>
<g style="fill:#000000; fill-opacity:1.0; 
stroke:#000000; stroke-width:39.3701; stroke-opacity:1; 
stroke-linecap:round; stroke-linejoin:round;">
</g>
<g style="fill:#000000; fill-opacity:1.0; 
stroke:#000000; stroke-width:0; stroke-opacity:1; 
stroke-linecap:round; stroke-linejoin:round;">
<circle cx="61912.6" cy="42178.3" r="157.48" /> 
</g>
<g style="fill:#000000; fill-opacity:1.0; 
stroke:#000000; stroke-width:39.3701; stroke-opacity:1; 
stroke-linecap:round; stroke-linejoin:round;">
</g>
<g style="fill:#000000; fill-opacity:1.0; 
stroke:#000000; stroke-width:0; stroke-opacity:1; 
stroke-linecap:round; stroke-linejoin:round;">
<circle cx="61860.6" cy="34523.3" r="157.48" /> 
</g>
<g style="fill:#000000; fill-opacity:1.0; 
stroke:#000000; stroke-width:39.3701; stroke-opacity:1; 
stroke-linecap:round; stroke-linejoin:round;">
</g>
<g style="fill:#000000; fill-opacity:1.0; 
stroke:#000000; stroke-width:0; stroke-opacity:1; 
stroke-linecap:round; stroke-linejoin:round;">
<circle cx="61859.6" cy="33916.3" r="157.48" /> 
</g>
<g style="fill:#000000; fill-opacity:1.0; 
stroke:#000000; stroke-width:39.3701; stroke-opacity:1; 
stroke-linecap:round; stroke-linejoin:round;">
</g>
<g style="fill:#000000; fill-opacity:1.0; 
stroke:#000000; stroke-width:0; stroke-opacity:1; 
stroke-linecap:round; stroke-linejoin:round;">
<circle cx="61871.6" cy="33345.3" r="157.48" /> 
</g>
<g style="fill:#000000; fill-opacity:1.0; 
stroke:#000000; stroke-width:39.3701; stroke-opacity:1; 
stroke-linecap:round; stroke-linejoin:round;">
</g>
<g style="fill:#000000; fill-opacity:1.0; 
stroke:#000000; stroke-width:0; stroke-opacity:1; 
stroke-linecap:round; stroke-linejoin:round;">
<circle cx="60207.6" cy="45180.3" r="157.48" /> 
</g>
<g style="fill:#000000; fill-opacity:1.0; 
stroke:#000000; stroke-width:39.3701; stroke-opacity:1; 
stroke-linecap:round; stroke-linejoin:round;">
</g>
<g style="fill:#000000; fill-opacity:1.0; 
stroke:#000000; stroke-width:0; stroke-opacity:1; 
stroke-linecap:round; stroke-linejoin:round;">
<circle cx="59447.6" cy="45185.3" r="157.48" /> 
</g>
<g style="fill:#000000; fill-opacity:1.0; 
stroke:#000000; stroke-width:39.3701; stroke-opacity:1; 
stroke-linecap:round; stroke-linejoin:round;">
</g>
<g style="fill:#000000; fill-opacity:1.0; 
stroke:#000000; stroke-width:0; stroke-opacity:1; 
stroke-linecap:round; stroke-linejoin:round;">
<circle cx="58323.6" cy="47576.3" r="157.48" /> 
</g>
<g style="fill:#000000; fill-opacity:1.0; 
stroke:#000000; stroke-width:39.3701; stroke-opacity:1; 
stroke-linecap:round; stroke-linejoin:round;">
</g>
<g style="fill:#000000; fill-opacity:1.0; 
stroke:#000000; stroke-width:0; stroke-opacity:1; 
stroke-linecap:round; stroke-linejoin:round;">
<circle cx="57094.6" cy="43481.3" r="157.48" /> 
</g>
<g style="fill:#000000; fill-opacity:1.0; 
stroke:#000000; stroke-width:39.3701; stroke-opacity:1; 
stroke-linecap:round; stroke-linejoin:round;">
</g>
<g style="fill:#000000; fill-opacity:1.0; 
stroke:#000000; stroke-width:0; stroke-opacity:1; 
stroke-linecap:round; stroke-linejoin:round;">
<circle cx="56854.3" cy="48272.7" r="157.48" /> 
</g>
<g style="fill:#000000; fill-opacity:1.0; 
stroke:#000000; stroke-width:39.3701; stroke-opacity:1; 
stroke-linecap:round; stroke-linejoin:round;">
</g>
<g style="fill:#000000; fill-opacity:1.0; 
stroke:#000000; stroke-width:0; stroke-opacity:1; 
stroke-linecap:round; stroke-linejoin:round;">
<circle cx="55757.6" cy="50870.3" r="157.48" /> 
</g>
<g style="fill:#000000; fill-opacity:1.0; 
stroke:#000000; stroke-width:39.3701; stroke-opacity:1; 
stroke-linecap:round; stroke-linejoin:round;">
</g>
<g style="fill:#000000; fill-opacity:1.0; 
stroke:#000000; stroke-width:0; stroke-opacity:1; 
stroke-linecap:round; stroke-linejoin:round;">
<circle cx="56820.1" cy="43191.4" r="157.48" /> 
</g>
<g style="fill:#000000; fill-opacity:1.0; 
stroke:#000000; stroke-width:39.3701; stroke-opacity:1; 
stroke-linecap:round; stroke-linejoin:round;">
</g>
<g style="fill:#000000; fill-opacity:1.0; 
stroke:#000000; stroke-width:0; stroke-opacity:1; 
stroke-linecap:round; stroke-linejoin:round;">
<circle cx="56777.6" cy="47025.3" r="157.48" /> 
</g>
<g style="fill:#000000; fill-opacity:1.0; 
stroke:#000000; stroke-width:39.3701; stroke-opacity:1; 
stroke-linecap:round; stroke-linejoin:round;">
</g>
<g style="fill:#000000; fill-opacity:1.0; 
stroke:#000000; stroke-width:0; stroke-opacity:1; 
stroke-linecap:round; stroke-linejoin:round;">
<circle cx="61022.6" cy="48061.3" r="157.48" /> 
</g>
<g style="fill:#000000; fill-opacity:1.0; 
stroke:#000000; stroke-width:39.3701; stroke-opacity:1; 
stroke-linecap:round; stroke-linejoin:round;">
</g>
<g style="fill:#000000; fill-opacity:1.0; 
stroke:#000000; stroke-width:0; stroke-opacity:1; 
stroke-linecap:round; stroke-linejoin:round;">
<circle cx="61791.5" cy="47645.3" r="157.48" /> 
</g>
<g style="fill:#000000; fill-opacity:1.0; 
stroke:#000000; stroke-width:39.3701; stroke-opacity:1; 
stroke-linecap:round; stroke-linejoin:round;">
</g>
<g style="fill:#000000; fill-opacity:1.0; 
stroke:#000000; stroke-width:0; stroke-opacity:1; 
stroke-linecap:round; stroke-linejoin:round;">
<circle cx="59442.5" cy="48200.3" r="157.48" /> 
</g>
<g style="fill:#000000; fill-opacity:1.0; 
stroke:#000000; stroke-width:39.3701; stroke-opacity:1; 
stroke-linecap:round; stroke-linejoin:round;">
</g>
<g style="fill:#000000; fill-opacity:1.0; 
stroke:#000000; stroke-width:0; stroke-opacity:1; 
stroke-linecap:round; stroke-linejoin:round;">
<circle cx="57607.6" cy="47544.3" r="157.48" /> 
</g>
<g style="fill:#000000; fill-opacity:1.0; 
stroke:#000000; stroke-width:39.3701; stroke-opacity:1; 
stroke-linecap:round; stroke-linejoin:round;">
</g>
<g >
</g>
<g >
</g>
<g style="fill:#000000; fill-opacity:1.0; 
stroke:#000000; stroke-width:39.3701; stroke-opacity:1; 
stroke-linecap:round; stroke-linejoin:round;">
</g>
<g style="fill:#000000; fill-opacity:1.0; 
stroke:#000000; stroke-width:100; stroke-opacity:1; 
stroke-linecap:round; stroke-linejoin:round;">
<path style="fill:#000000; fill-opacity:1.0; 
stroke:#000000; stroke-width:100; stroke-opacity:1; 
stroke-linecap:round; stroke-linejoin:round;fill-rule:evenodd;"
d="M 58028,47128
58051.2,47184
58084.8,47234.3
58127.6,47277.2
58172.8,47307.3
58127.6,47337.5
58084.8,47380.3
58051.2,47430.7
58028,47486.6
58016.2,47546
58016.2,47606.6
58028,47666
58051.2,47722
58084.8,47772.3
58127.6,47815.2
58178,47848.8
58233.9,47872
58293.4,47883.8
58353.9,47883.8
58413.3,47872
58469.3,47848.8
58519.6,47815.2
58562.5,47772.3
58596.1,47722
58619.3,47666
58631.1,47606.6
58631.1,47546
58619.3,47486.6
58596.1,47430.7
58562.5,47380.3
58519.6,47337.5
58474.5,47307.3
58519.6,47277.2
58562.5,47234.3
58596.1,47184
58619.3,47128
58625.6,47096.3
62183.1,47096.3
62190,47131
62213.2,47187
62214.6,47189.2
62214.6,48459.3
57605.5,48459.3
57568.6,48422.5
57518.3,48388.8
57462.3,48365.7
57402.9,48353.8
57342.4,48353.8
57286.6,48364.9
57286.6,48016
60295.2,48016
60295.2,48076.6
60307,48136
60330.2,48192
60363.8,48242.3
60406.6,48285.2
60457,48318.8
60512.9,48342
60572.4,48353.8
60632.9,48353.8
60692.3,48342
60748.3,48318.8
60798.6,48285.2
60841.5,48242.3
60875.1,48192
60898.3,48136
60910.1,48076.6
60910.1,48016
60898.3,47956.6
60875.1,47900.7
60841.5,47850.3
60798.6,47807.5
60748.3,47773.8
60692.3,47750.7
60632.9,47738.8
60572.4,47738.8
60512.9,47750.7
60457,47773.8
60406.6,47807.5
60363.8,47850.3
60330.2,47900.7
60307,47956.6
60295.2,48016
57286.6,48016
57286.6,47096.3
58021.7,47096.3
Z" /> 
<path style="fill:#000000; fill-opacity:1.0; 
stroke:#000000; stroke-width:100; stroke-opacity:1; 
stroke-linecap:round; stroke-linejoin:round;fill-rule:evenodd;"
d="M 56417,26582.8
56366.6,26616.5
56323.8,26659.3
56290.2,26709.7
56267,26765.6
56255.2,26825
56255.2,26885.6
56267,26945
56290.2,27001
56323.8,27051.3
56366.6,27094.2
56417,27127.8
56472.9,27151
56532.4,27162.8
56592.9,27162.8
56652.3,27151
56708.3,27127.8
56758.6,27094.2
56801.5,27051.3
56835.1,27001
56858.3,26945
56870.1,26885.6
56870.1,26825
56858.3,26765.6
56835.1,26709.7
56801.5,26659.3
56758.6,26616.5
56708.3,26582.8
56675.6,26569.3
63864.6,26569.3
63849.3,26577.4
63826.5,26596.2
63807.7,26619
63793.8,26645.1
63785.2,26673.4
63782.3,26702.8
63782.3,27372
63785.2,27401.5
63793.8,27429.7
63807.7,27455.8
63826.5,27478.6
63849.3,27497.4
63875.4,27511.3
63903.7,27519.9
63933.1,27522.8
64602.4,27522.8
64631.8,27519.9
64660,27511.3
64686.1,27497.4
64708.9,27478.6
64727.7,27455.8
64741.6,27429.7
64749.6,27403.4
64749.6,27975.8
64733.7,27896
64697.2,27807.8
64644.2,27728.5
64576.7,27661
64497.3,27607.9
64409.1,27571.4
64315.4,27552.8
64220,27552.8
64126.4,27571.4
64038.2,27607.9
63958.8,27661
63891.3,27728.5
63838.2,27807.8
63801.7,27896
63783.1,27989.7
63783.1,28085.1
63801.7,28178.8
63838.2,28267
63891.3,28346.3
63958.8,28413.9
64038.2,28466.9
64126.4,28503.4
64220,28522
64315.4,28522
64409.1,28503.4
64497.3,28466.9
64576.7,28413.9
64644.2,28346.3
64697.2,28267
64733.7,28178.8
64749.6,28099
64749.6,28975.8
64733.7,28896
64697.2,28807.8
64644.2,28728.5
64576.7,28661
64497.3,28607.9
64409.1,28571.4
64315.4,28552.8
64220,28552.8
64126.4,28571.4
64038.2,28607.9
63958.8,28661
63891.3,28728.5
63838.2,28807.8
63801.7,28896
63783.1,28989.7
63783.1,29085.1
63801.7,29178.8
63838.2,29267
63891.3,29346.3
63958.8,29413.9
64038.2,29466.9
64126.4,29503.4
64220,29522
64315.4,29522
64409.1,29503.4
64497.3,29466.9
64576.7,29413.9
64644.2,29346.3
64697.2,29267
64733.7,29178.8
64749.6,29099
64749.6,29975.8
64733.7,29896
64697.2,29807.8
64644.2,29728.5
64576.7,29661
64497.3,29607.9
64409.1,29571.4
64315.4,29552.8
64220,29552.8
64126.4,29571.4
64038.2,29607.9
63958.8,29661
63891.3,29728.5
63838.2,29807.8
63801.7,29896
63783.1,29989.7
63783.1,30085.1
63801.7,30178.8
63838.2,30267
63891.3,30346.3
63958.8,30413.9
64038.2,30466.9
64126.4,30503.4
64220,30522
64315.4,30522
64409.1,30503.4
64497.3,30466.9
64576.7,30413.9
64644.2,30346.3
64697.2,30267
64733.7,30178.8
64749.6,30099
64749.6,30975.8
64733.7,30896
64697.2,30807.8
64644.2,30728.5
64576.7,30661
64497.3,30607.9
64409.1,30571.4
64315.4,30552.8
64220,30552.8
64126.4,30571.4
64038.2,30607.9
63958.8,30661
63891.3,30728.5
63838.2,30807.8
63801.7,30896
63783.1,30989.7
63783.1,31085.1
63801.7,31178.8
63838.2,31267
63891.3,31346.3
63958.8,31413.9
64038.2,31466.9
64126.4,31503.4
64220,31522
64315.4,31522
64409.1,31503.4
64497.3,31466.9
64576.7,31413.9
64644.2,31346.3
64697.2,31267
64733.7,31178.8
64749.6,31099
64749.6,31975.8
64733.7,31896
64697.2,31807.8
64644.2,31728.5
64576.7,31661
64497.3,31607.9
64409.1,31571.4
64315.4,31552.8
64220,31552.8
64126.4,31571.4
64038.2,31607.9
63958.8,31661
63891.3,31728.5
63838.2,31807.8
63801.7,31896
63783.1,31989.7
63783.1,32085.1
63801.7,32178.8
63838.2,32267
63891.3,32346.3
63958.8,32413.9
64038.2,32466.9
64126.4,32503.4
64220,32522
64315.4,32522
64409.1,32503.4
64497.3,32466.9
64576.7,32413.9
64644.2,32346.3
64697.2,32267
64733.7,32178.8
64749.6,32099
64749.6,32975.8
64733.7,32896
64697.2,32807.8
64644.2,32728.5
64576.7,32661
64497.3,32607.9
64409.1,32571.4
64315.4,32552.8
64220,32552.8
64126.4,32571.4
64038.2,32607.9
63958.8,32661
63891.3,32728.5
63838.2,32807.8
63801.7,32896
63783.1,32989.7
63783.1,33085.1
63801.7,33178.8
63838.2,33267
63891.3,33346.3
63958.8,33413.9
64038.2,33466.9
64126.4,33503.4
64220,33522
64315.4,33522
64409.1,33503.4
64497.3,33466.9
64576.7,33413.9
64644.2,33346.3
64697.2,33267
64733.7,33178.8
64749.6,33099
64749.6,33975.8
64733.7,33896
64697.2,33807.8
64644.2,33728.5
64576.7,33661
64497.3,33607.9
64409.1,33571.4
64315.4,33552.8
64220,33552.8
64126.4,33571.4
64038.2,33607.9
63958.8,33661
63891.3,33728.5
63838.2,33807.8
63801.7,33896
63783.1,33989.7
63783.1,34085.1
63801.7,34178.8
63838.2,34267
63891.3,34346.3
63958.8,34413.9
64038.2,34466.9
64126.4,34503.4
64220,34522
64315.4,34522
64409.1,34503.4
64497.3,34466.9
64576.7,34413.9
64644.2,34346.3
64697.2,34267
64733.7,34178.8
64749.6,34099
64749.6,34975.8
64733.7,34896
64697.2,34807.8
64644.2,34728.5
64576.7,34661
64497.3,34607.9
64409.1,34571.4
64315.4,34552.8
64220,34552.8
64126.4,34571.4
64038.2,34607.9
63958.8,34661
63891.3,34728.5
63838.2,34807.8
63801.7,34896
63783.1,34989.7
63783.1,35085.1
63801.7,35178.8
63838.2,35267
63891.3,35346.3
63958.8,35413.9
64038.2,35466.9
64126.4,35503.4
64220,35522
64315.4,35522
64409.1,35503.4
64497.3,35466.9
64576.7,35413.9
64644.2,35346.3
64697.2,35267
64733.7,35178.8
64749.6,35099
64749.6,35975.8
64733.7,35896
64697.2,35807.8
64644.2,35728.5
64576.7,35661
64497.3,35607.9
64409.1,35571.4
64315.4,35552.8
64220,35552.8
64126.4,35571.4
64038.2,35607.9
63958.8,35661
63891.3,35728.5
63838.2,35807.8
63801.7,35896
63783.1,35989.7
63783.1,36085.1
63801.7,36178.8
63838.2,36267
63891.3,36346.3
63958.8,36413.9
64038.2,36466.9
64126.4,36503.4
64220,36522
64315.4,36522
64409.1,36503.4
64497.3,36466.9
64576.7,36413.9
64644.2,36346.3
64697.2,36267
64733.7,36178.8
64749.6,36099
64749.6,36975.8
64733.7,36896
64697.2,36807.8
64644.2,36728.5
64576.7,36661
64497.3,36607.9
64409.1,36571.4
64315.4,36552.8
64220,36552.8
64126.4,36571.4
64038.2,36607.9
63958.8,36661
63891.3,36728.5
63838.2,36807.8
63801.7,36896
63783.1,36989.7
63783.1,37085.1
63801.7,37178.8
63838.2,37267
63891.3,37346.3
63958.8,37413.9
64038.2,37466.9
64126.4,37503.4
64220,37522
64315.4,37522
64409.1,37503.4
64497.3,37466.9
64576.7,37413.9
64644.2,37346.3
64697.2,37267
64733.7,37178.8
64749.6,37099
64749.6,37975.8
64733.7,37896
64697.2,37807.8
64644.2,37728.5
64576.7,37661
64497.3,37607.9
64409.1,37571.4
64315.4,37552.8
64220,37552.8
64126.4,37571.4
64038.2,37607.9
63958.8,37661
63891.3,37728.5
63838.2,37807.8
63801.7,37896
63783.1,37989.7
63783.1,38085.1
63801.7,38178.8
63838.2,38267
63891.3,38346.3
63958.8,38413.9
64038.2,38466.9
64126.4,38503.4
64220,38522
64315.4,38522
64409.1,38503.4
64497.3,38466.9
64576.7,38413.9
64644.2,38346.3
64697.2,38267
64733.7,38178.8
64749.6,38099
64749.6,38975.8
64733.7,38896
64697.2,38807.8
64644.2,38728.5
64576.7,38661
64497.3,38607.9
64409.1,38571.4
64315.4,38552.8
64220,38552.8
64126.4,38571.4
64038.2,38607.9
63958.8,38661
63891.3,38728.5
63838.2,38807.8
63801.7,38896
63783.1,38989.7
63783.1,39085.1
63801.7,39178.8
63838.2,39267
63891.3,39346.3
63958.8,39413.9
64038.2,39466.9
64126.4,39503.4
64220,39522
64315.4,39522
64409.1,39503.4
64497.3,39466.9
64576.7,39413.9
64644.2,39346.3
64697.2,39267
64733.7,39178.8
64749.6,39099
64749.6,39975.8
64733.7,39896
64697.2,39807.8
64644.2,39728.5
64576.7,39661
64497.3,39607.9
64409.1,39571.4
64315.4,39552.8
64220,39552.8
64126.4,39571.4
64038.2,39607.9
63958.8,39661
63891.3,39728.5
63838.2,39807.8
63801.7,39896
63783.1,39989.7
63783.1,40085.1
63801.7,40178.8
63838.2,40267
63891.3,40346.3
63958.8,40413.9
64038.2,40466.9
64126.4,40503.4
64220,40522
64315.4,40522
64409.1,40503.4
64497.3,40466.9
64576.7,40413.9
64644.2,40346.3
64697.2,40267
64733.7,40178.8
64749.6,40099
64749.6,40975.8
64733.7,40896
64697.2,40807.8
64644.2,40728.5
64576.7,40661
64497.3,40607.9
64409.1,40571.4
64315.4,40552.8
64220,40552.8
64126.4,40571.4
64038.2,40607.9
63958.8,40661
63891.3,40728.5
63838.2,40807.8
63801.7,40896
63783.1,40989.7
63783.1,41085.1
63801.7,41178.8
63838.2,41267
63891.3,41346.3
63958.8,41413.9
64038.2,41466.9
64126.4,41503.4
64220,41522
64315.4,41522
64409.1,41503.4
64497.3,41466.9
64576.7,41413.9
64644.2,41346.3
64697.2,41267
64733.7,41178.8
64749.6,41099
64749.6,41975.8
64733.7,41896
64697.2,41807.8
64644.2,41728.5
64576.7,41661
64497.3,41607.9
64409.1,41571.4
64315.4,41552.8
64220,41552.8
64126.4,41571.4
64038.2,41607.9
63958.8,41661
63891.3,41728.5
63838.2,41807.8
63801.7,41896
63783.1,41989.7
63783.1,42085.1
63801.7,42178.8
63838.2,42267
63891.3,42346.3
63958.8,42413.9
64038.2,42466.9
64126.4,42503.4
64220,42522
64315.4,42522
64409.1,42503.4
64497.3,42466.9
64576.7,42413.9
64644.2,42346.3
64697.2,42267
64733.7,42178.8
64749.6,42099
64749.6,42975.8
64733.7,42896
64697.2,42807.8
64644.2,42728.5
64576.7,42661
64497.3,42607.9
64409.1,42571.4
64315.4,42552.8
64220,42552.8
64126.4,42571.4
64038.2,42607.9
63958.8,42661
63891.3,42728.5
63838.2,42807.8
63801.7,42896
63783.1,42989.7
63783.1,43085.1
63801.7,43178.8
63838.2,43267
63891.3,43346.3
63958.8,43413.9
64038.2,43466.9
64126.4,43503.4
64220,43522
64315.4,43522
64409.1,43503.4
64497.3,43466.9
64576.7,43413.9
64644.2,43346.3
64697.2,43267
64733.7,43178.8
64749.6,43099
64749.6,43975.8
64733.7,43896
64697.2,43807.8
64644.2,43728.5
64576.7,43661
64497.3,43607.9
64409.1,43571.4
64315.4,43552.8
64220,43552.8
64126.4,43571.4
64038.2,43607.9
63958.8,43661
63891.3,43728.5
63838.2,43807.8
63801.7,43896
63783.1,43989.7
63783.1,44085.1
63801.7,44178.8
63838.2,44267
63891.3,44346.3
63958.8,44413.9
64038.2,44466.9
64126.4,44503.4
64220,44522
64315.4,44522
64409.1,44503.4
64497.3,44466.9
64576.7,44413.9
64644.2,44346.3
64697.2,44267
64733.7,44178.8
64749.6,44099
64749.6,44975.8
64733.7,44896
64697.2,44807.8
64644.2,44728.5
64576.7,44661
64497.3,44607.9
64409.1,44571.4
64315.4,44552.8
64220,44552.8
64126.4,44571.4
64038.2,44607.9
63958.8,44661
63891.3,44728.5
63838.2,44807.8
63801.7,44896
63783.1,44989.7
63783.1,45085.1
63801.7,45178.8
63838.2,45267
63891.3,45346.3
63958.8,45413.9
64038.2,45466.9
64126.4,45503.4
64220,45522
64315.4,45522
64409.1,45503.4
64497.3,45466.9
64576.7,45413.9
64644.2,45346.3
64697.2,45267
64733.7,45178.8
64749.6,45099
64749.6,45975.8
64733.7,45896
64697.2,45807.8
64644.2,45728.5
64576.7,45661
64497.3,45607.9
64409.1,45571.4
64315.4,45552.8
64220,45552.8
64126.4,45571.4
64038.2,45607.9
63958.8,45661
63891.3,45728.5
63838.2,45807.8
63801.7,45896
63783.1,45989.7
63783.1,46085.1
63801.7,46178.8
63838.2,46267
63891.3,46346.3
63958.8,46413.9
64038.2,46466.9
64126.4,46503.4
64220,46522
64315.4,46522
64409.1,46503.4
64497.3,46466.9
64576.7,46413.9
64644.2,46346.3
64697.2,46267
64733.7,46178.8
64749.6,46099
64749.6,46975.8
64733.7,46896
64697.2,46807.8
64644.2,46728.5
64576.7,46661
64497.3,46607.9
64409.1,46571.4
64315.4,46552.8
64220,46552.8
64126.4,46571.4
64038.2,46607.9
63958.8,46661
63891.3,46728.5
63838.2,46807.8
63801.7,46896
63783.1,46989.7
63783.1,47085.1
63801.7,47178.8
63838.2,47267
63891.3,47346.3
63958.8,47413.9
64038.2,47466.9
64126.4,47503.4
64220,47522
64315.4,47522
64409.1,47503.4
64497.3,47466.9
64576.7,47413.9
64644.2,47346.3
64697.2,47267
64733.7,47178.8
64749.6,47099
64749.6,47975.8
64733.7,47896
64697.2,47807.8
64644.2,47728.5
64576.7,47661
64497.3,47607.9
64409.1,47571.4
64315.4,47552.8
64220,47552.8
64126.4,47571.4
64038.2,47607.9
63958.8,47661
63891.3,47728.5
63838.2,47807.8
63801.7,47896
63783.1,47989.7
63783.1,48085.1
63801.7,48178.8
63838.2,48267
63891.3,48346.3
63958.8,48413.9
64038.2,48466.9
64126.4,48503.4
64220,48522
64315.4,48522
64409.1,48503.4
64497.3,48466.9
64576.7,48413.9
64644.2,48346.3
64697.2,48267
64733.7,48178.8
64749.6,48099
64749.6,52752
64740.7,52843.4
64716.4,52923.7
64677,52997.8
64624,53062.8
64559.3,53116.3
64485.5,53156.2
64405.3,53181
64314.5,53190.5
64240.1,53190.5
64300,53165.7
64393.9,53103
64473.8,53023.1
64536.5,52929.2
64579.7,52824.9
64601.7,52714.2
64601.7,52601.3
64579.7,52490.5
64536.5,52386.2
64473.8,52292.3
64393.9,52212.5
64300,52149.7
64195.7,52106.5
64085,52084.5
63972,52084.5
63861.3,52106.5
63757,52149.7
63663.1,52212.5
63583.2,52292.3
63520.5,52386.2
63477.3,52490.5
63455.3,52601.3
63455.3,52714.2
63477.3,52824.9
63520.5,52929.2
63583.2,53023.1
63663.1,53103
63757,53165.7
63816.5,53190.3
62100.5,53189.7
62158.3,53165.7
62252.2,53103
62332,53023.1
62394.8,52929.2
62438,52824.9
62460,52714.2
62460,52601.3
62438,52490.5
62394.8,52386.2
62332,52292.3
62252.2,52212.5
62158.3,52149.7
62054,52106.5
61943.2,52084.5
61830.3,52084.5
61719.6,52106.5
61615.2,52149.7
61521.4,52212.5
61441.5,52292.3
61378.8,52386.2
61335.6,52490.5
61313.5,52601.3
61313.5,52714.2
61335.6,52824.9
61378.8,52929.2
61441.5,53023.1
61521.4,53103
61615.2,53165.7
61672.7,53189.5
56933.2,53187.6
56973.4,53154.5
57018,53100.2
57051.1,53038.3
57071.5,52971
57078.4,52901.1
57071.5,52831.2
57051.1,52763.9
57018,52702
56973.4,52647.7
56919.1,52603.1
56857.2,52570
56789.9,52549.6
56737.5,52544.4
56505.4,52544.4
56528.2,52521.6
56559.7,52474.4
56581.4,52422.1
56588.7,52385
58655.2,52385
58655.2,52445.6
58667,52505
58690.2,52561
58723.8,52611.3
58766.6,52654.2
58817,52687.8
58872.9,52711
58932.4,52722.8
58992.9,52722.8
59052.3,52711
59108.3,52687.8
59158.6,52654.2
59201.5,52611.3
59235.1,52561
59258.3,52505
59270.1,52445.6
59270.1,52385
59665.2,52385
59665.2,52445.6
59677,52505
59700.2,52561
59733.8,52611.3
59776.6,52654.2
59827,52687.8
59882.9,52711
59942.4,52722.8
60002.9,52722.8
60062.3,52711
60118.3,52687.8
60168.6,52654.2
60211.5,52611.3
60245.1,52561
60268.3,52505
60280.1,52445.6
60280.1,52385
60268.3,52325.6
60245.1,52269.7
60211.5,52219.3
60168.6,52176.5
60118.3,52142.8
60062.3,52119.7
60002.9,52107.8
59942.4,52107.8
59882.9,52119.7
59827,52142.8
59776.6,52176.5
59733.8,52219.3
59700.2,52269.7
59677,52325.6
59665.2,52385
59270.1,52385
59258.3,52325.6
59235.1,52269.7
59201.5,52219.3
59158.6,52176.5
59108.3,52142.8
59052.3,52119.7
58992.9,52107.8
58932.4,52107.8
58872.9,52119.7
58817,52142.8
58766.6,52176.5
58723.8,52219.3
58690.2,52269.7
58667,52325.6
58655.2,52385
56588.7,52385
56592.4,52366.5
56592.4,52309.8
56581.4,52254.2
56559.7,52201.8
56528.2,52154.7
56488.1,52114.6
56441,52083.1
56388.6,52061.4
56358.3,52055.4
62492,52055.4
62492,52685.3
62494.8,52714.7
62503.4,52743
62517.4,52769
62536.1,52791.9
62558.9,52810.6
62585,52824.5
62613.3,52833.1
62642.7,52836
63272.6,52836
63302,52833.1
63330.3,52824.5
63356.3,52810.6
63379.2,52791.9
63397.9,52769
63411.9,52743
63420.4,52714.7
63423.3,52685.3
63423.3,52055.4
63420.4,52025.9
63411.9,51997.7
63397.9,51971.6
63379.2,51948.8
63356.3,51930
63330.3,51916.1
63302,51907.5
63291.6,51906.5
63318.8,51879.3
63369.7,51803.2
63404.7,51718.5
63422.6,51628.7
63422.6,51537.1
63404.7,51447.3
63369.7,51362.7
63318.8,51286.5
63254,51221.8
63205.3,51189.2
63254,51156.7
63318.8,51091.9
63369.7,51015.8
63404.7,50931.1
63422.6,50841.3
63422.6,50749.7
63404.7,50659.9
63369.7,50575.3
63318.8,50499.1
63254,50434.4
63205.3,50401.8
63254,50369.3
63318.8,50304.5
63369.7,50228.4
63404.7,50143.7
63422.6,50053.9
63422.6,49962.3
63404.7,49872.5
63393.5,49845.4
63455.3,49845.4
63455.3,49958.3
63477.3,50069
63520.5,50173.3
63583.2,50267.2
63663.1,50347.1
63757,50409.8
63861.3,50453
63972,50475
64085,50475
64195.7,50453
64300,50409.8
64393.9,50347.1
64473.8,50267.2
64536.5,50173.3
64579.7,50069
64601.7,49958.3
64601.7,49845.4
64579.7,49734.6
64536.5,49630.3
64473.8,49536.4
64393.9,49456.6
64300,49393.8
64195.7,49350.6
64085,49328.6
63972,49328.6
63861.3,49350.6
63757,49393.8
63663.1,49456.6
63583.2,49536.4
63520.5,49630.3
63477.3,49734.6
63455.3,49845.4
63393.5,49845.4
63369.7,49787.9
63318.8,49711.7
63254,49647
63177.9,49596.1
63093.3,49561
63003.4,49543.1
62911.8,49543.1
62822,49561
62737.4,49596.1
62661.2,49647
62596.5,49711.7
62545.6,49787.9
62510.5,49872.5
62492.7,49962.3
62492.7,50053.9
62510.5,50143.7
62545.6,50228.4
62596.5,50304.5
62661.2,50369.3
62709.9,50401.8
62661.2,50434.4
62596.5,50499.1
62545.6,50575.3
62510.5,50659.9
62492.7,50749.7
62492.7,50841.3
62510.5,50931.1
62545.6,51015.8
62596.5,51091.9
62661.2,51156.7
62709.9,51189.2
62661.2,51221.8
62596.5,51286.5
62545.6,51362.7
62510.5,51447.3
62492.7,51537.1
62492.7,51628.7
62510.5,51718.5
62545.6,51803.2
62596.5,51879.3
62623.7,51906.5
62613.3,51907.5
62585,51916.1
62558.9,51930
62536.1,51948.8
62517.4,51971.6
62503.4,51997.7
62494.8,52025.9
62492,52055.4
56358.3,52055.4
56333,52050.3
56276.3,52050.3
56220.7,52061.4
56168.3,52083.1
56121.2,52114.6
56081.1,52154.7
56049.6,52201.8
56027.9,52254.2
56016.9,52309.8
56016.9,52366.5
56027.9,52422.1
56049.6,52474.4
56081.1,52521.6
56121.2,52561.7
56149.5,52580.6
56107.5,52603.1
56053.2,52647.7
56008.6,52702
55975.5,52763.9
55955.1,52831.2
55948.2,52901.1
55955.1,52971
55975.5,53038.3
56008.6,53100.2
56053.2,53154.5
56093,53187.3
55288.3,53186.9
55327.8,53154.5
55372.3,53100.2
55405.5,53038.3
55425.9,52971
55432.7,52901.1
55425.9,52831.2
55405.5,52763.9
55372.3,52702
55327.8,52647.7
55273.5,52603.1
55211.5,52570
55144.3,52549.6
55091.9,52544.4
54643.4,52544.4
54591,52549.6
54523.8,52570
54461.8,52603.1
54407.5,52647.7
54362.9,52702
54329.8,52763.9
54309.4,52831.2
54302.5,52901.1
54309.4,52971
54329.8,53038.3
54362.9,53100.2
54407.5,53154.5
54437.2,53178.9
54424.4,53177.7
54344,53153.4
54269.9,53114
54204.9,53061
54151.4,52996.3
54111.5,52922.5
54086.7,52842.4
54077.2,52751.5
54077.2,50840
55450.2,50840
55450.2,50900.6
55462,50960
55485.2,51016
55518.8,51066.3
55561.6,51109.2
55612,51142.8
55668,51166
55727.4,51177.8
55787.9,51177.8
55847.3,51166
55903.3,51142.8
55953.6,51109.2
55996.5,51066.3
56030.1,51016
56053.3,50960
56065.1,50900.6
56065.1,50840
56053.3,50780.6
56030.1,50724.7
55996.5,50674.3
55953.6,50631.5
55903.3,50597.8
55847.3,50574.7
55787.9,50562.8
55727.4,50562.8
55668,50574.7
55612,50597.8
55561.6,50631.5
55518.8,50674.3
55485.2,50724.7
55462,50780.6
55450.2,50840
54077.2,50840
54077.2,49499.5
54302.5,49499.5
54309.4,49569.5
54329.8,49636.7
54362.9,49698.7
54407.5,49753
54461.8,49797.5
54523.8,49830.7
54591,49851.1
54643.4,49856.2
55091.9,49856.2
55144.3,49851.1
55211.5,49830.7
55273.5,49797.5
55327.8,49753
55372.3,49698.7
55405.5,49636.7
55425.9,49569.5
55432.7,49499.5
55948.2,49499.5
55955.1,49569.5
55975.5,49636.7
56008.6,49698.7
56053.2,49753
56107.5,49797.5
56149.5,49820
56121.2,49839
56081.1,49879.1
56049.6,49926.2
56027.9,49978.6
56016.9,50034.2
56016.9,50090.9
56027.9,50146.5
56049.6,50198.8
56081.1,50246
56121.2,50286.1
56168.3,50317.6
56220.7,50339.3
56276.3,50350.3
56333,50350.3
56388.6,50339.3
56441,50317.6
56488.1,50286.1
56528.2,50246
56559.7,50198.8
56581.4,50146.5
56586.6,50120
60185.2,50120
60185.2,50180.6
60197,50240
60220.2,50296
60253.8,50346.3
60296.6,50389.2
60347,50422.8
60402.9,50446
60462.4,50457.8
60522.9,50457.8
60582.3,50446
60638.3,50422.8
60688.6,50389.2
60731.5,50346.3
60765.1,50296
60788.3,50240
60800.1,50180.6
60800.1,50120
60788.3,50060.6
60765.1,50004.7
60731.5,49954.3
60688.6,49911.5
60638.3,49877.8
60582.3,49854.7
60535.6,49845.4
61313.5,49845.4
61313.5,49958.3
61335.6,50069
61378.8,50173.3
61441.5,50267.2
61521.4,50347.1
61615.2,50409.8
61719.6,50453
61830.3,50475
61943.2,50475
62054,50453
62158.3,50409.8
62252.2,50347.1
62332,50267.2
62394.8,50173.3
62438,50069
62460,49958.3
62460,49845.4
62438,49734.6
62394.8,49630.3
62332,49536.4
62252.2,49456.6
62158.3,49393.8
62054,49350.6
61943.2,49328.6
61830.3,49328.6
61719.6,49350.6
61615.2,49393.8
61521.4,49456.6
61441.5,49536.4
61378.8,49630.3
61335.6,49734.6
61313.5,49845.4
60535.6,49845.4
60522.9,49842.8
60462.4,49842.8
60402.9,49854.7
60347,49877.8
60296.6,49911.5
60253.8,49954.3
60220.2,50004.7
60197,50060.6
60185.2,50120
56586.6,50120
56592.4,50090.9
56592.4,50034.2
56581.4,49978.6
56559.7,49926.2
56528.2,49879.1
56505.4,49856.2
56737.5,49856.2
56789.9,49851.1
56857.2,49830.7
56919.1,49797.5
56973.4,49753
57018,49698.7
57051.1,49636.7
57071.5,49569.5
57076.6,49518
58198.2,49518
58198.2,49578.6
58210,49638
58233.2,49694
58266.8,49744.3
58309.6,49787.2
58360,49820.8
58415.9,49844
58475.4,49855.8
58535.9,49855.8
58595.3,49844
58651.3,49820.8
58701.6,49787.2
58744.5,49744.3
58778.1,49694
58801.3,49638
58813.1,49578.6
58813.1,49518
58801.3,49458.6
58778.1,49402.7
58744.5,49352.3
58701.6,49309.5
58651.3,49275.8
58595.3,49252.7
58535.9,49240.8
58475.4,49240.8
58415.9,49252.7
58360,49275.8
58309.6,49309.5
58266.8,49352.3
58233.2,49402.7
58210,49458.6
58198.2,49518
57076.6,49518
57078.4,49499.5
57071.5,49429.6
57051.1,49362.4
57018,49300.4
56973.4,49246.1
56919.1,49201.5
56857.2,49168.4
56789.9,49148
56737.5,49142.8
56289.1,49142.8
56236.7,49148
56169.5,49168.4
56107.5,49201.5
56053.2,49246.1
56008.6,49300.4
55975.5,49362.4
55955.1,49429.6
55948.2,49499.5
55432.7,49499.5
55425.9,49429.6
55405.5,49362.4
55372.3,49300.4
55327.8,49246.1
55273.5,49201.5
55211.5,49168.4
55144.3,49148
55091.9,49142.8
54643.4,49142.8
54591,49148
54523.8,49168.4
54461.8,49201.5
54407.5,49246.1
54362.9,49300.4
54329.8,49362.4
54309.4,49429.6
54302.5,49499.5
54077.2,49499.5
54077.2,48315
54275.2,48315
54275.2,48375.6
54287,48435
54310.2,48491
54343.8,48541.3
54386.6,48584.2
54437,48617.8
54492.9,48641
54552.4,48652.8
54612.9,48652.8
54672.3,48641
54728.3,48617.8
54778.6,48584.2
54821.5,48541.3
54855.1,48491
54878.3,48435
54890.1,48375.6
54890.1,48315
54878.3,48255.6
54872.8,48242.4
56546.8,48242.4
56546.8,48303
56558.6,48362.4
56581.8,48418.3
56615.5,48468.7
56658.3,48511.5
56708.6,48545.2
56764.6,48568.4
56824,48580.2
56884.6,48580.2
56944,48568.4
56999.9,48545.2
57050.3,48511.5
57086.6,48475.2
57086.6,48509.3
57089.5,48538.6
57090,48540.2
57077,48571.6
57065.2,48631
57065.2,48691.6
57077,48751
57100.2,48807
57133.8,48857.3
57176.6,48900.2
57227,48933.8
57282.9,48957
57342.4,48968.8
57402.9,48968.8
57462.3,48957
57518.3,48933.8
57568.6,48900.2
57611.5,48857.3
57645.1,48807
57668.3,48751
57680.1,48691.6
57680.1,48659.3
62264.6,48659.3
62293.9,48656.4
62322,48647.9
62348,48634
62370.7,48615.4
62389.4,48592.7
62403.2,48566.7
62411.8,48538.6
62414.6,48509.3
62414.6,47340.7
62455.4,47348.8
62515.9,47348.8
62575.3,47337
62631.3,47313.8
62681.6,47280.2
62724.5,47237.3
62758.1,47187
62781.3,47131
62793.1,47071.6
62793.1,47011
62781.3,46951.6
62758.1,46895.7
62724.5,46845.3
62681.6,46802.5
62631.3,46768.8
62575.3,46745.7
62515.9,46733.8
62455.4,46733.8
62395.9,46745.7
62340,46768.8
62289.6,46802.5
62246.8,46845.3
62213.2,46895.7
62212.9,46896.3
58597.6,46896.3
58596.1,46892.7
58562.5,46842.3
58519.6,46799.5
58469.3,46765.8
58413.3,46742.7
58353.9,46730.8
58293.4,46730.8
58233.9,46742.7
58178,46765.8
58127.6,46799.5
58084.8,46842.3
58051.2,46892.7
58049.6,46896.3
57236.6,46896.3
57207.4,46899.2
57179.2,46907.7
57153.3,46921.6
57130.6,46940.2
57111.9,46963
57098.1,46988.9
57089.5,47017.1
57086.6,47046.3
57086.6,48070.2
57050.3,48033.9
56999.9,48000.2
56944,47977
56884.6,47965.2
56824,47965.2
56764.6,47977
56708.6,48000.2
56658.3,48033.9
56615.5,48076.7
56581.8,48127.1
56558.6,48183
56546.8,48242.4
54872.8,48242.4
54855.1,48199.7
54821.5,48149.3
54778.6,48106.5
54728.3,48072.8
54672.3,48049.7
54612.9,48037.8
54552.4,48037.8
54492.9,48049.7
54437,48072.8
54386.6,48106.5
54343.8,48149.3
54310.2,48199.7
54287,48255.6
54275.2,48315
54077.2,48315
54077.2,47537
54988.2,47537
54988.2,47597.6
55000,47657
55023.2,47713
55056.8,47763.3
55099.6,47806.2
55150,47839.8
55205.9,47863
55265.4,47874.8
55325.9,47874.8
55385.3,47863
55441.3,47839.8
55491.6,47806.2
55534.5,47763.3
55568.1,47713
55591.3,47657
55603.1,47597.6
55603.1,47537
55591.3,47477.6
55568.1,47421.7
55534.5,47371.3
55491.6,47328.5
55441.3,47294.8
55385.3,47271.7
55325.9,47259.8
55265.4,47259.8
55205.9,47271.7
55150,47294.8
55099.6,47328.5
55056.8,47371.3
55023.2,47421.7
55000,47477.6
54988.2,47537
54077.2,47537
54077.2,46687
56037.2,46687
56037.2,46747.6
56049,46807
56072.2,46863
56105.8,46913.3
56148.6,46956.2
56199,46989.8
56254.9,47013
56314.4,47024.8
56374.9,47024.8
56434.3,47013
56470.2,46998.1
56470.2,47055.6
56482,47115
56505.2,47171
56538.8,47221.3
56581.6,47264.2
56632,47297.8
56687.9,47321
56747.4,47332.8
56807.9,47332.8
56867.3,47321
56923.3,47297.8
56973.6,47264.2
57016.5,47221.3
57050.1,47171
57073.3,47115
57085.1,47055.6
57085.1,46995
57073.3,46935.6
57050.1,46879.7
57016.5,46829.3
56973.6,46786.5
56923.3,46752.8
56867.3,46729.7
56807.9,46717.8
56747.4,46717.8
56687.9,46729.7
56652.1,46744.5
56652.1,46687
56640.3,46627.6
56617.1,46571.7
56583.5,46521.3
56569.2,46507
57305.2,46507
57305.2,46567.6
57317,46627
57340.2,46683
57373.8,46733.3
57416.6,46776.2
57467,46809.8
57522.9,46833
57582.4,46844.8
57642.9,46844.8
57702.3,46833
57758.3,46809.8
57808.6,46776.2
57851.5,46733.3
57885.1,46683
57908.3,46627
57920.1,46567.6
57920.1,46507
57908.3,46447.6
57885.1,46391.7
57851.5,46341.3
57808.6,46298.5
57758.3,46264.8
57702.3,46241.7
57642.9,46229.8
57582.4,46229.8
57522.9,46241.7
57467,46264.8
57416.6,46298.5
57373.8,46341.3
57340.2,46391.7
57317,46447.6
57305.2,46507
56569.2,46507
56540.6,46478.5
56490.3,46444.8
56434.3,46421.7
56374.9,46409.8
56314.4,46409.8
56254.9,46421.7
56199,46444.8
56148.6,46478.5
56105.8,46521.3
56072.2,46571.7
56049,46627.6
56037.2,46687
54077.2,46687
54077.2,45715
55000.2,45715
55000.2,45775.6
55012,45835
55035.2,45891
55068.8,45941.3
55111.6,45984.2
55162,46017.8
55217.9,46041
55277.4,46052.8
55337.9,46052.8
55397.3,46041
55453.3,46017.8
55503.6,45984.2
55546.5,45941.3
55580.1,45891
55603.3,45835
55615.1,45775.6
55615.1,45715
55603.3,45655.6
55580.1,45599.7
55546.5,45549.3
55515.2,45518
57355.9,45518
57355.9,45578.6
57367.8,45638
57390.9,45694
57424.6,45744.3
57467.4,45787.2
57517.8,45820.8
57573.7,45844
57633.1,45855.8
57693.7,45855.8
57753.1,45844
57809.1,45820.8
57859.4,45787.2
57902.3,45744.3
57935.9,45694
57959.1,45638
57970.9,45578.6
57970.9,45518
57959.1,45458.6
57935.9,45402.7
57902.3,45352.3
57859.4,45309.5
57809.1,45275.8
57753.1,45252.7
57693.7,45240.8
57633.1,45240.8
57573.7,45252.7
57517.8,45275.8
57467.4,45309.5
57424.6,45352.3
57390.9,45402.7
57367.8,45458.6
57355.9,45518
55515.2,45518
55503.6,45506.5
55453.3,45472.8
55397.3,45449.7
55337.9,45437.8
55277.4,45437.8
55217.9,45449.7
55162,45472.8
55111.6,45506.5
55068.8,45549.3
55035.2,45599.7
55012,45655.6
55000.2,45715
54077.2,45715
54077.2,45155
59140.2,45155
59140.2,45215.6
59152,45275
59175.2,45331
59208.8,45381.3
59251.6,45424.2
59302,45457.8
59357.9,45481
59417.4,45492.8
59477.9,45492.8
59537.3,45481
59593.3,45457.8
59643.6,45424.2
59686.5,45381.3
59720.1,45331
59743.3,45275
59755.1,45215.6
59755.1,45155
59754.1,45150
59900.2,45150
59900.2,45210.6
59912,45270
59935.2,45326
59968.8,45376.3
60011.6,45419.2
60062,45452.8
60117.9,45476
60177.4,45487.8
60237.9,45487.8
60297.3,45476
60353.3,45452.8
60403.6,45419.2
60446.5,45376.3
60480.1,45326
60503.3,45270
60515.1,45210.6
60515.1,45150
60503.3,45090.6
60480.1,45034.7
60446.5,44984.3
60403.6,44941.5
60353.3,44907.8
60297.3,44884.7
60237.9,44872.8
60177.4,44872.8
60117.9,44884.7
60062,44907.8
60011.6,44941.5
59968.8,44984.3
59935.2,45034.7
59912,45090.6
59900.2,45150
59754.1,45150
59743.3,45095.6
59720.1,45039.7
59686.5,44989.3
59643.6,44946.5
59593.3,44912.8
59537.3,44889.7
59477.9,44877.8
59417.4,44877.8
59357.9,44889.7
59302,44912.8
59251.6,44946.5
59208.8,44989.3
59175.2,45039.7
59152,45095.6
59140.2,45155
54077.2,45155
54077.2,44579
54973.2,44579
54973.2,44639.6
54985,44699
55008.2,44755
55041.8,44805.3
55084.6,44848.2
55135,44881.8
55190.9,44905
55250.4,44916.8
55310.9,44916.8
55370.3,44905
55426.3,44881.8
55476.6,44848.2
55519.5,44805.3
55553.1,44755
55576.3,44699
55588.1,44639.6
55588.1,44579
55576.3,44519.6
55553.1,44463.7
55519.5,44413.3
55476.6,44370.5
55426.3,44336.8
55370.3,44313.7
55310.9,44301.8
55250.4,44301.8
55190.9,44313.7
55135,44336.8
55084.6,44370.5
55041.8,44413.3
55008.2,44463.7
54985,44519.6
54973.2,44579
54077.2,44579
54077.2,44264
54078.4,44267
54131.4,44346.3
54198.9,44413.9
54278.3,44466.9
54366.5,44503.4
54460.1,44522
54555.6,44522
54649.2,44503.4
54737.4,44466.9
54816.8,44413.9
54884.3,44346.3
54937.4,44267
54973.9,44178.8
54992.5,44085.1
54992.5,43989.7
54973.9,43896
54937.4,43807.8
54884.3,43728.5
54816.8,43661
54737.4,43607.9
54649.2,43571.4
54555.6,43552.8
54460.1,43552.8
54366.5,43571.4
54278.3,43607.9
54198.9,43661
54131.4,43728.5
54078.4,43807.8
54077.2,43810.8
54077.2,43264
54078.4,43267
54131.4,43346.3
54198.9,43413.9
54278.3,43466.9
54366.5,43503.4
54460.1,43522
54555.6,43522
54649.2,43503.4
54737.4,43466.9
54816.8,43413.9
54884.3,43346.3
54937.4,43267
54973.9,43178.8
54977.4,43161.1
56512.6,43161.1
56512.6,43221.7
56524.4,43281.1
56547.6,43337.1
56581.2,43387.4
56624,43430.3
56674.4,43463.9
56730.4,43487.1
56787.2,43498.4
56787.2,43511.6
56799,43571
56822.2,43627
56855.8,43677.3
56898.6,43720.2
56949,43753.8
57004.9,43777
57064.4,43788.8
57124.9,43788.8
57184.3,43777
57240.3,43753.8
57290.6,43720.2
57333.5,43677.3
57367.1,43627
57390.3,43571
57402.1,43511.6
57402.1,43451
57390.3,43391.6
57367.1,43335.7
57333.5,43285.3
57290.6,43242.5
57240.3,43208.8
57184.3,43185.7
57127.5,43174.4
57127.5,43161.1
57115.7,43101.7
57092.5,43045.8
57058.9,42995.4
57016.1,42952.6
57009.6,42948.3
61811.9,42948.3
61811.9,43008.8
61823.8,43068.2
61846.9,43124.2
61880.6,43174.5
61923.4,43217.4
61973.8,43251
62029.7,43274.2
62089.1,43286
62149.7,43286
62209.1,43274.2
62265.1,43251
62315.4,43217.4
62358.3,43174.5
62391.9,43124.2
62415.1,43068.2
62426.9,43008.8
62426.9,42948.3
62415.1,42888.8
62391.9,42832.9
62358.3,42782.5
62315.4,42739.7
62265.1,42706.1
62209.1,42682.9
62149.7,42671.1
62089.1,42671.1
62029.7,42682.9
61973.8,42706.1
61923.4,42739.7
61880.6,42782.5
61846.9,42832.9
61823.8,42888.8
61811.9,42948.3
57009.6,42948.3
56965.7,42918.9
56909.7,42895.8
56850.3,42883.9
56789.8,42883.9
56730.4,42895.8
56674.4,42918.9
56624,42952.6
56581.2,42995.4
56547.6,43045.8
56524.4,43101.7
56512.6,43161.1
54977.4,43161.1
54992.5,43085.1
54992.5,42989.7
54973.9,42896
54937.4,42807.8
54884.3,42728.5
54816.8,42661
54737.4,42607.9
54649.2,42571.4
54555.6,42552.8
54460.1,42552.8
54366.5,42571.4
54278.3,42607.9
54198.9,42661
54131.4,42728.5
54078.4,42807.8
54077.2,42810.8
54077.2,42264
54078.4,42267
54131.4,42346.3
54198.9,42413.9
54278.3,42466.9
54366.5,42503.4
54460.1,42522
54555.6,42522
54649.2,42503.4
54737.4,42466.9
54816.8,42413.9
54884.3,42346.3
54937.4,42267
54973.9,42178.8
54992.5,42085.1
54992.5,41989.7
54973.9,41896
54937.4,41807.8
54916,41775.9
56086,41775.9
56086,41836.5
56097.8,41895.9
56121,41951.8
56154.7,42002.2
56197.5,42045
56247.9,42078.7
56303.8,42101.9
56363.2,42113.7
56423.8,42113.7
56483.2,42101.9
56539.2,42078.7
56589.5,42045
56632.3,42002.2
56666,41951.8
56689.2,41895.9
56701,41836.5
56701,41786
57472.2,41786
57472.2,41846.6
57484,41906
57507.2,41962
57540.8,42012.3
57583.6,42055.2
57634,42088.8
57689.9,42112
57749.4,42123.8
57809.9,42123.8
57869.3,42112
57925.3,42088.8
57975.6,42055.2
58018.5,42012.3
58052.1,41962
58075.3,41906
58087.1,41846.6
58087.1,41822
59348.2,41822
59348.2,41882.6
59360,41942
59383.2,41998
59416.8,42048.3
59459.6,42091.2
59510,42124.8
59565.9,42148
59625.4,42159.8
59685.9,42159.8
59745.3,42148
59801.3,42124.8
59851.6,42091.2
59894.5,42048.3
59911,42023.6
59920.8,42038.3
59963.6,42081.2
60014,42114.8
60069.9,42138
60129.4,42149.8
60189.9,42149.8
60198.8,42148
61605.2,42148
61605.2,42208.6
61617,42268
61640.2,42324
61673.8,42374.3
61716.6,42417.2
61767,42450.8
61822.9,42474
61882.4,42485.8
61942.9,42485.8
62002.3,42474
62058.3,42450.8
62108.6,42417.2
62151.5,42374.3
62185.1,42324
62208.3,42268
62220.1,42208.6
62220.1,42148
62208.3,42088.6
62185.1,42032.7
62151.5,41982.3
62108.6,41939.5
62058.3,41905.8
62002.3,41882.7
61942.9,41870.8
61882.4,41870.8
61822.9,41882.7
61767,41905.8
61716.6,41939.5
61673.8,41982.3
61640.2,42032.7
61617,42088.6
61605.2,42148
60198.8,42148
60249.3,42138
60305.3,42114.8
60355.6,42081.2
60398.5,42038.3
60432.1,41988
60455.3,41932
60467.1,41872.6
60467.1,41812
60455.3,41752.6
60432.1,41696.7
60398.5,41646.3
60355.6,41603.5
60305.3,41569.8
60249.3,41546.7
60189.9,41534.8
60129.4,41534.8
60069.9,41546.7
60014,41569.8
59963.6,41603.5
59920.8,41646.3
59904.3,41671
59894.5,41656.3
59851.6,41613.5
59801.3,41579.8
59745.3,41556.7
59685.9,41544.8
59625.4,41544.8
59565.9,41556.7
59510,41579.8
59459.6,41613.5
59416.8,41656.3
59383.2,41706.7
59360,41762.6
59348.2,41822
58087.1,41822
58087.1,41786
58075.3,41726.6
58052.1,41670.7
58018.5,41620.3
57975.6,41577.5
57925.3,41543.8
57869.3,41520.7
57809.9,41508.8
57749.4,41508.8
57689.9,41520.7
57634,41543.8
57583.6,41577.5
57540.8,41620.3
57507.2,41670.7
57484,41726.6
57472.2,41786
56701,41786
56701,41775.9
56689.2,41716.5
56666,41660.5
56632.3,41610.2
56589.5,41567.4
56539.2,41533.7
56483.2,41510.5
56423.8,41498.7
56363.2,41498.7
56303.8,41510.5
56247.9,41533.7
56197.5,41567.4
56154.7,41610.2
56121,41660.5
56097.8,41716.5
56086,41775.9
54916,41775.9
54884.3,41728.5
54816.8,41661
54737.4,41607.9
54649.2,41571.4
54555.6,41552.8
54460.1,41552.8
54366.5,41571.4
54278.3,41607.9
54198.9,41661
54131.4,41728.5
54078.4,41807.8
54077.2,41810.8
54077.2,41264
54078.4,41267
54131.4,41346.3
54198.9,41413.9
54278.3,41466.9
54366.5,41503.4
54460.1,41522
54555.6,41522
54649.2,41503.4
54737.4,41466.9
54816.8,41413.9
54884.3,41346.3
54915.3,41300
58590.2,41300
58590.2,41360.6
58602,41420
58625.2,41476
58658.8,41526.3
58701.6,41569.2
58752,41602.8
58807.9,41626
58867.4,41637.8
58927.9,41637.8
58987.3,41626
59043.3,41602.8
59093.6,41569.2
59136.5,41526.3
59170.1,41476
59193.3,41420
59205.1,41360.6
59205.1,41300
59193.3,41240.6
59170.1,41184.7
59136.5,41134.3
59093.6,41091.5
59043.3,41057.8
58987.3,41034.7
58927.9,41022.8
58867.4,41022.8
58807.9,41034.7
58752,41057.8
58701.6,41091.5
58658.8,41134.3
58625.2,41184.7
58602,41240.6
58590.2,41300
54915.3,41300
54937.4,41267
54973.9,41178.8
54992.5,41085.1
54992.5,40989.7
54980.7,40930
56140.2,40930
56140.2,40990.6
56152,41050
56175.2,41106
56208.8,41156.3
56251.6,41199.2
56302,41232.8
56357.9,41256
56417.4,41267.8
56477.9,41267.8
56537.3,41256
56593.3,41232.8
56643.6,41199.2
56686.5,41156.3
56720.1,41106
56743.3,41050
56755.1,40990.6
56755.1,40930
56743.3,40870.6
56726.5,40830
60898.2,40830
60898.2,40890.6
60910,40950
60933.2,41006
60966.8,41056.3
61009.6,41099.2
61060,41132.8
61115.9,41156
61175.4,41167.8
61235.9,41167.8
61295.3,41156
61351.3,41132.8
61401.6,41099.2
61444.5,41056.3
61478.1,41006
61501.3,40950
61513.1,40890.6
61513.1,40830
61501.3,40770.6
61478.1,40714.7
61444.5,40664.3
61401.6,40621.5
61351.3,40587.8
61295.3,40564.7
61235.9,40552.8
61175.4,40552.8
61115.9,40564.7
61060,40587.8
61009.6,40621.5
60966.8,40664.3
60933.2,40714.7
60910,40770.6
60898.2,40830
56726.5,40830
56720.1,40814.7
56686.5,40764.3
56643.6,40721.5
56593.3,40687.8
56537.3,40664.7
56477.9,40652.8
56417.4,40652.8
56357.9,40664.7
56302,40687.8
56251.6,40721.5
56208.8,40764.3
56175.2,40814.7
56152,40870.6
56140.2,40930
54980.7,40930
54973.9,40896
54937.4,40807.8
54884.3,40728.5
54816.8,40661
54737.4,40607.9
54649.2,40571.4
54555.6,40552.8
54460.1,40552.8
54366.5,40571.4
54278.3,40607.9
54198.9,40661
54131.4,40728.5
54078.4,40807.8
54077.2,40810.8
54077.2,40264
54078.4,40267
54131.4,40346.3
54198.9,40413.9
54278.3,40466.9
54366.5,40503.4
54460.1,40522
54555.6,40522
54649.2,40503.4
54737.4,40466.9
54816.8,40413.9
54884.3,40346.3
54937.4,40267
54973.9,40178.8
54992.5,40085.1
54992.5,39989.7
54973.9,39896
54937.4,39807.8
54884.3,39728.5
54816.8,39661
54737.4,39607.9
54649.2,39571.4
54555.6,39552.8
54460.1,39552.8
54366.5,39571.4
54278.3,39607.9
54198.9,39661
54131.4,39728.5
54078.4,39807.8
54077.2,39810.8
54077.2,39264
54078.4,39267
54131.4,39346.3
54198.9,39413.9
54278.3,39466.9
54366.5,39503.4
54460.1,39522
54555.6,39522
54649.2,39503.4
54737.4,39466.9
54816.8,39413.9
54884.3,39346.3
54937.4,39267
54973.9,39178.8
54988.6,39105
58290.2,39105
58290.2,39165.6
58302,39225
58325.2,39281
58358.8,39331.3
58401.6,39374.2
58452,39407.8
58507.9,39431
58567.4,39442.8
58627.9,39442.8
58687.3,39431
58743.3,39407.8
58793.6,39374.2
58836.5,39331.3
58870.1,39281
58893.3,39225
58905.1,39165.6
58905.1,39105
58893.3,39045.6
58870.1,38989.7
58836.5,38939.3
58793.6,38896.5
58743.3,38862.8
58687.3,38839.7
58627.9,38827.8
58567.4,38827.8
58507.9,38839.7
58452,38862.8
58401.6,38896.5
58358.8,38939.3
58325.2,38989.7
58302,39045.6
58290.2,39105
54988.6,39105
54992.5,39085.1
54992.5,38989.7
54973.9,38896
54937.4,38807.8
54884.3,38728.5
54816.8,38661
54737.4,38607.9
54649.2,38571.4
54555.6,38552.8
54460.1,38552.8
54366.5,38571.4
54278.3,38607.9
54198.9,38661
54131.4,38728.5
54078.4,38807.8
54077.2,38810.8
54077.2,38264
54078.4,38267
54131.4,38346.3
54198.9,38413.9
54278.3,38466.9
54366.5,38503.4
54460.1,38522
54555.6,38522
54649.2,38503.4
54737.4,38466.9
54816.8,38413.9
54884.3,38346.3
54937.4,38267
54973.6,38179.5
59225,38179.5
59225,38240.1
59236.8,38299.5
59260,38355.4
59293.6,38405.8
59336.5,38448.6
59386.8,38482.3
59442.8,38505.5
59502.2,38517.3
59562.8,38517.3
59622.2,38505.5
59678.1,38482.3
59728.5,38448.6
59771.3,38405.8
59805,38355.4
59828.1,38299.5
59840,38240.1
59840,38179.5
59828.1,38120.1
59805,38064.2
59771.3,38013.8
59728.5,37971
59678.1,37937.3
59622.2,37914.1
59562.8,37902.3
59502.2,37902.3
59442.8,37914.1
59386.8,37937.3
59336.5,37971
59293.6,38013.8
59260,38064.2
59236.8,38120.1
59225,38179.5
54973.6,38179.5
54973.9,38178.8
54992.5,38085.1
54992.5,37989.7
54973.9,37896
54937.4,37807.8
54884.3,37728.5
54816.8,37661
54737.4,37607.9
54649.2,37571.4
54555.6,37552.8
54460.1,37552.8
54366.5,37571.4
54278.3,37607.9
54198.9,37661
54131.4,37728.5
54078.4,37807.8
54077.2,37810.8
54077.2,37264
54078.4,37267
54131.4,37346.3
54198.9,37413.9
54278.3,37466.9
54366.5,37503.4
54460.1,37522
54555.6,37522
54649.2,37503.4
54737.4,37466.9
54816.8,37413.9
54884.3,37346.3
54937.4,37267
54973.4,37180
57630.2,37180
57630.2,37240.6
57642,37300
57665.2,37356
57698.8,37406.3
57741.6,37449.2
57792,37482.8
57847.9,37506
57907.4,37517.8
57967.9,37517.8
58027.3,37506
58083.3,37482.8
58133.6,37449.2
58176.5,37406.3
58210.1,37356
58233.3,37300
58245.1,37240.6
58245.1,37180
58233.3,37120.6
58210.1,37064.7
58176.5,37014.3
58133.6,36971.5
58083.3,36937.8
58027.3,36914.7
57967.9,36902.8
57907.4,36902.8
57847.9,36914.7
57792,36937.8
57741.6,36971.5
57698.8,37014.3
57665.2,37064.7
57642,37120.6
57630.2,37180
54973.4,37180
54973.9,37178.8
54992.5,37085.1
54992.5,36989.7
54973.9,36896
54937.4,36807.8
54884.3,36728.5
54816.8,36661
54737.4,36607.9
54649.2,36571.4
54555.6,36552.8
54460.1,36552.8
54366.5,36571.4
54278.3,36607.9
54198.9,36661
54131.4,36728.5
54078.4,36807.8
54077.2,36810.8
54077.2,36264
54078.4,36267
54131.4,36346.3
54198.9,36413.9
54278.3,36466.9
54366.5,36503.4
54460.1,36522
54555.6,36522
54649.2,36503.4
54737.4,36466.9
54816.8,36413.9
54884.3,36346.3
54937.4,36267
54955.1,36224
62280.2,36224
62280.2,36284.6
62292,36344
62315.2,36400
62348.8,36450.3
62391.6,36493.2
62442,36526.8
62497.9,36550
62557.4,36561.8
62617.9,36561.8
62677.3,36550
62733.3,36526.8
62783.6,36493.2
62826.5,36450.3
62860.1,36400
62883.3,36344
62895.1,36284.6
62895.1,36224
62883.3,36164.6
62860.1,36108.7
62826.5,36058.3
62783.6,36015.5
62733.3,35981.8
62677.3,35958.7
62617.9,35946.8
62557.4,35946.8
62497.9,35958.7
62442,35981.8
62391.6,36015.5
62348.8,36058.3
62315.2,36108.7
62292,36164.6
62280.2,36224
54955.1,36224
54973.9,36178.8
54992.5,36085.1
54992.5,35989.7
54973.9,35896
54937.4,35807.8
54884.3,35728.5
54816.8,35661
54737.4,35607.9
54649.2,35571.4
54555.6,35552.8
54460.1,35552.8
54366.5,35571.4
54278.3,35607.9
54198.9,35661
54131.4,35728.5
54078.4,35807.8
54077.2,35810.8
54077.2,35264
54078.4,35267
54131.4,35346.3
54198.9,35413.9
54278.3,35466.9
54366.5,35503.4
54460.1,35522
54555.6,35522
54649.2,35503.4
54737.4,35466.9
54816.8,35413.9
54884.3,35346.3
54937.4,35267
54973.9,35178.8
54992.5,35085.1
54992.5,34989.7
54973.9,34896
54937.4,34807.8
54884.3,34728.5
54816.8,34661
54737.4,34607.9
54649.2,34571.4
54555.6,34552.8
54460.1,34552.8
54366.5,34571.4
54278.3,34607.9
54198.9,34661
54131.4,34728.5
54078.4,34807.8
54077.2,34810.8
54077.2,34264
54078.4,34267
54131.4,34346.3
54198.9,34413.9
54278.3,34466.9
54366.5,34503.4
54460.1,34522
54555.6,34522
54649.2,34503.4
54664.7,34497
56227.2,34497
56227.2,34557.6
56239,34617
56262.2,34673
56295.8,34723.3
56338.6,34766.2
56389,34799.8
56444.9,34823
56504.4,34834.8
56564.9,34834.8
56624.3,34823
56680.3,34799.8
56730.6,34766.2
56773.5,34723.3
56807.1,34673
56830.3,34617
56842.1,34557.6
56842.1,34497
56830.3,34437.6
56807.1,34381.7
56773.5,34331.3
56730.6,34288.5
56680.3,34254.8
56624.3,34231.7
56617.1,34230.2
56628.3,34228
56684.3,34204.8
56734.6,34171.2
56777.5,34128.3
56811.1,34078
56834.3,34022
56846.1,33962.6
56846.1,33902
56845.9,33901
57062.8,33901
57062.8,33961.6
57074.6,34021
57097.7,34077
57131.4,34127.3
57174.2,34170.2
57224.6,34203.8
57280.5,34227
57339.9,34238.8
57400.5,34238.8
57459.9,34227
57515.9,34203.8
57566.2,34170.2
57609.1,34127.3
57642.7,34077
57665.9,34021
57677.7,33961.6
57677.7,33901
57674.7,33886
61552.2,33886
61552.2,33946.6
61564,34006
61587.2,34062
61620.8,34112.3
61663.6,34155.2
61714,34188.8
61769.9,34212
61809.8,34219.9
61770.9,34227.7
61715,34250.8
61664.6,34284.5
61621.8,34327.3
61588.2,34377.7
61565,34433.6
61553.2,34493
61553.2,34553.6
61565,34613
61588.2,34669
61621.8,34719.3
61664.6,34762.2
61715,34795.8
61767.6,34817.6
61714,34839.8
61663.6,34873.5
61620.8,34916.3
61587.2,34966.7
61564,35022.6
61552.2,35082
61552.2,35142.6
61564,35202
61587.2,35258
61620.8,35308.3
61663.6,35351.2
61714,35384.8
61769.9,35408
61829.4,35419.8
61889.9,35419.8
61949.3,35408
62005.3,35384.8
62055.6,35351.2
62098.5,35308.3
62132.1,35258
62155.3,35202
62167.1,35142.6
62167.1,35082
62155.3,35022.6
62132.1,34966.7
62098.5,34916.3
62055.6,34873.5
62005.3,34839.8
61952.6,34818
62006.3,34795.8
62056.6,34762.2
62099.5,34719.3
62133.1,34669
62156.3,34613
62168.1,34553.6
62168.1,34493
62156.3,34433.6
62133.1,34377.7
62099.5,34327.3
62056.6,34284.5
62006.3,34250.8
61950.3,34227.7
61910.4,34219.7
61949.3,34212
62005.3,34188.8
62055.6,34155.2
62098.5,34112.3
62132.1,34062
62155.3,34006
62167.1,33946.6
62167.1,33886
62155.3,33826.6
62132.1,33770.7
62098.5,33720.3
62055.6,33677.5
62005.3,33643.8
61979.9,33633.3
62017.3,33617.8
62067.6,33584.2
62110.5,33541.3
62144.1,33491
62167.3,33435
62179.1,33375.6
62179.1,33315
62167.3,33255.6
62144.1,33199.7
62110.5,33149.3
62067.6,33106.5
62017.3,33072.8
61961.3,33049.7
61901.9,33037.8
61841.4,33037.8
61781.9,33049.7
61726,33072.8
61675.6,33106.5
61632.8,33149.3
61599.2,33199.7
61576,33255.6
61564.2,33315
61564.2,33375.6
61576,33435
61599.2,33491
61632.8,33541.3
61675.6,33584.2
61726,33617.8
61751.4,33628.3
61714,33643.8
61663.6,33677.5
61620.8,33720.3
61587.2,33770.7
61564,33826.6
61552.2,33886
57674.7,33886
57665.9,33841.6
57642.7,33785.7
57609.1,33735.3
57566.2,33692.5
57515.9,33658.8
57459.9,33635.7
57400.5,33623.8
57339.9,33623.8
57280.5,33635.7
57224.6,33658.8
57174.2,33692.5
57131.4,33735.3
57097.7,33785.7
57074.6,33841.6
57062.8,33901
56845.9,33901
56834.3,33842.6
56811.1,33786.7
56777.5,33736.3
56734.6,33693.5
56684.3,33659.8
56646.6,33644.2
56686.3,33627.8
56736.6,33594.2
56779.5,33551.3
56813.1,33501
56836.3,33445
56848.1,33385.6
56848.1,33325
56836.3,33265.6
56813.1,33209.7
56779.5,33159.3
56736.6,33116.5
56686.3,33082.8
56630.3,33059.7
56570.9,33047.8
56510.4,33047.8
56450.9,33059.7
56395,33082.8
56344.6,33116.5
56301.8,33159.3
56268.2,33209.7
56245,33265.6
56233.2,33325
56233.2,33385.6
56245,33445
56268.2,33501
56301.8,33551.3
56344.6,33594.2
56395,33627.8
56432.7,33643.4
56393,33659.8
56342.6,33693.5
56299.8,33736.3
56266.2,33786.7
56243,33842.6
56231.2,33902
56231.2,33962.6
56243,34022
56266.2,34078
56299.8,34128.3
56342.6,34171.2
56393,34204.8
56448.9,34228
56456.2,34229.4
56444.9,34231.7
56389,34254.8
56338.6,34288.5
56295.8,34331.3
56262.2,34381.7
56239,34437.6
56227.2,34497
54664.7,34497
54737.4,34466.9
54816.8,34413.9
54884.3,34346.3
54937.4,34267
54973.9,34178.8
54992.5,34085.1
54992.5,33989.7
54973.9,33896
54937.4,33807.8
54884.3,33728.5
54816.8,33661
54737.4,33607.9
54649.2,33571.4
54555.6,33552.8
54460.1,33552.8
54366.5,33571.4
54278.3,33607.9
54198.9,33661
54131.4,33728.5
54078.4,33807.8
54077.2,33810.8
54077.2,33264
54078.4,33267
54131.4,33346.3
54198.9,33413.9
54278.3,33466.9
54366.5,33503.4
54460.1,33522
54555.6,33522
54649.2,33503.4
54737.4,33466.9
54816.8,33413.9
54884.3,33346.3
54937.4,33267
54973.9,33178.8
54992.5,33085.1
54992.5,32989.7
54973.9,32896
54937.4,32807.8
54884.3,32728.5
54816.8,32661
54737.4,32607.9
54649.2,32571.4
54555.6,32552.8
54460.1,32552.8
54366.5,32571.4
54278.3,32607.9
54198.9,32661
54131.4,32728.5
54078.4,32807.8
54077.2,32810.8
54077.2,32264
54078.4,32267
54131.4,32346.3
54198.9,32413.9
54278.3,32466.9
54366.5,32503.4
54460.1,32522
54555.6,32522
54649.2,32503.4
54737.4,32466.9
54816.8,32413.9
54884.3,32346.3
54937.4,32267
54973.9,32178.8
54992.5,32085.1
54992.5,31989.7
54973.9,31896
54937.4,31807.8
54884.3,31728.5
54816.8,31661
54737.4,31607.9
54649.2,31571.4
54555.6,31552.8
54460.1,31552.8
54366.5,31571.4
54278.3,31607.9
54198.9,31661
54131.4,31728.5
54078.4,31807.8
54077.2,31810.8
54077.2,31264
54078.4,31267
54131.4,31346.3
54198.9,31413.9
54278.3,31466.9
54366.5,31503.4
54460.1,31522
54555.6,31522
54649.2,31503.4
54737.4,31466.9
54816.8,31413.9
54884.3,31346.3
54937.4,31267
54973.9,31178.8
54992.5,31085.1
54992.5,30989.7
54973.9,30896
54937.4,30807.8
54884.3,30728.5
54816.8,30661
54737.4,30607.9
54649.2,30571.4
54555.6,30552.8
54460.1,30552.8
54366.5,30571.4
54278.3,30607.9
54198.9,30661
54131.4,30728.5
54078.4,30807.8
54077.2,30810.8
54077.2,30264
54078.4,30267
54131.4,30346.3
54198.9,30413.9
54278.3,30466.9
54366.5,30503.4
54460.1,30522
54555.6,30522
54649.2,30503.4
54737.4,30466.9
54816.8,30413.9
54884.3,30346.3
54937.4,30267
54973.9,30178.8
54992.5,30085.1
54992.5,29989.7
54973.9,29896
54937.4,29807.8
54884.3,29728.5
54816.8,29661
54737.4,29607.9
54649.2,29571.4
54555.6,29552.8
54460.1,29552.8
54366.5,29571.4
54278.3,29607.9
54198.9,29661
54131.4,29728.5
54078.4,29807.8
54077.2,29810.8
54077.2,29264
54078.4,29267
54131.4,29346.3
54198.9,29413.9
54278.3,29466.9
54366.5,29503.4
54460.1,29522
54555.6,29522
54649.2,29503.4
54737.4,29466.9
54816.8,29413.9
54884.3,29346.3
54937.4,29267
54973.9,29178.8
54992.5,29085.1
54992.5,29066.7
57666.8,29066.7
57666.8,29127.3
57678.6,29186.7
57701.8,29242.6
57735.5,29293
57778.3,29335.8
57828.6,29369.5
57883.7,29392.2
57828.6,29415
57778.3,29448.7
57735.5,29491.5
57701.8,29541.9
57678.6,29597.8
57666.8,29657.2
57666.8,29717.8
57678.6,29777.2
57701.8,29833.2
57735.5,29883.5
57778.3,29926.4
57828.6,29960
57883.7,29982.8
57828.6,30005.6
57778.3,30039.2
57735.5,30082.1
57701.8,30132.4
57678.6,30188.4
57666.8,30247.8
57666.8,30308.4
57678.6,30367.8
57701.8,30423.7
57735.5,30474.1
57778.3,30516.9
57828.6,30550.6
57883.7,30573.3
57828.6,30596.1
57778.3,30629.8
57735.5,30672.6
57701.8,30723
57678.6,30778.9
57666.8,30838.3
57666.8,30898.9
57678.6,30958.3
57701.8,31014.3
57735.5,31064.6
57778.3,31107.5
57828.6,31141.1
57884.6,31164.3
57944,31176.1
58004.6,31176.1
58064,31164.3
58119.9,31141.1
58170.3,31107.5
58213.1,31064.6
58246.8,31014.3
58269.6,30959.2
58292.4,31014.3
58326,31064.6
58368.8,31107.5
58419.2,31141.1
58475.2,31164.3
58534.6,31176.1
58595.1,31176.1
58654.5,31164.3
58710.5,31141.1
58760.8,31107.5
58803.7,31064.6
58837.3,31014.3
58860.1,30959.2
58882.9,31014.3
58916.6,31064.6
58959.4,31107.5
59009.7,31141.1
59065.7,31164.3
59125.1,31176.1
59185.7,31176.1
59245.1,31164.3
59301,31141.1
59351.4,31107.5
59394.2,31064.6
59427.9,31014.3
59450.7,30959.2
59473.5,31014.3
59507.1,31064.6
59549.9,31107.5
59600.3,31141.1
59656.3,31164.3
59715.7,31176.1
59776.2,31176.1
59835.6,31164.3
59891.6,31141.1
59942,31107.5
59984.8,31064.6
60018.4,31014.3
60041.6,30958.3
60053.4,30898.9
60053.4,30838.3
60041.6,30778.9
60018.4,30723
59984.8,30672.6
59942,30629.8
59891.6,30596.1
59836.6,30573.3
59891.6,30550.6
59942,30516.9
59984.8,30474.1
60018.4,30423.7
60041.6,30367.8
60053.4,30308.4
60053.4,30247.8
60041.6,30188.4
60018.4,30132.4
59984.8,30082.1
59942,30039.2
59891.6,30005.6
59836.6,29982.8
59891.6,29960
59942,29926.4
59984.8,29883.5
60018.4,29833.2
60041.6,29777.2
60044,29765
61572.2,29765
61572.2,29825.6
61584,29885
61607.2,29941
61640.8,29991.3
61683.6,30034.2
61734,30067.8
61789.9,30091
61849.4,30102.8
61909.9,30102.8
61969.3,30091
62025.3,30067.8
62075.6,30034.2
62118.5,29991.3
62152.1,29941
62175.3,29885
62187.1,29825.6
62187.1,29765
62175.3,29705.6
62152.1,29649.7
62118.5,29599.3
62075.6,29556.5
62025.3,29522.8
61969.3,29499.7
61964.6,29498.7
61973.3,29497
62029.3,29473.8
62079.6,29440.2
62122.5,29397.3
62156.1,29347
62179.3,29291
62191.1,29231.6
62191.1,29171
62179.3,29111.6
62156.1,29055.7
62122.5,29005.3
62079.6,28962.5
62029.3,28928.8
61973.3,28905.7
61913.9,28893.8
61853.4,28893.8
61793.9,28905.7
61738,28928.8
61687.6,28962.5
61644.8,29005.3
61611.2,29055.7
61588,29111.6
61576.2,29171
61576.2,29231.6
61588,29291
61611.2,29347
61644.8,29397.3
61687.6,29440.2
61738,29473.8
61793.9,29497
61798.7,29497.9
61789.9,29499.7
61734,29522.8
61683.6,29556.5
61640.8,29599.3
61607.2,29649.7
61584,29705.6
61572.2,29765
60044,29765
60053.4,29717.8
60053.4,29657.2
60041.6,29597.8
60018.4,29541.9
59984.8,29491.5
59942,29448.7
59891.6,29415
59836.6,29392.2
59891.6,29369.5
59942,29335.8
59984.8,29293
60018.4,29242.6
60041.6,29186.7
60053.4,29127.3
60053.4,29066.7
60041.6,29007.3
60018.4,28951.3
59984.8,28901
59942,28858.1
59891.6,28824.5
59835.6,28801.3
59776.2,28789.5
59715.7,28789.5
59656.3,28801.3
59600.3,28824.5
59549.9,28858.1
59507.1,28901
59473.5,28951.3
59450.7,29006.3
59427.9,28951.3
59394.2,28901
59351.4,28858.1
59301,28824.5
59245.1,28801.3
59185.7,28789.5
59125.1,28789.5
59065.7,28801.3
59009.7,28824.5
58959.4,28858.1
58916.6,28901
58882.9,28951.3
58860.1,29006.3
58837.3,28951.3
58803.7,28901
58760.8,28858.1
58710.5,28824.5
58654.5,28801.3
58595.1,28789.5
58534.6,28789.5
58475.2,28801.3
58419.2,28824.5
58368.8,28858.1
58326,28901
58292.4,28951.3
58269.6,29006.3
58246.8,28951.3
58213.1,28901
58170.3,28858.1
58119.9,28824.5
58064,28801.3
58004.6,28789.5
57944,28789.5
57884.6,28801.3
57828.6,28824.5
57778.3,28858.1
57735.5,28901
57701.8,28951.3
57678.6,29007.3
57666.8,29066.7
54992.5,29066.7
54992.5,28989.7
54973.9,28896
54937.4,28807.8
54884.3,28728.5
54816.8,28661
54737.4,28607.9
54649.2,28571.4
54555.6,28552.8
54460.1,28552.8
54366.5,28571.4
54278.3,28607.9
54198.9,28661
54131.4,28728.5
54078.4,28807.8
54077.2,28810.8
54077.2,28050
56256.2,28050
56256.2,28110.6
56268,28170
56291.2,28226
56324.8,28276.3
56367.6,28319.2
56418,28352.8
56474,28376
56533.4,28387.8
56593.9,28387.8
56653.3,28376
56709.3,28352.8
56759.6,28319.2
56802.5,28276.3
56836.1,28226
56859.3,28170
56871.1,28110.6
56871.1,28050
56859.3,27990.6
56836.1,27934.7
56802.5,27884.3
56759.6,27841.5
56709.3,27807.8
56653.3,27784.7
56593.9,27772.8
56533.4,27772.8
56474,27784.7
56418,27807.8
56367.6,27841.5
56324.8,27884.3
56291.2,27934.7
56268,27990.6
56256.2,28050
54077.2,28050
54077.2,27487.3
54089.5,27497.4
54115.5,27511.3
54143.8,27519.9
54173.2,27522.8
54842.5,27522.8
54871.9,27519.9
54900.2,27511.3
54926.3,27497.4
54949.1,27478.6
54967.8,27455.8
54981.8,27429.7
54989.9,27403
61559.2,27403
61559.2,27463.6
61571,27523
61594.2,27579
61627.8,27629.3
61670.6,27672.2
61721,27705.8
61776.9,27729
61836.4,27740.8
61896.9,27740.8
61956.3,27729
62012.3,27705.8
62062.6,27672.2
62105.5,27629.3
62139.1,27579
62162.3,27523
62174.1,27463.6
62174.1,27403
62162.3,27343.6
62139.1,27287.7
62105.5,27237.3
62062.6,27194.5
62012.3,27160.8
61956.3,27137.7
61896.9,27125.8
61836.4,27125.8
61776.9,27137.7
61721,27160.8
61670.6,27194.5
61627.8,27237.3
61594.2,27287.7
61571,27343.6
61559.2,27403
54989.9,27403
54990.3,27401.5
54993.2,27372
54993.2,26702.8
54990.3,26673.4
54981.8,26645.1
54967.8,26619
54949.1,26596.2
54926.3,26577.4
54911,26569.3
56449.7,26569.3
Z" /> 
</g>
</g> 
</svg>
