%FSLAX45Y45*%
G04 Gerber Fmt 4.5, Leading zero omitted, Abs format (unit mm)*
G04 Created by KiCad (PCBNEW 5.1.5+dfsg1-2build2) date 2021-06-10 16:32:59*
%MOMM*%
%LPD*%
G04 APERTURE LIST*
%TA.AperFunction,Profile*%
%ADD10C,0.050000*%
%TD*%
%ADD11C,0.200000*%
%ADD12C,0.300000*%
G04 APERTURE END LIST*
D10*
X13695000Y-13400000D02*
X13695000Y-6858000D01*
X16337000Y-13551000D02*
X13845000Y-13550000D01*
X16487000Y-6858000D02*
X16487000Y-13401000D01*
X13845000Y-6708000D02*
X16337000Y-6708000D01*
X16487000Y-13401000D02*
G75*
G02X16337000Y-13551000I-150000J0D01*
G01*
X13845000Y-13550000D02*
G75*
G02X13695000Y-13400000I0J150000D01*
G01*
X13695000Y-6858000D02*
G75*
G02X13845000Y-6708000I150000J0D01*
G01*
X16337000Y-6708000D02*
G75*
G02X16487000Y-6858000I0J-150000D01*
G01*
D11*
X14266380Y-12680880D02*
X14336380Y-12750880D01*
X14336380Y-12680880D02*
X14266380Y-12750880D01*
X14266380Y-13258880D02*
X14336380Y-13328880D01*
X14336380Y-13258880D02*
X14266380Y-13328880D01*
D12*
X13978928Y-14019214D02*
X13978928Y-13719214D01*
X14050357Y-13719214D01*
X14093214Y-13733500D01*
X14121786Y-13762071D01*
X14136071Y-13790643D01*
X14150357Y-13847786D01*
X14150357Y-13890643D01*
X14136071Y-13947786D01*
X14121786Y-13976357D01*
X14093214Y-14004929D01*
X14050357Y-14019214D01*
X13978928Y-14019214D01*
X14278928Y-14019214D02*
X14278928Y-13819214D01*
X14278928Y-13876357D02*
X14293214Y-13847786D01*
X14307500Y-13833500D01*
X14336071Y-13819214D01*
X14364643Y-13819214D01*
X14464643Y-14019214D02*
X14464643Y-13819214D01*
X14464643Y-13719214D02*
X14450357Y-13733500D01*
X14464643Y-13747786D01*
X14478928Y-13733500D01*
X14464643Y-13719214D01*
X14464643Y-13747786D01*
X14650357Y-14019214D02*
X14621786Y-14004929D01*
X14607500Y-13976357D01*
X14607500Y-13719214D01*
X14807500Y-14019214D02*
X14778928Y-14004929D01*
X14764643Y-13976357D01*
X14764643Y-13719214D01*
X15150357Y-14019214D02*
X15150357Y-13719214D01*
X15250357Y-13933500D01*
X15350357Y-13719214D01*
X15350357Y-14019214D01*
X15621786Y-14019214D02*
X15621786Y-13862071D01*
X15607500Y-13833500D01*
X15578928Y-13819214D01*
X15521786Y-13819214D01*
X15493214Y-13833500D01*
X15621786Y-14004929D02*
X15593214Y-14019214D01*
X15521786Y-14019214D01*
X15493214Y-14004929D01*
X15478928Y-13976357D01*
X15478928Y-13947786D01*
X15493214Y-13919214D01*
X15521786Y-13904929D01*
X15593214Y-13904929D01*
X15621786Y-13890643D01*
X15764643Y-13819214D02*
X15764643Y-14119214D01*
X15764643Y-13833500D02*
X15793214Y-13819214D01*
X15850357Y-13819214D01*
X15878928Y-13833500D01*
X15893214Y-13847786D01*
X15907500Y-13876357D01*
X15907500Y-13962071D01*
X15893214Y-13990643D01*
X15878928Y-14004929D01*
X15850357Y-14019214D01*
X15793214Y-14019214D01*
X15764643Y-14004929D01*
X16036071Y-13990643D02*
X16050357Y-14004929D01*
X16036071Y-14019214D01*
X16021786Y-14004929D01*
X16036071Y-13990643D01*
X16036071Y-14019214D01*
X16036071Y-13833500D02*
X16050357Y-13847786D01*
X16036071Y-13862071D01*
X16021786Y-13847786D01*
X16036071Y-13833500D01*
X16036071Y-13862071D01*
X13622500Y-14478500D02*
X13692500Y-14548500D01*
X13692500Y-14478500D02*
X13622500Y-14548500D01*
X14036071Y-14349214D02*
X14064643Y-14349214D01*
X14093214Y-14363500D01*
X14107500Y-14377786D01*
X14121786Y-14406357D01*
X14136071Y-14463500D01*
X14136071Y-14534929D01*
X14121786Y-14592071D01*
X14107500Y-14620643D01*
X14093214Y-14634929D01*
X14064643Y-14649214D01*
X14036071Y-14649214D01*
X14007500Y-14634929D01*
X13993214Y-14620643D01*
X13978928Y-14592071D01*
X13964643Y-14534929D01*
X13964643Y-14463500D01*
X13978928Y-14406357D01*
X13993214Y-14377786D01*
X14007500Y-14363500D01*
X14036071Y-14349214D01*
X14264643Y-14620643D02*
X14278928Y-14634929D01*
X14264643Y-14649214D01*
X14250357Y-14634929D01*
X14264643Y-14620643D01*
X14264643Y-14649214D01*
X14378928Y-14349214D02*
X14578928Y-14349214D01*
X14450357Y-14649214D01*
X14750357Y-14349214D02*
X14778928Y-14349214D01*
X14807500Y-14363500D01*
X14821786Y-14377786D01*
X14836071Y-14406357D01*
X14850357Y-14463500D01*
X14850357Y-14534929D01*
X14836071Y-14592071D01*
X14821786Y-14620643D01*
X14807500Y-14634929D01*
X14778928Y-14649214D01*
X14750357Y-14649214D01*
X14721786Y-14634929D01*
X14707500Y-14620643D01*
X14693214Y-14592071D01*
X14678928Y-14534929D01*
X14678928Y-14463500D01*
X14693214Y-14406357D01*
X14707500Y-14377786D01*
X14721786Y-14363500D01*
X14750357Y-14349214D01*
X14978928Y-14649214D02*
X14978928Y-14449214D01*
X14978928Y-14477786D02*
X14993214Y-14463500D01*
X15021786Y-14449214D01*
X15064643Y-14449214D01*
X15093214Y-14463500D01*
X15107500Y-14492071D01*
X15107500Y-14649214D01*
X15107500Y-14492071D02*
X15121786Y-14463500D01*
X15150357Y-14449214D01*
X15193214Y-14449214D01*
X15221786Y-14463500D01*
X15236071Y-14492071D01*
X15236071Y-14649214D01*
X15378928Y-14649214D02*
X15378928Y-14449214D01*
X15378928Y-14477786D02*
X15393214Y-14463500D01*
X15421786Y-14449214D01*
X15464643Y-14449214D01*
X15493214Y-14463500D01*
X15507500Y-14492071D01*
X15507500Y-14649214D01*
X15507500Y-14492071D02*
X15521786Y-14463500D01*
X15550357Y-14449214D01*
X15593214Y-14449214D01*
X15621786Y-14463500D01*
X15636071Y-14492071D01*
X15636071Y-14649214D01*
X16221786Y-14334929D02*
X15964643Y-14720643D01*
X16607500Y-14349214D02*
X16636071Y-14349214D01*
X16664643Y-14363500D01*
X16678928Y-14377786D01*
X16693214Y-14406357D01*
X16707500Y-14463500D01*
X16707500Y-14534929D01*
X16693214Y-14592071D01*
X16678928Y-14620643D01*
X16664643Y-14634929D01*
X16636071Y-14649214D01*
X16607500Y-14649214D01*
X16578928Y-14634929D01*
X16564643Y-14620643D01*
X16550357Y-14592071D01*
X16536071Y-14534929D01*
X16536071Y-14463500D01*
X16550357Y-14406357D01*
X16564643Y-14377786D01*
X16578928Y-14363500D01*
X16607500Y-14349214D01*
X16836071Y-14620643D02*
X16850357Y-14634929D01*
X16836071Y-14649214D01*
X16821786Y-14634929D01*
X16836071Y-14620643D01*
X16836071Y-14649214D01*
X17036071Y-14349214D02*
X17064643Y-14349214D01*
X17093214Y-14363500D01*
X17107500Y-14377786D01*
X17121786Y-14406357D01*
X17136071Y-14463500D01*
X17136071Y-14534929D01*
X17121786Y-14592071D01*
X17107500Y-14620643D01*
X17093214Y-14634929D01*
X17064643Y-14649214D01*
X17036071Y-14649214D01*
X17007500Y-14634929D01*
X16993214Y-14620643D01*
X16978928Y-14592071D01*
X16964643Y-14534929D01*
X16964643Y-14463500D01*
X16978928Y-14406357D01*
X16993214Y-14377786D01*
X17007500Y-14363500D01*
X17036071Y-14349214D01*
X17250357Y-14377786D02*
X17264643Y-14363500D01*
X17293214Y-14349214D01*
X17364643Y-14349214D01*
X17393214Y-14363500D01*
X17407500Y-14377786D01*
X17421786Y-14406357D01*
X17421786Y-14434929D01*
X17407500Y-14477786D01*
X17236071Y-14649214D01*
X17421786Y-14649214D01*
X17593214Y-14477786D02*
X17564643Y-14463500D01*
X17550357Y-14449214D01*
X17536071Y-14420643D01*
X17536071Y-14406357D01*
X17550357Y-14377786D01*
X17564643Y-14363500D01*
X17593214Y-14349214D01*
X17650357Y-14349214D01*
X17678928Y-14363500D01*
X17693214Y-14377786D01*
X17707500Y-14406357D01*
X17707500Y-14420643D01*
X17693214Y-14449214D01*
X17678928Y-14463500D01*
X17650357Y-14477786D01*
X17593214Y-14477786D01*
X17564643Y-14492071D01*
X17550357Y-14506357D01*
X17536071Y-14534929D01*
X17536071Y-14592071D01*
X17550357Y-14620643D01*
X17564643Y-14634929D01*
X17593214Y-14649214D01*
X17650357Y-14649214D01*
X17678928Y-14634929D01*
X17693214Y-14620643D01*
X17707500Y-14592071D01*
X17707500Y-14534929D01*
X17693214Y-14506357D01*
X17678928Y-14492071D01*
X17650357Y-14477786D01*
X17821786Y-14349214D02*
X17821786Y-14406357D01*
X17936071Y-14349214D02*
X17936071Y-14406357D01*
X18378928Y-14763500D02*
X18364643Y-14749214D01*
X18336071Y-14706357D01*
X18321786Y-14677786D01*
X18307500Y-14634929D01*
X18293214Y-14563500D01*
X18293214Y-14506357D01*
X18307500Y-14434929D01*
X18321786Y-14392071D01*
X18336071Y-14363500D01*
X18364643Y-14320643D01*
X18378928Y-14306357D01*
X18478928Y-14377786D02*
X18493214Y-14363500D01*
X18521786Y-14349214D01*
X18593214Y-14349214D01*
X18621786Y-14363500D01*
X18636071Y-14377786D01*
X18650357Y-14406357D01*
X18650357Y-14434929D01*
X18636071Y-14477786D01*
X18464643Y-14649214D01*
X18650357Y-14649214D01*
X19007500Y-14649214D02*
X19007500Y-14349214D01*
X19136071Y-14649214D02*
X19136071Y-14492071D01*
X19121786Y-14463500D01*
X19093214Y-14449214D01*
X19050357Y-14449214D01*
X19021786Y-14463500D01*
X19007500Y-14477786D01*
X19321786Y-14649214D02*
X19293214Y-14634929D01*
X19278928Y-14620643D01*
X19264643Y-14592071D01*
X19264643Y-14506357D01*
X19278928Y-14477786D01*
X19293214Y-14463500D01*
X19321786Y-14449214D01*
X19364643Y-14449214D01*
X19393214Y-14463500D01*
X19407500Y-14477786D01*
X19421786Y-14506357D01*
X19421786Y-14592071D01*
X19407500Y-14620643D01*
X19393214Y-14634929D01*
X19364643Y-14649214D01*
X19321786Y-14649214D01*
X19593214Y-14649214D02*
X19564643Y-14634929D01*
X19550357Y-14606357D01*
X19550357Y-14349214D01*
X19821786Y-14634929D02*
X19793214Y-14649214D01*
X19736071Y-14649214D01*
X19707500Y-14634929D01*
X19693214Y-14606357D01*
X19693214Y-14492071D01*
X19707500Y-14463500D01*
X19736071Y-14449214D01*
X19793214Y-14449214D01*
X19821786Y-14463500D01*
X19836071Y-14492071D01*
X19836071Y-14520643D01*
X19693214Y-14549214D01*
X19950357Y-14634929D02*
X19978928Y-14649214D01*
X20036071Y-14649214D01*
X20064643Y-14634929D01*
X20078928Y-14606357D01*
X20078928Y-14592071D01*
X20064643Y-14563500D01*
X20036071Y-14549214D01*
X19993214Y-14549214D01*
X19964643Y-14534929D01*
X19950357Y-14506357D01*
X19950357Y-14492071D01*
X19964643Y-14463500D01*
X19993214Y-14449214D01*
X20036071Y-14449214D01*
X20064643Y-14463500D01*
X20178928Y-14763500D02*
X20193214Y-14749214D01*
X20221786Y-14706357D01*
X20236071Y-14677786D01*
X20250357Y-14634929D01*
X20264643Y-14563500D01*
X20264643Y-14506357D01*
X20250357Y-14434929D01*
X20236071Y-14392071D01*
X20221786Y-14363500D01*
X20193214Y-14320643D01*
X20178928Y-14306357D01*
X20721786Y-14763500D02*
X20707500Y-14749214D01*
X20678928Y-14706357D01*
X20664643Y-14677786D01*
X20650357Y-14634929D01*
X20636071Y-14563500D01*
X20636071Y-14506357D01*
X20650357Y-14434929D01*
X20664643Y-14392071D01*
X20678928Y-14363500D01*
X20707500Y-14320643D01*
X20721786Y-14306357D01*
X20836071Y-14449214D02*
X20836071Y-14649214D01*
X20836071Y-14477786D02*
X20850357Y-14463500D01*
X20878928Y-14449214D01*
X20921786Y-14449214D01*
X20950357Y-14463500D01*
X20964643Y-14492071D01*
X20964643Y-14649214D01*
X21150357Y-14649214D02*
X21121786Y-14634929D01*
X21107500Y-14620643D01*
X21093214Y-14592071D01*
X21093214Y-14506357D01*
X21107500Y-14477786D01*
X21121786Y-14463500D01*
X21150357Y-14449214D01*
X21193214Y-14449214D01*
X21221786Y-14463500D01*
X21236071Y-14477786D01*
X21250357Y-14506357D01*
X21250357Y-14592071D01*
X21236071Y-14620643D01*
X21221786Y-14634929D01*
X21193214Y-14649214D01*
X21150357Y-14649214D01*
X21336071Y-14449214D02*
X21450357Y-14449214D01*
X21378928Y-14349214D02*
X21378928Y-14606357D01*
X21393214Y-14634929D01*
X21421786Y-14649214D01*
X21450357Y-14649214D01*
X21778928Y-14449214D02*
X21778928Y-14749214D01*
X21778928Y-14463500D02*
X21807500Y-14449214D01*
X21864643Y-14449214D01*
X21893214Y-14463500D01*
X21907500Y-14477786D01*
X21921786Y-14506357D01*
X21921786Y-14592071D01*
X21907500Y-14620643D01*
X21893214Y-14634929D01*
X21864643Y-14649214D01*
X21807500Y-14649214D01*
X21778928Y-14634929D01*
X22093214Y-14649214D02*
X22064643Y-14634929D01*
X22050357Y-14606357D01*
X22050357Y-14349214D01*
X22336071Y-14649214D02*
X22336071Y-14492071D01*
X22321786Y-14463500D01*
X22293214Y-14449214D01*
X22236071Y-14449214D01*
X22207500Y-14463500D01*
X22336071Y-14634929D02*
X22307500Y-14649214D01*
X22236071Y-14649214D01*
X22207500Y-14634929D01*
X22193214Y-14606357D01*
X22193214Y-14577786D01*
X22207500Y-14549214D01*
X22236071Y-14534929D01*
X22307500Y-14534929D01*
X22336071Y-14520643D01*
X22436071Y-14449214D02*
X22550357Y-14449214D01*
X22478928Y-14349214D02*
X22478928Y-14606357D01*
X22493214Y-14634929D01*
X22521786Y-14649214D01*
X22550357Y-14649214D01*
X22764643Y-14634929D02*
X22736071Y-14649214D01*
X22678928Y-14649214D01*
X22650357Y-14634929D01*
X22636071Y-14606357D01*
X22636071Y-14492071D01*
X22650357Y-14463500D01*
X22678928Y-14449214D01*
X22736071Y-14449214D01*
X22764643Y-14463500D01*
X22778928Y-14492071D01*
X22778928Y-14520643D01*
X22636071Y-14549214D01*
X23036071Y-14649214D02*
X23036071Y-14349214D01*
X23036071Y-14634929D02*
X23007500Y-14649214D01*
X22950357Y-14649214D01*
X22921786Y-14634929D01*
X22907500Y-14620643D01*
X22893214Y-14592071D01*
X22893214Y-14506357D01*
X22907500Y-14477786D01*
X22921786Y-14463500D01*
X22950357Y-14449214D01*
X23007500Y-14449214D01*
X23036071Y-14463500D01*
X23150357Y-14763500D02*
X23164643Y-14749214D01*
X23193214Y-14706357D01*
X23207500Y-14677786D01*
X23221786Y-14634929D01*
X23236071Y-14563500D01*
X23236071Y-14506357D01*
X23221786Y-14434929D01*
X23207500Y-14392071D01*
X23193214Y-14363500D01*
X23164643Y-14320643D01*
X23150357Y-14306357D01*
M02*
