%TF.GenerationSoftware,KiCad,Pcbnew,5.1.5+dfsg1-2build2*%
%TF.CreationDate,2021-06-12T01:28:48+05:30*%
%TF.ProjectId,USBee32-S2,55534265-6533-4322-9d53-322e6b696361,rev?*%
%TF.SameCoordinates,Original*%
%TF.FileFunction,Copper,L3,Inr*%
%TF.FilePolarity,Positive*%
%FSLAX46Y46*%
G04 Gerber Fmt 4.6, Leading zero omitted, Abs format (unit mm)*
G04 Created by KiCad (PCBNEW 5.1.5+dfsg1-2build2) date 2021-06-12 01:28:48*
%MOMM*%
%LPD*%
G04 APERTURE LIST*
%ADD10O,2.100000X1.050000*%
%ADD11C,2.150000*%
%ADD12R,1.600000X1.600000*%
%ADD13C,1.600000*%
%ADD14O,1.700000X1.700000*%
%ADD15R,1.700000X1.700000*%
%ADD16C,0.800000*%
%ADD17C,0.254000*%
G04 APERTURE END LIST*
D10*
X139363800Y-134368800D03*
X139363800Y-125728800D03*
X143543800Y-134368800D03*
X143543800Y-125728800D03*
D11*
X157192400Y-133750600D03*
X157192400Y-126750600D03*
X162632400Y-126750600D03*
X162632400Y-133750600D03*
D12*
X159912400Y-133020600D03*
D13*
X159912400Y-131020600D03*
X159912400Y-129020600D03*
X159912400Y-127020600D03*
D14*
X163240000Y-122015000D03*
X163240000Y-119475000D03*
X163240000Y-116935000D03*
X163240000Y-114395000D03*
X163240000Y-111855000D03*
X163240000Y-109315000D03*
X163240000Y-106775000D03*
X163240000Y-104235000D03*
X163240000Y-101695000D03*
X163240000Y-99155000D03*
X163240000Y-96615000D03*
X163240000Y-94075000D03*
X163240000Y-91535000D03*
X163240000Y-88995000D03*
X163240000Y-86455000D03*
X163240000Y-83915000D03*
X163240000Y-81375000D03*
X163240000Y-78835000D03*
X163240000Y-76295000D03*
X163240000Y-73755000D03*
X163240000Y-71215000D03*
D15*
X163240000Y-68675000D03*
D14*
X138450000Y-111855000D03*
X138450000Y-109315000D03*
X138450000Y-106775000D03*
X138450000Y-104235000D03*
X138450000Y-101695000D03*
X138450000Y-99155000D03*
X138450000Y-96615000D03*
X138450000Y-94075000D03*
X138450000Y-91535000D03*
X138450000Y-88995000D03*
X138450000Y-86455000D03*
X138450000Y-83915000D03*
X138450000Y-81375000D03*
X138450000Y-78835000D03*
X138450000Y-76295000D03*
X138450000Y-73755000D03*
X138450000Y-71215000D03*
D15*
X138450000Y-68675000D03*
D16*
X147254700Y-73906300D03*
X148754700Y-73906300D03*
X150254700Y-73906300D03*
X151754700Y-73906300D03*
X147254700Y-75406300D03*
X148754700Y-75406300D03*
X150254700Y-75406300D03*
X151754700Y-75406300D03*
X147254700Y-76906300D03*
X148754700Y-76906300D03*
X150254700Y-76906300D03*
X151754700Y-76906300D03*
X147254700Y-78406300D03*
X148754700Y-78406300D03*
X150254700Y-78406300D03*
X151754700Y-78406300D03*
X149765100Y-133134900D03*
X152330500Y-133134900D03*
X153651300Y-127381800D03*
X140481400Y-116193100D03*
X157783314Y-109165486D03*
X138639900Y-122797100D03*
X143669100Y-68212500D03*
X149600000Y-104979000D03*
X140450920Y-120820980D03*
X153930700Y-122037640D03*
X148838000Y-99403700D03*
X146760280Y-106213440D03*
X140412820Y-113307660D03*
X146465081Y-115692720D03*
X148604320Y-125852720D03*
X158972600Y-92085960D03*
X155462320Y-103785200D03*
X146336100Y-118204780D03*
X151212500Y-97052900D03*
X147161600Y-94514200D03*
X143377000Y-104039200D03*
X157524800Y-100300320D03*
X157524800Y-98359760D03*
X157880400Y-110630500D03*
X157893100Y-112599000D03*
X140402660Y-111039440D03*
X150849680Y-93010520D03*
X151212500Y-99352900D03*
X147113340Y-99360520D03*
X143300800Y-94514200D03*
X157141260Y-69680620D03*
X143239522Y-106187722D03*
X143671644Y-71324000D03*
X143115380Y-118661980D03*
X157184440Y-74171340D03*
X152805480Y-106279480D03*
X157174280Y-75680100D03*
X151525320Y-106304880D03*
X143597980Y-87699380D03*
X143608140Y-86188080D03*
X143613220Y-84722500D03*
X145720390Y-86185540D03*
X145726500Y-123599740D03*
X148142040Y-119477320D03*
X158713520Y-119484940D03*
X157123482Y-89185280D03*
X157258100Y-107132920D03*
X157126020Y-87689220D03*
X157123480Y-86147440D03*
X157153960Y-84697100D03*
X152927400Y-114758000D03*
X150997000Y-114770700D03*
X148142040Y-120843840D03*
X145020380Y-110442540D03*
X144409902Y-122612665D03*
X141624409Y-129210600D03*
X144322941Y-109706217D03*
X144215200Y-119444300D03*
X154997500Y-122075740D03*
X156950300Y-121019100D03*
X150984068Y-122428800D03*
X146323400Y-120762560D03*
D17*
G36*
X147391053Y-119705129D02*
G01*
X147449927Y-119847262D01*
X147535398Y-119975179D01*
X147644181Y-120083962D01*
X147758848Y-120160580D01*
X147644181Y-120237198D01*
X147535398Y-120345981D01*
X147449927Y-120473898D01*
X147391053Y-120616031D01*
X147361040Y-120766918D01*
X147361040Y-120920762D01*
X147391053Y-121071649D01*
X147449927Y-121213782D01*
X147535398Y-121341699D01*
X147644181Y-121450482D01*
X147772098Y-121535953D01*
X147914231Y-121594827D01*
X148065118Y-121624840D01*
X148218962Y-121624840D01*
X148369849Y-121594827D01*
X148511982Y-121535953D01*
X148639899Y-121450482D01*
X148748682Y-121341699D01*
X148834153Y-121213782D01*
X148893027Y-121071649D01*
X148923040Y-120920762D01*
X148923040Y-120766918D01*
X148893027Y-120616031D01*
X148834153Y-120473898D01*
X148748682Y-120345981D01*
X148639899Y-120237198D01*
X148525232Y-120160580D01*
X148639899Y-120083962D01*
X148748682Y-119975179D01*
X148834153Y-119847262D01*
X148893027Y-119705129D01*
X148909037Y-119624640D01*
X157945007Y-119624640D01*
X157962533Y-119712749D01*
X158021407Y-119854882D01*
X158025180Y-119860529D01*
X158025180Y-123086660D01*
X146317921Y-123086660D01*
X146224359Y-122993098D01*
X146096442Y-122907627D01*
X145954309Y-122848753D01*
X145803422Y-122818740D01*
X145649578Y-122818740D01*
X145508060Y-122846889D01*
X145508060Y-121960718D01*
X153149700Y-121960718D01*
X153149700Y-122114562D01*
X153179713Y-122265449D01*
X153238587Y-122407582D01*
X153324058Y-122535499D01*
X153432841Y-122644282D01*
X153560758Y-122729753D01*
X153702891Y-122788627D01*
X153853778Y-122818640D01*
X154007622Y-122818640D01*
X154158509Y-122788627D01*
X154300642Y-122729753D01*
X154428559Y-122644282D01*
X154537342Y-122535499D01*
X154622813Y-122407582D01*
X154681687Y-122265449D01*
X154711700Y-122114562D01*
X154711700Y-121960718D01*
X154681687Y-121809831D01*
X154622813Y-121667698D01*
X154537342Y-121539781D01*
X154428559Y-121430998D01*
X154300642Y-121345527D01*
X154158509Y-121286653D01*
X154007622Y-121256640D01*
X153853778Y-121256640D01*
X153702891Y-121286653D01*
X153560758Y-121345527D01*
X153432841Y-121430998D01*
X153324058Y-121539781D01*
X153238587Y-121667698D01*
X153179713Y-121809831D01*
X153149700Y-121960718D01*
X145508060Y-121960718D01*
X145508060Y-119624640D01*
X147375043Y-119624640D01*
X147391053Y-119705129D01*
G37*
X147391053Y-119705129D02*
X147449927Y-119847262D01*
X147535398Y-119975179D01*
X147644181Y-120083962D01*
X147758848Y-120160580D01*
X147644181Y-120237198D01*
X147535398Y-120345981D01*
X147449927Y-120473898D01*
X147391053Y-120616031D01*
X147361040Y-120766918D01*
X147361040Y-120920762D01*
X147391053Y-121071649D01*
X147449927Y-121213782D01*
X147535398Y-121341699D01*
X147644181Y-121450482D01*
X147772098Y-121535953D01*
X147914231Y-121594827D01*
X148065118Y-121624840D01*
X148218962Y-121624840D01*
X148369849Y-121594827D01*
X148511982Y-121535953D01*
X148639899Y-121450482D01*
X148748682Y-121341699D01*
X148834153Y-121213782D01*
X148893027Y-121071649D01*
X148923040Y-120920762D01*
X148923040Y-120766918D01*
X148893027Y-120616031D01*
X148834153Y-120473898D01*
X148748682Y-120345981D01*
X148639899Y-120237198D01*
X148525232Y-120160580D01*
X148639899Y-120083962D01*
X148748682Y-119975179D01*
X148834153Y-119847262D01*
X148893027Y-119705129D01*
X148909037Y-119624640D01*
X157945007Y-119624640D01*
X157962533Y-119712749D01*
X158021407Y-119854882D01*
X158025180Y-119860529D01*
X158025180Y-123086660D01*
X146317921Y-123086660D01*
X146224359Y-122993098D01*
X146096442Y-122907627D01*
X145954309Y-122848753D01*
X145803422Y-122818740D01*
X145649578Y-122818740D01*
X145508060Y-122846889D01*
X145508060Y-121960718D01*
X153149700Y-121960718D01*
X153149700Y-122114562D01*
X153179713Y-122265449D01*
X153238587Y-122407582D01*
X153324058Y-122535499D01*
X153432841Y-122644282D01*
X153560758Y-122729753D01*
X153702891Y-122788627D01*
X153853778Y-122818640D01*
X154007622Y-122818640D01*
X154158509Y-122788627D01*
X154300642Y-122729753D01*
X154428559Y-122644282D01*
X154537342Y-122535499D01*
X154622813Y-122407582D01*
X154681687Y-122265449D01*
X154711700Y-122114562D01*
X154711700Y-121960718D01*
X154681687Y-121809831D01*
X154622813Y-121667698D01*
X154537342Y-121539781D01*
X154428559Y-121430998D01*
X154300642Y-121345527D01*
X154158509Y-121286653D01*
X154007622Y-121256640D01*
X153853778Y-121256640D01*
X153702891Y-121286653D01*
X153560758Y-121345527D01*
X153432841Y-121430998D01*
X153324058Y-121539781D01*
X153238587Y-121667698D01*
X153179713Y-121809831D01*
X153149700Y-121960718D01*
X145508060Y-121960718D01*
X145508060Y-119624640D01*
X147375043Y-119624640D01*
X147391053Y-119705129D01*
G36*
X143299158Y-67520387D02*
G01*
X143171241Y-67605858D01*
X143062458Y-67714641D01*
X142976987Y-67842558D01*
X142918113Y-67984691D01*
X142888100Y-68135578D01*
X142888100Y-68289422D01*
X142918113Y-68440309D01*
X142976987Y-68582442D01*
X143062458Y-68710359D01*
X143171241Y-68819142D01*
X143299158Y-68904613D01*
X143441291Y-68963487D01*
X143592178Y-68993500D01*
X143746022Y-68993500D01*
X143896909Y-68963487D01*
X144039042Y-68904613D01*
X144166959Y-68819142D01*
X144275742Y-68710359D01*
X144361213Y-68582442D01*
X144420087Y-68440309D01*
X144450100Y-68289422D01*
X144450100Y-68135578D01*
X144420087Y-67984691D01*
X144361213Y-67842558D01*
X144275742Y-67714641D01*
X144166959Y-67605858D01*
X144039042Y-67520387D01*
X143956025Y-67486000D01*
X162215989Y-67486000D01*
X162177304Y-67506678D01*
X162119289Y-67554289D01*
X162071678Y-67612304D01*
X162036299Y-67678492D01*
X162014513Y-67750311D01*
X162007157Y-67825000D01*
X162007157Y-69525000D01*
X162014513Y-69599689D01*
X162036299Y-69671508D01*
X162071678Y-69737696D01*
X162119289Y-69795711D01*
X162177304Y-69843322D01*
X162243492Y-69878701D01*
X162315311Y-69900487D01*
X162390000Y-69907843D01*
X164090000Y-69907843D01*
X164164689Y-69900487D01*
X164236508Y-69878701D01*
X164302696Y-69843322D01*
X164360711Y-69795711D01*
X164408322Y-69737696D01*
X164443701Y-69671508D01*
X164464000Y-69604591D01*
X164464000Y-71058566D01*
X164423693Y-70855931D01*
X164330898Y-70631903D01*
X164196180Y-70430283D01*
X164024717Y-70258820D01*
X163823097Y-70124102D01*
X163599069Y-70031307D01*
X163361243Y-69984000D01*
X163118757Y-69984000D01*
X162880931Y-70031307D01*
X162656903Y-70124102D01*
X162455283Y-70258820D01*
X162283820Y-70430283D01*
X162149102Y-70631903D01*
X162056307Y-70855931D01*
X162009000Y-71093757D01*
X162009000Y-71336243D01*
X162056307Y-71574069D01*
X162149102Y-71798097D01*
X162283820Y-71999717D01*
X162455283Y-72171180D01*
X162656903Y-72305898D01*
X162880931Y-72398693D01*
X163118757Y-72446000D01*
X163361243Y-72446000D01*
X163599069Y-72398693D01*
X163823097Y-72305898D01*
X164024717Y-72171180D01*
X164196180Y-71999717D01*
X164330898Y-71798097D01*
X164423693Y-71574069D01*
X164464000Y-71371434D01*
X164464000Y-73598566D01*
X164423693Y-73395931D01*
X164330898Y-73171903D01*
X164196180Y-72970283D01*
X164024717Y-72798820D01*
X163823097Y-72664102D01*
X163599069Y-72571307D01*
X163361243Y-72524000D01*
X163118757Y-72524000D01*
X162880931Y-72571307D01*
X162656903Y-72664102D01*
X162455283Y-72798820D01*
X162283820Y-72970283D01*
X162149102Y-73171903D01*
X162056307Y-73395931D01*
X162009000Y-73633757D01*
X162009000Y-73876243D01*
X162056307Y-74114069D01*
X162149102Y-74338097D01*
X162283820Y-74539717D01*
X162455283Y-74711180D01*
X162656903Y-74845898D01*
X162880931Y-74938693D01*
X163118757Y-74986000D01*
X163361243Y-74986000D01*
X163599069Y-74938693D01*
X163823097Y-74845898D01*
X164024717Y-74711180D01*
X164196180Y-74539717D01*
X164330898Y-74338097D01*
X164423693Y-74114069D01*
X164464000Y-73911434D01*
X164464000Y-76138567D01*
X164423693Y-75935931D01*
X164330898Y-75711903D01*
X164196180Y-75510283D01*
X164024717Y-75338820D01*
X163823097Y-75204102D01*
X163599069Y-75111307D01*
X163361243Y-75064000D01*
X163118757Y-75064000D01*
X162880931Y-75111307D01*
X162656903Y-75204102D01*
X162455283Y-75338820D01*
X162283820Y-75510283D01*
X162149102Y-75711903D01*
X162056307Y-75935931D01*
X162009000Y-76173757D01*
X162009000Y-76416243D01*
X162056307Y-76654069D01*
X162149102Y-76878097D01*
X162283820Y-77079717D01*
X162455283Y-77251180D01*
X162656903Y-77385898D01*
X162880931Y-77478693D01*
X163118757Y-77526000D01*
X163361243Y-77526000D01*
X163599069Y-77478693D01*
X163823097Y-77385898D01*
X164024717Y-77251180D01*
X164196180Y-77079717D01*
X164330898Y-76878097D01*
X164423693Y-76654069D01*
X164464000Y-76451433D01*
X164464000Y-78678567D01*
X164423693Y-78475931D01*
X164330898Y-78251903D01*
X164196180Y-78050283D01*
X164024717Y-77878820D01*
X163823097Y-77744102D01*
X163599069Y-77651307D01*
X163361243Y-77604000D01*
X163118757Y-77604000D01*
X162880931Y-77651307D01*
X162656903Y-77744102D01*
X162455283Y-77878820D01*
X162283820Y-78050283D01*
X162149102Y-78251903D01*
X162056307Y-78475931D01*
X162009000Y-78713757D01*
X162009000Y-78956243D01*
X162056307Y-79194069D01*
X162149102Y-79418097D01*
X162283820Y-79619717D01*
X162455283Y-79791180D01*
X162656903Y-79925898D01*
X162880931Y-80018693D01*
X163118757Y-80066000D01*
X163361243Y-80066000D01*
X163599069Y-80018693D01*
X163823097Y-79925898D01*
X164024717Y-79791180D01*
X164196180Y-79619717D01*
X164330898Y-79418097D01*
X164423693Y-79194069D01*
X164464000Y-78991433D01*
X164464000Y-81218567D01*
X164423693Y-81015931D01*
X164330898Y-80791903D01*
X164196180Y-80590283D01*
X164024717Y-80418820D01*
X163823097Y-80284102D01*
X163599069Y-80191307D01*
X163361243Y-80144000D01*
X163118757Y-80144000D01*
X162880931Y-80191307D01*
X162656903Y-80284102D01*
X162455283Y-80418820D01*
X162283820Y-80590283D01*
X162149102Y-80791903D01*
X162056307Y-81015931D01*
X162009000Y-81253757D01*
X162009000Y-81496243D01*
X162056307Y-81734069D01*
X162149102Y-81958097D01*
X162283820Y-82159717D01*
X162455283Y-82331180D01*
X162656903Y-82465898D01*
X162880931Y-82558693D01*
X163118757Y-82606000D01*
X163361243Y-82606000D01*
X163599069Y-82558693D01*
X163823097Y-82465898D01*
X164024717Y-82331180D01*
X164196180Y-82159717D01*
X164330898Y-81958097D01*
X164423693Y-81734069D01*
X164464000Y-81531433D01*
X164464000Y-83758567D01*
X164423693Y-83555931D01*
X164330898Y-83331903D01*
X164196180Y-83130283D01*
X164024717Y-82958820D01*
X163823097Y-82824102D01*
X163599069Y-82731307D01*
X163361243Y-82684000D01*
X163118757Y-82684000D01*
X162880931Y-82731307D01*
X162656903Y-82824102D01*
X162455283Y-82958820D01*
X162283820Y-83130283D01*
X162149102Y-83331903D01*
X162056307Y-83555931D01*
X162009000Y-83793757D01*
X162009000Y-84036243D01*
X162056307Y-84274069D01*
X162149102Y-84498097D01*
X162283820Y-84699717D01*
X162455283Y-84871180D01*
X162656903Y-85005898D01*
X162880931Y-85098693D01*
X163118757Y-85146000D01*
X163361243Y-85146000D01*
X163599069Y-85098693D01*
X163823097Y-85005898D01*
X164024717Y-84871180D01*
X164196180Y-84699717D01*
X164330898Y-84498097D01*
X164423693Y-84274069D01*
X164464000Y-84071433D01*
X164464000Y-86298567D01*
X164423693Y-86095931D01*
X164330898Y-85871903D01*
X164196180Y-85670283D01*
X164024717Y-85498820D01*
X163823097Y-85364102D01*
X163599069Y-85271307D01*
X163361243Y-85224000D01*
X163118757Y-85224000D01*
X162880931Y-85271307D01*
X162656903Y-85364102D01*
X162455283Y-85498820D01*
X162283820Y-85670283D01*
X162149102Y-85871903D01*
X162056307Y-86095931D01*
X162009000Y-86333757D01*
X162009000Y-86576243D01*
X162056307Y-86814069D01*
X162149102Y-87038097D01*
X162283820Y-87239717D01*
X162455283Y-87411180D01*
X162656903Y-87545898D01*
X162880931Y-87638693D01*
X163118757Y-87686000D01*
X163361243Y-87686000D01*
X163599069Y-87638693D01*
X163823097Y-87545898D01*
X164024717Y-87411180D01*
X164196180Y-87239717D01*
X164330898Y-87038097D01*
X164423693Y-86814069D01*
X164464000Y-86611433D01*
X164464000Y-88838568D01*
X164423693Y-88635931D01*
X164330898Y-88411903D01*
X164196180Y-88210283D01*
X164024717Y-88038820D01*
X163823097Y-87904102D01*
X163599069Y-87811307D01*
X163361243Y-87764000D01*
X163118757Y-87764000D01*
X162880931Y-87811307D01*
X162656903Y-87904102D01*
X162455283Y-88038820D01*
X162283820Y-88210283D01*
X162149102Y-88411903D01*
X162056307Y-88635931D01*
X162009000Y-88873757D01*
X162009000Y-89116243D01*
X162056307Y-89354069D01*
X162149102Y-89578097D01*
X162283820Y-89779717D01*
X162455283Y-89951180D01*
X162656903Y-90085898D01*
X162880931Y-90178693D01*
X163118757Y-90226000D01*
X163361243Y-90226000D01*
X163599069Y-90178693D01*
X163823097Y-90085898D01*
X164024717Y-89951180D01*
X164196180Y-89779717D01*
X164330898Y-89578097D01*
X164423693Y-89354069D01*
X164464000Y-89151432D01*
X164464000Y-91378568D01*
X164423693Y-91175931D01*
X164330898Y-90951903D01*
X164196180Y-90750283D01*
X164024717Y-90578820D01*
X163823097Y-90444102D01*
X163599069Y-90351307D01*
X163361243Y-90304000D01*
X163118757Y-90304000D01*
X162880931Y-90351307D01*
X162656903Y-90444102D01*
X162455283Y-90578820D01*
X162283820Y-90750283D01*
X162149102Y-90951903D01*
X162056307Y-91175931D01*
X162009000Y-91413757D01*
X162009000Y-91656243D01*
X162056307Y-91894069D01*
X162149102Y-92118097D01*
X162283820Y-92319717D01*
X162455283Y-92491180D01*
X162656903Y-92625898D01*
X162880931Y-92718693D01*
X163118757Y-92766000D01*
X163361243Y-92766000D01*
X163599069Y-92718693D01*
X163823097Y-92625898D01*
X164024717Y-92491180D01*
X164196180Y-92319717D01*
X164330898Y-92118097D01*
X164423693Y-91894069D01*
X164464000Y-91691432D01*
X164464000Y-93918568D01*
X164423693Y-93715931D01*
X164330898Y-93491903D01*
X164196180Y-93290283D01*
X164024717Y-93118820D01*
X163823097Y-92984102D01*
X163599069Y-92891307D01*
X163361243Y-92844000D01*
X163118757Y-92844000D01*
X162880931Y-92891307D01*
X162656903Y-92984102D01*
X162455283Y-93118820D01*
X162283820Y-93290283D01*
X162149102Y-93491903D01*
X162056307Y-93715931D01*
X162009000Y-93953757D01*
X162009000Y-94196243D01*
X162056307Y-94434069D01*
X162149102Y-94658097D01*
X162283820Y-94859717D01*
X162455283Y-95031180D01*
X162656903Y-95165898D01*
X162880931Y-95258693D01*
X163118757Y-95306000D01*
X163361243Y-95306000D01*
X163599069Y-95258693D01*
X163823097Y-95165898D01*
X164024717Y-95031180D01*
X164196180Y-94859717D01*
X164330898Y-94658097D01*
X164423693Y-94434069D01*
X164464000Y-94231432D01*
X164464000Y-96458568D01*
X164423693Y-96255931D01*
X164330898Y-96031903D01*
X164196180Y-95830283D01*
X164024717Y-95658820D01*
X163823097Y-95524102D01*
X163599069Y-95431307D01*
X163361243Y-95384000D01*
X163118757Y-95384000D01*
X162880931Y-95431307D01*
X162656903Y-95524102D01*
X162455283Y-95658820D01*
X162283820Y-95830283D01*
X162149102Y-96031903D01*
X162056307Y-96255931D01*
X162009000Y-96493757D01*
X162009000Y-96736243D01*
X162056307Y-96974069D01*
X162149102Y-97198097D01*
X162283820Y-97399717D01*
X162455283Y-97571180D01*
X162656903Y-97705898D01*
X162880931Y-97798693D01*
X163118757Y-97846000D01*
X163361243Y-97846000D01*
X163599069Y-97798693D01*
X163823097Y-97705898D01*
X164024717Y-97571180D01*
X164196180Y-97399717D01*
X164330898Y-97198097D01*
X164423693Y-96974069D01*
X164464000Y-96771432D01*
X164464000Y-98998568D01*
X164423693Y-98795931D01*
X164330898Y-98571903D01*
X164196180Y-98370283D01*
X164024717Y-98198820D01*
X163823097Y-98064102D01*
X163599069Y-97971307D01*
X163361243Y-97924000D01*
X163118757Y-97924000D01*
X162880931Y-97971307D01*
X162656903Y-98064102D01*
X162455283Y-98198820D01*
X162283820Y-98370283D01*
X162149102Y-98571903D01*
X162056307Y-98795931D01*
X162009000Y-99033757D01*
X162009000Y-99276243D01*
X162056307Y-99514069D01*
X162149102Y-99738097D01*
X162283820Y-99939717D01*
X162455283Y-100111180D01*
X162656903Y-100245898D01*
X162880931Y-100338693D01*
X163118757Y-100386000D01*
X163361243Y-100386000D01*
X163599069Y-100338693D01*
X163823097Y-100245898D01*
X164024717Y-100111180D01*
X164196180Y-99939717D01*
X164330898Y-99738097D01*
X164423693Y-99514069D01*
X164464000Y-99311432D01*
X164464001Y-101538569D01*
X164423693Y-101335931D01*
X164330898Y-101111903D01*
X164196180Y-100910283D01*
X164024717Y-100738820D01*
X163823097Y-100604102D01*
X163599069Y-100511307D01*
X163361243Y-100464000D01*
X163118757Y-100464000D01*
X162880931Y-100511307D01*
X162656903Y-100604102D01*
X162455283Y-100738820D01*
X162283820Y-100910283D01*
X162149102Y-101111903D01*
X162056307Y-101335931D01*
X162009000Y-101573757D01*
X162009000Y-101816243D01*
X162056307Y-102054069D01*
X162149102Y-102278097D01*
X162283820Y-102479717D01*
X162455283Y-102651180D01*
X162656903Y-102785898D01*
X162880931Y-102878693D01*
X163118757Y-102926000D01*
X163361243Y-102926000D01*
X163599069Y-102878693D01*
X163823097Y-102785898D01*
X164024717Y-102651180D01*
X164196180Y-102479717D01*
X164330898Y-102278097D01*
X164423693Y-102054069D01*
X164464001Y-101851431D01*
X164464001Y-104078569D01*
X164423693Y-103875931D01*
X164330898Y-103651903D01*
X164196180Y-103450283D01*
X164024717Y-103278820D01*
X163823097Y-103144102D01*
X163599069Y-103051307D01*
X163361243Y-103004000D01*
X163118757Y-103004000D01*
X162880931Y-103051307D01*
X162656903Y-103144102D01*
X162455283Y-103278820D01*
X162283820Y-103450283D01*
X162149102Y-103651903D01*
X162056307Y-103875931D01*
X162009000Y-104113757D01*
X162009000Y-104356243D01*
X162056307Y-104594069D01*
X162149102Y-104818097D01*
X162283820Y-105019717D01*
X162455283Y-105191180D01*
X162656903Y-105325898D01*
X162880931Y-105418693D01*
X163118757Y-105466000D01*
X163361243Y-105466000D01*
X163599069Y-105418693D01*
X163823097Y-105325898D01*
X164024717Y-105191180D01*
X164196180Y-105019717D01*
X164330898Y-104818097D01*
X164423693Y-104594069D01*
X164464001Y-104391431D01*
X164464001Y-106618569D01*
X164423693Y-106415931D01*
X164330898Y-106191903D01*
X164196180Y-105990283D01*
X164024717Y-105818820D01*
X163823097Y-105684102D01*
X163599069Y-105591307D01*
X163361243Y-105544000D01*
X163118757Y-105544000D01*
X162880931Y-105591307D01*
X162656903Y-105684102D01*
X162455283Y-105818820D01*
X162283820Y-105990283D01*
X162149102Y-106191903D01*
X162056307Y-106415931D01*
X162009000Y-106653757D01*
X162009000Y-106896243D01*
X162056307Y-107134069D01*
X162149102Y-107358097D01*
X162283820Y-107559717D01*
X162455283Y-107731180D01*
X162656903Y-107865898D01*
X162880931Y-107958693D01*
X163118757Y-108006000D01*
X163361243Y-108006000D01*
X163599069Y-107958693D01*
X163823097Y-107865898D01*
X164024717Y-107731180D01*
X164196180Y-107559717D01*
X164330898Y-107358097D01*
X164423693Y-107134069D01*
X164464001Y-106931431D01*
X164464001Y-109158569D01*
X164423693Y-108955931D01*
X164330898Y-108731903D01*
X164196180Y-108530283D01*
X164024717Y-108358820D01*
X163823097Y-108224102D01*
X163599069Y-108131307D01*
X163361243Y-108084000D01*
X163118757Y-108084000D01*
X162880931Y-108131307D01*
X162656903Y-108224102D01*
X162455283Y-108358820D01*
X162283820Y-108530283D01*
X162149102Y-108731903D01*
X162056307Y-108955931D01*
X162009000Y-109193757D01*
X162009000Y-109436243D01*
X162056307Y-109674069D01*
X162149102Y-109898097D01*
X162283820Y-110099717D01*
X162455283Y-110271180D01*
X162656903Y-110405898D01*
X162880931Y-110498693D01*
X163118757Y-110546000D01*
X163361243Y-110546000D01*
X163599069Y-110498693D01*
X163823097Y-110405898D01*
X164024717Y-110271180D01*
X164196180Y-110099717D01*
X164330898Y-109898097D01*
X164423693Y-109674069D01*
X164464001Y-109471431D01*
X164464001Y-111698569D01*
X164423693Y-111495931D01*
X164330898Y-111271903D01*
X164196180Y-111070283D01*
X164024717Y-110898820D01*
X163823097Y-110764102D01*
X163599069Y-110671307D01*
X163361243Y-110624000D01*
X163118757Y-110624000D01*
X162880931Y-110671307D01*
X162656903Y-110764102D01*
X162455283Y-110898820D01*
X162283820Y-111070283D01*
X162149102Y-111271903D01*
X162056307Y-111495931D01*
X162009000Y-111733757D01*
X162009000Y-111976243D01*
X162056307Y-112214069D01*
X162149102Y-112438097D01*
X162283820Y-112639717D01*
X162455283Y-112811180D01*
X162656903Y-112945898D01*
X162880931Y-113038693D01*
X163118757Y-113086000D01*
X163361243Y-113086000D01*
X163599069Y-113038693D01*
X163823097Y-112945898D01*
X164024717Y-112811180D01*
X164196180Y-112639717D01*
X164330898Y-112438097D01*
X164423693Y-112214069D01*
X164464001Y-112011431D01*
X164464001Y-114238569D01*
X164423693Y-114035931D01*
X164330898Y-113811903D01*
X164196180Y-113610283D01*
X164024717Y-113438820D01*
X163823097Y-113304102D01*
X163599069Y-113211307D01*
X163361243Y-113164000D01*
X163118757Y-113164000D01*
X162880931Y-113211307D01*
X162656903Y-113304102D01*
X162455283Y-113438820D01*
X162283820Y-113610283D01*
X162149102Y-113811903D01*
X162056307Y-114035931D01*
X162009000Y-114273757D01*
X162009000Y-114516243D01*
X162056307Y-114754069D01*
X162149102Y-114978097D01*
X162283820Y-115179717D01*
X162455283Y-115351180D01*
X162656903Y-115485898D01*
X162880931Y-115578693D01*
X163118757Y-115626000D01*
X163361243Y-115626000D01*
X163599069Y-115578693D01*
X163823097Y-115485898D01*
X164024717Y-115351180D01*
X164196180Y-115179717D01*
X164330898Y-114978097D01*
X164423693Y-114754069D01*
X164464001Y-114551430D01*
X164464001Y-116778570D01*
X164423693Y-116575931D01*
X164330898Y-116351903D01*
X164196180Y-116150283D01*
X164024717Y-115978820D01*
X163823097Y-115844102D01*
X163599069Y-115751307D01*
X163361243Y-115704000D01*
X163118757Y-115704000D01*
X162880931Y-115751307D01*
X162656903Y-115844102D01*
X162455283Y-115978820D01*
X162283820Y-116150283D01*
X162149102Y-116351903D01*
X162056307Y-116575931D01*
X162009000Y-116813757D01*
X162009000Y-117056243D01*
X162056307Y-117294069D01*
X162149102Y-117518097D01*
X162283820Y-117719717D01*
X162455283Y-117891180D01*
X162656903Y-118025898D01*
X162880931Y-118118693D01*
X163118757Y-118166000D01*
X163361243Y-118166000D01*
X163599069Y-118118693D01*
X163823097Y-118025898D01*
X164024717Y-117891180D01*
X164196180Y-117719717D01*
X164330898Y-117518097D01*
X164423693Y-117294069D01*
X164464001Y-117091430D01*
X164464001Y-119318570D01*
X164423693Y-119115931D01*
X164330898Y-118891903D01*
X164196180Y-118690283D01*
X164024717Y-118518820D01*
X163823097Y-118384102D01*
X163599069Y-118291307D01*
X163361243Y-118244000D01*
X163118757Y-118244000D01*
X162880931Y-118291307D01*
X162656903Y-118384102D01*
X162455283Y-118518820D01*
X162283820Y-118690283D01*
X162149102Y-118891903D01*
X162056307Y-119115931D01*
X162009000Y-119353757D01*
X162009000Y-119596243D01*
X162056307Y-119834069D01*
X162149102Y-120058097D01*
X162283820Y-120259717D01*
X162455283Y-120431180D01*
X162656903Y-120565898D01*
X162880931Y-120658693D01*
X163118757Y-120706000D01*
X163361243Y-120706000D01*
X163599069Y-120658693D01*
X163823097Y-120565898D01*
X164024717Y-120431180D01*
X164196180Y-120259717D01*
X164330898Y-120058097D01*
X164423693Y-119834069D01*
X164464001Y-119631430D01*
X164464001Y-121858570D01*
X164423693Y-121655931D01*
X164330898Y-121431903D01*
X164196180Y-121230283D01*
X164024717Y-121058820D01*
X163823097Y-120924102D01*
X163599069Y-120831307D01*
X163361243Y-120784000D01*
X163118757Y-120784000D01*
X162880931Y-120831307D01*
X162656903Y-120924102D01*
X162455283Y-121058820D01*
X162283820Y-121230283D01*
X162149102Y-121431903D01*
X162056307Y-121655931D01*
X162009000Y-121893757D01*
X162009000Y-122136243D01*
X162056307Y-122374069D01*
X162149102Y-122598097D01*
X162283820Y-122799717D01*
X162455283Y-122971180D01*
X162656903Y-123105898D01*
X162880931Y-123198693D01*
X163118757Y-123246000D01*
X163361243Y-123246000D01*
X163599069Y-123198693D01*
X163823097Y-123105898D01*
X164024717Y-122971180D01*
X164196180Y-122799717D01*
X164330898Y-122598097D01*
X164423693Y-122374069D01*
X164464001Y-122171430D01*
X164464001Y-133990137D01*
X164441256Y-134222110D01*
X164379653Y-134426148D01*
X164279592Y-134614336D01*
X164144891Y-134779495D01*
X163980666Y-134915354D01*
X163793187Y-135016724D01*
X163589589Y-135079748D01*
X163358876Y-135103996D01*
X163169907Y-135103921D01*
X163322075Y-135040890D01*
X163560546Y-134881549D01*
X163763349Y-134678746D01*
X163922690Y-134440275D01*
X164032447Y-134175300D01*
X164088400Y-133894003D01*
X164088400Y-133607197D01*
X164032447Y-133325900D01*
X163922690Y-133060925D01*
X163763349Y-132822454D01*
X163560546Y-132619651D01*
X163322075Y-132460310D01*
X163057100Y-132350553D01*
X162775803Y-132294600D01*
X162488997Y-132294600D01*
X162207700Y-132350553D01*
X161942725Y-132460310D01*
X161704254Y-132619651D01*
X161501451Y-132822454D01*
X161342110Y-133060925D01*
X161232353Y-133325900D01*
X161176400Y-133607197D01*
X161176400Y-133894003D01*
X161232353Y-134175300D01*
X161342110Y-134440275D01*
X161501451Y-134678746D01*
X161704254Y-134881549D01*
X161942725Y-135040890D01*
X162093851Y-135103489D01*
X157735172Y-135101740D01*
X157882075Y-135040890D01*
X158120546Y-134881549D01*
X158323349Y-134678746D01*
X158482690Y-134440275D01*
X158592447Y-134175300D01*
X158648400Y-133894003D01*
X158648400Y-133607197D01*
X158592447Y-133325900D01*
X158482690Y-133060925D01*
X158323349Y-132822454D01*
X158120546Y-132619651D01*
X157882075Y-132460310D01*
X157617100Y-132350553D01*
X157335803Y-132294600D01*
X157048997Y-132294600D01*
X156767700Y-132350553D01*
X156502725Y-132460310D01*
X156264254Y-132619651D01*
X156061451Y-132822454D01*
X155902110Y-133060925D01*
X155792353Y-133325900D01*
X155736400Y-133607197D01*
X155736400Y-133894003D01*
X155792353Y-134175300D01*
X155902110Y-134440275D01*
X156061451Y-134678746D01*
X156264254Y-134881549D01*
X156502725Y-135040890D01*
X156648576Y-135101304D01*
X144610263Y-135096473D01*
X144712538Y-135012538D01*
X144825756Y-134874582D01*
X144909884Y-134717188D01*
X144961690Y-134546407D01*
X144979183Y-134368800D01*
X144961690Y-134191193D01*
X144909884Y-134020412D01*
X144825756Y-133863018D01*
X144712538Y-133725062D01*
X144574582Y-133611844D01*
X144417188Y-133527716D01*
X144246407Y-133475910D01*
X144113301Y-133462800D01*
X143523590Y-133462800D01*
X143581605Y-133404785D01*
X143661604Y-133285058D01*
X143716708Y-133152025D01*
X143735415Y-133057978D01*
X148984100Y-133057978D01*
X148984100Y-133211822D01*
X149014113Y-133362709D01*
X149072987Y-133504842D01*
X149158458Y-133632759D01*
X149267241Y-133741542D01*
X149395158Y-133827013D01*
X149537291Y-133885887D01*
X149688178Y-133915900D01*
X149842022Y-133915900D01*
X149992909Y-133885887D01*
X150135042Y-133827013D01*
X150262959Y-133741542D01*
X150371742Y-133632759D01*
X150457213Y-133504842D01*
X150516087Y-133362709D01*
X150546100Y-133211822D01*
X150546100Y-133057978D01*
X151549500Y-133057978D01*
X151549500Y-133211822D01*
X151579513Y-133362709D01*
X151638387Y-133504842D01*
X151723858Y-133632759D01*
X151832641Y-133741542D01*
X151960558Y-133827013D01*
X152102691Y-133885887D01*
X152253578Y-133915900D01*
X152407422Y-133915900D01*
X152558309Y-133885887D01*
X152700442Y-133827013D01*
X152828359Y-133741542D01*
X152937142Y-133632759D01*
X153022613Y-133504842D01*
X153081487Y-133362709D01*
X153111500Y-133211822D01*
X153111500Y-133057978D01*
X153081487Y-132907091D01*
X153022613Y-132764958D01*
X152937142Y-132637041D01*
X152828359Y-132528258D01*
X152700442Y-132442787D01*
X152558309Y-132383913D01*
X152407422Y-132353900D01*
X152253578Y-132353900D01*
X152102691Y-132383913D01*
X151960558Y-132442787D01*
X151832641Y-132528258D01*
X151723858Y-132637041D01*
X151638387Y-132764958D01*
X151579513Y-132907091D01*
X151549500Y-133057978D01*
X150546100Y-133057978D01*
X150516087Y-132907091D01*
X150457213Y-132764958D01*
X150371742Y-132637041D01*
X150262959Y-132528258D01*
X150135042Y-132442787D01*
X149992909Y-132383913D01*
X149842022Y-132353900D01*
X149688178Y-132353900D01*
X149537291Y-132383913D01*
X149395158Y-132442787D01*
X149267241Y-132528258D01*
X149158458Y-132637041D01*
X149072987Y-132764958D01*
X149014113Y-132907091D01*
X148984100Y-133057978D01*
X143735415Y-133057978D01*
X143744800Y-133010797D01*
X143744800Y-132866803D01*
X143716708Y-132725575D01*
X143661604Y-132592542D01*
X143581605Y-132472815D01*
X143479785Y-132370995D01*
X143360058Y-132290996D01*
X143227025Y-132235892D01*
X143150147Y-132220600D01*
X158729557Y-132220600D01*
X158729557Y-133820600D01*
X158736913Y-133895289D01*
X158758699Y-133967108D01*
X158794078Y-134033296D01*
X158841689Y-134091311D01*
X158899704Y-134138922D01*
X158965892Y-134174301D01*
X159037711Y-134196087D01*
X159112400Y-134203443D01*
X160712400Y-134203443D01*
X160787089Y-134196087D01*
X160858908Y-134174301D01*
X160925096Y-134138922D01*
X160983111Y-134091311D01*
X161030722Y-134033296D01*
X161066101Y-133967108D01*
X161087887Y-133895289D01*
X161095243Y-133820600D01*
X161095243Y-132220600D01*
X161087887Y-132145911D01*
X161066101Y-132074092D01*
X161030722Y-132007904D01*
X160983111Y-131949889D01*
X160925096Y-131902278D01*
X160858908Y-131866899D01*
X160787089Y-131845113D01*
X160760674Y-131842511D01*
X160829742Y-131773443D01*
X160958988Y-131580013D01*
X161048014Y-131365085D01*
X161093400Y-131136918D01*
X161093400Y-130904282D01*
X161048014Y-130676115D01*
X160958988Y-130461187D01*
X160829742Y-130267757D01*
X160665243Y-130103258D01*
X160541537Y-130020600D01*
X160665243Y-129937942D01*
X160829742Y-129773443D01*
X160958988Y-129580013D01*
X161048014Y-129365085D01*
X161093400Y-129136918D01*
X161093400Y-128904282D01*
X161048014Y-128676115D01*
X160958988Y-128461187D01*
X160829742Y-128267757D01*
X160665243Y-128103258D01*
X160541537Y-128020600D01*
X160665243Y-127937942D01*
X160829742Y-127773443D01*
X160958988Y-127580013D01*
X161048014Y-127365085D01*
X161093400Y-127136918D01*
X161093400Y-126904282D01*
X161048014Y-126676115D01*
X161019468Y-126607197D01*
X161176400Y-126607197D01*
X161176400Y-126894003D01*
X161232353Y-127175300D01*
X161342110Y-127440275D01*
X161501451Y-127678746D01*
X161704254Y-127881549D01*
X161942725Y-128040890D01*
X162207700Y-128150647D01*
X162488997Y-128206600D01*
X162775803Y-128206600D01*
X163057100Y-128150647D01*
X163322075Y-128040890D01*
X163560546Y-127881549D01*
X163763349Y-127678746D01*
X163922690Y-127440275D01*
X164032447Y-127175300D01*
X164088400Y-126894003D01*
X164088400Y-126607197D01*
X164032447Y-126325900D01*
X163922690Y-126060925D01*
X163763349Y-125822454D01*
X163560546Y-125619651D01*
X163322075Y-125460310D01*
X163057100Y-125350553D01*
X162775803Y-125294600D01*
X162488997Y-125294600D01*
X162207700Y-125350553D01*
X161942725Y-125460310D01*
X161704254Y-125619651D01*
X161501451Y-125822454D01*
X161342110Y-126060925D01*
X161232353Y-126325900D01*
X161176400Y-126607197D01*
X161019468Y-126607197D01*
X160958988Y-126461187D01*
X160829742Y-126267757D01*
X160665243Y-126103258D01*
X160471813Y-125974012D01*
X160256885Y-125884986D01*
X160028718Y-125839600D01*
X159796082Y-125839600D01*
X159567915Y-125884986D01*
X159352987Y-125974012D01*
X159159557Y-126103258D01*
X158995058Y-126267757D01*
X158865812Y-126461187D01*
X158776786Y-126676115D01*
X158731400Y-126904282D01*
X158731400Y-127136918D01*
X158776786Y-127365085D01*
X158865812Y-127580013D01*
X158995058Y-127773443D01*
X159159557Y-127937942D01*
X159283263Y-128020600D01*
X159159557Y-128103258D01*
X158995058Y-128267757D01*
X158865812Y-128461187D01*
X158776786Y-128676115D01*
X158731400Y-128904282D01*
X158731400Y-129136918D01*
X158776786Y-129365085D01*
X158865812Y-129580013D01*
X158995058Y-129773443D01*
X159159557Y-129937942D01*
X159283263Y-130020600D01*
X159159557Y-130103258D01*
X158995058Y-130267757D01*
X158865812Y-130461187D01*
X158776786Y-130676115D01*
X158731400Y-130904282D01*
X158731400Y-131136918D01*
X158776786Y-131365085D01*
X158865812Y-131580013D01*
X158995058Y-131773443D01*
X159064126Y-131842511D01*
X159037711Y-131845113D01*
X158965892Y-131866899D01*
X158899704Y-131902278D01*
X158841689Y-131949889D01*
X158794078Y-132007904D01*
X158758699Y-132074092D01*
X158736913Y-132145911D01*
X158729557Y-132220600D01*
X143150147Y-132220600D01*
X143085797Y-132207800D01*
X142941803Y-132207800D01*
X142800575Y-132235892D01*
X142667542Y-132290996D01*
X142547815Y-132370995D01*
X142445995Y-132472815D01*
X142365996Y-132592542D01*
X142310892Y-132725575D01*
X142282800Y-132866803D01*
X142282800Y-133010797D01*
X142310892Y-133152025D01*
X142365996Y-133285058D01*
X142445995Y-133404785D01*
X142547815Y-133506605D01*
X142619854Y-133554740D01*
X142513018Y-133611844D01*
X142375062Y-133725062D01*
X142261844Y-133863018D01*
X142177716Y-134020412D01*
X142125910Y-134191193D01*
X142108417Y-134368800D01*
X142125910Y-134546407D01*
X142177716Y-134717188D01*
X142261844Y-134874582D01*
X142375062Y-135012538D01*
X142476293Y-135095617D01*
X140432306Y-135094796D01*
X140532538Y-135012538D01*
X140645756Y-134874582D01*
X140729884Y-134717188D01*
X140781690Y-134546407D01*
X140799183Y-134368800D01*
X140781690Y-134191193D01*
X140729884Y-134020412D01*
X140645756Y-133863018D01*
X140532538Y-133725062D01*
X140394582Y-133611844D01*
X140237188Y-133527716D01*
X140066407Y-133475910D01*
X139933301Y-133462800D01*
X138794299Y-133462800D01*
X138661193Y-133475910D01*
X138490412Y-133527716D01*
X138333018Y-133611844D01*
X138195062Y-133725062D01*
X138081844Y-133863018D01*
X137997716Y-134020412D01*
X137945910Y-134191193D01*
X137928417Y-134368800D01*
X137945910Y-134546407D01*
X137997716Y-134717188D01*
X138081844Y-134874582D01*
X138195062Y-135012538D01*
X138270507Y-135074454D01*
X138237890Y-135071256D01*
X138033852Y-135009653D01*
X137845664Y-134909592D01*
X137680505Y-134774891D01*
X137544646Y-134610666D01*
X137443276Y-134423187D01*
X137380252Y-134219589D01*
X137356000Y-133988842D01*
X137356000Y-129133678D01*
X140843409Y-129133678D01*
X140843409Y-129287522D01*
X140873422Y-129438409D01*
X140932296Y-129580542D01*
X141017767Y-129708459D01*
X141126550Y-129817242D01*
X141254467Y-129902713D01*
X141396600Y-129961587D01*
X141547487Y-129991600D01*
X141701331Y-129991600D01*
X141852218Y-129961587D01*
X141994351Y-129902713D01*
X142122268Y-129817242D01*
X142231051Y-129708459D01*
X142316522Y-129580542D01*
X142375396Y-129438409D01*
X142405409Y-129287522D01*
X142405409Y-129133678D01*
X142375396Y-128982791D01*
X142316522Y-128840658D01*
X142231051Y-128712741D01*
X142122268Y-128603958D01*
X141994351Y-128518487D01*
X141852218Y-128459613D01*
X141701331Y-128429600D01*
X141547487Y-128429600D01*
X141396600Y-128459613D01*
X141254467Y-128518487D01*
X141126550Y-128603958D01*
X141017767Y-128712741D01*
X140932296Y-128840658D01*
X140873422Y-128982791D01*
X140843409Y-129133678D01*
X137356000Y-129133678D01*
X137356000Y-125728800D01*
X137928417Y-125728800D01*
X137945910Y-125906407D01*
X137997716Y-126077188D01*
X138081844Y-126234582D01*
X138195062Y-126372538D01*
X138333018Y-126485756D01*
X138490412Y-126569884D01*
X138661193Y-126621690D01*
X138794299Y-126634800D01*
X139933301Y-126634800D01*
X140066407Y-126621690D01*
X140237188Y-126569884D01*
X140394582Y-126485756D01*
X140532538Y-126372538D01*
X140645756Y-126234582D01*
X140729884Y-126077188D01*
X140781690Y-125906407D01*
X140799183Y-125728800D01*
X142108417Y-125728800D01*
X142125910Y-125906407D01*
X142177716Y-126077188D01*
X142261844Y-126234582D01*
X142375062Y-126372538D01*
X142513018Y-126485756D01*
X142619854Y-126542860D01*
X142547815Y-126590995D01*
X142445995Y-126692815D01*
X142365996Y-126812542D01*
X142310892Y-126945575D01*
X142282800Y-127086803D01*
X142282800Y-127230797D01*
X142310892Y-127372025D01*
X142365996Y-127505058D01*
X142445995Y-127624785D01*
X142547815Y-127726605D01*
X142667542Y-127806604D01*
X142800575Y-127861708D01*
X142941803Y-127889800D01*
X143085797Y-127889800D01*
X143227025Y-127861708D01*
X143360058Y-127806604D01*
X143479785Y-127726605D01*
X143581605Y-127624785D01*
X143661604Y-127505058D01*
X143716708Y-127372025D01*
X143730064Y-127304878D01*
X152870300Y-127304878D01*
X152870300Y-127458722D01*
X152900313Y-127609609D01*
X152959187Y-127751742D01*
X153044658Y-127879659D01*
X153153441Y-127988442D01*
X153281358Y-128073913D01*
X153423491Y-128132787D01*
X153574378Y-128162800D01*
X153728222Y-128162800D01*
X153879109Y-128132787D01*
X154021242Y-128073913D01*
X154149159Y-127988442D01*
X154257942Y-127879659D01*
X154343413Y-127751742D01*
X154402287Y-127609609D01*
X154432300Y-127458722D01*
X154432300Y-127304878D01*
X154402287Y-127153991D01*
X154343413Y-127011858D01*
X154257942Y-126883941D01*
X154149159Y-126775158D01*
X154021242Y-126689687D01*
X153879109Y-126630813D01*
X153760383Y-126607197D01*
X155736400Y-126607197D01*
X155736400Y-126894003D01*
X155792353Y-127175300D01*
X155902110Y-127440275D01*
X156061451Y-127678746D01*
X156264254Y-127881549D01*
X156502725Y-128040890D01*
X156767700Y-128150647D01*
X157048997Y-128206600D01*
X157335803Y-128206600D01*
X157617100Y-128150647D01*
X157882075Y-128040890D01*
X158120546Y-127881549D01*
X158323349Y-127678746D01*
X158482690Y-127440275D01*
X158592447Y-127175300D01*
X158648400Y-126894003D01*
X158648400Y-126607197D01*
X158592447Y-126325900D01*
X158482690Y-126060925D01*
X158323349Y-125822454D01*
X158120546Y-125619651D01*
X157882075Y-125460310D01*
X157617100Y-125350553D01*
X157335803Y-125294600D01*
X157048997Y-125294600D01*
X156767700Y-125350553D01*
X156502725Y-125460310D01*
X156264254Y-125619651D01*
X156061451Y-125822454D01*
X155902110Y-126060925D01*
X155792353Y-126325900D01*
X155736400Y-126607197D01*
X153760383Y-126607197D01*
X153728222Y-126600800D01*
X153574378Y-126600800D01*
X153423491Y-126630813D01*
X153281358Y-126689687D01*
X153153441Y-126775158D01*
X153044658Y-126883941D01*
X152959187Y-127011858D01*
X152900313Y-127153991D01*
X152870300Y-127304878D01*
X143730064Y-127304878D01*
X143744800Y-127230797D01*
X143744800Y-127086803D01*
X143716708Y-126945575D01*
X143661604Y-126812542D01*
X143581605Y-126692815D01*
X143523590Y-126634800D01*
X144113301Y-126634800D01*
X144246407Y-126621690D01*
X144417188Y-126569884D01*
X144574582Y-126485756D01*
X144712538Y-126372538D01*
X144825756Y-126234582D01*
X144909884Y-126077188D01*
X144961690Y-125906407D01*
X144974554Y-125775798D01*
X147823320Y-125775798D01*
X147823320Y-125929642D01*
X147853333Y-126080529D01*
X147912207Y-126222662D01*
X147997678Y-126350579D01*
X148106461Y-126459362D01*
X148234378Y-126544833D01*
X148376511Y-126603707D01*
X148527398Y-126633720D01*
X148681242Y-126633720D01*
X148832129Y-126603707D01*
X148974262Y-126544833D01*
X149102179Y-126459362D01*
X149210962Y-126350579D01*
X149296433Y-126222662D01*
X149355307Y-126080529D01*
X149385320Y-125929642D01*
X149385320Y-125775798D01*
X149355307Y-125624911D01*
X149296433Y-125482778D01*
X149210962Y-125354861D01*
X149102179Y-125246078D01*
X148974262Y-125160607D01*
X148832129Y-125101733D01*
X148681242Y-125071720D01*
X148527398Y-125071720D01*
X148376511Y-125101733D01*
X148234378Y-125160607D01*
X148106461Y-125246078D01*
X147997678Y-125354861D01*
X147912207Y-125482778D01*
X147853333Y-125624911D01*
X147823320Y-125775798D01*
X144974554Y-125775798D01*
X144979183Y-125728800D01*
X144961690Y-125551193D01*
X144909884Y-125380412D01*
X144825756Y-125223018D01*
X144712538Y-125085062D01*
X144574582Y-124971844D01*
X144417188Y-124887716D01*
X144246407Y-124835910D01*
X144113301Y-124822800D01*
X142974299Y-124822800D01*
X142841193Y-124835910D01*
X142670412Y-124887716D01*
X142513018Y-124971844D01*
X142375062Y-125085062D01*
X142261844Y-125223018D01*
X142177716Y-125380412D01*
X142125910Y-125551193D01*
X142108417Y-125728800D01*
X140799183Y-125728800D01*
X140781690Y-125551193D01*
X140729884Y-125380412D01*
X140645756Y-125223018D01*
X140532538Y-125085062D01*
X140394582Y-124971844D01*
X140237188Y-124887716D01*
X140066407Y-124835910D01*
X139933301Y-124822800D01*
X138794299Y-124822800D01*
X138661193Y-124835910D01*
X138490412Y-124887716D01*
X138333018Y-124971844D01*
X138195062Y-125085062D01*
X138081844Y-125223018D01*
X137997716Y-125380412D01*
X137945910Y-125551193D01*
X137928417Y-125728800D01*
X137356000Y-125728800D01*
X137356000Y-122720178D01*
X137858900Y-122720178D01*
X137858900Y-122874022D01*
X137888913Y-123024909D01*
X137947787Y-123167042D01*
X138033258Y-123294959D01*
X138142041Y-123403742D01*
X138269958Y-123489213D01*
X138412091Y-123548087D01*
X138562978Y-123578100D01*
X138716822Y-123578100D01*
X138867709Y-123548087D01*
X139009842Y-123489213D01*
X139137759Y-123403742D01*
X139246542Y-123294959D01*
X139332013Y-123167042D01*
X139390887Y-123024909D01*
X139420900Y-122874022D01*
X139420900Y-122720178D01*
X139390887Y-122569291D01*
X139376991Y-122535743D01*
X143628902Y-122535743D01*
X143628902Y-122689587D01*
X143658915Y-122840474D01*
X143717789Y-122982607D01*
X143803260Y-123110524D01*
X143912043Y-123219307D01*
X144039960Y-123304778D01*
X144182093Y-123363652D01*
X144332980Y-123393665D01*
X144486824Y-123393665D01*
X144637711Y-123363652D01*
X144779844Y-123304778D01*
X144907761Y-123219307D01*
X145000060Y-123127008D01*
X145000060Y-123213660D01*
X145007381Y-123287989D01*
X145008608Y-123292034D01*
X144975513Y-123371931D01*
X144945500Y-123522818D01*
X144945500Y-123676662D01*
X144975513Y-123827549D01*
X145034387Y-123969682D01*
X145119858Y-124097599D01*
X145228641Y-124206382D01*
X145356558Y-124291853D01*
X145498691Y-124350727D01*
X145649578Y-124380740D01*
X145803422Y-124380740D01*
X145954309Y-124350727D01*
X146096442Y-124291853D01*
X146224359Y-124206382D01*
X146333142Y-124097599D01*
X146418613Y-123969682D01*
X146477487Y-123827549D01*
X146507500Y-123676662D01*
X146507500Y-123594660D01*
X158152180Y-123594660D01*
X158226509Y-123587339D01*
X158297982Y-123565658D01*
X158363852Y-123530450D01*
X158421588Y-123483068D01*
X158468970Y-123425332D01*
X158504178Y-123359462D01*
X158525859Y-123287989D01*
X158533180Y-123213660D01*
X158533180Y-120245369D01*
X158636598Y-120265940D01*
X158790442Y-120265940D01*
X158941329Y-120235927D01*
X159083462Y-120177053D01*
X159211379Y-120091582D01*
X159320162Y-119982799D01*
X159405633Y-119854882D01*
X159464507Y-119712749D01*
X159494520Y-119561862D01*
X159494520Y-119408018D01*
X159464507Y-119257131D01*
X159405633Y-119114998D01*
X159320162Y-118987081D01*
X159211379Y-118878298D01*
X159083462Y-118792827D01*
X158941329Y-118733953D01*
X158790442Y-118703940D01*
X158636598Y-118703940D01*
X158485711Y-118733953D01*
X158343578Y-118792827D01*
X158215661Y-118878298D01*
X158106878Y-118987081D01*
X158021407Y-119114998D01*
X158020727Y-119116640D01*
X148837989Y-119116640D01*
X148834153Y-119107378D01*
X148748682Y-118979461D01*
X148639899Y-118870678D01*
X148511982Y-118785207D01*
X148369849Y-118726333D01*
X148218962Y-118696320D01*
X148065118Y-118696320D01*
X147914231Y-118726333D01*
X147772098Y-118785207D01*
X147644181Y-118870678D01*
X147535398Y-118979461D01*
X147449927Y-119107378D01*
X147446091Y-119116640D01*
X145381060Y-119116640D01*
X145306731Y-119123961D01*
X145235258Y-119145642D01*
X145169388Y-119180850D01*
X145111652Y-119228232D01*
X145064270Y-119285968D01*
X145029062Y-119351838D01*
X145007381Y-119423311D01*
X145000060Y-119497640D01*
X145000060Y-122098322D01*
X144907761Y-122006023D01*
X144779844Y-121920552D01*
X144637711Y-121861678D01*
X144486824Y-121831665D01*
X144332980Y-121831665D01*
X144182093Y-121861678D01*
X144039960Y-121920552D01*
X143912043Y-122006023D01*
X143803260Y-122114806D01*
X143717789Y-122242723D01*
X143658915Y-122384856D01*
X143628902Y-122535743D01*
X139376991Y-122535743D01*
X139332013Y-122427158D01*
X139246542Y-122299241D01*
X139137759Y-122190458D01*
X139009842Y-122104987D01*
X138867709Y-122046113D01*
X138716822Y-122016100D01*
X138562978Y-122016100D01*
X138412091Y-122046113D01*
X138269958Y-122104987D01*
X138142041Y-122190458D01*
X138033258Y-122299241D01*
X137947787Y-122427158D01*
X137888913Y-122569291D01*
X137858900Y-122720178D01*
X137356000Y-122720178D01*
X137356000Y-120744058D01*
X139669920Y-120744058D01*
X139669920Y-120897902D01*
X139699933Y-121048789D01*
X139758807Y-121190922D01*
X139844278Y-121318839D01*
X139953061Y-121427622D01*
X140080978Y-121513093D01*
X140223111Y-121571967D01*
X140373998Y-121601980D01*
X140527842Y-121601980D01*
X140678729Y-121571967D01*
X140820862Y-121513093D01*
X140948779Y-121427622D01*
X141057562Y-121318839D01*
X141143033Y-121190922D01*
X141201907Y-121048789D01*
X141231920Y-120897902D01*
X141231920Y-120744058D01*
X141201907Y-120593171D01*
X141143033Y-120451038D01*
X141057562Y-120323121D01*
X140948779Y-120214338D01*
X140820862Y-120128867D01*
X140678729Y-120069993D01*
X140527842Y-120039980D01*
X140373998Y-120039980D01*
X140223111Y-120069993D01*
X140080978Y-120128867D01*
X139953061Y-120214338D01*
X139844278Y-120323121D01*
X139758807Y-120451038D01*
X139699933Y-120593171D01*
X139669920Y-120744058D01*
X137356000Y-120744058D01*
X137356000Y-118585058D01*
X142334380Y-118585058D01*
X142334380Y-118738902D01*
X142364393Y-118889789D01*
X142423267Y-119031922D01*
X142508738Y-119159839D01*
X142617521Y-119268622D01*
X142745438Y-119354093D01*
X142887571Y-119412967D01*
X143038458Y-119442980D01*
X143192302Y-119442980D01*
X143343189Y-119412967D01*
X143434200Y-119375269D01*
X143434200Y-119521222D01*
X143464213Y-119672109D01*
X143523087Y-119814242D01*
X143608558Y-119942159D01*
X143717341Y-120050942D01*
X143845258Y-120136413D01*
X143987391Y-120195287D01*
X144138278Y-120225300D01*
X144292122Y-120225300D01*
X144443009Y-120195287D01*
X144585142Y-120136413D01*
X144713059Y-120050942D01*
X144821842Y-119942159D01*
X144907313Y-119814242D01*
X144966187Y-119672109D01*
X144996200Y-119521222D01*
X144996200Y-119367378D01*
X144966187Y-119216491D01*
X144907313Y-119074358D01*
X144821842Y-118946441D01*
X144713059Y-118837658D01*
X144585142Y-118752187D01*
X144443009Y-118693313D01*
X144292122Y-118663300D01*
X144138278Y-118663300D01*
X143987391Y-118693313D01*
X143896380Y-118731011D01*
X143896380Y-118585058D01*
X143866367Y-118434171D01*
X143807493Y-118292038D01*
X143722022Y-118164121D01*
X143685759Y-118127858D01*
X145555100Y-118127858D01*
X145555100Y-118281702D01*
X145585113Y-118432589D01*
X145643987Y-118574722D01*
X145729458Y-118702639D01*
X145838241Y-118811422D01*
X145966158Y-118896893D01*
X146108291Y-118955767D01*
X146259178Y-118985780D01*
X146413022Y-118985780D01*
X146563909Y-118955767D01*
X146706042Y-118896893D01*
X146833959Y-118811422D01*
X146942742Y-118702639D01*
X147028213Y-118574722D01*
X147087087Y-118432589D01*
X147117100Y-118281702D01*
X147117100Y-118127858D01*
X147087087Y-117976971D01*
X147028213Y-117834838D01*
X146942742Y-117706921D01*
X146833959Y-117598138D01*
X146706042Y-117512667D01*
X146563909Y-117453793D01*
X146413022Y-117423780D01*
X146259178Y-117423780D01*
X146108291Y-117453793D01*
X145966158Y-117512667D01*
X145838241Y-117598138D01*
X145729458Y-117706921D01*
X145643987Y-117834838D01*
X145585113Y-117976971D01*
X145555100Y-118127858D01*
X143685759Y-118127858D01*
X143613239Y-118055338D01*
X143485322Y-117969867D01*
X143343189Y-117910993D01*
X143192302Y-117880980D01*
X143038458Y-117880980D01*
X142887571Y-117910993D01*
X142745438Y-117969867D01*
X142617521Y-118055338D01*
X142508738Y-118164121D01*
X142423267Y-118292038D01*
X142364393Y-118434171D01*
X142334380Y-118585058D01*
X137356000Y-118585058D01*
X137356000Y-116116178D01*
X139700400Y-116116178D01*
X139700400Y-116270022D01*
X139730413Y-116420909D01*
X139789287Y-116563042D01*
X139874758Y-116690959D01*
X139983541Y-116799742D01*
X140111458Y-116885213D01*
X140253591Y-116944087D01*
X140404478Y-116974100D01*
X140558322Y-116974100D01*
X140709209Y-116944087D01*
X140851342Y-116885213D01*
X140979259Y-116799742D01*
X141088042Y-116690959D01*
X141173513Y-116563042D01*
X141232387Y-116420909D01*
X141262400Y-116270022D01*
X141262400Y-116116178D01*
X141232387Y-115965291D01*
X141173513Y-115823158D01*
X141088042Y-115695241D01*
X141008599Y-115615798D01*
X145684081Y-115615798D01*
X145684081Y-115769642D01*
X145714094Y-115920529D01*
X145772968Y-116062662D01*
X145858439Y-116190579D01*
X145967222Y-116299362D01*
X146095139Y-116384833D01*
X146237272Y-116443707D01*
X146388159Y-116473720D01*
X146542003Y-116473720D01*
X146692890Y-116443707D01*
X146835023Y-116384833D01*
X146962940Y-116299362D01*
X147071723Y-116190579D01*
X147157194Y-116062662D01*
X147216068Y-115920529D01*
X147246081Y-115769642D01*
X147246081Y-115615798D01*
X147216068Y-115464911D01*
X147157194Y-115322778D01*
X147071723Y-115194861D01*
X146962940Y-115086078D01*
X146835023Y-115000607D01*
X146692890Y-114941733D01*
X146542003Y-114911720D01*
X146388159Y-114911720D01*
X146237272Y-114941733D01*
X146095139Y-115000607D01*
X145967222Y-115086078D01*
X145858439Y-115194861D01*
X145772968Y-115322778D01*
X145714094Y-115464911D01*
X145684081Y-115615798D01*
X141008599Y-115615798D01*
X140979259Y-115586458D01*
X140851342Y-115500987D01*
X140709209Y-115442113D01*
X140558322Y-115412100D01*
X140404478Y-115412100D01*
X140253591Y-115442113D01*
X140111458Y-115500987D01*
X139983541Y-115586458D01*
X139874758Y-115695241D01*
X139789287Y-115823158D01*
X139730413Y-115965291D01*
X139700400Y-116116178D01*
X137356000Y-116116178D01*
X137356000Y-114693778D01*
X150216000Y-114693778D01*
X150216000Y-114847622D01*
X150246013Y-114998509D01*
X150304887Y-115140642D01*
X150390358Y-115268559D01*
X150499141Y-115377342D01*
X150627058Y-115462813D01*
X150769191Y-115521687D01*
X150920078Y-115551700D01*
X151073922Y-115551700D01*
X151224809Y-115521687D01*
X151366942Y-115462813D01*
X151494859Y-115377342D01*
X151603642Y-115268559D01*
X151689113Y-115140642D01*
X151747987Y-114998509D01*
X151778000Y-114847622D01*
X151778000Y-114693778D01*
X151775474Y-114681078D01*
X152146400Y-114681078D01*
X152146400Y-114834922D01*
X152176413Y-114985809D01*
X152235287Y-115127942D01*
X152320758Y-115255859D01*
X152429541Y-115364642D01*
X152557458Y-115450113D01*
X152699591Y-115508987D01*
X152850478Y-115539000D01*
X153004322Y-115539000D01*
X153155209Y-115508987D01*
X153297342Y-115450113D01*
X153425259Y-115364642D01*
X153534042Y-115255859D01*
X153619513Y-115127942D01*
X153678387Y-114985809D01*
X153708400Y-114834922D01*
X153708400Y-114681078D01*
X153678387Y-114530191D01*
X153619513Y-114388058D01*
X153534042Y-114260141D01*
X153425259Y-114151358D01*
X153297342Y-114065887D01*
X153155209Y-114007013D01*
X153004322Y-113977000D01*
X152850478Y-113977000D01*
X152699591Y-114007013D01*
X152557458Y-114065887D01*
X152429541Y-114151358D01*
X152320758Y-114260141D01*
X152235287Y-114388058D01*
X152176413Y-114530191D01*
X152146400Y-114681078D01*
X151775474Y-114681078D01*
X151747987Y-114542891D01*
X151689113Y-114400758D01*
X151603642Y-114272841D01*
X151494859Y-114164058D01*
X151366942Y-114078587D01*
X151224809Y-114019713D01*
X151073922Y-113989700D01*
X150920078Y-113989700D01*
X150769191Y-114019713D01*
X150627058Y-114078587D01*
X150499141Y-114164058D01*
X150390358Y-114272841D01*
X150304887Y-114400758D01*
X150246013Y-114542891D01*
X150216000Y-114693778D01*
X137356000Y-114693778D01*
X137356000Y-113230738D01*
X139631820Y-113230738D01*
X139631820Y-113384582D01*
X139661833Y-113535469D01*
X139720707Y-113677602D01*
X139806178Y-113805519D01*
X139914961Y-113914302D01*
X140042878Y-113999773D01*
X140185011Y-114058647D01*
X140335898Y-114088660D01*
X140489742Y-114088660D01*
X140640629Y-114058647D01*
X140782762Y-113999773D01*
X140910679Y-113914302D01*
X141019462Y-113805519D01*
X141104933Y-113677602D01*
X141163807Y-113535469D01*
X141193820Y-113384582D01*
X141193820Y-113230738D01*
X141163807Y-113079851D01*
X141104933Y-112937718D01*
X141019462Y-112809801D01*
X140910679Y-112701018D01*
X140782762Y-112615547D01*
X140640629Y-112556673D01*
X140489742Y-112526660D01*
X140335898Y-112526660D01*
X140185011Y-112556673D01*
X140042878Y-112615547D01*
X139914961Y-112701018D01*
X139806178Y-112809801D01*
X139720707Y-112937718D01*
X139661833Y-113079851D01*
X139631820Y-113230738D01*
X137356000Y-113230738D01*
X137356000Y-112430608D01*
X137359102Y-112438097D01*
X137493820Y-112639717D01*
X137665283Y-112811180D01*
X137866903Y-112945898D01*
X138090931Y-113038693D01*
X138328757Y-113086000D01*
X138571243Y-113086000D01*
X138809069Y-113038693D01*
X139033097Y-112945898D01*
X139234717Y-112811180D01*
X139406180Y-112639717D01*
X139540898Y-112438097D01*
X139633693Y-112214069D01*
X139681000Y-111976243D01*
X139681000Y-111733757D01*
X139633693Y-111495931D01*
X139540898Y-111271903D01*
X139406180Y-111070283D01*
X139234717Y-110898820D01*
X139033097Y-110764102D01*
X138809069Y-110671307D01*
X138571243Y-110624000D01*
X138328757Y-110624000D01*
X138090931Y-110671307D01*
X137866903Y-110764102D01*
X137665283Y-110898820D01*
X137493820Y-111070283D01*
X137359102Y-111271903D01*
X137356000Y-111279392D01*
X137356000Y-109890608D01*
X137359102Y-109898097D01*
X137493820Y-110099717D01*
X137665283Y-110271180D01*
X137866903Y-110405898D01*
X138090931Y-110498693D01*
X138328757Y-110546000D01*
X138571243Y-110546000D01*
X138809069Y-110498693D01*
X139033097Y-110405898D01*
X139234717Y-110271180D01*
X139406180Y-110099717D01*
X139540898Y-109898097D01*
X139633693Y-109674069D01*
X139642599Y-109629295D01*
X143541941Y-109629295D01*
X143541941Y-109783139D01*
X143571954Y-109934026D01*
X143630828Y-110076159D01*
X143716299Y-110204076D01*
X143825082Y-110312859D01*
X143952999Y-110398330D01*
X144095132Y-110457204D01*
X144239380Y-110485896D01*
X144239380Y-110519462D01*
X144269393Y-110670349D01*
X144328267Y-110812482D01*
X144413738Y-110940399D01*
X144522521Y-111049182D01*
X144650438Y-111134653D01*
X144792571Y-111193527D01*
X144943458Y-111223540D01*
X145097302Y-111223540D01*
X145248189Y-111193527D01*
X145390322Y-111134653D01*
X145518239Y-111049182D01*
X145627022Y-110940399D01*
X145712493Y-110812482D01*
X145771367Y-110670349D01*
X145801380Y-110519462D01*
X145801380Y-110365618D01*
X145771367Y-110214731D01*
X145712493Y-110072598D01*
X145627022Y-109944681D01*
X145518239Y-109835898D01*
X145390322Y-109750427D01*
X145248189Y-109691553D01*
X145103941Y-109662861D01*
X145103941Y-109629295D01*
X145073928Y-109478408D01*
X145015054Y-109336275D01*
X144929583Y-109208358D01*
X144820800Y-109099575D01*
X144804321Y-109088564D01*
X157002314Y-109088564D01*
X157002314Y-109242408D01*
X157032327Y-109393295D01*
X157091201Y-109535428D01*
X157176672Y-109663345D01*
X157285455Y-109772128D01*
X157413372Y-109857599D01*
X157555505Y-109916473D01*
X157706392Y-109946486D01*
X157860236Y-109946486D01*
X158011123Y-109916473D01*
X158153256Y-109857599D01*
X158281173Y-109772128D01*
X158389956Y-109663345D01*
X158475427Y-109535428D01*
X158534301Y-109393295D01*
X158564314Y-109242408D01*
X158564314Y-109088564D01*
X158534301Y-108937677D01*
X158475427Y-108795544D01*
X158389956Y-108667627D01*
X158281173Y-108558844D01*
X158153256Y-108473373D01*
X158011123Y-108414499D01*
X157860236Y-108384486D01*
X157706392Y-108384486D01*
X157555505Y-108414499D01*
X157413372Y-108473373D01*
X157285455Y-108558844D01*
X157176672Y-108667627D01*
X157091201Y-108795544D01*
X157032327Y-108937677D01*
X157002314Y-109088564D01*
X144804321Y-109088564D01*
X144692883Y-109014104D01*
X144550750Y-108955230D01*
X144399863Y-108925217D01*
X144246019Y-108925217D01*
X144095132Y-108955230D01*
X143952999Y-109014104D01*
X143825082Y-109099575D01*
X143716299Y-109208358D01*
X143630828Y-109336275D01*
X143571954Y-109478408D01*
X143541941Y-109629295D01*
X139642599Y-109629295D01*
X139681000Y-109436243D01*
X139681000Y-109193757D01*
X139633693Y-108955931D01*
X139540898Y-108731903D01*
X139406180Y-108530283D01*
X139234717Y-108358820D01*
X139033097Y-108224102D01*
X138809069Y-108131307D01*
X138571243Y-108084000D01*
X138328757Y-108084000D01*
X138090931Y-108131307D01*
X137866903Y-108224102D01*
X137665283Y-108358820D01*
X137493820Y-108530283D01*
X137359102Y-108731903D01*
X137356000Y-108739392D01*
X137356000Y-107350608D01*
X137359102Y-107358097D01*
X137493820Y-107559717D01*
X137665283Y-107731180D01*
X137866903Y-107865898D01*
X138090931Y-107958693D01*
X138328757Y-108006000D01*
X138571243Y-108006000D01*
X138809069Y-107958693D01*
X139033097Y-107865898D01*
X139234717Y-107731180D01*
X139406180Y-107559717D01*
X139540898Y-107358097D01*
X139633693Y-107134069D01*
X139681000Y-106896243D01*
X139681000Y-106653757D01*
X139633693Y-106415931D01*
X139540898Y-106191903D01*
X139486707Y-106110800D01*
X142458522Y-106110800D01*
X142458522Y-106264644D01*
X142488535Y-106415531D01*
X142547409Y-106557664D01*
X142632880Y-106685581D01*
X142741663Y-106794364D01*
X142869580Y-106879835D01*
X143011713Y-106938709D01*
X143162600Y-106968722D01*
X143316444Y-106968722D01*
X143467331Y-106938709D01*
X143609464Y-106879835D01*
X143737381Y-106794364D01*
X143846164Y-106685581D01*
X143931635Y-106557664D01*
X143990509Y-106415531D01*
X144020522Y-106264644D01*
X144020522Y-106136518D01*
X145979280Y-106136518D01*
X145979280Y-106290362D01*
X146009293Y-106441249D01*
X146068167Y-106583382D01*
X146153638Y-106711299D01*
X146262421Y-106820082D01*
X146390338Y-106905553D01*
X146532471Y-106964427D01*
X146683358Y-106994440D01*
X146837202Y-106994440D01*
X146988089Y-106964427D01*
X147130222Y-106905553D01*
X147258139Y-106820082D01*
X147366922Y-106711299D01*
X147452393Y-106583382D01*
X147511267Y-106441249D01*
X147541280Y-106290362D01*
X147541280Y-106227958D01*
X150744320Y-106227958D01*
X150744320Y-106381802D01*
X150774333Y-106532689D01*
X150833207Y-106674822D01*
X150918678Y-106802739D01*
X151027461Y-106911522D01*
X151155378Y-106996993D01*
X151297511Y-107055867D01*
X151448398Y-107085880D01*
X151602242Y-107085880D01*
X151753129Y-107055867D01*
X151895262Y-106996993D01*
X152023179Y-106911522D01*
X152131962Y-106802739D01*
X152173886Y-106739995D01*
X152198838Y-106777339D01*
X152307621Y-106886122D01*
X152435538Y-106971593D01*
X152577671Y-107030467D01*
X152728558Y-107060480D01*
X152882402Y-107060480D01*
X152904934Y-107055998D01*
X156477100Y-107055998D01*
X156477100Y-107209842D01*
X156507113Y-107360729D01*
X156565987Y-107502862D01*
X156651458Y-107630779D01*
X156760241Y-107739562D01*
X156888158Y-107825033D01*
X157030291Y-107883907D01*
X157181178Y-107913920D01*
X157335022Y-107913920D01*
X157485909Y-107883907D01*
X157628042Y-107825033D01*
X157755959Y-107739562D01*
X157864742Y-107630779D01*
X157950213Y-107502862D01*
X158009087Y-107360729D01*
X158039100Y-107209842D01*
X158039100Y-107055998D01*
X158009087Y-106905111D01*
X157950213Y-106762978D01*
X157864742Y-106635061D01*
X157755959Y-106526278D01*
X157628042Y-106440807D01*
X157485909Y-106381933D01*
X157335022Y-106351920D01*
X157181178Y-106351920D01*
X157030291Y-106381933D01*
X156888158Y-106440807D01*
X156760241Y-106526278D01*
X156651458Y-106635061D01*
X156565987Y-106762978D01*
X156507113Y-106905111D01*
X156477100Y-107055998D01*
X152904934Y-107055998D01*
X153033289Y-107030467D01*
X153175422Y-106971593D01*
X153303339Y-106886122D01*
X153412122Y-106777339D01*
X153497593Y-106649422D01*
X153556467Y-106507289D01*
X153586480Y-106356402D01*
X153586480Y-106202558D01*
X153556467Y-106051671D01*
X153497593Y-105909538D01*
X153412122Y-105781621D01*
X153303339Y-105672838D01*
X153175422Y-105587367D01*
X153033289Y-105528493D01*
X152882402Y-105498480D01*
X152728558Y-105498480D01*
X152577671Y-105528493D01*
X152435538Y-105587367D01*
X152307621Y-105672838D01*
X152198838Y-105781621D01*
X152156914Y-105844365D01*
X152131962Y-105807021D01*
X152023179Y-105698238D01*
X151895262Y-105612767D01*
X151753129Y-105553893D01*
X151602242Y-105523880D01*
X151448398Y-105523880D01*
X151297511Y-105553893D01*
X151155378Y-105612767D01*
X151027461Y-105698238D01*
X150918678Y-105807021D01*
X150833207Y-105934938D01*
X150774333Y-106077071D01*
X150744320Y-106227958D01*
X147541280Y-106227958D01*
X147541280Y-106136518D01*
X147511267Y-105985631D01*
X147452393Y-105843498D01*
X147366922Y-105715581D01*
X147258139Y-105606798D01*
X147130222Y-105521327D01*
X146988089Y-105462453D01*
X146837202Y-105432440D01*
X146683358Y-105432440D01*
X146532471Y-105462453D01*
X146390338Y-105521327D01*
X146262421Y-105606798D01*
X146153638Y-105715581D01*
X146068167Y-105843498D01*
X146009293Y-105985631D01*
X145979280Y-106136518D01*
X144020522Y-106136518D01*
X144020522Y-106110800D01*
X143990509Y-105959913D01*
X143931635Y-105817780D01*
X143846164Y-105689863D01*
X143737381Y-105581080D01*
X143609464Y-105495609D01*
X143467331Y-105436735D01*
X143316444Y-105406722D01*
X143162600Y-105406722D01*
X143011713Y-105436735D01*
X142869580Y-105495609D01*
X142741663Y-105581080D01*
X142632880Y-105689863D01*
X142547409Y-105817780D01*
X142488535Y-105959913D01*
X142458522Y-106110800D01*
X139486707Y-106110800D01*
X139406180Y-105990283D01*
X139234717Y-105818820D01*
X139033097Y-105684102D01*
X138809069Y-105591307D01*
X138571243Y-105544000D01*
X138328757Y-105544000D01*
X138090931Y-105591307D01*
X137866903Y-105684102D01*
X137665283Y-105818820D01*
X137493820Y-105990283D01*
X137359102Y-106191903D01*
X137356000Y-106199392D01*
X137356000Y-104810608D01*
X137359102Y-104818097D01*
X137493820Y-105019717D01*
X137665283Y-105191180D01*
X137866903Y-105325898D01*
X138090931Y-105418693D01*
X138328757Y-105466000D01*
X138571243Y-105466000D01*
X138809069Y-105418693D01*
X139033097Y-105325898D01*
X139234717Y-105191180D01*
X139406180Y-105019717D01*
X139484783Y-104902078D01*
X148819000Y-104902078D01*
X148819000Y-105055922D01*
X148849013Y-105206809D01*
X148907887Y-105348942D01*
X148993358Y-105476859D01*
X149102141Y-105585642D01*
X149230058Y-105671113D01*
X149372191Y-105729987D01*
X149523078Y-105760000D01*
X149676922Y-105760000D01*
X149827809Y-105729987D01*
X149969942Y-105671113D01*
X150097859Y-105585642D01*
X150206642Y-105476859D01*
X150292113Y-105348942D01*
X150350987Y-105206809D01*
X150381000Y-105055922D01*
X150381000Y-104902078D01*
X150350987Y-104751191D01*
X150292113Y-104609058D01*
X150206642Y-104481141D01*
X150097859Y-104372358D01*
X149969942Y-104286887D01*
X149827809Y-104228013D01*
X149676922Y-104198000D01*
X149523078Y-104198000D01*
X149372191Y-104228013D01*
X149230058Y-104286887D01*
X149102141Y-104372358D01*
X148993358Y-104481141D01*
X148907887Y-104609058D01*
X148849013Y-104751191D01*
X148819000Y-104902078D01*
X139484783Y-104902078D01*
X139540898Y-104818097D01*
X139633693Y-104594069D01*
X139681000Y-104356243D01*
X139681000Y-104113757D01*
X139650869Y-103962278D01*
X142596000Y-103962278D01*
X142596000Y-104116122D01*
X142626013Y-104267009D01*
X142684887Y-104409142D01*
X142770358Y-104537059D01*
X142879141Y-104645842D01*
X143007058Y-104731313D01*
X143149191Y-104790187D01*
X143300078Y-104820200D01*
X143453922Y-104820200D01*
X143604809Y-104790187D01*
X143746942Y-104731313D01*
X143874859Y-104645842D01*
X143983642Y-104537059D01*
X144069113Y-104409142D01*
X144127987Y-104267009D01*
X144158000Y-104116122D01*
X144158000Y-103962278D01*
X144127987Y-103811391D01*
X144085276Y-103708278D01*
X154681320Y-103708278D01*
X154681320Y-103862122D01*
X154711333Y-104013009D01*
X154770207Y-104155142D01*
X154855678Y-104283059D01*
X154964461Y-104391842D01*
X155092378Y-104477313D01*
X155234511Y-104536187D01*
X155385398Y-104566200D01*
X155539242Y-104566200D01*
X155690129Y-104536187D01*
X155832262Y-104477313D01*
X155960179Y-104391842D01*
X156068962Y-104283059D01*
X156154433Y-104155142D01*
X156213307Y-104013009D01*
X156243320Y-103862122D01*
X156243320Y-103708278D01*
X156213307Y-103557391D01*
X156154433Y-103415258D01*
X156068962Y-103287341D01*
X155960179Y-103178558D01*
X155832262Y-103093087D01*
X155690129Y-103034213D01*
X155539242Y-103004200D01*
X155385398Y-103004200D01*
X155234511Y-103034213D01*
X155092378Y-103093087D01*
X154964461Y-103178558D01*
X154855678Y-103287341D01*
X154770207Y-103415258D01*
X154711333Y-103557391D01*
X154681320Y-103708278D01*
X144085276Y-103708278D01*
X144069113Y-103669258D01*
X143983642Y-103541341D01*
X143874859Y-103432558D01*
X143746942Y-103347087D01*
X143604809Y-103288213D01*
X143453922Y-103258200D01*
X143300078Y-103258200D01*
X143149191Y-103288213D01*
X143007058Y-103347087D01*
X142879141Y-103432558D01*
X142770358Y-103541341D01*
X142684887Y-103669258D01*
X142626013Y-103811391D01*
X142596000Y-103962278D01*
X139650869Y-103962278D01*
X139633693Y-103875931D01*
X139540898Y-103651903D01*
X139406180Y-103450283D01*
X139234717Y-103278820D01*
X139033097Y-103144102D01*
X138809069Y-103051307D01*
X138571243Y-103004000D01*
X138328757Y-103004000D01*
X138090931Y-103051307D01*
X137866903Y-103144102D01*
X137665283Y-103278820D01*
X137493820Y-103450283D01*
X137359102Y-103651903D01*
X137356000Y-103659392D01*
X137356000Y-102270608D01*
X137359102Y-102278097D01*
X137493820Y-102479717D01*
X137665283Y-102651180D01*
X137866903Y-102785898D01*
X138090931Y-102878693D01*
X138328757Y-102926000D01*
X138571243Y-102926000D01*
X138809069Y-102878693D01*
X139033097Y-102785898D01*
X139234717Y-102651180D01*
X139406180Y-102479717D01*
X139540898Y-102278097D01*
X139633693Y-102054069D01*
X139681000Y-101816243D01*
X139681000Y-101573757D01*
X139633693Y-101335931D01*
X139540898Y-101111903D01*
X139406180Y-100910283D01*
X139234717Y-100738820D01*
X139033097Y-100604102D01*
X138809069Y-100511307D01*
X138571243Y-100464000D01*
X138328757Y-100464000D01*
X138090931Y-100511307D01*
X137866903Y-100604102D01*
X137665283Y-100738820D01*
X137493820Y-100910283D01*
X137359102Y-101111903D01*
X137356000Y-101119392D01*
X137356000Y-99730608D01*
X137359102Y-99738097D01*
X137493820Y-99939717D01*
X137665283Y-100111180D01*
X137866903Y-100245898D01*
X138090931Y-100338693D01*
X138328757Y-100386000D01*
X138571243Y-100386000D01*
X138809069Y-100338693D01*
X139033097Y-100245898D01*
X139234717Y-100111180D01*
X139406180Y-99939717D01*
X139540898Y-99738097D01*
X139633693Y-99514069D01*
X139670947Y-99326778D01*
X148057000Y-99326778D01*
X148057000Y-99480622D01*
X148087013Y-99631509D01*
X148145887Y-99773642D01*
X148231358Y-99901559D01*
X148340141Y-100010342D01*
X148468058Y-100095813D01*
X148610191Y-100154687D01*
X148761078Y-100184700D01*
X148914922Y-100184700D01*
X149065809Y-100154687D01*
X149207942Y-100095813D01*
X149335859Y-100010342D01*
X149444642Y-99901559D01*
X149530113Y-99773642D01*
X149588987Y-99631509D01*
X149619000Y-99480622D01*
X149619000Y-99326778D01*
X149588987Y-99175891D01*
X149530113Y-99033758D01*
X149444642Y-98905841D01*
X149335859Y-98797058D01*
X149207942Y-98711587D01*
X149065809Y-98652713D01*
X148914922Y-98622700D01*
X148761078Y-98622700D01*
X148610191Y-98652713D01*
X148468058Y-98711587D01*
X148340141Y-98797058D01*
X148231358Y-98905841D01*
X148145887Y-99033758D01*
X148087013Y-99175891D01*
X148057000Y-99326778D01*
X139670947Y-99326778D01*
X139681000Y-99276243D01*
X139681000Y-99033757D01*
X139633693Y-98795931D01*
X139540898Y-98571903D01*
X139406180Y-98370283D01*
X139234717Y-98198820D01*
X139033097Y-98064102D01*
X138809069Y-97971307D01*
X138571243Y-97924000D01*
X138328757Y-97924000D01*
X138090931Y-97971307D01*
X137866903Y-98064102D01*
X137665283Y-98198820D01*
X137493820Y-98370283D01*
X137359102Y-98571903D01*
X137356000Y-98579392D01*
X137356000Y-97190608D01*
X137359102Y-97198097D01*
X137493820Y-97399717D01*
X137665283Y-97571180D01*
X137866903Y-97705898D01*
X138090931Y-97798693D01*
X138328757Y-97846000D01*
X138571243Y-97846000D01*
X138809069Y-97798693D01*
X139033097Y-97705898D01*
X139234717Y-97571180D01*
X139406180Y-97399717D01*
X139540898Y-97198097D01*
X139632902Y-96975978D01*
X150431500Y-96975978D01*
X150431500Y-97129822D01*
X150461513Y-97280709D01*
X150520387Y-97422842D01*
X150605858Y-97550759D01*
X150714641Y-97659542D01*
X150842558Y-97745013D01*
X150984691Y-97803887D01*
X151135578Y-97833900D01*
X151289422Y-97833900D01*
X151440309Y-97803887D01*
X151582442Y-97745013D01*
X151710359Y-97659542D01*
X151819142Y-97550759D01*
X151904613Y-97422842D01*
X151963487Y-97280709D01*
X151993500Y-97129822D01*
X151993500Y-96975978D01*
X151963487Y-96825091D01*
X151904613Y-96682958D01*
X151819142Y-96555041D01*
X151710359Y-96446258D01*
X151582442Y-96360787D01*
X151440309Y-96301913D01*
X151289422Y-96271900D01*
X151135578Y-96271900D01*
X150984691Y-96301913D01*
X150842558Y-96360787D01*
X150714641Y-96446258D01*
X150605858Y-96555041D01*
X150520387Y-96682958D01*
X150461513Y-96825091D01*
X150431500Y-96975978D01*
X139632902Y-96975978D01*
X139633693Y-96974069D01*
X139681000Y-96736243D01*
X139681000Y-96493757D01*
X139633693Y-96255931D01*
X139540898Y-96031903D01*
X139406180Y-95830283D01*
X139234717Y-95658820D01*
X139033097Y-95524102D01*
X138809069Y-95431307D01*
X138571243Y-95384000D01*
X138328757Y-95384000D01*
X138090931Y-95431307D01*
X137866903Y-95524102D01*
X137665283Y-95658820D01*
X137493820Y-95830283D01*
X137359102Y-96031903D01*
X137356000Y-96039392D01*
X137356000Y-94650608D01*
X137359102Y-94658097D01*
X137493820Y-94859717D01*
X137665283Y-95031180D01*
X137866903Y-95165898D01*
X138090931Y-95258693D01*
X138328757Y-95306000D01*
X138571243Y-95306000D01*
X138809069Y-95258693D01*
X139033097Y-95165898D01*
X139234717Y-95031180D01*
X139406180Y-94859717D01*
X139540898Y-94658097D01*
X139632363Y-94437278D01*
X146380600Y-94437278D01*
X146380600Y-94591122D01*
X146410613Y-94742009D01*
X146469487Y-94884142D01*
X146554958Y-95012059D01*
X146663741Y-95120842D01*
X146791658Y-95206313D01*
X146933791Y-95265187D01*
X147084678Y-95295200D01*
X147238522Y-95295200D01*
X147389409Y-95265187D01*
X147531542Y-95206313D01*
X147659459Y-95120842D01*
X147768242Y-95012059D01*
X147853713Y-94884142D01*
X147912587Y-94742009D01*
X147942600Y-94591122D01*
X147942600Y-94437278D01*
X147912587Y-94286391D01*
X147853713Y-94144258D01*
X147768242Y-94016341D01*
X147659459Y-93907558D01*
X147531542Y-93822087D01*
X147389409Y-93763213D01*
X147238522Y-93733200D01*
X147084678Y-93733200D01*
X146933791Y-93763213D01*
X146791658Y-93822087D01*
X146663741Y-93907558D01*
X146554958Y-94016341D01*
X146469487Y-94144258D01*
X146410613Y-94286391D01*
X146380600Y-94437278D01*
X139632363Y-94437278D01*
X139633693Y-94434069D01*
X139681000Y-94196243D01*
X139681000Y-93953757D01*
X139633693Y-93715931D01*
X139540898Y-93491903D01*
X139406180Y-93290283D01*
X139234717Y-93118820D01*
X139033097Y-92984102D01*
X138809069Y-92891307D01*
X138571243Y-92844000D01*
X138328757Y-92844000D01*
X138090931Y-92891307D01*
X137866903Y-92984102D01*
X137665283Y-93118820D01*
X137493820Y-93290283D01*
X137359102Y-93491903D01*
X137356000Y-93499392D01*
X137356000Y-92110608D01*
X137359102Y-92118097D01*
X137493820Y-92319717D01*
X137665283Y-92491180D01*
X137866903Y-92625898D01*
X138090931Y-92718693D01*
X138328757Y-92766000D01*
X138571243Y-92766000D01*
X138809069Y-92718693D01*
X139033097Y-92625898D01*
X139234717Y-92491180D01*
X139406180Y-92319717D01*
X139540898Y-92118097D01*
X139586071Y-92009038D01*
X158191600Y-92009038D01*
X158191600Y-92162882D01*
X158221613Y-92313769D01*
X158280487Y-92455902D01*
X158365958Y-92583819D01*
X158474741Y-92692602D01*
X158602658Y-92778073D01*
X158744791Y-92836947D01*
X158895678Y-92866960D01*
X159049522Y-92866960D01*
X159200409Y-92836947D01*
X159342542Y-92778073D01*
X159470459Y-92692602D01*
X159579242Y-92583819D01*
X159664713Y-92455902D01*
X159723587Y-92313769D01*
X159753600Y-92162882D01*
X159753600Y-92009038D01*
X159723587Y-91858151D01*
X159664713Y-91716018D01*
X159579242Y-91588101D01*
X159470459Y-91479318D01*
X159342542Y-91393847D01*
X159200409Y-91334973D01*
X159049522Y-91304960D01*
X158895678Y-91304960D01*
X158744791Y-91334973D01*
X158602658Y-91393847D01*
X158474741Y-91479318D01*
X158365958Y-91588101D01*
X158280487Y-91716018D01*
X158221613Y-91858151D01*
X158191600Y-92009038D01*
X139586071Y-92009038D01*
X139633693Y-91894069D01*
X139681000Y-91656243D01*
X139681000Y-91413757D01*
X139633693Y-91175931D01*
X139540898Y-90951903D01*
X139406180Y-90750283D01*
X139234717Y-90578820D01*
X139033097Y-90444102D01*
X138809069Y-90351307D01*
X138571243Y-90304000D01*
X138328757Y-90304000D01*
X138090931Y-90351307D01*
X137866903Y-90444102D01*
X137665283Y-90578820D01*
X137493820Y-90750283D01*
X137359102Y-90951903D01*
X137356000Y-90959392D01*
X137356000Y-89570608D01*
X137359102Y-89578097D01*
X137493820Y-89779717D01*
X137665283Y-89951180D01*
X137866903Y-90085898D01*
X138090931Y-90178693D01*
X138328757Y-90226000D01*
X138571243Y-90226000D01*
X138809069Y-90178693D01*
X139033097Y-90085898D01*
X139234717Y-89951180D01*
X139406180Y-89779717D01*
X139540898Y-89578097D01*
X139633693Y-89354069D01*
X139681000Y-89116243D01*
X139681000Y-88873757D01*
X139633693Y-88635931D01*
X139540898Y-88411903D01*
X139406180Y-88210283D01*
X139234717Y-88038820D01*
X139033097Y-87904102D01*
X138809069Y-87811307D01*
X138571243Y-87764000D01*
X138328757Y-87764000D01*
X138090931Y-87811307D01*
X137866903Y-87904102D01*
X137665283Y-88038820D01*
X137493820Y-88210283D01*
X137359102Y-88411903D01*
X137356000Y-88419392D01*
X137356000Y-87030608D01*
X137359102Y-87038097D01*
X137493820Y-87239717D01*
X137665283Y-87411180D01*
X137866903Y-87545898D01*
X138090931Y-87638693D01*
X138328757Y-87686000D01*
X138571243Y-87686000D01*
X138809069Y-87638693D01*
X138848263Y-87622458D01*
X142816980Y-87622458D01*
X142816980Y-87776302D01*
X142846993Y-87927189D01*
X142905867Y-88069322D01*
X142991338Y-88197239D01*
X143100121Y-88306022D01*
X143228038Y-88391493D01*
X143370171Y-88450367D01*
X143521058Y-88480380D01*
X143674902Y-88480380D01*
X143825789Y-88450367D01*
X143967922Y-88391493D01*
X144095839Y-88306022D01*
X144204622Y-88197239D01*
X144290093Y-88069322D01*
X144348967Y-87927189D01*
X144378980Y-87776302D01*
X144378980Y-87622458D01*
X144348967Y-87471571D01*
X144290093Y-87329438D01*
X144204622Y-87201521D01*
X144095839Y-87092738D01*
X143967922Y-87007267D01*
X143825789Y-86948393D01*
X143807426Y-86944740D01*
X143835949Y-86939067D01*
X143978082Y-86880193D01*
X144105999Y-86794722D01*
X144214782Y-86685939D01*
X144300253Y-86558022D01*
X144359127Y-86415889D01*
X144389140Y-86265002D01*
X144389140Y-86111158D01*
X144388635Y-86108618D01*
X144939390Y-86108618D01*
X144939390Y-86262462D01*
X144969403Y-86413349D01*
X145028277Y-86555482D01*
X145113748Y-86683399D01*
X145222531Y-86792182D01*
X145350448Y-86877653D01*
X145492581Y-86936527D01*
X145643468Y-86966540D01*
X145797312Y-86966540D01*
X145948199Y-86936527D01*
X146090332Y-86877653D01*
X146218249Y-86792182D01*
X146327032Y-86683399D01*
X146412503Y-86555482D01*
X146471377Y-86413349D01*
X146501390Y-86262462D01*
X146501390Y-86108618D01*
X146493812Y-86070518D01*
X156342480Y-86070518D01*
X156342480Y-86224362D01*
X156372493Y-86375249D01*
X156431367Y-86517382D01*
X156516838Y-86645299D01*
X156625621Y-86754082D01*
X156753538Y-86839553D01*
X156895671Y-86898427D01*
X156997001Y-86918583D01*
X156898211Y-86938233D01*
X156756078Y-86997107D01*
X156628161Y-87082578D01*
X156519378Y-87191361D01*
X156433907Y-87319278D01*
X156375033Y-87461411D01*
X156345020Y-87612298D01*
X156345020Y-87766142D01*
X156375033Y-87917029D01*
X156433907Y-88059162D01*
X156519378Y-88187079D01*
X156628161Y-88295862D01*
X156756078Y-88381333D01*
X156889803Y-88436724D01*
X156753540Y-88493167D01*
X156625623Y-88578638D01*
X156516840Y-88687421D01*
X156431369Y-88815338D01*
X156372495Y-88957471D01*
X156342482Y-89108358D01*
X156342482Y-89262202D01*
X156372495Y-89413089D01*
X156431369Y-89555222D01*
X156516840Y-89683139D01*
X156625623Y-89791922D01*
X156753540Y-89877393D01*
X156895673Y-89936267D01*
X157046560Y-89966280D01*
X157200404Y-89966280D01*
X157351291Y-89936267D01*
X157493424Y-89877393D01*
X157621341Y-89791922D01*
X157730124Y-89683139D01*
X157815595Y-89555222D01*
X157874469Y-89413089D01*
X157904482Y-89262202D01*
X157904482Y-89108358D01*
X157874469Y-88957471D01*
X157815595Y-88815338D01*
X157730124Y-88687421D01*
X157621341Y-88578638D01*
X157493424Y-88493167D01*
X157359699Y-88437776D01*
X157495962Y-88381333D01*
X157623879Y-88295862D01*
X157732662Y-88187079D01*
X157818133Y-88059162D01*
X157877007Y-87917029D01*
X157907020Y-87766142D01*
X157907020Y-87612298D01*
X157877007Y-87461411D01*
X157818133Y-87319278D01*
X157732662Y-87191361D01*
X157623879Y-87082578D01*
X157495962Y-86997107D01*
X157353829Y-86938233D01*
X157252499Y-86918077D01*
X157351289Y-86898427D01*
X157493422Y-86839553D01*
X157621339Y-86754082D01*
X157730122Y-86645299D01*
X157815593Y-86517382D01*
X157874467Y-86375249D01*
X157904480Y-86224362D01*
X157904480Y-86070518D01*
X157874467Y-85919631D01*
X157815593Y-85777498D01*
X157730122Y-85649581D01*
X157621339Y-85540798D01*
X157493422Y-85455327D01*
X157428856Y-85428583D01*
X157523902Y-85389213D01*
X157651819Y-85303742D01*
X157760602Y-85194959D01*
X157846073Y-85067042D01*
X157904947Y-84924909D01*
X157934960Y-84774022D01*
X157934960Y-84620178D01*
X157904947Y-84469291D01*
X157846073Y-84327158D01*
X157760602Y-84199241D01*
X157651819Y-84090458D01*
X157523902Y-84004987D01*
X157381769Y-83946113D01*
X157230882Y-83916100D01*
X157077038Y-83916100D01*
X156926151Y-83946113D01*
X156784018Y-84004987D01*
X156656101Y-84090458D01*
X156547318Y-84199241D01*
X156461847Y-84327158D01*
X156402973Y-84469291D01*
X156372960Y-84620178D01*
X156372960Y-84774022D01*
X156402973Y-84924909D01*
X156461847Y-85067042D01*
X156547318Y-85194959D01*
X156656101Y-85303742D01*
X156784018Y-85389213D01*
X156848584Y-85415957D01*
X156753538Y-85455327D01*
X156625621Y-85540798D01*
X156516838Y-85649581D01*
X156431367Y-85777498D01*
X156372493Y-85919631D01*
X156342480Y-86070518D01*
X146493812Y-86070518D01*
X146471377Y-85957731D01*
X146412503Y-85815598D01*
X146327032Y-85687681D01*
X146218249Y-85578898D01*
X146090332Y-85493427D01*
X145948199Y-85434553D01*
X145797312Y-85404540D01*
X145643468Y-85404540D01*
X145492581Y-85434553D01*
X145350448Y-85493427D01*
X145222531Y-85578898D01*
X145113748Y-85687681D01*
X145028277Y-85815598D01*
X144969403Y-85957731D01*
X144939390Y-86108618D01*
X144388635Y-86108618D01*
X144359127Y-85960271D01*
X144300253Y-85818138D01*
X144214782Y-85690221D01*
X144105999Y-85581438D01*
X143978082Y-85495967D01*
X143882420Y-85456342D01*
X143983162Y-85414613D01*
X144111079Y-85329142D01*
X144219862Y-85220359D01*
X144305333Y-85092442D01*
X144364207Y-84950309D01*
X144394220Y-84799422D01*
X144394220Y-84645578D01*
X144364207Y-84494691D01*
X144305333Y-84352558D01*
X144219862Y-84224641D01*
X144111079Y-84115858D01*
X143983162Y-84030387D01*
X143841029Y-83971513D01*
X143690142Y-83941500D01*
X143536298Y-83941500D01*
X143385411Y-83971513D01*
X143243278Y-84030387D01*
X143115361Y-84115858D01*
X143006578Y-84224641D01*
X142921107Y-84352558D01*
X142862233Y-84494691D01*
X142832220Y-84645578D01*
X142832220Y-84799422D01*
X142862233Y-84950309D01*
X142921107Y-85092442D01*
X143006578Y-85220359D01*
X143115361Y-85329142D01*
X143243278Y-85414613D01*
X143338940Y-85454238D01*
X143238198Y-85495967D01*
X143110281Y-85581438D01*
X143001498Y-85690221D01*
X142916027Y-85818138D01*
X142857153Y-85960271D01*
X142827140Y-86111158D01*
X142827140Y-86265002D01*
X142857153Y-86415889D01*
X142916027Y-86558022D01*
X143001498Y-86685939D01*
X143110281Y-86794722D01*
X143238198Y-86880193D01*
X143380331Y-86939067D01*
X143398694Y-86942720D01*
X143370171Y-86948393D01*
X143228038Y-87007267D01*
X143100121Y-87092738D01*
X142991338Y-87201521D01*
X142905867Y-87329438D01*
X142846993Y-87471571D01*
X142816980Y-87622458D01*
X138848263Y-87622458D01*
X139033097Y-87545898D01*
X139234717Y-87411180D01*
X139406180Y-87239717D01*
X139540898Y-87038097D01*
X139633693Y-86814069D01*
X139681000Y-86576243D01*
X139681000Y-86333757D01*
X139633693Y-86095931D01*
X139540898Y-85871903D01*
X139406180Y-85670283D01*
X139234717Y-85498820D01*
X139033097Y-85364102D01*
X138809069Y-85271307D01*
X138571243Y-85224000D01*
X138328757Y-85224000D01*
X138090931Y-85271307D01*
X137866903Y-85364102D01*
X137665283Y-85498820D01*
X137493820Y-85670283D01*
X137359102Y-85871903D01*
X137356000Y-85879392D01*
X137356000Y-84490608D01*
X137359102Y-84498097D01*
X137493820Y-84699717D01*
X137665283Y-84871180D01*
X137866903Y-85005898D01*
X138090931Y-85098693D01*
X138328757Y-85146000D01*
X138571243Y-85146000D01*
X138809069Y-85098693D01*
X139033097Y-85005898D01*
X139234717Y-84871180D01*
X139406180Y-84699717D01*
X139540898Y-84498097D01*
X139633693Y-84274069D01*
X139681000Y-84036243D01*
X139681000Y-83793757D01*
X139633693Y-83555931D01*
X139540898Y-83331903D01*
X139406180Y-83130283D01*
X139234717Y-82958820D01*
X139033097Y-82824102D01*
X138809069Y-82731307D01*
X138571243Y-82684000D01*
X138328757Y-82684000D01*
X138090931Y-82731307D01*
X137866903Y-82824102D01*
X137665283Y-82958820D01*
X137493820Y-83130283D01*
X137359102Y-83331903D01*
X137356000Y-83339392D01*
X137356000Y-81950608D01*
X137359102Y-81958097D01*
X137493820Y-82159717D01*
X137665283Y-82331180D01*
X137866903Y-82465898D01*
X138090931Y-82558693D01*
X138328757Y-82606000D01*
X138571243Y-82606000D01*
X138809069Y-82558693D01*
X139033097Y-82465898D01*
X139234717Y-82331180D01*
X139406180Y-82159717D01*
X139540898Y-81958097D01*
X139633693Y-81734069D01*
X139681000Y-81496243D01*
X139681000Y-81253757D01*
X139633693Y-81015931D01*
X139540898Y-80791903D01*
X139406180Y-80590283D01*
X139234717Y-80418820D01*
X139033097Y-80284102D01*
X138809069Y-80191307D01*
X138571243Y-80144000D01*
X138328757Y-80144000D01*
X138090931Y-80191307D01*
X137866903Y-80284102D01*
X137665283Y-80418820D01*
X137493820Y-80590283D01*
X137359102Y-80791903D01*
X137356000Y-80799392D01*
X137356000Y-79410608D01*
X137359102Y-79418097D01*
X137493820Y-79619717D01*
X137665283Y-79791180D01*
X137866903Y-79925898D01*
X138090931Y-80018693D01*
X138328757Y-80066000D01*
X138571243Y-80066000D01*
X138809069Y-80018693D01*
X139033097Y-79925898D01*
X139234717Y-79791180D01*
X139406180Y-79619717D01*
X139540898Y-79418097D01*
X139633693Y-79194069D01*
X139681000Y-78956243D01*
X139681000Y-78713757D01*
X139633693Y-78475931D01*
X139540898Y-78251903D01*
X139406180Y-78050283D01*
X139234717Y-77878820D01*
X139033097Y-77744102D01*
X138809069Y-77651307D01*
X138571243Y-77604000D01*
X138328757Y-77604000D01*
X138090931Y-77651307D01*
X137866903Y-77744102D01*
X137665283Y-77878820D01*
X137493820Y-78050283D01*
X137359102Y-78251903D01*
X137356000Y-78259392D01*
X137356000Y-76870608D01*
X137359102Y-76878097D01*
X137493820Y-77079717D01*
X137665283Y-77251180D01*
X137866903Y-77385898D01*
X138090931Y-77478693D01*
X138328757Y-77526000D01*
X138571243Y-77526000D01*
X138809069Y-77478693D01*
X139033097Y-77385898D01*
X139234717Y-77251180D01*
X139406180Y-77079717D01*
X139540898Y-76878097D01*
X139633693Y-76654069D01*
X139681000Y-76416243D01*
X139681000Y-76173757D01*
X139633693Y-75935931D01*
X139540898Y-75711903D01*
X139406180Y-75510283D01*
X139234717Y-75338820D01*
X139033097Y-75204102D01*
X138809069Y-75111307D01*
X138571243Y-75064000D01*
X138328757Y-75064000D01*
X138090931Y-75111307D01*
X137866903Y-75204102D01*
X137665283Y-75338820D01*
X137493820Y-75510283D01*
X137359102Y-75711903D01*
X137356000Y-75719392D01*
X137356000Y-74330608D01*
X137359102Y-74338097D01*
X137493820Y-74539717D01*
X137665283Y-74711180D01*
X137866903Y-74845898D01*
X138090931Y-74938693D01*
X138328757Y-74986000D01*
X138571243Y-74986000D01*
X138809069Y-74938693D01*
X139033097Y-74845898D01*
X139234717Y-74711180D01*
X139406180Y-74539717D01*
X139540898Y-74338097D01*
X139633693Y-74114069D01*
X139681000Y-73876243D01*
X139681000Y-73829378D01*
X146473700Y-73829378D01*
X146473700Y-73983222D01*
X146503713Y-74134109D01*
X146562587Y-74276242D01*
X146648058Y-74404159D01*
X146756841Y-74512942D01*
X146884758Y-74598413D01*
X147024508Y-74656300D01*
X146884758Y-74714187D01*
X146756841Y-74799658D01*
X146648058Y-74908441D01*
X146562587Y-75036358D01*
X146503713Y-75178491D01*
X146473700Y-75329378D01*
X146473700Y-75483222D01*
X146503713Y-75634109D01*
X146562587Y-75776242D01*
X146648058Y-75904159D01*
X146756841Y-76012942D01*
X146884758Y-76098413D01*
X147024508Y-76156300D01*
X146884758Y-76214187D01*
X146756841Y-76299658D01*
X146648058Y-76408441D01*
X146562587Y-76536358D01*
X146503713Y-76678491D01*
X146473700Y-76829378D01*
X146473700Y-76983222D01*
X146503713Y-77134109D01*
X146562587Y-77276242D01*
X146648058Y-77404159D01*
X146756841Y-77512942D01*
X146884758Y-77598413D01*
X147024508Y-77656300D01*
X146884758Y-77714187D01*
X146756841Y-77799658D01*
X146648058Y-77908441D01*
X146562587Y-78036358D01*
X146503713Y-78178491D01*
X146473700Y-78329378D01*
X146473700Y-78483222D01*
X146503713Y-78634109D01*
X146562587Y-78776242D01*
X146648058Y-78904159D01*
X146756841Y-79012942D01*
X146884758Y-79098413D01*
X147026891Y-79157287D01*
X147177778Y-79187300D01*
X147331622Y-79187300D01*
X147482509Y-79157287D01*
X147624642Y-79098413D01*
X147752559Y-79012942D01*
X147861342Y-78904159D01*
X147946813Y-78776242D01*
X148004700Y-78636492D01*
X148062587Y-78776242D01*
X148148058Y-78904159D01*
X148256841Y-79012942D01*
X148384758Y-79098413D01*
X148526891Y-79157287D01*
X148677778Y-79187300D01*
X148831622Y-79187300D01*
X148982509Y-79157287D01*
X149124642Y-79098413D01*
X149252559Y-79012942D01*
X149361342Y-78904159D01*
X149446813Y-78776242D01*
X149504700Y-78636492D01*
X149562587Y-78776242D01*
X149648058Y-78904159D01*
X149756841Y-79012942D01*
X149884758Y-79098413D01*
X150026891Y-79157287D01*
X150177778Y-79187300D01*
X150331622Y-79187300D01*
X150482509Y-79157287D01*
X150624642Y-79098413D01*
X150752559Y-79012942D01*
X150861342Y-78904159D01*
X150946813Y-78776242D01*
X151004700Y-78636492D01*
X151062587Y-78776242D01*
X151148058Y-78904159D01*
X151256841Y-79012942D01*
X151384758Y-79098413D01*
X151526891Y-79157287D01*
X151677778Y-79187300D01*
X151831622Y-79187300D01*
X151982509Y-79157287D01*
X152124642Y-79098413D01*
X152252559Y-79012942D01*
X152361342Y-78904159D01*
X152446813Y-78776242D01*
X152505687Y-78634109D01*
X152535700Y-78483222D01*
X152535700Y-78329378D01*
X152505687Y-78178491D01*
X152446813Y-78036358D01*
X152361342Y-77908441D01*
X152252559Y-77799658D01*
X152124642Y-77714187D01*
X151984892Y-77656300D01*
X152124642Y-77598413D01*
X152252559Y-77512942D01*
X152361342Y-77404159D01*
X152446813Y-77276242D01*
X152505687Y-77134109D01*
X152535700Y-76983222D01*
X152535700Y-76829378D01*
X152505687Y-76678491D01*
X152446813Y-76536358D01*
X152361342Y-76408441D01*
X152252559Y-76299658D01*
X152124642Y-76214187D01*
X151984892Y-76156300D01*
X152124642Y-76098413D01*
X152252559Y-76012942D01*
X152361342Y-75904159D01*
X152446813Y-75776242D01*
X152505687Y-75634109D01*
X152511839Y-75603178D01*
X156393280Y-75603178D01*
X156393280Y-75757022D01*
X156423293Y-75907909D01*
X156482167Y-76050042D01*
X156567638Y-76177959D01*
X156676421Y-76286742D01*
X156804338Y-76372213D01*
X156946471Y-76431087D01*
X157097358Y-76461100D01*
X157251202Y-76461100D01*
X157402089Y-76431087D01*
X157544222Y-76372213D01*
X157672139Y-76286742D01*
X157780922Y-76177959D01*
X157866393Y-76050042D01*
X157925267Y-75907909D01*
X157955280Y-75757022D01*
X157955280Y-75603178D01*
X157925267Y-75452291D01*
X157866393Y-75310158D01*
X157780922Y-75182241D01*
X157672139Y-75073458D01*
X157544222Y-74987987D01*
X157402089Y-74929113D01*
X157390111Y-74926730D01*
X157412249Y-74922327D01*
X157554382Y-74863453D01*
X157682299Y-74777982D01*
X157791082Y-74669199D01*
X157876553Y-74541282D01*
X157935427Y-74399149D01*
X157965440Y-74248262D01*
X157965440Y-74094418D01*
X157935427Y-73943531D01*
X157876553Y-73801398D01*
X157791082Y-73673481D01*
X157682299Y-73564698D01*
X157554382Y-73479227D01*
X157412249Y-73420353D01*
X157261362Y-73390340D01*
X157107518Y-73390340D01*
X156956631Y-73420353D01*
X156814498Y-73479227D01*
X156686581Y-73564698D01*
X156577798Y-73673481D01*
X156492327Y-73801398D01*
X156433453Y-73943531D01*
X156403440Y-74094418D01*
X156403440Y-74248262D01*
X156433453Y-74399149D01*
X156492327Y-74541282D01*
X156577798Y-74669199D01*
X156686581Y-74777982D01*
X156814498Y-74863453D01*
X156956631Y-74922327D01*
X156968609Y-74924710D01*
X156946471Y-74929113D01*
X156804338Y-74987987D01*
X156676421Y-75073458D01*
X156567638Y-75182241D01*
X156482167Y-75310158D01*
X156423293Y-75452291D01*
X156393280Y-75603178D01*
X152511839Y-75603178D01*
X152535700Y-75483222D01*
X152535700Y-75329378D01*
X152505687Y-75178491D01*
X152446813Y-75036358D01*
X152361342Y-74908441D01*
X152252559Y-74799658D01*
X152124642Y-74714187D01*
X151984892Y-74656300D01*
X152124642Y-74598413D01*
X152252559Y-74512942D01*
X152361342Y-74404159D01*
X152446813Y-74276242D01*
X152505687Y-74134109D01*
X152535700Y-73983222D01*
X152535700Y-73829378D01*
X152505687Y-73678491D01*
X152446813Y-73536358D01*
X152361342Y-73408441D01*
X152252559Y-73299658D01*
X152124642Y-73214187D01*
X151982509Y-73155313D01*
X151831622Y-73125300D01*
X151677778Y-73125300D01*
X151526891Y-73155313D01*
X151384758Y-73214187D01*
X151256841Y-73299658D01*
X151148058Y-73408441D01*
X151062587Y-73536358D01*
X151004700Y-73676108D01*
X150946813Y-73536358D01*
X150861342Y-73408441D01*
X150752559Y-73299658D01*
X150624642Y-73214187D01*
X150482509Y-73155313D01*
X150331622Y-73125300D01*
X150177778Y-73125300D01*
X150026891Y-73155313D01*
X149884758Y-73214187D01*
X149756841Y-73299658D01*
X149648058Y-73408441D01*
X149562587Y-73536358D01*
X149504700Y-73676108D01*
X149446813Y-73536358D01*
X149361342Y-73408441D01*
X149252559Y-73299658D01*
X149124642Y-73214187D01*
X148982509Y-73155313D01*
X148831622Y-73125300D01*
X148677778Y-73125300D01*
X148526891Y-73155313D01*
X148384758Y-73214187D01*
X148256841Y-73299658D01*
X148148058Y-73408441D01*
X148062587Y-73536358D01*
X148004700Y-73676108D01*
X147946813Y-73536358D01*
X147861342Y-73408441D01*
X147752559Y-73299658D01*
X147624642Y-73214187D01*
X147482509Y-73155313D01*
X147331622Y-73125300D01*
X147177778Y-73125300D01*
X147026891Y-73155313D01*
X146884758Y-73214187D01*
X146756841Y-73299658D01*
X146648058Y-73408441D01*
X146562587Y-73536358D01*
X146503713Y-73678491D01*
X146473700Y-73829378D01*
X139681000Y-73829378D01*
X139681000Y-73633757D01*
X139633693Y-73395931D01*
X139540898Y-73171903D01*
X139406180Y-72970283D01*
X139234717Y-72798820D01*
X139033097Y-72664102D01*
X138809069Y-72571307D01*
X138571243Y-72524000D01*
X138328757Y-72524000D01*
X138090931Y-72571307D01*
X137866903Y-72664102D01*
X137665283Y-72798820D01*
X137493820Y-72970283D01*
X137359102Y-73171903D01*
X137356000Y-73179392D01*
X137356000Y-71247078D01*
X142890644Y-71247078D01*
X142890644Y-71400922D01*
X142920657Y-71551809D01*
X142979531Y-71693942D01*
X143065002Y-71821859D01*
X143173785Y-71930642D01*
X143301702Y-72016113D01*
X143443835Y-72074987D01*
X143594722Y-72105000D01*
X143748566Y-72105000D01*
X143899453Y-72074987D01*
X144041586Y-72016113D01*
X144169503Y-71930642D01*
X144278286Y-71821859D01*
X144363757Y-71693942D01*
X144422631Y-71551809D01*
X144452644Y-71400922D01*
X144452644Y-71247078D01*
X144422631Y-71096191D01*
X144363757Y-70954058D01*
X144278286Y-70826141D01*
X144169503Y-70717358D01*
X144041586Y-70631887D01*
X143899453Y-70573013D01*
X143748566Y-70543000D01*
X143594722Y-70543000D01*
X143443835Y-70573013D01*
X143301702Y-70631887D01*
X143173785Y-70717358D01*
X143065002Y-70826141D01*
X142979531Y-70954058D01*
X142920657Y-71096191D01*
X142890644Y-71247078D01*
X137356000Y-71247078D01*
X137356000Y-69817632D01*
X137387304Y-69843322D01*
X137453492Y-69878701D01*
X137525311Y-69900487D01*
X137600000Y-69907843D01*
X139300000Y-69907843D01*
X139374689Y-69900487D01*
X139446508Y-69878701D01*
X139512696Y-69843322D01*
X139570711Y-69795711D01*
X139618322Y-69737696D01*
X139653701Y-69671508D01*
X139674270Y-69603698D01*
X156360260Y-69603698D01*
X156360260Y-69757542D01*
X156390273Y-69908429D01*
X156449147Y-70050562D01*
X156534618Y-70178479D01*
X156643401Y-70287262D01*
X156771318Y-70372733D01*
X156913451Y-70431607D01*
X157064338Y-70461620D01*
X157218182Y-70461620D01*
X157369069Y-70431607D01*
X157511202Y-70372733D01*
X157639119Y-70287262D01*
X157747902Y-70178479D01*
X157833373Y-70050562D01*
X157892247Y-69908429D01*
X157922260Y-69757542D01*
X157922260Y-69603698D01*
X157892247Y-69452811D01*
X157833373Y-69310678D01*
X157747902Y-69182761D01*
X157639119Y-69073978D01*
X157511202Y-68988507D01*
X157369069Y-68929633D01*
X157218182Y-68899620D01*
X157064338Y-68899620D01*
X156913451Y-68929633D01*
X156771318Y-68988507D01*
X156643401Y-69073978D01*
X156534618Y-69182761D01*
X156449147Y-69310678D01*
X156390273Y-69452811D01*
X156360260Y-69603698D01*
X139674270Y-69603698D01*
X139675487Y-69599689D01*
X139682843Y-69525000D01*
X139682843Y-67825000D01*
X139675487Y-67750311D01*
X139653701Y-67678492D01*
X139618322Y-67612304D01*
X139570711Y-67554289D01*
X139512696Y-67506678D01*
X139474011Y-67486000D01*
X143382175Y-67486000D01*
X143299158Y-67520387D01*
G37*
X143299158Y-67520387D02*
X143171241Y-67605858D01*
X143062458Y-67714641D01*
X142976987Y-67842558D01*
X142918113Y-67984691D01*
X142888100Y-68135578D01*
X142888100Y-68289422D01*
X142918113Y-68440309D01*
X142976987Y-68582442D01*
X143062458Y-68710359D01*
X143171241Y-68819142D01*
X143299158Y-68904613D01*
X143441291Y-68963487D01*
X143592178Y-68993500D01*
X143746022Y-68993500D01*
X143896909Y-68963487D01*
X144039042Y-68904613D01*
X144166959Y-68819142D01*
X144275742Y-68710359D01*
X144361213Y-68582442D01*
X144420087Y-68440309D01*
X144450100Y-68289422D01*
X144450100Y-68135578D01*
X144420087Y-67984691D01*
X144361213Y-67842558D01*
X144275742Y-67714641D01*
X144166959Y-67605858D01*
X144039042Y-67520387D01*
X143956025Y-67486000D01*
X162215989Y-67486000D01*
X162177304Y-67506678D01*
X162119289Y-67554289D01*
X162071678Y-67612304D01*
X162036299Y-67678492D01*
X162014513Y-67750311D01*
X162007157Y-67825000D01*
X162007157Y-69525000D01*
X162014513Y-69599689D01*
X162036299Y-69671508D01*
X162071678Y-69737696D01*
X162119289Y-69795711D01*
X162177304Y-69843322D01*
X162243492Y-69878701D01*
X162315311Y-69900487D01*
X162390000Y-69907843D01*
X164090000Y-69907843D01*
X164164689Y-69900487D01*
X164236508Y-69878701D01*
X164302696Y-69843322D01*
X164360711Y-69795711D01*
X164408322Y-69737696D01*
X164443701Y-69671508D01*
X164464000Y-69604591D01*
X164464000Y-71058566D01*
X164423693Y-70855931D01*
X164330898Y-70631903D01*
X164196180Y-70430283D01*
X164024717Y-70258820D01*
X163823097Y-70124102D01*
X163599069Y-70031307D01*
X163361243Y-69984000D01*
X163118757Y-69984000D01*
X162880931Y-70031307D01*
X162656903Y-70124102D01*
X162455283Y-70258820D01*
X162283820Y-70430283D01*
X162149102Y-70631903D01*
X162056307Y-70855931D01*
X162009000Y-71093757D01*
X162009000Y-71336243D01*
X162056307Y-71574069D01*
X162149102Y-71798097D01*
X162283820Y-71999717D01*
X162455283Y-72171180D01*
X162656903Y-72305898D01*
X162880931Y-72398693D01*
X163118757Y-72446000D01*
X163361243Y-72446000D01*
X163599069Y-72398693D01*
X163823097Y-72305898D01*
X164024717Y-72171180D01*
X164196180Y-71999717D01*
X164330898Y-71798097D01*
X164423693Y-71574069D01*
X164464000Y-71371434D01*
X164464000Y-73598566D01*
X164423693Y-73395931D01*
X164330898Y-73171903D01*
X164196180Y-72970283D01*
X164024717Y-72798820D01*
X163823097Y-72664102D01*
X163599069Y-72571307D01*
X163361243Y-72524000D01*
X163118757Y-72524000D01*
X162880931Y-72571307D01*
X162656903Y-72664102D01*
X162455283Y-72798820D01*
X162283820Y-72970283D01*
X162149102Y-73171903D01*
X162056307Y-73395931D01*
X162009000Y-73633757D01*
X162009000Y-73876243D01*
X162056307Y-74114069D01*
X162149102Y-74338097D01*
X162283820Y-74539717D01*
X162455283Y-74711180D01*
X162656903Y-74845898D01*
X162880931Y-74938693D01*
X163118757Y-74986000D01*
X163361243Y-74986000D01*
X163599069Y-74938693D01*
X163823097Y-74845898D01*
X164024717Y-74711180D01*
X164196180Y-74539717D01*
X164330898Y-74338097D01*
X164423693Y-74114069D01*
X164464000Y-73911434D01*
X164464000Y-76138567D01*
X164423693Y-75935931D01*
X164330898Y-75711903D01*
X164196180Y-75510283D01*
X164024717Y-75338820D01*
X163823097Y-75204102D01*
X163599069Y-75111307D01*
X163361243Y-75064000D01*
X163118757Y-75064000D01*
X162880931Y-75111307D01*
X162656903Y-75204102D01*
X162455283Y-75338820D01*
X162283820Y-75510283D01*
X162149102Y-75711903D01*
X162056307Y-75935931D01*
X162009000Y-76173757D01*
X162009000Y-76416243D01*
X162056307Y-76654069D01*
X162149102Y-76878097D01*
X162283820Y-77079717D01*
X162455283Y-77251180D01*
X162656903Y-77385898D01*
X162880931Y-77478693D01*
X163118757Y-77526000D01*
X163361243Y-77526000D01*
X163599069Y-77478693D01*
X163823097Y-77385898D01*
X164024717Y-77251180D01*
X164196180Y-77079717D01*
X164330898Y-76878097D01*
X164423693Y-76654069D01*
X164464000Y-76451433D01*
X164464000Y-78678567D01*
X164423693Y-78475931D01*
X164330898Y-78251903D01*
X164196180Y-78050283D01*
X164024717Y-77878820D01*
X163823097Y-77744102D01*
X163599069Y-77651307D01*
X163361243Y-77604000D01*
X163118757Y-77604000D01*
X162880931Y-77651307D01*
X162656903Y-77744102D01*
X162455283Y-77878820D01*
X162283820Y-78050283D01*
X162149102Y-78251903D01*
X162056307Y-78475931D01*
X162009000Y-78713757D01*
X162009000Y-78956243D01*
X162056307Y-79194069D01*
X162149102Y-79418097D01*
X162283820Y-79619717D01*
X162455283Y-79791180D01*
X162656903Y-79925898D01*
X162880931Y-80018693D01*
X163118757Y-80066000D01*
X163361243Y-80066000D01*
X163599069Y-80018693D01*
X163823097Y-79925898D01*
X164024717Y-79791180D01*
X164196180Y-79619717D01*
X164330898Y-79418097D01*
X164423693Y-79194069D01*
X164464000Y-78991433D01*
X164464000Y-81218567D01*
X164423693Y-81015931D01*
X164330898Y-80791903D01*
X164196180Y-80590283D01*
X164024717Y-80418820D01*
X163823097Y-80284102D01*
X163599069Y-80191307D01*
X163361243Y-80144000D01*
X163118757Y-80144000D01*
X162880931Y-80191307D01*
X162656903Y-80284102D01*
X162455283Y-80418820D01*
X162283820Y-80590283D01*
X162149102Y-80791903D01*
X162056307Y-81015931D01*
X162009000Y-81253757D01*
X162009000Y-81496243D01*
X162056307Y-81734069D01*
X162149102Y-81958097D01*
X162283820Y-82159717D01*
X162455283Y-82331180D01*
X162656903Y-82465898D01*
X162880931Y-82558693D01*
X163118757Y-82606000D01*
X163361243Y-82606000D01*
X163599069Y-82558693D01*
X163823097Y-82465898D01*
X164024717Y-82331180D01*
X164196180Y-82159717D01*
X164330898Y-81958097D01*
X164423693Y-81734069D01*
X164464000Y-81531433D01*
X164464000Y-83758567D01*
X164423693Y-83555931D01*
X164330898Y-83331903D01*
X164196180Y-83130283D01*
X164024717Y-82958820D01*
X163823097Y-82824102D01*
X163599069Y-82731307D01*
X163361243Y-82684000D01*
X163118757Y-82684000D01*
X162880931Y-82731307D01*
X162656903Y-82824102D01*
X162455283Y-82958820D01*
X162283820Y-83130283D01*
X162149102Y-83331903D01*
X162056307Y-83555931D01*
X162009000Y-83793757D01*
X162009000Y-84036243D01*
X162056307Y-84274069D01*
X162149102Y-84498097D01*
X162283820Y-84699717D01*
X162455283Y-84871180D01*
X162656903Y-85005898D01*
X162880931Y-85098693D01*
X163118757Y-85146000D01*
X163361243Y-85146000D01*
X163599069Y-85098693D01*
X163823097Y-85005898D01*
X164024717Y-84871180D01*
X164196180Y-84699717D01*
X164330898Y-84498097D01*
X164423693Y-84274069D01*
X164464000Y-84071433D01*
X164464000Y-86298567D01*
X164423693Y-86095931D01*
X164330898Y-85871903D01*
X164196180Y-85670283D01*
X164024717Y-85498820D01*
X163823097Y-85364102D01*
X163599069Y-85271307D01*
X163361243Y-85224000D01*
X163118757Y-85224000D01*
X162880931Y-85271307D01*
X162656903Y-85364102D01*
X162455283Y-85498820D01*
X162283820Y-85670283D01*
X162149102Y-85871903D01*
X162056307Y-86095931D01*
X162009000Y-86333757D01*
X162009000Y-86576243D01*
X162056307Y-86814069D01*
X162149102Y-87038097D01*
X162283820Y-87239717D01*
X162455283Y-87411180D01*
X162656903Y-87545898D01*
X162880931Y-87638693D01*
X163118757Y-87686000D01*
X163361243Y-87686000D01*
X163599069Y-87638693D01*
X163823097Y-87545898D01*
X164024717Y-87411180D01*
X164196180Y-87239717D01*
X164330898Y-87038097D01*
X164423693Y-86814069D01*
X164464000Y-86611433D01*
X164464000Y-88838568D01*
X164423693Y-88635931D01*
X164330898Y-88411903D01*
X164196180Y-88210283D01*
X164024717Y-88038820D01*
X163823097Y-87904102D01*
X163599069Y-87811307D01*
X163361243Y-87764000D01*
X163118757Y-87764000D01*
X162880931Y-87811307D01*
X162656903Y-87904102D01*
X162455283Y-88038820D01*
X162283820Y-88210283D01*
X162149102Y-88411903D01*
X162056307Y-88635931D01*
X162009000Y-88873757D01*
X162009000Y-89116243D01*
X162056307Y-89354069D01*
X162149102Y-89578097D01*
X162283820Y-89779717D01*
X162455283Y-89951180D01*
X162656903Y-90085898D01*
X162880931Y-90178693D01*
X163118757Y-90226000D01*
X163361243Y-90226000D01*
X163599069Y-90178693D01*
X163823097Y-90085898D01*
X164024717Y-89951180D01*
X164196180Y-89779717D01*
X164330898Y-89578097D01*
X164423693Y-89354069D01*
X164464000Y-89151432D01*
X164464000Y-91378568D01*
X164423693Y-91175931D01*
X164330898Y-90951903D01*
X164196180Y-90750283D01*
X164024717Y-90578820D01*
X163823097Y-90444102D01*
X163599069Y-90351307D01*
X163361243Y-90304000D01*
X163118757Y-90304000D01*
X162880931Y-90351307D01*
X162656903Y-90444102D01*
X162455283Y-90578820D01*
X162283820Y-90750283D01*
X162149102Y-90951903D01*
X162056307Y-91175931D01*
X162009000Y-91413757D01*
X162009000Y-91656243D01*
X162056307Y-91894069D01*
X162149102Y-92118097D01*
X162283820Y-92319717D01*
X162455283Y-92491180D01*
X162656903Y-92625898D01*
X162880931Y-92718693D01*
X163118757Y-92766000D01*
X163361243Y-92766000D01*
X163599069Y-92718693D01*
X163823097Y-92625898D01*
X164024717Y-92491180D01*
X164196180Y-92319717D01*
X164330898Y-92118097D01*
X164423693Y-91894069D01*
X164464000Y-91691432D01*
X164464000Y-93918568D01*
X164423693Y-93715931D01*
X164330898Y-93491903D01*
X164196180Y-93290283D01*
X164024717Y-93118820D01*
X163823097Y-92984102D01*
X163599069Y-92891307D01*
X163361243Y-92844000D01*
X163118757Y-92844000D01*
X162880931Y-92891307D01*
X162656903Y-92984102D01*
X162455283Y-93118820D01*
X162283820Y-93290283D01*
X162149102Y-93491903D01*
X162056307Y-93715931D01*
X162009000Y-93953757D01*
X162009000Y-94196243D01*
X162056307Y-94434069D01*
X162149102Y-94658097D01*
X162283820Y-94859717D01*
X162455283Y-95031180D01*
X162656903Y-95165898D01*
X162880931Y-95258693D01*
X163118757Y-95306000D01*
X163361243Y-95306000D01*
X163599069Y-95258693D01*
X163823097Y-95165898D01*
X164024717Y-95031180D01*
X164196180Y-94859717D01*
X164330898Y-94658097D01*
X164423693Y-94434069D01*
X164464000Y-94231432D01*
X164464000Y-96458568D01*
X164423693Y-96255931D01*
X164330898Y-96031903D01*
X164196180Y-95830283D01*
X164024717Y-95658820D01*
X163823097Y-95524102D01*
X163599069Y-95431307D01*
X163361243Y-95384000D01*
X163118757Y-95384000D01*
X162880931Y-95431307D01*
X162656903Y-95524102D01*
X162455283Y-95658820D01*
X162283820Y-95830283D01*
X162149102Y-96031903D01*
X162056307Y-96255931D01*
X162009000Y-96493757D01*
X162009000Y-96736243D01*
X162056307Y-96974069D01*
X162149102Y-97198097D01*
X162283820Y-97399717D01*
X162455283Y-97571180D01*
X162656903Y-97705898D01*
X162880931Y-97798693D01*
X163118757Y-97846000D01*
X163361243Y-97846000D01*
X163599069Y-97798693D01*
X163823097Y-97705898D01*
X164024717Y-97571180D01*
X164196180Y-97399717D01*
X164330898Y-97198097D01*
X164423693Y-96974069D01*
X164464000Y-96771432D01*
X164464000Y-98998568D01*
X164423693Y-98795931D01*
X164330898Y-98571903D01*
X164196180Y-98370283D01*
X164024717Y-98198820D01*
X163823097Y-98064102D01*
X163599069Y-97971307D01*
X163361243Y-97924000D01*
X163118757Y-97924000D01*
X162880931Y-97971307D01*
X162656903Y-98064102D01*
X162455283Y-98198820D01*
X162283820Y-98370283D01*
X162149102Y-98571903D01*
X162056307Y-98795931D01*
X162009000Y-99033757D01*
X162009000Y-99276243D01*
X162056307Y-99514069D01*
X162149102Y-99738097D01*
X162283820Y-99939717D01*
X162455283Y-100111180D01*
X162656903Y-100245898D01*
X162880931Y-100338693D01*
X163118757Y-100386000D01*
X163361243Y-100386000D01*
X163599069Y-100338693D01*
X163823097Y-100245898D01*
X164024717Y-100111180D01*
X164196180Y-99939717D01*
X164330898Y-99738097D01*
X164423693Y-99514069D01*
X164464000Y-99311432D01*
X164464001Y-101538569D01*
X164423693Y-101335931D01*
X164330898Y-101111903D01*
X164196180Y-100910283D01*
X164024717Y-100738820D01*
X163823097Y-100604102D01*
X163599069Y-100511307D01*
X163361243Y-100464000D01*
X163118757Y-100464000D01*
X162880931Y-100511307D01*
X162656903Y-100604102D01*
X162455283Y-100738820D01*
X162283820Y-100910283D01*
X162149102Y-101111903D01*
X162056307Y-101335931D01*
X162009000Y-101573757D01*
X162009000Y-101816243D01*
X162056307Y-102054069D01*
X162149102Y-102278097D01*
X162283820Y-102479717D01*
X162455283Y-102651180D01*
X162656903Y-102785898D01*
X162880931Y-102878693D01*
X163118757Y-102926000D01*
X163361243Y-102926000D01*
X163599069Y-102878693D01*
X163823097Y-102785898D01*
X164024717Y-102651180D01*
X164196180Y-102479717D01*
X164330898Y-102278097D01*
X164423693Y-102054069D01*
X164464001Y-101851431D01*
X164464001Y-104078569D01*
X164423693Y-103875931D01*
X164330898Y-103651903D01*
X164196180Y-103450283D01*
X164024717Y-103278820D01*
X163823097Y-103144102D01*
X163599069Y-103051307D01*
X163361243Y-103004000D01*
X163118757Y-103004000D01*
X162880931Y-103051307D01*
X162656903Y-103144102D01*
X162455283Y-103278820D01*
X162283820Y-103450283D01*
X162149102Y-103651903D01*
X162056307Y-103875931D01*
X162009000Y-104113757D01*
X162009000Y-104356243D01*
X162056307Y-104594069D01*
X162149102Y-104818097D01*
X162283820Y-105019717D01*
X162455283Y-105191180D01*
X162656903Y-105325898D01*
X162880931Y-105418693D01*
X163118757Y-105466000D01*
X163361243Y-105466000D01*
X163599069Y-105418693D01*
X163823097Y-105325898D01*
X164024717Y-105191180D01*
X164196180Y-105019717D01*
X164330898Y-104818097D01*
X164423693Y-104594069D01*
X164464001Y-104391431D01*
X164464001Y-106618569D01*
X164423693Y-106415931D01*
X164330898Y-106191903D01*
X164196180Y-105990283D01*
X164024717Y-105818820D01*
X163823097Y-105684102D01*
X163599069Y-105591307D01*
X163361243Y-105544000D01*
X163118757Y-105544000D01*
X162880931Y-105591307D01*
X162656903Y-105684102D01*
X162455283Y-105818820D01*
X162283820Y-105990283D01*
X162149102Y-106191903D01*
X162056307Y-106415931D01*
X162009000Y-106653757D01*
X162009000Y-106896243D01*
X162056307Y-107134069D01*
X162149102Y-107358097D01*
X162283820Y-107559717D01*
X162455283Y-107731180D01*
X162656903Y-107865898D01*
X162880931Y-107958693D01*
X163118757Y-108006000D01*
X163361243Y-108006000D01*
X163599069Y-107958693D01*
X163823097Y-107865898D01*
X164024717Y-107731180D01*
X164196180Y-107559717D01*
X164330898Y-107358097D01*
X164423693Y-107134069D01*
X164464001Y-106931431D01*
X164464001Y-109158569D01*
X164423693Y-108955931D01*
X164330898Y-108731903D01*
X164196180Y-108530283D01*
X164024717Y-108358820D01*
X163823097Y-108224102D01*
X163599069Y-108131307D01*
X163361243Y-108084000D01*
X163118757Y-108084000D01*
X162880931Y-108131307D01*
X162656903Y-108224102D01*
X162455283Y-108358820D01*
X162283820Y-108530283D01*
X162149102Y-108731903D01*
X162056307Y-108955931D01*
X162009000Y-109193757D01*
X162009000Y-109436243D01*
X162056307Y-109674069D01*
X162149102Y-109898097D01*
X162283820Y-110099717D01*
X162455283Y-110271180D01*
X162656903Y-110405898D01*
X162880931Y-110498693D01*
X163118757Y-110546000D01*
X163361243Y-110546000D01*
X163599069Y-110498693D01*
X163823097Y-110405898D01*
X164024717Y-110271180D01*
X164196180Y-110099717D01*
X164330898Y-109898097D01*
X164423693Y-109674069D01*
X164464001Y-109471431D01*
X164464001Y-111698569D01*
X164423693Y-111495931D01*
X164330898Y-111271903D01*
X164196180Y-111070283D01*
X164024717Y-110898820D01*
X163823097Y-110764102D01*
X163599069Y-110671307D01*
X163361243Y-110624000D01*
X163118757Y-110624000D01*
X162880931Y-110671307D01*
X162656903Y-110764102D01*
X162455283Y-110898820D01*
X162283820Y-111070283D01*
X162149102Y-111271903D01*
X162056307Y-111495931D01*
X162009000Y-111733757D01*
X162009000Y-111976243D01*
X162056307Y-112214069D01*
X162149102Y-112438097D01*
X162283820Y-112639717D01*
X162455283Y-112811180D01*
X162656903Y-112945898D01*
X162880931Y-113038693D01*
X163118757Y-113086000D01*
X163361243Y-113086000D01*
X163599069Y-113038693D01*
X163823097Y-112945898D01*
X164024717Y-112811180D01*
X164196180Y-112639717D01*
X164330898Y-112438097D01*
X164423693Y-112214069D01*
X164464001Y-112011431D01*
X164464001Y-114238569D01*
X164423693Y-114035931D01*
X164330898Y-113811903D01*
X164196180Y-113610283D01*
X164024717Y-113438820D01*
X163823097Y-113304102D01*
X163599069Y-113211307D01*
X163361243Y-113164000D01*
X163118757Y-113164000D01*
X162880931Y-113211307D01*
X162656903Y-113304102D01*
X162455283Y-113438820D01*
X162283820Y-113610283D01*
X162149102Y-113811903D01*
X162056307Y-114035931D01*
X162009000Y-114273757D01*
X162009000Y-114516243D01*
X162056307Y-114754069D01*
X162149102Y-114978097D01*
X162283820Y-115179717D01*
X162455283Y-115351180D01*
X162656903Y-115485898D01*
X162880931Y-115578693D01*
X163118757Y-115626000D01*
X163361243Y-115626000D01*
X163599069Y-115578693D01*
X163823097Y-115485898D01*
X164024717Y-115351180D01*
X164196180Y-115179717D01*
X164330898Y-114978097D01*
X164423693Y-114754069D01*
X164464001Y-114551430D01*
X164464001Y-116778570D01*
X164423693Y-116575931D01*
X164330898Y-116351903D01*
X164196180Y-116150283D01*
X164024717Y-115978820D01*
X163823097Y-115844102D01*
X163599069Y-115751307D01*
X163361243Y-115704000D01*
X163118757Y-115704000D01*
X162880931Y-115751307D01*
X162656903Y-115844102D01*
X162455283Y-115978820D01*
X162283820Y-116150283D01*
X162149102Y-116351903D01*
X162056307Y-116575931D01*
X162009000Y-116813757D01*
X162009000Y-117056243D01*
X162056307Y-117294069D01*
X162149102Y-117518097D01*
X162283820Y-117719717D01*
X162455283Y-117891180D01*
X162656903Y-118025898D01*
X162880931Y-118118693D01*
X163118757Y-118166000D01*
X163361243Y-118166000D01*
X163599069Y-118118693D01*
X163823097Y-118025898D01*
X164024717Y-117891180D01*
X164196180Y-117719717D01*
X164330898Y-117518097D01*
X164423693Y-117294069D01*
X164464001Y-117091430D01*
X164464001Y-119318570D01*
X164423693Y-119115931D01*
X164330898Y-118891903D01*
X164196180Y-118690283D01*
X164024717Y-118518820D01*
X163823097Y-118384102D01*
X163599069Y-118291307D01*
X163361243Y-118244000D01*
X163118757Y-118244000D01*
X162880931Y-118291307D01*
X162656903Y-118384102D01*
X162455283Y-118518820D01*
X162283820Y-118690283D01*
X162149102Y-118891903D01*
X162056307Y-119115931D01*
X162009000Y-119353757D01*
X162009000Y-119596243D01*
X162056307Y-119834069D01*
X162149102Y-120058097D01*
X162283820Y-120259717D01*
X162455283Y-120431180D01*
X162656903Y-120565898D01*
X162880931Y-120658693D01*
X163118757Y-120706000D01*
X163361243Y-120706000D01*
X163599069Y-120658693D01*
X163823097Y-120565898D01*
X164024717Y-120431180D01*
X164196180Y-120259717D01*
X164330898Y-120058097D01*
X164423693Y-119834069D01*
X164464001Y-119631430D01*
X164464001Y-121858570D01*
X164423693Y-121655931D01*
X164330898Y-121431903D01*
X164196180Y-121230283D01*
X164024717Y-121058820D01*
X163823097Y-120924102D01*
X163599069Y-120831307D01*
X163361243Y-120784000D01*
X163118757Y-120784000D01*
X162880931Y-120831307D01*
X162656903Y-120924102D01*
X162455283Y-121058820D01*
X162283820Y-121230283D01*
X162149102Y-121431903D01*
X162056307Y-121655931D01*
X162009000Y-121893757D01*
X162009000Y-122136243D01*
X162056307Y-122374069D01*
X162149102Y-122598097D01*
X162283820Y-122799717D01*
X162455283Y-122971180D01*
X162656903Y-123105898D01*
X162880931Y-123198693D01*
X163118757Y-123246000D01*
X163361243Y-123246000D01*
X163599069Y-123198693D01*
X163823097Y-123105898D01*
X164024717Y-122971180D01*
X164196180Y-122799717D01*
X164330898Y-122598097D01*
X164423693Y-122374069D01*
X164464001Y-122171430D01*
X164464001Y-133990137D01*
X164441256Y-134222110D01*
X164379653Y-134426148D01*
X164279592Y-134614336D01*
X164144891Y-134779495D01*
X163980666Y-134915354D01*
X163793187Y-135016724D01*
X163589589Y-135079748D01*
X163358876Y-135103996D01*
X163169907Y-135103921D01*
X163322075Y-135040890D01*
X163560546Y-134881549D01*
X163763349Y-134678746D01*
X163922690Y-134440275D01*
X164032447Y-134175300D01*
X164088400Y-133894003D01*
X164088400Y-133607197D01*
X164032447Y-133325900D01*
X163922690Y-133060925D01*
X163763349Y-132822454D01*
X163560546Y-132619651D01*
X163322075Y-132460310D01*
X163057100Y-132350553D01*
X162775803Y-132294600D01*
X162488997Y-132294600D01*
X162207700Y-132350553D01*
X161942725Y-132460310D01*
X161704254Y-132619651D01*
X161501451Y-132822454D01*
X161342110Y-133060925D01*
X161232353Y-133325900D01*
X161176400Y-133607197D01*
X161176400Y-133894003D01*
X161232353Y-134175300D01*
X161342110Y-134440275D01*
X161501451Y-134678746D01*
X161704254Y-134881549D01*
X161942725Y-135040890D01*
X162093851Y-135103489D01*
X157735172Y-135101740D01*
X157882075Y-135040890D01*
X158120546Y-134881549D01*
X158323349Y-134678746D01*
X158482690Y-134440275D01*
X158592447Y-134175300D01*
X158648400Y-133894003D01*
X158648400Y-133607197D01*
X158592447Y-133325900D01*
X158482690Y-133060925D01*
X158323349Y-132822454D01*
X158120546Y-132619651D01*
X157882075Y-132460310D01*
X157617100Y-132350553D01*
X157335803Y-132294600D01*
X157048997Y-132294600D01*
X156767700Y-132350553D01*
X156502725Y-132460310D01*
X156264254Y-132619651D01*
X156061451Y-132822454D01*
X155902110Y-133060925D01*
X155792353Y-133325900D01*
X155736400Y-133607197D01*
X155736400Y-133894003D01*
X155792353Y-134175300D01*
X155902110Y-134440275D01*
X156061451Y-134678746D01*
X156264254Y-134881549D01*
X156502725Y-135040890D01*
X156648576Y-135101304D01*
X144610263Y-135096473D01*
X144712538Y-135012538D01*
X144825756Y-134874582D01*
X144909884Y-134717188D01*
X144961690Y-134546407D01*
X144979183Y-134368800D01*
X144961690Y-134191193D01*
X144909884Y-134020412D01*
X144825756Y-133863018D01*
X144712538Y-133725062D01*
X144574582Y-133611844D01*
X144417188Y-133527716D01*
X144246407Y-133475910D01*
X144113301Y-133462800D01*
X143523590Y-133462800D01*
X143581605Y-133404785D01*
X143661604Y-133285058D01*
X143716708Y-133152025D01*
X143735415Y-133057978D01*
X148984100Y-133057978D01*
X148984100Y-133211822D01*
X149014113Y-133362709D01*
X149072987Y-133504842D01*
X149158458Y-133632759D01*
X149267241Y-133741542D01*
X149395158Y-133827013D01*
X149537291Y-133885887D01*
X149688178Y-133915900D01*
X149842022Y-133915900D01*
X149992909Y-133885887D01*
X150135042Y-133827013D01*
X150262959Y-133741542D01*
X150371742Y-133632759D01*
X150457213Y-133504842D01*
X150516087Y-133362709D01*
X150546100Y-133211822D01*
X150546100Y-133057978D01*
X151549500Y-133057978D01*
X151549500Y-133211822D01*
X151579513Y-133362709D01*
X151638387Y-133504842D01*
X151723858Y-133632759D01*
X151832641Y-133741542D01*
X151960558Y-133827013D01*
X152102691Y-133885887D01*
X152253578Y-133915900D01*
X152407422Y-133915900D01*
X152558309Y-133885887D01*
X152700442Y-133827013D01*
X152828359Y-133741542D01*
X152937142Y-133632759D01*
X153022613Y-133504842D01*
X153081487Y-133362709D01*
X153111500Y-133211822D01*
X153111500Y-133057978D01*
X153081487Y-132907091D01*
X153022613Y-132764958D01*
X152937142Y-132637041D01*
X152828359Y-132528258D01*
X152700442Y-132442787D01*
X152558309Y-132383913D01*
X152407422Y-132353900D01*
X152253578Y-132353900D01*
X152102691Y-132383913D01*
X151960558Y-132442787D01*
X151832641Y-132528258D01*
X151723858Y-132637041D01*
X151638387Y-132764958D01*
X151579513Y-132907091D01*
X151549500Y-133057978D01*
X150546100Y-133057978D01*
X150516087Y-132907091D01*
X150457213Y-132764958D01*
X150371742Y-132637041D01*
X150262959Y-132528258D01*
X150135042Y-132442787D01*
X149992909Y-132383913D01*
X149842022Y-132353900D01*
X149688178Y-132353900D01*
X149537291Y-132383913D01*
X149395158Y-132442787D01*
X149267241Y-132528258D01*
X149158458Y-132637041D01*
X149072987Y-132764958D01*
X149014113Y-132907091D01*
X148984100Y-133057978D01*
X143735415Y-133057978D01*
X143744800Y-133010797D01*
X143744800Y-132866803D01*
X143716708Y-132725575D01*
X143661604Y-132592542D01*
X143581605Y-132472815D01*
X143479785Y-132370995D01*
X143360058Y-132290996D01*
X143227025Y-132235892D01*
X143150147Y-132220600D01*
X158729557Y-132220600D01*
X158729557Y-133820600D01*
X158736913Y-133895289D01*
X158758699Y-133967108D01*
X158794078Y-134033296D01*
X158841689Y-134091311D01*
X158899704Y-134138922D01*
X158965892Y-134174301D01*
X159037711Y-134196087D01*
X159112400Y-134203443D01*
X160712400Y-134203443D01*
X160787089Y-134196087D01*
X160858908Y-134174301D01*
X160925096Y-134138922D01*
X160983111Y-134091311D01*
X161030722Y-134033296D01*
X161066101Y-133967108D01*
X161087887Y-133895289D01*
X161095243Y-133820600D01*
X161095243Y-132220600D01*
X161087887Y-132145911D01*
X161066101Y-132074092D01*
X161030722Y-132007904D01*
X160983111Y-131949889D01*
X160925096Y-131902278D01*
X160858908Y-131866899D01*
X160787089Y-131845113D01*
X160760674Y-131842511D01*
X160829742Y-131773443D01*
X160958988Y-131580013D01*
X161048014Y-131365085D01*
X161093400Y-131136918D01*
X161093400Y-130904282D01*
X161048014Y-130676115D01*
X160958988Y-130461187D01*
X160829742Y-130267757D01*
X160665243Y-130103258D01*
X160541537Y-130020600D01*
X160665243Y-129937942D01*
X160829742Y-129773443D01*
X160958988Y-129580013D01*
X161048014Y-129365085D01*
X161093400Y-129136918D01*
X161093400Y-128904282D01*
X161048014Y-128676115D01*
X160958988Y-128461187D01*
X160829742Y-128267757D01*
X160665243Y-128103258D01*
X160541537Y-128020600D01*
X160665243Y-127937942D01*
X160829742Y-127773443D01*
X160958988Y-127580013D01*
X161048014Y-127365085D01*
X161093400Y-127136918D01*
X161093400Y-126904282D01*
X161048014Y-126676115D01*
X161019468Y-126607197D01*
X161176400Y-126607197D01*
X161176400Y-126894003D01*
X161232353Y-127175300D01*
X161342110Y-127440275D01*
X161501451Y-127678746D01*
X161704254Y-127881549D01*
X161942725Y-128040890D01*
X162207700Y-128150647D01*
X162488997Y-128206600D01*
X162775803Y-128206600D01*
X163057100Y-128150647D01*
X163322075Y-128040890D01*
X163560546Y-127881549D01*
X163763349Y-127678746D01*
X163922690Y-127440275D01*
X164032447Y-127175300D01*
X164088400Y-126894003D01*
X164088400Y-126607197D01*
X164032447Y-126325900D01*
X163922690Y-126060925D01*
X163763349Y-125822454D01*
X163560546Y-125619651D01*
X163322075Y-125460310D01*
X163057100Y-125350553D01*
X162775803Y-125294600D01*
X162488997Y-125294600D01*
X162207700Y-125350553D01*
X161942725Y-125460310D01*
X161704254Y-125619651D01*
X161501451Y-125822454D01*
X161342110Y-126060925D01*
X161232353Y-126325900D01*
X161176400Y-126607197D01*
X161019468Y-126607197D01*
X160958988Y-126461187D01*
X160829742Y-126267757D01*
X160665243Y-126103258D01*
X160471813Y-125974012D01*
X160256885Y-125884986D01*
X160028718Y-125839600D01*
X159796082Y-125839600D01*
X159567915Y-125884986D01*
X159352987Y-125974012D01*
X159159557Y-126103258D01*
X158995058Y-126267757D01*
X158865812Y-126461187D01*
X158776786Y-126676115D01*
X158731400Y-126904282D01*
X158731400Y-127136918D01*
X158776786Y-127365085D01*
X158865812Y-127580013D01*
X158995058Y-127773443D01*
X159159557Y-127937942D01*
X159283263Y-128020600D01*
X159159557Y-128103258D01*
X158995058Y-128267757D01*
X158865812Y-128461187D01*
X158776786Y-128676115D01*
X158731400Y-128904282D01*
X158731400Y-129136918D01*
X158776786Y-129365085D01*
X158865812Y-129580013D01*
X158995058Y-129773443D01*
X159159557Y-129937942D01*
X159283263Y-130020600D01*
X159159557Y-130103258D01*
X158995058Y-130267757D01*
X158865812Y-130461187D01*
X158776786Y-130676115D01*
X158731400Y-130904282D01*
X158731400Y-131136918D01*
X158776786Y-131365085D01*
X158865812Y-131580013D01*
X158995058Y-131773443D01*
X159064126Y-131842511D01*
X159037711Y-131845113D01*
X158965892Y-131866899D01*
X158899704Y-131902278D01*
X158841689Y-131949889D01*
X158794078Y-132007904D01*
X158758699Y-132074092D01*
X158736913Y-132145911D01*
X158729557Y-132220600D01*
X143150147Y-132220600D01*
X143085797Y-132207800D01*
X142941803Y-132207800D01*
X142800575Y-132235892D01*
X142667542Y-132290996D01*
X142547815Y-132370995D01*
X142445995Y-132472815D01*
X142365996Y-132592542D01*
X142310892Y-132725575D01*
X142282800Y-132866803D01*
X142282800Y-133010797D01*
X142310892Y-133152025D01*
X142365996Y-133285058D01*
X142445995Y-133404785D01*
X142547815Y-133506605D01*
X142619854Y-133554740D01*
X142513018Y-133611844D01*
X142375062Y-133725062D01*
X142261844Y-133863018D01*
X142177716Y-134020412D01*
X142125910Y-134191193D01*
X142108417Y-134368800D01*
X142125910Y-134546407D01*
X142177716Y-134717188D01*
X142261844Y-134874582D01*
X142375062Y-135012538D01*
X142476293Y-135095617D01*
X140432306Y-135094796D01*
X140532538Y-135012538D01*
X140645756Y-134874582D01*
X140729884Y-134717188D01*
X140781690Y-134546407D01*
X140799183Y-134368800D01*
X140781690Y-134191193D01*
X140729884Y-134020412D01*
X140645756Y-133863018D01*
X140532538Y-133725062D01*
X140394582Y-133611844D01*
X140237188Y-133527716D01*
X140066407Y-133475910D01*
X139933301Y-133462800D01*
X138794299Y-133462800D01*
X138661193Y-133475910D01*
X138490412Y-133527716D01*
X138333018Y-133611844D01*
X138195062Y-133725062D01*
X138081844Y-133863018D01*
X137997716Y-134020412D01*
X137945910Y-134191193D01*
X137928417Y-134368800D01*
X137945910Y-134546407D01*
X137997716Y-134717188D01*
X138081844Y-134874582D01*
X138195062Y-135012538D01*
X138270507Y-135074454D01*
X138237890Y-135071256D01*
X138033852Y-135009653D01*
X137845664Y-134909592D01*
X137680505Y-134774891D01*
X137544646Y-134610666D01*
X137443276Y-134423187D01*
X137380252Y-134219589D01*
X137356000Y-133988842D01*
X137356000Y-129133678D01*
X140843409Y-129133678D01*
X140843409Y-129287522D01*
X140873422Y-129438409D01*
X140932296Y-129580542D01*
X141017767Y-129708459D01*
X141126550Y-129817242D01*
X141254467Y-129902713D01*
X141396600Y-129961587D01*
X141547487Y-129991600D01*
X141701331Y-129991600D01*
X141852218Y-129961587D01*
X141994351Y-129902713D01*
X142122268Y-129817242D01*
X142231051Y-129708459D01*
X142316522Y-129580542D01*
X142375396Y-129438409D01*
X142405409Y-129287522D01*
X142405409Y-129133678D01*
X142375396Y-128982791D01*
X142316522Y-128840658D01*
X142231051Y-128712741D01*
X142122268Y-128603958D01*
X141994351Y-128518487D01*
X141852218Y-128459613D01*
X141701331Y-128429600D01*
X141547487Y-128429600D01*
X141396600Y-128459613D01*
X141254467Y-128518487D01*
X141126550Y-128603958D01*
X141017767Y-128712741D01*
X140932296Y-128840658D01*
X140873422Y-128982791D01*
X140843409Y-129133678D01*
X137356000Y-129133678D01*
X137356000Y-125728800D01*
X137928417Y-125728800D01*
X137945910Y-125906407D01*
X137997716Y-126077188D01*
X138081844Y-126234582D01*
X138195062Y-126372538D01*
X138333018Y-126485756D01*
X138490412Y-126569884D01*
X138661193Y-126621690D01*
X138794299Y-126634800D01*
X139933301Y-126634800D01*
X140066407Y-126621690D01*
X140237188Y-126569884D01*
X140394582Y-126485756D01*
X140532538Y-126372538D01*
X140645756Y-126234582D01*
X140729884Y-126077188D01*
X140781690Y-125906407D01*
X140799183Y-125728800D01*
X142108417Y-125728800D01*
X142125910Y-125906407D01*
X142177716Y-126077188D01*
X142261844Y-126234582D01*
X142375062Y-126372538D01*
X142513018Y-126485756D01*
X142619854Y-126542860D01*
X142547815Y-126590995D01*
X142445995Y-126692815D01*
X142365996Y-126812542D01*
X142310892Y-126945575D01*
X142282800Y-127086803D01*
X142282800Y-127230797D01*
X142310892Y-127372025D01*
X142365996Y-127505058D01*
X142445995Y-127624785D01*
X142547815Y-127726605D01*
X142667542Y-127806604D01*
X142800575Y-127861708D01*
X142941803Y-127889800D01*
X143085797Y-127889800D01*
X143227025Y-127861708D01*
X143360058Y-127806604D01*
X143479785Y-127726605D01*
X143581605Y-127624785D01*
X143661604Y-127505058D01*
X143716708Y-127372025D01*
X143730064Y-127304878D01*
X152870300Y-127304878D01*
X152870300Y-127458722D01*
X152900313Y-127609609D01*
X152959187Y-127751742D01*
X153044658Y-127879659D01*
X153153441Y-127988442D01*
X153281358Y-128073913D01*
X153423491Y-128132787D01*
X153574378Y-128162800D01*
X153728222Y-128162800D01*
X153879109Y-128132787D01*
X154021242Y-128073913D01*
X154149159Y-127988442D01*
X154257942Y-127879659D01*
X154343413Y-127751742D01*
X154402287Y-127609609D01*
X154432300Y-127458722D01*
X154432300Y-127304878D01*
X154402287Y-127153991D01*
X154343413Y-127011858D01*
X154257942Y-126883941D01*
X154149159Y-126775158D01*
X154021242Y-126689687D01*
X153879109Y-126630813D01*
X153760383Y-126607197D01*
X155736400Y-126607197D01*
X155736400Y-126894003D01*
X155792353Y-127175300D01*
X155902110Y-127440275D01*
X156061451Y-127678746D01*
X156264254Y-127881549D01*
X156502725Y-128040890D01*
X156767700Y-128150647D01*
X157048997Y-128206600D01*
X157335803Y-128206600D01*
X157617100Y-128150647D01*
X157882075Y-128040890D01*
X158120546Y-127881549D01*
X158323349Y-127678746D01*
X158482690Y-127440275D01*
X158592447Y-127175300D01*
X158648400Y-126894003D01*
X158648400Y-126607197D01*
X158592447Y-126325900D01*
X158482690Y-126060925D01*
X158323349Y-125822454D01*
X158120546Y-125619651D01*
X157882075Y-125460310D01*
X157617100Y-125350553D01*
X157335803Y-125294600D01*
X157048997Y-125294600D01*
X156767700Y-125350553D01*
X156502725Y-125460310D01*
X156264254Y-125619651D01*
X156061451Y-125822454D01*
X155902110Y-126060925D01*
X155792353Y-126325900D01*
X155736400Y-126607197D01*
X153760383Y-126607197D01*
X153728222Y-126600800D01*
X153574378Y-126600800D01*
X153423491Y-126630813D01*
X153281358Y-126689687D01*
X153153441Y-126775158D01*
X153044658Y-126883941D01*
X152959187Y-127011858D01*
X152900313Y-127153991D01*
X152870300Y-127304878D01*
X143730064Y-127304878D01*
X143744800Y-127230797D01*
X143744800Y-127086803D01*
X143716708Y-126945575D01*
X143661604Y-126812542D01*
X143581605Y-126692815D01*
X143523590Y-126634800D01*
X144113301Y-126634800D01*
X144246407Y-126621690D01*
X144417188Y-126569884D01*
X144574582Y-126485756D01*
X144712538Y-126372538D01*
X144825756Y-126234582D01*
X144909884Y-126077188D01*
X144961690Y-125906407D01*
X144974554Y-125775798D01*
X147823320Y-125775798D01*
X147823320Y-125929642D01*
X147853333Y-126080529D01*
X147912207Y-126222662D01*
X147997678Y-126350579D01*
X148106461Y-126459362D01*
X148234378Y-126544833D01*
X148376511Y-126603707D01*
X148527398Y-126633720D01*
X148681242Y-126633720D01*
X148832129Y-126603707D01*
X148974262Y-126544833D01*
X149102179Y-126459362D01*
X149210962Y-126350579D01*
X149296433Y-126222662D01*
X149355307Y-126080529D01*
X149385320Y-125929642D01*
X149385320Y-125775798D01*
X149355307Y-125624911D01*
X149296433Y-125482778D01*
X149210962Y-125354861D01*
X149102179Y-125246078D01*
X148974262Y-125160607D01*
X148832129Y-125101733D01*
X148681242Y-125071720D01*
X148527398Y-125071720D01*
X148376511Y-125101733D01*
X148234378Y-125160607D01*
X148106461Y-125246078D01*
X147997678Y-125354861D01*
X147912207Y-125482778D01*
X147853333Y-125624911D01*
X147823320Y-125775798D01*
X144974554Y-125775798D01*
X144979183Y-125728800D01*
X144961690Y-125551193D01*
X144909884Y-125380412D01*
X144825756Y-125223018D01*
X144712538Y-125085062D01*
X144574582Y-124971844D01*
X144417188Y-124887716D01*
X144246407Y-124835910D01*
X144113301Y-124822800D01*
X142974299Y-124822800D01*
X142841193Y-124835910D01*
X142670412Y-124887716D01*
X142513018Y-124971844D01*
X142375062Y-125085062D01*
X142261844Y-125223018D01*
X142177716Y-125380412D01*
X142125910Y-125551193D01*
X142108417Y-125728800D01*
X140799183Y-125728800D01*
X140781690Y-125551193D01*
X140729884Y-125380412D01*
X140645756Y-125223018D01*
X140532538Y-125085062D01*
X140394582Y-124971844D01*
X140237188Y-124887716D01*
X140066407Y-124835910D01*
X139933301Y-124822800D01*
X138794299Y-124822800D01*
X138661193Y-124835910D01*
X138490412Y-124887716D01*
X138333018Y-124971844D01*
X138195062Y-125085062D01*
X138081844Y-125223018D01*
X137997716Y-125380412D01*
X137945910Y-125551193D01*
X137928417Y-125728800D01*
X137356000Y-125728800D01*
X137356000Y-122720178D01*
X137858900Y-122720178D01*
X137858900Y-122874022D01*
X137888913Y-123024909D01*
X137947787Y-123167042D01*
X138033258Y-123294959D01*
X138142041Y-123403742D01*
X138269958Y-123489213D01*
X138412091Y-123548087D01*
X138562978Y-123578100D01*
X138716822Y-123578100D01*
X138867709Y-123548087D01*
X139009842Y-123489213D01*
X139137759Y-123403742D01*
X139246542Y-123294959D01*
X139332013Y-123167042D01*
X139390887Y-123024909D01*
X139420900Y-122874022D01*
X139420900Y-122720178D01*
X139390887Y-122569291D01*
X139376991Y-122535743D01*
X143628902Y-122535743D01*
X143628902Y-122689587D01*
X143658915Y-122840474D01*
X143717789Y-122982607D01*
X143803260Y-123110524D01*
X143912043Y-123219307D01*
X144039960Y-123304778D01*
X144182093Y-123363652D01*
X144332980Y-123393665D01*
X144486824Y-123393665D01*
X144637711Y-123363652D01*
X144779844Y-123304778D01*
X144907761Y-123219307D01*
X145000060Y-123127008D01*
X145000060Y-123213660D01*
X145007381Y-123287989D01*
X145008608Y-123292034D01*
X144975513Y-123371931D01*
X144945500Y-123522818D01*
X144945500Y-123676662D01*
X144975513Y-123827549D01*
X145034387Y-123969682D01*
X145119858Y-124097599D01*
X145228641Y-124206382D01*
X145356558Y-124291853D01*
X145498691Y-124350727D01*
X145649578Y-124380740D01*
X145803422Y-124380740D01*
X145954309Y-124350727D01*
X146096442Y-124291853D01*
X146224359Y-124206382D01*
X146333142Y-124097599D01*
X146418613Y-123969682D01*
X146477487Y-123827549D01*
X146507500Y-123676662D01*
X146507500Y-123594660D01*
X158152180Y-123594660D01*
X158226509Y-123587339D01*
X158297982Y-123565658D01*
X158363852Y-123530450D01*
X158421588Y-123483068D01*
X158468970Y-123425332D01*
X158504178Y-123359462D01*
X158525859Y-123287989D01*
X158533180Y-123213660D01*
X158533180Y-120245369D01*
X158636598Y-120265940D01*
X158790442Y-120265940D01*
X158941329Y-120235927D01*
X159083462Y-120177053D01*
X159211379Y-120091582D01*
X159320162Y-119982799D01*
X159405633Y-119854882D01*
X159464507Y-119712749D01*
X159494520Y-119561862D01*
X159494520Y-119408018D01*
X159464507Y-119257131D01*
X159405633Y-119114998D01*
X159320162Y-118987081D01*
X159211379Y-118878298D01*
X159083462Y-118792827D01*
X158941329Y-118733953D01*
X158790442Y-118703940D01*
X158636598Y-118703940D01*
X158485711Y-118733953D01*
X158343578Y-118792827D01*
X158215661Y-118878298D01*
X158106878Y-118987081D01*
X158021407Y-119114998D01*
X158020727Y-119116640D01*
X148837989Y-119116640D01*
X148834153Y-119107378D01*
X148748682Y-118979461D01*
X148639899Y-118870678D01*
X148511982Y-118785207D01*
X148369849Y-118726333D01*
X148218962Y-118696320D01*
X148065118Y-118696320D01*
X147914231Y-118726333D01*
X147772098Y-118785207D01*
X147644181Y-118870678D01*
X147535398Y-118979461D01*
X147449927Y-119107378D01*
X147446091Y-119116640D01*
X145381060Y-119116640D01*
X145306731Y-119123961D01*
X145235258Y-119145642D01*
X145169388Y-119180850D01*
X145111652Y-119228232D01*
X145064270Y-119285968D01*
X145029062Y-119351838D01*
X145007381Y-119423311D01*
X145000060Y-119497640D01*
X145000060Y-122098322D01*
X144907761Y-122006023D01*
X144779844Y-121920552D01*
X144637711Y-121861678D01*
X144486824Y-121831665D01*
X144332980Y-121831665D01*
X144182093Y-121861678D01*
X144039960Y-121920552D01*
X143912043Y-122006023D01*
X143803260Y-122114806D01*
X143717789Y-122242723D01*
X143658915Y-122384856D01*
X143628902Y-122535743D01*
X139376991Y-122535743D01*
X139332013Y-122427158D01*
X139246542Y-122299241D01*
X139137759Y-122190458D01*
X139009842Y-122104987D01*
X138867709Y-122046113D01*
X138716822Y-122016100D01*
X138562978Y-122016100D01*
X138412091Y-122046113D01*
X138269958Y-122104987D01*
X138142041Y-122190458D01*
X138033258Y-122299241D01*
X137947787Y-122427158D01*
X137888913Y-122569291D01*
X137858900Y-122720178D01*
X137356000Y-122720178D01*
X137356000Y-120744058D01*
X139669920Y-120744058D01*
X139669920Y-120897902D01*
X139699933Y-121048789D01*
X139758807Y-121190922D01*
X139844278Y-121318839D01*
X139953061Y-121427622D01*
X140080978Y-121513093D01*
X140223111Y-121571967D01*
X140373998Y-121601980D01*
X140527842Y-121601980D01*
X140678729Y-121571967D01*
X140820862Y-121513093D01*
X140948779Y-121427622D01*
X141057562Y-121318839D01*
X141143033Y-121190922D01*
X141201907Y-121048789D01*
X141231920Y-120897902D01*
X141231920Y-120744058D01*
X141201907Y-120593171D01*
X141143033Y-120451038D01*
X141057562Y-120323121D01*
X140948779Y-120214338D01*
X140820862Y-120128867D01*
X140678729Y-120069993D01*
X140527842Y-120039980D01*
X140373998Y-120039980D01*
X140223111Y-120069993D01*
X140080978Y-120128867D01*
X139953061Y-120214338D01*
X139844278Y-120323121D01*
X139758807Y-120451038D01*
X139699933Y-120593171D01*
X139669920Y-120744058D01*
X137356000Y-120744058D01*
X137356000Y-118585058D01*
X142334380Y-118585058D01*
X142334380Y-118738902D01*
X142364393Y-118889789D01*
X142423267Y-119031922D01*
X142508738Y-119159839D01*
X142617521Y-119268622D01*
X142745438Y-119354093D01*
X142887571Y-119412967D01*
X143038458Y-119442980D01*
X143192302Y-119442980D01*
X143343189Y-119412967D01*
X143434200Y-119375269D01*
X143434200Y-119521222D01*
X143464213Y-119672109D01*
X143523087Y-119814242D01*
X143608558Y-119942159D01*
X143717341Y-120050942D01*
X143845258Y-120136413D01*
X143987391Y-120195287D01*
X144138278Y-120225300D01*
X144292122Y-120225300D01*
X144443009Y-120195287D01*
X144585142Y-120136413D01*
X144713059Y-120050942D01*
X144821842Y-119942159D01*
X144907313Y-119814242D01*
X144966187Y-119672109D01*
X144996200Y-119521222D01*
X144996200Y-119367378D01*
X144966187Y-119216491D01*
X144907313Y-119074358D01*
X144821842Y-118946441D01*
X144713059Y-118837658D01*
X144585142Y-118752187D01*
X144443009Y-118693313D01*
X144292122Y-118663300D01*
X144138278Y-118663300D01*
X143987391Y-118693313D01*
X143896380Y-118731011D01*
X143896380Y-118585058D01*
X143866367Y-118434171D01*
X143807493Y-118292038D01*
X143722022Y-118164121D01*
X143685759Y-118127858D01*
X145555100Y-118127858D01*
X145555100Y-118281702D01*
X145585113Y-118432589D01*
X145643987Y-118574722D01*
X145729458Y-118702639D01*
X145838241Y-118811422D01*
X145966158Y-118896893D01*
X146108291Y-118955767D01*
X146259178Y-118985780D01*
X146413022Y-118985780D01*
X146563909Y-118955767D01*
X146706042Y-118896893D01*
X146833959Y-118811422D01*
X146942742Y-118702639D01*
X147028213Y-118574722D01*
X147087087Y-118432589D01*
X147117100Y-118281702D01*
X147117100Y-118127858D01*
X147087087Y-117976971D01*
X147028213Y-117834838D01*
X146942742Y-117706921D01*
X146833959Y-117598138D01*
X146706042Y-117512667D01*
X146563909Y-117453793D01*
X146413022Y-117423780D01*
X146259178Y-117423780D01*
X146108291Y-117453793D01*
X145966158Y-117512667D01*
X145838241Y-117598138D01*
X145729458Y-117706921D01*
X145643987Y-117834838D01*
X145585113Y-117976971D01*
X145555100Y-118127858D01*
X143685759Y-118127858D01*
X143613239Y-118055338D01*
X143485322Y-117969867D01*
X143343189Y-117910993D01*
X143192302Y-117880980D01*
X143038458Y-117880980D01*
X142887571Y-117910993D01*
X142745438Y-117969867D01*
X142617521Y-118055338D01*
X142508738Y-118164121D01*
X142423267Y-118292038D01*
X142364393Y-118434171D01*
X142334380Y-118585058D01*
X137356000Y-118585058D01*
X137356000Y-116116178D01*
X139700400Y-116116178D01*
X139700400Y-116270022D01*
X139730413Y-116420909D01*
X139789287Y-116563042D01*
X139874758Y-116690959D01*
X139983541Y-116799742D01*
X140111458Y-116885213D01*
X140253591Y-116944087D01*
X140404478Y-116974100D01*
X140558322Y-116974100D01*
X140709209Y-116944087D01*
X140851342Y-116885213D01*
X140979259Y-116799742D01*
X141088042Y-116690959D01*
X141173513Y-116563042D01*
X141232387Y-116420909D01*
X141262400Y-116270022D01*
X141262400Y-116116178D01*
X141232387Y-115965291D01*
X141173513Y-115823158D01*
X141088042Y-115695241D01*
X141008599Y-115615798D01*
X145684081Y-115615798D01*
X145684081Y-115769642D01*
X145714094Y-115920529D01*
X145772968Y-116062662D01*
X145858439Y-116190579D01*
X145967222Y-116299362D01*
X146095139Y-116384833D01*
X146237272Y-116443707D01*
X146388159Y-116473720D01*
X146542003Y-116473720D01*
X146692890Y-116443707D01*
X146835023Y-116384833D01*
X146962940Y-116299362D01*
X147071723Y-116190579D01*
X147157194Y-116062662D01*
X147216068Y-115920529D01*
X147246081Y-115769642D01*
X147246081Y-115615798D01*
X147216068Y-115464911D01*
X147157194Y-115322778D01*
X147071723Y-115194861D01*
X146962940Y-115086078D01*
X146835023Y-115000607D01*
X146692890Y-114941733D01*
X146542003Y-114911720D01*
X146388159Y-114911720D01*
X146237272Y-114941733D01*
X146095139Y-115000607D01*
X145967222Y-115086078D01*
X145858439Y-115194861D01*
X145772968Y-115322778D01*
X145714094Y-115464911D01*
X145684081Y-115615798D01*
X141008599Y-115615798D01*
X140979259Y-115586458D01*
X140851342Y-115500987D01*
X140709209Y-115442113D01*
X140558322Y-115412100D01*
X140404478Y-115412100D01*
X140253591Y-115442113D01*
X140111458Y-115500987D01*
X139983541Y-115586458D01*
X139874758Y-115695241D01*
X139789287Y-115823158D01*
X139730413Y-115965291D01*
X139700400Y-116116178D01*
X137356000Y-116116178D01*
X137356000Y-114693778D01*
X150216000Y-114693778D01*
X150216000Y-114847622D01*
X150246013Y-114998509D01*
X150304887Y-115140642D01*
X150390358Y-115268559D01*
X150499141Y-115377342D01*
X150627058Y-115462813D01*
X150769191Y-115521687D01*
X150920078Y-115551700D01*
X151073922Y-115551700D01*
X151224809Y-115521687D01*
X151366942Y-115462813D01*
X151494859Y-115377342D01*
X151603642Y-115268559D01*
X151689113Y-115140642D01*
X151747987Y-114998509D01*
X151778000Y-114847622D01*
X151778000Y-114693778D01*
X151775474Y-114681078D01*
X152146400Y-114681078D01*
X152146400Y-114834922D01*
X152176413Y-114985809D01*
X152235287Y-115127942D01*
X152320758Y-115255859D01*
X152429541Y-115364642D01*
X152557458Y-115450113D01*
X152699591Y-115508987D01*
X152850478Y-115539000D01*
X153004322Y-115539000D01*
X153155209Y-115508987D01*
X153297342Y-115450113D01*
X153425259Y-115364642D01*
X153534042Y-115255859D01*
X153619513Y-115127942D01*
X153678387Y-114985809D01*
X153708400Y-114834922D01*
X153708400Y-114681078D01*
X153678387Y-114530191D01*
X153619513Y-114388058D01*
X153534042Y-114260141D01*
X153425259Y-114151358D01*
X153297342Y-114065887D01*
X153155209Y-114007013D01*
X153004322Y-113977000D01*
X152850478Y-113977000D01*
X152699591Y-114007013D01*
X152557458Y-114065887D01*
X152429541Y-114151358D01*
X152320758Y-114260141D01*
X152235287Y-114388058D01*
X152176413Y-114530191D01*
X152146400Y-114681078D01*
X151775474Y-114681078D01*
X151747987Y-114542891D01*
X151689113Y-114400758D01*
X151603642Y-114272841D01*
X151494859Y-114164058D01*
X151366942Y-114078587D01*
X151224809Y-114019713D01*
X151073922Y-113989700D01*
X150920078Y-113989700D01*
X150769191Y-114019713D01*
X150627058Y-114078587D01*
X150499141Y-114164058D01*
X150390358Y-114272841D01*
X150304887Y-114400758D01*
X150246013Y-114542891D01*
X150216000Y-114693778D01*
X137356000Y-114693778D01*
X137356000Y-113230738D01*
X139631820Y-113230738D01*
X139631820Y-113384582D01*
X139661833Y-113535469D01*
X139720707Y-113677602D01*
X139806178Y-113805519D01*
X139914961Y-113914302D01*
X140042878Y-113999773D01*
X140185011Y-114058647D01*
X140335898Y-114088660D01*
X140489742Y-114088660D01*
X140640629Y-114058647D01*
X140782762Y-113999773D01*
X140910679Y-113914302D01*
X141019462Y-113805519D01*
X141104933Y-113677602D01*
X141163807Y-113535469D01*
X141193820Y-113384582D01*
X141193820Y-113230738D01*
X141163807Y-113079851D01*
X141104933Y-112937718D01*
X141019462Y-112809801D01*
X140910679Y-112701018D01*
X140782762Y-112615547D01*
X140640629Y-112556673D01*
X140489742Y-112526660D01*
X140335898Y-112526660D01*
X140185011Y-112556673D01*
X140042878Y-112615547D01*
X139914961Y-112701018D01*
X139806178Y-112809801D01*
X139720707Y-112937718D01*
X139661833Y-113079851D01*
X139631820Y-113230738D01*
X137356000Y-113230738D01*
X137356000Y-112430608D01*
X137359102Y-112438097D01*
X137493820Y-112639717D01*
X137665283Y-112811180D01*
X137866903Y-112945898D01*
X138090931Y-113038693D01*
X138328757Y-113086000D01*
X138571243Y-113086000D01*
X138809069Y-113038693D01*
X139033097Y-112945898D01*
X139234717Y-112811180D01*
X139406180Y-112639717D01*
X139540898Y-112438097D01*
X139633693Y-112214069D01*
X139681000Y-111976243D01*
X139681000Y-111733757D01*
X139633693Y-111495931D01*
X139540898Y-111271903D01*
X139406180Y-111070283D01*
X139234717Y-110898820D01*
X139033097Y-110764102D01*
X138809069Y-110671307D01*
X138571243Y-110624000D01*
X138328757Y-110624000D01*
X138090931Y-110671307D01*
X137866903Y-110764102D01*
X137665283Y-110898820D01*
X137493820Y-111070283D01*
X137359102Y-111271903D01*
X137356000Y-111279392D01*
X137356000Y-109890608D01*
X137359102Y-109898097D01*
X137493820Y-110099717D01*
X137665283Y-110271180D01*
X137866903Y-110405898D01*
X138090931Y-110498693D01*
X138328757Y-110546000D01*
X138571243Y-110546000D01*
X138809069Y-110498693D01*
X139033097Y-110405898D01*
X139234717Y-110271180D01*
X139406180Y-110099717D01*
X139540898Y-109898097D01*
X139633693Y-109674069D01*
X139642599Y-109629295D01*
X143541941Y-109629295D01*
X143541941Y-109783139D01*
X143571954Y-109934026D01*
X143630828Y-110076159D01*
X143716299Y-110204076D01*
X143825082Y-110312859D01*
X143952999Y-110398330D01*
X144095132Y-110457204D01*
X144239380Y-110485896D01*
X144239380Y-110519462D01*
X144269393Y-110670349D01*
X144328267Y-110812482D01*
X144413738Y-110940399D01*
X144522521Y-111049182D01*
X144650438Y-111134653D01*
X144792571Y-111193527D01*
X144943458Y-111223540D01*
X145097302Y-111223540D01*
X145248189Y-111193527D01*
X145390322Y-111134653D01*
X145518239Y-111049182D01*
X145627022Y-110940399D01*
X145712493Y-110812482D01*
X145771367Y-110670349D01*
X145801380Y-110519462D01*
X145801380Y-110365618D01*
X145771367Y-110214731D01*
X145712493Y-110072598D01*
X145627022Y-109944681D01*
X145518239Y-109835898D01*
X145390322Y-109750427D01*
X145248189Y-109691553D01*
X145103941Y-109662861D01*
X145103941Y-109629295D01*
X145073928Y-109478408D01*
X145015054Y-109336275D01*
X144929583Y-109208358D01*
X144820800Y-109099575D01*
X144804321Y-109088564D01*
X157002314Y-109088564D01*
X157002314Y-109242408D01*
X157032327Y-109393295D01*
X157091201Y-109535428D01*
X157176672Y-109663345D01*
X157285455Y-109772128D01*
X157413372Y-109857599D01*
X157555505Y-109916473D01*
X157706392Y-109946486D01*
X157860236Y-109946486D01*
X158011123Y-109916473D01*
X158153256Y-109857599D01*
X158281173Y-109772128D01*
X158389956Y-109663345D01*
X158475427Y-109535428D01*
X158534301Y-109393295D01*
X158564314Y-109242408D01*
X158564314Y-109088564D01*
X158534301Y-108937677D01*
X158475427Y-108795544D01*
X158389956Y-108667627D01*
X158281173Y-108558844D01*
X158153256Y-108473373D01*
X158011123Y-108414499D01*
X157860236Y-108384486D01*
X157706392Y-108384486D01*
X157555505Y-108414499D01*
X157413372Y-108473373D01*
X157285455Y-108558844D01*
X157176672Y-108667627D01*
X157091201Y-108795544D01*
X157032327Y-108937677D01*
X157002314Y-109088564D01*
X144804321Y-109088564D01*
X144692883Y-109014104D01*
X144550750Y-108955230D01*
X144399863Y-108925217D01*
X144246019Y-108925217D01*
X144095132Y-108955230D01*
X143952999Y-109014104D01*
X143825082Y-109099575D01*
X143716299Y-109208358D01*
X143630828Y-109336275D01*
X143571954Y-109478408D01*
X143541941Y-109629295D01*
X139642599Y-109629295D01*
X139681000Y-109436243D01*
X139681000Y-109193757D01*
X139633693Y-108955931D01*
X139540898Y-108731903D01*
X139406180Y-108530283D01*
X139234717Y-108358820D01*
X139033097Y-108224102D01*
X138809069Y-108131307D01*
X138571243Y-108084000D01*
X138328757Y-108084000D01*
X138090931Y-108131307D01*
X137866903Y-108224102D01*
X137665283Y-108358820D01*
X137493820Y-108530283D01*
X137359102Y-108731903D01*
X137356000Y-108739392D01*
X137356000Y-107350608D01*
X137359102Y-107358097D01*
X137493820Y-107559717D01*
X137665283Y-107731180D01*
X137866903Y-107865898D01*
X138090931Y-107958693D01*
X138328757Y-108006000D01*
X138571243Y-108006000D01*
X138809069Y-107958693D01*
X139033097Y-107865898D01*
X139234717Y-107731180D01*
X139406180Y-107559717D01*
X139540898Y-107358097D01*
X139633693Y-107134069D01*
X139681000Y-106896243D01*
X139681000Y-106653757D01*
X139633693Y-106415931D01*
X139540898Y-106191903D01*
X139486707Y-106110800D01*
X142458522Y-106110800D01*
X142458522Y-106264644D01*
X142488535Y-106415531D01*
X142547409Y-106557664D01*
X142632880Y-106685581D01*
X142741663Y-106794364D01*
X142869580Y-106879835D01*
X143011713Y-106938709D01*
X143162600Y-106968722D01*
X143316444Y-106968722D01*
X143467331Y-106938709D01*
X143609464Y-106879835D01*
X143737381Y-106794364D01*
X143846164Y-106685581D01*
X143931635Y-106557664D01*
X143990509Y-106415531D01*
X144020522Y-106264644D01*
X144020522Y-106136518D01*
X145979280Y-106136518D01*
X145979280Y-106290362D01*
X146009293Y-106441249D01*
X146068167Y-106583382D01*
X146153638Y-106711299D01*
X146262421Y-106820082D01*
X146390338Y-106905553D01*
X146532471Y-106964427D01*
X146683358Y-106994440D01*
X146837202Y-106994440D01*
X146988089Y-106964427D01*
X147130222Y-106905553D01*
X147258139Y-106820082D01*
X147366922Y-106711299D01*
X147452393Y-106583382D01*
X147511267Y-106441249D01*
X147541280Y-106290362D01*
X147541280Y-106227958D01*
X150744320Y-106227958D01*
X150744320Y-106381802D01*
X150774333Y-106532689D01*
X150833207Y-106674822D01*
X150918678Y-106802739D01*
X151027461Y-106911522D01*
X151155378Y-106996993D01*
X151297511Y-107055867D01*
X151448398Y-107085880D01*
X151602242Y-107085880D01*
X151753129Y-107055867D01*
X151895262Y-106996993D01*
X152023179Y-106911522D01*
X152131962Y-106802739D01*
X152173886Y-106739995D01*
X152198838Y-106777339D01*
X152307621Y-106886122D01*
X152435538Y-106971593D01*
X152577671Y-107030467D01*
X152728558Y-107060480D01*
X152882402Y-107060480D01*
X152904934Y-107055998D01*
X156477100Y-107055998D01*
X156477100Y-107209842D01*
X156507113Y-107360729D01*
X156565987Y-107502862D01*
X156651458Y-107630779D01*
X156760241Y-107739562D01*
X156888158Y-107825033D01*
X157030291Y-107883907D01*
X157181178Y-107913920D01*
X157335022Y-107913920D01*
X157485909Y-107883907D01*
X157628042Y-107825033D01*
X157755959Y-107739562D01*
X157864742Y-107630779D01*
X157950213Y-107502862D01*
X158009087Y-107360729D01*
X158039100Y-107209842D01*
X158039100Y-107055998D01*
X158009087Y-106905111D01*
X157950213Y-106762978D01*
X157864742Y-106635061D01*
X157755959Y-106526278D01*
X157628042Y-106440807D01*
X157485909Y-106381933D01*
X157335022Y-106351920D01*
X157181178Y-106351920D01*
X157030291Y-106381933D01*
X156888158Y-106440807D01*
X156760241Y-106526278D01*
X156651458Y-106635061D01*
X156565987Y-106762978D01*
X156507113Y-106905111D01*
X156477100Y-107055998D01*
X152904934Y-107055998D01*
X153033289Y-107030467D01*
X153175422Y-106971593D01*
X153303339Y-106886122D01*
X153412122Y-106777339D01*
X153497593Y-106649422D01*
X153556467Y-106507289D01*
X153586480Y-106356402D01*
X153586480Y-106202558D01*
X153556467Y-106051671D01*
X153497593Y-105909538D01*
X153412122Y-105781621D01*
X153303339Y-105672838D01*
X153175422Y-105587367D01*
X153033289Y-105528493D01*
X152882402Y-105498480D01*
X152728558Y-105498480D01*
X152577671Y-105528493D01*
X152435538Y-105587367D01*
X152307621Y-105672838D01*
X152198838Y-105781621D01*
X152156914Y-105844365D01*
X152131962Y-105807021D01*
X152023179Y-105698238D01*
X151895262Y-105612767D01*
X151753129Y-105553893D01*
X151602242Y-105523880D01*
X151448398Y-105523880D01*
X151297511Y-105553893D01*
X151155378Y-105612767D01*
X151027461Y-105698238D01*
X150918678Y-105807021D01*
X150833207Y-105934938D01*
X150774333Y-106077071D01*
X150744320Y-106227958D01*
X147541280Y-106227958D01*
X147541280Y-106136518D01*
X147511267Y-105985631D01*
X147452393Y-105843498D01*
X147366922Y-105715581D01*
X147258139Y-105606798D01*
X147130222Y-105521327D01*
X146988089Y-105462453D01*
X146837202Y-105432440D01*
X146683358Y-105432440D01*
X146532471Y-105462453D01*
X146390338Y-105521327D01*
X146262421Y-105606798D01*
X146153638Y-105715581D01*
X146068167Y-105843498D01*
X146009293Y-105985631D01*
X145979280Y-106136518D01*
X144020522Y-106136518D01*
X144020522Y-106110800D01*
X143990509Y-105959913D01*
X143931635Y-105817780D01*
X143846164Y-105689863D01*
X143737381Y-105581080D01*
X143609464Y-105495609D01*
X143467331Y-105436735D01*
X143316444Y-105406722D01*
X143162600Y-105406722D01*
X143011713Y-105436735D01*
X142869580Y-105495609D01*
X142741663Y-105581080D01*
X142632880Y-105689863D01*
X142547409Y-105817780D01*
X142488535Y-105959913D01*
X142458522Y-106110800D01*
X139486707Y-106110800D01*
X139406180Y-105990283D01*
X139234717Y-105818820D01*
X139033097Y-105684102D01*
X138809069Y-105591307D01*
X138571243Y-105544000D01*
X138328757Y-105544000D01*
X138090931Y-105591307D01*
X137866903Y-105684102D01*
X137665283Y-105818820D01*
X137493820Y-105990283D01*
X137359102Y-106191903D01*
X137356000Y-106199392D01*
X137356000Y-104810608D01*
X137359102Y-104818097D01*
X137493820Y-105019717D01*
X137665283Y-105191180D01*
X137866903Y-105325898D01*
X138090931Y-105418693D01*
X138328757Y-105466000D01*
X138571243Y-105466000D01*
X138809069Y-105418693D01*
X139033097Y-105325898D01*
X139234717Y-105191180D01*
X139406180Y-105019717D01*
X139484783Y-104902078D01*
X148819000Y-104902078D01*
X148819000Y-105055922D01*
X148849013Y-105206809D01*
X148907887Y-105348942D01*
X148993358Y-105476859D01*
X149102141Y-105585642D01*
X149230058Y-105671113D01*
X149372191Y-105729987D01*
X149523078Y-105760000D01*
X149676922Y-105760000D01*
X149827809Y-105729987D01*
X149969942Y-105671113D01*
X150097859Y-105585642D01*
X150206642Y-105476859D01*
X150292113Y-105348942D01*
X150350987Y-105206809D01*
X150381000Y-105055922D01*
X150381000Y-104902078D01*
X150350987Y-104751191D01*
X150292113Y-104609058D01*
X150206642Y-104481141D01*
X150097859Y-104372358D01*
X149969942Y-104286887D01*
X149827809Y-104228013D01*
X149676922Y-104198000D01*
X149523078Y-104198000D01*
X149372191Y-104228013D01*
X149230058Y-104286887D01*
X149102141Y-104372358D01*
X148993358Y-104481141D01*
X148907887Y-104609058D01*
X148849013Y-104751191D01*
X148819000Y-104902078D01*
X139484783Y-104902078D01*
X139540898Y-104818097D01*
X139633693Y-104594069D01*
X139681000Y-104356243D01*
X139681000Y-104113757D01*
X139650869Y-103962278D01*
X142596000Y-103962278D01*
X142596000Y-104116122D01*
X142626013Y-104267009D01*
X142684887Y-104409142D01*
X142770358Y-104537059D01*
X142879141Y-104645842D01*
X143007058Y-104731313D01*
X143149191Y-104790187D01*
X143300078Y-104820200D01*
X143453922Y-104820200D01*
X143604809Y-104790187D01*
X143746942Y-104731313D01*
X143874859Y-104645842D01*
X143983642Y-104537059D01*
X144069113Y-104409142D01*
X144127987Y-104267009D01*
X144158000Y-104116122D01*
X144158000Y-103962278D01*
X144127987Y-103811391D01*
X144085276Y-103708278D01*
X154681320Y-103708278D01*
X154681320Y-103862122D01*
X154711333Y-104013009D01*
X154770207Y-104155142D01*
X154855678Y-104283059D01*
X154964461Y-104391842D01*
X155092378Y-104477313D01*
X155234511Y-104536187D01*
X155385398Y-104566200D01*
X155539242Y-104566200D01*
X155690129Y-104536187D01*
X155832262Y-104477313D01*
X155960179Y-104391842D01*
X156068962Y-104283059D01*
X156154433Y-104155142D01*
X156213307Y-104013009D01*
X156243320Y-103862122D01*
X156243320Y-103708278D01*
X156213307Y-103557391D01*
X156154433Y-103415258D01*
X156068962Y-103287341D01*
X155960179Y-103178558D01*
X155832262Y-103093087D01*
X155690129Y-103034213D01*
X155539242Y-103004200D01*
X155385398Y-103004200D01*
X155234511Y-103034213D01*
X155092378Y-103093087D01*
X154964461Y-103178558D01*
X154855678Y-103287341D01*
X154770207Y-103415258D01*
X154711333Y-103557391D01*
X154681320Y-103708278D01*
X144085276Y-103708278D01*
X144069113Y-103669258D01*
X143983642Y-103541341D01*
X143874859Y-103432558D01*
X143746942Y-103347087D01*
X143604809Y-103288213D01*
X143453922Y-103258200D01*
X143300078Y-103258200D01*
X143149191Y-103288213D01*
X143007058Y-103347087D01*
X142879141Y-103432558D01*
X142770358Y-103541341D01*
X142684887Y-103669258D01*
X142626013Y-103811391D01*
X142596000Y-103962278D01*
X139650869Y-103962278D01*
X139633693Y-103875931D01*
X139540898Y-103651903D01*
X139406180Y-103450283D01*
X139234717Y-103278820D01*
X139033097Y-103144102D01*
X138809069Y-103051307D01*
X138571243Y-103004000D01*
X138328757Y-103004000D01*
X138090931Y-103051307D01*
X137866903Y-103144102D01*
X137665283Y-103278820D01*
X137493820Y-103450283D01*
X137359102Y-103651903D01*
X137356000Y-103659392D01*
X137356000Y-102270608D01*
X137359102Y-102278097D01*
X137493820Y-102479717D01*
X137665283Y-102651180D01*
X137866903Y-102785898D01*
X138090931Y-102878693D01*
X138328757Y-102926000D01*
X138571243Y-102926000D01*
X138809069Y-102878693D01*
X139033097Y-102785898D01*
X139234717Y-102651180D01*
X139406180Y-102479717D01*
X139540898Y-102278097D01*
X139633693Y-102054069D01*
X139681000Y-101816243D01*
X139681000Y-101573757D01*
X139633693Y-101335931D01*
X139540898Y-101111903D01*
X139406180Y-100910283D01*
X139234717Y-100738820D01*
X139033097Y-100604102D01*
X138809069Y-100511307D01*
X138571243Y-100464000D01*
X138328757Y-100464000D01*
X138090931Y-100511307D01*
X137866903Y-100604102D01*
X137665283Y-100738820D01*
X137493820Y-100910283D01*
X137359102Y-101111903D01*
X137356000Y-101119392D01*
X137356000Y-99730608D01*
X137359102Y-99738097D01*
X137493820Y-99939717D01*
X137665283Y-100111180D01*
X137866903Y-100245898D01*
X138090931Y-100338693D01*
X138328757Y-100386000D01*
X138571243Y-100386000D01*
X138809069Y-100338693D01*
X139033097Y-100245898D01*
X139234717Y-100111180D01*
X139406180Y-99939717D01*
X139540898Y-99738097D01*
X139633693Y-99514069D01*
X139670947Y-99326778D01*
X148057000Y-99326778D01*
X148057000Y-99480622D01*
X148087013Y-99631509D01*
X148145887Y-99773642D01*
X148231358Y-99901559D01*
X148340141Y-100010342D01*
X148468058Y-100095813D01*
X148610191Y-100154687D01*
X148761078Y-100184700D01*
X148914922Y-100184700D01*
X149065809Y-100154687D01*
X149207942Y-100095813D01*
X149335859Y-100010342D01*
X149444642Y-99901559D01*
X149530113Y-99773642D01*
X149588987Y-99631509D01*
X149619000Y-99480622D01*
X149619000Y-99326778D01*
X149588987Y-99175891D01*
X149530113Y-99033758D01*
X149444642Y-98905841D01*
X149335859Y-98797058D01*
X149207942Y-98711587D01*
X149065809Y-98652713D01*
X148914922Y-98622700D01*
X148761078Y-98622700D01*
X148610191Y-98652713D01*
X148468058Y-98711587D01*
X148340141Y-98797058D01*
X148231358Y-98905841D01*
X148145887Y-99033758D01*
X148087013Y-99175891D01*
X148057000Y-99326778D01*
X139670947Y-99326778D01*
X139681000Y-99276243D01*
X139681000Y-99033757D01*
X139633693Y-98795931D01*
X139540898Y-98571903D01*
X139406180Y-98370283D01*
X139234717Y-98198820D01*
X139033097Y-98064102D01*
X138809069Y-97971307D01*
X138571243Y-97924000D01*
X138328757Y-97924000D01*
X138090931Y-97971307D01*
X137866903Y-98064102D01*
X137665283Y-98198820D01*
X137493820Y-98370283D01*
X137359102Y-98571903D01*
X137356000Y-98579392D01*
X137356000Y-97190608D01*
X137359102Y-97198097D01*
X137493820Y-97399717D01*
X137665283Y-97571180D01*
X137866903Y-97705898D01*
X138090931Y-97798693D01*
X138328757Y-97846000D01*
X138571243Y-97846000D01*
X138809069Y-97798693D01*
X139033097Y-97705898D01*
X139234717Y-97571180D01*
X139406180Y-97399717D01*
X139540898Y-97198097D01*
X139632902Y-96975978D01*
X150431500Y-96975978D01*
X150431500Y-97129822D01*
X150461513Y-97280709D01*
X150520387Y-97422842D01*
X150605858Y-97550759D01*
X150714641Y-97659542D01*
X150842558Y-97745013D01*
X150984691Y-97803887D01*
X151135578Y-97833900D01*
X151289422Y-97833900D01*
X151440309Y-97803887D01*
X151582442Y-97745013D01*
X151710359Y-97659542D01*
X151819142Y-97550759D01*
X151904613Y-97422842D01*
X151963487Y-97280709D01*
X151993500Y-97129822D01*
X151993500Y-96975978D01*
X151963487Y-96825091D01*
X151904613Y-96682958D01*
X151819142Y-96555041D01*
X151710359Y-96446258D01*
X151582442Y-96360787D01*
X151440309Y-96301913D01*
X151289422Y-96271900D01*
X151135578Y-96271900D01*
X150984691Y-96301913D01*
X150842558Y-96360787D01*
X150714641Y-96446258D01*
X150605858Y-96555041D01*
X150520387Y-96682958D01*
X150461513Y-96825091D01*
X150431500Y-96975978D01*
X139632902Y-96975978D01*
X139633693Y-96974069D01*
X139681000Y-96736243D01*
X139681000Y-96493757D01*
X139633693Y-96255931D01*
X139540898Y-96031903D01*
X139406180Y-95830283D01*
X139234717Y-95658820D01*
X139033097Y-95524102D01*
X138809069Y-95431307D01*
X138571243Y-95384000D01*
X138328757Y-95384000D01*
X138090931Y-95431307D01*
X137866903Y-95524102D01*
X137665283Y-95658820D01*
X137493820Y-95830283D01*
X137359102Y-96031903D01*
X137356000Y-96039392D01*
X137356000Y-94650608D01*
X137359102Y-94658097D01*
X137493820Y-94859717D01*
X137665283Y-95031180D01*
X137866903Y-95165898D01*
X138090931Y-95258693D01*
X138328757Y-95306000D01*
X138571243Y-95306000D01*
X138809069Y-95258693D01*
X139033097Y-95165898D01*
X139234717Y-95031180D01*
X139406180Y-94859717D01*
X139540898Y-94658097D01*
X139632363Y-94437278D01*
X146380600Y-94437278D01*
X146380600Y-94591122D01*
X146410613Y-94742009D01*
X146469487Y-94884142D01*
X146554958Y-95012059D01*
X146663741Y-95120842D01*
X146791658Y-95206313D01*
X146933791Y-95265187D01*
X147084678Y-95295200D01*
X147238522Y-95295200D01*
X147389409Y-95265187D01*
X147531542Y-95206313D01*
X147659459Y-95120842D01*
X147768242Y-95012059D01*
X147853713Y-94884142D01*
X147912587Y-94742009D01*
X147942600Y-94591122D01*
X147942600Y-94437278D01*
X147912587Y-94286391D01*
X147853713Y-94144258D01*
X147768242Y-94016341D01*
X147659459Y-93907558D01*
X147531542Y-93822087D01*
X147389409Y-93763213D01*
X147238522Y-93733200D01*
X147084678Y-93733200D01*
X146933791Y-93763213D01*
X146791658Y-93822087D01*
X146663741Y-93907558D01*
X146554958Y-94016341D01*
X146469487Y-94144258D01*
X146410613Y-94286391D01*
X146380600Y-94437278D01*
X139632363Y-94437278D01*
X139633693Y-94434069D01*
X139681000Y-94196243D01*
X139681000Y-93953757D01*
X139633693Y-93715931D01*
X139540898Y-93491903D01*
X139406180Y-93290283D01*
X139234717Y-93118820D01*
X139033097Y-92984102D01*
X138809069Y-92891307D01*
X138571243Y-92844000D01*
X138328757Y-92844000D01*
X138090931Y-92891307D01*
X137866903Y-92984102D01*
X137665283Y-93118820D01*
X137493820Y-93290283D01*
X137359102Y-93491903D01*
X137356000Y-93499392D01*
X137356000Y-92110608D01*
X137359102Y-92118097D01*
X137493820Y-92319717D01*
X137665283Y-92491180D01*
X137866903Y-92625898D01*
X138090931Y-92718693D01*
X138328757Y-92766000D01*
X138571243Y-92766000D01*
X138809069Y-92718693D01*
X139033097Y-92625898D01*
X139234717Y-92491180D01*
X139406180Y-92319717D01*
X139540898Y-92118097D01*
X139586071Y-92009038D01*
X158191600Y-92009038D01*
X158191600Y-92162882D01*
X158221613Y-92313769D01*
X158280487Y-92455902D01*
X158365958Y-92583819D01*
X158474741Y-92692602D01*
X158602658Y-92778073D01*
X158744791Y-92836947D01*
X158895678Y-92866960D01*
X159049522Y-92866960D01*
X159200409Y-92836947D01*
X159342542Y-92778073D01*
X159470459Y-92692602D01*
X159579242Y-92583819D01*
X159664713Y-92455902D01*
X159723587Y-92313769D01*
X159753600Y-92162882D01*
X159753600Y-92009038D01*
X159723587Y-91858151D01*
X159664713Y-91716018D01*
X159579242Y-91588101D01*
X159470459Y-91479318D01*
X159342542Y-91393847D01*
X159200409Y-91334973D01*
X159049522Y-91304960D01*
X158895678Y-91304960D01*
X158744791Y-91334973D01*
X158602658Y-91393847D01*
X158474741Y-91479318D01*
X158365958Y-91588101D01*
X158280487Y-91716018D01*
X158221613Y-91858151D01*
X158191600Y-92009038D01*
X139586071Y-92009038D01*
X139633693Y-91894069D01*
X139681000Y-91656243D01*
X139681000Y-91413757D01*
X139633693Y-91175931D01*
X139540898Y-90951903D01*
X139406180Y-90750283D01*
X139234717Y-90578820D01*
X139033097Y-90444102D01*
X138809069Y-90351307D01*
X138571243Y-90304000D01*
X138328757Y-90304000D01*
X138090931Y-90351307D01*
X137866903Y-90444102D01*
X137665283Y-90578820D01*
X137493820Y-90750283D01*
X137359102Y-90951903D01*
X137356000Y-90959392D01*
X137356000Y-89570608D01*
X137359102Y-89578097D01*
X137493820Y-89779717D01*
X137665283Y-89951180D01*
X137866903Y-90085898D01*
X138090931Y-90178693D01*
X138328757Y-90226000D01*
X138571243Y-90226000D01*
X138809069Y-90178693D01*
X139033097Y-90085898D01*
X139234717Y-89951180D01*
X139406180Y-89779717D01*
X139540898Y-89578097D01*
X139633693Y-89354069D01*
X139681000Y-89116243D01*
X139681000Y-88873757D01*
X139633693Y-88635931D01*
X139540898Y-88411903D01*
X139406180Y-88210283D01*
X139234717Y-88038820D01*
X139033097Y-87904102D01*
X138809069Y-87811307D01*
X138571243Y-87764000D01*
X138328757Y-87764000D01*
X138090931Y-87811307D01*
X137866903Y-87904102D01*
X137665283Y-88038820D01*
X137493820Y-88210283D01*
X137359102Y-88411903D01*
X137356000Y-88419392D01*
X137356000Y-87030608D01*
X137359102Y-87038097D01*
X137493820Y-87239717D01*
X137665283Y-87411180D01*
X137866903Y-87545898D01*
X138090931Y-87638693D01*
X138328757Y-87686000D01*
X138571243Y-87686000D01*
X138809069Y-87638693D01*
X138848263Y-87622458D01*
X142816980Y-87622458D01*
X142816980Y-87776302D01*
X142846993Y-87927189D01*
X142905867Y-88069322D01*
X142991338Y-88197239D01*
X143100121Y-88306022D01*
X143228038Y-88391493D01*
X143370171Y-88450367D01*
X143521058Y-88480380D01*
X143674902Y-88480380D01*
X143825789Y-88450367D01*
X143967922Y-88391493D01*
X144095839Y-88306022D01*
X144204622Y-88197239D01*
X144290093Y-88069322D01*
X144348967Y-87927189D01*
X144378980Y-87776302D01*
X144378980Y-87622458D01*
X144348967Y-87471571D01*
X144290093Y-87329438D01*
X144204622Y-87201521D01*
X144095839Y-87092738D01*
X143967922Y-87007267D01*
X143825789Y-86948393D01*
X143807426Y-86944740D01*
X143835949Y-86939067D01*
X143978082Y-86880193D01*
X144105999Y-86794722D01*
X144214782Y-86685939D01*
X144300253Y-86558022D01*
X144359127Y-86415889D01*
X144389140Y-86265002D01*
X144389140Y-86111158D01*
X144388635Y-86108618D01*
X144939390Y-86108618D01*
X144939390Y-86262462D01*
X144969403Y-86413349D01*
X145028277Y-86555482D01*
X145113748Y-86683399D01*
X145222531Y-86792182D01*
X145350448Y-86877653D01*
X145492581Y-86936527D01*
X145643468Y-86966540D01*
X145797312Y-86966540D01*
X145948199Y-86936527D01*
X146090332Y-86877653D01*
X146218249Y-86792182D01*
X146327032Y-86683399D01*
X146412503Y-86555482D01*
X146471377Y-86413349D01*
X146501390Y-86262462D01*
X146501390Y-86108618D01*
X146493812Y-86070518D01*
X156342480Y-86070518D01*
X156342480Y-86224362D01*
X156372493Y-86375249D01*
X156431367Y-86517382D01*
X156516838Y-86645299D01*
X156625621Y-86754082D01*
X156753538Y-86839553D01*
X156895671Y-86898427D01*
X156997001Y-86918583D01*
X156898211Y-86938233D01*
X156756078Y-86997107D01*
X156628161Y-87082578D01*
X156519378Y-87191361D01*
X156433907Y-87319278D01*
X156375033Y-87461411D01*
X156345020Y-87612298D01*
X156345020Y-87766142D01*
X156375033Y-87917029D01*
X156433907Y-88059162D01*
X156519378Y-88187079D01*
X156628161Y-88295862D01*
X156756078Y-88381333D01*
X156889803Y-88436724D01*
X156753540Y-88493167D01*
X156625623Y-88578638D01*
X156516840Y-88687421D01*
X156431369Y-88815338D01*
X156372495Y-88957471D01*
X156342482Y-89108358D01*
X156342482Y-89262202D01*
X156372495Y-89413089D01*
X156431369Y-89555222D01*
X156516840Y-89683139D01*
X156625623Y-89791922D01*
X156753540Y-89877393D01*
X156895673Y-89936267D01*
X157046560Y-89966280D01*
X157200404Y-89966280D01*
X157351291Y-89936267D01*
X157493424Y-89877393D01*
X157621341Y-89791922D01*
X157730124Y-89683139D01*
X157815595Y-89555222D01*
X157874469Y-89413089D01*
X157904482Y-89262202D01*
X157904482Y-89108358D01*
X157874469Y-88957471D01*
X157815595Y-88815338D01*
X157730124Y-88687421D01*
X157621341Y-88578638D01*
X157493424Y-88493167D01*
X157359699Y-88437776D01*
X157495962Y-88381333D01*
X157623879Y-88295862D01*
X157732662Y-88187079D01*
X157818133Y-88059162D01*
X157877007Y-87917029D01*
X157907020Y-87766142D01*
X157907020Y-87612298D01*
X157877007Y-87461411D01*
X157818133Y-87319278D01*
X157732662Y-87191361D01*
X157623879Y-87082578D01*
X157495962Y-86997107D01*
X157353829Y-86938233D01*
X157252499Y-86918077D01*
X157351289Y-86898427D01*
X157493422Y-86839553D01*
X157621339Y-86754082D01*
X157730122Y-86645299D01*
X157815593Y-86517382D01*
X157874467Y-86375249D01*
X157904480Y-86224362D01*
X157904480Y-86070518D01*
X157874467Y-85919631D01*
X157815593Y-85777498D01*
X157730122Y-85649581D01*
X157621339Y-85540798D01*
X157493422Y-85455327D01*
X157428856Y-85428583D01*
X157523902Y-85389213D01*
X157651819Y-85303742D01*
X157760602Y-85194959D01*
X157846073Y-85067042D01*
X157904947Y-84924909D01*
X157934960Y-84774022D01*
X157934960Y-84620178D01*
X157904947Y-84469291D01*
X157846073Y-84327158D01*
X157760602Y-84199241D01*
X157651819Y-84090458D01*
X157523902Y-84004987D01*
X157381769Y-83946113D01*
X157230882Y-83916100D01*
X157077038Y-83916100D01*
X156926151Y-83946113D01*
X156784018Y-84004987D01*
X156656101Y-84090458D01*
X156547318Y-84199241D01*
X156461847Y-84327158D01*
X156402973Y-84469291D01*
X156372960Y-84620178D01*
X156372960Y-84774022D01*
X156402973Y-84924909D01*
X156461847Y-85067042D01*
X156547318Y-85194959D01*
X156656101Y-85303742D01*
X156784018Y-85389213D01*
X156848584Y-85415957D01*
X156753538Y-85455327D01*
X156625621Y-85540798D01*
X156516838Y-85649581D01*
X156431367Y-85777498D01*
X156372493Y-85919631D01*
X156342480Y-86070518D01*
X146493812Y-86070518D01*
X146471377Y-85957731D01*
X146412503Y-85815598D01*
X146327032Y-85687681D01*
X146218249Y-85578898D01*
X146090332Y-85493427D01*
X145948199Y-85434553D01*
X145797312Y-85404540D01*
X145643468Y-85404540D01*
X145492581Y-85434553D01*
X145350448Y-85493427D01*
X145222531Y-85578898D01*
X145113748Y-85687681D01*
X145028277Y-85815598D01*
X144969403Y-85957731D01*
X144939390Y-86108618D01*
X144388635Y-86108618D01*
X144359127Y-85960271D01*
X144300253Y-85818138D01*
X144214782Y-85690221D01*
X144105999Y-85581438D01*
X143978082Y-85495967D01*
X143882420Y-85456342D01*
X143983162Y-85414613D01*
X144111079Y-85329142D01*
X144219862Y-85220359D01*
X144305333Y-85092442D01*
X144364207Y-84950309D01*
X144394220Y-84799422D01*
X144394220Y-84645578D01*
X144364207Y-84494691D01*
X144305333Y-84352558D01*
X144219862Y-84224641D01*
X144111079Y-84115858D01*
X143983162Y-84030387D01*
X143841029Y-83971513D01*
X143690142Y-83941500D01*
X143536298Y-83941500D01*
X143385411Y-83971513D01*
X143243278Y-84030387D01*
X143115361Y-84115858D01*
X143006578Y-84224641D01*
X142921107Y-84352558D01*
X142862233Y-84494691D01*
X142832220Y-84645578D01*
X142832220Y-84799422D01*
X142862233Y-84950309D01*
X142921107Y-85092442D01*
X143006578Y-85220359D01*
X143115361Y-85329142D01*
X143243278Y-85414613D01*
X143338940Y-85454238D01*
X143238198Y-85495967D01*
X143110281Y-85581438D01*
X143001498Y-85690221D01*
X142916027Y-85818138D01*
X142857153Y-85960271D01*
X142827140Y-86111158D01*
X142827140Y-86265002D01*
X142857153Y-86415889D01*
X142916027Y-86558022D01*
X143001498Y-86685939D01*
X143110281Y-86794722D01*
X143238198Y-86880193D01*
X143380331Y-86939067D01*
X143398694Y-86942720D01*
X143370171Y-86948393D01*
X143228038Y-87007267D01*
X143100121Y-87092738D01*
X142991338Y-87201521D01*
X142905867Y-87329438D01*
X142846993Y-87471571D01*
X142816980Y-87622458D01*
X138848263Y-87622458D01*
X139033097Y-87545898D01*
X139234717Y-87411180D01*
X139406180Y-87239717D01*
X139540898Y-87038097D01*
X139633693Y-86814069D01*
X139681000Y-86576243D01*
X139681000Y-86333757D01*
X139633693Y-86095931D01*
X139540898Y-85871903D01*
X139406180Y-85670283D01*
X139234717Y-85498820D01*
X139033097Y-85364102D01*
X138809069Y-85271307D01*
X138571243Y-85224000D01*
X138328757Y-85224000D01*
X138090931Y-85271307D01*
X137866903Y-85364102D01*
X137665283Y-85498820D01*
X137493820Y-85670283D01*
X137359102Y-85871903D01*
X137356000Y-85879392D01*
X137356000Y-84490608D01*
X137359102Y-84498097D01*
X137493820Y-84699717D01*
X137665283Y-84871180D01*
X137866903Y-85005898D01*
X138090931Y-85098693D01*
X138328757Y-85146000D01*
X138571243Y-85146000D01*
X138809069Y-85098693D01*
X139033097Y-85005898D01*
X139234717Y-84871180D01*
X139406180Y-84699717D01*
X139540898Y-84498097D01*
X139633693Y-84274069D01*
X139681000Y-84036243D01*
X139681000Y-83793757D01*
X139633693Y-83555931D01*
X139540898Y-83331903D01*
X139406180Y-83130283D01*
X139234717Y-82958820D01*
X139033097Y-82824102D01*
X138809069Y-82731307D01*
X138571243Y-82684000D01*
X138328757Y-82684000D01*
X138090931Y-82731307D01*
X137866903Y-82824102D01*
X137665283Y-82958820D01*
X137493820Y-83130283D01*
X137359102Y-83331903D01*
X137356000Y-83339392D01*
X137356000Y-81950608D01*
X137359102Y-81958097D01*
X137493820Y-82159717D01*
X137665283Y-82331180D01*
X137866903Y-82465898D01*
X138090931Y-82558693D01*
X138328757Y-82606000D01*
X138571243Y-82606000D01*
X138809069Y-82558693D01*
X139033097Y-82465898D01*
X139234717Y-82331180D01*
X139406180Y-82159717D01*
X139540898Y-81958097D01*
X139633693Y-81734069D01*
X139681000Y-81496243D01*
X139681000Y-81253757D01*
X139633693Y-81015931D01*
X139540898Y-80791903D01*
X139406180Y-80590283D01*
X139234717Y-80418820D01*
X139033097Y-80284102D01*
X138809069Y-80191307D01*
X138571243Y-80144000D01*
X138328757Y-80144000D01*
X138090931Y-80191307D01*
X137866903Y-80284102D01*
X137665283Y-80418820D01*
X137493820Y-80590283D01*
X137359102Y-80791903D01*
X137356000Y-80799392D01*
X137356000Y-79410608D01*
X137359102Y-79418097D01*
X137493820Y-79619717D01*
X137665283Y-79791180D01*
X137866903Y-79925898D01*
X138090931Y-80018693D01*
X138328757Y-80066000D01*
X138571243Y-80066000D01*
X138809069Y-80018693D01*
X139033097Y-79925898D01*
X139234717Y-79791180D01*
X139406180Y-79619717D01*
X139540898Y-79418097D01*
X139633693Y-79194069D01*
X139681000Y-78956243D01*
X139681000Y-78713757D01*
X139633693Y-78475931D01*
X139540898Y-78251903D01*
X139406180Y-78050283D01*
X139234717Y-77878820D01*
X139033097Y-77744102D01*
X138809069Y-77651307D01*
X138571243Y-77604000D01*
X138328757Y-77604000D01*
X138090931Y-77651307D01*
X137866903Y-77744102D01*
X137665283Y-77878820D01*
X137493820Y-78050283D01*
X137359102Y-78251903D01*
X137356000Y-78259392D01*
X137356000Y-76870608D01*
X137359102Y-76878097D01*
X137493820Y-77079717D01*
X137665283Y-77251180D01*
X137866903Y-77385898D01*
X138090931Y-77478693D01*
X138328757Y-77526000D01*
X138571243Y-77526000D01*
X138809069Y-77478693D01*
X139033097Y-77385898D01*
X139234717Y-77251180D01*
X139406180Y-77079717D01*
X139540898Y-76878097D01*
X139633693Y-76654069D01*
X139681000Y-76416243D01*
X139681000Y-76173757D01*
X139633693Y-75935931D01*
X139540898Y-75711903D01*
X139406180Y-75510283D01*
X139234717Y-75338820D01*
X139033097Y-75204102D01*
X138809069Y-75111307D01*
X138571243Y-75064000D01*
X138328757Y-75064000D01*
X138090931Y-75111307D01*
X137866903Y-75204102D01*
X137665283Y-75338820D01*
X137493820Y-75510283D01*
X137359102Y-75711903D01*
X137356000Y-75719392D01*
X137356000Y-74330608D01*
X137359102Y-74338097D01*
X137493820Y-74539717D01*
X137665283Y-74711180D01*
X137866903Y-74845898D01*
X138090931Y-74938693D01*
X138328757Y-74986000D01*
X138571243Y-74986000D01*
X138809069Y-74938693D01*
X139033097Y-74845898D01*
X139234717Y-74711180D01*
X139406180Y-74539717D01*
X139540898Y-74338097D01*
X139633693Y-74114069D01*
X139681000Y-73876243D01*
X139681000Y-73829378D01*
X146473700Y-73829378D01*
X146473700Y-73983222D01*
X146503713Y-74134109D01*
X146562587Y-74276242D01*
X146648058Y-74404159D01*
X146756841Y-74512942D01*
X146884758Y-74598413D01*
X147024508Y-74656300D01*
X146884758Y-74714187D01*
X146756841Y-74799658D01*
X146648058Y-74908441D01*
X146562587Y-75036358D01*
X146503713Y-75178491D01*
X146473700Y-75329378D01*
X146473700Y-75483222D01*
X146503713Y-75634109D01*
X146562587Y-75776242D01*
X146648058Y-75904159D01*
X146756841Y-76012942D01*
X146884758Y-76098413D01*
X147024508Y-76156300D01*
X146884758Y-76214187D01*
X146756841Y-76299658D01*
X146648058Y-76408441D01*
X146562587Y-76536358D01*
X146503713Y-76678491D01*
X146473700Y-76829378D01*
X146473700Y-76983222D01*
X146503713Y-77134109D01*
X146562587Y-77276242D01*
X146648058Y-77404159D01*
X146756841Y-77512942D01*
X146884758Y-77598413D01*
X147024508Y-77656300D01*
X146884758Y-77714187D01*
X146756841Y-77799658D01*
X146648058Y-77908441D01*
X146562587Y-78036358D01*
X146503713Y-78178491D01*
X146473700Y-78329378D01*
X146473700Y-78483222D01*
X146503713Y-78634109D01*
X146562587Y-78776242D01*
X146648058Y-78904159D01*
X146756841Y-79012942D01*
X146884758Y-79098413D01*
X147026891Y-79157287D01*
X147177778Y-79187300D01*
X147331622Y-79187300D01*
X147482509Y-79157287D01*
X147624642Y-79098413D01*
X147752559Y-79012942D01*
X147861342Y-78904159D01*
X147946813Y-78776242D01*
X148004700Y-78636492D01*
X148062587Y-78776242D01*
X148148058Y-78904159D01*
X148256841Y-79012942D01*
X148384758Y-79098413D01*
X148526891Y-79157287D01*
X148677778Y-79187300D01*
X148831622Y-79187300D01*
X148982509Y-79157287D01*
X149124642Y-79098413D01*
X149252559Y-79012942D01*
X149361342Y-78904159D01*
X149446813Y-78776242D01*
X149504700Y-78636492D01*
X149562587Y-78776242D01*
X149648058Y-78904159D01*
X149756841Y-79012942D01*
X149884758Y-79098413D01*
X150026891Y-79157287D01*
X150177778Y-79187300D01*
X150331622Y-79187300D01*
X150482509Y-79157287D01*
X150624642Y-79098413D01*
X150752559Y-79012942D01*
X150861342Y-78904159D01*
X150946813Y-78776242D01*
X151004700Y-78636492D01*
X151062587Y-78776242D01*
X151148058Y-78904159D01*
X151256841Y-79012942D01*
X151384758Y-79098413D01*
X151526891Y-79157287D01*
X151677778Y-79187300D01*
X151831622Y-79187300D01*
X151982509Y-79157287D01*
X152124642Y-79098413D01*
X152252559Y-79012942D01*
X152361342Y-78904159D01*
X152446813Y-78776242D01*
X152505687Y-78634109D01*
X152535700Y-78483222D01*
X152535700Y-78329378D01*
X152505687Y-78178491D01*
X152446813Y-78036358D01*
X152361342Y-77908441D01*
X152252559Y-77799658D01*
X152124642Y-77714187D01*
X151984892Y-77656300D01*
X152124642Y-77598413D01*
X152252559Y-77512942D01*
X152361342Y-77404159D01*
X152446813Y-77276242D01*
X152505687Y-77134109D01*
X152535700Y-76983222D01*
X152535700Y-76829378D01*
X152505687Y-76678491D01*
X152446813Y-76536358D01*
X152361342Y-76408441D01*
X152252559Y-76299658D01*
X152124642Y-76214187D01*
X151984892Y-76156300D01*
X152124642Y-76098413D01*
X152252559Y-76012942D01*
X152361342Y-75904159D01*
X152446813Y-75776242D01*
X152505687Y-75634109D01*
X152511839Y-75603178D01*
X156393280Y-75603178D01*
X156393280Y-75757022D01*
X156423293Y-75907909D01*
X156482167Y-76050042D01*
X156567638Y-76177959D01*
X156676421Y-76286742D01*
X156804338Y-76372213D01*
X156946471Y-76431087D01*
X157097358Y-76461100D01*
X157251202Y-76461100D01*
X157402089Y-76431087D01*
X157544222Y-76372213D01*
X157672139Y-76286742D01*
X157780922Y-76177959D01*
X157866393Y-76050042D01*
X157925267Y-75907909D01*
X157955280Y-75757022D01*
X157955280Y-75603178D01*
X157925267Y-75452291D01*
X157866393Y-75310158D01*
X157780922Y-75182241D01*
X157672139Y-75073458D01*
X157544222Y-74987987D01*
X157402089Y-74929113D01*
X157390111Y-74926730D01*
X157412249Y-74922327D01*
X157554382Y-74863453D01*
X157682299Y-74777982D01*
X157791082Y-74669199D01*
X157876553Y-74541282D01*
X157935427Y-74399149D01*
X157965440Y-74248262D01*
X157965440Y-74094418D01*
X157935427Y-73943531D01*
X157876553Y-73801398D01*
X157791082Y-73673481D01*
X157682299Y-73564698D01*
X157554382Y-73479227D01*
X157412249Y-73420353D01*
X157261362Y-73390340D01*
X157107518Y-73390340D01*
X156956631Y-73420353D01*
X156814498Y-73479227D01*
X156686581Y-73564698D01*
X156577798Y-73673481D01*
X156492327Y-73801398D01*
X156433453Y-73943531D01*
X156403440Y-74094418D01*
X156403440Y-74248262D01*
X156433453Y-74399149D01*
X156492327Y-74541282D01*
X156577798Y-74669199D01*
X156686581Y-74777982D01*
X156814498Y-74863453D01*
X156956631Y-74922327D01*
X156968609Y-74924710D01*
X156946471Y-74929113D01*
X156804338Y-74987987D01*
X156676421Y-75073458D01*
X156567638Y-75182241D01*
X156482167Y-75310158D01*
X156423293Y-75452291D01*
X156393280Y-75603178D01*
X152511839Y-75603178D01*
X152535700Y-75483222D01*
X152535700Y-75329378D01*
X152505687Y-75178491D01*
X152446813Y-75036358D01*
X152361342Y-74908441D01*
X152252559Y-74799658D01*
X152124642Y-74714187D01*
X151984892Y-74656300D01*
X152124642Y-74598413D01*
X152252559Y-74512942D01*
X152361342Y-74404159D01*
X152446813Y-74276242D01*
X152505687Y-74134109D01*
X152535700Y-73983222D01*
X152535700Y-73829378D01*
X152505687Y-73678491D01*
X152446813Y-73536358D01*
X152361342Y-73408441D01*
X152252559Y-73299658D01*
X152124642Y-73214187D01*
X151982509Y-73155313D01*
X151831622Y-73125300D01*
X151677778Y-73125300D01*
X151526891Y-73155313D01*
X151384758Y-73214187D01*
X151256841Y-73299658D01*
X151148058Y-73408441D01*
X151062587Y-73536358D01*
X151004700Y-73676108D01*
X150946813Y-73536358D01*
X150861342Y-73408441D01*
X150752559Y-73299658D01*
X150624642Y-73214187D01*
X150482509Y-73155313D01*
X150331622Y-73125300D01*
X150177778Y-73125300D01*
X150026891Y-73155313D01*
X149884758Y-73214187D01*
X149756841Y-73299658D01*
X149648058Y-73408441D01*
X149562587Y-73536358D01*
X149504700Y-73676108D01*
X149446813Y-73536358D01*
X149361342Y-73408441D01*
X149252559Y-73299658D01*
X149124642Y-73214187D01*
X148982509Y-73155313D01*
X148831622Y-73125300D01*
X148677778Y-73125300D01*
X148526891Y-73155313D01*
X148384758Y-73214187D01*
X148256841Y-73299658D01*
X148148058Y-73408441D01*
X148062587Y-73536358D01*
X148004700Y-73676108D01*
X147946813Y-73536358D01*
X147861342Y-73408441D01*
X147752559Y-73299658D01*
X147624642Y-73214187D01*
X147482509Y-73155313D01*
X147331622Y-73125300D01*
X147177778Y-73125300D01*
X147026891Y-73155313D01*
X146884758Y-73214187D01*
X146756841Y-73299658D01*
X146648058Y-73408441D01*
X146562587Y-73536358D01*
X146503713Y-73678491D01*
X146473700Y-73829378D01*
X139681000Y-73829378D01*
X139681000Y-73633757D01*
X139633693Y-73395931D01*
X139540898Y-73171903D01*
X139406180Y-72970283D01*
X139234717Y-72798820D01*
X139033097Y-72664102D01*
X138809069Y-72571307D01*
X138571243Y-72524000D01*
X138328757Y-72524000D01*
X138090931Y-72571307D01*
X137866903Y-72664102D01*
X137665283Y-72798820D01*
X137493820Y-72970283D01*
X137359102Y-73171903D01*
X137356000Y-73179392D01*
X137356000Y-71247078D01*
X142890644Y-71247078D01*
X142890644Y-71400922D01*
X142920657Y-71551809D01*
X142979531Y-71693942D01*
X143065002Y-71821859D01*
X143173785Y-71930642D01*
X143301702Y-72016113D01*
X143443835Y-72074987D01*
X143594722Y-72105000D01*
X143748566Y-72105000D01*
X143899453Y-72074987D01*
X144041586Y-72016113D01*
X144169503Y-71930642D01*
X144278286Y-71821859D01*
X144363757Y-71693942D01*
X144422631Y-71551809D01*
X144452644Y-71400922D01*
X144452644Y-71247078D01*
X144422631Y-71096191D01*
X144363757Y-70954058D01*
X144278286Y-70826141D01*
X144169503Y-70717358D01*
X144041586Y-70631887D01*
X143899453Y-70573013D01*
X143748566Y-70543000D01*
X143594722Y-70543000D01*
X143443835Y-70573013D01*
X143301702Y-70631887D01*
X143173785Y-70717358D01*
X143065002Y-70826141D01*
X142979531Y-70954058D01*
X142920657Y-71096191D01*
X142890644Y-71247078D01*
X137356000Y-71247078D01*
X137356000Y-69817632D01*
X137387304Y-69843322D01*
X137453492Y-69878701D01*
X137525311Y-69900487D01*
X137600000Y-69907843D01*
X139300000Y-69907843D01*
X139374689Y-69900487D01*
X139446508Y-69878701D01*
X139512696Y-69843322D01*
X139570711Y-69795711D01*
X139618322Y-69737696D01*
X139653701Y-69671508D01*
X139674270Y-69603698D01*
X156360260Y-69603698D01*
X156360260Y-69757542D01*
X156390273Y-69908429D01*
X156449147Y-70050562D01*
X156534618Y-70178479D01*
X156643401Y-70287262D01*
X156771318Y-70372733D01*
X156913451Y-70431607D01*
X157064338Y-70461620D01*
X157218182Y-70461620D01*
X157369069Y-70431607D01*
X157511202Y-70372733D01*
X157639119Y-70287262D01*
X157747902Y-70178479D01*
X157833373Y-70050562D01*
X157892247Y-69908429D01*
X157922260Y-69757542D01*
X157922260Y-69603698D01*
X157892247Y-69452811D01*
X157833373Y-69310678D01*
X157747902Y-69182761D01*
X157639119Y-69073978D01*
X157511202Y-68988507D01*
X157369069Y-68929633D01*
X157218182Y-68899620D01*
X157064338Y-68899620D01*
X156913451Y-68929633D01*
X156771318Y-68988507D01*
X156643401Y-69073978D01*
X156534618Y-69182761D01*
X156449147Y-69310678D01*
X156390273Y-69452811D01*
X156360260Y-69603698D01*
X139674270Y-69603698D01*
X139675487Y-69599689D01*
X139682843Y-69525000D01*
X139682843Y-67825000D01*
X139675487Y-67750311D01*
X139653701Y-67678492D01*
X139618322Y-67612304D01*
X139570711Y-67554289D01*
X139512696Y-67506678D01*
X139474011Y-67486000D01*
X143382175Y-67486000D01*
X143299158Y-67520387D01*
M02*
