%TF.GenerationSoftware,KiCad,Pcbnew,5.1.10-88a1d61d58~90~ubuntu20.04.1*%
%TF.CreationDate,2021-07-14T19:36:45+05:30*%
%TF.ProjectId,USBee32-S2,55534265-6533-4322-9d53-322e6b696361,rev?*%
%TF.SameCoordinates,Original*%
%TF.FileFunction,Soldermask,Bot*%
%TF.FilePolarity,Negative*%
%FSLAX46Y46*%
G04 Gerber Fmt 4.6, Leading zero omitted, Abs format (unit mm)*
G04 Created by KiCad (PCBNEW 5.1.10-88a1d61d58~90~ubuntu20.04.1) date 2021-07-14 19:36:45*
%MOMM*%
%LPD*%
G01*
G04 APERTURE LIST*
%ADD10C,0.700000*%
%ADD11O,1.050000X2.100000*%
%ADD12C,2.150000*%
%ADD13R,1.600000X1.600000*%
%ADD14C,1.600000*%
%ADD15O,1.700000X1.700000*%
%ADD16R,1.700000X1.700000*%
G04 APERTURE END LIST*
D10*
X174397500Y-118809280D03*
X168617500Y-118809280D03*
D11*
X175827500Y-122459280D03*
X167187500Y-122459280D03*
X175827500Y-118279280D03*
X167187500Y-118279280D03*
D12*
X187192340Y-122854000D03*
X187192340Y-115854000D03*
X192632340Y-115854000D03*
X192632340Y-122854000D03*
D13*
X189912340Y-122124000D03*
D14*
X189912340Y-120124000D03*
X189912340Y-118124000D03*
X189912340Y-116124000D03*
D15*
X192220000Y-111355000D03*
X192220000Y-108815000D03*
X192220000Y-106275000D03*
X192220000Y-103735000D03*
X192220000Y-101195000D03*
X192220000Y-98655000D03*
X192220000Y-96115000D03*
X192220000Y-93575000D03*
X192220000Y-91035000D03*
X192220000Y-88495000D03*
X192220000Y-85955000D03*
X192220000Y-83415000D03*
X192220000Y-80875000D03*
X192220000Y-78335000D03*
X192220000Y-75795000D03*
X192220000Y-73255000D03*
X192220000Y-70715000D03*
X192220000Y-68175000D03*
X192220000Y-65635000D03*
X192220000Y-63095000D03*
X192220000Y-60555000D03*
D16*
X192220000Y-58015000D03*
D15*
X167430000Y-101195000D03*
X167430000Y-98655000D03*
X167430000Y-96115000D03*
X167430000Y-93575000D03*
X167430000Y-91035000D03*
X167430000Y-88495000D03*
X167430000Y-85955000D03*
X167430000Y-83415000D03*
X167430000Y-80875000D03*
X167430000Y-78335000D03*
X167430000Y-75795000D03*
X167430000Y-73255000D03*
X167430000Y-70715000D03*
X167430000Y-68175000D03*
X167430000Y-65635000D03*
X167430000Y-63095000D03*
X167430000Y-60555000D03*
D16*
X167430000Y-58015000D03*
M02*
