%TF.GenerationSoftware,KiCad,Pcbnew,5.1.10-88a1d61d58~90~ubuntu20.04.1*%
%TF.CreationDate,2021-07-14T19:36:45+05:30*%
%TF.ProjectId,USBee32-S2,55534265-6533-4322-9d53-322e6b696361,rev?*%
%TF.SameCoordinates,Original*%
%TF.FileFunction,Copper,L1,Top*%
%TF.FilePolarity,Positive*%
%FSLAX46Y46*%
G04 Gerber Fmt 4.6, Leading zero omitted, Abs format (unit mm)*
G04 Created by KiCad (PCBNEW 5.1.10-88a1d61d58~90~ubuntu20.04.1) date 2021-07-14 19:36:45*
%MOMM*%
%LPD*%
G01*
G04 APERTURE LIST*
%TA.AperFunction,SMDPad,CuDef*%
%ADD10R,1.600000X3.000000*%
%TD*%
%TA.AperFunction,SMDPad,CuDef*%
%ADD11R,1.000000X5.500000*%
%TD*%
%TA.AperFunction,SMDPad,CuDef*%
%ADD12R,0.600000X1.125000*%
%TD*%
%TA.AperFunction,SMDPad,CuDef*%
%ADD13R,1.050000X0.600000*%
%TD*%
%TA.AperFunction,SMDPad,CuDef*%
%ADD14R,1.060000X0.650000*%
%TD*%
%TA.AperFunction,SMDPad,CuDef*%
%ADD15R,2.000000X1.500000*%
%TD*%
%TA.AperFunction,SMDPad,CuDef*%
%ADD16R,2.000000X3.800000*%
%TD*%
%TA.AperFunction,SMDPad,CuDef*%
%ADD17R,1.100000X1.100000*%
%TD*%
%TA.AperFunction,SMDPad,CuDef*%
%ADD18R,1.500000X0.900000*%
%TD*%
%TA.AperFunction,SMDPad,CuDef*%
%ADD19R,0.900000X1.500000*%
%TD*%
%TA.AperFunction,ComponentPad*%
%ADD20O,1.050000X2.100000*%
%TD*%
%TA.AperFunction,SMDPad,CuDef*%
%ADD21R,0.600000X1.450000*%
%TD*%
%TA.AperFunction,SMDPad,CuDef*%
%ADD22R,0.300000X1.450000*%
%TD*%
%TA.AperFunction,SMDPad,CuDef*%
%ADD23R,0.700000X0.700000*%
%TD*%
%TA.AperFunction,ComponentPad*%
%ADD24C,2.150000*%
%TD*%
%TA.AperFunction,ComponentPad*%
%ADD25R,1.600000X1.600000*%
%TD*%
%TA.AperFunction,ComponentPad*%
%ADD26C,1.600000*%
%TD*%
%TA.AperFunction,ComponentPad*%
%ADD27O,1.700000X1.700000*%
%TD*%
%TA.AperFunction,ComponentPad*%
%ADD28R,1.700000X1.700000*%
%TD*%
%TA.AperFunction,SMDPad,CuDef*%
%ADD29R,1.000000X2.000000*%
%TD*%
%TA.AperFunction,ViaPad*%
%ADD30C,0.800000*%
%TD*%
%TA.AperFunction,Conductor*%
%ADD31C,0.400000*%
%TD*%
%TA.AperFunction,Conductor*%
%ADD32C,0.200000*%
%TD*%
%TA.AperFunction,Conductor*%
%ADD33C,0.254000*%
%TD*%
%TA.AperFunction,Conductor*%
%ADD34C,0.100000*%
%TD*%
G04 APERTURE END LIST*
%TA.AperFunction,SMDPad,CuDef*%
G36*
G01*
X186580700Y-112312200D02*
X186580700Y-113562200D01*
G75*
G02*
X186330700Y-113812200I-250000J0D01*
G01*
X185580700Y-113812200D01*
G75*
G02*
X185330700Y-113562200I0J250000D01*
G01*
X185330700Y-112312200D01*
G75*
G02*
X185580700Y-112062200I250000J0D01*
G01*
X186330700Y-112062200D01*
G75*
G02*
X186580700Y-112312200I0J-250000D01*
G01*
G37*
%TD.AperFunction*%
%TA.AperFunction,SMDPad,CuDef*%
G36*
G01*
X189380700Y-112312200D02*
X189380700Y-113562200D01*
G75*
G02*
X189130700Y-113812200I-250000J0D01*
G01*
X188380700Y-113812200D01*
G75*
G02*
X188130700Y-113562200I0J250000D01*
G01*
X188130700Y-112312200D01*
G75*
G02*
X188380700Y-112062200I250000J0D01*
G01*
X189130700Y-112062200D01*
G75*
G02*
X189380700Y-112312200I0J-250000D01*
G01*
G37*
%TD.AperFunction*%
%TA.AperFunction,SMDPad,CuDef*%
G36*
G01*
X178970000Y-108743750D02*
X178970000Y-109256250D01*
G75*
G02*
X178751250Y-109475000I-218750J0D01*
G01*
X178313750Y-109475000D01*
G75*
G02*
X178095000Y-109256250I0J218750D01*
G01*
X178095000Y-108743750D01*
G75*
G02*
X178313750Y-108525000I218750J0D01*
G01*
X178751250Y-108525000D01*
G75*
G02*
X178970000Y-108743750I0J-218750D01*
G01*
G37*
%TD.AperFunction*%
%TA.AperFunction,SMDPad,CuDef*%
G36*
G01*
X180545000Y-108743750D02*
X180545000Y-109256250D01*
G75*
G02*
X180326250Y-109475000I-218750J0D01*
G01*
X179888750Y-109475000D01*
G75*
G02*
X179670000Y-109256250I0J218750D01*
G01*
X179670000Y-108743750D01*
G75*
G02*
X179888750Y-108525000I218750J0D01*
G01*
X180326250Y-108525000D01*
G75*
G02*
X180545000Y-108743750I0J-218750D01*
G01*
G37*
%TD.AperFunction*%
D10*
X177721400Y-122047360D03*
X184521400Y-122047360D03*
D11*
X180121400Y-119797360D03*
X182121400Y-119797360D03*
D12*
X180230000Y-111168000D03*
X179280000Y-111168000D03*
X178330000Y-111168000D03*
X178330000Y-113792000D03*
X179280000Y-113792000D03*
X180230000Y-113792000D03*
%TA.AperFunction,SMDPad,CuDef*%
G36*
G01*
X176585150Y-109389300D02*
X176072650Y-109389300D01*
G75*
G02*
X175853900Y-109170550I0J218750D01*
G01*
X175853900Y-108733050D01*
G75*
G02*
X176072650Y-108514300I218750J0D01*
G01*
X176585150Y-108514300D01*
G75*
G02*
X176803900Y-108733050I0J-218750D01*
G01*
X176803900Y-109170550D01*
G75*
G02*
X176585150Y-109389300I-218750J0D01*
G01*
G37*
%TD.AperFunction*%
%TA.AperFunction,SMDPad,CuDef*%
G36*
G01*
X176585150Y-110964300D02*
X176072650Y-110964300D01*
G75*
G02*
X175853900Y-110745550I0J218750D01*
G01*
X175853900Y-110308050D01*
G75*
G02*
X176072650Y-110089300I218750J0D01*
G01*
X176585150Y-110089300D01*
G75*
G02*
X176803900Y-110308050I0J-218750D01*
G01*
X176803900Y-110745550D01*
G75*
G02*
X176585150Y-110964300I-218750J0D01*
G01*
G37*
%TD.AperFunction*%
%TA.AperFunction,SMDPad,CuDef*%
G36*
G01*
X170205000Y-113760000D02*
X169655000Y-113760000D01*
G75*
G02*
X169455000Y-113560000I0J200000D01*
G01*
X169455000Y-113160000D01*
G75*
G02*
X169655000Y-112960000I200000J0D01*
G01*
X170205000Y-112960000D01*
G75*
G02*
X170405000Y-113160000I0J-200000D01*
G01*
X170405000Y-113560000D01*
G75*
G02*
X170205000Y-113760000I-200000J0D01*
G01*
G37*
%TD.AperFunction*%
%TA.AperFunction,SMDPad,CuDef*%
G36*
G01*
X170205000Y-115410000D02*
X169655000Y-115410000D01*
G75*
G02*
X169455000Y-115210000I0J200000D01*
G01*
X169455000Y-114810000D01*
G75*
G02*
X169655000Y-114610000I200000J0D01*
G01*
X170205000Y-114610000D01*
G75*
G02*
X170405000Y-114810000I0J-200000D01*
G01*
X170405000Y-115210000D01*
G75*
G02*
X170205000Y-115410000I-200000J0D01*
G01*
G37*
%TD.AperFunction*%
D13*
X181594800Y-105990300D03*
X183794800Y-105040300D03*
X183794800Y-106940300D03*
X175892500Y-106015700D03*
X178092500Y-105065700D03*
X178092500Y-106965700D03*
D14*
X184100000Y-109120000D03*
X184100000Y-111020000D03*
X181900000Y-111020000D03*
X181900000Y-110070000D03*
X181900000Y-109120000D03*
%TA.AperFunction,SMDPad,CuDef*%
G36*
G01*
X180415600Y-93993200D02*
X180415600Y-94543200D01*
G75*
G02*
X180215600Y-94743200I-200000J0D01*
G01*
X179815600Y-94743200D01*
G75*
G02*
X179615600Y-94543200I0J200000D01*
G01*
X179615600Y-93993200D01*
G75*
G02*
X179815600Y-93793200I200000J0D01*
G01*
X180215600Y-93793200D01*
G75*
G02*
X180415600Y-93993200I0J-200000D01*
G01*
G37*
%TD.AperFunction*%
%TA.AperFunction,SMDPad,CuDef*%
G36*
G01*
X182065600Y-93993200D02*
X182065600Y-94543200D01*
G75*
G02*
X181865600Y-94743200I-200000J0D01*
G01*
X181465600Y-94743200D01*
G75*
G02*
X181265600Y-94543200I0J200000D01*
G01*
X181265600Y-93993200D01*
G75*
G02*
X181465600Y-93793200I200000J0D01*
G01*
X181865600Y-93793200D01*
G75*
G02*
X182065600Y-93993200I0J-200000D01*
G01*
G37*
%TD.AperFunction*%
%TA.AperFunction,SMDPad,CuDef*%
G36*
G01*
X182887700Y-101495900D02*
X183187700Y-101495900D01*
G75*
G02*
X183337700Y-101645900I0J-150000D01*
G01*
X183337700Y-103295900D01*
G75*
G02*
X183187700Y-103445900I-150000J0D01*
G01*
X182887700Y-103445900D01*
G75*
G02*
X182737700Y-103295900I0J150000D01*
G01*
X182737700Y-101645900D01*
G75*
G02*
X182887700Y-101495900I150000J0D01*
G01*
G37*
%TD.AperFunction*%
%TA.AperFunction,SMDPad,CuDef*%
G36*
G01*
X181617700Y-101495900D02*
X181917700Y-101495900D01*
G75*
G02*
X182067700Y-101645900I0J-150000D01*
G01*
X182067700Y-103295900D01*
G75*
G02*
X181917700Y-103445900I-150000J0D01*
G01*
X181617700Y-103445900D01*
G75*
G02*
X181467700Y-103295900I0J150000D01*
G01*
X181467700Y-101645900D01*
G75*
G02*
X181617700Y-101495900I150000J0D01*
G01*
G37*
%TD.AperFunction*%
%TA.AperFunction,SMDPad,CuDef*%
G36*
G01*
X180347700Y-101495900D02*
X180647700Y-101495900D01*
G75*
G02*
X180797700Y-101645900I0J-150000D01*
G01*
X180797700Y-103295900D01*
G75*
G02*
X180647700Y-103445900I-150000J0D01*
G01*
X180347700Y-103445900D01*
G75*
G02*
X180197700Y-103295900I0J150000D01*
G01*
X180197700Y-101645900D01*
G75*
G02*
X180347700Y-101495900I150000J0D01*
G01*
G37*
%TD.AperFunction*%
%TA.AperFunction,SMDPad,CuDef*%
G36*
G01*
X179077700Y-101495900D02*
X179377700Y-101495900D01*
G75*
G02*
X179527700Y-101645900I0J-150000D01*
G01*
X179527700Y-103295900D01*
G75*
G02*
X179377700Y-103445900I-150000J0D01*
G01*
X179077700Y-103445900D01*
G75*
G02*
X178927700Y-103295900I0J150000D01*
G01*
X178927700Y-101645900D01*
G75*
G02*
X179077700Y-101495900I150000J0D01*
G01*
G37*
%TD.AperFunction*%
%TA.AperFunction,SMDPad,CuDef*%
G36*
G01*
X177807700Y-101495900D02*
X178107700Y-101495900D01*
G75*
G02*
X178257700Y-101645900I0J-150000D01*
G01*
X178257700Y-103295900D01*
G75*
G02*
X178107700Y-103445900I-150000J0D01*
G01*
X177807700Y-103445900D01*
G75*
G02*
X177657700Y-103295900I0J150000D01*
G01*
X177657700Y-101645900D01*
G75*
G02*
X177807700Y-101495900I150000J0D01*
G01*
G37*
%TD.AperFunction*%
%TA.AperFunction,SMDPad,CuDef*%
G36*
G01*
X176537700Y-101495900D02*
X176837700Y-101495900D01*
G75*
G02*
X176987700Y-101645900I0J-150000D01*
G01*
X176987700Y-103295900D01*
G75*
G02*
X176837700Y-103445900I-150000J0D01*
G01*
X176537700Y-103445900D01*
G75*
G02*
X176387700Y-103295900I0J150000D01*
G01*
X176387700Y-101645900D01*
G75*
G02*
X176537700Y-101495900I150000J0D01*
G01*
G37*
%TD.AperFunction*%
%TA.AperFunction,SMDPad,CuDef*%
G36*
G01*
X175267700Y-101495900D02*
X175567700Y-101495900D01*
G75*
G02*
X175717700Y-101645900I0J-150000D01*
G01*
X175717700Y-103295900D01*
G75*
G02*
X175567700Y-103445900I-150000J0D01*
G01*
X175267700Y-103445900D01*
G75*
G02*
X175117700Y-103295900I0J150000D01*
G01*
X175117700Y-101645900D01*
G75*
G02*
X175267700Y-101495900I150000J0D01*
G01*
G37*
%TD.AperFunction*%
%TA.AperFunction,SMDPad,CuDef*%
G36*
G01*
X173997700Y-101495900D02*
X174297700Y-101495900D01*
G75*
G02*
X174447700Y-101645900I0J-150000D01*
G01*
X174447700Y-103295900D01*
G75*
G02*
X174297700Y-103445900I-150000J0D01*
G01*
X173997700Y-103445900D01*
G75*
G02*
X173847700Y-103295900I0J150000D01*
G01*
X173847700Y-101645900D01*
G75*
G02*
X173997700Y-101495900I150000J0D01*
G01*
G37*
%TD.AperFunction*%
%TA.AperFunction,SMDPad,CuDef*%
G36*
G01*
X173997700Y-96545900D02*
X174297700Y-96545900D01*
G75*
G02*
X174447700Y-96695900I0J-150000D01*
G01*
X174447700Y-98345900D01*
G75*
G02*
X174297700Y-98495900I-150000J0D01*
G01*
X173997700Y-98495900D01*
G75*
G02*
X173847700Y-98345900I0J150000D01*
G01*
X173847700Y-96695900D01*
G75*
G02*
X173997700Y-96545900I150000J0D01*
G01*
G37*
%TD.AperFunction*%
%TA.AperFunction,SMDPad,CuDef*%
G36*
G01*
X175267700Y-96545900D02*
X175567700Y-96545900D01*
G75*
G02*
X175717700Y-96695900I0J-150000D01*
G01*
X175717700Y-98345900D01*
G75*
G02*
X175567700Y-98495900I-150000J0D01*
G01*
X175267700Y-98495900D01*
G75*
G02*
X175117700Y-98345900I0J150000D01*
G01*
X175117700Y-96695900D01*
G75*
G02*
X175267700Y-96545900I150000J0D01*
G01*
G37*
%TD.AperFunction*%
%TA.AperFunction,SMDPad,CuDef*%
G36*
G01*
X176537700Y-96545900D02*
X176837700Y-96545900D01*
G75*
G02*
X176987700Y-96695900I0J-150000D01*
G01*
X176987700Y-98345900D01*
G75*
G02*
X176837700Y-98495900I-150000J0D01*
G01*
X176537700Y-98495900D01*
G75*
G02*
X176387700Y-98345900I0J150000D01*
G01*
X176387700Y-96695900D01*
G75*
G02*
X176537700Y-96545900I150000J0D01*
G01*
G37*
%TD.AperFunction*%
%TA.AperFunction,SMDPad,CuDef*%
G36*
G01*
X177807700Y-96545900D02*
X178107700Y-96545900D01*
G75*
G02*
X178257700Y-96695900I0J-150000D01*
G01*
X178257700Y-98345900D01*
G75*
G02*
X178107700Y-98495900I-150000J0D01*
G01*
X177807700Y-98495900D01*
G75*
G02*
X177657700Y-98345900I0J150000D01*
G01*
X177657700Y-96695900D01*
G75*
G02*
X177807700Y-96545900I150000J0D01*
G01*
G37*
%TD.AperFunction*%
%TA.AperFunction,SMDPad,CuDef*%
G36*
G01*
X179077700Y-96545900D02*
X179377700Y-96545900D01*
G75*
G02*
X179527700Y-96695900I0J-150000D01*
G01*
X179527700Y-98345900D01*
G75*
G02*
X179377700Y-98495900I-150000J0D01*
G01*
X179077700Y-98495900D01*
G75*
G02*
X178927700Y-98345900I0J150000D01*
G01*
X178927700Y-96695900D01*
G75*
G02*
X179077700Y-96545900I150000J0D01*
G01*
G37*
%TD.AperFunction*%
%TA.AperFunction,SMDPad,CuDef*%
G36*
G01*
X180347700Y-96545900D02*
X180647700Y-96545900D01*
G75*
G02*
X180797700Y-96695900I0J-150000D01*
G01*
X180797700Y-98345900D01*
G75*
G02*
X180647700Y-98495900I-150000J0D01*
G01*
X180347700Y-98495900D01*
G75*
G02*
X180197700Y-98345900I0J150000D01*
G01*
X180197700Y-96695900D01*
G75*
G02*
X180347700Y-96545900I150000J0D01*
G01*
G37*
%TD.AperFunction*%
%TA.AperFunction,SMDPad,CuDef*%
G36*
G01*
X181617700Y-96545900D02*
X181917700Y-96545900D01*
G75*
G02*
X182067700Y-96695900I0J-150000D01*
G01*
X182067700Y-98345900D01*
G75*
G02*
X181917700Y-98495900I-150000J0D01*
G01*
X181617700Y-98495900D01*
G75*
G02*
X181467700Y-98345900I0J150000D01*
G01*
X181467700Y-96695900D01*
G75*
G02*
X181617700Y-96545900I150000J0D01*
G01*
G37*
%TD.AperFunction*%
%TA.AperFunction,SMDPad,CuDef*%
G36*
G01*
X182887700Y-96545900D02*
X183187700Y-96545900D01*
G75*
G02*
X183337700Y-96695900I0J-150000D01*
G01*
X183337700Y-98345900D01*
G75*
G02*
X183187700Y-98495900I-150000J0D01*
G01*
X182887700Y-98495900D01*
G75*
G02*
X182737700Y-98345900I0J150000D01*
G01*
X182737700Y-96695900D01*
G75*
G02*
X182887700Y-96545900I150000J0D01*
G01*
G37*
%TD.AperFunction*%
D15*
X180192500Y-86392900D03*
X180192500Y-90992900D03*
X180192500Y-88692900D03*
D16*
X186492500Y-88692900D03*
D17*
X176990000Y-64090000D03*
X178490000Y-64090000D03*
X179990000Y-64090000D03*
X179990000Y-65590000D03*
X179990000Y-67090000D03*
X178490000Y-67090000D03*
X176990000Y-67090000D03*
X176990000Y-65590000D03*
X178490000Y-65590000D03*
D18*
X188430000Y-57540000D03*
X188430000Y-59040000D03*
X188430000Y-60540000D03*
X188430000Y-62040000D03*
X188430000Y-63540000D03*
X188430000Y-65040000D03*
X188430000Y-66540000D03*
X188430000Y-68040000D03*
X188430000Y-69540000D03*
X188430000Y-71040000D03*
X188430000Y-72540000D03*
X188430000Y-74040000D03*
X188430000Y-75540000D03*
X188430000Y-77040000D03*
X188430000Y-78540000D03*
X188430000Y-80040000D03*
D19*
X186430000Y-80790000D03*
X184930000Y-80790000D03*
X183430000Y-80790000D03*
X181930000Y-80790000D03*
X180430000Y-80790000D03*
X178930000Y-80790000D03*
X177430000Y-80790000D03*
X175930000Y-80790000D03*
X174430000Y-80790000D03*
X172930000Y-80790000D03*
D18*
X170930000Y-80040000D03*
X170930000Y-78540000D03*
X170930000Y-77040000D03*
X170930000Y-75540000D03*
X170930000Y-74040000D03*
X170930000Y-72540000D03*
X170930000Y-71040000D03*
X170930000Y-69540000D03*
X170930000Y-68040000D03*
X170930000Y-66540000D03*
X170930000Y-65040000D03*
X170930000Y-63540000D03*
X170930000Y-62040000D03*
X170930000Y-60540000D03*
X170930000Y-59040000D03*
X170930000Y-57540000D03*
D20*
X175827500Y-122459280D03*
X167187500Y-122459280D03*
X175827500Y-118279280D03*
X167187500Y-118279280D03*
D21*
X174757500Y-117364280D03*
X173957500Y-117364280D03*
D22*
X173257500Y-117364280D03*
X172757500Y-117364280D03*
X172257500Y-117364280D03*
X171757500Y-117364280D03*
X169757500Y-117364280D03*
X170257500Y-117364280D03*
X170757500Y-117364280D03*
X171257500Y-117364280D03*
D21*
X169057500Y-117364280D03*
X168257500Y-117364280D03*
%TA.AperFunction,SMDPad,CuDef*%
G36*
G01*
X170941400Y-96672900D02*
X170941400Y-97222900D01*
G75*
G02*
X170741400Y-97422900I-200000J0D01*
G01*
X170341400Y-97422900D01*
G75*
G02*
X170141400Y-97222900I0J200000D01*
G01*
X170141400Y-96672900D01*
G75*
G02*
X170341400Y-96472900I200000J0D01*
G01*
X170741400Y-96472900D01*
G75*
G02*
X170941400Y-96672900I0J-200000D01*
G01*
G37*
%TD.AperFunction*%
%TA.AperFunction,SMDPad,CuDef*%
G36*
G01*
X172591400Y-96672900D02*
X172591400Y-97222900D01*
G75*
G02*
X172391400Y-97422900I-200000J0D01*
G01*
X171991400Y-97422900D01*
G75*
G02*
X171791400Y-97222900I0J200000D01*
G01*
X171791400Y-96672900D01*
G75*
G02*
X171991400Y-96472900I200000J0D01*
G01*
X172391400Y-96472900D01*
G75*
G02*
X172591400Y-96672900I0J-200000D01*
G01*
G37*
%TD.AperFunction*%
%TA.AperFunction,SMDPad,CuDef*%
G36*
G01*
X175933740Y-112301300D02*
X175933740Y-111876300D01*
G75*
G02*
X176146240Y-111663800I212500J0D01*
G01*
X176946240Y-111663800D01*
G75*
G02*
X177158740Y-111876300I0J-212500D01*
G01*
X177158740Y-112301300D01*
G75*
G02*
X176946240Y-112513800I-212500J0D01*
G01*
X176146240Y-112513800D01*
G75*
G02*
X175933740Y-112301300I0J212500D01*
G01*
G37*
%TD.AperFunction*%
%TA.AperFunction,SMDPad,CuDef*%
G36*
G01*
X174308740Y-112301300D02*
X174308740Y-111876300D01*
G75*
G02*
X174521240Y-111663800I212500J0D01*
G01*
X175321240Y-111663800D01*
G75*
G02*
X175533740Y-111876300I0J-212500D01*
G01*
X175533740Y-112301300D01*
G75*
G02*
X175321240Y-112513800I-212500J0D01*
G01*
X174521240Y-112513800D01*
G75*
G02*
X174308740Y-112301300I0J212500D01*
G01*
G37*
%TD.AperFunction*%
%TA.AperFunction,SMDPad,CuDef*%
G36*
G01*
X175363740Y-113374240D02*
X175363740Y-113886740D01*
G75*
G02*
X175144990Y-114105490I-218750J0D01*
G01*
X174707490Y-114105490D01*
G75*
G02*
X174488740Y-113886740I0J218750D01*
G01*
X174488740Y-113374240D01*
G75*
G02*
X174707490Y-113155490I218750J0D01*
G01*
X175144990Y-113155490D01*
G75*
G02*
X175363740Y-113374240I0J-218750D01*
G01*
G37*
%TD.AperFunction*%
%TA.AperFunction,SMDPad,CuDef*%
G36*
G01*
X176938740Y-113374240D02*
X176938740Y-113886740D01*
G75*
G02*
X176719990Y-114105490I-218750J0D01*
G01*
X176282490Y-114105490D01*
G75*
G02*
X176063740Y-113886740I0J218750D01*
G01*
X176063740Y-113374240D01*
G75*
G02*
X176282490Y-113155490I218750J0D01*
G01*
X176719990Y-113155490D01*
G75*
G02*
X176938740Y-113374240I0J-218750D01*
G01*
G37*
%TD.AperFunction*%
%TA.AperFunction,SMDPad,CuDef*%
G36*
G01*
X175363740Y-114925930D02*
X175363740Y-115438430D01*
G75*
G02*
X175144990Y-115657180I-218750J0D01*
G01*
X174707490Y-115657180D01*
G75*
G02*
X174488740Y-115438430I0J218750D01*
G01*
X174488740Y-114925930D01*
G75*
G02*
X174707490Y-114707180I218750J0D01*
G01*
X175144990Y-114707180D01*
G75*
G02*
X175363740Y-114925930I0J-218750D01*
G01*
G37*
%TD.AperFunction*%
%TA.AperFunction,SMDPad,CuDef*%
G36*
G01*
X176938740Y-114925930D02*
X176938740Y-115438430D01*
G75*
G02*
X176719990Y-115657180I-218750J0D01*
G01*
X176282490Y-115657180D01*
G75*
G02*
X176063740Y-115438430I0J218750D01*
G01*
X176063740Y-114925930D01*
G75*
G02*
X176282490Y-114707180I218750J0D01*
G01*
X176719990Y-114707180D01*
G75*
G02*
X176938740Y-114925930I0J-218750D01*
G01*
G37*
%TD.AperFunction*%
D23*
X185330720Y-95117920D03*
X185330720Y-94017920D03*
X187160720Y-94017920D03*
X187160720Y-95117920D03*
D24*
X187192340Y-122854000D03*
X187192340Y-115854000D03*
X192632340Y-115854000D03*
X192632340Y-122854000D03*
D25*
X189912340Y-122124000D03*
D26*
X189912340Y-120124000D03*
X189912340Y-118124000D03*
X189912340Y-116124000D03*
%TA.AperFunction,SMDPad,CuDef*%
G36*
G01*
X174978300Y-109327000D02*
X174428300Y-109327000D01*
G75*
G02*
X174228300Y-109127000I0J200000D01*
G01*
X174228300Y-108727000D01*
G75*
G02*
X174428300Y-108527000I200000J0D01*
G01*
X174978300Y-108527000D01*
G75*
G02*
X175178300Y-108727000I0J-200000D01*
G01*
X175178300Y-109127000D01*
G75*
G02*
X174978300Y-109327000I-200000J0D01*
G01*
G37*
%TD.AperFunction*%
%TA.AperFunction,SMDPad,CuDef*%
G36*
G01*
X174978300Y-110977000D02*
X174428300Y-110977000D01*
G75*
G02*
X174228300Y-110777000I0J200000D01*
G01*
X174228300Y-110377000D01*
G75*
G02*
X174428300Y-110177000I200000J0D01*
G01*
X174978300Y-110177000D01*
G75*
G02*
X175178300Y-110377000I0J-200000D01*
G01*
X175178300Y-110777000D01*
G75*
G02*
X174978300Y-110977000I-200000J0D01*
G01*
G37*
%TD.AperFunction*%
%TA.AperFunction,SMDPad,CuDef*%
G36*
G01*
X175840800Y-87074800D02*
X176340800Y-87074800D01*
G75*
G02*
X176565800Y-87299800I0J-225000D01*
G01*
X176565800Y-87749800D01*
G75*
G02*
X176340800Y-87974800I-225000J0D01*
G01*
X175840800Y-87974800D01*
G75*
G02*
X175615800Y-87749800I0J225000D01*
G01*
X175615800Y-87299800D01*
G75*
G02*
X175840800Y-87074800I225000J0D01*
G01*
G37*
%TD.AperFunction*%
%TA.AperFunction,SMDPad,CuDef*%
G36*
G01*
X175840800Y-85524800D02*
X176340800Y-85524800D01*
G75*
G02*
X176565800Y-85749800I0J-225000D01*
G01*
X176565800Y-86199800D01*
G75*
G02*
X176340800Y-86424800I-225000J0D01*
G01*
X175840800Y-86424800D01*
G75*
G02*
X175615800Y-86199800I0J225000D01*
G01*
X175615800Y-85749800D01*
G75*
G02*
X175840800Y-85524800I225000J0D01*
G01*
G37*
%TD.AperFunction*%
%TA.AperFunction,SMDPad,CuDef*%
G36*
G01*
X175802700Y-91062300D02*
X176302700Y-91062300D01*
G75*
G02*
X176527700Y-91287300I0J-225000D01*
G01*
X176527700Y-91737300D01*
G75*
G02*
X176302700Y-91962300I-225000J0D01*
G01*
X175802700Y-91962300D01*
G75*
G02*
X175577700Y-91737300I0J225000D01*
G01*
X175577700Y-91287300D01*
G75*
G02*
X175802700Y-91062300I225000J0D01*
G01*
G37*
%TD.AperFunction*%
%TA.AperFunction,SMDPad,CuDef*%
G36*
G01*
X175802700Y-89512300D02*
X176302700Y-89512300D01*
G75*
G02*
X176527700Y-89737300I0J-225000D01*
G01*
X176527700Y-90187300D01*
G75*
G02*
X176302700Y-90412300I-225000J0D01*
G01*
X175802700Y-90412300D01*
G75*
G02*
X175577700Y-90187300I0J225000D01*
G01*
X175577700Y-89737300D01*
G75*
G02*
X175802700Y-89512300I225000J0D01*
G01*
G37*
%TD.AperFunction*%
%TA.AperFunction,SMDPad,CuDef*%
G36*
G01*
X188105300Y-110984100D02*
X188105300Y-109734100D01*
G75*
G02*
X188355300Y-109484100I250000J0D01*
G01*
X189105300Y-109484100D01*
G75*
G02*
X189355300Y-109734100I0J-250000D01*
G01*
X189355300Y-110984100D01*
G75*
G02*
X189105300Y-111234100I-250000J0D01*
G01*
X188355300Y-111234100D01*
G75*
G02*
X188105300Y-110984100I0J250000D01*
G01*
G37*
%TD.AperFunction*%
%TA.AperFunction,SMDPad,CuDef*%
G36*
G01*
X185305300Y-110984100D02*
X185305300Y-109734100D01*
G75*
G02*
X185555300Y-109484100I250000J0D01*
G01*
X186305300Y-109484100D01*
G75*
G02*
X186555300Y-109734100I0J-250000D01*
G01*
X186555300Y-110984100D01*
G75*
G02*
X186305300Y-111234100I-250000J0D01*
G01*
X185555300Y-111234100D01*
G75*
G02*
X185305300Y-110984100I0J250000D01*
G01*
G37*
%TD.AperFunction*%
D27*
X192220000Y-111355000D03*
X192220000Y-108815000D03*
X192220000Y-106275000D03*
X192220000Y-103735000D03*
X192220000Y-101195000D03*
X192220000Y-98655000D03*
X192220000Y-96115000D03*
X192220000Y-93575000D03*
X192220000Y-91035000D03*
X192220000Y-88495000D03*
X192220000Y-85955000D03*
X192220000Y-83415000D03*
X192220000Y-80875000D03*
X192220000Y-78335000D03*
X192220000Y-75795000D03*
X192220000Y-73255000D03*
X192220000Y-70715000D03*
X192220000Y-68175000D03*
X192220000Y-65635000D03*
X192220000Y-63095000D03*
X192220000Y-60555000D03*
D28*
X192220000Y-58015000D03*
%TA.AperFunction,SMDPad,CuDef*%
G36*
G01*
X185789600Y-98896200D02*
X185289600Y-98896200D01*
G75*
G02*
X185064600Y-98671200I0J225000D01*
G01*
X185064600Y-98221200D01*
G75*
G02*
X185289600Y-97996200I225000J0D01*
G01*
X185789600Y-97996200D01*
G75*
G02*
X186014600Y-98221200I0J-225000D01*
G01*
X186014600Y-98671200D01*
G75*
G02*
X185789600Y-98896200I-225000J0D01*
G01*
G37*
%TD.AperFunction*%
%TA.AperFunction,SMDPad,CuDef*%
G36*
G01*
X185789600Y-100446200D02*
X185289600Y-100446200D01*
G75*
G02*
X185064600Y-100221200I0J225000D01*
G01*
X185064600Y-99771200D01*
G75*
G02*
X185289600Y-99546200I225000J0D01*
G01*
X185789600Y-99546200D01*
G75*
G02*
X186014600Y-99771200I0J-225000D01*
G01*
X186014600Y-100221200D01*
G75*
G02*
X185789600Y-100446200I-225000J0D01*
G01*
G37*
%TD.AperFunction*%
D29*
X172156700Y-105558500D03*
X167756700Y-105558500D03*
X172118600Y-110194000D03*
X167718600Y-110194000D03*
%TA.AperFunction,SMDPad,CuDef*%
G36*
G01*
X179549600Y-106389900D02*
X180099600Y-106389900D01*
G75*
G02*
X180299600Y-106589900I0J-200000D01*
G01*
X180299600Y-106989900D01*
G75*
G02*
X180099600Y-107189900I-200000J0D01*
G01*
X179549600Y-107189900D01*
G75*
G02*
X179349600Y-106989900I0J200000D01*
G01*
X179349600Y-106589900D01*
G75*
G02*
X179549600Y-106389900I200000J0D01*
G01*
G37*
%TD.AperFunction*%
%TA.AperFunction,SMDPad,CuDef*%
G36*
G01*
X179549600Y-104739900D02*
X180099600Y-104739900D01*
G75*
G02*
X180299600Y-104939900I0J-200000D01*
G01*
X180299600Y-105339900D01*
G75*
G02*
X180099600Y-105539900I-200000J0D01*
G01*
X179549600Y-105539900D01*
G75*
G02*
X179349600Y-105339900I0J200000D01*
G01*
X179349600Y-104939900D01*
G75*
G02*
X179549600Y-104739900I200000J0D01*
G01*
G37*
%TD.AperFunction*%
%TA.AperFunction,SMDPad,CuDef*%
G36*
G01*
X172018500Y-91074200D02*
X172568500Y-91074200D01*
G75*
G02*
X172768500Y-91274200I0J-200000D01*
G01*
X172768500Y-91674200D01*
G75*
G02*
X172568500Y-91874200I-200000J0D01*
G01*
X172018500Y-91874200D01*
G75*
G02*
X171818500Y-91674200I0J200000D01*
G01*
X171818500Y-91274200D01*
G75*
G02*
X172018500Y-91074200I200000J0D01*
G01*
G37*
%TD.AperFunction*%
%TA.AperFunction,SMDPad,CuDef*%
G36*
G01*
X172018500Y-89424200D02*
X172568500Y-89424200D01*
G75*
G02*
X172768500Y-89624200I0J-200000D01*
G01*
X172768500Y-90024200D01*
G75*
G02*
X172568500Y-90224200I-200000J0D01*
G01*
X172018500Y-90224200D01*
G75*
G02*
X171818500Y-90024200I0J200000D01*
G01*
X171818500Y-89624200D01*
G75*
G02*
X172018500Y-89424200I200000J0D01*
G01*
G37*
%TD.AperFunction*%
D27*
X167430000Y-101195000D03*
X167430000Y-98655000D03*
X167430000Y-96115000D03*
X167430000Y-93575000D03*
X167430000Y-91035000D03*
X167430000Y-88495000D03*
X167430000Y-85955000D03*
X167430000Y-83415000D03*
X167430000Y-80875000D03*
X167430000Y-78335000D03*
X167430000Y-75795000D03*
X167430000Y-73255000D03*
X167430000Y-70715000D03*
X167430000Y-68175000D03*
X167430000Y-65635000D03*
X167430000Y-63095000D03*
X167430000Y-60555000D03*
D28*
X167430000Y-58015000D03*
%TA.AperFunction,SMDPad,CuDef*%
G36*
G01*
X172465360Y-86664400D02*
X172040360Y-86664400D01*
G75*
G02*
X171827860Y-86451900I0J212500D01*
G01*
X171827860Y-85651900D01*
G75*
G02*
X172040360Y-85439400I212500J0D01*
G01*
X172465360Y-85439400D01*
G75*
G02*
X172677860Y-85651900I0J-212500D01*
G01*
X172677860Y-86451900D01*
G75*
G02*
X172465360Y-86664400I-212500J0D01*
G01*
G37*
%TD.AperFunction*%
%TA.AperFunction,SMDPad,CuDef*%
G36*
G01*
X172465360Y-88289400D02*
X172040360Y-88289400D01*
G75*
G02*
X171827860Y-88076900I0J212500D01*
G01*
X171827860Y-87276900D01*
G75*
G02*
X172040360Y-87064400I212500J0D01*
G01*
X172465360Y-87064400D01*
G75*
G02*
X172677860Y-87276900I0J-212500D01*
G01*
X172677860Y-88076900D01*
G75*
G02*
X172465360Y-88289400I-212500J0D01*
G01*
G37*
%TD.AperFunction*%
%TA.AperFunction,SMDPad,CuDef*%
G36*
G01*
X177568000Y-87049400D02*
X178068000Y-87049400D01*
G75*
G02*
X178293000Y-87274400I0J-225000D01*
G01*
X178293000Y-87724400D01*
G75*
G02*
X178068000Y-87949400I-225000J0D01*
G01*
X177568000Y-87949400D01*
G75*
G02*
X177343000Y-87724400I0J225000D01*
G01*
X177343000Y-87274400D01*
G75*
G02*
X177568000Y-87049400I225000J0D01*
G01*
G37*
%TD.AperFunction*%
%TA.AperFunction,SMDPad,CuDef*%
G36*
G01*
X177568000Y-85499400D02*
X178068000Y-85499400D01*
G75*
G02*
X178293000Y-85724400I0J-225000D01*
G01*
X178293000Y-86174400D01*
G75*
G02*
X178068000Y-86399400I-225000J0D01*
G01*
X177568000Y-86399400D01*
G75*
G02*
X177343000Y-86174400I0J225000D01*
G01*
X177343000Y-85724400D01*
G75*
G02*
X177568000Y-85499400I225000J0D01*
G01*
G37*
%TD.AperFunction*%
%TA.AperFunction,SMDPad,CuDef*%
G36*
G01*
X173821500Y-106112100D02*
X174321500Y-106112100D01*
G75*
G02*
X174546500Y-106337100I0J-225000D01*
G01*
X174546500Y-106787100D01*
G75*
G02*
X174321500Y-107012100I-225000J0D01*
G01*
X173821500Y-107012100D01*
G75*
G02*
X173596500Y-106787100I0J225000D01*
G01*
X173596500Y-106337100D01*
G75*
G02*
X173821500Y-106112100I225000J0D01*
G01*
G37*
%TD.AperFunction*%
%TA.AperFunction,SMDPad,CuDef*%
G36*
G01*
X173821500Y-104562100D02*
X174321500Y-104562100D01*
G75*
G02*
X174546500Y-104787100I0J-225000D01*
G01*
X174546500Y-105237100D01*
G75*
G02*
X174321500Y-105462100I-225000J0D01*
G01*
X173821500Y-105462100D01*
G75*
G02*
X173596500Y-105237100I0J225000D01*
G01*
X173596500Y-104787100D01*
G75*
G02*
X173821500Y-104562100I225000J0D01*
G01*
G37*
%TD.AperFunction*%
%TA.AperFunction,SMDPad,CuDef*%
G36*
G01*
X171079500Y-100482500D02*
X171079500Y-100982500D01*
G75*
G02*
X170854500Y-101207500I-225000J0D01*
G01*
X170404500Y-101207500D01*
G75*
G02*
X170179500Y-100982500I0J225000D01*
G01*
X170179500Y-100482500D01*
G75*
G02*
X170404500Y-100257500I225000J0D01*
G01*
X170854500Y-100257500D01*
G75*
G02*
X171079500Y-100482500I0J-225000D01*
G01*
G37*
%TD.AperFunction*%
%TA.AperFunction,SMDPad,CuDef*%
G36*
G01*
X172629500Y-100482500D02*
X172629500Y-100982500D01*
G75*
G02*
X172404500Y-101207500I-225000J0D01*
G01*
X171954500Y-101207500D01*
G75*
G02*
X171729500Y-100982500I0J225000D01*
G01*
X171729500Y-100482500D01*
G75*
G02*
X171954500Y-100257500I225000J0D01*
G01*
X172404500Y-100257500D01*
G75*
G02*
X172629500Y-100482500I0J-225000D01*
G01*
G37*
%TD.AperFunction*%
%TA.AperFunction,SMDPad,CuDef*%
G36*
G01*
X176197600Y-94018200D02*
X176197600Y-94518200D01*
G75*
G02*
X175972600Y-94743200I-225000J0D01*
G01*
X175522600Y-94743200D01*
G75*
G02*
X175297600Y-94518200I0J225000D01*
G01*
X175297600Y-94018200D01*
G75*
G02*
X175522600Y-93793200I225000J0D01*
G01*
X175972600Y-93793200D01*
G75*
G02*
X176197600Y-94018200I0J-225000D01*
G01*
G37*
%TD.AperFunction*%
%TA.AperFunction,SMDPad,CuDef*%
G36*
G01*
X177747600Y-94018200D02*
X177747600Y-94518200D01*
G75*
G02*
X177522600Y-94743200I-225000J0D01*
G01*
X177072600Y-94743200D01*
G75*
G02*
X176847600Y-94518200I0J225000D01*
G01*
X176847600Y-94018200D01*
G75*
G02*
X177072600Y-93793200I225000J0D01*
G01*
X177522600Y-93793200D01*
G75*
G02*
X177747600Y-94018200I0J-225000D01*
G01*
G37*
%TD.AperFunction*%
%TA.AperFunction,SMDPad,CuDef*%
G36*
G01*
X167955000Y-113755000D02*
X167405000Y-113755000D01*
G75*
G02*
X167205000Y-113555000I0J200000D01*
G01*
X167205000Y-113155000D01*
G75*
G02*
X167405000Y-112955000I200000J0D01*
G01*
X167955000Y-112955000D01*
G75*
G02*
X168155000Y-113155000I0J-200000D01*
G01*
X168155000Y-113555000D01*
G75*
G02*
X167955000Y-113755000I-200000J0D01*
G01*
G37*
%TD.AperFunction*%
%TA.AperFunction,SMDPad,CuDef*%
G36*
G01*
X167955000Y-115405000D02*
X167405000Y-115405000D01*
G75*
G02*
X167205000Y-115205000I0J200000D01*
G01*
X167205000Y-114805000D01*
G75*
G02*
X167405000Y-114605000I200000J0D01*
G01*
X167955000Y-114605000D01*
G75*
G02*
X168155000Y-114805000I0J-200000D01*
G01*
X168155000Y-115205000D01*
G75*
G02*
X167955000Y-115405000I-200000J0D01*
G01*
G37*
%TD.AperFunction*%
%TA.AperFunction,SMDPad,CuDef*%
G36*
G01*
X179341180Y-83312500D02*
X179341180Y-83862500D01*
G75*
G02*
X179141180Y-84062500I-200000J0D01*
G01*
X178741180Y-84062500D01*
G75*
G02*
X178541180Y-83862500I0J200000D01*
G01*
X178541180Y-83312500D01*
G75*
G02*
X178741180Y-83112500I200000J0D01*
G01*
X179141180Y-83112500D01*
G75*
G02*
X179341180Y-83312500I0J-200000D01*
G01*
G37*
%TD.AperFunction*%
%TA.AperFunction,SMDPad,CuDef*%
G36*
G01*
X180991180Y-83312500D02*
X180991180Y-83862500D01*
G75*
G02*
X180791180Y-84062500I-200000J0D01*
G01*
X180391180Y-84062500D01*
G75*
G02*
X180191180Y-83862500I0J200000D01*
G01*
X180191180Y-83312500D01*
G75*
G02*
X180391180Y-83112500I200000J0D01*
G01*
X180791180Y-83112500D01*
G75*
G02*
X180991180Y-83312500I0J-200000D01*
G01*
G37*
%TD.AperFunction*%
%TA.AperFunction,SMDPad,CuDef*%
G36*
G01*
X185852700Y-102326800D02*
X185302700Y-102326800D01*
G75*
G02*
X185102700Y-102126800I0J200000D01*
G01*
X185102700Y-101726800D01*
G75*
G02*
X185302700Y-101526800I200000J0D01*
G01*
X185852700Y-101526800D01*
G75*
G02*
X186052700Y-101726800I0J-200000D01*
G01*
X186052700Y-102126800D01*
G75*
G02*
X185852700Y-102326800I-200000J0D01*
G01*
G37*
%TD.AperFunction*%
%TA.AperFunction,SMDPad,CuDef*%
G36*
G01*
X185852700Y-103976800D02*
X185302700Y-103976800D01*
G75*
G02*
X185102700Y-103776800I0J200000D01*
G01*
X185102700Y-103376800D01*
G75*
G02*
X185302700Y-103176800I200000J0D01*
G01*
X185852700Y-103176800D01*
G75*
G02*
X186052700Y-103376800I0J-200000D01*
G01*
X186052700Y-103776800D01*
G75*
G02*
X185852700Y-103976800I-200000J0D01*
G01*
G37*
%TD.AperFunction*%
%TA.AperFunction,SMDPad,CuDef*%
G36*
G01*
X170141400Y-99115200D02*
X170141400Y-98565200D01*
G75*
G02*
X170341400Y-98365200I200000J0D01*
G01*
X170741400Y-98365200D01*
G75*
G02*
X170941400Y-98565200I0J-200000D01*
G01*
X170941400Y-99115200D01*
G75*
G02*
X170741400Y-99315200I-200000J0D01*
G01*
X170341400Y-99315200D01*
G75*
G02*
X170141400Y-99115200I0J200000D01*
G01*
G37*
%TD.AperFunction*%
%TA.AperFunction,SMDPad,CuDef*%
G36*
G01*
X171791400Y-99115200D02*
X171791400Y-98565200D01*
G75*
G02*
X171991400Y-98365200I200000J0D01*
G01*
X172391400Y-98365200D01*
G75*
G02*
X172591400Y-98565200I0J-200000D01*
G01*
X172591400Y-99115200D01*
G75*
G02*
X172391400Y-99315200I-200000J0D01*
G01*
X171991400Y-99315200D01*
G75*
G02*
X171791400Y-99115200I0J200000D01*
G01*
G37*
%TD.AperFunction*%
%TA.AperFunction,SMDPad,CuDef*%
G36*
G01*
X171754900Y-102874800D02*
X171754900Y-102374800D01*
G75*
G02*
X171979900Y-102149800I225000J0D01*
G01*
X172429900Y-102149800D01*
G75*
G02*
X172654900Y-102374800I0J-225000D01*
G01*
X172654900Y-102874800D01*
G75*
G02*
X172429900Y-103099800I-225000J0D01*
G01*
X171979900Y-103099800D01*
G75*
G02*
X171754900Y-102874800I0J225000D01*
G01*
G37*
%TD.AperFunction*%
%TA.AperFunction,SMDPad,CuDef*%
G36*
G01*
X170204900Y-102874800D02*
X170204900Y-102374800D01*
G75*
G02*
X170429900Y-102149800I225000J0D01*
G01*
X170879900Y-102149800D01*
G75*
G02*
X171104900Y-102374800I0J-225000D01*
G01*
X171104900Y-102874800D01*
G75*
G02*
X170879900Y-103099800I-225000J0D01*
G01*
X170429900Y-103099800D01*
G75*
G02*
X170204900Y-102874800I0J225000D01*
G01*
G37*
%TD.AperFunction*%
%TA.AperFunction,SMDPad,CuDef*%
G36*
G01*
X174512000Y-86374000D02*
X174012000Y-86374000D01*
G75*
G02*
X173787000Y-86149000I0J225000D01*
G01*
X173787000Y-85699000D01*
G75*
G02*
X174012000Y-85474000I225000J0D01*
G01*
X174512000Y-85474000D01*
G75*
G02*
X174737000Y-85699000I0J-225000D01*
G01*
X174737000Y-86149000D01*
G75*
G02*
X174512000Y-86374000I-225000J0D01*
G01*
G37*
%TD.AperFunction*%
%TA.AperFunction,SMDPad,CuDef*%
G36*
G01*
X174512000Y-87924000D02*
X174012000Y-87924000D01*
G75*
G02*
X173787000Y-87699000I0J225000D01*
G01*
X173787000Y-87249000D01*
G75*
G02*
X174012000Y-87024000I225000J0D01*
G01*
X174512000Y-87024000D01*
G75*
G02*
X174737000Y-87249000I0J-225000D01*
G01*
X174737000Y-87699000D01*
G75*
G02*
X174512000Y-87924000I-225000J0D01*
G01*
G37*
%TD.AperFunction*%
%TA.AperFunction,SMDPad,CuDef*%
G36*
G01*
X173999300Y-91011500D02*
X174499300Y-91011500D01*
G75*
G02*
X174724300Y-91236500I0J-225000D01*
G01*
X174724300Y-91686500D01*
G75*
G02*
X174499300Y-91911500I-225000J0D01*
G01*
X173999300Y-91911500D01*
G75*
G02*
X173774300Y-91686500I0J225000D01*
G01*
X173774300Y-91236500D01*
G75*
G02*
X173999300Y-91011500I225000J0D01*
G01*
G37*
%TD.AperFunction*%
%TA.AperFunction,SMDPad,CuDef*%
G36*
G01*
X173999300Y-89461500D02*
X174499300Y-89461500D01*
G75*
G02*
X174724300Y-89686500I0J-225000D01*
G01*
X174724300Y-90136500D01*
G75*
G02*
X174499300Y-90361500I-225000J0D01*
G01*
X173999300Y-90361500D01*
G75*
G02*
X173774300Y-90136500I0J225000D01*
G01*
X173774300Y-89686500D01*
G75*
G02*
X173999300Y-89461500I225000J0D01*
G01*
G37*
%TD.AperFunction*%
%TA.AperFunction,SMDPad,CuDef*%
G36*
G01*
X177555300Y-91062600D02*
X178055300Y-91062600D01*
G75*
G02*
X178280300Y-91287600I0J-225000D01*
G01*
X178280300Y-91737600D01*
G75*
G02*
X178055300Y-91962600I-225000J0D01*
G01*
X177555300Y-91962600D01*
G75*
G02*
X177330300Y-91737600I0J225000D01*
G01*
X177330300Y-91287600D01*
G75*
G02*
X177555300Y-91062600I225000J0D01*
G01*
G37*
%TD.AperFunction*%
%TA.AperFunction,SMDPad,CuDef*%
G36*
G01*
X177555300Y-89512600D02*
X178055300Y-89512600D01*
G75*
G02*
X178280300Y-89737600I0J-225000D01*
G01*
X178280300Y-90187600D01*
G75*
G02*
X178055300Y-90412600I-225000J0D01*
G01*
X177555300Y-90412600D01*
G75*
G02*
X177330300Y-90187600I0J225000D01*
G01*
X177330300Y-89737600D01*
G75*
G02*
X177555300Y-89512600I225000J0D01*
G01*
G37*
%TD.AperFunction*%
%TA.AperFunction,SMDPad,CuDef*%
G36*
G01*
X185315400Y-106643900D02*
X185865400Y-106643900D01*
G75*
G02*
X186065400Y-106843900I0J-200000D01*
G01*
X186065400Y-107243900D01*
G75*
G02*
X185865400Y-107443900I-200000J0D01*
G01*
X185315400Y-107443900D01*
G75*
G02*
X185115400Y-107243900I0J200000D01*
G01*
X185115400Y-106843900D01*
G75*
G02*
X185315400Y-106643900I200000J0D01*
G01*
G37*
%TD.AperFunction*%
%TA.AperFunction,SMDPad,CuDef*%
G36*
G01*
X185315400Y-104993900D02*
X185865400Y-104993900D01*
G75*
G02*
X186065400Y-105193900I0J-200000D01*
G01*
X186065400Y-105593900D01*
G75*
G02*
X185865400Y-105793900I-200000J0D01*
G01*
X185315400Y-105793900D01*
G75*
G02*
X185115400Y-105593900I0J200000D01*
G01*
X185115400Y-105193900D01*
G75*
G02*
X185315400Y-104993900I200000J0D01*
G01*
G37*
%TD.AperFunction*%
D30*
X176234700Y-63246300D03*
X177734700Y-63246300D03*
X179234700Y-63246300D03*
X180734700Y-63246300D03*
X176234700Y-64746300D03*
X177734700Y-64746300D03*
X179234700Y-64746300D03*
X180734700Y-64746300D03*
X176234700Y-66246300D03*
X177734700Y-66246300D03*
X179234700Y-66246300D03*
X180734700Y-66246300D03*
X176234700Y-67746300D03*
X177734700Y-67746300D03*
X179234700Y-67746300D03*
X180734700Y-67746300D03*
X186763314Y-98505486D03*
X172649100Y-57552500D03*
X178580000Y-94319000D03*
X169430920Y-110160980D03*
X177818000Y-88743700D03*
X175740280Y-95553440D03*
X169392820Y-102647660D03*
X187952600Y-81425960D03*
X184442320Y-93125200D03*
X180192500Y-86392900D03*
X176141600Y-83854200D03*
X172357000Y-93379200D03*
X169280000Y-105510000D03*
X177440000Y-109000000D03*
X167710000Y-112390000D03*
X169950000Y-112380000D03*
X175640010Y-104929043D03*
X176338580Y-108949020D03*
X180123180Y-121021640D03*
X180105400Y-121974140D03*
X180120640Y-116340420D03*
X178096260Y-109995500D03*
X183137656Y-110070011D03*
X174163310Y-113630240D03*
X186504800Y-89640320D03*
X186504800Y-87699760D03*
X186860400Y-99970500D03*
X186873100Y-101939000D03*
X169382660Y-100379440D03*
X179829680Y-82350520D03*
X180192500Y-88692900D03*
X176093340Y-88700520D03*
X172280800Y-83854200D03*
X186121260Y-59020620D03*
X172219522Y-95527722D03*
X186164440Y-63511340D03*
X181785480Y-95619480D03*
X186154280Y-65020100D03*
X180505320Y-95644880D03*
X181907400Y-104098000D03*
X179977000Y-104110700D03*
X167670000Y-115980000D03*
X173290000Y-115990000D03*
X172532500Y-114765000D03*
X177884660Y-100356200D03*
X177628900Y-113792800D03*
X171482500Y-114765000D03*
X176834660Y-100356200D03*
X177631440Y-111168980D03*
X185930285Y-110359085D03*
X180981700Y-112512640D03*
X171536979Y-120163021D03*
X174179679Y-120163021D03*
X172881739Y-120163021D03*
X184700710Y-113567190D03*
X183106860Y-115161040D03*
X183936169Y-114331731D03*
X172651644Y-60664000D03*
X172018614Y-107994756D03*
X186103482Y-78525280D03*
X186238100Y-96472920D03*
X172577980Y-77039380D03*
X172588140Y-75528080D03*
X172593220Y-74062500D03*
X174700390Y-75525540D03*
X173463300Y-111054680D03*
X186106020Y-77029220D03*
X186103480Y-75487440D03*
X186133960Y-74037100D03*
X180783888Y-109573401D03*
X183039100Y-108568020D03*
X180930900Y-113792800D03*
X180774659Y-110620359D03*
D31*
X167905000Y-57540000D02*
X167430000Y-58015000D01*
X170930000Y-57540000D02*
X167905000Y-57540000D01*
X191745000Y-57540000D02*
X192220000Y-58015000D01*
X188430000Y-57540000D02*
X191745000Y-57540000D01*
X176040000Y-85924000D02*
X176090800Y-85974800D01*
X174262000Y-85924000D02*
X176040000Y-85924000D01*
X177792600Y-85974800D02*
X177818000Y-85949400D01*
X176090800Y-85974800D02*
X177792600Y-85974800D01*
X179749000Y-85949400D02*
X180192500Y-86392900D01*
X177818000Y-85949400D02*
X179749000Y-85949400D01*
X177805000Y-89962300D02*
X177805300Y-89962600D01*
X176052700Y-89962300D02*
X177805000Y-89962300D01*
X172293500Y-91474200D02*
X174236600Y-91474200D01*
X170629500Y-102599400D02*
X170654900Y-102624800D01*
X170629500Y-100732500D02*
X170629500Y-102599400D01*
X186704028Y-98446200D02*
X186763314Y-98505486D01*
X185539600Y-98446200D02*
X186704028Y-98446200D01*
X170930000Y-57540000D02*
X172636600Y-57540000D01*
X172636600Y-57540000D02*
X172649100Y-57552500D01*
X183037700Y-97520900D02*
X183037700Y-96906540D01*
X180015600Y-94268200D02*
X178630800Y-94268200D01*
X178630800Y-94268200D02*
X178580000Y-94319000D01*
X169397900Y-110194000D02*
X169430920Y-110160980D01*
X167718600Y-110194000D02*
X169397900Y-110194000D01*
X180192500Y-86392900D02*
X180192500Y-86392900D01*
X177805300Y-88756400D02*
X177818000Y-88743700D01*
X177805300Y-89962600D02*
X177805300Y-88756400D01*
X175747600Y-95546120D02*
X175740280Y-95553440D01*
X175747600Y-94268200D02*
X175747600Y-95546120D01*
X170654900Y-102624800D02*
X169415680Y-102624800D01*
X169415680Y-102624800D02*
X169392820Y-102647660D01*
X184614300Y-97520900D02*
X185539600Y-98446200D01*
X183037700Y-97520900D02*
X184614300Y-97520900D01*
X186430000Y-80790000D02*
X187316640Y-80790000D01*
X187316640Y-80790000D02*
X187952600Y-81425960D01*
X187952600Y-81425960D02*
X187952600Y-81425960D01*
X184449940Y-93117580D02*
X184442320Y-93125200D01*
X184896980Y-93117580D02*
X184449940Y-93117580D01*
X185330720Y-93551320D02*
X184896980Y-93117580D01*
X185330720Y-94017920D02*
X185330720Y-93551320D01*
X176090800Y-83905000D02*
X176141600Y-83854200D01*
X176090800Y-85974800D02*
X176090800Y-83905000D01*
X172293500Y-91474200D02*
X172293500Y-93315700D01*
X172293500Y-93315700D02*
X172357000Y-93379200D01*
X174912500Y-117364280D02*
X175827500Y-118279280D01*
X174757500Y-117364280D02*
X174912500Y-117364280D01*
X167342500Y-118279280D02*
X168257500Y-117364280D01*
X167187500Y-118279280D02*
X167342500Y-118279280D01*
X174757500Y-116939280D02*
X174757500Y-117364280D01*
X167756700Y-105558500D02*
X169231500Y-105558500D01*
X169231500Y-105558500D02*
X169280000Y-105510000D01*
X177450000Y-108990000D02*
X177440000Y-109000000D01*
X167680000Y-112420000D02*
X167710000Y-112390000D01*
X167680000Y-113355000D02*
X167680000Y-112420000D01*
X169930000Y-112400000D02*
X169950000Y-112380000D01*
X169930000Y-113360000D02*
X169930000Y-112400000D01*
X175556953Y-105012100D02*
X175640010Y-104929043D01*
X174071500Y-105012100D02*
X175556953Y-105012100D01*
X177440000Y-109000000D02*
X178532500Y-109000000D01*
X180121400Y-119797360D02*
X180121400Y-118624640D01*
X178603320Y-118279280D02*
X180121400Y-119797360D01*
X175827500Y-118279280D02*
X178603320Y-118279280D01*
X180121400Y-116341180D02*
X180120640Y-116340420D01*
X180121400Y-119797360D02*
X180121400Y-116341180D01*
X179070000Y-109995500D02*
X178096260Y-109995500D01*
X179280000Y-110205500D02*
X179070000Y-109995500D01*
X179280000Y-111168000D02*
X179280000Y-110205500D01*
X179280000Y-109747500D02*
X178532500Y-109000000D01*
X179280000Y-110205500D02*
X179280000Y-109747500D01*
X181900000Y-110070000D02*
X183137645Y-110070000D01*
X183137645Y-110070000D02*
X183137656Y-110070011D01*
X176377100Y-109000000D02*
X176328900Y-108951800D01*
X177440000Y-109000000D02*
X176377100Y-109000000D01*
X177372600Y-109995500D02*
X176328900Y-108951800D01*
X178096260Y-109995500D02*
X177372600Y-109995500D01*
X177440000Y-109339240D02*
X178096260Y-109995500D01*
X177440000Y-109000000D02*
X177440000Y-109339240D01*
X174926240Y-113630490D02*
X174163560Y-113630490D01*
X174163560Y-113630490D02*
X174163310Y-113630240D01*
X168945000Y-59040000D02*
X167430000Y-60555000D01*
X170930000Y-59040000D02*
X168945000Y-59040000D01*
X185033600Y-102470900D02*
X185577700Y-101926800D01*
X183037700Y-102470900D02*
X185033600Y-102470900D01*
X185539600Y-99996200D02*
X183507300Y-99996200D01*
X183037700Y-100465800D02*
X183037700Y-102470900D01*
X183507300Y-99996200D02*
X183037700Y-100465800D01*
X177792600Y-87474000D02*
X177818000Y-87499400D01*
X174262000Y-87474000D02*
X177792600Y-87474000D01*
X178999000Y-87499400D02*
X180192500Y-88692900D01*
X177818000Y-87499400D02*
X178999000Y-87499400D01*
X186834700Y-99996200D02*
X186860400Y-99970500D01*
X185539600Y-99996200D02*
X186834700Y-99996200D01*
X186860900Y-101926800D02*
X186873100Y-101939000D01*
X185577700Y-101926800D02*
X186860900Y-101926800D01*
X174249300Y-87486700D02*
X174262000Y-87474000D01*
X174249300Y-89911500D02*
X174249300Y-87486700D01*
X170541400Y-98840200D02*
X170541400Y-96947900D01*
X170541400Y-99220700D02*
X169382660Y-100379440D01*
X170541400Y-98840200D02*
X170541400Y-99220700D01*
X180591180Y-83587500D02*
X180591180Y-83112020D01*
X180591180Y-83112020D02*
X180229679Y-82750519D01*
X180229679Y-82750519D02*
X179829680Y-82350520D01*
X180192500Y-88692900D02*
X180192500Y-88692900D01*
X176090800Y-88697980D02*
X176093340Y-88700520D01*
X176090800Y-87524800D02*
X176090800Y-88697980D01*
X172252860Y-86051900D02*
X172252860Y-83882140D01*
X172252860Y-83882140D02*
X172280800Y-83854200D01*
D32*
X172191400Y-100720600D02*
X172179500Y-100732500D01*
X172191400Y-98840200D02*
X172191400Y-100720600D01*
X172204900Y-100757900D02*
X172179500Y-100732500D01*
X172204900Y-102624800D02*
X172204900Y-100757900D01*
X172204900Y-105510300D02*
X172156700Y-105558500D01*
X172204900Y-102624800D02*
X172204900Y-105510300D01*
X172191400Y-96947900D02*
X172191400Y-98840200D01*
X188410620Y-59020620D02*
X188430000Y-59040000D01*
X186121260Y-59020620D02*
X188410620Y-59020620D01*
X172191400Y-95555844D02*
X172219522Y-95527722D01*
X172191400Y-96947900D02*
X172191400Y-95555844D01*
X181594800Y-105990300D02*
X177697271Y-105990300D01*
X177697271Y-105990300D02*
X175936012Y-104229041D01*
X175936012Y-104229041D02*
X173486159Y-104229041D01*
X173486159Y-104229041D02*
X172204900Y-105510300D01*
X190125000Y-63540000D02*
X192220000Y-65635000D01*
X188430000Y-63540000D02*
X190125000Y-63540000D01*
X188430000Y-63540000D02*
X188099200Y-63540000D01*
X186193100Y-63540000D02*
X186164440Y-63511340D01*
X188430000Y-63540000D02*
X186193100Y-63540000D01*
X181767700Y-97520900D02*
X181767700Y-95637260D01*
X181767700Y-95637260D02*
X181785480Y-95619480D01*
X192220000Y-68169900D02*
X192220000Y-68175000D01*
X189090100Y-65040000D02*
X192220000Y-68169900D01*
X188430000Y-65040000D02*
X189090100Y-65040000D01*
X188430000Y-65040000D02*
X186174180Y-65040000D01*
X186174180Y-65040000D02*
X186154280Y-65020100D01*
X180497700Y-95652500D02*
X180505320Y-95644880D01*
X180497700Y-97520900D02*
X180497700Y-95652500D01*
X179227700Y-102470900D02*
X179227700Y-103375728D01*
X178317500Y-105065700D02*
X178092500Y-105065700D01*
X179240400Y-104142800D02*
X178317500Y-105065700D01*
X179240400Y-102483600D02*
X179240400Y-104142800D01*
X179227700Y-102470900D02*
X179240400Y-102483600D01*
X185590400Y-105393900D02*
X185590400Y-104993900D01*
X185590400Y-104993900D02*
X184694500Y-104098000D01*
X184694500Y-104098000D02*
X181907400Y-104098000D01*
X179272500Y-104110700D02*
X179977000Y-104110700D01*
X179240400Y-104142800D02*
X179272500Y-104110700D01*
X179824600Y-105139900D02*
X180128900Y-105139900D01*
X180128900Y-105139900D02*
X180535800Y-104733000D01*
X180535800Y-104733000D02*
X180797700Y-104471100D01*
X180797700Y-102770900D02*
X180497700Y-102470900D01*
X180797700Y-104471100D02*
X180797700Y-102770900D01*
X183792300Y-105037800D02*
X183794800Y-105040300D01*
X180840600Y-105037800D02*
X183792300Y-105037800D01*
X180535800Y-104733000D02*
X180840600Y-105037800D01*
X167680000Y-115970000D02*
X167670000Y-115980000D01*
X167680000Y-115005000D02*
X167680000Y-115970000D01*
X173257500Y-116022500D02*
X173290000Y-115990000D01*
X173257500Y-117364280D02*
X173257500Y-116022500D01*
X172257500Y-118289280D02*
X172257500Y-117364280D01*
X171357501Y-118389281D02*
X172157499Y-118389281D01*
X172157499Y-118389281D02*
X172257500Y-118289280D01*
X171257500Y-118289280D02*
X171357501Y-118389281D01*
X171257500Y-117364280D02*
X171257500Y-118289280D01*
X172232500Y-116251779D02*
X172232500Y-115065000D01*
X172257500Y-116276779D02*
X172232500Y-116251779D01*
X172257500Y-117364280D02*
X172257500Y-116276779D01*
X172232500Y-115065000D02*
X172532500Y-114765000D01*
X177957700Y-98947640D02*
X177957700Y-97520900D01*
X177959100Y-98949040D02*
X177957700Y-98947640D01*
X177959100Y-100281760D02*
X177959100Y-98949040D01*
X177884660Y-100356200D02*
X177959100Y-100281760D01*
X177629700Y-113792000D02*
X177628900Y-113792800D01*
X178330000Y-113792000D02*
X177629700Y-113792000D01*
X171651139Y-116339279D02*
X171757500Y-116445640D01*
X171757500Y-116445640D02*
X171757500Y-117364280D01*
X170757500Y-116449278D02*
X170867499Y-116339279D01*
X170757500Y-117364280D02*
X170757500Y-116449278D01*
X171120000Y-116310000D02*
X171651139Y-116339279D01*
X170867499Y-116339279D02*
X171120000Y-116310000D01*
X171782500Y-116251779D02*
X171782500Y-115065000D01*
X171782500Y-115065000D02*
X171482500Y-114765000D01*
X171757500Y-116276779D02*
X171782500Y-116251779D01*
X171757500Y-117364280D02*
X171757500Y-116276779D01*
X176687700Y-99453100D02*
X176687700Y-97520900D01*
X176844040Y-99609440D02*
X176687700Y-99453100D01*
X176834660Y-99618820D02*
X176844040Y-99609440D01*
X176834660Y-100356200D02*
X176834660Y-99618820D01*
X177632420Y-111168000D02*
X177631440Y-111168980D01*
X178330000Y-111168000D02*
X177632420Y-111168000D01*
X169920000Y-116111778D02*
X169920000Y-115020000D01*
X170207501Y-116399279D02*
X169920000Y-116111778D01*
X169920000Y-115020000D02*
X169930000Y-115010000D01*
X170207501Y-117314281D02*
X170207501Y-116399279D01*
X170257500Y-117364280D02*
X170207501Y-117314281D01*
D31*
X177805000Y-91512300D02*
X177805300Y-91512600D01*
X176052700Y-91512300D02*
X177805000Y-91512300D01*
X192220000Y-111355000D02*
X192212400Y-111355000D01*
X187480722Y-95117920D02*
X187910721Y-94687921D01*
X187160720Y-95117920D02*
X187480722Y-95117920D01*
X187909420Y-94689222D02*
X187909420Y-106968200D01*
X187910721Y-94687921D02*
X187909420Y-94689222D01*
X187909420Y-107044420D02*
X187909420Y-106968200D01*
X192220000Y-111355000D02*
X187909420Y-107044420D01*
X180150560Y-90950960D02*
X180192500Y-90992900D01*
X178366940Y-90950960D02*
X180150560Y-90950960D01*
X177805300Y-91512600D02*
X178366940Y-90950960D01*
X180490920Y-91291320D02*
X180192500Y-90992900D01*
X185577700Y-91288780D02*
X185575160Y-91291320D01*
X185851582Y-91288780D02*
X185577700Y-91288780D01*
X185575160Y-91291320D02*
X180490920Y-91291320D01*
X187910721Y-93347919D02*
X185851582Y-91288780D01*
X187910721Y-94687921D02*
X187910721Y-93347919D01*
X185930300Y-110359100D02*
X185930300Y-110359100D01*
X176354068Y-112088800D02*
X176354068Y-112088800D01*
X185930285Y-108947335D02*
X185930285Y-109793400D01*
X185530286Y-110759084D02*
X185930285Y-110359085D01*
X185269370Y-111020000D02*
X185530286Y-110759084D01*
X184100000Y-111020000D02*
X185269370Y-111020000D01*
X187909420Y-106968200D02*
X185930285Y-108947335D01*
X185930285Y-109793400D02*
X185930285Y-110359085D01*
X179280000Y-113792000D02*
X179280000Y-112952160D01*
X178840210Y-112512370D02*
X179280000Y-112952160D01*
X176546240Y-112088800D02*
X176969810Y-112512370D01*
X180981430Y-112512370D02*
X180981700Y-112512640D01*
X176969810Y-112512370D02*
X178530330Y-112512370D01*
X178530330Y-112512370D02*
X178840210Y-112512370D01*
X178530330Y-112512370D02*
X180981430Y-112512370D01*
X169057500Y-118139278D02*
X171081243Y-120163021D01*
X169057500Y-117364280D02*
X169057500Y-118139278D01*
X185330700Y-112937200D02*
X185955700Y-112937200D01*
X171081243Y-120163021D02*
X171536979Y-120163021D01*
X171536979Y-120163021D02*
X174179679Y-120163021D01*
X172881739Y-119215039D02*
X172881739Y-120163021D01*
X173957500Y-118139278D02*
X172881739Y-119215039D01*
X173957500Y-117364280D02*
X173957500Y-118139278D01*
X184700710Y-113567190D02*
X185330700Y-112937200D01*
X184700710Y-113567190D02*
X183936169Y-114331731D01*
X183106860Y-115161040D02*
X183936169Y-114331731D01*
X188755700Y-110384500D02*
X188730300Y-110359100D01*
X188755700Y-112937200D02*
X188755700Y-110384500D01*
X190384780Y-122124000D02*
X189912340Y-122124000D01*
X191157339Y-116562001D02*
X191405860Y-116810522D01*
X191157339Y-115350219D02*
X191157339Y-116562001D01*
X190092401Y-114285281D02*
X191157339Y-115350219D01*
X191405860Y-121102920D02*
X190384780Y-122124000D01*
X191405860Y-116810522D02*
X191405860Y-121102920D01*
X190092401Y-114273901D02*
X190092401Y-114285281D01*
X188755700Y-112937200D02*
X190092401Y-114273901D01*
D32*
X176328900Y-110526800D02*
X176693200Y-110526800D01*
X174729100Y-108927000D02*
X176328900Y-110526800D01*
X174703300Y-108927000D02*
X174729100Y-108927000D01*
X180994290Y-108214290D02*
X181900000Y-109120000D01*
X175416010Y-108214290D02*
X180994290Y-108214290D01*
X174703300Y-108927000D02*
X175416010Y-108214290D01*
X179227700Y-97520900D02*
X179227700Y-96999000D01*
X179227700Y-96198300D02*
X179227700Y-97520900D01*
X177297600Y-94268200D02*
X179227700Y-96198300D01*
D31*
X182130000Y-119788760D02*
X182121400Y-119797360D01*
X176501240Y-115182180D02*
X182125140Y-115182180D01*
X182130000Y-115177320D02*
X182130000Y-119788760D01*
X182130000Y-111975000D02*
X182130000Y-115177320D01*
X181900000Y-111745000D02*
X182130000Y-111975000D01*
X181900000Y-111020000D02*
X181900000Y-111745000D01*
D32*
X172252860Y-89783560D02*
X172293500Y-89824200D01*
X172252860Y-87676900D02*
X172252860Y-89783560D01*
X174703300Y-112063100D02*
X174729000Y-112088800D01*
X174703300Y-110577000D02*
X174703300Y-112063100D01*
X181665600Y-93346680D02*
X181665600Y-94268200D01*
X182587081Y-92425199D02*
X181665600Y-93346680D01*
X185784479Y-92425199D02*
X182587081Y-92425199D01*
X187160720Y-93801440D02*
X185784479Y-92425199D01*
X187160720Y-94017920D02*
X187160720Y-93801440D01*
X175892500Y-106515700D02*
X175892500Y-106015700D01*
X175846100Y-106562100D02*
X175892500Y-106515700D01*
X174071500Y-106562100D02*
X175846100Y-106562100D01*
X170930000Y-60540000D02*
X172527644Y-60540000D01*
X172527644Y-60540000D02*
X172651644Y-60664000D01*
X173451270Y-106562100D02*
X172418613Y-107594757D01*
X174071500Y-106562100D02*
X173451270Y-106562100D01*
X172118600Y-108094742D02*
X172018614Y-107994756D01*
X172418613Y-107594757D02*
X172018614Y-107994756D01*
X172118600Y-110194000D02*
X172118600Y-108094742D01*
X186647040Y-104171140D02*
X186052700Y-103576800D01*
X186052700Y-103576800D02*
X185577700Y-103576800D01*
X177120710Y-107743910D02*
X186123810Y-107743910D01*
X175892500Y-106515700D02*
X177120710Y-107743910D01*
X186647040Y-107220680D02*
X186647040Y-104171140D01*
X186123810Y-107743910D02*
X186647040Y-107220680D01*
X188430000Y-78540000D02*
X186118202Y-78540000D01*
X186118202Y-78540000D02*
X186103482Y-78525280D01*
X185330720Y-95667920D02*
X185330720Y-95117920D01*
X185330720Y-96131225D02*
X185330720Y-95667920D01*
X185672415Y-96472920D02*
X185330720Y-96131225D01*
X186238100Y-96472920D02*
X185672415Y-96472920D01*
X175930000Y-81740000D02*
X175930000Y-80790000D01*
X174712420Y-82957580D02*
X175930000Y-81740000D01*
X171907420Y-82957580D02*
X174712420Y-82957580D01*
X171203840Y-83661160D02*
X171907420Y-82957580D01*
X171203840Y-94773660D02*
X171203840Y-83661160D01*
X169061311Y-96916189D02*
X171203840Y-94773660D01*
X169061311Y-99563689D02*
X169061311Y-96916189D01*
X167430000Y-101195000D02*
X169061311Y-99563689D01*
X167430000Y-98655000D02*
X168661300Y-97423700D01*
X168661300Y-97423700D02*
X168661300Y-95982700D01*
X171785500Y-82254000D02*
X173916000Y-82254000D01*
X168661300Y-95982700D02*
X170726320Y-93917680D01*
X170726320Y-93917680D02*
X170726320Y-83313180D01*
X170726320Y-83313180D02*
X171785500Y-82254000D01*
X173916000Y-82254000D02*
X174430000Y-81740000D01*
X174430000Y-81740000D02*
X174430000Y-80790000D01*
X168279999Y-95265001D02*
X167430000Y-96115000D01*
X170269120Y-93275880D02*
X168279999Y-95265001D01*
X170269120Y-82800880D02*
X170269120Y-93275880D01*
X172280000Y-80790000D02*
X170269120Y-82800880D01*
X172930000Y-80790000D02*
X172280000Y-80790000D01*
X169791600Y-91213400D02*
X167430000Y-93575000D01*
X169791600Y-81178400D02*
X169791600Y-91213400D01*
X170930000Y-80040000D02*
X169791600Y-81178400D01*
X169980000Y-78540000D02*
X170930000Y-78540000D01*
X167430000Y-91035000D02*
X169302689Y-89162311D01*
X169302689Y-89162311D02*
X169302689Y-79217311D01*
X169302689Y-79217311D02*
X169980000Y-78540000D01*
X170930000Y-77040000D02*
X172577360Y-77040000D01*
X172577360Y-77040000D02*
X172577980Y-77039380D01*
X170930000Y-75540000D02*
X172576220Y-75540000D01*
X172576220Y-75540000D02*
X172588140Y-75528080D01*
X170930000Y-74040000D02*
X172570720Y-74040000D01*
X172570720Y-74040000D02*
X172593220Y-74062500D01*
X168851800Y-79453200D02*
X167430000Y-80875000D01*
X169780031Y-77388769D02*
X168851800Y-78317000D01*
X168851800Y-78317000D02*
X168851800Y-79453200D01*
X169780031Y-72739969D02*
X169780031Y-77388769D01*
X169980000Y-72540000D02*
X169780031Y-72739969D01*
X170930000Y-72540000D02*
X169980000Y-72540000D01*
X174700390Y-74439930D02*
X174700390Y-75525540D01*
X172800460Y-72540000D02*
X174700390Y-74439930D01*
X170930000Y-72540000D02*
X172800460Y-72540000D01*
X174949550Y-115182180D02*
X176501240Y-113630490D01*
X174926240Y-115182180D02*
X174949550Y-115182180D01*
X173463300Y-114374460D02*
X173463300Y-111054680D01*
X174271020Y-115182180D02*
X173463300Y-114374460D01*
X174926240Y-115182180D02*
X174271020Y-115182180D01*
X173463300Y-111054680D02*
X173463300Y-111054680D01*
X168279999Y-77485001D02*
X167430000Y-78335000D01*
X169380021Y-71639979D02*
X169380021Y-76384979D01*
X169980000Y-71040000D02*
X169380021Y-71639979D01*
X169380021Y-76384979D02*
X168279999Y-77485001D01*
X170930000Y-71040000D02*
X169980000Y-71040000D01*
X168980011Y-74244989D02*
X168279999Y-74945001D01*
X168980011Y-70149689D02*
X168980011Y-74244989D01*
X168279999Y-74945001D02*
X167430000Y-75795000D01*
X169589700Y-69540000D02*
X168980011Y-70149689D01*
X170930000Y-69540000D02*
X169589700Y-69540000D01*
X168279999Y-72405001D02*
X167430000Y-73255000D01*
X168580001Y-69749599D02*
X168580001Y-72104999D01*
X168580001Y-72104999D02*
X168279999Y-72405001D01*
X170289600Y-68040000D02*
X168580001Y-69749599D01*
X170930000Y-68040000D02*
X170289600Y-68040000D01*
X167430000Y-70137600D02*
X167430000Y-70715000D01*
X169980000Y-66540000D02*
X168978800Y-67541200D01*
X168978800Y-68588800D02*
X167430000Y-70137600D01*
X168978800Y-67541200D02*
X168978800Y-68588800D01*
X170930000Y-66540000D02*
X169980000Y-66540000D01*
X167430000Y-67590000D02*
X167430000Y-68175000D01*
X169980000Y-65040000D02*
X167430000Y-67590000D01*
X170930000Y-65040000D02*
X169980000Y-65040000D01*
X169525000Y-63540000D02*
X167430000Y-65635000D01*
X170930000Y-63540000D02*
X169525000Y-63540000D01*
X168485000Y-62040000D02*
X167430000Y-63095000D01*
X170930000Y-62040000D02*
X168485000Y-62040000D01*
X191370001Y-107965001D02*
X192220000Y-108815000D01*
X188536800Y-105131800D02*
X191370001Y-107965001D01*
X188536800Y-86493260D02*
X188536800Y-105131800D01*
X187317220Y-85273680D02*
X188536800Y-86493260D01*
X178696460Y-85273680D02*
X187317220Y-85273680D01*
X177430000Y-84007220D02*
X178696460Y-85273680D01*
X177430000Y-80790000D02*
X177430000Y-84007220D01*
X189946500Y-84687320D02*
X188412340Y-83153160D01*
X188412340Y-83153160D02*
X184289920Y-83153160D01*
X184289920Y-83153160D02*
X183430000Y-82293240D01*
X183430000Y-82293240D02*
X183430000Y-80790000D01*
X189946500Y-98921500D02*
X189946500Y-84687320D01*
X192220000Y-101195000D02*
X189946500Y-98921500D01*
X184930000Y-82193040D02*
X184930000Y-80790000D01*
X188813660Y-82548640D02*
X185285600Y-82548640D01*
X190365600Y-84100580D02*
X188813660Y-82548640D01*
X190365600Y-94260600D02*
X190365600Y-84100580D01*
X185285600Y-82548640D02*
X184930000Y-82193040D01*
X192220000Y-96115000D02*
X190365600Y-94260600D01*
X191370001Y-92725001D02*
X192220000Y-93575000D01*
X190797400Y-92152400D02*
X191370001Y-92725001D01*
X190797400Y-82407400D02*
X190797400Y-92152400D01*
X188430000Y-80040000D02*
X190797400Y-82407400D01*
X186116800Y-77040000D02*
X186106020Y-77029220D01*
X188430000Y-77040000D02*
X186116800Y-77040000D01*
X188430000Y-75540000D02*
X186156040Y-75540000D01*
X186156040Y-75540000D02*
X186103480Y-75487440D01*
X188430000Y-74040000D02*
X186136860Y-74040000D01*
X186136860Y-74040000D02*
X186133960Y-74037100D01*
X191370001Y-80025001D02*
X192220000Y-80875000D01*
X189380000Y-72540000D02*
X189692578Y-72852578D01*
X189692578Y-78347578D02*
X191370001Y-80025001D01*
X189692578Y-72852578D02*
X189692578Y-78347578D01*
X188430000Y-72540000D02*
X189380000Y-72540000D01*
X191370001Y-77485001D02*
X192220000Y-78335000D01*
X190092589Y-76207589D02*
X191370001Y-77485001D01*
X190092589Y-71752589D02*
X190092589Y-76207589D01*
X189380000Y-71040000D02*
X190092589Y-71752589D01*
X188430000Y-71040000D02*
X189380000Y-71040000D01*
X191370001Y-74945001D02*
X192220000Y-75795000D01*
X190492600Y-74067600D02*
X191370001Y-74945001D01*
X190492600Y-70652600D02*
X190492600Y-74067600D01*
X188430000Y-69540000D02*
X189380000Y-69540000D01*
X189380000Y-69540000D02*
X190492600Y-70652600D01*
X191370001Y-72405001D02*
X192220000Y-73255000D01*
X190937100Y-71972100D02*
X191370001Y-72405001D01*
X188730000Y-68040000D02*
X190937100Y-70247100D01*
X190937100Y-70247100D02*
X190937100Y-71972100D01*
X188430000Y-68040000D02*
X188730000Y-68040000D01*
X190873600Y-69368600D02*
X192220000Y-70715000D01*
X190873600Y-68131600D02*
X190873600Y-69368600D01*
X189282000Y-66540000D02*
X190873600Y-68131600D01*
X188430000Y-66540000D02*
X189282000Y-66540000D01*
X191165000Y-62040000D02*
X192220000Y-63095000D01*
X188430000Y-62040000D02*
X191165000Y-62040000D01*
X192205000Y-60540000D02*
X192220000Y-60555000D01*
X188430000Y-60540000D02*
X192205000Y-60540000D01*
X183898400Y-107043900D02*
X183794800Y-106940300D01*
X185590400Y-107043900D02*
X183898400Y-107043900D01*
X178268300Y-106789900D02*
X178092500Y-106965700D01*
X179824600Y-106789900D02*
X178268300Y-106789900D01*
X178930000Y-83576320D02*
X178941180Y-83587500D01*
X178930000Y-80790000D02*
X178930000Y-83576320D01*
X180107500Y-109000000D02*
X180210487Y-109000000D01*
X180210487Y-109000000D02*
X180783888Y-109573401D01*
X183591080Y-109120000D02*
X183039100Y-108568020D01*
X184100000Y-109120000D02*
X183591080Y-109120000D01*
X189044720Y-103099720D02*
X192220000Y-106275000D01*
X189044720Y-85592940D02*
X189044720Y-103099720D01*
X181520685Y-82993964D02*
X182349140Y-83822420D01*
X181503177Y-82980002D02*
X181520685Y-82993964D01*
X180926339Y-82629215D02*
X180926339Y-82651608D01*
X181416946Y-82970286D02*
X181438778Y-82965303D01*
X181396771Y-82980002D02*
X181416946Y-82970286D01*
X181483002Y-82970286D02*
X181503177Y-82980002D01*
X182735080Y-84208360D02*
X187660140Y-84208360D01*
X180978677Y-82532018D02*
X180968961Y-82552193D01*
X180941038Y-82693614D02*
X180955000Y-82711122D01*
X180978677Y-82465962D02*
X180983660Y-82487794D01*
X180955000Y-81615000D02*
X180955000Y-82428280D01*
X180955000Y-82428280D02*
X180968961Y-82445787D01*
X181319749Y-83022625D02*
X181341581Y-83017642D01*
X181255350Y-83007926D02*
X181275525Y-83017642D01*
X180983660Y-82510187D02*
X180978677Y-82532018D01*
X180968961Y-82445787D02*
X180978677Y-82465962D01*
X180430000Y-81090000D02*
X180955000Y-81615000D01*
X187660140Y-84208360D02*
X189044720Y-85592940D01*
X180430000Y-80790000D02*
X180430000Y-81090000D01*
X180983660Y-82487794D02*
X180983660Y-82510187D01*
X180926339Y-82651608D02*
X180931322Y-82673439D01*
X180968961Y-82552193D02*
X180941038Y-82587208D01*
X180955000Y-82711122D02*
X181237842Y-82993964D01*
X181237842Y-82993964D02*
X181255350Y-83007926D01*
X182349140Y-83822420D02*
X182735080Y-84208360D01*
X180931322Y-82607383D02*
X180926339Y-82629215D01*
X181275525Y-83017642D02*
X181297356Y-83022625D01*
X180931322Y-82673439D02*
X180941038Y-82693614D01*
X181297356Y-83022625D02*
X181319749Y-83022625D01*
X180941038Y-82587208D02*
X180931322Y-82607383D01*
X181341581Y-83017642D02*
X181361756Y-83007926D01*
X181361756Y-83007926D02*
X181396771Y-82980002D01*
X181438778Y-82965303D02*
X181461171Y-82965303D01*
X181461171Y-82965303D02*
X181483002Y-82970286D01*
X180930100Y-113792000D02*
X180930900Y-113792800D01*
X180230000Y-113792000D02*
X180930100Y-113792000D01*
X181930000Y-81090000D02*
X181930000Y-80790000D01*
X181405000Y-81615000D02*
X181930000Y-81090000D01*
X181405000Y-82241880D02*
X181405000Y-81615000D01*
X182921480Y-83758360D02*
X181405000Y-82241880D01*
X187846540Y-83758360D02*
X182921480Y-83758360D01*
X189494720Y-85406540D02*
X187846540Y-83758360D01*
X189494720Y-100513323D02*
X189494720Y-85406540D01*
X189502241Y-100580079D02*
X189494720Y-100513323D01*
X189560170Y-100700369D02*
X189524429Y-100643488D01*
X189524429Y-100643488D02*
X189502241Y-100580079D01*
X189607673Y-101947872D02*
X189560170Y-101900369D01*
X190048814Y-101383613D02*
X190105695Y-101347872D01*
X189664554Y-101983613D02*
X189607673Y-101947872D01*
X189918649Y-102013323D02*
X189794720Y-102013323D01*
X189727963Y-100805801D02*
X189664554Y-100783613D01*
X190188939Y-102183157D02*
X190153198Y-102126276D01*
X189985405Y-102020844D02*
X189918649Y-102013323D01*
X190211127Y-102246566D02*
X190188939Y-102183157D01*
X190105695Y-102078773D02*
X190048814Y-102043032D01*
X192220000Y-103735000D02*
X190316397Y-103735000D01*
X190211127Y-102380079D02*
X190218649Y-102313323D01*
X189494720Y-102913323D02*
X189502241Y-102846566D01*
X189607673Y-101478773D02*
X189664554Y-101443032D01*
X189502241Y-102846566D02*
X189524429Y-102783157D01*
X190105695Y-100878773D02*
X190048814Y-100843032D01*
X189727963Y-102005801D02*
X189664554Y-101983613D01*
X190048814Y-102043032D02*
X189985405Y-102020844D01*
X190188939Y-102443488D02*
X190211127Y-102380079D01*
X190105695Y-101347872D02*
X190153198Y-101300369D01*
X190153198Y-102500369D02*
X190188939Y-102443488D01*
X189524429Y-101583157D02*
X189560170Y-101526276D01*
X189918649Y-102613323D02*
X189985405Y-102605801D01*
X189794720Y-102013323D02*
X189727963Y-102005801D01*
X190048814Y-102583613D02*
X190105695Y-102547872D01*
X189560170Y-102726276D02*
X189607673Y-102678773D01*
X189727963Y-102620844D02*
X189794720Y-102613323D01*
X189918649Y-101413323D02*
X189985405Y-101405801D01*
X190211127Y-101046566D02*
X190188939Y-100983157D01*
X190153198Y-100926276D02*
X190105695Y-100878773D01*
X190316397Y-103735000D02*
X189494720Y-102913323D01*
X190153198Y-102126276D02*
X190105695Y-102078773D01*
X190218649Y-102313323D02*
X190211127Y-102246566D01*
X189985405Y-102605801D02*
X190048814Y-102583613D01*
X189560170Y-101900369D02*
X189524429Y-101843488D01*
X189502241Y-101780079D02*
X189494720Y-101713323D01*
X189524429Y-102783157D02*
X189560170Y-102726276D01*
X189494720Y-101713323D02*
X189502241Y-101646566D01*
X189664554Y-102643032D02*
X189727963Y-102620844D01*
X189524429Y-101843488D02*
X189502241Y-101780079D01*
X189664554Y-100783613D02*
X189607673Y-100747872D01*
X189502241Y-101646566D02*
X189524429Y-101583157D01*
X190211127Y-101180079D02*
X190218649Y-101113323D01*
X189560170Y-101526276D02*
X189607673Y-101478773D01*
X189664554Y-101443032D02*
X189727963Y-101420844D01*
X189727963Y-101420844D02*
X189794720Y-101413323D01*
X189794720Y-101413323D02*
X189918649Y-101413323D01*
X189985405Y-101405801D02*
X190048814Y-101383613D01*
X189794720Y-102613323D02*
X189918649Y-102613323D01*
X190188939Y-101243488D02*
X190211127Y-101180079D01*
X190218649Y-101113323D02*
X190211127Y-101046566D01*
X190188939Y-100983157D02*
X190153198Y-100926276D01*
X189607673Y-102678773D02*
X189664554Y-102643032D01*
X190048814Y-100843032D02*
X189985405Y-100820844D01*
X189918649Y-100813323D02*
X189794720Y-100813323D01*
X190153198Y-101300369D02*
X190188939Y-101243488D01*
X189607673Y-100747872D02*
X189560170Y-100700369D01*
X190105695Y-102547872D02*
X190153198Y-102500369D01*
X189985405Y-100820844D02*
X189918649Y-100813323D01*
X189794720Y-100813323D02*
X189727963Y-100805801D01*
X180230000Y-111165018D02*
X180774659Y-110620359D01*
X180230000Y-111168000D02*
X180230000Y-111165018D01*
D33*
X181017260Y-68022000D02*
X175960120Y-68022000D01*
X175960120Y-62972480D01*
X181017260Y-62972480D01*
X181017260Y-68022000D01*
%TA.AperFunction,Conductor*%
D34*
G36*
X181017260Y-68022000D02*
G01*
X175960120Y-68022000D01*
X175960120Y-62972480D01*
X181017260Y-62972480D01*
X181017260Y-68022000D01*
G37*
%TD.AperFunction*%
M02*
