M48
METRIC,TZ
T1C0.400
T2C0.650
T3C0.920
T4C1.000
T5C1.500
%
G90
G05
T1
X167670Y-115980
X167710Y-112390
X169280Y-105510
X169383Y-100379
X169393Y-102648
X169431Y-110161
X169950Y-112380
X171483Y-114765
X171537Y-120163
X172019Y-107995
X172220Y-95528
X172281Y-83854
X172357Y-93379
X172533Y-114765
X172578Y-77039
X172588Y-75528
X172593Y-74063
X172649Y-57553
X172652Y-60664
X172882Y-120163
X173290Y-115990
X173463Y-111055
X174163Y-113630
X174180Y-120163
X174700Y-75526
X175640Y-104929
X175740Y-95553
X176093Y-88701
X176142Y-83854
X176235Y-63246
X176235Y-64746
X176235Y-66246
X176235Y-67746
X176339Y-108949
X176835Y-100356
X177440Y-109000
X177629Y-113793
X177631Y-111169
X177735Y-63246
X177735Y-64746
X177735Y-66246
X177735Y-67746
X177818Y-88744
X177885Y-100356
X178096Y-109996
X178580Y-94319
X179235Y-63246
X179235Y-64746
X179235Y-66246
X179235Y-67746
X179830Y-82351
X179977Y-104111
X180105Y-121974
X180121Y-116340
X180123Y-121022
X180193Y-86393
X180193Y-88693
X180505Y-95645
X180735Y-63246
X180735Y-64746
X180735Y-66246
X180735Y-67746
X180775Y-110620
X180784Y-109573
X180931Y-113793
X180982Y-112513
X181785Y-95619
X181907Y-104098
X183039Y-108568
X183107Y-115161
X183138Y-110070
X183936Y-114332
X184442Y-93125
X184701Y-113567
X185930Y-110359
X186103Y-75487
X186103Y-78525
X186106Y-77029
X186121Y-59021
X186134Y-74037
X186154Y-65020
X186164Y-63511
X186238Y-96473
X186505Y-87700
X186505Y-89640
X186763Y-98505
X186860Y-99971
X186873Y-101939
X187953Y-81426
T3
X189912Y-116124
X189912Y-118124
X189912Y-120124
X189912Y-122124
T4
X167430Y-58015
X167430Y-60555
X167430Y-63095
X167430Y-65635
X167430Y-68175
X167430Y-70715
X167430Y-73255
X167430Y-75795
X167430Y-78335
X167430Y-80875
X167430Y-83415
X167430Y-85955
X167430Y-88495
X167430Y-91035
X167430Y-93575
X167430Y-96115
X167430Y-98655
X167430Y-101195
X192220Y-58015
X192220Y-60555
X192220Y-63095
X192220Y-65635
X192220Y-68175
X192220Y-70715
X192220Y-73255
X192220Y-75795
X192220Y-78335
X192220Y-80875
X192220Y-83415
X192220Y-85955
X192220Y-88495
X192220Y-91035
X192220Y-93575
X192220Y-96115
X192220Y-98655
X192220Y-101195
X192220Y-103735
X192220Y-106275
X192220Y-108815
X192220Y-111355
T5
X187192Y-115854
X187192Y-122854
X192632Y-115854
X192632Y-122854
T2
G00X167188Y-117729
M15
G01X167188Y-118829
M16
G05
G00X167188Y-122159
M15
G01X167188Y-122759
M16
G05
G00X175828Y-117729
M15
G01X175828Y-118829
M16
G05
G00X175828Y-122159
M15
G01X175828Y-122759
M16
G05
T0
M30
