%TF.GenerationSoftware,KiCad,Pcbnew,5.1.5+dfsg1-2build2*%
%TF.CreationDate,2021-07-16T13:05:09+05:30*%
%TF.ProjectId,USBee32-S2,55534265-6533-4322-9d53-322e6b696361,rev?*%
%TF.SameCoordinates,Original*%
%TF.FileFunction,Copper,L4,Bot*%
%TF.FilePolarity,Positive*%
%FSLAX46Y46*%
G04 Gerber Fmt 4.6, Leading zero omitted, Abs format (unit mm)*
G04 Created by KiCad (PCBNEW 5.1.5+dfsg1-2build2) date 2021-07-16 13:05:09*
%MOMM*%
%LPD*%
G04 APERTURE LIST*
%ADD10C,2.150000*%
%ADD11R,1.600000X1.600000*%
%ADD12C,1.600000*%
%ADD13O,1.700000X1.700000*%
%ADD14R,1.700000X1.700000*%
%ADD15O,1.050000X2.100000*%
%ADD16C,0.800000*%
%ADD17C,0.200000*%
%ADD18C,0.400000*%
G04 APERTURE END LIST*
D10*
X186780000Y-123430000D03*
X186780000Y-116430000D03*
X192220000Y-116430000D03*
X192220000Y-123430000D03*
D11*
X189500000Y-122700000D03*
D12*
X189500000Y-120700000D03*
X189500000Y-118700000D03*
X189500000Y-116700000D03*
D13*
X192220000Y-111355000D03*
X192220000Y-108815000D03*
X192220000Y-106275000D03*
X192220000Y-103735000D03*
X192220000Y-101195000D03*
X192220000Y-98655000D03*
X192220000Y-96115000D03*
X192220000Y-93575000D03*
X192220000Y-91035000D03*
X192220000Y-88495000D03*
X192220000Y-85955000D03*
X192220000Y-83415000D03*
X192220000Y-80875000D03*
X192220000Y-78335000D03*
X192220000Y-75795000D03*
X192220000Y-73255000D03*
X192220000Y-70715000D03*
X192220000Y-68175000D03*
X192220000Y-65635000D03*
X192220000Y-63095000D03*
X192220000Y-60555000D03*
D14*
X192220000Y-58015000D03*
D15*
X182213980Y-122308620D03*
X173573980Y-122308620D03*
X182213980Y-118128620D03*
X173573980Y-118128620D03*
D13*
X167430000Y-101195000D03*
X167430000Y-98655000D03*
X167430000Y-96115000D03*
X167430000Y-93575000D03*
X167430000Y-91035000D03*
X167430000Y-88495000D03*
X167430000Y-85955000D03*
X167430000Y-83415000D03*
X167430000Y-80875000D03*
X167430000Y-78335000D03*
X167430000Y-75795000D03*
X167430000Y-73255000D03*
X167430000Y-70715000D03*
X167430000Y-68175000D03*
X167430000Y-65635000D03*
X167430000Y-63095000D03*
X167430000Y-60555000D03*
D14*
X167430000Y-58015000D03*
D16*
X169968340Y-107150520D03*
X173168340Y-107250520D03*
X176234700Y-63246300D03*
X177734700Y-63246300D03*
X179234700Y-63246300D03*
X180734700Y-63246300D03*
X176234700Y-64746300D03*
X177734700Y-64746300D03*
X179234700Y-64746300D03*
X180734700Y-64746300D03*
X176234700Y-66246300D03*
X177734700Y-66246300D03*
X179234700Y-66246300D03*
X180734700Y-66246300D03*
X176234700Y-67746300D03*
X177734700Y-67746300D03*
X179234700Y-67746300D03*
X180734700Y-67746300D03*
X172649100Y-57552500D03*
X177818000Y-88743700D03*
X187952600Y-81425960D03*
X184442320Y-93125200D03*
X180192500Y-86392900D03*
X176141600Y-83854200D03*
X172357000Y-93379200D03*
X168550000Y-118090000D03*
X168350000Y-121990000D03*
X182500000Y-114200000D03*
X173629320Y-115793520D03*
X173275000Y-114225000D03*
X174200000Y-112200000D03*
X183200000Y-99000000D03*
X182700000Y-111100000D03*
X166900000Y-113600000D03*
X166900000Y-115400000D03*
X179100000Y-92700000D03*
X180900000Y-92700000D03*
X173900000Y-100200000D03*
X177500000Y-104200000D03*
X176649380Y-107561380D03*
X180164740Y-104775000D03*
X182443120Y-116060220D03*
X186504800Y-89640320D03*
X186504800Y-87699760D03*
X179829680Y-82350520D03*
X180192500Y-88692900D03*
X176093340Y-88700520D03*
X172280800Y-83854200D03*
X183800000Y-104800000D03*
X175700000Y-92700000D03*
X177400000Y-92700000D03*
X170300000Y-97100000D03*
X186121260Y-59020620D03*
X171800000Y-114400000D03*
X173963445Y-94433805D03*
X186164440Y-63511340D03*
X181925000Y-97300000D03*
X186154280Y-65020100D03*
X180655000Y-97300000D03*
X185725000Y-101300000D03*
X185634998Y-99900000D03*
X178918980Y-113925720D03*
X178506512Y-99076668D03*
X177868980Y-113925720D03*
X177764048Y-99819132D03*
X176500000Y-109700000D03*
X184900000Y-110900000D03*
X187100000Y-96300000D03*
X187100000Y-108200000D03*
X181300000Y-111200000D03*
X183800000Y-108100000D03*
X186796680Y-109397800D03*
X173050000Y-61200000D03*
X170800000Y-114600000D03*
X171200000Y-98200000D03*
X180243480Y-99951540D03*
X184439560Y-101310440D03*
X186103482Y-78525280D03*
X172577980Y-77039380D03*
X172588140Y-75528080D03*
X172593220Y-74062500D03*
X174700390Y-75525540D03*
X173600000Y-105100000D03*
X188762640Y-96624140D03*
X186106020Y-77029220D03*
X186103480Y-75487440D03*
X186133960Y-74037100D03*
X187756408Y-84986252D03*
X189384548Y-108813208D03*
X183675020Y-112410240D03*
X188498872Y-84243788D03*
X190127012Y-109555672D03*
X185295540Y-115252500D03*
D17*
X176215260Y-59020620D02*
X186121260Y-59020620D01*
X173964820Y-61271060D02*
X176215260Y-59020620D01*
X173964820Y-94435180D02*
X173964820Y-61271060D01*
X172600000Y-95800000D02*
X173964820Y-94435180D01*
X172600000Y-98200000D02*
X172600000Y-95800000D01*
X171800000Y-99000000D02*
X172600000Y-98200000D01*
X171800000Y-114500000D02*
X171800000Y-99000000D01*
X183233088Y-66442692D02*
X186164440Y-63511340D01*
X183233088Y-95991912D02*
X181925000Y-97300000D01*
X183233088Y-95033088D02*
X183233088Y-95991912D01*
X183233088Y-95033088D02*
X183233088Y-66442692D01*
X183233088Y-95286932D02*
X183233088Y-95033088D01*
X186154280Y-65020100D02*
X183633099Y-67541281D01*
X181455000Y-98100000D02*
X180655000Y-97300000D01*
X183633099Y-67541281D02*
X183633099Y-96766901D01*
X182300000Y-98100000D02*
X181455000Y-98100000D01*
X183633099Y-96766901D02*
X182300000Y-98100000D01*
X185725000Y-101300000D02*
X185725000Y-99990002D01*
X185725000Y-99990002D02*
X185634998Y-99900000D01*
X178618980Y-113625720D02*
X178618980Y-105887120D01*
X178918980Y-113925720D02*
X178618980Y-113625720D01*
X178618980Y-105887120D02*
X179193400Y-105312700D01*
X178506512Y-99500933D02*
X178506512Y-99076668D01*
X179193400Y-100187821D02*
X178506512Y-99500933D01*
X179193400Y-105312700D02*
X179193400Y-100187821D01*
X178168980Y-113625720D02*
X178168980Y-105700720D01*
X177868980Y-113925720D02*
X178168980Y-113625720D01*
X178168980Y-105700720D02*
X178743400Y-105126300D01*
X178743400Y-100374219D02*
X178188313Y-99819132D01*
X178743400Y-105126300D02*
X178743400Y-100374219D01*
X178188313Y-99819132D02*
X177764048Y-99819132D01*
D18*
X187100000Y-108000000D02*
X187100000Y-108200000D01*
X187000000Y-108100000D02*
X187100000Y-108200000D01*
X187100000Y-106900000D02*
X186900000Y-106900000D01*
X187100000Y-106900000D02*
X187100000Y-108000000D01*
X187100000Y-96300000D02*
X187100000Y-106900000D01*
X185700000Y-108100000D02*
X183800000Y-108100000D01*
X186900000Y-106900000D02*
X185700000Y-108100000D01*
X186794480Y-109400000D02*
X186796680Y-109397800D01*
D17*
X172400000Y-95086442D02*
X172400000Y-95100000D01*
X173293221Y-94193221D02*
X172443221Y-95043221D01*
X172443221Y-95043221D02*
X172400000Y-95086442D01*
X171700000Y-95786442D02*
X171893221Y-95593221D01*
X171700000Y-96800000D02*
X171700000Y-95786442D01*
X171893221Y-95593221D02*
X172443221Y-95043221D01*
X173293221Y-61443221D02*
X173050000Y-61200000D01*
X173293221Y-69906779D02*
X173293221Y-61443221D01*
X173293221Y-69906779D02*
X173293221Y-94193221D01*
X173293221Y-69793221D02*
X173293221Y-69906779D01*
X171200000Y-97300000D02*
X171700000Y-96800000D01*
X170800000Y-114600000D02*
X170800000Y-112600000D01*
X170800000Y-112600000D02*
X171200000Y-112200000D01*
X171200000Y-112200000D02*
X171200000Y-98200000D01*
X171200000Y-98200000D02*
X171200000Y-97300000D01*
X180243480Y-99951540D02*
X183080660Y-99951540D01*
X183080660Y-99951540D02*
X184439560Y-101310440D01*
X189397860Y-79507860D02*
X188415280Y-78525280D01*
X188415280Y-78525280D02*
X186103482Y-78525280D01*
X189397860Y-88212860D02*
X189397860Y-79507860D01*
X192220000Y-91035000D02*
X189397860Y-88212860D01*
X172577360Y-77040000D02*
X172577980Y-77039380D01*
X170502800Y-77467200D02*
X170930000Y-77040000D01*
X170502800Y-85422200D02*
X170502800Y-77467200D01*
X170930000Y-77040000D02*
X172577360Y-77040000D01*
X167430000Y-88495000D02*
X170502800Y-85422200D01*
X169804300Y-76665700D02*
X170941920Y-75528080D01*
X169804300Y-83580700D02*
X169804300Y-76665700D01*
X170941920Y-75528080D02*
X172588140Y-75528080D01*
X167430000Y-85955000D02*
X169804300Y-83580700D01*
X169220100Y-81624900D02*
X169220100Y-75101360D01*
X167430000Y-83415000D02*
X169220100Y-81624900D01*
X169220100Y-75101360D02*
X170258960Y-74062500D01*
X170258960Y-74062500D02*
X172593220Y-74062500D01*
X174700390Y-94686810D02*
X173463300Y-95923900D01*
X174700390Y-75525540D02*
X174700390Y-94686810D01*
X173463300Y-95923900D02*
X173463300Y-95963300D01*
X173463300Y-95963300D02*
X173400000Y-96026600D01*
X173400000Y-96026600D02*
X173373400Y-96026600D01*
X173000010Y-101299990D02*
X173000000Y-101300000D01*
X173000010Y-96399990D02*
X173000010Y-101299990D01*
X173373400Y-96026600D02*
X173000010Y-96399990D01*
X173000010Y-104500010D02*
X173600000Y-105100000D01*
X173000010Y-101299990D02*
X173000010Y-104500010D01*
X191005000Y-107600000D02*
X192220000Y-108815000D01*
X188600000Y-107600000D02*
X191005000Y-107600000D01*
X187600010Y-106600010D02*
X188600000Y-107600000D01*
X187600010Y-97786770D02*
X187600010Y-106600010D01*
X188762640Y-96624140D02*
X187600010Y-97786770D01*
X186116800Y-77040000D02*
X186106020Y-77029220D01*
X188875240Y-77040000D02*
X186116800Y-77040000D01*
X189984600Y-78149360D02*
X188875240Y-77040000D01*
X189984600Y-86259600D02*
X189984600Y-78149360D01*
X192220000Y-88495000D02*
X189984600Y-86259600D01*
X190524389Y-76799389D02*
X189212440Y-75487440D01*
X189212440Y-75487440D02*
X186669165Y-75487440D01*
X192220000Y-85955000D02*
X190524389Y-84259389D01*
X190524389Y-84259389D02*
X190524389Y-76799389D01*
X186669165Y-75487440D02*
X186103480Y-75487440D01*
X190924400Y-76056400D02*
X188905100Y-74037100D01*
X188905100Y-74037100D02*
X186699645Y-74037100D01*
X192220000Y-83415000D02*
X190924400Y-82119400D01*
X190924400Y-82119400D02*
X190924400Y-76056400D01*
X186699645Y-74037100D02*
X186133960Y-74037100D01*
X192195000Y-106300000D02*
X192220000Y-106275000D01*
X188900000Y-120900000D02*
X189000000Y-120900000D01*
X188900000Y-120810000D02*
X188900000Y-120900000D01*
X188900000Y-120900000D02*
X189400000Y-120900000D01*
X188048872Y-85278716D02*
X187756408Y-84986252D01*
X188048872Y-89901432D02*
X188048872Y-85278716D01*
X189749220Y-91601780D02*
X188048872Y-89901432D01*
X189749220Y-103804220D02*
X189749220Y-91601780D01*
X192220000Y-106275000D02*
X189749220Y-103804220D01*
X186149619Y-112472402D02*
X189384548Y-109237473D01*
X185991035Y-112620352D02*
X186043555Y-112578467D01*
X185930509Y-112649500D02*
X185991035Y-112620352D01*
X185865014Y-112664449D02*
X185930509Y-112649500D01*
X185797836Y-112664449D02*
X185865014Y-112664449D01*
X185732341Y-112649500D02*
X185797836Y-112664449D01*
X185671815Y-112620352D02*
X185732341Y-112649500D01*
X184770765Y-113426995D02*
X184823288Y-113468879D01*
X185266060Y-113115779D02*
X185236912Y-113055254D01*
X184535935Y-113192165D02*
X184770765Y-113426995D01*
X188725000Y-119925000D02*
X185910960Y-119925000D01*
X184422887Y-113121132D02*
X184483412Y-113150280D01*
X184224719Y-113121133D02*
X184290214Y-113106183D01*
X184388385Y-113903781D02*
X184346500Y-113851257D01*
X184432482Y-114096979D02*
X184432481Y-114029801D01*
X185910960Y-119925000D02*
X184107880Y-118121920D01*
X184025688Y-113370708D02*
X184040637Y-113305213D01*
X184069785Y-113244687D02*
X184111671Y-113192164D01*
X184025688Y-113437886D02*
X184025688Y-113370708D01*
X184040637Y-113305213D02*
X184069785Y-113244687D01*
X184040637Y-113503381D02*
X184025688Y-113437886D01*
X184069785Y-113563907D02*
X184040637Y-113503381D01*
X186043555Y-112578467D02*
X186149619Y-112472402D01*
X189500000Y-120700000D02*
X188725000Y-119925000D01*
X184111671Y-113192164D02*
X184164194Y-113150279D01*
X184417533Y-113964306D02*
X184388385Y-113903781D01*
X184346500Y-114275521D02*
X184388386Y-114222999D01*
X189384548Y-109237473D02*
X189384548Y-108813208D01*
X184483412Y-113150280D02*
X184535935Y-113192165D01*
X184388386Y-114222999D02*
X184417532Y-114162474D01*
X185073246Y-112272606D02*
X185138741Y-112257656D01*
X184107880Y-114514141D02*
X184346500Y-114275521D01*
X184417532Y-114162474D02*
X184432482Y-114096979D01*
X184432481Y-114029801D02*
X184417533Y-113964306D01*
X184823288Y-113468879D02*
X184883814Y-113498027D01*
X184883814Y-113498027D02*
X184949309Y-113512976D01*
X185331939Y-112301753D02*
X185384462Y-112343638D01*
X185016487Y-113512976D02*
X185081982Y-113498027D01*
X184346500Y-113851257D02*
X184111671Y-113616428D01*
X185081982Y-113498027D02*
X185142508Y-113468879D01*
X185142508Y-113468879D02*
X185195028Y-113426994D01*
X184949309Y-113512976D02*
X185016487Y-113512976D01*
X185195028Y-113426994D02*
X185195027Y-113426994D01*
X185195027Y-113426994D02*
X185236913Y-113374472D01*
X184111671Y-113616428D02*
X184069785Y-113563907D01*
X185266059Y-113313947D02*
X185281009Y-113248452D01*
X185195027Y-113002730D02*
X184960198Y-112767901D01*
X185281008Y-113181274D02*
X185266060Y-113115779D01*
X185236913Y-113374472D02*
X185266059Y-113313947D01*
X185281009Y-113248452D02*
X185281008Y-113181274D01*
X184960198Y-112767901D02*
X184918312Y-112715380D01*
X185384462Y-112343638D02*
X185619292Y-112578468D01*
X184357392Y-113106184D02*
X184422887Y-113121132D01*
X184918312Y-112715380D02*
X184889164Y-112654854D01*
X184889164Y-112654854D02*
X184874215Y-112589359D01*
X184164194Y-113150279D02*
X184224719Y-113121133D01*
X184874215Y-112589359D02*
X184874215Y-112522181D01*
X184874215Y-112522181D02*
X184889164Y-112456686D01*
X184889164Y-112456686D02*
X184918312Y-112396160D01*
X185619292Y-112578468D02*
X185671815Y-112620352D01*
X184918312Y-112396160D02*
X184960198Y-112343637D01*
X184960198Y-112343637D02*
X185012721Y-112301752D01*
X185236912Y-113055254D02*
X185195027Y-113002730D01*
X185012721Y-112301752D02*
X185073246Y-112272606D01*
X185138741Y-112257656D02*
X185205919Y-112257657D01*
X184290214Y-113106183D02*
X184357392Y-113106184D01*
X185205919Y-112257657D02*
X185271414Y-112272605D01*
X185271414Y-112272605D02*
X185331939Y-112301753D01*
X183675020Y-112410240D02*
X183675020Y-115247420D01*
X184070200Y-115642600D02*
X184107880Y-115642600D01*
X183675020Y-115247420D02*
X184070200Y-115642600D01*
X184107880Y-115642600D02*
X184107880Y-114514141D01*
X184107880Y-118121920D02*
X184107880Y-115642600D01*
X190199220Y-103617823D02*
X190316397Y-103735000D01*
X188498872Y-88357228D02*
X188498872Y-89715032D01*
X188504138Y-88310496D02*
X188498872Y-88357228D01*
X188544690Y-88226288D02*
X188519670Y-88266108D01*
X188577943Y-88193035D02*
X188544690Y-88226288D01*
X188617763Y-88168015D02*
X188577943Y-88193035D01*
X188662151Y-88152483D02*
X188617763Y-88168015D01*
X188755614Y-88141952D02*
X188662151Y-88152483D01*
X188800002Y-88126420D02*
X188755614Y-88141952D01*
X188839822Y-88101400D02*
X188800002Y-88126420D01*
X188873075Y-88068147D02*
X188839822Y-88101400D01*
X188898095Y-88028327D02*
X188873075Y-88068147D01*
X188898095Y-87666108D02*
X188913627Y-87710496D01*
X188519670Y-87428327D02*
X188544690Y-87468147D01*
X188519670Y-85866108D02*
X188504138Y-85910496D01*
X188577943Y-85793035D02*
X188544690Y-85826288D01*
X188617763Y-85768015D02*
X188577943Y-85793035D01*
X188755614Y-85741952D02*
X188662151Y-85752483D01*
X188800002Y-85726420D02*
X188755614Y-85741952D01*
X190316397Y-103735000D02*
X192220000Y-103735000D01*
X188913627Y-85583939D02*
X188898095Y-85628327D01*
X188918892Y-85357228D02*
X188918892Y-85537208D01*
X188913627Y-87983939D02*
X188898095Y-88028327D01*
X188873075Y-86426288D02*
X188898095Y-86466108D01*
X188839822Y-86901400D02*
X188800002Y-86926420D01*
X188913627Y-85310496D02*
X188918892Y-85357228D01*
X188577943Y-85101400D02*
X188617763Y-85126420D01*
X188498872Y-84243788D02*
X188498872Y-84937208D01*
X188498872Y-84937208D02*
X188504138Y-84983939D01*
X188504138Y-84983939D02*
X188519670Y-85028327D01*
X188662151Y-85752483D02*
X188617763Y-85768015D01*
X188898095Y-85628327D02*
X188873075Y-85668147D01*
X188577943Y-86993035D02*
X188544690Y-87026288D01*
X188519670Y-87066108D02*
X188504138Y-87110496D01*
X188873075Y-85668147D02*
X188839822Y-85701400D01*
X188662151Y-85141952D02*
X188755614Y-85152483D01*
X188544690Y-85068147D02*
X188577943Y-85101400D01*
X188544690Y-87468147D02*
X188577943Y-87501400D01*
X188504138Y-85910496D02*
X188498872Y-85957228D01*
X190199220Y-91415380D02*
X190199220Y-103617823D01*
X188577943Y-87501400D02*
X188617763Y-87526420D01*
X188498872Y-85957228D02*
X188498872Y-86137208D01*
X188544690Y-85826288D02*
X188519670Y-85866108D01*
X188918892Y-85537208D02*
X188913627Y-85583939D01*
X188755614Y-85152483D02*
X188800002Y-85168015D01*
X188839822Y-85193035D02*
X188873075Y-85226288D01*
X188898095Y-85266108D02*
X188913627Y-85310496D01*
X188617763Y-85126420D02*
X188662151Y-85141952D01*
X188873075Y-85226288D02*
X188898095Y-85266108D01*
X188617763Y-87526420D02*
X188662151Y-87541952D01*
X188498872Y-86137208D02*
X188504138Y-86183939D01*
X188755614Y-87552483D02*
X188800002Y-87568015D01*
X188519670Y-86228327D02*
X188544690Y-86268147D01*
X188662151Y-87541952D02*
X188755614Y-87552483D01*
X188504138Y-86183939D02*
X188519670Y-86228327D01*
X188800002Y-87568015D02*
X188839822Y-87593035D01*
X188544690Y-86268147D02*
X188577943Y-86301400D01*
X188898095Y-86466108D02*
X188913627Y-86510496D01*
X188839822Y-87593035D02*
X188873075Y-87626288D01*
X188577943Y-86301400D02*
X188617763Y-86326420D01*
X188913627Y-86510496D02*
X188918892Y-86557228D01*
X188873075Y-87626288D02*
X188898095Y-87666108D01*
X188617763Y-86326420D02*
X188662151Y-86341952D01*
X188913627Y-87710496D02*
X188918892Y-87757228D01*
X188755614Y-86352483D02*
X188800002Y-86368015D01*
X188519670Y-85028327D02*
X188544690Y-85068147D01*
X188918892Y-86557228D02*
X188918892Y-86737208D01*
X188800002Y-85168015D02*
X188839822Y-85193035D01*
X188662151Y-86341952D02*
X188755614Y-86352483D01*
X188918892Y-87757228D02*
X188918892Y-87937208D01*
X188800002Y-86368015D02*
X188839822Y-86393035D01*
X188918892Y-86737208D02*
X188913627Y-86783939D01*
X188898095Y-86828327D02*
X188873075Y-86868147D01*
X188918892Y-87937208D02*
X188913627Y-87983939D01*
X188839822Y-86393035D02*
X188873075Y-86426288D01*
X188913627Y-86783939D02*
X188898095Y-86828327D01*
X188873075Y-86868147D02*
X188839822Y-86901400D01*
X188800002Y-86926420D02*
X188755614Y-86941952D01*
X188662151Y-86952483D02*
X188617763Y-86968015D01*
X188519670Y-88266108D02*
X188504138Y-88310496D01*
X188839822Y-85701400D02*
X188800002Y-85726420D01*
X188755614Y-86941952D02*
X188662151Y-86952483D01*
X188617763Y-86968015D02*
X188577943Y-86993035D01*
X188544690Y-87026288D02*
X188519670Y-87066108D01*
X188504138Y-87110496D02*
X188498872Y-87157228D01*
X188498872Y-89715032D02*
X190199220Y-91415380D01*
X188498872Y-87157228D02*
X188498872Y-87337208D01*
X188498872Y-87337208D02*
X188504138Y-87383939D01*
X188504138Y-87383939D02*
X188519670Y-87428327D01*
X188725000Y-119475000D02*
X189500000Y-118700000D01*
X184557880Y-117935520D02*
X186097360Y-119475000D01*
X186097360Y-119475000D02*
X188725000Y-119475000D01*
X189702747Y-109555672D02*
X184557880Y-114700539D01*
X190127012Y-109555672D02*
X189702747Y-109555672D01*
X185295540Y-115252500D02*
X184557880Y-115990160D01*
X184557880Y-115990160D02*
X184557880Y-116503240D01*
X184557880Y-116503240D02*
X184557880Y-117935520D01*
X184557880Y-114700539D02*
X184557880Y-116503240D01*
M02*
