%FSLAX45Y45*%
G04 Gerber Fmt 4.5, Leading zero omitted, Abs format (unit mm)*
G04 Created by KiCad (PCBNEW 5.1.10-88a1d61d58~90~ubuntu20.04.1) date 2021-07-14 19:36:43*
%MOMM*%
%LPD*%
G01*
G04 APERTURE LIST*
%TA.AperFunction,Profile*%
%ADD10C,0.050000*%
%TD*%
%ADD11C,0.200000*%
%ADD12C,0.300000*%
G04 APERTURE END LIST*
D10*
X16582000Y-5792000D02*
X16582104Y-12315978D01*
X16715000Y-12465000D02*
X19246978Y-12467896D01*
X16715000Y-12465000D02*
G75*
G02*
X16582104Y-12315978I17104J149022D01*
G01*
X19396000Y-5792000D02*
X19396000Y-12335000D01*
X16732000Y-5642000D02*
X19245856Y-5641898D01*
X19396000Y-12335000D02*
G75*
G02*
X19246978Y-12467896I-149022J17104D01*
G01*
X16582000Y-5792000D02*
G75*
G02*
X16732000Y-5642000I150000J0D01*
G01*
X19245856Y-5641898D02*
G75*
G02*
X19396000Y-5792000I0J-150144D01*
G01*
D11*
X16826750Y-11845928D02*
X16896750Y-11915928D01*
X16896750Y-11845928D02*
X16826750Y-11915928D01*
X17404750Y-11845928D02*
X17474750Y-11915928D01*
X17474750Y-11845928D02*
X17404750Y-11915928D01*
D12*
X16865928Y-12936110D02*
X16865928Y-12636110D01*
X16937357Y-12636110D01*
X16980214Y-12650396D01*
X17008786Y-12678967D01*
X17023071Y-12707539D01*
X17037357Y-12764681D01*
X17037357Y-12807539D01*
X17023071Y-12864681D01*
X17008786Y-12893253D01*
X16980214Y-12921824D01*
X16937357Y-12936110D01*
X16865928Y-12936110D01*
X17165928Y-12936110D02*
X17165928Y-12736110D01*
X17165928Y-12793253D02*
X17180214Y-12764681D01*
X17194500Y-12750396D01*
X17223071Y-12736110D01*
X17251643Y-12736110D01*
X17351643Y-12936110D02*
X17351643Y-12736110D01*
X17351643Y-12636110D02*
X17337357Y-12650396D01*
X17351643Y-12664681D01*
X17365928Y-12650396D01*
X17351643Y-12636110D01*
X17351643Y-12664681D01*
X17537357Y-12936110D02*
X17508786Y-12921824D01*
X17494500Y-12893253D01*
X17494500Y-12636110D01*
X17694500Y-12936110D02*
X17665928Y-12921824D01*
X17651643Y-12893253D01*
X17651643Y-12636110D01*
X18037357Y-12936110D02*
X18037357Y-12636110D01*
X18137357Y-12850396D01*
X18237357Y-12636110D01*
X18237357Y-12936110D01*
X18508786Y-12936110D02*
X18508786Y-12778967D01*
X18494500Y-12750396D01*
X18465928Y-12736110D01*
X18408786Y-12736110D01*
X18380214Y-12750396D01*
X18508786Y-12921824D02*
X18480214Y-12936110D01*
X18408786Y-12936110D01*
X18380214Y-12921824D01*
X18365928Y-12893253D01*
X18365928Y-12864681D01*
X18380214Y-12836110D01*
X18408786Y-12821824D01*
X18480214Y-12821824D01*
X18508786Y-12807539D01*
X18651643Y-12736110D02*
X18651643Y-13036110D01*
X18651643Y-12750396D02*
X18680214Y-12736110D01*
X18737357Y-12736110D01*
X18765928Y-12750396D01*
X18780214Y-12764681D01*
X18794500Y-12793253D01*
X18794500Y-12878967D01*
X18780214Y-12907539D01*
X18765928Y-12921824D01*
X18737357Y-12936110D01*
X18680214Y-12936110D01*
X18651643Y-12921824D01*
X18923071Y-12907539D02*
X18937357Y-12921824D01*
X18923071Y-12936110D01*
X18908786Y-12921824D01*
X18923071Y-12907539D01*
X18923071Y-12936110D01*
X18923071Y-12750396D02*
X18937357Y-12764681D01*
X18923071Y-12778967D01*
X18908786Y-12764681D01*
X18923071Y-12750396D01*
X18923071Y-12778967D01*
X16509500Y-13395396D02*
X16579500Y-13465396D01*
X16579500Y-13395396D02*
X16509500Y-13465396D01*
X16923071Y-13266110D02*
X16951643Y-13266110D01*
X16980214Y-13280396D01*
X16994500Y-13294681D01*
X17008786Y-13323253D01*
X17023071Y-13380396D01*
X17023071Y-13451824D01*
X17008786Y-13508967D01*
X16994500Y-13537539D01*
X16980214Y-13551824D01*
X16951643Y-13566110D01*
X16923071Y-13566110D01*
X16894500Y-13551824D01*
X16880214Y-13537539D01*
X16865928Y-13508967D01*
X16851643Y-13451824D01*
X16851643Y-13380396D01*
X16865928Y-13323253D01*
X16880214Y-13294681D01*
X16894500Y-13280396D01*
X16923071Y-13266110D01*
X17151643Y-13537539D02*
X17165928Y-13551824D01*
X17151643Y-13566110D01*
X17137357Y-13551824D01*
X17151643Y-13537539D01*
X17151643Y-13566110D01*
X17265928Y-13266110D02*
X17465928Y-13266110D01*
X17337357Y-13566110D01*
X17637357Y-13266110D02*
X17665928Y-13266110D01*
X17694500Y-13280396D01*
X17708786Y-13294681D01*
X17723071Y-13323253D01*
X17737357Y-13380396D01*
X17737357Y-13451824D01*
X17723071Y-13508967D01*
X17708786Y-13537539D01*
X17694500Y-13551824D01*
X17665928Y-13566110D01*
X17637357Y-13566110D01*
X17608786Y-13551824D01*
X17594500Y-13537539D01*
X17580214Y-13508967D01*
X17565928Y-13451824D01*
X17565928Y-13380396D01*
X17580214Y-13323253D01*
X17594500Y-13294681D01*
X17608786Y-13280396D01*
X17637357Y-13266110D01*
X17923071Y-13266110D02*
X17951643Y-13266110D01*
X17980214Y-13280396D01*
X17994500Y-13294681D01*
X18008786Y-13323253D01*
X18023071Y-13380396D01*
X18023071Y-13451824D01*
X18008786Y-13508967D01*
X17994500Y-13537539D01*
X17980214Y-13551824D01*
X17951643Y-13566110D01*
X17923071Y-13566110D01*
X17894500Y-13551824D01*
X17880214Y-13537539D01*
X17865928Y-13508967D01*
X17851643Y-13451824D01*
X17851643Y-13380396D01*
X17865928Y-13323253D01*
X17880214Y-13294681D01*
X17894500Y-13280396D01*
X17923071Y-13266110D01*
X18151643Y-13566110D02*
X18151643Y-13366110D01*
X18151643Y-13394681D02*
X18165928Y-13380396D01*
X18194500Y-13366110D01*
X18237357Y-13366110D01*
X18265928Y-13380396D01*
X18280214Y-13408967D01*
X18280214Y-13566110D01*
X18280214Y-13408967D02*
X18294500Y-13380396D01*
X18323071Y-13366110D01*
X18365928Y-13366110D01*
X18394500Y-13380396D01*
X18408786Y-13408967D01*
X18408786Y-13566110D01*
X18551643Y-13566110D02*
X18551643Y-13366110D01*
X18551643Y-13394681D02*
X18565928Y-13380396D01*
X18594500Y-13366110D01*
X18637357Y-13366110D01*
X18665928Y-13380396D01*
X18680214Y-13408967D01*
X18680214Y-13566110D01*
X18680214Y-13408967D02*
X18694500Y-13380396D01*
X18723071Y-13366110D01*
X18765928Y-13366110D01*
X18794500Y-13380396D01*
X18808786Y-13408967D01*
X18808786Y-13566110D01*
X19394500Y-13251824D02*
X19137357Y-13637539D01*
X19780214Y-13266110D02*
X19808786Y-13266110D01*
X19837357Y-13280396D01*
X19851643Y-13294681D01*
X19865928Y-13323253D01*
X19880214Y-13380396D01*
X19880214Y-13451824D01*
X19865928Y-13508967D01*
X19851643Y-13537539D01*
X19837357Y-13551824D01*
X19808786Y-13566110D01*
X19780214Y-13566110D01*
X19751643Y-13551824D01*
X19737357Y-13537539D01*
X19723071Y-13508967D01*
X19708786Y-13451824D01*
X19708786Y-13380396D01*
X19723071Y-13323253D01*
X19737357Y-13294681D01*
X19751643Y-13280396D01*
X19780214Y-13266110D01*
X20008786Y-13537539D02*
X20023071Y-13551824D01*
X20008786Y-13566110D01*
X19994500Y-13551824D01*
X20008786Y-13537539D01*
X20008786Y-13566110D01*
X20208786Y-13266110D02*
X20237357Y-13266110D01*
X20265928Y-13280396D01*
X20280214Y-13294681D01*
X20294500Y-13323253D01*
X20308786Y-13380396D01*
X20308786Y-13451824D01*
X20294500Y-13508967D01*
X20280214Y-13537539D01*
X20265928Y-13551824D01*
X20237357Y-13566110D01*
X20208786Y-13566110D01*
X20180214Y-13551824D01*
X20165928Y-13537539D01*
X20151643Y-13508967D01*
X20137357Y-13451824D01*
X20137357Y-13380396D01*
X20151643Y-13323253D01*
X20165928Y-13294681D01*
X20180214Y-13280396D01*
X20208786Y-13266110D01*
X20423071Y-13294681D02*
X20437357Y-13280396D01*
X20465928Y-13266110D01*
X20537357Y-13266110D01*
X20565928Y-13280396D01*
X20580214Y-13294681D01*
X20594500Y-13323253D01*
X20594500Y-13351824D01*
X20580214Y-13394681D01*
X20408786Y-13566110D01*
X20594500Y-13566110D01*
X20694500Y-13266110D02*
X20894500Y-13266110D01*
X20765928Y-13566110D01*
X21137357Y-13266110D02*
X21080214Y-13266110D01*
X21051643Y-13280396D01*
X21037357Y-13294681D01*
X21008786Y-13337539D01*
X20994500Y-13394681D01*
X20994500Y-13508967D01*
X21008786Y-13537539D01*
X21023071Y-13551824D01*
X21051643Y-13566110D01*
X21108786Y-13566110D01*
X21137357Y-13551824D01*
X21151643Y-13537539D01*
X21165928Y-13508967D01*
X21165928Y-13437539D01*
X21151643Y-13408967D01*
X21137357Y-13394681D01*
X21108786Y-13380396D01*
X21051643Y-13380396D01*
X21023071Y-13394681D01*
X21008786Y-13408967D01*
X20994500Y-13437539D01*
X21280214Y-13266110D02*
X21280214Y-13323253D01*
X21394500Y-13266110D02*
X21394500Y-13323253D01*
X21837357Y-13680396D02*
X21823071Y-13666110D01*
X21794500Y-13623253D01*
X21780214Y-13594681D01*
X21765928Y-13551824D01*
X21751643Y-13480396D01*
X21751643Y-13423253D01*
X21765928Y-13351824D01*
X21780214Y-13308967D01*
X21794500Y-13280396D01*
X21823071Y-13237539D01*
X21837357Y-13223253D01*
X21937357Y-13294681D02*
X21951643Y-13280396D01*
X21980214Y-13266110D01*
X22051643Y-13266110D01*
X22080214Y-13280396D01*
X22094500Y-13294681D01*
X22108786Y-13323253D01*
X22108786Y-13351824D01*
X22094500Y-13394681D01*
X21923071Y-13566110D01*
X22108786Y-13566110D01*
X22465928Y-13566110D02*
X22465928Y-13266110D01*
X22594500Y-13566110D02*
X22594500Y-13408967D01*
X22580214Y-13380396D01*
X22551643Y-13366110D01*
X22508786Y-13366110D01*
X22480214Y-13380396D01*
X22465928Y-13394681D01*
X22780214Y-13566110D02*
X22751643Y-13551824D01*
X22737357Y-13537539D01*
X22723071Y-13508967D01*
X22723071Y-13423253D01*
X22737357Y-13394681D01*
X22751643Y-13380396D01*
X22780214Y-13366110D01*
X22823071Y-13366110D01*
X22851643Y-13380396D01*
X22865928Y-13394681D01*
X22880214Y-13423253D01*
X22880214Y-13508967D01*
X22865928Y-13537539D01*
X22851643Y-13551824D01*
X22823071Y-13566110D01*
X22780214Y-13566110D01*
X23051643Y-13566110D02*
X23023071Y-13551824D01*
X23008786Y-13523253D01*
X23008786Y-13266110D01*
X23280214Y-13551824D02*
X23251643Y-13566110D01*
X23194500Y-13566110D01*
X23165928Y-13551824D01*
X23151643Y-13523253D01*
X23151643Y-13408967D01*
X23165928Y-13380396D01*
X23194500Y-13366110D01*
X23251643Y-13366110D01*
X23280214Y-13380396D01*
X23294500Y-13408967D01*
X23294500Y-13437539D01*
X23151643Y-13466110D01*
X23408786Y-13551824D02*
X23437357Y-13566110D01*
X23494500Y-13566110D01*
X23523071Y-13551824D01*
X23537357Y-13523253D01*
X23537357Y-13508967D01*
X23523071Y-13480396D01*
X23494500Y-13466110D01*
X23451643Y-13466110D01*
X23423071Y-13451824D01*
X23408786Y-13423253D01*
X23408786Y-13408967D01*
X23423071Y-13380396D01*
X23451643Y-13366110D01*
X23494500Y-13366110D01*
X23523071Y-13380396D01*
X23637357Y-13680396D02*
X23651643Y-13666110D01*
X23680214Y-13623253D01*
X23694500Y-13594681D01*
X23708786Y-13551824D01*
X23723071Y-13480396D01*
X23723071Y-13423253D01*
X23708786Y-13351824D01*
X23694500Y-13308967D01*
X23680214Y-13280396D01*
X23651643Y-13237539D01*
X23637357Y-13223253D01*
X24180214Y-13680396D02*
X24165928Y-13666110D01*
X24137357Y-13623253D01*
X24123071Y-13594681D01*
X24108786Y-13551824D01*
X24094500Y-13480396D01*
X24094500Y-13423253D01*
X24108786Y-13351824D01*
X24123071Y-13308967D01*
X24137357Y-13280396D01*
X24165928Y-13237539D01*
X24180214Y-13223253D01*
X24294500Y-13366110D02*
X24294500Y-13566110D01*
X24294500Y-13394681D02*
X24308786Y-13380396D01*
X24337357Y-13366110D01*
X24380214Y-13366110D01*
X24408786Y-13380396D01*
X24423071Y-13408967D01*
X24423071Y-13566110D01*
X24608786Y-13566110D02*
X24580214Y-13551824D01*
X24565928Y-13537539D01*
X24551643Y-13508967D01*
X24551643Y-13423253D01*
X24565928Y-13394681D01*
X24580214Y-13380396D01*
X24608786Y-13366110D01*
X24651643Y-13366110D01*
X24680214Y-13380396D01*
X24694500Y-13394681D01*
X24708786Y-13423253D01*
X24708786Y-13508967D01*
X24694500Y-13537539D01*
X24680214Y-13551824D01*
X24651643Y-13566110D01*
X24608786Y-13566110D01*
X24794500Y-13366110D02*
X24908786Y-13366110D01*
X24837357Y-13266110D02*
X24837357Y-13523253D01*
X24851643Y-13551824D01*
X24880214Y-13566110D01*
X24908786Y-13566110D01*
X25237357Y-13366110D02*
X25237357Y-13666110D01*
X25237357Y-13380396D02*
X25265928Y-13366110D01*
X25323071Y-13366110D01*
X25351643Y-13380396D01*
X25365928Y-13394681D01*
X25380214Y-13423253D01*
X25380214Y-13508967D01*
X25365928Y-13537539D01*
X25351643Y-13551824D01*
X25323071Y-13566110D01*
X25265928Y-13566110D01*
X25237357Y-13551824D01*
X25551643Y-13566110D02*
X25523071Y-13551824D01*
X25508786Y-13523253D01*
X25508786Y-13266110D01*
X25794500Y-13566110D02*
X25794500Y-13408967D01*
X25780214Y-13380396D01*
X25751643Y-13366110D01*
X25694500Y-13366110D01*
X25665928Y-13380396D01*
X25794500Y-13551824D02*
X25765928Y-13566110D01*
X25694500Y-13566110D01*
X25665928Y-13551824D01*
X25651643Y-13523253D01*
X25651643Y-13494681D01*
X25665928Y-13466110D01*
X25694500Y-13451824D01*
X25765928Y-13451824D01*
X25794500Y-13437539D01*
X25894500Y-13366110D02*
X26008786Y-13366110D01*
X25937357Y-13266110D02*
X25937357Y-13523253D01*
X25951643Y-13551824D01*
X25980214Y-13566110D01*
X26008786Y-13566110D01*
X26223071Y-13551824D02*
X26194500Y-13566110D01*
X26137357Y-13566110D01*
X26108786Y-13551824D01*
X26094500Y-13523253D01*
X26094500Y-13408967D01*
X26108786Y-13380396D01*
X26137357Y-13366110D01*
X26194500Y-13366110D01*
X26223071Y-13380396D01*
X26237357Y-13408967D01*
X26237357Y-13437539D01*
X26094500Y-13466110D01*
X26494500Y-13566110D02*
X26494500Y-13266110D01*
X26494500Y-13551824D02*
X26465928Y-13566110D01*
X26408786Y-13566110D01*
X26380214Y-13551824D01*
X26365928Y-13537539D01*
X26351643Y-13508967D01*
X26351643Y-13423253D01*
X26365928Y-13394681D01*
X26380214Y-13380396D01*
X26408786Y-13366110D01*
X26465928Y-13366110D01*
X26494500Y-13380396D01*
X26608786Y-13680396D02*
X26623071Y-13666110D01*
X26651643Y-13623253D01*
X26665928Y-13594681D01*
X26680214Y-13551824D01*
X26694500Y-13480396D01*
X26694500Y-13423253D01*
X26680214Y-13351824D01*
X26665928Y-13308967D01*
X26651643Y-13280396D01*
X26623071Y-13237539D01*
X26608786Y-13223253D01*
M02*
