%TF.GenerationSoftware,KiCad,Pcbnew,5.1.10-88a1d61d58~90~ubuntu20.04.1*%
%TF.CreationDate,2021-07-14T19:36:45+05:30*%
%TF.ProjectId,USBee32-S2,55534265-6533-4322-9d53-322e6b696361,rev?*%
%TF.SameCoordinates,Original*%
%TF.FileFunction,Copper,L4,Bot*%
%TF.FilePolarity,Positive*%
%FSLAX46Y46*%
G04 Gerber Fmt 4.6, Leading zero omitted, Abs format (unit mm)*
G04 Created by KiCad (PCBNEW 5.1.10-88a1d61d58~90~ubuntu20.04.1) date 2021-07-14 19:36:45*
%MOMM*%
%LPD*%
G01*
G04 APERTURE LIST*
%TA.AperFunction,ComponentPad*%
%ADD10O,1.050000X2.100000*%
%TD*%
%TA.AperFunction,ComponentPad*%
%ADD11C,2.150000*%
%TD*%
%TA.AperFunction,ComponentPad*%
%ADD12R,1.600000X1.600000*%
%TD*%
%TA.AperFunction,ComponentPad*%
%ADD13C,1.600000*%
%TD*%
%TA.AperFunction,ComponentPad*%
%ADD14O,1.700000X1.700000*%
%TD*%
%TA.AperFunction,ComponentPad*%
%ADD15R,1.700000X1.700000*%
%TD*%
%TA.AperFunction,ViaPad*%
%ADD16C,0.800000*%
%TD*%
%TA.AperFunction,Conductor*%
%ADD17C,0.200000*%
%TD*%
%TA.AperFunction,Conductor*%
%ADD18C,0.400000*%
%TD*%
%TA.AperFunction,Conductor*%
%ADD19C,0.254000*%
%TD*%
%TA.AperFunction,Conductor*%
%ADD20C,0.100000*%
%TD*%
G04 APERTURE END LIST*
D10*
X175827500Y-122459280D03*
X167187500Y-122459280D03*
X175827500Y-118279280D03*
X167187500Y-118279280D03*
D11*
X187192340Y-122854000D03*
X187192340Y-115854000D03*
X192632340Y-115854000D03*
X192632340Y-122854000D03*
D12*
X189912340Y-122124000D03*
D13*
X189912340Y-120124000D03*
X189912340Y-118124000D03*
X189912340Y-116124000D03*
D14*
X192220000Y-111355000D03*
X192220000Y-108815000D03*
X192220000Y-106275000D03*
X192220000Y-103735000D03*
X192220000Y-101195000D03*
X192220000Y-98655000D03*
X192220000Y-96115000D03*
X192220000Y-93575000D03*
X192220000Y-91035000D03*
X192220000Y-88495000D03*
X192220000Y-85955000D03*
X192220000Y-83415000D03*
X192220000Y-80875000D03*
X192220000Y-78335000D03*
X192220000Y-75795000D03*
X192220000Y-73255000D03*
X192220000Y-70715000D03*
X192220000Y-68175000D03*
X192220000Y-65635000D03*
X192220000Y-63095000D03*
X192220000Y-60555000D03*
D15*
X192220000Y-58015000D03*
D14*
X167430000Y-101195000D03*
X167430000Y-98655000D03*
X167430000Y-96115000D03*
X167430000Y-93575000D03*
X167430000Y-91035000D03*
X167430000Y-88495000D03*
X167430000Y-85955000D03*
X167430000Y-83415000D03*
X167430000Y-80875000D03*
X167430000Y-78335000D03*
X167430000Y-75795000D03*
X167430000Y-73255000D03*
X167430000Y-70715000D03*
X167430000Y-68175000D03*
X167430000Y-65635000D03*
X167430000Y-63095000D03*
X167430000Y-60555000D03*
D15*
X167430000Y-58015000D03*
D16*
X176234700Y-63246300D03*
X177734700Y-63246300D03*
X179234700Y-63246300D03*
X180734700Y-63246300D03*
X176234700Y-64746300D03*
X177734700Y-64746300D03*
X179234700Y-64746300D03*
X180734700Y-64746300D03*
X176234700Y-66246300D03*
X177734700Y-66246300D03*
X179234700Y-66246300D03*
X180734700Y-66246300D03*
X176234700Y-67746300D03*
X177734700Y-67746300D03*
X179234700Y-67746300D03*
X180734700Y-67746300D03*
X186763314Y-98505486D03*
X172649100Y-57552500D03*
X178580000Y-94319000D03*
X169430920Y-110160980D03*
X177818000Y-88743700D03*
X175740280Y-95553440D03*
X169392820Y-102647660D03*
X187952600Y-81425960D03*
X184442320Y-93125200D03*
X180192500Y-86392900D03*
X176141600Y-83854200D03*
X172357000Y-93379200D03*
X169280000Y-105510000D03*
X177440000Y-109000000D03*
X167710000Y-112390000D03*
X169950000Y-112380000D03*
X175640010Y-104929043D03*
X176338580Y-108949020D03*
X180123180Y-121021640D03*
X180105400Y-121974140D03*
X180120640Y-116340420D03*
X178096260Y-109995500D03*
X183137656Y-110070011D03*
X174163310Y-113630240D03*
X186504800Y-89640320D03*
X186504800Y-87699760D03*
X186860400Y-99970500D03*
X186873100Y-101939000D03*
X169382660Y-100379440D03*
X179829680Y-82350520D03*
X180192500Y-88692900D03*
X176093340Y-88700520D03*
X172280800Y-83854200D03*
X186121260Y-59020620D03*
X172219522Y-95527722D03*
X186164440Y-63511340D03*
X181785480Y-95619480D03*
X186154280Y-65020100D03*
X180505320Y-95644880D03*
X181907400Y-104098000D03*
X179977000Y-104110700D03*
X167670000Y-115980000D03*
X173290000Y-115990000D03*
X172532500Y-114765000D03*
X177884660Y-100356200D03*
X177628900Y-113792800D03*
X171482500Y-114765000D03*
X176834660Y-100356200D03*
X177631440Y-111168980D03*
X185930285Y-110359085D03*
X180981700Y-112512640D03*
X171536979Y-120163021D03*
X174179679Y-120163021D03*
X172881739Y-120163021D03*
X184700710Y-113567190D03*
X183106860Y-115161040D03*
X183936169Y-114331731D03*
X172651644Y-60664000D03*
X172018614Y-107994756D03*
X186103482Y-78525280D03*
X186238100Y-96472920D03*
X172577980Y-77039380D03*
X172588140Y-75528080D03*
X172593220Y-74062500D03*
X174700390Y-75525540D03*
X173463300Y-111054680D03*
X186106020Y-77029220D03*
X186103480Y-75487440D03*
X186133960Y-74037100D03*
X180783888Y-109573401D03*
X183039100Y-108568020D03*
X180930900Y-113792800D03*
X180774659Y-110620359D03*
D17*
X172619521Y-95127723D02*
X172219522Y-95527722D01*
X173964820Y-93782424D02*
X172619521Y-95127723D01*
X173964820Y-61271060D02*
X173964820Y-93782424D01*
X186121260Y-59020620D02*
X176215260Y-59020620D01*
X176215260Y-59020620D02*
X173964820Y-61271060D01*
X183233088Y-66442692D02*
X186164440Y-63511340D01*
X183233088Y-95286932D02*
X183233088Y-66442692D01*
X182900540Y-95619480D02*
X183233088Y-95286932D01*
X181785480Y-95619480D02*
X182900540Y-95619480D01*
X185754281Y-65420099D02*
X186154280Y-65020100D01*
X183633099Y-67541281D02*
X185754281Y-65420099D01*
X183633099Y-96037541D02*
X183633099Y-67541281D01*
X182588120Y-97082520D02*
X183633099Y-96037541D01*
X180901560Y-97082520D02*
X182588120Y-97082520D01*
X180505320Y-96686280D02*
X180901560Y-97082520D01*
X180505320Y-95644880D02*
X180505320Y-96686280D01*
X181907400Y-104098000D02*
X179989700Y-104098000D01*
X179989700Y-104098000D02*
X179977000Y-104110700D01*
X167680000Y-115990000D02*
X167670000Y-115980000D01*
X173290000Y-115990000D02*
X167680000Y-115990000D01*
X177628900Y-113792800D02*
X177628900Y-112736580D01*
X172232500Y-114465000D02*
X172532500Y-114765000D01*
X178392660Y-112727480D02*
X172992620Y-112727480D01*
X179591260Y-111528880D02*
X178392660Y-112727480D01*
X179591260Y-104908660D02*
X179591260Y-111528880D01*
X172992620Y-112727480D02*
X172232500Y-113487600D01*
X178391302Y-103698064D02*
X178433188Y-103750588D01*
X178433188Y-103750588D02*
X179591260Y-104908660D01*
X178347206Y-103572044D02*
X178362153Y-103637538D01*
X178525724Y-103141223D02*
X178510776Y-103206718D01*
X178008924Y-102902060D02*
X178015479Y-102895502D01*
X177884660Y-100356200D02*
X177584660Y-100656200D01*
X177956401Y-102943945D02*
X178008924Y-102902060D01*
X177895874Y-102973091D02*
X177956401Y-102943945D01*
X178347205Y-103504864D02*
X178347206Y-103572044D01*
X177637181Y-102943944D02*
X177697708Y-102973092D01*
X178362153Y-103637538D02*
X178391302Y-103698064D01*
X177830381Y-102988041D02*
X177895874Y-102973091D01*
X177584660Y-100656200D02*
X177584660Y-102902060D01*
X177697708Y-102973092D02*
X177763201Y-102988040D01*
X177584660Y-102902060D02*
X177637181Y-102943944D01*
X178128528Y-102824470D02*
X178194022Y-102809522D01*
X178525725Y-103074045D02*
X178525724Y-103141223D01*
X178194022Y-102809522D02*
X178261200Y-102809521D01*
X178261200Y-102809521D02*
X178326696Y-102824470D01*
X178510775Y-103008550D02*
X178525725Y-103074045D01*
X178326696Y-102824470D02*
X178387220Y-102853617D01*
X178439743Y-103319766D02*
X178433187Y-103326323D01*
X178387220Y-102853617D02*
X178439743Y-102895502D01*
X172232500Y-113487600D02*
X172232500Y-114465000D01*
X177763201Y-102988040D02*
X177830381Y-102988041D01*
X178439743Y-102895502D02*
X178481629Y-102948025D01*
X178068002Y-102853618D02*
X178128528Y-102824470D01*
X178362153Y-103439370D02*
X178347205Y-103504864D01*
X178015479Y-102895502D02*
X178068002Y-102853618D01*
X178481629Y-102948025D02*
X178510775Y-103008550D01*
X178510776Y-103206718D02*
X178481628Y-103267243D01*
X178481628Y-103267243D02*
X178439743Y-103319766D01*
X178391301Y-103378844D02*
X178362153Y-103439370D01*
X178433187Y-103326323D02*
X178391301Y-103378844D01*
X177631440Y-112273880D02*
X177635040Y-112277480D01*
X177631440Y-111168980D02*
X177631440Y-112273880D01*
X171782500Y-114465000D02*
X171482500Y-114765000D01*
X171782500Y-113301200D02*
X171782500Y-114465000D01*
X178206260Y-112277480D02*
X172806220Y-112277480D01*
X179141260Y-107263340D02*
X179141260Y-111342480D01*
X179112013Y-107135201D02*
X179133855Y-107197622D01*
X178780212Y-106375414D02*
X178717791Y-106397256D01*
X178974068Y-106338763D02*
X178911647Y-106360605D01*
X177134660Y-103088460D02*
X179141260Y-105095060D01*
X178579846Y-106535201D02*
X178558004Y-106597622D01*
X179112013Y-106200818D02*
X179076828Y-106256815D01*
X179141260Y-106072680D02*
X179133855Y-106138397D01*
X178974068Y-106997256D02*
X179030065Y-107032441D01*
X179141260Y-105095060D02*
X179141260Y-106072680D01*
X179133855Y-106138397D02*
X179112013Y-106200818D01*
X179076828Y-106256815D02*
X179030065Y-106303578D01*
X178911647Y-106360605D02*
X178780212Y-106375414D01*
X178717791Y-106938763D02*
X178780212Y-106960605D01*
X178911647Y-106975414D02*
X178974068Y-106997256D01*
X172806220Y-112277480D02*
X171782500Y-113301200D01*
X179030065Y-107032441D02*
X179076828Y-107079204D01*
X179030065Y-106303578D02*
X178974068Y-106338763D01*
X178615031Y-106479204D02*
X178579846Y-106535201D01*
X178550600Y-106672680D02*
X178558004Y-106738397D01*
X178661794Y-106903578D02*
X178717791Y-106938763D01*
X177134660Y-100656200D02*
X177134660Y-103088460D01*
X179133855Y-107197622D02*
X179141260Y-107263340D01*
X178661794Y-106432441D02*
X178615031Y-106479204D01*
X178717791Y-106397256D02*
X178661794Y-106432441D01*
X178558004Y-106597622D02*
X178550600Y-106663340D01*
X178550600Y-106663340D02*
X178550600Y-106672680D01*
X178558004Y-106738397D02*
X178579846Y-106800818D01*
X178579846Y-106800818D02*
X178615031Y-106856815D01*
X178615031Y-106856815D02*
X178661794Y-106903578D01*
X178780212Y-106960605D02*
X178911647Y-106975414D01*
X179141260Y-111342480D02*
X178206260Y-112277480D01*
X176834660Y-100356200D02*
X177134660Y-100656200D01*
X179076828Y-107079204D02*
X179112013Y-107135201D01*
D18*
X174179679Y-120163021D02*
X178104879Y-120163021D01*
X172881739Y-120163021D02*
X174179679Y-120163021D01*
X171536979Y-120163021D02*
X172881739Y-120163021D01*
X178104879Y-120163021D02*
X183106860Y-115161040D01*
X184700710Y-113567190D02*
X183936169Y-114331731D01*
X183106860Y-115161040D02*
X183936169Y-114331731D01*
D17*
X171479481Y-107455623D02*
X171618615Y-107594757D01*
X171618615Y-107594757D02*
X172018614Y-107994756D01*
X172651644Y-60664000D02*
X173431420Y-61443776D01*
X173431420Y-61443776D02*
X173431420Y-93325860D01*
X173431420Y-93325860D02*
X171479481Y-95277799D01*
X171479481Y-95277799D02*
X171479481Y-107455623D01*
X189397860Y-79507860D02*
X188415280Y-78525280D01*
X188415280Y-78525280D02*
X186103482Y-78525280D01*
X189397860Y-88212860D02*
X189397860Y-79507860D01*
X192220000Y-91035000D02*
X189397860Y-88212860D01*
X189397860Y-88212860D02*
X189397860Y-93579860D01*
X189397860Y-93579860D02*
X189397860Y-95395960D01*
X188320900Y-96472920D02*
X186238100Y-96472920D01*
X189397860Y-95395960D02*
X188320900Y-96472920D01*
X172577360Y-77040000D02*
X172577980Y-77039380D01*
X170502800Y-77467200D02*
X170930000Y-77040000D01*
X170502800Y-85422200D02*
X170502800Y-77467200D01*
X170930000Y-77040000D02*
X172577360Y-77040000D01*
X167430000Y-88495000D02*
X170502800Y-85422200D01*
X169804300Y-76665700D02*
X170941920Y-75528080D01*
X169804300Y-83580700D02*
X169804300Y-76665700D01*
X170941920Y-75528080D02*
X172588140Y-75528080D01*
X167430000Y-85955000D02*
X169804300Y-83580700D01*
X169220100Y-81624900D02*
X169220100Y-75101360D01*
X167430000Y-83415000D02*
X169220100Y-81624900D01*
X169220100Y-75101360D02*
X170258960Y-74062500D01*
X170258960Y-74062500D02*
X172593220Y-74062500D01*
X173463300Y-95923900D02*
X173463300Y-111049600D01*
X174700390Y-94686810D02*
X173463300Y-95923900D01*
X174700390Y-75525540D02*
X174700390Y-94686810D01*
X186116800Y-77040000D02*
X186106020Y-77029220D01*
X188875240Y-77040000D02*
X186116800Y-77040000D01*
X189984600Y-78149360D02*
X188875240Y-77040000D01*
X189984600Y-86259600D02*
X189984600Y-78149360D01*
X192220000Y-88495000D02*
X189984600Y-86259600D01*
X190524389Y-76799389D02*
X189212440Y-75487440D01*
X189212440Y-75487440D02*
X186669165Y-75487440D01*
X192220000Y-85955000D02*
X190524389Y-84259389D01*
X190524389Y-84259389D02*
X190524389Y-76799389D01*
X186669165Y-75487440D02*
X186103480Y-75487440D01*
X190924400Y-76056400D02*
X188905100Y-74037100D01*
X188905100Y-74037100D02*
X186699645Y-74037100D01*
X192220000Y-83415000D02*
X190924400Y-82119400D01*
X190924400Y-82119400D02*
X190924400Y-76056400D01*
X186699645Y-74037100D02*
X186133960Y-74037100D01*
X180783888Y-109573401D02*
X181789269Y-108568020D01*
X181789269Y-108568020D02*
X183039100Y-108568020D01*
X189137340Y-119349000D02*
X189912340Y-120124000D01*
X186710323Y-119356521D02*
X186777080Y-119349000D01*
X186590033Y-119414450D02*
X186646914Y-119378709D01*
X186542530Y-119461953D02*
X186590033Y-119414450D01*
X186506789Y-119518834D02*
X186542530Y-119461953D01*
X186484601Y-119582243D02*
X186506789Y-119518834D01*
X186477080Y-119649000D02*
X186484601Y-119582243D01*
X186477080Y-120049000D02*
X186477080Y-119649000D01*
X184118841Y-118880710D02*
X184401683Y-118597867D01*
X184005792Y-118951742D02*
X184066318Y-118922595D01*
X183807625Y-118951742D02*
X183873119Y-118966691D01*
X183652692Y-118828188D02*
X183694577Y-118880710D01*
X183747099Y-118922595D02*
X183807625Y-118951742D01*
X183623544Y-118569495D02*
X183608595Y-118634989D01*
X183694577Y-118456446D02*
X183652692Y-118508969D01*
X186646914Y-119378709D02*
X186710323Y-119356521D01*
X183977420Y-118173604D02*
X183694577Y-118456446D01*
X192220000Y-106275000D02*
X192220000Y-106725000D01*
X192220000Y-106725000D02*
X191971615Y-106725000D01*
X191971615Y-106725000D02*
X190620008Y-108076607D01*
X185643836Y-119356521D02*
X185707245Y-119378709D01*
X185877080Y-119649000D02*
X185877080Y-120049000D01*
X185884601Y-120115756D02*
X185906789Y-120179165D01*
X185577080Y-119349000D02*
X185643836Y-119356521D01*
X185869558Y-119582243D02*
X185877080Y-119649000D01*
X185877080Y-120049000D02*
X185884601Y-120115756D01*
X183652692Y-118508969D02*
X183623544Y-118569495D01*
X190620008Y-108076607D02*
X190620008Y-109327772D01*
X186364126Y-120283549D02*
X186411629Y-120236046D01*
X184048452Y-118060555D02*
X184019305Y-118121081D01*
X185811629Y-119461953D02*
X185847370Y-119518834D01*
X183940298Y-118966691D02*
X184005792Y-118951742D01*
X183608595Y-118634989D02*
X183608595Y-118702168D01*
X185764126Y-119414450D02*
X185811629Y-119461953D01*
X183977420Y-115970360D02*
X183977420Y-117749340D01*
X183977420Y-117749340D02*
X184019305Y-117801862D01*
X186777080Y-119349000D02*
X189137340Y-119349000D01*
X184019305Y-117801862D02*
X184048452Y-117862388D01*
X184647405Y-118511885D02*
X184712899Y-118526834D01*
X184048452Y-117862388D02*
X184063401Y-117927882D01*
X184454206Y-118555982D02*
X184514732Y-118526834D01*
X184580226Y-118511885D02*
X184647405Y-118511885D01*
X184063401Y-117927882D02*
X184063401Y-117995061D01*
X184401683Y-118597867D02*
X184454206Y-118555982D01*
X184514732Y-118526834D02*
X184580226Y-118511885D01*
X184712899Y-118526834D02*
X184773425Y-118555982D01*
X183608595Y-118702168D02*
X183623544Y-118767662D01*
X184825948Y-118597868D02*
X185577080Y-119349000D01*
X183873119Y-118966691D02*
X183940298Y-118966691D01*
X184773425Y-118555982D02*
X184825948Y-118597868D01*
X185707245Y-119378709D02*
X185764126Y-119414450D01*
X184019305Y-118121081D02*
X183977420Y-118173604D01*
X185906789Y-120179165D02*
X185942530Y-120236046D01*
X185990033Y-120283549D02*
X186046914Y-120319290D01*
X185847370Y-119518834D02*
X185869558Y-119582243D01*
X185942530Y-120236046D02*
X185990033Y-120283549D01*
X186046914Y-120319290D02*
X186110323Y-120341478D01*
X183623544Y-118767662D02*
X183652692Y-118828188D01*
X186110323Y-120341478D02*
X186177080Y-120349000D01*
X184063401Y-117995061D02*
X184048452Y-118060555D01*
X186243836Y-120341478D02*
X186307245Y-120319290D01*
X186447370Y-120179165D02*
X186469558Y-120115756D01*
X183694577Y-118880710D02*
X183747099Y-118922595D01*
X186177080Y-120349000D02*
X186243836Y-120341478D01*
X186307245Y-120319290D02*
X186364126Y-120283549D01*
X186469558Y-120115756D02*
X186477080Y-120049000D01*
X184066318Y-118922595D02*
X184118841Y-118880710D01*
X186411629Y-120236046D02*
X186447370Y-120179165D01*
X182479380Y-112244320D02*
X187703460Y-112244320D01*
X187703460Y-112244320D02*
X183977420Y-115970360D01*
X180930900Y-113792800D02*
X182479380Y-112244320D01*
X190620008Y-109327772D02*
X187703460Y-112244320D01*
X192670000Y-104185000D02*
X192220000Y-103735000D01*
X192670000Y-104856300D02*
X192670000Y-104185000D01*
X193430240Y-106766762D02*
X193430240Y-105616540D01*
X191069999Y-108262999D02*
X191813998Y-107519000D01*
X191069999Y-109514181D02*
X191069999Y-108262999D01*
X191813998Y-107519000D02*
X192678002Y-107519000D01*
X184427420Y-116156760D02*
X191069999Y-109514181D01*
X193430240Y-105616540D02*
X192670000Y-104856300D01*
X185763480Y-118899000D02*
X184427420Y-117562940D01*
X192678002Y-107519000D02*
X193430240Y-106766762D01*
X184427420Y-117562940D02*
X184427420Y-116156760D01*
X189137340Y-118899000D02*
X185763480Y-118899000D01*
X189912340Y-118124000D02*
X189137340Y-118899000D01*
X186266286Y-111059086D02*
X190834360Y-106491012D01*
X181213386Y-111059086D02*
X186266286Y-111059086D01*
X180774659Y-110620359D02*
X181213386Y-111059086D01*
X190834360Y-105120640D02*
X192220000Y-103735000D01*
X190834360Y-106491012D02*
X190834360Y-105120640D01*
D19*
X171971338Y-77537239D02*
X172080121Y-77646022D01*
X172208038Y-77731493D01*
X172350171Y-77790367D01*
X172501058Y-77820380D01*
X172654902Y-77820380D01*
X172805789Y-77790367D01*
X172947922Y-77731493D01*
X172950421Y-77729824D01*
X172950421Y-83450596D01*
X172887442Y-83356341D01*
X172778659Y-83247558D01*
X172650742Y-83162087D01*
X172508609Y-83103213D01*
X172357722Y-83073200D01*
X172203878Y-83073200D01*
X172052991Y-83103213D01*
X171910858Y-83162087D01*
X171782941Y-83247558D01*
X171674158Y-83356341D01*
X171588687Y-83484258D01*
X171529813Y-83626391D01*
X171499800Y-83777278D01*
X171499800Y-83931122D01*
X171529813Y-84082009D01*
X171588687Y-84224142D01*
X171674158Y-84352059D01*
X171782941Y-84460842D01*
X171910858Y-84546313D01*
X172052991Y-84605187D01*
X172203878Y-84635200D01*
X172357722Y-84635200D01*
X172508609Y-84605187D01*
X172650742Y-84546313D01*
X172778659Y-84460842D01*
X172887442Y-84352059D01*
X172950421Y-84257804D01*
X172950421Y-93126623D01*
X171156075Y-94920969D01*
X171137717Y-94936035D01*
X171077609Y-95009277D01*
X171032945Y-95092839D01*
X171019100Y-95138480D01*
X171005441Y-95183507D01*
X170996154Y-95277799D01*
X170998481Y-95301425D01*
X170998482Y-107431987D01*
X170996154Y-107455623D01*
X171005441Y-107549915D01*
X171030671Y-107633084D01*
X171032946Y-107640584D01*
X171077610Y-107724145D01*
X171137718Y-107797387D01*
X171156070Y-107812448D01*
X171241570Y-107897948D01*
X171237614Y-107917834D01*
X171237614Y-108071678D01*
X171267627Y-108222565D01*
X171326501Y-108364698D01*
X171411972Y-108492615D01*
X171520755Y-108601398D01*
X171648672Y-108686869D01*
X171790805Y-108745743D01*
X171941692Y-108775756D01*
X172095536Y-108775756D01*
X172246423Y-108745743D01*
X172388556Y-108686869D01*
X172516473Y-108601398D01*
X172625256Y-108492615D01*
X172710727Y-108364698D01*
X172769601Y-108222565D01*
X172799614Y-108071678D01*
X172799614Y-107917834D01*
X172769601Y-107766947D01*
X172710727Y-107624814D01*
X172625256Y-107496897D01*
X172516473Y-107388114D01*
X172388556Y-107302643D01*
X172246423Y-107243769D01*
X172095536Y-107213756D01*
X171960481Y-107213756D01*
X171960481Y-96265772D01*
X171991713Y-96278709D01*
X172142600Y-96308722D01*
X172296444Y-96308722D01*
X172447331Y-96278709D01*
X172589464Y-96219835D01*
X172717381Y-96134364D01*
X172826164Y-96025581D01*
X172911635Y-95897664D01*
X172970509Y-95755531D01*
X173000522Y-95604644D01*
X173000522Y-95450800D01*
X172996566Y-95430914D01*
X174219391Y-94208090D01*
X174219391Y-94487572D01*
X173139894Y-95567070D01*
X173121536Y-95582136D01*
X173061428Y-95655378D01*
X173016764Y-95738940D01*
X173011610Y-95755931D01*
X172989260Y-95829608D01*
X172979973Y-95923900D01*
X172982300Y-95947526D01*
X172982301Y-110436773D01*
X172965441Y-110448038D01*
X172856658Y-110556821D01*
X172771187Y-110684738D01*
X172712313Y-110826871D01*
X172682300Y-110977758D01*
X172682300Y-111131602D01*
X172712313Y-111282489D01*
X172771187Y-111424622D01*
X172856658Y-111552539D01*
X172965441Y-111661322D01*
X173093358Y-111746793D01*
X173213312Y-111796480D01*
X172829846Y-111796480D01*
X172806220Y-111794153D01*
X172711927Y-111803440D01*
X172621258Y-111830944D01*
X172576594Y-111854818D01*
X172537698Y-111875608D01*
X172464456Y-111935716D01*
X172449395Y-111954068D01*
X171459094Y-112944370D01*
X171440736Y-112959436D01*
X171380628Y-113032678D01*
X171335964Y-113116240D01*
X171321419Y-113164188D01*
X171308460Y-113206908D01*
X171299173Y-113301200D01*
X171301500Y-113324827D01*
X171301501Y-114004702D01*
X171254691Y-114014013D01*
X171112558Y-114072887D01*
X170984641Y-114158358D01*
X170875858Y-114267141D01*
X170790387Y-114395058D01*
X170731513Y-114537191D01*
X170701500Y-114688078D01*
X170701500Y-114841922D01*
X170731513Y-114992809D01*
X170790387Y-115134942D01*
X170875858Y-115262859D01*
X170984641Y-115371642D01*
X171112558Y-115457113D01*
X171237823Y-115509000D01*
X168294589Y-115509000D01*
X168276642Y-115482141D01*
X168167859Y-115373358D01*
X168039942Y-115287887D01*
X167897809Y-115229013D01*
X167746922Y-115199000D01*
X167593078Y-115199000D01*
X167442191Y-115229013D01*
X167300058Y-115287887D01*
X167172141Y-115373358D01*
X167063358Y-115482141D01*
X166977887Y-115610058D01*
X166919013Y-115752191D01*
X166889000Y-115903078D01*
X166889000Y-116056922D01*
X166919013Y-116207809D01*
X166977887Y-116349942D01*
X167063358Y-116477859D01*
X167172141Y-116586642D01*
X167300058Y-116672113D01*
X167442191Y-116730987D01*
X167593078Y-116761000D01*
X167746922Y-116761000D01*
X167897809Y-116730987D01*
X168039942Y-116672113D01*
X168167859Y-116586642D01*
X168276642Y-116477859D01*
X168281225Y-116471000D01*
X172672093Y-116471000D01*
X172683358Y-116487859D01*
X172792141Y-116596642D01*
X172920058Y-116682113D01*
X173062191Y-116740987D01*
X173213078Y-116771000D01*
X173366922Y-116771000D01*
X173517809Y-116740987D01*
X173659942Y-116682113D01*
X173787859Y-116596642D01*
X173896642Y-116487859D01*
X173982113Y-116359942D01*
X174040987Y-116217809D01*
X174071000Y-116066922D01*
X174071000Y-115913078D01*
X174040987Y-115762191D01*
X173982113Y-115620058D01*
X173896642Y-115492141D01*
X173787859Y-115383358D01*
X173659942Y-115297887D01*
X173517809Y-115239013D01*
X173366922Y-115209000D01*
X173213078Y-115209000D01*
X173169313Y-115217705D01*
X173224613Y-115134942D01*
X173283487Y-114992809D01*
X173313500Y-114841922D01*
X173313500Y-114688078D01*
X173283487Y-114537191D01*
X173224613Y-114395058D01*
X173139142Y-114267141D01*
X173030359Y-114158358D01*
X172902442Y-114072887D01*
X172760309Y-114014013D01*
X172713500Y-114004702D01*
X172713500Y-113686836D01*
X173191857Y-113208480D01*
X177108719Y-113208480D01*
X177022258Y-113294941D01*
X176936787Y-113422858D01*
X176877913Y-113564991D01*
X176847900Y-113715878D01*
X176847900Y-113869722D01*
X176877913Y-114020609D01*
X176936787Y-114162742D01*
X177022258Y-114290659D01*
X177131041Y-114399442D01*
X177258958Y-114484913D01*
X177401091Y-114543787D01*
X177551978Y-114573800D01*
X177705822Y-114573800D01*
X177856709Y-114543787D01*
X177998842Y-114484913D01*
X178126759Y-114399442D01*
X178235542Y-114290659D01*
X178321013Y-114162742D01*
X178379887Y-114020609D01*
X178409900Y-113869722D01*
X178409900Y-113715878D01*
X178379887Y-113564991D01*
X178321013Y-113422858D01*
X178235542Y-113294941D01*
X178149081Y-113208480D01*
X178369034Y-113208480D01*
X178392660Y-113210807D01*
X178416286Y-113208480D01*
X178486952Y-113201520D01*
X178577621Y-113174016D01*
X178661182Y-113129352D01*
X178734424Y-113069244D01*
X178749490Y-113050886D01*
X179914672Y-111885705D01*
X179933024Y-111870644D01*
X179993132Y-111797402D01*
X180037796Y-111713841D01*
X180065300Y-111623172D01*
X180072260Y-111552506D01*
X180072260Y-111552505D01*
X180074587Y-111528881D01*
X180072260Y-111505257D01*
X180072260Y-110965469D01*
X180082546Y-110990301D01*
X180168017Y-111118218D01*
X180276800Y-111227001D01*
X180404717Y-111312472D01*
X180546850Y-111371346D01*
X180697737Y-111401359D01*
X180851581Y-111401359D01*
X180869169Y-111397861D01*
X180871622Y-111400850D01*
X180944864Y-111460958D01*
X180983760Y-111481748D01*
X181028424Y-111505622D01*
X181119093Y-111533126D01*
X181213386Y-111542413D01*
X181237012Y-111540086D01*
X186242660Y-111540086D01*
X186266286Y-111542413D01*
X186289912Y-111540086D01*
X186301731Y-111538922D01*
X186360578Y-111533126D01*
X186361234Y-111532927D01*
X186451247Y-111505622D01*
X186534808Y-111460958D01*
X186608050Y-111400850D01*
X186623116Y-111382492D01*
X191136476Y-106869133D01*
X191140790Y-106875589D01*
X190296602Y-107719777D01*
X190278244Y-107734843D01*
X190218136Y-107808085D01*
X190173472Y-107891647D01*
X190165427Y-107918169D01*
X190145968Y-107982315D01*
X190136681Y-108076607D01*
X190139008Y-108100234D01*
X190139009Y-109128534D01*
X187504224Y-111763320D01*
X182502995Y-111763320D01*
X182479379Y-111760994D01*
X182455763Y-111763320D01*
X182455754Y-111763320D01*
X182385088Y-111770280D01*
X182294419Y-111797784D01*
X182210858Y-111842448D01*
X182137616Y-111902556D01*
X182122555Y-111920908D01*
X181736992Y-112306472D01*
X181732687Y-112284831D01*
X181673813Y-112142698D01*
X181588342Y-112014781D01*
X181479559Y-111905998D01*
X181351642Y-111820527D01*
X181209509Y-111761653D01*
X181058622Y-111731640D01*
X180904778Y-111731640D01*
X180753891Y-111761653D01*
X180611758Y-111820527D01*
X180483841Y-111905998D01*
X180375058Y-112014781D01*
X180289587Y-112142698D01*
X180230713Y-112284831D01*
X180200700Y-112435718D01*
X180200700Y-112589562D01*
X180230713Y-112740449D01*
X180289587Y-112882582D01*
X180375058Y-113010499D01*
X180483841Y-113119282D01*
X180508485Y-113135748D01*
X180433041Y-113186158D01*
X180324258Y-113294941D01*
X180238787Y-113422858D01*
X180179913Y-113564991D01*
X180149900Y-113715878D01*
X180149900Y-113869722D01*
X180179913Y-114020609D01*
X180238787Y-114162742D01*
X180324258Y-114290659D01*
X180433041Y-114399442D01*
X180560958Y-114484913D01*
X180703091Y-114543787D01*
X180853978Y-114573800D01*
X181007822Y-114573800D01*
X181158709Y-114543787D01*
X181300842Y-114484913D01*
X181428759Y-114399442D01*
X181537542Y-114290659D01*
X181623013Y-114162742D01*
X181681887Y-114020609D01*
X181711900Y-113869722D01*
X181711900Y-113715878D01*
X181707944Y-113695992D01*
X182678617Y-112725320D01*
X186542223Y-112725320D01*
X185436955Y-113830588D01*
X185451697Y-113794999D01*
X185481710Y-113644112D01*
X185481710Y-113490268D01*
X185451697Y-113339381D01*
X185392823Y-113197248D01*
X185307352Y-113069331D01*
X185198569Y-112960548D01*
X185070652Y-112875077D01*
X184928519Y-112816203D01*
X184777632Y-112786190D01*
X184623788Y-112786190D01*
X184472901Y-112816203D01*
X184330768Y-112875077D01*
X184202851Y-112960548D01*
X184094068Y-113069331D01*
X184008597Y-113197248D01*
X183949723Y-113339381D01*
X183919710Y-113490268D01*
X183919710Y-113526532D01*
X183895512Y-113550731D01*
X183859247Y-113550731D01*
X183708360Y-113580744D01*
X183566227Y-113639618D01*
X183438310Y-113725089D01*
X183329527Y-113833872D01*
X183244056Y-113961789D01*
X183185182Y-114103922D01*
X183155169Y-114254809D01*
X183155169Y-114291073D01*
X183066203Y-114380040D01*
X183029938Y-114380040D01*
X182879051Y-114410053D01*
X182736918Y-114468927D01*
X182609001Y-114554398D01*
X182500218Y-114663181D01*
X182414747Y-114791098D01*
X182355873Y-114933231D01*
X182325860Y-115084118D01*
X182325860Y-115120382D01*
X177864222Y-119582021D01*
X174703180Y-119582021D01*
X174677538Y-119556379D01*
X174611142Y-119512015D01*
X174743758Y-119457084D01*
X174863485Y-119377085D01*
X174965305Y-119275265D01*
X175045304Y-119155538D01*
X175100408Y-119022505D01*
X175128500Y-118881277D01*
X175128500Y-118737283D01*
X175100408Y-118596055D01*
X175045304Y-118463022D01*
X174965305Y-118343295D01*
X174863485Y-118241475D01*
X174743758Y-118161476D01*
X174610725Y-118106372D01*
X174469497Y-118078280D01*
X174325503Y-118078280D01*
X174184275Y-118106372D01*
X174051242Y-118161476D01*
X173931515Y-118241475D01*
X173829695Y-118343295D01*
X173749696Y-118463022D01*
X173694592Y-118596055D01*
X173666500Y-118737283D01*
X173666500Y-118881277D01*
X173694592Y-119022505D01*
X173749696Y-119155538D01*
X173829695Y-119275265D01*
X173931515Y-119377085D01*
X173976491Y-119407137D01*
X173951870Y-119412034D01*
X173809737Y-119470908D01*
X173681820Y-119556379D01*
X173656178Y-119582021D01*
X173405240Y-119582021D01*
X173379598Y-119556379D01*
X173251681Y-119470908D01*
X173109548Y-119412034D01*
X172958661Y-119382021D01*
X172804817Y-119382021D01*
X172653930Y-119412034D01*
X172511797Y-119470908D01*
X172383880Y-119556379D01*
X172358238Y-119582021D01*
X172060480Y-119582021D01*
X172034838Y-119556379D01*
X171906921Y-119470908D01*
X171764788Y-119412034D01*
X171613901Y-119382021D01*
X171460057Y-119382021D01*
X171309170Y-119412034D01*
X171167037Y-119470908D01*
X171039120Y-119556379D01*
X170930337Y-119665162D01*
X170844866Y-119793079D01*
X170785992Y-119935212D01*
X170755979Y-120086099D01*
X170755979Y-120239943D01*
X170785992Y-120390830D01*
X170844866Y-120532963D01*
X170930337Y-120660880D01*
X171039120Y-120769663D01*
X171167037Y-120855134D01*
X171309170Y-120914008D01*
X171460057Y-120944021D01*
X171613901Y-120944021D01*
X171764788Y-120914008D01*
X171906921Y-120855134D01*
X172034838Y-120769663D01*
X172060480Y-120744021D01*
X172358238Y-120744021D01*
X172383880Y-120769663D01*
X172511797Y-120855134D01*
X172653930Y-120914008D01*
X172804817Y-120944021D01*
X172958661Y-120944021D01*
X173109548Y-120914008D01*
X173251681Y-120855134D01*
X173379598Y-120769663D01*
X173405240Y-120744021D01*
X173656178Y-120744021D01*
X173681820Y-120769663D01*
X173809737Y-120855134D01*
X173951870Y-120914008D01*
X174102757Y-120944021D01*
X174256601Y-120944021D01*
X174407488Y-120914008D01*
X174549621Y-120855134D01*
X174677538Y-120769663D01*
X174703180Y-120744021D01*
X178076339Y-120744021D01*
X178104879Y-120746832D01*
X178133419Y-120744021D01*
X178218775Y-120735614D01*
X178328294Y-120702392D01*
X178429227Y-120648442D01*
X178517696Y-120575838D01*
X178535896Y-120553661D01*
X183147518Y-115942040D01*
X183183782Y-115942040D01*
X183334669Y-115912027D01*
X183476802Y-115853153D01*
X183518855Y-115825054D01*
X183516339Y-115833348D01*
X183503380Y-115876068D01*
X183494093Y-115970360D01*
X183496420Y-115993987D01*
X183496421Y-117745949D01*
X183495804Y-117789964D01*
X183500723Y-117816644D01*
X183503381Y-117843632D01*
X183509290Y-117863112D01*
X183512983Y-117883142D01*
X183523013Y-117908352D01*
X183530885Y-117934301D01*
X183532836Y-117937952D01*
X183385552Y-118085236D01*
X183382745Y-118087169D01*
X183352062Y-118118726D01*
X183337754Y-118133034D01*
X183335609Y-118135648D01*
X183333245Y-118138079D01*
X183320595Y-118153942D01*
X183292707Y-118187923D01*
X183291102Y-118190926D01*
X183287149Y-118195883D01*
X183266510Y-118218336D01*
X183245377Y-118253040D01*
X183223281Y-118287134D01*
X183212007Y-118315470D01*
X183197496Y-118345602D01*
X183182373Y-118372081D01*
X183169494Y-118410611D01*
X183155538Y-118448770D01*
X183150853Y-118478899D01*
X183143409Y-118511512D01*
X183134555Y-118540698D01*
X183130572Y-118581140D01*
X183125459Y-118621431D01*
X183127595Y-118651844D01*
X183127595Y-118685313D01*
X183125459Y-118715726D01*
X183130571Y-118756014D01*
X183134555Y-118796460D01*
X183143410Y-118825650D01*
X183150853Y-118858258D01*
X183155538Y-118888387D01*
X183169494Y-118926546D01*
X183182373Y-118965076D01*
X183197496Y-118991555D01*
X183212008Y-119021688D01*
X183223283Y-119050027D01*
X183245386Y-119084132D01*
X183266510Y-119118821D01*
X183287144Y-119141269D01*
X183308006Y-119167428D01*
X183325298Y-119192538D01*
X183354416Y-119220850D01*
X183382749Y-119249989D01*
X183407865Y-119267285D01*
X183434015Y-119288140D01*
X183456471Y-119308781D01*
X183491155Y-119329901D01*
X183525260Y-119352004D01*
X183553604Y-119363281D01*
X183583730Y-119377789D01*
X183610211Y-119392913D01*
X183648753Y-119405796D01*
X183686906Y-119419750D01*
X183717032Y-119424434D01*
X183749641Y-119431877D01*
X183778827Y-119440731D01*
X183819267Y-119444714D01*
X183859559Y-119449827D01*
X183889973Y-119447691D01*
X183923443Y-119447691D01*
X183953856Y-119449827D01*
X183994144Y-119444715D01*
X184034590Y-119440731D01*
X184063780Y-119431876D01*
X184096383Y-119424435D01*
X184126511Y-119419750D01*
X184164670Y-119405794D01*
X184203206Y-119392913D01*
X184229687Y-119377789D01*
X184259810Y-119363283D01*
X184288153Y-119352006D01*
X184322253Y-119329906D01*
X184356945Y-119308781D01*
X184379399Y-119288142D01*
X184384361Y-119284185D01*
X184387364Y-119282580D01*
X184421345Y-119254692D01*
X184437208Y-119242042D01*
X184439639Y-119239678D01*
X184442253Y-119237533D01*
X184456561Y-119223225D01*
X184488118Y-119192542D01*
X184490051Y-119189735D01*
X184613815Y-119065971D01*
X185234655Y-119686812D01*
X185265255Y-119718282D01*
X185287584Y-119733659D01*
X185308557Y-119750871D01*
X185326520Y-119760473D01*
X185343290Y-119772021D01*
X185368198Y-119782750D01*
X185392118Y-119795535D01*
X185396080Y-119796737D01*
X185396080Y-120005032D01*
X185395464Y-120008373D01*
X185396080Y-120052329D01*
X185396080Y-120072626D01*
X185396412Y-120075993D01*
X185396459Y-120079373D01*
X185398732Y-120099546D01*
X185403041Y-120143292D01*
X185404026Y-120146540D01*
X185404738Y-120152860D01*
X185406021Y-120183322D01*
X185415611Y-120222779D01*
X185424098Y-120262526D01*
X185436164Y-120290540D01*
X185447214Y-120322117D01*
X185455243Y-120351531D01*
X185473383Y-120387886D01*
X185490495Y-120424732D01*
X185508487Y-120449350D01*
X185526284Y-120477674D01*
X185540659Y-120504568D01*
X185566436Y-120535977D01*
X185591317Y-120568091D01*
X185614339Y-120588091D01*
X185637988Y-120611740D01*
X185657988Y-120634762D01*
X185690102Y-120659643D01*
X185721511Y-120685420D01*
X185748405Y-120699795D01*
X185776729Y-120717592D01*
X185801347Y-120735584D01*
X185838193Y-120752696D01*
X185874548Y-120770836D01*
X185903962Y-120778865D01*
X185935536Y-120789914D01*
X185963547Y-120801979D01*
X186003279Y-120810463D01*
X186042757Y-120820058D01*
X186073226Y-120821341D01*
X186106465Y-120825086D01*
X186136460Y-120830616D01*
X186177080Y-120830046D01*
X186217700Y-120830616D01*
X186247691Y-120825087D01*
X186280933Y-120821341D01*
X186311402Y-120820058D01*
X186350877Y-120810464D01*
X186390613Y-120801979D01*
X186418623Y-120789914D01*
X186450197Y-120778865D01*
X186479611Y-120770836D01*
X186515966Y-120752696D01*
X186552812Y-120735584D01*
X186577430Y-120717592D01*
X186605754Y-120699795D01*
X186632648Y-120685420D01*
X186664057Y-120659643D01*
X186696171Y-120634762D01*
X186716171Y-120611740D01*
X186739820Y-120588091D01*
X186762842Y-120568091D01*
X186787723Y-120535977D01*
X186813500Y-120504568D01*
X186827875Y-120477674D01*
X186845672Y-120449350D01*
X186863664Y-120424732D01*
X186880776Y-120387886D01*
X186898916Y-120351531D01*
X186906945Y-120322117D01*
X186917994Y-120290543D01*
X186930059Y-120262533D01*
X186938545Y-120222792D01*
X186948138Y-120183322D01*
X186949421Y-120152855D01*
X186950131Y-120146552D01*
X186951120Y-120143292D01*
X186955434Y-120099488D01*
X186957700Y-120079381D01*
X186957747Y-120076003D01*
X186958080Y-120072626D01*
X186958080Y-120052292D01*
X186958696Y-120008380D01*
X186958080Y-120005039D01*
X186958080Y-119830000D01*
X188766684Y-119830000D01*
X188731340Y-120007682D01*
X188731340Y-120240318D01*
X188776726Y-120468485D01*
X188865752Y-120683413D01*
X188994998Y-120876843D01*
X189064066Y-120945911D01*
X189037651Y-120948513D01*
X188965832Y-120970299D01*
X188899644Y-121005678D01*
X188841629Y-121053289D01*
X188794018Y-121111304D01*
X188758639Y-121177492D01*
X188736853Y-121249311D01*
X188729497Y-121324000D01*
X188729497Y-122924000D01*
X188736853Y-122998689D01*
X188758639Y-123070508D01*
X188794018Y-123136696D01*
X188841629Y-123194711D01*
X188899644Y-123242322D01*
X188965832Y-123277701D01*
X189037651Y-123299487D01*
X189112340Y-123306843D01*
X190712340Y-123306843D01*
X190787029Y-123299487D01*
X190858848Y-123277701D01*
X190925036Y-123242322D01*
X190983051Y-123194711D01*
X191030662Y-123136696D01*
X191066041Y-123070508D01*
X191087827Y-122998689D01*
X191095183Y-122924000D01*
X191095183Y-121324000D01*
X191087827Y-121249311D01*
X191066041Y-121177492D01*
X191030662Y-121111304D01*
X190983051Y-121053289D01*
X190925036Y-121005678D01*
X190858848Y-120970299D01*
X190787029Y-120948513D01*
X190760614Y-120945911D01*
X190829682Y-120876843D01*
X190958928Y-120683413D01*
X191047954Y-120468485D01*
X191093340Y-120240318D01*
X191093340Y-120007682D01*
X191047954Y-119779515D01*
X190958928Y-119564587D01*
X190829682Y-119371157D01*
X190665183Y-119206658D01*
X190541477Y-119124000D01*
X190665183Y-119041342D01*
X190829682Y-118876843D01*
X190958928Y-118683413D01*
X191047954Y-118468485D01*
X191093340Y-118240318D01*
X191093340Y-118007682D01*
X191047954Y-117779515D01*
X190958928Y-117564587D01*
X190829682Y-117371157D01*
X190665183Y-117206658D01*
X190471753Y-117077412D01*
X190256825Y-116988386D01*
X190028658Y-116943000D01*
X189796022Y-116943000D01*
X189567855Y-116988386D01*
X189352927Y-117077412D01*
X189159497Y-117206658D01*
X188994998Y-117371157D01*
X188865752Y-117564587D01*
X188776726Y-117779515D01*
X188731340Y-118007682D01*
X188731340Y-118240318D01*
X188766684Y-118418000D01*
X185962717Y-118418000D01*
X184908420Y-117363704D01*
X184908420Y-116355996D01*
X190030659Y-111233757D01*
X190989000Y-111233757D01*
X190989000Y-111476243D01*
X191036307Y-111714069D01*
X191129102Y-111938097D01*
X191263820Y-112139717D01*
X191435283Y-112311180D01*
X191636903Y-112445898D01*
X191860931Y-112538693D01*
X192098757Y-112586000D01*
X192341243Y-112586000D01*
X192579069Y-112538693D01*
X192803097Y-112445898D01*
X193004717Y-112311180D01*
X193176180Y-112139717D01*
X193310898Y-111938097D01*
X193403693Y-111714069D01*
X193451000Y-111476243D01*
X193451000Y-111233757D01*
X193403693Y-110995931D01*
X193310898Y-110771903D01*
X193176180Y-110570283D01*
X193004717Y-110398820D01*
X192803097Y-110264102D01*
X192579069Y-110171307D01*
X192341243Y-110124000D01*
X192098757Y-110124000D01*
X191860931Y-110171307D01*
X191636903Y-110264102D01*
X191435283Y-110398820D01*
X191263820Y-110570283D01*
X191129102Y-110771903D01*
X191036307Y-110995931D01*
X190989000Y-111233757D01*
X190030659Y-111233757D01*
X191393411Y-109871006D01*
X191411763Y-109855945D01*
X191465021Y-109791050D01*
X191636903Y-109905898D01*
X191860931Y-109998693D01*
X192098757Y-110046000D01*
X192341243Y-110046000D01*
X192579069Y-109998693D01*
X192803097Y-109905898D01*
X193004717Y-109771180D01*
X193176180Y-109599717D01*
X193310898Y-109398097D01*
X193403693Y-109174069D01*
X193451000Y-108936243D01*
X193451000Y-108693757D01*
X193403693Y-108455931D01*
X193310898Y-108231903D01*
X193176180Y-108030283D01*
X193012568Y-107866671D01*
X193019766Y-107860764D01*
X193034832Y-107842406D01*
X193473891Y-107403348D01*
X193466072Y-123613295D01*
X193425400Y-123707519D01*
X193304534Y-123883067D01*
X193151874Y-124031794D01*
X192973232Y-124148038D01*
X192775416Y-124227370D01*
X192555175Y-124268795D01*
X192461054Y-124272948D01*
X167193431Y-124244050D01*
X166988158Y-124199865D01*
X166792481Y-124115400D01*
X166616933Y-123994534D01*
X166468206Y-123841874D01*
X166351962Y-123663232D01*
X166272630Y-123465416D01*
X166231205Y-123245175D01*
X166227043Y-123150832D01*
X166226973Y-118737283D01*
X167886500Y-118737283D01*
X167886500Y-118881277D01*
X167914592Y-119022505D01*
X167969696Y-119155538D01*
X168049695Y-119275265D01*
X168151515Y-119377085D01*
X168271242Y-119457084D01*
X168404275Y-119512188D01*
X168545503Y-119540280D01*
X168689497Y-119540280D01*
X168830725Y-119512188D01*
X168963758Y-119457084D01*
X169083485Y-119377085D01*
X169185305Y-119275265D01*
X169265304Y-119155538D01*
X169320408Y-119022505D01*
X169348500Y-118881277D01*
X169348500Y-118737283D01*
X169320408Y-118596055D01*
X169265304Y-118463022D01*
X169185305Y-118343295D01*
X169083485Y-118241475D01*
X168963758Y-118161476D01*
X168830725Y-118106372D01*
X168689497Y-118078280D01*
X168545503Y-118078280D01*
X168404275Y-118106372D01*
X168271242Y-118161476D01*
X168151515Y-118241475D01*
X168049695Y-118343295D01*
X167969696Y-118463022D01*
X167914592Y-118596055D01*
X167886500Y-118737283D01*
X166226973Y-118737283D01*
X166226696Y-101455477D01*
X166246307Y-101554069D01*
X166339102Y-101778097D01*
X166473820Y-101979717D01*
X166645283Y-102151180D01*
X166846903Y-102285898D01*
X167070931Y-102378693D01*
X167308757Y-102426000D01*
X167551243Y-102426000D01*
X167789069Y-102378693D01*
X168013097Y-102285898D01*
X168214717Y-102151180D01*
X168386180Y-101979717D01*
X168520898Y-101778097D01*
X168613693Y-101554069D01*
X168661000Y-101316243D01*
X168661000Y-101073757D01*
X168613693Y-100835931D01*
X168520898Y-100611903D01*
X168386180Y-100410283D01*
X168278415Y-100302518D01*
X168601660Y-100302518D01*
X168601660Y-100456362D01*
X168631673Y-100607249D01*
X168690547Y-100749382D01*
X168776018Y-100877299D01*
X168884801Y-100986082D01*
X169012718Y-101071553D01*
X169154851Y-101130427D01*
X169305738Y-101160440D01*
X169459582Y-101160440D01*
X169610469Y-101130427D01*
X169752602Y-101071553D01*
X169880519Y-100986082D01*
X169989302Y-100877299D01*
X170074773Y-100749382D01*
X170133647Y-100607249D01*
X170163660Y-100456362D01*
X170163660Y-100302518D01*
X170133647Y-100151631D01*
X170074773Y-100009498D01*
X169989302Y-99881581D01*
X169880519Y-99772798D01*
X169752602Y-99687327D01*
X169610469Y-99628453D01*
X169459582Y-99598440D01*
X169305738Y-99598440D01*
X169154851Y-99628453D01*
X169012718Y-99687327D01*
X168884801Y-99772798D01*
X168776018Y-99881581D01*
X168690547Y-100009498D01*
X168631673Y-100151631D01*
X168601660Y-100302518D01*
X168278415Y-100302518D01*
X168214717Y-100238820D01*
X168013097Y-100104102D01*
X167789069Y-100011307D01*
X167551243Y-99964000D01*
X167308757Y-99964000D01*
X167070931Y-100011307D01*
X166846903Y-100104102D01*
X166645283Y-100238820D01*
X166473820Y-100410283D01*
X166339102Y-100611903D01*
X166246307Y-100835931D01*
X166226687Y-100934565D01*
X166226655Y-98915272D01*
X166246307Y-99014069D01*
X166339102Y-99238097D01*
X166473820Y-99439717D01*
X166645283Y-99611180D01*
X166846903Y-99745898D01*
X167070931Y-99838693D01*
X167308757Y-99886000D01*
X167551243Y-99886000D01*
X167789069Y-99838693D01*
X168013097Y-99745898D01*
X168214717Y-99611180D01*
X168386180Y-99439717D01*
X168520898Y-99238097D01*
X168613693Y-99014069D01*
X168661000Y-98776243D01*
X168661000Y-98533757D01*
X168613693Y-98295931D01*
X168520898Y-98071903D01*
X168386180Y-97870283D01*
X168214717Y-97698820D01*
X168013097Y-97564102D01*
X167789069Y-97471307D01*
X167551243Y-97424000D01*
X167308757Y-97424000D01*
X167070931Y-97471307D01*
X166846903Y-97564102D01*
X166645283Y-97698820D01*
X166473820Y-97870283D01*
X166339102Y-98071903D01*
X166246307Y-98295931D01*
X166226647Y-98394769D01*
X166226614Y-96375068D01*
X166246307Y-96474069D01*
X166339102Y-96698097D01*
X166473820Y-96899717D01*
X166645283Y-97071180D01*
X166846903Y-97205898D01*
X167070931Y-97298693D01*
X167308757Y-97346000D01*
X167551243Y-97346000D01*
X167789069Y-97298693D01*
X168013097Y-97205898D01*
X168214717Y-97071180D01*
X168386180Y-96899717D01*
X168520898Y-96698097D01*
X168613693Y-96474069D01*
X168661000Y-96236243D01*
X168661000Y-95993757D01*
X168613693Y-95755931D01*
X168520898Y-95531903D01*
X168386180Y-95330283D01*
X168214717Y-95158820D01*
X168013097Y-95024102D01*
X167789069Y-94931307D01*
X167551243Y-94884000D01*
X167308757Y-94884000D01*
X167070931Y-94931307D01*
X166846903Y-95024102D01*
X166645283Y-95158820D01*
X166473820Y-95330283D01*
X166339102Y-95531903D01*
X166246307Y-95755931D01*
X166226606Y-95854974D01*
X166226574Y-93834864D01*
X166246307Y-93934069D01*
X166339102Y-94158097D01*
X166473820Y-94359717D01*
X166645283Y-94531180D01*
X166846903Y-94665898D01*
X167070931Y-94758693D01*
X167308757Y-94806000D01*
X167551243Y-94806000D01*
X167789069Y-94758693D01*
X168013097Y-94665898D01*
X168214717Y-94531180D01*
X168386180Y-94359717D01*
X168520898Y-94158097D01*
X168613693Y-93934069D01*
X168661000Y-93696243D01*
X168661000Y-93453757D01*
X168613693Y-93215931D01*
X168520898Y-92991903D01*
X168386180Y-92790283D01*
X168214717Y-92618820D01*
X168013097Y-92484102D01*
X167789069Y-92391307D01*
X167551243Y-92344000D01*
X167308757Y-92344000D01*
X167070931Y-92391307D01*
X166846903Y-92484102D01*
X166645283Y-92618820D01*
X166473820Y-92790283D01*
X166339102Y-92991903D01*
X166246307Y-93215931D01*
X166226565Y-93315178D01*
X166226533Y-91294660D01*
X166246307Y-91394069D01*
X166339102Y-91618097D01*
X166473820Y-91819717D01*
X166645283Y-91991180D01*
X166846903Y-92125898D01*
X167070931Y-92218693D01*
X167308757Y-92266000D01*
X167551243Y-92266000D01*
X167789069Y-92218693D01*
X168013097Y-92125898D01*
X168214717Y-91991180D01*
X168386180Y-91819717D01*
X168520898Y-91618097D01*
X168613693Y-91394069D01*
X168661000Y-91156243D01*
X168661000Y-90913757D01*
X168613693Y-90675931D01*
X168520898Y-90451903D01*
X168386180Y-90250283D01*
X168214717Y-90078820D01*
X168013097Y-89944102D01*
X167789069Y-89851307D01*
X167551243Y-89804000D01*
X167308757Y-89804000D01*
X167070931Y-89851307D01*
X166846903Y-89944102D01*
X166645283Y-90078820D01*
X166473820Y-90250283D01*
X166339102Y-90451903D01*
X166246307Y-90675931D01*
X166226525Y-90775382D01*
X166226492Y-88754455D01*
X166246307Y-88854069D01*
X166339102Y-89078097D01*
X166473820Y-89279717D01*
X166645283Y-89451180D01*
X166846903Y-89585898D01*
X167070931Y-89678693D01*
X167308757Y-89726000D01*
X167551243Y-89726000D01*
X167789069Y-89678693D01*
X168013097Y-89585898D01*
X168214717Y-89451180D01*
X168386180Y-89279717D01*
X168520898Y-89078097D01*
X168613693Y-88854069D01*
X168661000Y-88616243D01*
X168661000Y-88373757D01*
X168613693Y-88135931D01*
X168571403Y-88033833D01*
X170826212Y-85779025D01*
X170844564Y-85763964D01*
X170904672Y-85690722D01*
X170949336Y-85607161D01*
X170976840Y-85516492D01*
X170983800Y-85445826D01*
X170983800Y-85445817D01*
X170986126Y-85422201D01*
X170983800Y-85398585D01*
X170983800Y-77666436D01*
X171129237Y-77521000D01*
X171960487Y-77521000D01*
X171971338Y-77537239D01*
%TA.AperFunction,Conductor*%
D20*
G36*
X171971338Y-77537239D02*
G01*
X172080121Y-77646022D01*
X172208038Y-77731493D01*
X172350171Y-77790367D01*
X172501058Y-77820380D01*
X172654902Y-77820380D01*
X172805789Y-77790367D01*
X172947922Y-77731493D01*
X172950421Y-77729824D01*
X172950421Y-83450596D01*
X172887442Y-83356341D01*
X172778659Y-83247558D01*
X172650742Y-83162087D01*
X172508609Y-83103213D01*
X172357722Y-83073200D01*
X172203878Y-83073200D01*
X172052991Y-83103213D01*
X171910858Y-83162087D01*
X171782941Y-83247558D01*
X171674158Y-83356341D01*
X171588687Y-83484258D01*
X171529813Y-83626391D01*
X171499800Y-83777278D01*
X171499800Y-83931122D01*
X171529813Y-84082009D01*
X171588687Y-84224142D01*
X171674158Y-84352059D01*
X171782941Y-84460842D01*
X171910858Y-84546313D01*
X172052991Y-84605187D01*
X172203878Y-84635200D01*
X172357722Y-84635200D01*
X172508609Y-84605187D01*
X172650742Y-84546313D01*
X172778659Y-84460842D01*
X172887442Y-84352059D01*
X172950421Y-84257804D01*
X172950421Y-93126623D01*
X171156075Y-94920969D01*
X171137717Y-94936035D01*
X171077609Y-95009277D01*
X171032945Y-95092839D01*
X171019100Y-95138480D01*
X171005441Y-95183507D01*
X170996154Y-95277799D01*
X170998481Y-95301425D01*
X170998482Y-107431987D01*
X170996154Y-107455623D01*
X171005441Y-107549915D01*
X171030671Y-107633084D01*
X171032946Y-107640584D01*
X171077610Y-107724145D01*
X171137718Y-107797387D01*
X171156070Y-107812448D01*
X171241570Y-107897948D01*
X171237614Y-107917834D01*
X171237614Y-108071678D01*
X171267627Y-108222565D01*
X171326501Y-108364698D01*
X171411972Y-108492615D01*
X171520755Y-108601398D01*
X171648672Y-108686869D01*
X171790805Y-108745743D01*
X171941692Y-108775756D01*
X172095536Y-108775756D01*
X172246423Y-108745743D01*
X172388556Y-108686869D01*
X172516473Y-108601398D01*
X172625256Y-108492615D01*
X172710727Y-108364698D01*
X172769601Y-108222565D01*
X172799614Y-108071678D01*
X172799614Y-107917834D01*
X172769601Y-107766947D01*
X172710727Y-107624814D01*
X172625256Y-107496897D01*
X172516473Y-107388114D01*
X172388556Y-107302643D01*
X172246423Y-107243769D01*
X172095536Y-107213756D01*
X171960481Y-107213756D01*
X171960481Y-96265772D01*
X171991713Y-96278709D01*
X172142600Y-96308722D01*
X172296444Y-96308722D01*
X172447331Y-96278709D01*
X172589464Y-96219835D01*
X172717381Y-96134364D01*
X172826164Y-96025581D01*
X172911635Y-95897664D01*
X172970509Y-95755531D01*
X173000522Y-95604644D01*
X173000522Y-95450800D01*
X172996566Y-95430914D01*
X174219391Y-94208090D01*
X174219391Y-94487572D01*
X173139894Y-95567070D01*
X173121536Y-95582136D01*
X173061428Y-95655378D01*
X173016764Y-95738940D01*
X173011610Y-95755931D01*
X172989260Y-95829608D01*
X172979973Y-95923900D01*
X172982300Y-95947526D01*
X172982301Y-110436773D01*
X172965441Y-110448038D01*
X172856658Y-110556821D01*
X172771187Y-110684738D01*
X172712313Y-110826871D01*
X172682300Y-110977758D01*
X172682300Y-111131602D01*
X172712313Y-111282489D01*
X172771187Y-111424622D01*
X172856658Y-111552539D01*
X172965441Y-111661322D01*
X173093358Y-111746793D01*
X173213312Y-111796480D01*
X172829846Y-111796480D01*
X172806220Y-111794153D01*
X172711927Y-111803440D01*
X172621258Y-111830944D01*
X172576594Y-111854818D01*
X172537698Y-111875608D01*
X172464456Y-111935716D01*
X172449395Y-111954068D01*
X171459094Y-112944370D01*
X171440736Y-112959436D01*
X171380628Y-113032678D01*
X171335964Y-113116240D01*
X171321419Y-113164188D01*
X171308460Y-113206908D01*
X171299173Y-113301200D01*
X171301500Y-113324827D01*
X171301501Y-114004702D01*
X171254691Y-114014013D01*
X171112558Y-114072887D01*
X170984641Y-114158358D01*
X170875858Y-114267141D01*
X170790387Y-114395058D01*
X170731513Y-114537191D01*
X170701500Y-114688078D01*
X170701500Y-114841922D01*
X170731513Y-114992809D01*
X170790387Y-115134942D01*
X170875858Y-115262859D01*
X170984641Y-115371642D01*
X171112558Y-115457113D01*
X171237823Y-115509000D01*
X168294589Y-115509000D01*
X168276642Y-115482141D01*
X168167859Y-115373358D01*
X168039942Y-115287887D01*
X167897809Y-115229013D01*
X167746922Y-115199000D01*
X167593078Y-115199000D01*
X167442191Y-115229013D01*
X167300058Y-115287887D01*
X167172141Y-115373358D01*
X167063358Y-115482141D01*
X166977887Y-115610058D01*
X166919013Y-115752191D01*
X166889000Y-115903078D01*
X166889000Y-116056922D01*
X166919013Y-116207809D01*
X166977887Y-116349942D01*
X167063358Y-116477859D01*
X167172141Y-116586642D01*
X167300058Y-116672113D01*
X167442191Y-116730987D01*
X167593078Y-116761000D01*
X167746922Y-116761000D01*
X167897809Y-116730987D01*
X168039942Y-116672113D01*
X168167859Y-116586642D01*
X168276642Y-116477859D01*
X168281225Y-116471000D01*
X172672093Y-116471000D01*
X172683358Y-116487859D01*
X172792141Y-116596642D01*
X172920058Y-116682113D01*
X173062191Y-116740987D01*
X173213078Y-116771000D01*
X173366922Y-116771000D01*
X173517809Y-116740987D01*
X173659942Y-116682113D01*
X173787859Y-116596642D01*
X173896642Y-116487859D01*
X173982113Y-116359942D01*
X174040987Y-116217809D01*
X174071000Y-116066922D01*
X174071000Y-115913078D01*
X174040987Y-115762191D01*
X173982113Y-115620058D01*
X173896642Y-115492141D01*
X173787859Y-115383358D01*
X173659942Y-115297887D01*
X173517809Y-115239013D01*
X173366922Y-115209000D01*
X173213078Y-115209000D01*
X173169313Y-115217705D01*
X173224613Y-115134942D01*
X173283487Y-114992809D01*
X173313500Y-114841922D01*
X173313500Y-114688078D01*
X173283487Y-114537191D01*
X173224613Y-114395058D01*
X173139142Y-114267141D01*
X173030359Y-114158358D01*
X172902442Y-114072887D01*
X172760309Y-114014013D01*
X172713500Y-114004702D01*
X172713500Y-113686836D01*
X173191857Y-113208480D01*
X177108719Y-113208480D01*
X177022258Y-113294941D01*
X176936787Y-113422858D01*
X176877913Y-113564991D01*
X176847900Y-113715878D01*
X176847900Y-113869722D01*
X176877913Y-114020609D01*
X176936787Y-114162742D01*
X177022258Y-114290659D01*
X177131041Y-114399442D01*
X177258958Y-114484913D01*
X177401091Y-114543787D01*
X177551978Y-114573800D01*
X177705822Y-114573800D01*
X177856709Y-114543787D01*
X177998842Y-114484913D01*
X178126759Y-114399442D01*
X178235542Y-114290659D01*
X178321013Y-114162742D01*
X178379887Y-114020609D01*
X178409900Y-113869722D01*
X178409900Y-113715878D01*
X178379887Y-113564991D01*
X178321013Y-113422858D01*
X178235542Y-113294941D01*
X178149081Y-113208480D01*
X178369034Y-113208480D01*
X178392660Y-113210807D01*
X178416286Y-113208480D01*
X178486952Y-113201520D01*
X178577621Y-113174016D01*
X178661182Y-113129352D01*
X178734424Y-113069244D01*
X178749490Y-113050886D01*
X179914672Y-111885705D01*
X179933024Y-111870644D01*
X179993132Y-111797402D01*
X180037796Y-111713841D01*
X180065300Y-111623172D01*
X180072260Y-111552506D01*
X180072260Y-111552505D01*
X180074587Y-111528881D01*
X180072260Y-111505257D01*
X180072260Y-110965469D01*
X180082546Y-110990301D01*
X180168017Y-111118218D01*
X180276800Y-111227001D01*
X180404717Y-111312472D01*
X180546850Y-111371346D01*
X180697737Y-111401359D01*
X180851581Y-111401359D01*
X180869169Y-111397861D01*
X180871622Y-111400850D01*
X180944864Y-111460958D01*
X180983760Y-111481748D01*
X181028424Y-111505622D01*
X181119093Y-111533126D01*
X181213386Y-111542413D01*
X181237012Y-111540086D01*
X186242660Y-111540086D01*
X186266286Y-111542413D01*
X186289912Y-111540086D01*
X186301731Y-111538922D01*
X186360578Y-111533126D01*
X186361234Y-111532927D01*
X186451247Y-111505622D01*
X186534808Y-111460958D01*
X186608050Y-111400850D01*
X186623116Y-111382492D01*
X191136476Y-106869133D01*
X191140790Y-106875589D01*
X190296602Y-107719777D01*
X190278244Y-107734843D01*
X190218136Y-107808085D01*
X190173472Y-107891647D01*
X190165427Y-107918169D01*
X190145968Y-107982315D01*
X190136681Y-108076607D01*
X190139008Y-108100234D01*
X190139009Y-109128534D01*
X187504224Y-111763320D01*
X182502995Y-111763320D01*
X182479379Y-111760994D01*
X182455763Y-111763320D01*
X182455754Y-111763320D01*
X182385088Y-111770280D01*
X182294419Y-111797784D01*
X182210858Y-111842448D01*
X182137616Y-111902556D01*
X182122555Y-111920908D01*
X181736992Y-112306472D01*
X181732687Y-112284831D01*
X181673813Y-112142698D01*
X181588342Y-112014781D01*
X181479559Y-111905998D01*
X181351642Y-111820527D01*
X181209509Y-111761653D01*
X181058622Y-111731640D01*
X180904778Y-111731640D01*
X180753891Y-111761653D01*
X180611758Y-111820527D01*
X180483841Y-111905998D01*
X180375058Y-112014781D01*
X180289587Y-112142698D01*
X180230713Y-112284831D01*
X180200700Y-112435718D01*
X180200700Y-112589562D01*
X180230713Y-112740449D01*
X180289587Y-112882582D01*
X180375058Y-113010499D01*
X180483841Y-113119282D01*
X180508485Y-113135748D01*
X180433041Y-113186158D01*
X180324258Y-113294941D01*
X180238787Y-113422858D01*
X180179913Y-113564991D01*
X180149900Y-113715878D01*
X180149900Y-113869722D01*
X180179913Y-114020609D01*
X180238787Y-114162742D01*
X180324258Y-114290659D01*
X180433041Y-114399442D01*
X180560958Y-114484913D01*
X180703091Y-114543787D01*
X180853978Y-114573800D01*
X181007822Y-114573800D01*
X181158709Y-114543787D01*
X181300842Y-114484913D01*
X181428759Y-114399442D01*
X181537542Y-114290659D01*
X181623013Y-114162742D01*
X181681887Y-114020609D01*
X181711900Y-113869722D01*
X181711900Y-113715878D01*
X181707944Y-113695992D01*
X182678617Y-112725320D01*
X186542223Y-112725320D01*
X185436955Y-113830588D01*
X185451697Y-113794999D01*
X185481710Y-113644112D01*
X185481710Y-113490268D01*
X185451697Y-113339381D01*
X185392823Y-113197248D01*
X185307352Y-113069331D01*
X185198569Y-112960548D01*
X185070652Y-112875077D01*
X184928519Y-112816203D01*
X184777632Y-112786190D01*
X184623788Y-112786190D01*
X184472901Y-112816203D01*
X184330768Y-112875077D01*
X184202851Y-112960548D01*
X184094068Y-113069331D01*
X184008597Y-113197248D01*
X183949723Y-113339381D01*
X183919710Y-113490268D01*
X183919710Y-113526532D01*
X183895512Y-113550731D01*
X183859247Y-113550731D01*
X183708360Y-113580744D01*
X183566227Y-113639618D01*
X183438310Y-113725089D01*
X183329527Y-113833872D01*
X183244056Y-113961789D01*
X183185182Y-114103922D01*
X183155169Y-114254809D01*
X183155169Y-114291073D01*
X183066203Y-114380040D01*
X183029938Y-114380040D01*
X182879051Y-114410053D01*
X182736918Y-114468927D01*
X182609001Y-114554398D01*
X182500218Y-114663181D01*
X182414747Y-114791098D01*
X182355873Y-114933231D01*
X182325860Y-115084118D01*
X182325860Y-115120382D01*
X177864222Y-119582021D01*
X174703180Y-119582021D01*
X174677538Y-119556379D01*
X174611142Y-119512015D01*
X174743758Y-119457084D01*
X174863485Y-119377085D01*
X174965305Y-119275265D01*
X175045304Y-119155538D01*
X175100408Y-119022505D01*
X175128500Y-118881277D01*
X175128500Y-118737283D01*
X175100408Y-118596055D01*
X175045304Y-118463022D01*
X174965305Y-118343295D01*
X174863485Y-118241475D01*
X174743758Y-118161476D01*
X174610725Y-118106372D01*
X174469497Y-118078280D01*
X174325503Y-118078280D01*
X174184275Y-118106372D01*
X174051242Y-118161476D01*
X173931515Y-118241475D01*
X173829695Y-118343295D01*
X173749696Y-118463022D01*
X173694592Y-118596055D01*
X173666500Y-118737283D01*
X173666500Y-118881277D01*
X173694592Y-119022505D01*
X173749696Y-119155538D01*
X173829695Y-119275265D01*
X173931515Y-119377085D01*
X173976491Y-119407137D01*
X173951870Y-119412034D01*
X173809737Y-119470908D01*
X173681820Y-119556379D01*
X173656178Y-119582021D01*
X173405240Y-119582021D01*
X173379598Y-119556379D01*
X173251681Y-119470908D01*
X173109548Y-119412034D01*
X172958661Y-119382021D01*
X172804817Y-119382021D01*
X172653930Y-119412034D01*
X172511797Y-119470908D01*
X172383880Y-119556379D01*
X172358238Y-119582021D01*
X172060480Y-119582021D01*
X172034838Y-119556379D01*
X171906921Y-119470908D01*
X171764788Y-119412034D01*
X171613901Y-119382021D01*
X171460057Y-119382021D01*
X171309170Y-119412034D01*
X171167037Y-119470908D01*
X171039120Y-119556379D01*
X170930337Y-119665162D01*
X170844866Y-119793079D01*
X170785992Y-119935212D01*
X170755979Y-120086099D01*
X170755979Y-120239943D01*
X170785992Y-120390830D01*
X170844866Y-120532963D01*
X170930337Y-120660880D01*
X171039120Y-120769663D01*
X171167037Y-120855134D01*
X171309170Y-120914008D01*
X171460057Y-120944021D01*
X171613901Y-120944021D01*
X171764788Y-120914008D01*
X171906921Y-120855134D01*
X172034838Y-120769663D01*
X172060480Y-120744021D01*
X172358238Y-120744021D01*
X172383880Y-120769663D01*
X172511797Y-120855134D01*
X172653930Y-120914008D01*
X172804817Y-120944021D01*
X172958661Y-120944021D01*
X173109548Y-120914008D01*
X173251681Y-120855134D01*
X173379598Y-120769663D01*
X173405240Y-120744021D01*
X173656178Y-120744021D01*
X173681820Y-120769663D01*
X173809737Y-120855134D01*
X173951870Y-120914008D01*
X174102757Y-120944021D01*
X174256601Y-120944021D01*
X174407488Y-120914008D01*
X174549621Y-120855134D01*
X174677538Y-120769663D01*
X174703180Y-120744021D01*
X178076339Y-120744021D01*
X178104879Y-120746832D01*
X178133419Y-120744021D01*
X178218775Y-120735614D01*
X178328294Y-120702392D01*
X178429227Y-120648442D01*
X178517696Y-120575838D01*
X178535896Y-120553661D01*
X183147518Y-115942040D01*
X183183782Y-115942040D01*
X183334669Y-115912027D01*
X183476802Y-115853153D01*
X183518855Y-115825054D01*
X183516339Y-115833348D01*
X183503380Y-115876068D01*
X183494093Y-115970360D01*
X183496420Y-115993987D01*
X183496421Y-117745949D01*
X183495804Y-117789964D01*
X183500723Y-117816644D01*
X183503381Y-117843632D01*
X183509290Y-117863112D01*
X183512983Y-117883142D01*
X183523013Y-117908352D01*
X183530885Y-117934301D01*
X183532836Y-117937952D01*
X183385552Y-118085236D01*
X183382745Y-118087169D01*
X183352062Y-118118726D01*
X183337754Y-118133034D01*
X183335609Y-118135648D01*
X183333245Y-118138079D01*
X183320595Y-118153942D01*
X183292707Y-118187923D01*
X183291102Y-118190926D01*
X183287149Y-118195883D01*
X183266510Y-118218336D01*
X183245377Y-118253040D01*
X183223281Y-118287134D01*
X183212007Y-118315470D01*
X183197496Y-118345602D01*
X183182373Y-118372081D01*
X183169494Y-118410611D01*
X183155538Y-118448770D01*
X183150853Y-118478899D01*
X183143409Y-118511512D01*
X183134555Y-118540698D01*
X183130572Y-118581140D01*
X183125459Y-118621431D01*
X183127595Y-118651844D01*
X183127595Y-118685313D01*
X183125459Y-118715726D01*
X183130571Y-118756014D01*
X183134555Y-118796460D01*
X183143410Y-118825650D01*
X183150853Y-118858258D01*
X183155538Y-118888387D01*
X183169494Y-118926546D01*
X183182373Y-118965076D01*
X183197496Y-118991555D01*
X183212008Y-119021688D01*
X183223283Y-119050027D01*
X183245386Y-119084132D01*
X183266510Y-119118821D01*
X183287144Y-119141269D01*
X183308006Y-119167428D01*
X183325298Y-119192538D01*
X183354416Y-119220850D01*
X183382749Y-119249989D01*
X183407865Y-119267285D01*
X183434015Y-119288140D01*
X183456471Y-119308781D01*
X183491155Y-119329901D01*
X183525260Y-119352004D01*
X183553604Y-119363281D01*
X183583730Y-119377789D01*
X183610211Y-119392913D01*
X183648753Y-119405796D01*
X183686906Y-119419750D01*
X183717032Y-119424434D01*
X183749641Y-119431877D01*
X183778827Y-119440731D01*
X183819267Y-119444714D01*
X183859559Y-119449827D01*
X183889973Y-119447691D01*
X183923443Y-119447691D01*
X183953856Y-119449827D01*
X183994144Y-119444715D01*
X184034590Y-119440731D01*
X184063780Y-119431876D01*
X184096383Y-119424435D01*
X184126511Y-119419750D01*
X184164670Y-119405794D01*
X184203206Y-119392913D01*
X184229687Y-119377789D01*
X184259810Y-119363283D01*
X184288153Y-119352006D01*
X184322253Y-119329906D01*
X184356945Y-119308781D01*
X184379399Y-119288142D01*
X184384361Y-119284185D01*
X184387364Y-119282580D01*
X184421345Y-119254692D01*
X184437208Y-119242042D01*
X184439639Y-119239678D01*
X184442253Y-119237533D01*
X184456561Y-119223225D01*
X184488118Y-119192542D01*
X184490051Y-119189735D01*
X184613815Y-119065971D01*
X185234655Y-119686812D01*
X185265255Y-119718282D01*
X185287584Y-119733659D01*
X185308557Y-119750871D01*
X185326520Y-119760473D01*
X185343290Y-119772021D01*
X185368198Y-119782750D01*
X185392118Y-119795535D01*
X185396080Y-119796737D01*
X185396080Y-120005032D01*
X185395464Y-120008373D01*
X185396080Y-120052329D01*
X185396080Y-120072626D01*
X185396412Y-120075993D01*
X185396459Y-120079373D01*
X185398732Y-120099546D01*
X185403041Y-120143292D01*
X185404026Y-120146540D01*
X185404738Y-120152860D01*
X185406021Y-120183322D01*
X185415611Y-120222779D01*
X185424098Y-120262526D01*
X185436164Y-120290540D01*
X185447214Y-120322117D01*
X185455243Y-120351531D01*
X185473383Y-120387886D01*
X185490495Y-120424732D01*
X185508487Y-120449350D01*
X185526284Y-120477674D01*
X185540659Y-120504568D01*
X185566436Y-120535977D01*
X185591317Y-120568091D01*
X185614339Y-120588091D01*
X185637988Y-120611740D01*
X185657988Y-120634762D01*
X185690102Y-120659643D01*
X185721511Y-120685420D01*
X185748405Y-120699795D01*
X185776729Y-120717592D01*
X185801347Y-120735584D01*
X185838193Y-120752696D01*
X185874548Y-120770836D01*
X185903962Y-120778865D01*
X185935536Y-120789914D01*
X185963547Y-120801979D01*
X186003279Y-120810463D01*
X186042757Y-120820058D01*
X186073226Y-120821341D01*
X186106465Y-120825086D01*
X186136460Y-120830616D01*
X186177080Y-120830046D01*
X186217700Y-120830616D01*
X186247691Y-120825087D01*
X186280933Y-120821341D01*
X186311402Y-120820058D01*
X186350877Y-120810464D01*
X186390613Y-120801979D01*
X186418623Y-120789914D01*
X186450197Y-120778865D01*
X186479611Y-120770836D01*
X186515966Y-120752696D01*
X186552812Y-120735584D01*
X186577430Y-120717592D01*
X186605754Y-120699795D01*
X186632648Y-120685420D01*
X186664057Y-120659643D01*
X186696171Y-120634762D01*
X186716171Y-120611740D01*
X186739820Y-120588091D01*
X186762842Y-120568091D01*
X186787723Y-120535977D01*
X186813500Y-120504568D01*
X186827875Y-120477674D01*
X186845672Y-120449350D01*
X186863664Y-120424732D01*
X186880776Y-120387886D01*
X186898916Y-120351531D01*
X186906945Y-120322117D01*
X186917994Y-120290543D01*
X186930059Y-120262533D01*
X186938545Y-120222792D01*
X186948138Y-120183322D01*
X186949421Y-120152855D01*
X186950131Y-120146552D01*
X186951120Y-120143292D01*
X186955434Y-120099488D01*
X186957700Y-120079381D01*
X186957747Y-120076003D01*
X186958080Y-120072626D01*
X186958080Y-120052292D01*
X186958696Y-120008380D01*
X186958080Y-120005039D01*
X186958080Y-119830000D01*
X188766684Y-119830000D01*
X188731340Y-120007682D01*
X188731340Y-120240318D01*
X188776726Y-120468485D01*
X188865752Y-120683413D01*
X188994998Y-120876843D01*
X189064066Y-120945911D01*
X189037651Y-120948513D01*
X188965832Y-120970299D01*
X188899644Y-121005678D01*
X188841629Y-121053289D01*
X188794018Y-121111304D01*
X188758639Y-121177492D01*
X188736853Y-121249311D01*
X188729497Y-121324000D01*
X188729497Y-122924000D01*
X188736853Y-122998689D01*
X188758639Y-123070508D01*
X188794018Y-123136696D01*
X188841629Y-123194711D01*
X188899644Y-123242322D01*
X188965832Y-123277701D01*
X189037651Y-123299487D01*
X189112340Y-123306843D01*
X190712340Y-123306843D01*
X190787029Y-123299487D01*
X190858848Y-123277701D01*
X190925036Y-123242322D01*
X190983051Y-123194711D01*
X191030662Y-123136696D01*
X191066041Y-123070508D01*
X191087827Y-122998689D01*
X191095183Y-122924000D01*
X191095183Y-121324000D01*
X191087827Y-121249311D01*
X191066041Y-121177492D01*
X191030662Y-121111304D01*
X190983051Y-121053289D01*
X190925036Y-121005678D01*
X190858848Y-120970299D01*
X190787029Y-120948513D01*
X190760614Y-120945911D01*
X190829682Y-120876843D01*
X190958928Y-120683413D01*
X191047954Y-120468485D01*
X191093340Y-120240318D01*
X191093340Y-120007682D01*
X191047954Y-119779515D01*
X190958928Y-119564587D01*
X190829682Y-119371157D01*
X190665183Y-119206658D01*
X190541477Y-119124000D01*
X190665183Y-119041342D01*
X190829682Y-118876843D01*
X190958928Y-118683413D01*
X191047954Y-118468485D01*
X191093340Y-118240318D01*
X191093340Y-118007682D01*
X191047954Y-117779515D01*
X190958928Y-117564587D01*
X190829682Y-117371157D01*
X190665183Y-117206658D01*
X190471753Y-117077412D01*
X190256825Y-116988386D01*
X190028658Y-116943000D01*
X189796022Y-116943000D01*
X189567855Y-116988386D01*
X189352927Y-117077412D01*
X189159497Y-117206658D01*
X188994998Y-117371157D01*
X188865752Y-117564587D01*
X188776726Y-117779515D01*
X188731340Y-118007682D01*
X188731340Y-118240318D01*
X188766684Y-118418000D01*
X185962717Y-118418000D01*
X184908420Y-117363704D01*
X184908420Y-116355996D01*
X190030659Y-111233757D01*
X190989000Y-111233757D01*
X190989000Y-111476243D01*
X191036307Y-111714069D01*
X191129102Y-111938097D01*
X191263820Y-112139717D01*
X191435283Y-112311180D01*
X191636903Y-112445898D01*
X191860931Y-112538693D01*
X192098757Y-112586000D01*
X192341243Y-112586000D01*
X192579069Y-112538693D01*
X192803097Y-112445898D01*
X193004717Y-112311180D01*
X193176180Y-112139717D01*
X193310898Y-111938097D01*
X193403693Y-111714069D01*
X193451000Y-111476243D01*
X193451000Y-111233757D01*
X193403693Y-110995931D01*
X193310898Y-110771903D01*
X193176180Y-110570283D01*
X193004717Y-110398820D01*
X192803097Y-110264102D01*
X192579069Y-110171307D01*
X192341243Y-110124000D01*
X192098757Y-110124000D01*
X191860931Y-110171307D01*
X191636903Y-110264102D01*
X191435283Y-110398820D01*
X191263820Y-110570283D01*
X191129102Y-110771903D01*
X191036307Y-110995931D01*
X190989000Y-111233757D01*
X190030659Y-111233757D01*
X191393411Y-109871006D01*
X191411763Y-109855945D01*
X191465021Y-109791050D01*
X191636903Y-109905898D01*
X191860931Y-109998693D01*
X192098757Y-110046000D01*
X192341243Y-110046000D01*
X192579069Y-109998693D01*
X192803097Y-109905898D01*
X193004717Y-109771180D01*
X193176180Y-109599717D01*
X193310898Y-109398097D01*
X193403693Y-109174069D01*
X193451000Y-108936243D01*
X193451000Y-108693757D01*
X193403693Y-108455931D01*
X193310898Y-108231903D01*
X193176180Y-108030283D01*
X193012568Y-107866671D01*
X193019766Y-107860764D01*
X193034832Y-107842406D01*
X193473891Y-107403348D01*
X193466072Y-123613295D01*
X193425400Y-123707519D01*
X193304534Y-123883067D01*
X193151874Y-124031794D01*
X192973232Y-124148038D01*
X192775416Y-124227370D01*
X192555175Y-124268795D01*
X192461054Y-124272948D01*
X167193431Y-124244050D01*
X166988158Y-124199865D01*
X166792481Y-124115400D01*
X166616933Y-123994534D01*
X166468206Y-123841874D01*
X166351962Y-123663232D01*
X166272630Y-123465416D01*
X166231205Y-123245175D01*
X166227043Y-123150832D01*
X166226973Y-118737283D01*
X167886500Y-118737283D01*
X167886500Y-118881277D01*
X167914592Y-119022505D01*
X167969696Y-119155538D01*
X168049695Y-119275265D01*
X168151515Y-119377085D01*
X168271242Y-119457084D01*
X168404275Y-119512188D01*
X168545503Y-119540280D01*
X168689497Y-119540280D01*
X168830725Y-119512188D01*
X168963758Y-119457084D01*
X169083485Y-119377085D01*
X169185305Y-119275265D01*
X169265304Y-119155538D01*
X169320408Y-119022505D01*
X169348500Y-118881277D01*
X169348500Y-118737283D01*
X169320408Y-118596055D01*
X169265304Y-118463022D01*
X169185305Y-118343295D01*
X169083485Y-118241475D01*
X168963758Y-118161476D01*
X168830725Y-118106372D01*
X168689497Y-118078280D01*
X168545503Y-118078280D01*
X168404275Y-118106372D01*
X168271242Y-118161476D01*
X168151515Y-118241475D01*
X168049695Y-118343295D01*
X167969696Y-118463022D01*
X167914592Y-118596055D01*
X167886500Y-118737283D01*
X166226973Y-118737283D01*
X166226696Y-101455477D01*
X166246307Y-101554069D01*
X166339102Y-101778097D01*
X166473820Y-101979717D01*
X166645283Y-102151180D01*
X166846903Y-102285898D01*
X167070931Y-102378693D01*
X167308757Y-102426000D01*
X167551243Y-102426000D01*
X167789069Y-102378693D01*
X168013097Y-102285898D01*
X168214717Y-102151180D01*
X168386180Y-101979717D01*
X168520898Y-101778097D01*
X168613693Y-101554069D01*
X168661000Y-101316243D01*
X168661000Y-101073757D01*
X168613693Y-100835931D01*
X168520898Y-100611903D01*
X168386180Y-100410283D01*
X168278415Y-100302518D01*
X168601660Y-100302518D01*
X168601660Y-100456362D01*
X168631673Y-100607249D01*
X168690547Y-100749382D01*
X168776018Y-100877299D01*
X168884801Y-100986082D01*
X169012718Y-101071553D01*
X169154851Y-101130427D01*
X169305738Y-101160440D01*
X169459582Y-101160440D01*
X169610469Y-101130427D01*
X169752602Y-101071553D01*
X169880519Y-100986082D01*
X169989302Y-100877299D01*
X170074773Y-100749382D01*
X170133647Y-100607249D01*
X170163660Y-100456362D01*
X170163660Y-100302518D01*
X170133647Y-100151631D01*
X170074773Y-100009498D01*
X169989302Y-99881581D01*
X169880519Y-99772798D01*
X169752602Y-99687327D01*
X169610469Y-99628453D01*
X169459582Y-99598440D01*
X169305738Y-99598440D01*
X169154851Y-99628453D01*
X169012718Y-99687327D01*
X168884801Y-99772798D01*
X168776018Y-99881581D01*
X168690547Y-100009498D01*
X168631673Y-100151631D01*
X168601660Y-100302518D01*
X168278415Y-100302518D01*
X168214717Y-100238820D01*
X168013097Y-100104102D01*
X167789069Y-100011307D01*
X167551243Y-99964000D01*
X167308757Y-99964000D01*
X167070931Y-100011307D01*
X166846903Y-100104102D01*
X166645283Y-100238820D01*
X166473820Y-100410283D01*
X166339102Y-100611903D01*
X166246307Y-100835931D01*
X166226687Y-100934565D01*
X166226655Y-98915272D01*
X166246307Y-99014069D01*
X166339102Y-99238097D01*
X166473820Y-99439717D01*
X166645283Y-99611180D01*
X166846903Y-99745898D01*
X167070931Y-99838693D01*
X167308757Y-99886000D01*
X167551243Y-99886000D01*
X167789069Y-99838693D01*
X168013097Y-99745898D01*
X168214717Y-99611180D01*
X168386180Y-99439717D01*
X168520898Y-99238097D01*
X168613693Y-99014069D01*
X168661000Y-98776243D01*
X168661000Y-98533757D01*
X168613693Y-98295931D01*
X168520898Y-98071903D01*
X168386180Y-97870283D01*
X168214717Y-97698820D01*
X168013097Y-97564102D01*
X167789069Y-97471307D01*
X167551243Y-97424000D01*
X167308757Y-97424000D01*
X167070931Y-97471307D01*
X166846903Y-97564102D01*
X166645283Y-97698820D01*
X166473820Y-97870283D01*
X166339102Y-98071903D01*
X166246307Y-98295931D01*
X166226647Y-98394769D01*
X166226614Y-96375068D01*
X166246307Y-96474069D01*
X166339102Y-96698097D01*
X166473820Y-96899717D01*
X166645283Y-97071180D01*
X166846903Y-97205898D01*
X167070931Y-97298693D01*
X167308757Y-97346000D01*
X167551243Y-97346000D01*
X167789069Y-97298693D01*
X168013097Y-97205898D01*
X168214717Y-97071180D01*
X168386180Y-96899717D01*
X168520898Y-96698097D01*
X168613693Y-96474069D01*
X168661000Y-96236243D01*
X168661000Y-95993757D01*
X168613693Y-95755931D01*
X168520898Y-95531903D01*
X168386180Y-95330283D01*
X168214717Y-95158820D01*
X168013097Y-95024102D01*
X167789069Y-94931307D01*
X167551243Y-94884000D01*
X167308757Y-94884000D01*
X167070931Y-94931307D01*
X166846903Y-95024102D01*
X166645283Y-95158820D01*
X166473820Y-95330283D01*
X166339102Y-95531903D01*
X166246307Y-95755931D01*
X166226606Y-95854974D01*
X166226574Y-93834864D01*
X166246307Y-93934069D01*
X166339102Y-94158097D01*
X166473820Y-94359717D01*
X166645283Y-94531180D01*
X166846903Y-94665898D01*
X167070931Y-94758693D01*
X167308757Y-94806000D01*
X167551243Y-94806000D01*
X167789069Y-94758693D01*
X168013097Y-94665898D01*
X168214717Y-94531180D01*
X168386180Y-94359717D01*
X168520898Y-94158097D01*
X168613693Y-93934069D01*
X168661000Y-93696243D01*
X168661000Y-93453757D01*
X168613693Y-93215931D01*
X168520898Y-92991903D01*
X168386180Y-92790283D01*
X168214717Y-92618820D01*
X168013097Y-92484102D01*
X167789069Y-92391307D01*
X167551243Y-92344000D01*
X167308757Y-92344000D01*
X167070931Y-92391307D01*
X166846903Y-92484102D01*
X166645283Y-92618820D01*
X166473820Y-92790283D01*
X166339102Y-92991903D01*
X166246307Y-93215931D01*
X166226565Y-93315178D01*
X166226533Y-91294660D01*
X166246307Y-91394069D01*
X166339102Y-91618097D01*
X166473820Y-91819717D01*
X166645283Y-91991180D01*
X166846903Y-92125898D01*
X167070931Y-92218693D01*
X167308757Y-92266000D01*
X167551243Y-92266000D01*
X167789069Y-92218693D01*
X168013097Y-92125898D01*
X168214717Y-91991180D01*
X168386180Y-91819717D01*
X168520898Y-91618097D01*
X168613693Y-91394069D01*
X168661000Y-91156243D01*
X168661000Y-90913757D01*
X168613693Y-90675931D01*
X168520898Y-90451903D01*
X168386180Y-90250283D01*
X168214717Y-90078820D01*
X168013097Y-89944102D01*
X167789069Y-89851307D01*
X167551243Y-89804000D01*
X167308757Y-89804000D01*
X167070931Y-89851307D01*
X166846903Y-89944102D01*
X166645283Y-90078820D01*
X166473820Y-90250283D01*
X166339102Y-90451903D01*
X166246307Y-90675931D01*
X166226525Y-90775382D01*
X166226492Y-88754455D01*
X166246307Y-88854069D01*
X166339102Y-89078097D01*
X166473820Y-89279717D01*
X166645283Y-89451180D01*
X166846903Y-89585898D01*
X167070931Y-89678693D01*
X167308757Y-89726000D01*
X167551243Y-89726000D01*
X167789069Y-89678693D01*
X168013097Y-89585898D01*
X168214717Y-89451180D01*
X168386180Y-89279717D01*
X168520898Y-89078097D01*
X168613693Y-88854069D01*
X168661000Y-88616243D01*
X168661000Y-88373757D01*
X168613693Y-88135931D01*
X168571403Y-88033833D01*
X170826212Y-85779025D01*
X170844564Y-85763964D01*
X170904672Y-85690722D01*
X170949336Y-85607161D01*
X170976840Y-85516492D01*
X170983800Y-85445826D01*
X170983800Y-85445817D01*
X170986126Y-85422201D01*
X170983800Y-85398585D01*
X170983800Y-77666436D01*
X171129237Y-77521000D01*
X171960487Y-77521000D01*
X171971338Y-77537239D01*
G37*
%TD.AperFunction*%
D19*
X192670950Y-56847752D02*
X192875259Y-56909436D01*
X193063691Y-57009627D01*
X193229073Y-57144510D01*
X193365106Y-57308946D01*
X193466612Y-57496677D01*
X193497912Y-57597794D01*
X193475059Y-104981122D01*
X193151000Y-104657064D01*
X193151000Y-104544897D01*
X193176180Y-104519717D01*
X193310898Y-104318097D01*
X193403693Y-104094069D01*
X193451000Y-103856243D01*
X193451000Y-103613757D01*
X193403693Y-103375931D01*
X193310898Y-103151903D01*
X193176180Y-102950283D01*
X193004717Y-102778820D01*
X192803097Y-102644102D01*
X192579069Y-102551307D01*
X192341243Y-102504000D01*
X192098757Y-102504000D01*
X191860931Y-102551307D01*
X191636903Y-102644102D01*
X191435283Y-102778820D01*
X191263820Y-102950283D01*
X191129102Y-103151903D01*
X191036307Y-103375931D01*
X190989000Y-103613757D01*
X190989000Y-103856243D01*
X191036307Y-104094069D01*
X191078597Y-104196167D01*
X190510949Y-104763815D01*
X190492597Y-104778876D01*
X190463470Y-104814367D01*
X190432489Y-104852118D01*
X190387825Y-104935679D01*
X190360320Y-105026348D01*
X190351033Y-105120640D01*
X190353361Y-105144276D01*
X190353360Y-106291775D01*
X186632238Y-110012898D01*
X186622398Y-109989143D01*
X186536927Y-109861226D01*
X186428144Y-109752443D01*
X186300227Y-109666972D01*
X186158094Y-109608098D01*
X186007207Y-109578085D01*
X185853363Y-109578085D01*
X185702476Y-109608098D01*
X185560343Y-109666972D01*
X185432426Y-109752443D01*
X185323643Y-109861226D01*
X185238172Y-109989143D01*
X185179298Y-110131276D01*
X185149285Y-110282163D01*
X185149285Y-110436007D01*
X185177546Y-110578086D01*
X181555659Y-110578086D01*
X181555659Y-110543437D01*
X181525646Y-110392550D01*
X181466772Y-110250417D01*
X181381301Y-110122500D01*
X181360296Y-110101495D01*
X181390530Y-110071260D01*
X181476001Y-109943343D01*
X181534875Y-109801210D01*
X181564888Y-109650323D01*
X181564888Y-109496479D01*
X181560932Y-109476593D01*
X181988506Y-109049020D01*
X182421193Y-109049020D01*
X182432458Y-109065879D01*
X182541241Y-109174662D01*
X182669158Y-109260133D01*
X182811291Y-109319007D01*
X182962178Y-109349020D01*
X183116022Y-109349020D01*
X183266909Y-109319007D01*
X183409042Y-109260133D01*
X183536959Y-109174662D01*
X183645742Y-109065879D01*
X183731213Y-108937962D01*
X183790087Y-108795829D01*
X183820100Y-108644942D01*
X183820100Y-108491098D01*
X183790087Y-108340211D01*
X183731213Y-108198078D01*
X183645742Y-108070161D01*
X183536959Y-107961378D01*
X183409042Y-107875907D01*
X183266909Y-107817033D01*
X183116022Y-107787020D01*
X182962178Y-107787020D01*
X182811291Y-107817033D01*
X182669158Y-107875907D01*
X182541241Y-107961378D01*
X182432458Y-108070161D01*
X182421193Y-108087020D01*
X181812884Y-108087020D01*
X181789268Y-108084694D01*
X181765652Y-108087020D01*
X181765643Y-108087020D01*
X181694977Y-108093980D01*
X181604308Y-108121484D01*
X181520747Y-108166148D01*
X181447505Y-108226256D01*
X181432444Y-108244609D01*
X180880696Y-108796357D01*
X180860810Y-108792401D01*
X180706966Y-108792401D01*
X180556079Y-108822414D01*
X180413946Y-108881288D01*
X180286029Y-108966759D01*
X180177246Y-109075542D01*
X180091775Y-109203459D01*
X180072260Y-109250572D01*
X180072260Y-104932286D01*
X180074587Y-104908659D01*
X180072552Y-104887994D01*
X180204809Y-104861687D01*
X180346942Y-104802813D01*
X180474859Y-104717342D01*
X180583642Y-104608559D01*
X180603393Y-104579000D01*
X181289493Y-104579000D01*
X181300758Y-104595859D01*
X181409541Y-104704642D01*
X181537458Y-104790113D01*
X181679591Y-104848987D01*
X181830478Y-104879000D01*
X181984322Y-104879000D01*
X182135209Y-104848987D01*
X182277342Y-104790113D01*
X182405259Y-104704642D01*
X182514042Y-104595859D01*
X182599513Y-104467942D01*
X182658387Y-104325809D01*
X182688400Y-104174922D01*
X182688400Y-104021078D01*
X182658387Y-103870191D01*
X182599513Y-103728058D01*
X182514042Y-103600141D01*
X182405259Y-103491358D01*
X182277342Y-103405887D01*
X182135209Y-103347013D01*
X181984322Y-103317000D01*
X181830478Y-103317000D01*
X181679591Y-103347013D01*
X181537458Y-103405887D01*
X181409541Y-103491358D01*
X181300758Y-103600141D01*
X181289493Y-103617000D01*
X180586421Y-103617000D01*
X180583642Y-103612841D01*
X180474859Y-103504058D01*
X180346942Y-103418587D01*
X180204809Y-103359713D01*
X180053922Y-103329700D01*
X179900078Y-103329700D01*
X179749191Y-103359713D01*
X179607058Y-103418587D01*
X179479141Y-103504058D01*
X179370358Y-103612841D01*
X179284887Y-103740758D01*
X179231787Y-103868951D01*
X178887832Y-103524996D01*
X178888940Y-103523177D01*
X178911039Y-103489078D01*
X178922314Y-103460740D01*
X178936823Y-103430611D01*
X178951951Y-103404124D01*
X178964829Y-103365593D01*
X178978781Y-103327446D01*
X178983468Y-103297307D01*
X178990910Y-103264701D01*
X178999762Y-103235522D01*
X179003746Y-103195081D01*
X179008860Y-103154774D01*
X179006724Y-103124361D01*
X179006724Y-103090909D01*
X179008861Y-103060481D01*
X179003747Y-103020183D01*
X178999766Y-102979761D01*
X178990912Y-102950571D01*
X178983470Y-102917969D01*
X178978784Y-102887834D01*
X178964820Y-102849653D01*
X178951944Y-102811131D01*
X178936825Y-102784661D01*
X178922310Y-102754517D01*
X178911037Y-102726186D01*
X178888948Y-102692102D01*
X178867817Y-102657400D01*
X178847178Y-102634946D01*
X178826321Y-102608792D01*
X178809020Y-102583670D01*
X178779887Y-102555344D01*
X178751570Y-102526222D01*
X178726453Y-102508925D01*
X178700306Y-102488074D01*
X178677853Y-102467435D01*
X178643149Y-102446302D01*
X178609055Y-102424206D01*
X178580717Y-102412931D01*
X178550592Y-102398424D01*
X178524107Y-102383297D01*
X178485560Y-102370413D01*
X178447421Y-102356464D01*
X178417290Y-102351778D01*
X178384670Y-102344333D01*
X178355484Y-102335480D01*
X178315045Y-102331498D01*
X178274755Y-102326385D01*
X178244332Y-102328522D01*
X178210882Y-102328522D01*
X178180469Y-102326386D01*
X178140155Y-102331501D01*
X178099723Y-102335484D01*
X178070549Y-102344334D01*
X178065660Y-102345450D01*
X178065660Y-101862078D01*
X186092100Y-101862078D01*
X186092100Y-102015922D01*
X186122113Y-102166809D01*
X186180987Y-102308942D01*
X186266458Y-102436859D01*
X186375241Y-102545642D01*
X186503158Y-102631113D01*
X186645291Y-102689987D01*
X186796178Y-102720000D01*
X186950022Y-102720000D01*
X187100909Y-102689987D01*
X187243042Y-102631113D01*
X187370959Y-102545642D01*
X187479742Y-102436859D01*
X187565213Y-102308942D01*
X187624087Y-102166809D01*
X187654100Y-102015922D01*
X187654100Y-101862078D01*
X187624087Y-101711191D01*
X187565213Y-101569058D01*
X187479742Y-101441141D01*
X187370959Y-101332358D01*
X187243042Y-101246887D01*
X187100909Y-101188013D01*
X186950022Y-101158000D01*
X186796178Y-101158000D01*
X186645291Y-101188013D01*
X186503158Y-101246887D01*
X186375241Y-101332358D01*
X186266458Y-101441141D01*
X186180987Y-101569058D01*
X186122113Y-101711191D01*
X186092100Y-101862078D01*
X178065660Y-101862078D01*
X178065660Y-101116498D01*
X178112469Y-101107187D01*
X178193175Y-101073757D01*
X190989000Y-101073757D01*
X190989000Y-101316243D01*
X191036307Y-101554069D01*
X191129102Y-101778097D01*
X191263820Y-101979717D01*
X191435283Y-102151180D01*
X191636903Y-102285898D01*
X191860931Y-102378693D01*
X192098757Y-102426000D01*
X192341243Y-102426000D01*
X192579069Y-102378693D01*
X192803097Y-102285898D01*
X193004717Y-102151180D01*
X193176180Y-101979717D01*
X193310898Y-101778097D01*
X193403693Y-101554069D01*
X193451000Y-101316243D01*
X193451000Y-101073757D01*
X193403693Y-100835931D01*
X193310898Y-100611903D01*
X193176180Y-100410283D01*
X193004717Y-100238820D01*
X192803097Y-100104102D01*
X192579069Y-100011307D01*
X192341243Y-99964000D01*
X192098757Y-99964000D01*
X191860931Y-100011307D01*
X191636903Y-100104102D01*
X191435283Y-100238820D01*
X191263820Y-100410283D01*
X191129102Y-100611903D01*
X191036307Y-100835931D01*
X190989000Y-101073757D01*
X178193175Y-101073757D01*
X178254602Y-101048313D01*
X178382519Y-100962842D01*
X178491302Y-100854059D01*
X178576773Y-100726142D01*
X178635647Y-100584009D01*
X178665660Y-100433122D01*
X178665660Y-100279278D01*
X178635647Y-100128391D01*
X178576773Y-99986258D01*
X178514847Y-99893578D01*
X186079400Y-99893578D01*
X186079400Y-100047422D01*
X186109413Y-100198309D01*
X186168287Y-100340442D01*
X186253758Y-100468359D01*
X186362541Y-100577142D01*
X186490458Y-100662613D01*
X186632591Y-100721487D01*
X186783478Y-100751500D01*
X186937322Y-100751500D01*
X187088209Y-100721487D01*
X187230342Y-100662613D01*
X187358259Y-100577142D01*
X187467042Y-100468359D01*
X187552513Y-100340442D01*
X187611387Y-100198309D01*
X187641400Y-100047422D01*
X187641400Y-99893578D01*
X187611387Y-99742691D01*
X187552513Y-99600558D01*
X187467042Y-99472641D01*
X187358259Y-99363858D01*
X187230342Y-99278387D01*
X187088209Y-99219513D01*
X186937322Y-99189500D01*
X186783478Y-99189500D01*
X186632591Y-99219513D01*
X186490458Y-99278387D01*
X186362541Y-99363858D01*
X186253758Y-99472641D01*
X186168287Y-99600558D01*
X186109413Y-99742691D01*
X186079400Y-99893578D01*
X178514847Y-99893578D01*
X178491302Y-99858341D01*
X178382519Y-99749558D01*
X178254602Y-99664087D01*
X178112469Y-99605213D01*
X177961582Y-99575200D01*
X177807738Y-99575200D01*
X177656851Y-99605213D01*
X177514718Y-99664087D01*
X177386801Y-99749558D01*
X177359660Y-99776699D01*
X177332519Y-99749558D01*
X177204602Y-99664087D01*
X177062469Y-99605213D01*
X176911582Y-99575200D01*
X176757738Y-99575200D01*
X176606851Y-99605213D01*
X176464718Y-99664087D01*
X176336801Y-99749558D01*
X176228018Y-99858341D01*
X176142547Y-99986258D01*
X176083673Y-100128391D01*
X176053660Y-100279278D01*
X176053660Y-100433122D01*
X176083673Y-100584009D01*
X176142547Y-100726142D01*
X176228018Y-100854059D01*
X176336801Y-100962842D01*
X176464718Y-101048313D01*
X176606851Y-101107187D01*
X176653660Y-101116498D01*
X176653661Y-103064824D01*
X176651333Y-103088460D01*
X176660620Y-103182752D01*
X176685183Y-103263723D01*
X176688125Y-103273421D01*
X176732789Y-103356982D01*
X176792897Y-103430224D01*
X176811249Y-103445285D01*
X178660260Y-105294297D01*
X178660261Y-105909185D01*
X178633438Y-105914912D01*
X178605427Y-105926978D01*
X178574852Y-105937677D01*
X178545428Y-105945708D01*
X178509049Y-105963860D01*
X178472226Y-105980961D01*
X178447613Y-105998949D01*
X178420167Y-106016194D01*
X178393272Y-106030570D01*
X178361855Y-106056353D01*
X178329752Y-106081226D01*
X178309756Y-106104243D01*
X178286838Y-106127161D01*
X178263816Y-106147161D01*
X178238929Y-106179282D01*
X178213160Y-106210682D01*
X178198785Y-106237576D01*
X178181542Y-106265019D01*
X178163551Y-106289636D01*
X178146446Y-106326467D01*
X178128298Y-106362838D01*
X178120265Y-106392266D01*
X178109567Y-106422839D01*
X178097501Y-106450852D01*
X178089017Y-106490585D01*
X178079423Y-106530058D01*
X178078140Y-106560526D01*
X178077547Y-106565797D01*
X178076560Y-106569049D01*
X178072249Y-106612818D01*
X178071807Y-106616742D01*
X178068984Y-106632053D01*
X178069488Y-106668011D01*
X178068984Y-106703968D01*
X178071808Y-106719282D01*
X178072248Y-106723188D01*
X178076560Y-106766972D01*
X178077548Y-106770228D01*
X178078140Y-106775485D01*
X178079423Y-106805961D01*
X178089021Y-106845450D01*
X178097501Y-106885168D01*
X178109569Y-106913186D01*
X178120265Y-106943753D01*
X178128298Y-106973181D01*
X178146446Y-107009552D01*
X178163551Y-107046383D01*
X178181542Y-107071000D01*
X178198785Y-107098443D01*
X178213160Y-107125337D01*
X178238929Y-107156737D01*
X178263816Y-107188858D01*
X178286838Y-107208858D01*
X178309756Y-107231776D01*
X178329752Y-107254793D01*
X178361855Y-107279666D01*
X178393272Y-107305449D01*
X178420167Y-107319825D01*
X178447613Y-107337070D01*
X178472226Y-107355058D01*
X178509049Y-107372159D01*
X178545428Y-107390311D01*
X178574852Y-107398342D01*
X178605427Y-107409041D01*
X178633438Y-107421107D01*
X178660260Y-107426834D01*
X178660261Y-111143242D01*
X178365253Y-111438251D01*
X178382427Y-111396789D01*
X178412440Y-111245902D01*
X178412440Y-111092058D01*
X178382427Y-110941171D01*
X178323553Y-110799038D01*
X178238082Y-110671121D01*
X178129299Y-110562338D01*
X178001382Y-110476867D01*
X177859249Y-110417993D01*
X177708362Y-110387980D01*
X177554518Y-110387980D01*
X177403631Y-110417993D01*
X177261498Y-110476867D01*
X177133581Y-110562338D01*
X177024798Y-110671121D01*
X176939327Y-110799038D01*
X176880453Y-110941171D01*
X176850440Y-111092058D01*
X176850440Y-111245902D01*
X176880453Y-111396789D01*
X176939327Y-111538922D01*
X177024798Y-111666839D01*
X177133581Y-111775622D01*
X177150441Y-111786887D01*
X177150441Y-111796480D01*
X173713288Y-111796480D01*
X173833242Y-111746793D01*
X173961159Y-111661322D01*
X174069942Y-111552539D01*
X174155413Y-111424622D01*
X174214287Y-111282489D01*
X174244300Y-111131602D01*
X174244300Y-110977758D01*
X174214287Y-110826871D01*
X174155413Y-110684738D01*
X174069942Y-110556821D01*
X173961159Y-110448038D01*
X173944300Y-110436773D01*
X173944300Y-96123136D01*
X174499478Y-95567958D01*
X179724320Y-95567958D01*
X179724320Y-95721802D01*
X179754333Y-95872689D01*
X179813207Y-96014822D01*
X179898678Y-96142739D01*
X180007461Y-96251522D01*
X180024321Y-96262787D01*
X180024321Y-96662644D01*
X180021993Y-96686280D01*
X180031280Y-96780572D01*
X180046197Y-96829744D01*
X180058785Y-96871241D01*
X180103449Y-96954802D01*
X180163557Y-97028044D01*
X180181909Y-97043105D01*
X180544734Y-97405931D01*
X180559796Y-97424284D01*
X180633038Y-97484392D01*
X180716599Y-97529056D01*
X180779763Y-97548216D01*
X180807267Y-97556560D01*
X180901560Y-97565847D01*
X180925186Y-97563520D01*
X182564494Y-97563520D01*
X182588120Y-97565847D01*
X182611746Y-97563520D01*
X182682412Y-97556560D01*
X182773081Y-97529056D01*
X182856642Y-97484392D01*
X182929884Y-97424284D01*
X182944950Y-97405926D01*
X183956511Y-96394366D01*
X183974863Y-96379305D01*
X184034971Y-96306063D01*
X184079635Y-96222502D01*
X184107139Y-96131833D01*
X184114099Y-96061167D01*
X184114099Y-96061158D01*
X184116425Y-96037542D01*
X184114099Y-96013926D01*
X184114099Y-89563398D01*
X185723800Y-89563398D01*
X185723800Y-89717242D01*
X185753813Y-89868129D01*
X185812687Y-90010262D01*
X185898158Y-90138179D01*
X186006941Y-90246962D01*
X186134858Y-90332433D01*
X186276991Y-90391307D01*
X186427878Y-90421320D01*
X186581722Y-90421320D01*
X186732609Y-90391307D01*
X186874742Y-90332433D01*
X187002659Y-90246962D01*
X187111442Y-90138179D01*
X187196913Y-90010262D01*
X187255787Y-89868129D01*
X187285800Y-89717242D01*
X187285800Y-89563398D01*
X187255787Y-89412511D01*
X187196913Y-89270378D01*
X187111442Y-89142461D01*
X187002659Y-89033678D01*
X186874742Y-88948207D01*
X186732609Y-88889333D01*
X186581722Y-88859320D01*
X186427878Y-88859320D01*
X186276991Y-88889333D01*
X186134858Y-88948207D01*
X186006941Y-89033678D01*
X185898158Y-89142461D01*
X185812687Y-89270378D01*
X185753813Y-89412511D01*
X185723800Y-89563398D01*
X184114099Y-89563398D01*
X184114099Y-87622838D01*
X185723800Y-87622838D01*
X185723800Y-87776682D01*
X185753813Y-87927569D01*
X185812687Y-88069702D01*
X185898158Y-88197619D01*
X186006941Y-88306402D01*
X186134858Y-88391873D01*
X186276991Y-88450747D01*
X186427878Y-88480760D01*
X186581722Y-88480760D01*
X186732609Y-88450747D01*
X186874742Y-88391873D01*
X187002659Y-88306402D01*
X187111442Y-88197619D01*
X187196913Y-88069702D01*
X187255787Y-87927569D01*
X187285800Y-87776682D01*
X187285800Y-87622838D01*
X187255787Y-87471951D01*
X187196913Y-87329818D01*
X187111442Y-87201901D01*
X187002659Y-87093118D01*
X186874742Y-87007647D01*
X186732609Y-86948773D01*
X186581722Y-86918760D01*
X186427878Y-86918760D01*
X186276991Y-86948773D01*
X186134858Y-87007647D01*
X186006941Y-87093118D01*
X185898158Y-87201901D01*
X185812687Y-87329818D01*
X185753813Y-87471951D01*
X185723800Y-87622838D01*
X184114099Y-87622838D01*
X184114099Y-75410518D01*
X185322480Y-75410518D01*
X185322480Y-75564362D01*
X185352493Y-75715249D01*
X185411367Y-75857382D01*
X185496838Y-75985299D01*
X185605621Y-76094082D01*
X185733538Y-76179553D01*
X185875671Y-76238427D01*
X185977001Y-76258583D01*
X185878211Y-76278233D01*
X185736078Y-76337107D01*
X185608161Y-76422578D01*
X185499378Y-76531361D01*
X185413907Y-76659278D01*
X185355033Y-76801411D01*
X185325020Y-76952298D01*
X185325020Y-77106142D01*
X185355033Y-77257029D01*
X185413907Y-77399162D01*
X185499378Y-77527079D01*
X185608161Y-77635862D01*
X185736078Y-77721333D01*
X185869803Y-77776724D01*
X185733540Y-77833167D01*
X185605623Y-77918638D01*
X185496840Y-78027421D01*
X185411369Y-78155338D01*
X185352495Y-78297471D01*
X185322482Y-78448358D01*
X185322482Y-78602202D01*
X185352495Y-78753089D01*
X185411369Y-78895222D01*
X185496840Y-79023139D01*
X185605623Y-79131922D01*
X185733540Y-79217393D01*
X185875673Y-79276267D01*
X186026560Y-79306280D01*
X186180404Y-79306280D01*
X186331291Y-79276267D01*
X186473424Y-79217393D01*
X186601341Y-79131922D01*
X186710124Y-79023139D01*
X186721389Y-79006280D01*
X188216044Y-79006280D01*
X188916861Y-79707098D01*
X188916860Y-88189234D01*
X188914533Y-88212860D01*
X188916860Y-88236485D01*
X188916861Y-93556225D01*
X188916860Y-93556235D01*
X188916861Y-95196722D01*
X188121664Y-95991920D01*
X186856007Y-95991920D01*
X186844742Y-95975061D01*
X186735959Y-95866278D01*
X186608042Y-95780807D01*
X186465909Y-95721933D01*
X186315022Y-95691920D01*
X186161178Y-95691920D01*
X186010291Y-95721933D01*
X185868158Y-95780807D01*
X185740241Y-95866278D01*
X185631458Y-95975061D01*
X185545987Y-96102978D01*
X185487113Y-96245111D01*
X185457100Y-96395998D01*
X185457100Y-96549842D01*
X185487113Y-96700729D01*
X185545987Y-96842862D01*
X185631458Y-96970779D01*
X185740241Y-97079562D01*
X185868158Y-97165033D01*
X186010291Y-97223907D01*
X186161178Y-97253920D01*
X186315022Y-97253920D01*
X186465909Y-97223907D01*
X186608042Y-97165033D01*
X186735959Y-97079562D01*
X186844742Y-96970779D01*
X186856007Y-96953920D01*
X188297274Y-96953920D01*
X188320900Y-96956247D01*
X188344526Y-96953920D01*
X188415192Y-96946960D01*
X188505861Y-96919456D01*
X188589422Y-96874792D01*
X188662664Y-96814684D01*
X188677730Y-96796326D01*
X189480299Y-95993757D01*
X190989000Y-95993757D01*
X190989000Y-96236243D01*
X191036307Y-96474069D01*
X191129102Y-96698097D01*
X191263820Y-96899717D01*
X191435283Y-97071180D01*
X191636903Y-97205898D01*
X191860931Y-97298693D01*
X192098757Y-97346000D01*
X192341243Y-97346000D01*
X192579069Y-97298693D01*
X192803097Y-97205898D01*
X193004717Y-97071180D01*
X193176180Y-96899717D01*
X193310898Y-96698097D01*
X193403693Y-96474069D01*
X193451000Y-96236243D01*
X193451000Y-95993757D01*
X193403693Y-95755931D01*
X193310898Y-95531903D01*
X193176180Y-95330283D01*
X193004717Y-95158820D01*
X192803097Y-95024102D01*
X192579069Y-94931307D01*
X192341243Y-94884000D01*
X192098757Y-94884000D01*
X191860931Y-94931307D01*
X191636903Y-95024102D01*
X191435283Y-95158820D01*
X191263820Y-95330283D01*
X191129102Y-95531903D01*
X191036307Y-95755931D01*
X190989000Y-95993757D01*
X189480299Y-95993757D01*
X189721272Y-95752785D01*
X189739624Y-95737724D01*
X189799732Y-95664482D01*
X189844396Y-95580921D01*
X189871900Y-95490252D01*
X189878860Y-95419586D01*
X189878860Y-95419577D01*
X189881186Y-95395961D01*
X189878860Y-95372345D01*
X189878860Y-93453757D01*
X190989000Y-93453757D01*
X190989000Y-93696243D01*
X191036307Y-93934069D01*
X191129102Y-94158097D01*
X191263820Y-94359717D01*
X191435283Y-94531180D01*
X191636903Y-94665898D01*
X191860931Y-94758693D01*
X192098757Y-94806000D01*
X192341243Y-94806000D01*
X192579069Y-94758693D01*
X192803097Y-94665898D01*
X193004717Y-94531180D01*
X193176180Y-94359717D01*
X193310898Y-94158097D01*
X193403693Y-93934069D01*
X193451000Y-93696243D01*
X193451000Y-93453757D01*
X193403693Y-93215931D01*
X193310898Y-92991903D01*
X193176180Y-92790283D01*
X193004717Y-92618820D01*
X192803097Y-92484102D01*
X192579069Y-92391307D01*
X192341243Y-92344000D01*
X192098757Y-92344000D01*
X191860931Y-92391307D01*
X191636903Y-92484102D01*
X191435283Y-92618820D01*
X191263820Y-92790283D01*
X191129102Y-92991903D01*
X191036307Y-93215931D01*
X190989000Y-93453757D01*
X189878860Y-93453757D01*
X189878860Y-89374096D01*
X191078597Y-90573834D01*
X191036307Y-90675931D01*
X190989000Y-90913757D01*
X190989000Y-91156243D01*
X191036307Y-91394069D01*
X191129102Y-91618097D01*
X191263820Y-91819717D01*
X191435283Y-91991180D01*
X191636903Y-92125898D01*
X191860931Y-92218693D01*
X192098757Y-92266000D01*
X192341243Y-92266000D01*
X192579069Y-92218693D01*
X192803097Y-92125898D01*
X193004717Y-91991180D01*
X193176180Y-91819717D01*
X193310898Y-91618097D01*
X193403693Y-91394069D01*
X193451000Y-91156243D01*
X193451000Y-90913757D01*
X193403693Y-90675931D01*
X193310898Y-90451903D01*
X193176180Y-90250283D01*
X193004717Y-90078820D01*
X192803097Y-89944102D01*
X192579069Y-89851307D01*
X192341243Y-89804000D01*
X192098757Y-89804000D01*
X191860931Y-89851307D01*
X191758834Y-89893597D01*
X189878860Y-88013624D01*
X189878860Y-86834096D01*
X191078597Y-88033834D01*
X191036307Y-88135931D01*
X190989000Y-88373757D01*
X190989000Y-88616243D01*
X191036307Y-88854069D01*
X191129102Y-89078097D01*
X191263820Y-89279717D01*
X191435283Y-89451180D01*
X191636903Y-89585898D01*
X191860931Y-89678693D01*
X192098757Y-89726000D01*
X192341243Y-89726000D01*
X192579069Y-89678693D01*
X192803097Y-89585898D01*
X193004717Y-89451180D01*
X193176180Y-89279717D01*
X193310898Y-89078097D01*
X193403693Y-88854069D01*
X193451000Y-88616243D01*
X193451000Y-88373757D01*
X193403693Y-88135931D01*
X193310898Y-87911903D01*
X193176180Y-87710283D01*
X193004717Y-87538820D01*
X192803097Y-87404102D01*
X192579069Y-87311307D01*
X192341243Y-87264000D01*
X192098757Y-87264000D01*
X191860931Y-87311307D01*
X191758834Y-87353597D01*
X190465600Y-86060364D01*
X190465600Y-84880836D01*
X191078597Y-85493833D01*
X191036307Y-85595931D01*
X190989000Y-85833757D01*
X190989000Y-86076243D01*
X191036307Y-86314069D01*
X191129102Y-86538097D01*
X191263820Y-86739717D01*
X191435283Y-86911180D01*
X191636903Y-87045898D01*
X191860931Y-87138693D01*
X192098757Y-87186000D01*
X192341243Y-87186000D01*
X192579069Y-87138693D01*
X192803097Y-87045898D01*
X193004717Y-86911180D01*
X193176180Y-86739717D01*
X193310898Y-86538097D01*
X193403693Y-86314069D01*
X193451000Y-86076243D01*
X193451000Y-85833757D01*
X193403693Y-85595931D01*
X193310898Y-85371903D01*
X193176180Y-85170283D01*
X193004717Y-84998820D01*
X192803097Y-84864102D01*
X192579069Y-84771307D01*
X192341243Y-84724000D01*
X192098757Y-84724000D01*
X191860931Y-84771307D01*
X191758833Y-84813597D01*
X191005389Y-84060153D01*
X191005389Y-83618635D01*
X191036307Y-83774069D01*
X191129102Y-83998097D01*
X191263820Y-84199717D01*
X191435283Y-84371180D01*
X191636903Y-84505898D01*
X191860931Y-84598693D01*
X192098757Y-84646000D01*
X192341243Y-84646000D01*
X192579069Y-84598693D01*
X192803097Y-84505898D01*
X193004717Y-84371180D01*
X193176180Y-84199717D01*
X193310898Y-83998097D01*
X193403693Y-83774069D01*
X193451000Y-83536243D01*
X193451000Y-83293757D01*
X193403693Y-83055931D01*
X193310898Y-82831903D01*
X193176180Y-82630283D01*
X193004717Y-82458820D01*
X192803097Y-82324102D01*
X192579069Y-82231307D01*
X192341243Y-82184000D01*
X192098757Y-82184000D01*
X191860931Y-82231307D01*
X191758833Y-82273597D01*
X191405400Y-81920164D01*
X191405400Y-81801297D01*
X191435283Y-81831180D01*
X191636903Y-81965898D01*
X191860931Y-82058693D01*
X192098757Y-82106000D01*
X192341243Y-82106000D01*
X192579069Y-82058693D01*
X192803097Y-81965898D01*
X193004717Y-81831180D01*
X193176180Y-81659717D01*
X193310898Y-81458097D01*
X193403693Y-81234069D01*
X193451000Y-80996243D01*
X193451000Y-80753757D01*
X193403693Y-80515931D01*
X193310898Y-80291903D01*
X193176180Y-80090283D01*
X193004717Y-79918820D01*
X192803097Y-79784102D01*
X192579069Y-79691307D01*
X192341243Y-79644000D01*
X192098757Y-79644000D01*
X191860931Y-79691307D01*
X191636903Y-79784102D01*
X191435283Y-79918820D01*
X191405400Y-79948703D01*
X191405400Y-79261297D01*
X191435283Y-79291180D01*
X191636903Y-79425898D01*
X191860931Y-79518693D01*
X192098757Y-79566000D01*
X192341243Y-79566000D01*
X192579069Y-79518693D01*
X192803097Y-79425898D01*
X193004717Y-79291180D01*
X193176180Y-79119717D01*
X193310898Y-78918097D01*
X193403693Y-78694069D01*
X193451000Y-78456243D01*
X193451000Y-78213757D01*
X193403693Y-77975931D01*
X193310898Y-77751903D01*
X193176180Y-77550283D01*
X193004717Y-77378820D01*
X192803097Y-77244102D01*
X192579069Y-77151307D01*
X192341243Y-77104000D01*
X192098757Y-77104000D01*
X191860931Y-77151307D01*
X191636903Y-77244102D01*
X191435283Y-77378820D01*
X191405400Y-77408703D01*
X191405400Y-76721297D01*
X191435283Y-76751180D01*
X191636903Y-76885898D01*
X191860931Y-76978693D01*
X192098757Y-77026000D01*
X192341243Y-77026000D01*
X192579069Y-76978693D01*
X192803097Y-76885898D01*
X193004717Y-76751180D01*
X193176180Y-76579717D01*
X193310898Y-76378097D01*
X193403693Y-76154069D01*
X193451000Y-75916243D01*
X193451000Y-75673757D01*
X193403693Y-75435931D01*
X193310898Y-75211903D01*
X193176180Y-75010283D01*
X193004717Y-74838820D01*
X192803097Y-74704102D01*
X192579069Y-74611307D01*
X192341243Y-74564000D01*
X192098757Y-74564000D01*
X191860931Y-74611307D01*
X191636903Y-74704102D01*
X191435283Y-74838820D01*
X191263820Y-75010283D01*
X191129102Y-75211903D01*
X191036307Y-75435931D01*
X191027656Y-75479420D01*
X189261930Y-73713694D01*
X189246864Y-73695336D01*
X189173622Y-73635228D01*
X189090061Y-73590564D01*
X188999392Y-73563060D01*
X188928726Y-73556100D01*
X188905100Y-73553773D01*
X188881474Y-73556100D01*
X186751867Y-73556100D01*
X186740602Y-73539241D01*
X186631819Y-73430458D01*
X186503902Y-73344987D01*
X186361769Y-73286113D01*
X186210882Y-73256100D01*
X186057038Y-73256100D01*
X185906151Y-73286113D01*
X185764018Y-73344987D01*
X185636101Y-73430458D01*
X185527318Y-73539241D01*
X185441847Y-73667158D01*
X185382973Y-73809291D01*
X185352960Y-73960178D01*
X185352960Y-74114022D01*
X185382973Y-74264909D01*
X185441847Y-74407042D01*
X185527318Y-74534959D01*
X185636101Y-74643742D01*
X185764018Y-74729213D01*
X185828584Y-74755957D01*
X185733538Y-74795327D01*
X185605621Y-74880798D01*
X185496838Y-74989581D01*
X185411367Y-75117498D01*
X185352493Y-75259631D01*
X185322480Y-75410518D01*
X184114099Y-75410518D01*
X184114099Y-73133757D01*
X190989000Y-73133757D01*
X190989000Y-73376243D01*
X191036307Y-73614069D01*
X191129102Y-73838097D01*
X191263820Y-74039717D01*
X191435283Y-74211180D01*
X191636903Y-74345898D01*
X191860931Y-74438693D01*
X192098757Y-74486000D01*
X192341243Y-74486000D01*
X192579069Y-74438693D01*
X192803097Y-74345898D01*
X193004717Y-74211180D01*
X193176180Y-74039717D01*
X193310898Y-73838097D01*
X193403693Y-73614069D01*
X193451000Y-73376243D01*
X193451000Y-73133757D01*
X193403693Y-72895931D01*
X193310898Y-72671903D01*
X193176180Y-72470283D01*
X193004717Y-72298820D01*
X192803097Y-72164102D01*
X192579069Y-72071307D01*
X192341243Y-72024000D01*
X192098757Y-72024000D01*
X191860931Y-72071307D01*
X191636903Y-72164102D01*
X191435283Y-72298820D01*
X191263820Y-72470283D01*
X191129102Y-72671903D01*
X191036307Y-72895931D01*
X190989000Y-73133757D01*
X184114099Y-73133757D01*
X184114099Y-70593757D01*
X190989000Y-70593757D01*
X190989000Y-70836243D01*
X191036307Y-71074069D01*
X191129102Y-71298097D01*
X191263820Y-71499717D01*
X191435283Y-71671180D01*
X191636903Y-71805898D01*
X191860931Y-71898693D01*
X192098757Y-71946000D01*
X192341243Y-71946000D01*
X192579069Y-71898693D01*
X192803097Y-71805898D01*
X193004717Y-71671180D01*
X193176180Y-71499717D01*
X193310898Y-71298097D01*
X193403693Y-71074069D01*
X193451000Y-70836243D01*
X193451000Y-70593757D01*
X193403693Y-70355931D01*
X193310898Y-70131903D01*
X193176180Y-69930283D01*
X193004717Y-69758820D01*
X192803097Y-69624102D01*
X192579069Y-69531307D01*
X192341243Y-69484000D01*
X192098757Y-69484000D01*
X191860931Y-69531307D01*
X191636903Y-69624102D01*
X191435283Y-69758820D01*
X191263820Y-69930283D01*
X191129102Y-70131903D01*
X191036307Y-70355931D01*
X190989000Y-70593757D01*
X184114099Y-70593757D01*
X184114099Y-68053757D01*
X190989000Y-68053757D01*
X190989000Y-68296243D01*
X191036307Y-68534069D01*
X191129102Y-68758097D01*
X191263820Y-68959717D01*
X191435283Y-69131180D01*
X191636903Y-69265898D01*
X191860931Y-69358693D01*
X192098757Y-69406000D01*
X192341243Y-69406000D01*
X192579069Y-69358693D01*
X192803097Y-69265898D01*
X193004717Y-69131180D01*
X193176180Y-68959717D01*
X193310898Y-68758097D01*
X193403693Y-68534069D01*
X193451000Y-68296243D01*
X193451000Y-68053757D01*
X193403693Y-67815931D01*
X193310898Y-67591903D01*
X193176180Y-67390283D01*
X193004717Y-67218820D01*
X192803097Y-67084102D01*
X192579069Y-66991307D01*
X192341243Y-66944000D01*
X192098757Y-66944000D01*
X191860931Y-66991307D01*
X191636903Y-67084102D01*
X191435283Y-67218820D01*
X191263820Y-67390283D01*
X191129102Y-67591903D01*
X191036307Y-67815931D01*
X190989000Y-68053757D01*
X184114099Y-68053757D01*
X184114099Y-67740517D01*
X186057472Y-65797145D01*
X186077358Y-65801100D01*
X186231202Y-65801100D01*
X186382089Y-65771087D01*
X186524222Y-65712213D01*
X186652139Y-65626742D01*
X186760922Y-65517959D01*
X186763729Y-65513757D01*
X190989000Y-65513757D01*
X190989000Y-65756243D01*
X191036307Y-65994069D01*
X191129102Y-66218097D01*
X191263820Y-66419717D01*
X191435283Y-66591180D01*
X191636903Y-66725898D01*
X191860931Y-66818693D01*
X192098757Y-66866000D01*
X192341243Y-66866000D01*
X192579069Y-66818693D01*
X192803097Y-66725898D01*
X193004717Y-66591180D01*
X193176180Y-66419717D01*
X193310898Y-66218097D01*
X193403693Y-65994069D01*
X193451000Y-65756243D01*
X193451000Y-65513757D01*
X193403693Y-65275931D01*
X193310898Y-65051903D01*
X193176180Y-64850283D01*
X193004717Y-64678820D01*
X192803097Y-64544102D01*
X192579069Y-64451307D01*
X192341243Y-64404000D01*
X192098757Y-64404000D01*
X191860931Y-64451307D01*
X191636903Y-64544102D01*
X191435283Y-64678820D01*
X191263820Y-64850283D01*
X191129102Y-65051903D01*
X191036307Y-65275931D01*
X190989000Y-65513757D01*
X186763729Y-65513757D01*
X186846393Y-65390042D01*
X186905267Y-65247909D01*
X186935280Y-65097022D01*
X186935280Y-64943178D01*
X186905267Y-64792291D01*
X186846393Y-64650158D01*
X186760922Y-64522241D01*
X186652139Y-64413458D01*
X186524222Y-64327987D01*
X186382089Y-64269113D01*
X186370111Y-64266730D01*
X186392249Y-64262327D01*
X186534382Y-64203453D01*
X186662299Y-64117982D01*
X186771082Y-64009199D01*
X186856553Y-63881282D01*
X186915427Y-63739149D01*
X186945440Y-63588262D01*
X186945440Y-63434418D01*
X186915427Y-63283531D01*
X186856553Y-63141398D01*
X186771082Y-63013481D01*
X186731358Y-62973757D01*
X190989000Y-62973757D01*
X190989000Y-63216243D01*
X191036307Y-63454069D01*
X191129102Y-63678097D01*
X191263820Y-63879717D01*
X191435283Y-64051180D01*
X191636903Y-64185898D01*
X191860931Y-64278693D01*
X192098757Y-64326000D01*
X192341243Y-64326000D01*
X192579069Y-64278693D01*
X192803097Y-64185898D01*
X193004717Y-64051180D01*
X193176180Y-63879717D01*
X193310898Y-63678097D01*
X193403693Y-63454069D01*
X193451000Y-63216243D01*
X193451000Y-62973757D01*
X193403693Y-62735931D01*
X193310898Y-62511903D01*
X193176180Y-62310283D01*
X193004717Y-62138820D01*
X192803097Y-62004102D01*
X192579069Y-61911307D01*
X192341243Y-61864000D01*
X192098757Y-61864000D01*
X191860931Y-61911307D01*
X191636903Y-62004102D01*
X191435283Y-62138820D01*
X191263820Y-62310283D01*
X191129102Y-62511903D01*
X191036307Y-62735931D01*
X190989000Y-62973757D01*
X186731358Y-62973757D01*
X186662299Y-62904698D01*
X186534382Y-62819227D01*
X186392249Y-62760353D01*
X186241362Y-62730340D01*
X186087518Y-62730340D01*
X185936631Y-62760353D01*
X185794498Y-62819227D01*
X185666581Y-62904698D01*
X185557798Y-63013481D01*
X185472327Y-63141398D01*
X185413453Y-63283531D01*
X185383440Y-63434418D01*
X185383440Y-63588262D01*
X185387395Y-63608148D01*
X182909677Y-66085867D01*
X182891325Y-66100928D01*
X182876264Y-66119280D01*
X182831217Y-66174170D01*
X182786553Y-66257731D01*
X182759048Y-66348400D01*
X182749761Y-66442692D01*
X182752089Y-66466328D01*
X182752088Y-95087695D01*
X182701304Y-95138480D01*
X182403387Y-95138480D01*
X182392122Y-95121621D01*
X182283339Y-95012838D01*
X182155422Y-94927367D01*
X182013289Y-94868493D01*
X181862402Y-94838480D01*
X181708558Y-94838480D01*
X181557671Y-94868493D01*
X181415538Y-94927367D01*
X181287621Y-95012838D01*
X181178838Y-95121621D01*
X181136914Y-95184365D01*
X181111962Y-95147021D01*
X181003179Y-95038238D01*
X180875262Y-94952767D01*
X180733129Y-94893893D01*
X180582242Y-94863880D01*
X180428398Y-94863880D01*
X180277511Y-94893893D01*
X180135378Y-94952767D01*
X180007461Y-95038238D01*
X179898678Y-95147021D01*
X179813207Y-95274938D01*
X179754333Y-95417071D01*
X179724320Y-95567958D01*
X174499478Y-95567958D01*
X175023802Y-95043635D01*
X175042154Y-95028574D01*
X175102262Y-94955332D01*
X175146926Y-94871771D01*
X175174430Y-94781102D01*
X175181390Y-94710436D01*
X175181390Y-94710427D01*
X175183716Y-94686811D01*
X175181390Y-94663195D01*
X175181390Y-88623598D01*
X175312340Y-88623598D01*
X175312340Y-88777442D01*
X175342353Y-88928329D01*
X175401227Y-89070462D01*
X175486698Y-89198379D01*
X175595481Y-89307162D01*
X175723398Y-89392633D01*
X175865531Y-89451507D01*
X176016418Y-89481520D01*
X176170262Y-89481520D01*
X176321149Y-89451507D01*
X176463282Y-89392633D01*
X176591199Y-89307162D01*
X176699982Y-89198379D01*
X176785453Y-89070462D01*
X176844327Y-88928329D01*
X176874340Y-88777442D01*
X176874340Y-88623598D01*
X176872825Y-88615978D01*
X179411500Y-88615978D01*
X179411500Y-88769822D01*
X179441513Y-88920709D01*
X179500387Y-89062842D01*
X179585858Y-89190759D01*
X179694641Y-89299542D01*
X179822558Y-89385013D01*
X179964691Y-89443887D01*
X180115578Y-89473900D01*
X180269422Y-89473900D01*
X180420309Y-89443887D01*
X180562442Y-89385013D01*
X180690359Y-89299542D01*
X180799142Y-89190759D01*
X180884613Y-89062842D01*
X180943487Y-88920709D01*
X180973500Y-88769822D01*
X180973500Y-88615978D01*
X180943487Y-88465091D01*
X180884613Y-88322958D01*
X180799142Y-88195041D01*
X180690359Y-88086258D01*
X180562442Y-88000787D01*
X180420309Y-87941913D01*
X180269422Y-87911900D01*
X180115578Y-87911900D01*
X179964691Y-87941913D01*
X179822558Y-88000787D01*
X179694641Y-88086258D01*
X179585858Y-88195041D01*
X179500387Y-88322958D01*
X179441513Y-88465091D01*
X179411500Y-88615978D01*
X176872825Y-88615978D01*
X176844327Y-88472711D01*
X176785453Y-88330578D01*
X176699982Y-88202661D01*
X176591199Y-88093878D01*
X176463282Y-88008407D01*
X176321149Y-87949533D01*
X176170262Y-87919520D01*
X176016418Y-87919520D01*
X175865531Y-87949533D01*
X175723398Y-88008407D01*
X175595481Y-88093878D01*
X175486698Y-88202661D01*
X175401227Y-88330578D01*
X175342353Y-88472711D01*
X175312340Y-88623598D01*
X175181390Y-88623598D01*
X175181390Y-82273598D01*
X179048680Y-82273598D01*
X179048680Y-82427442D01*
X179078693Y-82578329D01*
X179137567Y-82720462D01*
X179223038Y-82848379D01*
X179331821Y-82957162D01*
X179459738Y-83042633D01*
X179601871Y-83101507D01*
X179752758Y-83131520D01*
X179906602Y-83131520D01*
X180057489Y-83101507D01*
X180199622Y-83042633D01*
X180327539Y-82957162D01*
X180436322Y-82848379D01*
X180521793Y-82720462D01*
X180580667Y-82578329D01*
X180610680Y-82427442D01*
X180610680Y-82273598D01*
X180580667Y-82122711D01*
X180521793Y-81980578D01*
X180436322Y-81852661D01*
X180327539Y-81743878D01*
X180199622Y-81658407D01*
X180057489Y-81599533D01*
X179906602Y-81569520D01*
X179752758Y-81569520D01*
X179601871Y-81599533D01*
X179459738Y-81658407D01*
X179331821Y-81743878D01*
X179223038Y-81852661D01*
X179137567Y-81980578D01*
X179078693Y-82122711D01*
X179048680Y-82273598D01*
X175181390Y-82273598D01*
X175181390Y-76143447D01*
X175198249Y-76132182D01*
X175307032Y-76023399D01*
X175392503Y-75895482D01*
X175451377Y-75753349D01*
X175481390Y-75602462D01*
X175481390Y-75448618D01*
X175451377Y-75297731D01*
X175392503Y-75155598D01*
X175307032Y-75027681D01*
X175198249Y-74918898D01*
X175070332Y-74833427D01*
X174928199Y-74774553D01*
X174777312Y-74744540D01*
X174623468Y-74744540D01*
X174472581Y-74774553D01*
X174445820Y-74785638D01*
X174445820Y-61470296D01*
X175482359Y-60433757D01*
X190989000Y-60433757D01*
X190989000Y-60676243D01*
X191036307Y-60914069D01*
X191129102Y-61138097D01*
X191263820Y-61339717D01*
X191435283Y-61511180D01*
X191636903Y-61645898D01*
X191860931Y-61738693D01*
X192098757Y-61786000D01*
X192341243Y-61786000D01*
X192579069Y-61738693D01*
X192803097Y-61645898D01*
X193004717Y-61511180D01*
X193176180Y-61339717D01*
X193310898Y-61138097D01*
X193403693Y-60914069D01*
X193451000Y-60676243D01*
X193451000Y-60433757D01*
X193403693Y-60195931D01*
X193310898Y-59971903D01*
X193176180Y-59770283D01*
X193004717Y-59598820D01*
X192803097Y-59464102D01*
X192579069Y-59371307D01*
X192341243Y-59324000D01*
X192098757Y-59324000D01*
X191860931Y-59371307D01*
X191636903Y-59464102D01*
X191435283Y-59598820D01*
X191263820Y-59770283D01*
X191129102Y-59971903D01*
X191036307Y-60195931D01*
X190989000Y-60433757D01*
X175482359Y-60433757D01*
X176414497Y-59501620D01*
X185503353Y-59501620D01*
X185514618Y-59518479D01*
X185623401Y-59627262D01*
X185751318Y-59712733D01*
X185893451Y-59771607D01*
X186044338Y-59801620D01*
X186198182Y-59801620D01*
X186349069Y-59771607D01*
X186491202Y-59712733D01*
X186619119Y-59627262D01*
X186727902Y-59518479D01*
X186813373Y-59390562D01*
X186872247Y-59248429D01*
X186902260Y-59097542D01*
X186902260Y-58943698D01*
X186872247Y-58792811D01*
X186813373Y-58650678D01*
X186727902Y-58522761D01*
X186619119Y-58413978D01*
X186491202Y-58328507D01*
X186349069Y-58269633D01*
X186198182Y-58239620D01*
X186044338Y-58239620D01*
X185893451Y-58269633D01*
X185751318Y-58328507D01*
X185623401Y-58413978D01*
X185514618Y-58522761D01*
X185503353Y-58539620D01*
X176238886Y-58539620D01*
X176215260Y-58537293D01*
X176120967Y-58546580D01*
X176093463Y-58554924D01*
X176030299Y-58574084D01*
X175946738Y-58618748D01*
X175873496Y-58678856D01*
X175858435Y-58697208D01*
X173641414Y-60914230D01*
X173623056Y-60929296D01*
X173611391Y-60943510D01*
X173428688Y-60760808D01*
X173432644Y-60740922D01*
X173432644Y-60587078D01*
X173402631Y-60436191D01*
X173343757Y-60294058D01*
X173258286Y-60166141D01*
X173149503Y-60057358D01*
X173021586Y-59971887D01*
X172879453Y-59913013D01*
X172728566Y-59883000D01*
X172574722Y-59883000D01*
X172423835Y-59913013D01*
X172281702Y-59971887D01*
X172153785Y-60057358D01*
X172045002Y-60166141D01*
X171959531Y-60294058D01*
X171900657Y-60436191D01*
X171870644Y-60587078D01*
X171870644Y-60740922D01*
X171900657Y-60891809D01*
X171959531Y-61033942D01*
X172045002Y-61161859D01*
X172153785Y-61270642D01*
X172281702Y-61356113D01*
X172423835Y-61414987D01*
X172574722Y-61445000D01*
X172728566Y-61445000D01*
X172748452Y-61441044D01*
X172950420Y-61643013D01*
X172950420Y-73365109D01*
X172821029Y-73311513D01*
X172670142Y-73281500D01*
X172516298Y-73281500D01*
X172365411Y-73311513D01*
X172223278Y-73370387D01*
X172095361Y-73455858D01*
X171986578Y-73564641D01*
X171975313Y-73581500D01*
X170282586Y-73581500D01*
X170258960Y-73579173D01*
X170164667Y-73588460D01*
X170137163Y-73596804D01*
X170073999Y-73615964D01*
X169990438Y-73660628D01*
X169917196Y-73720736D01*
X169902135Y-73739088D01*
X168896689Y-74744535D01*
X168878337Y-74759596D01*
X168863276Y-74777948D01*
X168818229Y-74832838D01*
X168773565Y-74916399D01*
X168746060Y-75007068D01*
X168736773Y-75101360D01*
X168739101Y-75124996D01*
X168739100Y-81425663D01*
X167891167Y-82273597D01*
X167789069Y-82231307D01*
X167551243Y-82184000D01*
X167308757Y-82184000D01*
X167070931Y-82231307D01*
X166846903Y-82324102D01*
X166645283Y-82458820D01*
X166473820Y-82630283D01*
X166339102Y-82831903D01*
X166246307Y-83055931D01*
X166226403Y-83155995D01*
X166226371Y-81133843D01*
X166246307Y-81234069D01*
X166339102Y-81458097D01*
X166473820Y-81659717D01*
X166645283Y-81831180D01*
X166846903Y-81965898D01*
X167070931Y-82058693D01*
X167308757Y-82106000D01*
X167551243Y-82106000D01*
X167789069Y-82058693D01*
X168013097Y-81965898D01*
X168214717Y-81831180D01*
X168386180Y-81659717D01*
X168520898Y-81458097D01*
X168613693Y-81234069D01*
X168661000Y-80996243D01*
X168661000Y-80753757D01*
X168613693Y-80515931D01*
X168520898Y-80291903D01*
X168386180Y-80090283D01*
X168214717Y-79918820D01*
X168013097Y-79784102D01*
X167789069Y-79691307D01*
X167551243Y-79644000D01*
X167308757Y-79644000D01*
X167070931Y-79691307D01*
X166846903Y-79784102D01*
X166645283Y-79918820D01*
X166473820Y-80090283D01*
X166339102Y-80291903D01*
X166246307Y-80515931D01*
X166226362Y-80616199D01*
X166226330Y-78593639D01*
X166246307Y-78694069D01*
X166339102Y-78918097D01*
X166473820Y-79119717D01*
X166645283Y-79291180D01*
X166846903Y-79425898D01*
X167070931Y-79518693D01*
X167308757Y-79566000D01*
X167551243Y-79566000D01*
X167789069Y-79518693D01*
X168013097Y-79425898D01*
X168214717Y-79291180D01*
X168386180Y-79119717D01*
X168520898Y-78918097D01*
X168613693Y-78694069D01*
X168661000Y-78456243D01*
X168661000Y-78213757D01*
X168613693Y-77975931D01*
X168520898Y-77751903D01*
X168386180Y-77550283D01*
X168214717Y-77378820D01*
X168013097Y-77244102D01*
X167789069Y-77151307D01*
X167551243Y-77104000D01*
X167308757Y-77104000D01*
X167070931Y-77151307D01*
X166846903Y-77244102D01*
X166645283Y-77378820D01*
X166473820Y-77550283D01*
X166339102Y-77751903D01*
X166246307Y-77975931D01*
X166226322Y-78076403D01*
X166226289Y-76053434D01*
X166246307Y-76154069D01*
X166339102Y-76378097D01*
X166473820Y-76579717D01*
X166645283Y-76751180D01*
X166846903Y-76885898D01*
X167070931Y-76978693D01*
X167308757Y-77026000D01*
X167551243Y-77026000D01*
X167789069Y-76978693D01*
X168013097Y-76885898D01*
X168214717Y-76751180D01*
X168386180Y-76579717D01*
X168520898Y-76378097D01*
X168613693Y-76154069D01*
X168661000Y-75916243D01*
X168661000Y-75673757D01*
X168613693Y-75435931D01*
X168520898Y-75211903D01*
X168386180Y-75010283D01*
X168214717Y-74838820D01*
X168013097Y-74704102D01*
X167789069Y-74611307D01*
X167551243Y-74564000D01*
X167308757Y-74564000D01*
X167070931Y-74611307D01*
X166846903Y-74704102D01*
X166645283Y-74838820D01*
X166473820Y-75010283D01*
X166339102Y-75211903D01*
X166246307Y-75435931D01*
X166226281Y-75536607D01*
X166226249Y-73513230D01*
X166246307Y-73614069D01*
X166339102Y-73838097D01*
X166473820Y-74039717D01*
X166645283Y-74211180D01*
X166846903Y-74345898D01*
X167070931Y-74438693D01*
X167308757Y-74486000D01*
X167551243Y-74486000D01*
X167789069Y-74438693D01*
X168013097Y-74345898D01*
X168214717Y-74211180D01*
X168386180Y-74039717D01*
X168520898Y-73838097D01*
X168613693Y-73614069D01*
X168661000Y-73376243D01*
X168661000Y-73133757D01*
X168613693Y-72895931D01*
X168520898Y-72671903D01*
X168386180Y-72470283D01*
X168214717Y-72298820D01*
X168013097Y-72164102D01*
X167789069Y-72071307D01*
X167551243Y-72024000D01*
X167308757Y-72024000D01*
X167070931Y-72071307D01*
X166846903Y-72164102D01*
X166645283Y-72298820D01*
X166473820Y-72470283D01*
X166339102Y-72671903D01*
X166246307Y-72895931D01*
X166226240Y-72996811D01*
X166226208Y-70973026D01*
X166246307Y-71074069D01*
X166339102Y-71298097D01*
X166473820Y-71499717D01*
X166645283Y-71671180D01*
X166846903Y-71805898D01*
X167070931Y-71898693D01*
X167308757Y-71946000D01*
X167551243Y-71946000D01*
X167789069Y-71898693D01*
X168013097Y-71805898D01*
X168214717Y-71671180D01*
X168386180Y-71499717D01*
X168520898Y-71298097D01*
X168613693Y-71074069D01*
X168661000Y-70836243D01*
X168661000Y-70593757D01*
X168613693Y-70355931D01*
X168520898Y-70131903D01*
X168386180Y-69930283D01*
X168214717Y-69758820D01*
X168013097Y-69624102D01*
X167789069Y-69531307D01*
X167551243Y-69484000D01*
X167308757Y-69484000D01*
X167070931Y-69531307D01*
X166846903Y-69624102D01*
X166645283Y-69758820D01*
X166473820Y-69930283D01*
X166339102Y-70131903D01*
X166246307Y-70355931D01*
X166226200Y-70457016D01*
X166226167Y-68432822D01*
X166246307Y-68534069D01*
X166339102Y-68758097D01*
X166473820Y-68959717D01*
X166645283Y-69131180D01*
X166846903Y-69265898D01*
X167070931Y-69358693D01*
X167308757Y-69406000D01*
X167551243Y-69406000D01*
X167789069Y-69358693D01*
X168013097Y-69265898D01*
X168214717Y-69131180D01*
X168386180Y-68959717D01*
X168520898Y-68758097D01*
X168613693Y-68534069D01*
X168661000Y-68296243D01*
X168661000Y-68053757D01*
X168613693Y-67815931D01*
X168520898Y-67591903D01*
X168386180Y-67390283D01*
X168214717Y-67218820D01*
X168013097Y-67084102D01*
X167789069Y-66991307D01*
X167551243Y-66944000D01*
X167308757Y-66944000D01*
X167070931Y-66991307D01*
X166846903Y-67084102D01*
X166645283Y-67218820D01*
X166473820Y-67390283D01*
X166339102Y-67591903D01*
X166246307Y-67815931D01*
X166226159Y-67917220D01*
X166226127Y-65892617D01*
X166246307Y-65994069D01*
X166339102Y-66218097D01*
X166473820Y-66419717D01*
X166645283Y-66591180D01*
X166846903Y-66725898D01*
X167070931Y-66818693D01*
X167308757Y-66866000D01*
X167551243Y-66866000D01*
X167789069Y-66818693D01*
X168013097Y-66725898D01*
X168214717Y-66591180D01*
X168386180Y-66419717D01*
X168520898Y-66218097D01*
X168613693Y-65994069D01*
X168661000Y-65756243D01*
X168661000Y-65513757D01*
X168613693Y-65275931D01*
X168520898Y-65051903D01*
X168386180Y-64850283D01*
X168214717Y-64678820D01*
X168013097Y-64544102D01*
X167789069Y-64451307D01*
X167551243Y-64404000D01*
X167308757Y-64404000D01*
X167070931Y-64451307D01*
X166846903Y-64544102D01*
X166645283Y-64678820D01*
X166473820Y-64850283D01*
X166339102Y-65051903D01*
X166246307Y-65275931D01*
X166226119Y-65377424D01*
X166226086Y-63352413D01*
X166246307Y-63454069D01*
X166339102Y-63678097D01*
X166473820Y-63879717D01*
X166645283Y-64051180D01*
X166846903Y-64185898D01*
X167070931Y-64278693D01*
X167308757Y-64326000D01*
X167551243Y-64326000D01*
X167789069Y-64278693D01*
X168013097Y-64185898D01*
X168214717Y-64051180D01*
X168386180Y-63879717D01*
X168520898Y-63678097D01*
X168613693Y-63454069D01*
X168661000Y-63216243D01*
X168661000Y-62973757D01*
X168613693Y-62735931D01*
X168520898Y-62511903D01*
X168386180Y-62310283D01*
X168214717Y-62138820D01*
X168013097Y-62004102D01*
X167789069Y-61911307D01*
X167551243Y-61864000D01*
X167308757Y-61864000D01*
X167070931Y-61911307D01*
X166846903Y-62004102D01*
X166645283Y-62138820D01*
X166473820Y-62310283D01*
X166339102Y-62511903D01*
X166246307Y-62735931D01*
X166226078Y-62837628D01*
X166226046Y-60812209D01*
X166246307Y-60914069D01*
X166339102Y-61138097D01*
X166473820Y-61339717D01*
X166645283Y-61511180D01*
X166846903Y-61645898D01*
X167070931Y-61738693D01*
X167308757Y-61786000D01*
X167551243Y-61786000D01*
X167789069Y-61738693D01*
X168013097Y-61645898D01*
X168214717Y-61511180D01*
X168386180Y-61339717D01*
X168520898Y-61138097D01*
X168613693Y-60914069D01*
X168661000Y-60676243D01*
X168661000Y-60433757D01*
X168613693Y-60195931D01*
X168520898Y-59971903D01*
X168386180Y-59770283D01*
X168214717Y-59598820D01*
X168013097Y-59464102D01*
X167789069Y-59371307D01*
X167551243Y-59324000D01*
X167308757Y-59324000D01*
X167070931Y-59371307D01*
X166846903Y-59464102D01*
X166645283Y-59598820D01*
X166473820Y-59770283D01*
X166339102Y-59971903D01*
X166246307Y-60195931D01*
X166226037Y-60297832D01*
X166226000Y-57939856D01*
X166248744Y-57707889D01*
X166310347Y-57503852D01*
X166410408Y-57315664D01*
X166545109Y-57150505D01*
X166709331Y-57014648D01*
X166896814Y-56913276D01*
X167100411Y-56850252D01*
X167331170Y-56825999D01*
X192438712Y-56824981D01*
X192670950Y-56847752D01*
%TA.AperFunction,Conductor*%
D20*
G36*
X192670950Y-56847752D02*
G01*
X192875259Y-56909436D01*
X193063691Y-57009627D01*
X193229073Y-57144510D01*
X193365106Y-57308946D01*
X193466612Y-57496677D01*
X193497912Y-57597794D01*
X193475059Y-104981122D01*
X193151000Y-104657064D01*
X193151000Y-104544897D01*
X193176180Y-104519717D01*
X193310898Y-104318097D01*
X193403693Y-104094069D01*
X193451000Y-103856243D01*
X193451000Y-103613757D01*
X193403693Y-103375931D01*
X193310898Y-103151903D01*
X193176180Y-102950283D01*
X193004717Y-102778820D01*
X192803097Y-102644102D01*
X192579069Y-102551307D01*
X192341243Y-102504000D01*
X192098757Y-102504000D01*
X191860931Y-102551307D01*
X191636903Y-102644102D01*
X191435283Y-102778820D01*
X191263820Y-102950283D01*
X191129102Y-103151903D01*
X191036307Y-103375931D01*
X190989000Y-103613757D01*
X190989000Y-103856243D01*
X191036307Y-104094069D01*
X191078597Y-104196167D01*
X190510949Y-104763815D01*
X190492597Y-104778876D01*
X190463470Y-104814367D01*
X190432489Y-104852118D01*
X190387825Y-104935679D01*
X190360320Y-105026348D01*
X190351033Y-105120640D01*
X190353361Y-105144276D01*
X190353360Y-106291775D01*
X186632238Y-110012898D01*
X186622398Y-109989143D01*
X186536927Y-109861226D01*
X186428144Y-109752443D01*
X186300227Y-109666972D01*
X186158094Y-109608098D01*
X186007207Y-109578085D01*
X185853363Y-109578085D01*
X185702476Y-109608098D01*
X185560343Y-109666972D01*
X185432426Y-109752443D01*
X185323643Y-109861226D01*
X185238172Y-109989143D01*
X185179298Y-110131276D01*
X185149285Y-110282163D01*
X185149285Y-110436007D01*
X185177546Y-110578086D01*
X181555659Y-110578086D01*
X181555659Y-110543437D01*
X181525646Y-110392550D01*
X181466772Y-110250417D01*
X181381301Y-110122500D01*
X181360296Y-110101495D01*
X181390530Y-110071260D01*
X181476001Y-109943343D01*
X181534875Y-109801210D01*
X181564888Y-109650323D01*
X181564888Y-109496479D01*
X181560932Y-109476593D01*
X181988506Y-109049020D01*
X182421193Y-109049020D01*
X182432458Y-109065879D01*
X182541241Y-109174662D01*
X182669158Y-109260133D01*
X182811291Y-109319007D01*
X182962178Y-109349020D01*
X183116022Y-109349020D01*
X183266909Y-109319007D01*
X183409042Y-109260133D01*
X183536959Y-109174662D01*
X183645742Y-109065879D01*
X183731213Y-108937962D01*
X183790087Y-108795829D01*
X183820100Y-108644942D01*
X183820100Y-108491098D01*
X183790087Y-108340211D01*
X183731213Y-108198078D01*
X183645742Y-108070161D01*
X183536959Y-107961378D01*
X183409042Y-107875907D01*
X183266909Y-107817033D01*
X183116022Y-107787020D01*
X182962178Y-107787020D01*
X182811291Y-107817033D01*
X182669158Y-107875907D01*
X182541241Y-107961378D01*
X182432458Y-108070161D01*
X182421193Y-108087020D01*
X181812884Y-108087020D01*
X181789268Y-108084694D01*
X181765652Y-108087020D01*
X181765643Y-108087020D01*
X181694977Y-108093980D01*
X181604308Y-108121484D01*
X181520747Y-108166148D01*
X181447505Y-108226256D01*
X181432444Y-108244609D01*
X180880696Y-108796357D01*
X180860810Y-108792401D01*
X180706966Y-108792401D01*
X180556079Y-108822414D01*
X180413946Y-108881288D01*
X180286029Y-108966759D01*
X180177246Y-109075542D01*
X180091775Y-109203459D01*
X180072260Y-109250572D01*
X180072260Y-104932286D01*
X180074587Y-104908659D01*
X180072552Y-104887994D01*
X180204809Y-104861687D01*
X180346942Y-104802813D01*
X180474859Y-104717342D01*
X180583642Y-104608559D01*
X180603393Y-104579000D01*
X181289493Y-104579000D01*
X181300758Y-104595859D01*
X181409541Y-104704642D01*
X181537458Y-104790113D01*
X181679591Y-104848987D01*
X181830478Y-104879000D01*
X181984322Y-104879000D01*
X182135209Y-104848987D01*
X182277342Y-104790113D01*
X182405259Y-104704642D01*
X182514042Y-104595859D01*
X182599513Y-104467942D01*
X182658387Y-104325809D01*
X182688400Y-104174922D01*
X182688400Y-104021078D01*
X182658387Y-103870191D01*
X182599513Y-103728058D01*
X182514042Y-103600141D01*
X182405259Y-103491358D01*
X182277342Y-103405887D01*
X182135209Y-103347013D01*
X181984322Y-103317000D01*
X181830478Y-103317000D01*
X181679591Y-103347013D01*
X181537458Y-103405887D01*
X181409541Y-103491358D01*
X181300758Y-103600141D01*
X181289493Y-103617000D01*
X180586421Y-103617000D01*
X180583642Y-103612841D01*
X180474859Y-103504058D01*
X180346942Y-103418587D01*
X180204809Y-103359713D01*
X180053922Y-103329700D01*
X179900078Y-103329700D01*
X179749191Y-103359713D01*
X179607058Y-103418587D01*
X179479141Y-103504058D01*
X179370358Y-103612841D01*
X179284887Y-103740758D01*
X179231787Y-103868951D01*
X178887832Y-103524996D01*
X178888940Y-103523177D01*
X178911039Y-103489078D01*
X178922314Y-103460740D01*
X178936823Y-103430611D01*
X178951951Y-103404124D01*
X178964829Y-103365593D01*
X178978781Y-103327446D01*
X178983468Y-103297307D01*
X178990910Y-103264701D01*
X178999762Y-103235522D01*
X179003746Y-103195081D01*
X179008860Y-103154774D01*
X179006724Y-103124361D01*
X179006724Y-103090909D01*
X179008861Y-103060481D01*
X179003747Y-103020183D01*
X178999766Y-102979761D01*
X178990912Y-102950571D01*
X178983470Y-102917969D01*
X178978784Y-102887834D01*
X178964820Y-102849653D01*
X178951944Y-102811131D01*
X178936825Y-102784661D01*
X178922310Y-102754517D01*
X178911037Y-102726186D01*
X178888948Y-102692102D01*
X178867817Y-102657400D01*
X178847178Y-102634946D01*
X178826321Y-102608792D01*
X178809020Y-102583670D01*
X178779887Y-102555344D01*
X178751570Y-102526222D01*
X178726453Y-102508925D01*
X178700306Y-102488074D01*
X178677853Y-102467435D01*
X178643149Y-102446302D01*
X178609055Y-102424206D01*
X178580717Y-102412931D01*
X178550592Y-102398424D01*
X178524107Y-102383297D01*
X178485560Y-102370413D01*
X178447421Y-102356464D01*
X178417290Y-102351778D01*
X178384670Y-102344333D01*
X178355484Y-102335480D01*
X178315045Y-102331498D01*
X178274755Y-102326385D01*
X178244332Y-102328522D01*
X178210882Y-102328522D01*
X178180469Y-102326386D01*
X178140155Y-102331501D01*
X178099723Y-102335484D01*
X178070549Y-102344334D01*
X178065660Y-102345450D01*
X178065660Y-101862078D01*
X186092100Y-101862078D01*
X186092100Y-102015922D01*
X186122113Y-102166809D01*
X186180987Y-102308942D01*
X186266458Y-102436859D01*
X186375241Y-102545642D01*
X186503158Y-102631113D01*
X186645291Y-102689987D01*
X186796178Y-102720000D01*
X186950022Y-102720000D01*
X187100909Y-102689987D01*
X187243042Y-102631113D01*
X187370959Y-102545642D01*
X187479742Y-102436859D01*
X187565213Y-102308942D01*
X187624087Y-102166809D01*
X187654100Y-102015922D01*
X187654100Y-101862078D01*
X187624087Y-101711191D01*
X187565213Y-101569058D01*
X187479742Y-101441141D01*
X187370959Y-101332358D01*
X187243042Y-101246887D01*
X187100909Y-101188013D01*
X186950022Y-101158000D01*
X186796178Y-101158000D01*
X186645291Y-101188013D01*
X186503158Y-101246887D01*
X186375241Y-101332358D01*
X186266458Y-101441141D01*
X186180987Y-101569058D01*
X186122113Y-101711191D01*
X186092100Y-101862078D01*
X178065660Y-101862078D01*
X178065660Y-101116498D01*
X178112469Y-101107187D01*
X178193175Y-101073757D01*
X190989000Y-101073757D01*
X190989000Y-101316243D01*
X191036307Y-101554069D01*
X191129102Y-101778097D01*
X191263820Y-101979717D01*
X191435283Y-102151180D01*
X191636903Y-102285898D01*
X191860931Y-102378693D01*
X192098757Y-102426000D01*
X192341243Y-102426000D01*
X192579069Y-102378693D01*
X192803097Y-102285898D01*
X193004717Y-102151180D01*
X193176180Y-101979717D01*
X193310898Y-101778097D01*
X193403693Y-101554069D01*
X193451000Y-101316243D01*
X193451000Y-101073757D01*
X193403693Y-100835931D01*
X193310898Y-100611903D01*
X193176180Y-100410283D01*
X193004717Y-100238820D01*
X192803097Y-100104102D01*
X192579069Y-100011307D01*
X192341243Y-99964000D01*
X192098757Y-99964000D01*
X191860931Y-100011307D01*
X191636903Y-100104102D01*
X191435283Y-100238820D01*
X191263820Y-100410283D01*
X191129102Y-100611903D01*
X191036307Y-100835931D01*
X190989000Y-101073757D01*
X178193175Y-101073757D01*
X178254602Y-101048313D01*
X178382519Y-100962842D01*
X178491302Y-100854059D01*
X178576773Y-100726142D01*
X178635647Y-100584009D01*
X178665660Y-100433122D01*
X178665660Y-100279278D01*
X178635647Y-100128391D01*
X178576773Y-99986258D01*
X178514847Y-99893578D01*
X186079400Y-99893578D01*
X186079400Y-100047422D01*
X186109413Y-100198309D01*
X186168287Y-100340442D01*
X186253758Y-100468359D01*
X186362541Y-100577142D01*
X186490458Y-100662613D01*
X186632591Y-100721487D01*
X186783478Y-100751500D01*
X186937322Y-100751500D01*
X187088209Y-100721487D01*
X187230342Y-100662613D01*
X187358259Y-100577142D01*
X187467042Y-100468359D01*
X187552513Y-100340442D01*
X187611387Y-100198309D01*
X187641400Y-100047422D01*
X187641400Y-99893578D01*
X187611387Y-99742691D01*
X187552513Y-99600558D01*
X187467042Y-99472641D01*
X187358259Y-99363858D01*
X187230342Y-99278387D01*
X187088209Y-99219513D01*
X186937322Y-99189500D01*
X186783478Y-99189500D01*
X186632591Y-99219513D01*
X186490458Y-99278387D01*
X186362541Y-99363858D01*
X186253758Y-99472641D01*
X186168287Y-99600558D01*
X186109413Y-99742691D01*
X186079400Y-99893578D01*
X178514847Y-99893578D01*
X178491302Y-99858341D01*
X178382519Y-99749558D01*
X178254602Y-99664087D01*
X178112469Y-99605213D01*
X177961582Y-99575200D01*
X177807738Y-99575200D01*
X177656851Y-99605213D01*
X177514718Y-99664087D01*
X177386801Y-99749558D01*
X177359660Y-99776699D01*
X177332519Y-99749558D01*
X177204602Y-99664087D01*
X177062469Y-99605213D01*
X176911582Y-99575200D01*
X176757738Y-99575200D01*
X176606851Y-99605213D01*
X176464718Y-99664087D01*
X176336801Y-99749558D01*
X176228018Y-99858341D01*
X176142547Y-99986258D01*
X176083673Y-100128391D01*
X176053660Y-100279278D01*
X176053660Y-100433122D01*
X176083673Y-100584009D01*
X176142547Y-100726142D01*
X176228018Y-100854059D01*
X176336801Y-100962842D01*
X176464718Y-101048313D01*
X176606851Y-101107187D01*
X176653660Y-101116498D01*
X176653661Y-103064824D01*
X176651333Y-103088460D01*
X176660620Y-103182752D01*
X176685183Y-103263723D01*
X176688125Y-103273421D01*
X176732789Y-103356982D01*
X176792897Y-103430224D01*
X176811249Y-103445285D01*
X178660260Y-105294297D01*
X178660261Y-105909185D01*
X178633438Y-105914912D01*
X178605427Y-105926978D01*
X178574852Y-105937677D01*
X178545428Y-105945708D01*
X178509049Y-105963860D01*
X178472226Y-105980961D01*
X178447613Y-105998949D01*
X178420167Y-106016194D01*
X178393272Y-106030570D01*
X178361855Y-106056353D01*
X178329752Y-106081226D01*
X178309756Y-106104243D01*
X178286838Y-106127161D01*
X178263816Y-106147161D01*
X178238929Y-106179282D01*
X178213160Y-106210682D01*
X178198785Y-106237576D01*
X178181542Y-106265019D01*
X178163551Y-106289636D01*
X178146446Y-106326467D01*
X178128298Y-106362838D01*
X178120265Y-106392266D01*
X178109567Y-106422839D01*
X178097501Y-106450852D01*
X178089017Y-106490585D01*
X178079423Y-106530058D01*
X178078140Y-106560526D01*
X178077547Y-106565797D01*
X178076560Y-106569049D01*
X178072249Y-106612818D01*
X178071807Y-106616742D01*
X178068984Y-106632053D01*
X178069488Y-106668011D01*
X178068984Y-106703968D01*
X178071808Y-106719282D01*
X178072248Y-106723188D01*
X178076560Y-106766972D01*
X178077548Y-106770228D01*
X178078140Y-106775485D01*
X178079423Y-106805961D01*
X178089021Y-106845450D01*
X178097501Y-106885168D01*
X178109569Y-106913186D01*
X178120265Y-106943753D01*
X178128298Y-106973181D01*
X178146446Y-107009552D01*
X178163551Y-107046383D01*
X178181542Y-107071000D01*
X178198785Y-107098443D01*
X178213160Y-107125337D01*
X178238929Y-107156737D01*
X178263816Y-107188858D01*
X178286838Y-107208858D01*
X178309756Y-107231776D01*
X178329752Y-107254793D01*
X178361855Y-107279666D01*
X178393272Y-107305449D01*
X178420167Y-107319825D01*
X178447613Y-107337070D01*
X178472226Y-107355058D01*
X178509049Y-107372159D01*
X178545428Y-107390311D01*
X178574852Y-107398342D01*
X178605427Y-107409041D01*
X178633438Y-107421107D01*
X178660260Y-107426834D01*
X178660261Y-111143242D01*
X178365253Y-111438251D01*
X178382427Y-111396789D01*
X178412440Y-111245902D01*
X178412440Y-111092058D01*
X178382427Y-110941171D01*
X178323553Y-110799038D01*
X178238082Y-110671121D01*
X178129299Y-110562338D01*
X178001382Y-110476867D01*
X177859249Y-110417993D01*
X177708362Y-110387980D01*
X177554518Y-110387980D01*
X177403631Y-110417993D01*
X177261498Y-110476867D01*
X177133581Y-110562338D01*
X177024798Y-110671121D01*
X176939327Y-110799038D01*
X176880453Y-110941171D01*
X176850440Y-111092058D01*
X176850440Y-111245902D01*
X176880453Y-111396789D01*
X176939327Y-111538922D01*
X177024798Y-111666839D01*
X177133581Y-111775622D01*
X177150441Y-111786887D01*
X177150441Y-111796480D01*
X173713288Y-111796480D01*
X173833242Y-111746793D01*
X173961159Y-111661322D01*
X174069942Y-111552539D01*
X174155413Y-111424622D01*
X174214287Y-111282489D01*
X174244300Y-111131602D01*
X174244300Y-110977758D01*
X174214287Y-110826871D01*
X174155413Y-110684738D01*
X174069942Y-110556821D01*
X173961159Y-110448038D01*
X173944300Y-110436773D01*
X173944300Y-96123136D01*
X174499478Y-95567958D01*
X179724320Y-95567958D01*
X179724320Y-95721802D01*
X179754333Y-95872689D01*
X179813207Y-96014822D01*
X179898678Y-96142739D01*
X180007461Y-96251522D01*
X180024321Y-96262787D01*
X180024321Y-96662644D01*
X180021993Y-96686280D01*
X180031280Y-96780572D01*
X180046197Y-96829744D01*
X180058785Y-96871241D01*
X180103449Y-96954802D01*
X180163557Y-97028044D01*
X180181909Y-97043105D01*
X180544734Y-97405931D01*
X180559796Y-97424284D01*
X180633038Y-97484392D01*
X180716599Y-97529056D01*
X180779763Y-97548216D01*
X180807267Y-97556560D01*
X180901560Y-97565847D01*
X180925186Y-97563520D01*
X182564494Y-97563520D01*
X182588120Y-97565847D01*
X182611746Y-97563520D01*
X182682412Y-97556560D01*
X182773081Y-97529056D01*
X182856642Y-97484392D01*
X182929884Y-97424284D01*
X182944950Y-97405926D01*
X183956511Y-96394366D01*
X183974863Y-96379305D01*
X184034971Y-96306063D01*
X184079635Y-96222502D01*
X184107139Y-96131833D01*
X184114099Y-96061167D01*
X184114099Y-96061158D01*
X184116425Y-96037542D01*
X184114099Y-96013926D01*
X184114099Y-89563398D01*
X185723800Y-89563398D01*
X185723800Y-89717242D01*
X185753813Y-89868129D01*
X185812687Y-90010262D01*
X185898158Y-90138179D01*
X186006941Y-90246962D01*
X186134858Y-90332433D01*
X186276991Y-90391307D01*
X186427878Y-90421320D01*
X186581722Y-90421320D01*
X186732609Y-90391307D01*
X186874742Y-90332433D01*
X187002659Y-90246962D01*
X187111442Y-90138179D01*
X187196913Y-90010262D01*
X187255787Y-89868129D01*
X187285800Y-89717242D01*
X187285800Y-89563398D01*
X187255787Y-89412511D01*
X187196913Y-89270378D01*
X187111442Y-89142461D01*
X187002659Y-89033678D01*
X186874742Y-88948207D01*
X186732609Y-88889333D01*
X186581722Y-88859320D01*
X186427878Y-88859320D01*
X186276991Y-88889333D01*
X186134858Y-88948207D01*
X186006941Y-89033678D01*
X185898158Y-89142461D01*
X185812687Y-89270378D01*
X185753813Y-89412511D01*
X185723800Y-89563398D01*
X184114099Y-89563398D01*
X184114099Y-87622838D01*
X185723800Y-87622838D01*
X185723800Y-87776682D01*
X185753813Y-87927569D01*
X185812687Y-88069702D01*
X185898158Y-88197619D01*
X186006941Y-88306402D01*
X186134858Y-88391873D01*
X186276991Y-88450747D01*
X186427878Y-88480760D01*
X186581722Y-88480760D01*
X186732609Y-88450747D01*
X186874742Y-88391873D01*
X187002659Y-88306402D01*
X187111442Y-88197619D01*
X187196913Y-88069702D01*
X187255787Y-87927569D01*
X187285800Y-87776682D01*
X187285800Y-87622838D01*
X187255787Y-87471951D01*
X187196913Y-87329818D01*
X187111442Y-87201901D01*
X187002659Y-87093118D01*
X186874742Y-87007647D01*
X186732609Y-86948773D01*
X186581722Y-86918760D01*
X186427878Y-86918760D01*
X186276991Y-86948773D01*
X186134858Y-87007647D01*
X186006941Y-87093118D01*
X185898158Y-87201901D01*
X185812687Y-87329818D01*
X185753813Y-87471951D01*
X185723800Y-87622838D01*
X184114099Y-87622838D01*
X184114099Y-75410518D01*
X185322480Y-75410518D01*
X185322480Y-75564362D01*
X185352493Y-75715249D01*
X185411367Y-75857382D01*
X185496838Y-75985299D01*
X185605621Y-76094082D01*
X185733538Y-76179553D01*
X185875671Y-76238427D01*
X185977001Y-76258583D01*
X185878211Y-76278233D01*
X185736078Y-76337107D01*
X185608161Y-76422578D01*
X185499378Y-76531361D01*
X185413907Y-76659278D01*
X185355033Y-76801411D01*
X185325020Y-76952298D01*
X185325020Y-77106142D01*
X185355033Y-77257029D01*
X185413907Y-77399162D01*
X185499378Y-77527079D01*
X185608161Y-77635862D01*
X185736078Y-77721333D01*
X185869803Y-77776724D01*
X185733540Y-77833167D01*
X185605623Y-77918638D01*
X185496840Y-78027421D01*
X185411369Y-78155338D01*
X185352495Y-78297471D01*
X185322482Y-78448358D01*
X185322482Y-78602202D01*
X185352495Y-78753089D01*
X185411369Y-78895222D01*
X185496840Y-79023139D01*
X185605623Y-79131922D01*
X185733540Y-79217393D01*
X185875673Y-79276267D01*
X186026560Y-79306280D01*
X186180404Y-79306280D01*
X186331291Y-79276267D01*
X186473424Y-79217393D01*
X186601341Y-79131922D01*
X186710124Y-79023139D01*
X186721389Y-79006280D01*
X188216044Y-79006280D01*
X188916861Y-79707098D01*
X188916860Y-88189234D01*
X188914533Y-88212860D01*
X188916860Y-88236485D01*
X188916861Y-93556225D01*
X188916860Y-93556235D01*
X188916861Y-95196722D01*
X188121664Y-95991920D01*
X186856007Y-95991920D01*
X186844742Y-95975061D01*
X186735959Y-95866278D01*
X186608042Y-95780807D01*
X186465909Y-95721933D01*
X186315022Y-95691920D01*
X186161178Y-95691920D01*
X186010291Y-95721933D01*
X185868158Y-95780807D01*
X185740241Y-95866278D01*
X185631458Y-95975061D01*
X185545987Y-96102978D01*
X185487113Y-96245111D01*
X185457100Y-96395998D01*
X185457100Y-96549842D01*
X185487113Y-96700729D01*
X185545987Y-96842862D01*
X185631458Y-96970779D01*
X185740241Y-97079562D01*
X185868158Y-97165033D01*
X186010291Y-97223907D01*
X186161178Y-97253920D01*
X186315022Y-97253920D01*
X186465909Y-97223907D01*
X186608042Y-97165033D01*
X186735959Y-97079562D01*
X186844742Y-96970779D01*
X186856007Y-96953920D01*
X188297274Y-96953920D01*
X188320900Y-96956247D01*
X188344526Y-96953920D01*
X188415192Y-96946960D01*
X188505861Y-96919456D01*
X188589422Y-96874792D01*
X188662664Y-96814684D01*
X188677730Y-96796326D01*
X189480299Y-95993757D01*
X190989000Y-95993757D01*
X190989000Y-96236243D01*
X191036307Y-96474069D01*
X191129102Y-96698097D01*
X191263820Y-96899717D01*
X191435283Y-97071180D01*
X191636903Y-97205898D01*
X191860931Y-97298693D01*
X192098757Y-97346000D01*
X192341243Y-97346000D01*
X192579069Y-97298693D01*
X192803097Y-97205898D01*
X193004717Y-97071180D01*
X193176180Y-96899717D01*
X193310898Y-96698097D01*
X193403693Y-96474069D01*
X193451000Y-96236243D01*
X193451000Y-95993757D01*
X193403693Y-95755931D01*
X193310898Y-95531903D01*
X193176180Y-95330283D01*
X193004717Y-95158820D01*
X192803097Y-95024102D01*
X192579069Y-94931307D01*
X192341243Y-94884000D01*
X192098757Y-94884000D01*
X191860931Y-94931307D01*
X191636903Y-95024102D01*
X191435283Y-95158820D01*
X191263820Y-95330283D01*
X191129102Y-95531903D01*
X191036307Y-95755931D01*
X190989000Y-95993757D01*
X189480299Y-95993757D01*
X189721272Y-95752785D01*
X189739624Y-95737724D01*
X189799732Y-95664482D01*
X189844396Y-95580921D01*
X189871900Y-95490252D01*
X189878860Y-95419586D01*
X189878860Y-95419577D01*
X189881186Y-95395961D01*
X189878860Y-95372345D01*
X189878860Y-93453757D01*
X190989000Y-93453757D01*
X190989000Y-93696243D01*
X191036307Y-93934069D01*
X191129102Y-94158097D01*
X191263820Y-94359717D01*
X191435283Y-94531180D01*
X191636903Y-94665898D01*
X191860931Y-94758693D01*
X192098757Y-94806000D01*
X192341243Y-94806000D01*
X192579069Y-94758693D01*
X192803097Y-94665898D01*
X193004717Y-94531180D01*
X193176180Y-94359717D01*
X193310898Y-94158097D01*
X193403693Y-93934069D01*
X193451000Y-93696243D01*
X193451000Y-93453757D01*
X193403693Y-93215931D01*
X193310898Y-92991903D01*
X193176180Y-92790283D01*
X193004717Y-92618820D01*
X192803097Y-92484102D01*
X192579069Y-92391307D01*
X192341243Y-92344000D01*
X192098757Y-92344000D01*
X191860931Y-92391307D01*
X191636903Y-92484102D01*
X191435283Y-92618820D01*
X191263820Y-92790283D01*
X191129102Y-92991903D01*
X191036307Y-93215931D01*
X190989000Y-93453757D01*
X189878860Y-93453757D01*
X189878860Y-89374096D01*
X191078597Y-90573834D01*
X191036307Y-90675931D01*
X190989000Y-90913757D01*
X190989000Y-91156243D01*
X191036307Y-91394069D01*
X191129102Y-91618097D01*
X191263820Y-91819717D01*
X191435283Y-91991180D01*
X191636903Y-92125898D01*
X191860931Y-92218693D01*
X192098757Y-92266000D01*
X192341243Y-92266000D01*
X192579069Y-92218693D01*
X192803097Y-92125898D01*
X193004717Y-91991180D01*
X193176180Y-91819717D01*
X193310898Y-91618097D01*
X193403693Y-91394069D01*
X193451000Y-91156243D01*
X193451000Y-90913757D01*
X193403693Y-90675931D01*
X193310898Y-90451903D01*
X193176180Y-90250283D01*
X193004717Y-90078820D01*
X192803097Y-89944102D01*
X192579069Y-89851307D01*
X192341243Y-89804000D01*
X192098757Y-89804000D01*
X191860931Y-89851307D01*
X191758834Y-89893597D01*
X189878860Y-88013624D01*
X189878860Y-86834096D01*
X191078597Y-88033834D01*
X191036307Y-88135931D01*
X190989000Y-88373757D01*
X190989000Y-88616243D01*
X191036307Y-88854069D01*
X191129102Y-89078097D01*
X191263820Y-89279717D01*
X191435283Y-89451180D01*
X191636903Y-89585898D01*
X191860931Y-89678693D01*
X192098757Y-89726000D01*
X192341243Y-89726000D01*
X192579069Y-89678693D01*
X192803097Y-89585898D01*
X193004717Y-89451180D01*
X193176180Y-89279717D01*
X193310898Y-89078097D01*
X193403693Y-88854069D01*
X193451000Y-88616243D01*
X193451000Y-88373757D01*
X193403693Y-88135931D01*
X193310898Y-87911903D01*
X193176180Y-87710283D01*
X193004717Y-87538820D01*
X192803097Y-87404102D01*
X192579069Y-87311307D01*
X192341243Y-87264000D01*
X192098757Y-87264000D01*
X191860931Y-87311307D01*
X191758834Y-87353597D01*
X190465600Y-86060364D01*
X190465600Y-84880836D01*
X191078597Y-85493833D01*
X191036307Y-85595931D01*
X190989000Y-85833757D01*
X190989000Y-86076243D01*
X191036307Y-86314069D01*
X191129102Y-86538097D01*
X191263820Y-86739717D01*
X191435283Y-86911180D01*
X191636903Y-87045898D01*
X191860931Y-87138693D01*
X192098757Y-87186000D01*
X192341243Y-87186000D01*
X192579069Y-87138693D01*
X192803097Y-87045898D01*
X193004717Y-86911180D01*
X193176180Y-86739717D01*
X193310898Y-86538097D01*
X193403693Y-86314069D01*
X193451000Y-86076243D01*
X193451000Y-85833757D01*
X193403693Y-85595931D01*
X193310898Y-85371903D01*
X193176180Y-85170283D01*
X193004717Y-84998820D01*
X192803097Y-84864102D01*
X192579069Y-84771307D01*
X192341243Y-84724000D01*
X192098757Y-84724000D01*
X191860931Y-84771307D01*
X191758833Y-84813597D01*
X191005389Y-84060153D01*
X191005389Y-83618635D01*
X191036307Y-83774069D01*
X191129102Y-83998097D01*
X191263820Y-84199717D01*
X191435283Y-84371180D01*
X191636903Y-84505898D01*
X191860931Y-84598693D01*
X192098757Y-84646000D01*
X192341243Y-84646000D01*
X192579069Y-84598693D01*
X192803097Y-84505898D01*
X193004717Y-84371180D01*
X193176180Y-84199717D01*
X193310898Y-83998097D01*
X193403693Y-83774069D01*
X193451000Y-83536243D01*
X193451000Y-83293757D01*
X193403693Y-83055931D01*
X193310898Y-82831903D01*
X193176180Y-82630283D01*
X193004717Y-82458820D01*
X192803097Y-82324102D01*
X192579069Y-82231307D01*
X192341243Y-82184000D01*
X192098757Y-82184000D01*
X191860931Y-82231307D01*
X191758833Y-82273597D01*
X191405400Y-81920164D01*
X191405400Y-81801297D01*
X191435283Y-81831180D01*
X191636903Y-81965898D01*
X191860931Y-82058693D01*
X192098757Y-82106000D01*
X192341243Y-82106000D01*
X192579069Y-82058693D01*
X192803097Y-81965898D01*
X193004717Y-81831180D01*
X193176180Y-81659717D01*
X193310898Y-81458097D01*
X193403693Y-81234069D01*
X193451000Y-80996243D01*
X193451000Y-80753757D01*
X193403693Y-80515931D01*
X193310898Y-80291903D01*
X193176180Y-80090283D01*
X193004717Y-79918820D01*
X192803097Y-79784102D01*
X192579069Y-79691307D01*
X192341243Y-79644000D01*
X192098757Y-79644000D01*
X191860931Y-79691307D01*
X191636903Y-79784102D01*
X191435283Y-79918820D01*
X191405400Y-79948703D01*
X191405400Y-79261297D01*
X191435283Y-79291180D01*
X191636903Y-79425898D01*
X191860931Y-79518693D01*
X192098757Y-79566000D01*
X192341243Y-79566000D01*
X192579069Y-79518693D01*
X192803097Y-79425898D01*
X193004717Y-79291180D01*
X193176180Y-79119717D01*
X193310898Y-78918097D01*
X193403693Y-78694069D01*
X193451000Y-78456243D01*
X193451000Y-78213757D01*
X193403693Y-77975931D01*
X193310898Y-77751903D01*
X193176180Y-77550283D01*
X193004717Y-77378820D01*
X192803097Y-77244102D01*
X192579069Y-77151307D01*
X192341243Y-77104000D01*
X192098757Y-77104000D01*
X191860931Y-77151307D01*
X191636903Y-77244102D01*
X191435283Y-77378820D01*
X191405400Y-77408703D01*
X191405400Y-76721297D01*
X191435283Y-76751180D01*
X191636903Y-76885898D01*
X191860931Y-76978693D01*
X192098757Y-77026000D01*
X192341243Y-77026000D01*
X192579069Y-76978693D01*
X192803097Y-76885898D01*
X193004717Y-76751180D01*
X193176180Y-76579717D01*
X193310898Y-76378097D01*
X193403693Y-76154069D01*
X193451000Y-75916243D01*
X193451000Y-75673757D01*
X193403693Y-75435931D01*
X193310898Y-75211903D01*
X193176180Y-75010283D01*
X193004717Y-74838820D01*
X192803097Y-74704102D01*
X192579069Y-74611307D01*
X192341243Y-74564000D01*
X192098757Y-74564000D01*
X191860931Y-74611307D01*
X191636903Y-74704102D01*
X191435283Y-74838820D01*
X191263820Y-75010283D01*
X191129102Y-75211903D01*
X191036307Y-75435931D01*
X191027656Y-75479420D01*
X189261930Y-73713694D01*
X189246864Y-73695336D01*
X189173622Y-73635228D01*
X189090061Y-73590564D01*
X188999392Y-73563060D01*
X188928726Y-73556100D01*
X188905100Y-73553773D01*
X188881474Y-73556100D01*
X186751867Y-73556100D01*
X186740602Y-73539241D01*
X186631819Y-73430458D01*
X186503902Y-73344987D01*
X186361769Y-73286113D01*
X186210882Y-73256100D01*
X186057038Y-73256100D01*
X185906151Y-73286113D01*
X185764018Y-73344987D01*
X185636101Y-73430458D01*
X185527318Y-73539241D01*
X185441847Y-73667158D01*
X185382973Y-73809291D01*
X185352960Y-73960178D01*
X185352960Y-74114022D01*
X185382973Y-74264909D01*
X185441847Y-74407042D01*
X185527318Y-74534959D01*
X185636101Y-74643742D01*
X185764018Y-74729213D01*
X185828584Y-74755957D01*
X185733538Y-74795327D01*
X185605621Y-74880798D01*
X185496838Y-74989581D01*
X185411367Y-75117498D01*
X185352493Y-75259631D01*
X185322480Y-75410518D01*
X184114099Y-75410518D01*
X184114099Y-73133757D01*
X190989000Y-73133757D01*
X190989000Y-73376243D01*
X191036307Y-73614069D01*
X191129102Y-73838097D01*
X191263820Y-74039717D01*
X191435283Y-74211180D01*
X191636903Y-74345898D01*
X191860931Y-74438693D01*
X192098757Y-74486000D01*
X192341243Y-74486000D01*
X192579069Y-74438693D01*
X192803097Y-74345898D01*
X193004717Y-74211180D01*
X193176180Y-74039717D01*
X193310898Y-73838097D01*
X193403693Y-73614069D01*
X193451000Y-73376243D01*
X193451000Y-73133757D01*
X193403693Y-72895931D01*
X193310898Y-72671903D01*
X193176180Y-72470283D01*
X193004717Y-72298820D01*
X192803097Y-72164102D01*
X192579069Y-72071307D01*
X192341243Y-72024000D01*
X192098757Y-72024000D01*
X191860931Y-72071307D01*
X191636903Y-72164102D01*
X191435283Y-72298820D01*
X191263820Y-72470283D01*
X191129102Y-72671903D01*
X191036307Y-72895931D01*
X190989000Y-73133757D01*
X184114099Y-73133757D01*
X184114099Y-70593757D01*
X190989000Y-70593757D01*
X190989000Y-70836243D01*
X191036307Y-71074069D01*
X191129102Y-71298097D01*
X191263820Y-71499717D01*
X191435283Y-71671180D01*
X191636903Y-71805898D01*
X191860931Y-71898693D01*
X192098757Y-71946000D01*
X192341243Y-71946000D01*
X192579069Y-71898693D01*
X192803097Y-71805898D01*
X193004717Y-71671180D01*
X193176180Y-71499717D01*
X193310898Y-71298097D01*
X193403693Y-71074069D01*
X193451000Y-70836243D01*
X193451000Y-70593757D01*
X193403693Y-70355931D01*
X193310898Y-70131903D01*
X193176180Y-69930283D01*
X193004717Y-69758820D01*
X192803097Y-69624102D01*
X192579069Y-69531307D01*
X192341243Y-69484000D01*
X192098757Y-69484000D01*
X191860931Y-69531307D01*
X191636903Y-69624102D01*
X191435283Y-69758820D01*
X191263820Y-69930283D01*
X191129102Y-70131903D01*
X191036307Y-70355931D01*
X190989000Y-70593757D01*
X184114099Y-70593757D01*
X184114099Y-68053757D01*
X190989000Y-68053757D01*
X190989000Y-68296243D01*
X191036307Y-68534069D01*
X191129102Y-68758097D01*
X191263820Y-68959717D01*
X191435283Y-69131180D01*
X191636903Y-69265898D01*
X191860931Y-69358693D01*
X192098757Y-69406000D01*
X192341243Y-69406000D01*
X192579069Y-69358693D01*
X192803097Y-69265898D01*
X193004717Y-69131180D01*
X193176180Y-68959717D01*
X193310898Y-68758097D01*
X193403693Y-68534069D01*
X193451000Y-68296243D01*
X193451000Y-68053757D01*
X193403693Y-67815931D01*
X193310898Y-67591903D01*
X193176180Y-67390283D01*
X193004717Y-67218820D01*
X192803097Y-67084102D01*
X192579069Y-66991307D01*
X192341243Y-66944000D01*
X192098757Y-66944000D01*
X191860931Y-66991307D01*
X191636903Y-67084102D01*
X191435283Y-67218820D01*
X191263820Y-67390283D01*
X191129102Y-67591903D01*
X191036307Y-67815931D01*
X190989000Y-68053757D01*
X184114099Y-68053757D01*
X184114099Y-67740517D01*
X186057472Y-65797145D01*
X186077358Y-65801100D01*
X186231202Y-65801100D01*
X186382089Y-65771087D01*
X186524222Y-65712213D01*
X186652139Y-65626742D01*
X186760922Y-65517959D01*
X186763729Y-65513757D01*
X190989000Y-65513757D01*
X190989000Y-65756243D01*
X191036307Y-65994069D01*
X191129102Y-66218097D01*
X191263820Y-66419717D01*
X191435283Y-66591180D01*
X191636903Y-66725898D01*
X191860931Y-66818693D01*
X192098757Y-66866000D01*
X192341243Y-66866000D01*
X192579069Y-66818693D01*
X192803097Y-66725898D01*
X193004717Y-66591180D01*
X193176180Y-66419717D01*
X193310898Y-66218097D01*
X193403693Y-65994069D01*
X193451000Y-65756243D01*
X193451000Y-65513757D01*
X193403693Y-65275931D01*
X193310898Y-65051903D01*
X193176180Y-64850283D01*
X193004717Y-64678820D01*
X192803097Y-64544102D01*
X192579069Y-64451307D01*
X192341243Y-64404000D01*
X192098757Y-64404000D01*
X191860931Y-64451307D01*
X191636903Y-64544102D01*
X191435283Y-64678820D01*
X191263820Y-64850283D01*
X191129102Y-65051903D01*
X191036307Y-65275931D01*
X190989000Y-65513757D01*
X186763729Y-65513757D01*
X186846393Y-65390042D01*
X186905267Y-65247909D01*
X186935280Y-65097022D01*
X186935280Y-64943178D01*
X186905267Y-64792291D01*
X186846393Y-64650158D01*
X186760922Y-64522241D01*
X186652139Y-64413458D01*
X186524222Y-64327987D01*
X186382089Y-64269113D01*
X186370111Y-64266730D01*
X186392249Y-64262327D01*
X186534382Y-64203453D01*
X186662299Y-64117982D01*
X186771082Y-64009199D01*
X186856553Y-63881282D01*
X186915427Y-63739149D01*
X186945440Y-63588262D01*
X186945440Y-63434418D01*
X186915427Y-63283531D01*
X186856553Y-63141398D01*
X186771082Y-63013481D01*
X186731358Y-62973757D01*
X190989000Y-62973757D01*
X190989000Y-63216243D01*
X191036307Y-63454069D01*
X191129102Y-63678097D01*
X191263820Y-63879717D01*
X191435283Y-64051180D01*
X191636903Y-64185898D01*
X191860931Y-64278693D01*
X192098757Y-64326000D01*
X192341243Y-64326000D01*
X192579069Y-64278693D01*
X192803097Y-64185898D01*
X193004717Y-64051180D01*
X193176180Y-63879717D01*
X193310898Y-63678097D01*
X193403693Y-63454069D01*
X193451000Y-63216243D01*
X193451000Y-62973757D01*
X193403693Y-62735931D01*
X193310898Y-62511903D01*
X193176180Y-62310283D01*
X193004717Y-62138820D01*
X192803097Y-62004102D01*
X192579069Y-61911307D01*
X192341243Y-61864000D01*
X192098757Y-61864000D01*
X191860931Y-61911307D01*
X191636903Y-62004102D01*
X191435283Y-62138820D01*
X191263820Y-62310283D01*
X191129102Y-62511903D01*
X191036307Y-62735931D01*
X190989000Y-62973757D01*
X186731358Y-62973757D01*
X186662299Y-62904698D01*
X186534382Y-62819227D01*
X186392249Y-62760353D01*
X186241362Y-62730340D01*
X186087518Y-62730340D01*
X185936631Y-62760353D01*
X185794498Y-62819227D01*
X185666581Y-62904698D01*
X185557798Y-63013481D01*
X185472327Y-63141398D01*
X185413453Y-63283531D01*
X185383440Y-63434418D01*
X185383440Y-63588262D01*
X185387395Y-63608148D01*
X182909677Y-66085867D01*
X182891325Y-66100928D01*
X182876264Y-66119280D01*
X182831217Y-66174170D01*
X182786553Y-66257731D01*
X182759048Y-66348400D01*
X182749761Y-66442692D01*
X182752089Y-66466328D01*
X182752088Y-95087695D01*
X182701304Y-95138480D01*
X182403387Y-95138480D01*
X182392122Y-95121621D01*
X182283339Y-95012838D01*
X182155422Y-94927367D01*
X182013289Y-94868493D01*
X181862402Y-94838480D01*
X181708558Y-94838480D01*
X181557671Y-94868493D01*
X181415538Y-94927367D01*
X181287621Y-95012838D01*
X181178838Y-95121621D01*
X181136914Y-95184365D01*
X181111962Y-95147021D01*
X181003179Y-95038238D01*
X180875262Y-94952767D01*
X180733129Y-94893893D01*
X180582242Y-94863880D01*
X180428398Y-94863880D01*
X180277511Y-94893893D01*
X180135378Y-94952767D01*
X180007461Y-95038238D01*
X179898678Y-95147021D01*
X179813207Y-95274938D01*
X179754333Y-95417071D01*
X179724320Y-95567958D01*
X174499478Y-95567958D01*
X175023802Y-95043635D01*
X175042154Y-95028574D01*
X175102262Y-94955332D01*
X175146926Y-94871771D01*
X175174430Y-94781102D01*
X175181390Y-94710436D01*
X175181390Y-94710427D01*
X175183716Y-94686811D01*
X175181390Y-94663195D01*
X175181390Y-88623598D01*
X175312340Y-88623598D01*
X175312340Y-88777442D01*
X175342353Y-88928329D01*
X175401227Y-89070462D01*
X175486698Y-89198379D01*
X175595481Y-89307162D01*
X175723398Y-89392633D01*
X175865531Y-89451507D01*
X176016418Y-89481520D01*
X176170262Y-89481520D01*
X176321149Y-89451507D01*
X176463282Y-89392633D01*
X176591199Y-89307162D01*
X176699982Y-89198379D01*
X176785453Y-89070462D01*
X176844327Y-88928329D01*
X176874340Y-88777442D01*
X176874340Y-88623598D01*
X176872825Y-88615978D01*
X179411500Y-88615978D01*
X179411500Y-88769822D01*
X179441513Y-88920709D01*
X179500387Y-89062842D01*
X179585858Y-89190759D01*
X179694641Y-89299542D01*
X179822558Y-89385013D01*
X179964691Y-89443887D01*
X180115578Y-89473900D01*
X180269422Y-89473900D01*
X180420309Y-89443887D01*
X180562442Y-89385013D01*
X180690359Y-89299542D01*
X180799142Y-89190759D01*
X180884613Y-89062842D01*
X180943487Y-88920709D01*
X180973500Y-88769822D01*
X180973500Y-88615978D01*
X180943487Y-88465091D01*
X180884613Y-88322958D01*
X180799142Y-88195041D01*
X180690359Y-88086258D01*
X180562442Y-88000787D01*
X180420309Y-87941913D01*
X180269422Y-87911900D01*
X180115578Y-87911900D01*
X179964691Y-87941913D01*
X179822558Y-88000787D01*
X179694641Y-88086258D01*
X179585858Y-88195041D01*
X179500387Y-88322958D01*
X179441513Y-88465091D01*
X179411500Y-88615978D01*
X176872825Y-88615978D01*
X176844327Y-88472711D01*
X176785453Y-88330578D01*
X176699982Y-88202661D01*
X176591199Y-88093878D01*
X176463282Y-88008407D01*
X176321149Y-87949533D01*
X176170262Y-87919520D01*
X176016418Y-87919520D01*
X175865531Y-87949533D01*
X175723398Y-88008407D01*
X175595481Y-88093878D01*
X175486698Y-88202661D01*
X175401227Y-88330578D01*
X175342353Y-88472711D01*
X175312340Y-88623598D01*
X175181390Y-88623598D01*
X175181390Y-82273598D01*
X179048680Y-82273598D01*
X179048680Y-82427442D01*
X179078693Y-82578329D01*
X179137567Y-82720462D01*
X179223038Y-82848379D01*
X179331821Y-82957162D01*
X179459738Y-83042633D01*
X179601871Y-83101507D01*
X179752758Y-83131520D01*
X179906602Y-83131520D01*
X180057489Y-83101507D01*
X180199622Y-83042633D01*
X180327539Y-82957162D01*
X180436322Y-82848379D01*
X180521793Y-82720462D01*
X180580667Y-82578329D01*
X180610680Y-82427442D01*
X180610680Y-82273598D01*
X180580667Y-82122711D01*
X180521793Y-81980578D01*
X180436322Y-81852661D01*
X180327539Y-81743878D01*
X180199622Y-81658407D01*
X180057489Y-81599533D01*
X179906602Y-81569520D01*
X179752758Y-81569520D01*
X179601871Y-81599533D01*
X179459738Y-81658407D01*
X179331821Y-81743878D01*
X179223038Y-81852661D01*
X179137567Y-81980578D01*
X179078693Y-82122711D01*
X179048680Y-82273598D01*
X175181390Y-82273598D01*
X175181390Y-76143447D01*
X175198249Y-76132182D01*
X175307032Y-76023399D01*
X175392503Y-75895482D01*
X175451377Y-75753349D01*
X175481390Y-75602462D01*
X175481390Y-75448618D01*
X175451377Y-75297731D01*
X175392503Y-75155598D01*
X175307032Y-75027681D01*
X175198249Y-74918898D01*
X175070332Y-74833427D01*
X174928199Y-74774553D01*
X174777312Y-74744540D01*
X174623468Y-74744540D01*
X174472581Y-74774553D01*
X174445820Y-74785638D01*
X174445820Y-61470296D01*
X175482359Y-60433757D01*
X190989000Y-60433757D01*
X190989000Y-60676243D01*
X191036307Y-60914069D01*
X191129102Y-61138097D01*
X191263820Y-61339717D01*
X191435283Y-61511180D01*
X191636903Y-61645898D01*
X191860931Y-61738693D01*
X192098757Y-61786000D01*
X192341243Y-61786000D01*
X192579069Y-61738693D01*
X192803097Y-61645898D01*
X193004717Y-61511180D01*
X193176180Y-61339717D01*
X193310898Y-61138097D01*
X193403693Y-60914069D01*
X193451000Y-60676243D01*
X193451000Y-60433757D01*
X193403693Y-60195931D01*
X193310898Y-59971903D01*
X193176180Y-59770283D01*
X193004717Y-59598820D01*
X192803097Y-59464102D01*
X192579069Y-59371307D01*
X192341243Y-59324000D01*
X192098757Y-59324000D01*
X191860931Y-59371307D01*
X191636903Y-59464102D01*
X191435283Y-59598820D01*
X191263820Y-59770283D01*
X191129102Y-59971903D01*
X191036307Y-60195931D01*
X190989000Y-60433757D01*
X175482359Y-60433757D01*
X176414497Y-59501620D01*
X185503353Y-59501620D01*
X185514618Y-59518479D01*
X185623401Y-59627262D01*
X185751318Y-59712733D01*
X185893451Y-59771607D01*
X186044338Y-59801620D01*
X186198182Y-59801620D01*
X186349069Y-59771607D01*
X186491202Y-59712733D01*
X186619119Y-59627262D01*
X186727902Y-59518479D01*
X186813373Y-59390562D01*
X186872247Y-59248429D01*
X186902260Y-59097542D01*
X186902260Y-58943698D01*
X186872247Y-58792811D01*
X186813373Y-58650678D01*
X186727902Y-58522761D01*
X186619119Y-58413978D01*
X186491202Y-58328507D01*
X186349069Y-58269633D01*
X186198182Y-58239620D01*
X186044338Y-58239620D01*
X185893451Y-58269633D01*
X185751318Y-58328507D01*
X185623401Y-58413978D01*
X185514618Y-58522761D01*
X185503353Y-58539620D01*
X176238886Y-58539620D01*
X176215260Y-58537293D01*
X176120967Y-58546580D01*
X176093463Y-58554924D01*
X176030299Y-58574084D01*
X175946738Y-58618748D01*
X175873496Y-58678856D01*
X175858435Y-58697208D01*
X173641414Y-60914230D01*
X173623056Y-60929296D01*
X173611391Y-60943510D01*
X173428688Y-60760808D01*
X173432644Y-60740922D01*
X173432644Y-60587078D01*
X173402631Y-60436191D01*
X173343757Y-60294058D01*
X173258286Y-60166141D01*
X173149503Y-60057358D01*
X173021586Y-59971887D01*
X172879453Y-59913013D01*
X172728566Y-59883000D01*
X172574722Y-59883000D01*
X172423835Y-59913013D01*
X172281702Y-59971887D01*
X172153785Y-60057358D01*
X172045002Y-60166141D01*
X171959531Y-60294058D01*
X171900657Y-60436191D01*
X171870644Y-60587078D01*
X171870644Y-60740922D01*
X171900657Y-60891809D01*
X171959531Y-61033942D01*
X172045002Y-61161859D01*
X172153785Y-61270642D01*
X172281702Y-61356113D01*
X172423835Y-61414987D01*
X172574722Y-61445000D01*
X172728566Y-61445000D01*
X172748452Y-61441044D01*
X172950420Y-61643013D01*
X172950420Y-73365109D01*
X172821029Y-73311513D01*
X172670142Y-73281500D01*
X172516298Y-73281500D01*
X172365411Y-73311513D01*
X172223278Y-73370387D01*
X172095361Y-73455858D01*
X171986578Y-73564641D01*
X171975313Y-73581500D01*
X170282586Y-73581500D01*
X170258960Y-73579173D01*
X170164667Y-73588460D01*
X170137163Y-73596804D01*
X170073999Y-73615964D01*
X169990438Y-73660628D01*
X169917196Y-73720736D01*
X169902135Y-73739088D01*
X168896689Y-74744535D01*
X168878337Y-74759596D01*
X168863276Y-74777948D01*
X168818229Y-74832838D01*
X168773565Y-74916399D01*
X168746060Y-75007068D01*
X168736773Y-75101360D01*
X168739101Y-75124996D01*
X168739100Y-81425663D01*
X167891167Y-82273597D01*
X167789069Y-82231307D01*
X167551243Y-82184000D01*
X167308757Y-82184000D01*
X167070931Y-82231307D01*
X166846903Y-82324102D01*
X166645283Y-82458820D01*
X166473820Y-82630283D01*
X166339102Y-82831903D01*
X166246307Y-83055931D01*
X166226403Y-83155995D01*
X166226371Y-81133843D01*
X166246307Y-81234069D01*
X166339102Y-81458097D01*
X166473820Y-81659717D01*
X166645283Y-81831180D01*
X166846903Y-81965898D01*
X167070931Y-82058693D01*
X167308757Y-82106000D01*
X167551243Y-82106000D01*
X167789069Y-82058693D01*
X168013097Y-81965898D01*
X168214717Y-81831180D01*
X168386180Y-81659717D01*
X168520898Y-81458097D01*
X168613693Y-81234069D01*
X168661000Y-80996243D01*
X168661000Y-80753757D01*
X168613693Y-80515931D01*
X168520898Y-80291903D01*
X168386180Y-80090283D01*
X168214717Y-79918820D01*
X168013097Y-79784102D01*
X167789069Y-79691307D01*
X167551243Y-79644000D01*
X167308757Y-79644000D01*
X167070931Y-79691307D01*
X166846903Y-79784102D01*
X166645283Y-79918820D01*
X166473820Y-80090283D01*
X166339102Y-80291903D01*
X166246307Y-80515931D01*
X166226362Y-80616199D01*
X166226330Y-78593639D01*
X166246307Y-78694069D01*
X166339102Y-78918097D01*
X166473820Y-79119717D01*
X166645283Y-79291180D01*
X166846903Y-79425898D01*
X167070931Y-79518693D01*
X167308757Y-79566000D01*
X167551243Y-79566000D01*
X167789069Y-79518693D01*
X168013097Y-79425898D01*
X168214717Y-79291180D01*
X168386180Y-79119717D01*
X168520898Y-78918097D01*
X168613693Y-78694069D01*
X168661000Y-78456243D01*
X168661000Y-78213757D01*
X168613693Y-77975931D01*
X168520898Y-77751903D01*
X168386180Y-77550283D01*
X168214717Y-77378820D01*
X168013097Y-77244102D01*
X167789069Y-77151307D01*
X167551243Y-77104000D01*
X167308757Y-77104000D01*
X167070931Y-77151307D01*
X166846903Y-77244102D01*
X166645283Y-77378820D01*
X166473820Y-77550283D01*
X166339102Y-77751903D01*
X166246307Y-77975931D01*
X166226322Y-78076403D01*
X166226289Y-76053434D01*
X166246307Y-76154069D01*
X166339102Y-76378097D01*
X166473820Y-76579717D01*
X166645283Y-76751180D01*
X166846903Y-76885898D01*
X167070931Y-76978693D01*
X167308757Y-77026000D01*
X167551243Y-77026000D01*
X167789069Y-76978693D01*
X168013097Y-76885898D01*
X168214717Y-76751180D01*
X168386180Y-76579717D01*
X168520898Y-76378097D01*
X168613693Y-76154069D01*
X168661000Y-75916243D01*
X168661000Y-75673757D01*
X168613693Y-75435931D01*
X168520898Y-75211903D01*
X168386180Y-75010283D01*
X168214717Y-74838820D01*
X168013097Y-74704102D01*
X167789069Y-74611307D01*
X167551243Y-74564000D01*
X167308757Y-74564000D01*
X167070931Y-74611307D01*
X166846903Y-74704102D01*
X166645283Y-74838820D01*
X166473820Y-75010283D01*
X166339102Y-75211903D01*
X166246307Y-75435931D01*
X166226281Y-75536607D01*
X166226249Y-73513230D01*
X166246307Y-73614069D01*
X166339102Y-73838097D01*
X166473820Y-74039717D01*
X166645283Y-74211180D01*
X166846903Y-74345898D01*
X167070931Y-74438693D01*
X167308757Y-74486000D01*
X167551243Y-74486000D01*
X167789069Y-74438693D01*
X168013097Y-74345898D01*
X168214717Y-74211180D01*
X168386180Y-74039717D01*
X168520898Y-73838097D01*
X168613693Y-73614069D01*
X168661000Y-73376243D01*
X168661000Y-73133757D01*
X168613693Y-72895931D01*
X168520898Y-72671903D01*
X168386180Y-72470283D01*
X168214717Y-72298820D01*
X168013097Y-72164102D01*
X167789069Y-72071307D01*
X167551243Y-72024000D01*
X167308757Y-72024000D01*
X167070931Y-72071307D01*
X166846903Y-72164102D01*
X166645283Y-72298820D01*
X166473820Y-72470283D01*
X166339102Y-72671903D01*
X166246307Y-72895931D01*
X166226240Y-72996811D01*
X166226208Y-70973026D01*
X166246307Y-71074069D01*
X166339102Y-71298097D01*
X166473820Y-71499717D01*
X166645283Y-71671180D01*
X166846903Y-71805898D01*
X167070931Y-71898693D01*
X167308757Y-71946000D01*
X167551243Y-71946000D01*
X167789069Y-71898693D01*
X168013097Y-71805898D01*
X168214717Y-71671180D01*
X168386180Y-71499717D01*
X168520898Y-71298097D01*
X168613693Y-71074069D01*
X168661000Y-70836243D01*
X168661000Y-70593757D01*
X168613693Y-70355931D01*
X168520898Y-70131903D01*
X168386180Y-69930283D01*
X168214717Y-69758820D01*
X168013097Y-69624102D01*
X167789069Y-69531307D01*
X167551243Y-69484000D01*
X167308757Y-69484000D01*
X167070931Y-69531307D01*
X166846903Y-69624102D01*
X166645283Y-69758820D01*
X166473820Y-69930283D01*
X166339102Y-70131903D01*
X166246307Y-70355931D01*
X166226200Y-70457016D01*
X166226167Y-68432822D01*
X166246307Y-68534069D01*
X166339102Y-68758097D01*
X166473820Y-68959717D01*
X166645283Y-69131180D01*
X166846903Y-69265898D01*
X167070931Y-69358693D01*
X167308757Y-69406000D01*
X167551243Y-69406000D01*
X167789069Y-69358693D01*
X168013097Y-69265898D01*
X168214717Y-69131180D01*
X168386180Y-68959717D01*
X168520898Y-68758097D01*
X168613693Y-68534069D01*
X168661000Y-68296243D01*
X168661000Y-68053757D01*
X168613693Y-67815931D01*
X168520898Y-67591903D01*
X168386180Y-67390283D01*
X168214717Y-67218820D01*
X168013097Y-67084102D01*
X167789069Y-66991307D01*
X167551243Y-66944000D01*
X167308757Y-66944000D01*
X167070931Y-66991307D01*
X166846903Y-67084102D01*
X166645283Y-67218820D01*
X166473820Y-67390283D01*
X166339102Y-67591903D01*
X166246307Y-67815931D01*
X166226159Y-67917220D01*
X166226127Y-65892617D01*
X166246307Y-65994069D01*
X166339102Y-66218097D01*
X166473820Y-66419717D01*
X166645283Y-66591180D01*
X166846903Y-66725898D01*
X167070931Y-66818693D01*
X167308757Y-66866000D01*
X167551243Y-66866000D01*
X167789069Y-66818693D01*
X168013097Y-66725898D01*
X168214717Y-66591180D01*
X168386180Y-66419717D01*
X168520898Y-66218097D01*
X168613693Y-65994069D01*
X168661000Y-65756243D01*
X168661000Y-65513757D01*
X168613693Y-65275931D01*
X168520898Y-65051903D01*
X168386180Y-64850283D01*
X168214717Y-64678820D01*
X168013097Y-64544102D01*
X167789069Y-64451307D01*
X167551243Y-64404000D01*
X167308757Y-64404000D01*
X167070931Y-64451307D01*
X166846903Y-64544102D01*
X166645283Y-64678820D01*
X166473820Y-64850283D01*
X166339102Y-65051903D01*
X166246307Y-65275931D01*
X166226119Y-65377424D01*
X166226086Y-63352413D01*
X166246307Y-63454069D01*
X166339102Y-63678097D01*
X166473820Y-63879717D01*
X166645283Y-64051180D01*
X166846903Y-64185898D01*
X167070931Y-64278693D01*
X167308757Y-64326000D01*
X167551243Y-64326000D01*
X167789069Y-64278693D01*
X168013097Y-64185898D01*
X168214717Y-64051180D01*
X168386180Y-63879717D01*
X168520898Y-63678097D01*
X168613693Y-63454069D01*
X168661000Y-63216243D01*
X168661000Y-62973757D01*
X168613693Y-62735931D01*
X168520898Y-62511903D01*
X168386180Y-62310283D01*
X168214717Y-62138820D01*
X168013097Y-62004102D01*
X167789069Y-61911307D01*
X167551243Y-61864000D01*
X167308757Y-61864000D01*
X167070931Y-61911307D01*
X166846903Y-62004102D01*
X166645283Y-62138820D01*
X166473820Y-62310283D01*
X166339102Y-62511903D01*
X166246307Y-62735931D01*
X166226078Y-62837628D01*
X166226046Y-60812209D01*
X166246307Y-60914069D01*
X166339102Y-61138097D01*
X166473820Y-61339717D01*
X166645283Y-61511180D01*
X166846903Y-61645898D01*
X167070931Y-61738693D01*
X167308757Y-61786000D01*
X167551243Y-61786000D01*
X167789069Y-61738693D01*
X168013097Y-61645898D01*
X168214717Y-61511180D01*
X168386180Y-61339717D01*
X168520898Y-61138097D01*
X168613693Y-60914069D01*
X168661000Y-60676243D01*
X168661000Y-60433757D01*
X168613693Y-60195931D01*
X168520898Y-59971903D01*
X168386180Y-59770283D01*
X168214717Y-59598820D01*
X168013097Y-59464102D01*
X167789069Y-59371307D01*
X167551243Y-59324000D01*
X167308757Y-59324000D01*
X167070931Y-59371307D01*
X166846903Y-59464102D01*
X166645283Y-59598820D01*
X166473820Y-59770283D01*
X166339102Y-59971903D01*
X166246307Y-60195931D01*
X166226037Y-60297832D01*
X166226000Y-57939856D01*
X166248744Y-57707889D01*
X166310347Y-57503852D01*
X166410408Y-57315664D01*
X166545109Y-57150505D01*
X166709331Y-57014648D01*
X166896814Y-56913276D01*
X167100411Y-56850252D01*
X167331170Y-56825999D01*
X192438712Y-56824981D01*
X192670950Y-56847752D01*
G37*
%TD.AperFunction*%
M02*
