%TF.GenerationSoftware,KiCad,Pcbnew,5.1.5+dfsg1-2build2*%
%TF.CreationDate,2021-07-16T13:05:09+05:30*%
%TF.ProjectId,USBee32-S2,55534265-6533-4322-9d53-322e6b696361,rev?*%
%TF.SameCoordinates,Original*%
%TF.FileFunction,Legend,Top*%
%TF.FilePolarity,Positive*%
%FSLAX46Y46*%
G04 Gerber Fmt 4.6, Leading zero omitted, Abs format (unit mm)*
G04 Created by KiCad (PCBNEW 5.1.5+dfsg1-2build2) date 2021-07-16 13:05:09*
%MOMM*%
%LPD*%
G04 APERTURE LIST*
%ADD10C,0.125000*%
%ADD11C,0.170000*%
%ADD12C,0.150000*%
%ADD13C,0.100000*%
%ADD14C,0.120000*%
%ADD15C,0.200000*%
%ADD16C,0.127000*%
G04 APERTURE END LIST*
D10*
X183339763Y-107376114D02*
X183720716Y-107376114D01*
X183530240Y-107566590D02*
X183530240Y-107185638D01*
D11*
X177996666Y-61660000D02*
X177930000Y-61626666D01*
X177830000Y-61626666D01*
X177730000Y-61660000D01*
X177663333Y-61726666D01*
X177630000Y-61793333D01*
X177596666Y-61926666D01*
X177596666Y-62026666D01*
X177630000Y-62160000D01*
X177663333Y-62226666D01*
X177730000Y-62293333D01*
X177830000Y-62326666D01*
X177896666Y-62326666D01*
X177996666Y-62293333D01*
X178030000Y-62260000D01*
X178030000Y-62026666D01*
X177896666Y-62026666D01*
X178330000Y-62326666D02*
X178330000Y-61626666D01*
X178730000Y-62326666D01*
X178730000Y-61626666D01*
X179063333Y-62326666D02*
X179063333Y-61626666D01*
X179230000Y-61626666D01*
X179330000Y-61660000D01*
X179396666Y-61726666D01*
X179430000Y-61793333D01*
X179463333Y-61926666D01*
X179463333Y-62026666D01*
X179430000Y-62160000D01*
X179396666Y-62226666D01*
X179330000Y-62293333D01*
X179230000Y-62326666D01*
X179063333Y-62326666D01*
D12*
X169721695Y-73403666D02*
X169721695Y-73070333D01*
X169340742Y-73037000D01*
X169378838Y-73070333D01*
X169416933Y-73137000D01*
X169416933Y-73303666D01*
X169378838Y-73370333D01*
X169340742Y-73403666D01*
X169264552Y-73437000D01*
X169074076Y-73437000D01*
X168997885Y-73403666D01*
X168959790Y-73370333D01*
X168921695Y-73303666D01*
X168921695Y-73137000D01*
X168959790Y-73070333D01*
X168997885Y-73037000D01*
X172954500Y-85499711D02*
X172954500Y-85042568D01*
X173221166Y-85271140D02*
X172687833Y-85271140D01*
X168972495Y-100891266D02*
X168972495Y-100491266D01*
X168972495Y-100691266D02*
X169772495Y-100691266D01*
X169658209Y-100624600D01*
X169582019Y-100557933D01*
X169543923Y-100491266D01*
X169772495Y-101491266D02*
X169772495Y-101357933D01*
X169734400Y-101291266D01*
X169696304Y-101257933D01*
X169582019Y-101191266D01*
X169429638Y-101157933D01*
X169124876Y-101157933D01*
X169048685Y-101191266D01*
X169010590Y-101224600D01*
X168972495Y-101291266D01*
X168972495Y-101424600D01*
X169010590Y-101491266D01*
X169048685Y-101524600D01*
X169124876Y-101557933D01*
X169315352Y-101557933D01*
X169391542Y-101524600D01*
X169429638Y-101491266D01*
X169467733Y-101424600D01*
X169467733Y-101291266D01*
X169429638Y-101224600D01*
X169391542Y-101191266D01*
X169315352Y-101157933D01*
X189851304Y-111737000D02*
X190651304Y-111503666D01*
X189851304Y-111270333D01*
X190651304Y-111037000D02*
X189851304Y-111037000D01*
X189851304Y-99503666D02*
X189851304Y-99070333D01*
X190156066Y-99303666D01*
X190156066Y-99203666D01*
X190194161Y-99137000D01*
X190232257Y-99103666D01*
X190308447Y-99070333D01*
X190498923Y-99070333D01*
X190575114Y-99103666D01*
X190613209Y-99137000D01*
X190651304Y-99203666D01*
X190651304Y-99403666D01*
X190613209Y-99470333D01*
X190575114Y-99503666D01*
X189851304Y-98870333D02*
X190651304Y-98637000D01*
X189851304Y-98403666D01*
X189851304Y-98237000D02*
X189851304Y-97803666D01*
X190156066Y-98037000D01*
X190156066Y-97937000D01*
X190194161Y-97870333D01*
X190232257Y-97837000D01*
X190308447Y-97803666D01*
X190498923Y-97803666D01*
X190575114Y-97837000D01*
X190613209Y-97870333D01*
X190651304Y-97937000D01*
X190651304Y-98137000D01*
X190613209Y-98203666D01*
X190575114Y-98237000D01*
X170971866Y-88235600D02*
X170271866Y-88235600D01*
X170271866Y-88007028D01*
X170305200Y-87949885D01*
X170338533Y-87921314D01*
X170405200Y-87892742D01*
X170505200Y-87892742D01*
X170571866Y-87921314D01*
X170605200Y-87949885D01*
X170638533Y-88007028D01*
X170638533Y-88235600D01*
X170271866Y-87692742D02*
X170971866Y-87549885D01*
X170471866Y-87435600D01*
X170971866Y-87321314D01*
X170271866Y-87178457D01*
X170971866Y-86607028D02*
X170638533Y-86807028D01*
X170971866Y-86949885D02*
X170271866Y-86949885D01*
X170271866Y-86721314D01*
X170305200Y-86664171D01*
X170338533Y-86635600D01*
X170405200Y-86607028D01*
X170505200Y-86607028D01*
X170571866Y-86635600D01*
X170605200Y-86664171D01*
X170638533Y-86721314D01*
X170638533Y-86949885D01*
D13*
X168747142Y-120007142D02*
X168947142Y-120007142D01*
X169032857Y-120321428D02*
X168747142Y-120321428D01*
X168747142Y-119721428D01*
X169032857Y-119721428D01*
X169290000Y-120321428D02*
X169290000Y-119721428D01*
X169632857Y-120321428D01*
X169632857Y-119721428D01*
X168605714Y-123937142D02*
X168691428Y-123965714D01*
X168720000Y-123994285D01*
X168748571Y-124051428D01*
X168748571Y-124137142D01*
X168720000Y-124194285D01*
X168691428Y-124222857D01*
X168634285Y-124251428D01*
X168405714Y-124251428D01*
X168405714Y-123651428D01*
X168605714Y-123651428D01*
X168662857Y-123680000D01*
X168691428Y-123708571D01*
X168720000Y-123765714D01*
X168720000Y-123822857D01*
X168691428Y-123880000D01*
X168662857Y-123908571D01*
X168605714Y-123937142D01*
X168405714Y-123937142D01*
X169120000Y-123651428D02*
X169234285Y-123651428D01*
X169291428Y-123680000D01*
X169348571Y-123737142D01*
X169377142Y-123851428D01*
X169377142Y-124051428D01*
X169348571Y-124165714D01*
X169291428Y-124222857D01*
X169234285Y-124251428D01*
X169120000Y-124251428D01*
X169062857Y-124222857D01*
X169005714Y-124165714D01*
X168977142Y-124051428D01*
X168977142Y-123851428D01*
X169005714Y-123737142D01*
X169062857Y-123680000D01*
X169120000Y-123651428D01*
X169748571Y-123651428D02*
X169862857Y-123651428D01*
X169920000Y-123680000D01*
X169977142Y-123737142D01*
X170005714Y-123851428D01*
X170005714Y-124051428D01*
X169977142Y-124165714D01*
X169920000Y-124222857D01*
X169862857Y-124251428D01*
X169748571Y-124251428D01*
X169691428Y-124222857D01*
X169634285Y-124165714D01*
X169605714Y-124051428D01*
X169605714Y-123851428D01*
X169634285Y-123737142D01*
X169691428Y-123680000D01*
X169748571Y-123651428D01*
X170177142Y-123651428D02*
X170520000Y-123651428D01*
X170348571Y-124251428D02*
X170348571Y-123651428D01*
D12*
X189927495Y-96528733D02*
X189889400Y-96495400D01*
X189851304Y-96428733D01*
X189851304Y-96262066D01*
X189889400Y-96195400D01*
X189927495Y-96162066D01*
X190003685Y-96128733D01*
X190079876Y-96128733D01*
X190194161Y-96162066D01*
X190651304Y-96562066D01*
X190651304Y-96128733D01*
X189851304Y-95528733D02*
X189851304Y-95662066D01*
X189889400Y-95728733D01*
X189927495Y-95762066D01*
X190041780Y-95828733D01*
X190194161Y-95862066D01*
X190498923Y-95862066D01*
X190575114Y-95828733D01*
X190613209Y-95795400D01*
X190651304Y-95728733D01*
X190651304Y-95595400D01*
X190613209Y-95528733D01*
X190575114Y-95495400D01*
X190498923Y-95462066D01*
X190308447Y-95462066D01*
X190232257Y-95495400D01*
X190194161Y-95528733D01*
X190156066Y-95595400D01*
X190156066Y-95728733D01*
X190194161Y-95795400D01*
X190232257Y-95828733D01*
X190308447Y-95862066D01*
X190591904Y-108723333D02*
X190591904Y-109123333D01*
X190591904Y-108923333D02*
X189791904Y-108923333D01*
X189906190Y-108990000D01*
X189982380Y-109056666D01*
X190020476Y-109123333D01*
X189791904Y-108490000D02*
X189791904Y-108023333D01*
X190591904Y-108323333D01*
X190591904Y-106223333D02*
X190591904Y-106623333D01*
X190591904Y-106423333D02*
X189791904Y-106423333D01*
X189906190Y-106490000D01*
X189982380Y-106556666D01*
X190020476Y-106623333D01*
X190591904Y-105890000D02*
X190591904Y-105756666D01*
X190553809Y-105690000D01*
X190515714Y-105656666D01*
X190401428Y-105590000D01*
X190249047Y-105556666D01*
X189944285Y-105556666D01*
X189868095Y-105590000D01*
X189830000Y-105623333D01*
X189791904Y-105690000D01*
X189791904Y-105823333D01*
X189830000Y-105890000D01*
X189868095Y-105923333D01*
X189944285Y-105956666D01*
X190134761Y-105956666D01*
X190210952Y-105923333D01*
X190249047Y-105890000D01*
X190287142Y-105823333D01*
X190287142Y-105690000D01*
X190249047Y-105623333D01*
X190210952Y-105590000D01*
X190134761Y-105556666D01*
X189868095Y-104123333D02*
X189830000Y-104090000D01*
X189791904Y-104023333D01*
X189791904Y-103856666D01*
X189830000Y-103790000D01*
X189868095Y-103756666D01*
X189944285Y-103723333D01*
X190020476Y-103723333D01*
X190134761Y-103756666D01*
X190591904Y-104156666D01*
X190591904Y-103723333D01*
X189791904Y-103290000D02*
X189791904Y-103223333D01*
X189830000Y-103156666D01*
X189868095Y-103123333D01*
X189944285Y-103090000D01*
X190096666Y-103056666D01*
X190287142Y-103056666D01*
X190439523Y-103090000D01*
X190515714Y-103123333D01*
X190553809Y-103156666D01*
X190591904Y-103223333D01*
X190591904Y-103290000D01*
X190553809Y-103356666D01*
X190515714Y-103390000D01*
X190439523Y-103423333D01*
X190287142Y-103456666D01*
X190096666Y-103456666D01*
X189944285Y-103423333D01*
X189868095Y-103390000D01*
X189830000Y-103356666D01*
X189791904Y-103290000D01*
X189868095Y-101623333D02*
X189830000Y-101590000D01*
X189791904Y-101523333D01*
X189791904Y-101356666D01*
X189830000Y-101290000D01*
X189868095Y-101256666D01*
X189944285Y-101223333D01*
X190020476Y-101223333D01*
X190134761Y-101256666D01*
X190591904Y-101656666D01*
X190591904Y-101223333D01*
X190591904Y-100556666D02*
X190591904Y-100956666D01*
X190591904Y-100756666D02*
X189791904Y-100756666D01*
X189906190Y-100823333D01*
X189982380Y-100890000D01*
X190020476Y-100956666D01*
X189791904Y-93906666D02*
X189791904Y-93473333D01*
X190096666Y-93706666D01*
X190096666Y-93606666D01*
X190134761Y-93540000D01*
X190172857Y-93506666D01*
X190249047Y-93473333D01*
X190439523Y-93473333D01*
X190515714Y-93506666D01*
X190553809Y-93540000D01*
X190591904Y-93606666D01*
X190591904Y-93806666D01*
X190553809Y-93873333D01*
X190515714Y-93906666D01*
X189791904Y-93240000D02*
X189791904Y-92806666D01*
X190096666Y-93040000D01*
X190096666Y-92940000D01*
X190134761Y-92873333D01*
X190172857Y-92840000D01*
X190249047Y-92806666D01*
X190439523Y-92806666D01*
X190515714Y-92840000D01*
X190553809Y-92873333D01*
X190591904Y-92940000D01*
X190591904Y-93140000D01*
X190553809Y-93206666D01*
X190515714Y-93240000D01*
X189791904Y-91406666D02*
X189791904Y-90973333D01*
X190096666Y-91206666D01*
X190096666Y-91106666D01*
X190134761Y-91040000D01*
X190172857Y-91006666D01*
X190249047Y-90973333D01*
X190439523Y-90973333D01*
X190515714Y-91006666D01*
X190553809Y-91040000D01*
X190591904Y-91106666D01*
X190591904Y-91306666D01*
X190553809Y-91373333D01*
X190515714Y-91406666D01*
X190058571Y-90373333D02*
X190591904Y-90373333D01*
X189753809Y-90540000D02*
X190325238Y-90706666D01*
X190325238Y-90273333D01*
X189791904Y-88906666D02*
X189791904Y-88473333D01*
X190096666Y-88706666D01*
X190096666Y-88606666D01*
X190134761Y-88540000D01*
X190172857Y-88506666D01*
X190249047Y-88473333D01*
X190439523Y-88473333D01*
X190515714Y-88506666D01*
X190553809Y-88540000D01*
X190591904Y-88606666D01*
X190591904Y-88806666D01*
X190553809Y-88873333D01*
X190515714Y-88906666D01*
X189791904Y-87840000D02*
X189791904Y-88173333D01*
X190172857Y-88206666D01*
X190134761Y-88173333D01*
X190096666Y-88106666D01*
X190096666Y-87940000D01*
X190134761Y-87873333D01*
X190172857Y-87840000D01*
X190249047Y-87806666D01*
X190439523Y-87806666D01*
X190515714Y-87840000D01*
X190553809Y-87873333D01*
X190591904Y-87940000D01*
X190591904Y-88106666D01*
X190553809Y-88173333D01*
X190515714Y-88206666D01*
X189791904Y-86406666D02*
X189791904Y-85973333D01*
X190096666Y-86206666D01*
X190096666Y-86106666D01*
X190134761Y-86040000D01*
X190172857Y-86006666D01*
X190249047Y-85973333D01*
X190439523Y-85973333D01*
X190515714Y-86006666D01*
X190553809Y-86040000D01*
X190591904Y-86106666D01*
X190591904Y-86306666D01*
X190553809Y-86373333D01*
X190515714Y-86406666D01*
X189791904Y-85373333D02*
X189791904Y-85506666D01*
X189830000Y-85573333D01*
X189868095Y-85606666D01*
X189982380Y-85673333D01*
X190134761Y-85706666D01*
X190439523Y-85706666D01*
X190515714Y-85673333D01*
X190553809Y-85640000D01*
X190591904Y-85573333D01*
X190591904Y-85440000D01*
X190553809Y-85373333D01*
X190515714Y-85340000D01*
X190439523Y-85306666D01*
X190249047Y-85306666D01*
X190172857Y-85340000D01*
X190134761Y-85373333D01*
X190096666Y-85440000D01*
X190096666Y-85573333D01*
X190134761Y-85640000D01*
X190172857Y-85673333D01*
X190249047Y-85706666D01*
X189791904Y-83906666D02*
X189791904Y-83473333D01*
X190096666Y-83706666D01*
X190096666Y-83606666D01*
X190134761Y-83540000D01*
X190172857Y-83506666D01*
X190249047Y-83473333D01*
X190439523Y-83473333D01*
X190515714Y-83506666D01*
X190553809Y-83540000D01*
X190591904Y-83606666D01*
X190591904Y-83806666D01*
X190553809Y-83873333D01*
X190515714Y-83906666D01*
X189791904Y-83240000D02*
X189791904Y-82773333D01*
X190591904Y-83073333D01*
X189791904Y-81406666D02*
X189791904Y-80973333D01*
X190096666Y-81206666D01*
X190096666Y-81106666D01*
X190134761Y-81040000D01*
X190172857Y-81006666D01*
X190249047Y-80973333D01*
X190439523Y-80973333D01*
X190515714Y-81006666D01*
X190553809Y-81040000D01*
X190591904Y-81106666D01*
X190591904Y-81306666D01*
X190553809Y-81373333D01*
X190515714Y-81406666D01*
X190134761Y-80573333D02*
X190096666Y-80640000D01*
X190058571Y-80673333D01*
X189982380Y-80706666D01*
X189944285Y-80706666D01*
X189868095Y-80673333D01*
X189830000Y-80640000D01*
X189791904Y-80573333D01*
X189791904Y-80440000D01*
X189830000Y-80373333D01*
X189868095Y-80340000D01*
X189944285Y-80306666D01*
X189982380Y-80306666D01*
X190058571Y-80340000D01*
X190096666Y-80373333D01*
X190134761Y-80440000D01*
X190134761Y-80573333D01*
X190172857Y-80640000D01*
X190210952Y-80673333D01*
X190287142Y-80706666D01*
X190439523Y-80706666D01*
X190515714Y-80673333D01*
X190553809Y-80640000D01*
X190591904Y-80573333D01*
X190591904Y-80440000D01*
X190553809Y-80373333D01*
X190515714Y-80340000D01*
X190439523Y-80306666D01*
X190287142Y-80306666D01*
X190210952Y-80340000D01*
X190172857Y-80373333D01*
X190134761Y-80440000D01*
X189791904Y-78906666D02*
X189791904Y-78473333D01*
X190096666Y-78706666D01*
X190096666Y-78606666D01*
X190134761Y-78540000D01*
X190172857Y-78506666D01*
X190249047Y-78473333D01*
X190439523Y-78473333D01*
X190515714Y-78506666D01*
X190553809Y-78540000D01*
X190591904Y-78606666D01*
X190591904Y-78806666D01*
X190553809Y-78873333D01*
X190515714Y-78906666D01*
X190591904Y-78140000D02*
X190591904Y-78006666D01*
X190553809Y-77940000D01*
X190515714Y-77906666D01*
X190401428Y-77840000D01*
X190249047Y-77806666D01*
X189944285Y-77806666D01*
X189868095Y-77840000D01*
X189830000Y-77873333D01*
X189791904Y-77940000D01*
X189791904Y-78073333D01*
X189830000Y-78140000D01*
X189868095Y-78173333D01*
X189944285Y-78206666D01*
X190134761Y-78206666D01*
X190210952Y-78173333D01*
X190249047Y-78140000D01*
X190287142Y-78073333D01*
X190287142Y-77940000D01*
X190249047Y-77873333D01*
X190210952Y-77840000D01*
X190134761Y-77806666D01*
X190553809Y-76673333D02*
X190591904Y-76573333D01*
X190591904Y-76406666D01*
X190553809Y-76340000D01*
X190515714Y-76306666D01*
X190439523Y-76273333D01*
X190363333Y-76273333D01*
X190287142Y-76306666D01*
X190249047Y-76340000D01*
X190210952Y-76406666D01*
X190172857Y-76540000D01*
X190134761Y-76606666D01*
X190096666Y-76640000D01*
X190020476Y-76673333D01*
X189944285Y-76673333D01*
X189868095Y-76640000D01*
X189830000Y-76606666D01*
X189791904Y-76540000D01*
X189791904Y-76373333D01*
X189830000Y-76273333D01*
X190515714Y-75573333D02*
X190553809Y-75606666D01*
X190591904Y-75706666D01*
X190591904Y-75773333D01*
X190553809Y-75873333D01*
X190477619Y-75940000D01*
X190401428Y-75973333D01*
X190249047Y-76006666D01*
X190134761Y-76006666D01*
X189982380Y-75973333D01*
X189906190Y-75940000D01*
X189830000Y-75873333D01*
X189791904Y-75773333D01*
X189791904Y-75706666D01*
X189830000Y-75606666D01*
X189868095Y-75573333D01*
X190591904Y-74940000D02*
X190591904Y-75273333D01*
X189791904Y-75273333D01*
X190553809Y-73940000D02*
X190591904Y-73840000D01*
X190591904Y-73673333D01*
X190553809Y-73606666D01*
X190515714Y-73573333D01*
X190439523Y-73540000D01*
X190363333Y-73540000D01*
X190287142Y-73573333D01*
X190249047Y-73606666D01*
X190210952Y-73673333D01*
X190172857Y-73806666D01*
X190134761Y-73873333D01*
X190096666Y-73906666D01*
X190020476Y-73940000D01*
X189944285Y-73940000D01*
X189868095Y-73906666D01*
X189830000Y-73873333D01*
X189791904Y-73806666D01*
X189791904Y-73640000D01*
X189830000Y-73540000D01*
X190591904Y-73240000D02*
X189791904Y-73240000D01*
X189791904Y-73073333D01*
X189830000Y-72973333D01*
X189906190Y-72906666D01*
X189982380Y-72873333D01*
X190134761Y-72840000D01*
X190249047Y-72840000D01*
X190401428Y-72873333D01*
X190477619Y-72906666D01*
X190553809Y-72973333D01*
X190591904Y-73073333D01*
X190591904Y-73240000D01*
X190363333Y-72573333D02*
X190363333Y-72240000D01*
X190591904Y-72640000D02*
X189791904Y-72406666D01*
X190591904Y-72173333D01*
X190058571Y-70790000D02*
X190591904Y-70790000D01*
X189753809Y-70956666D02*
X190325238Y-71123333D01*
X190325238Y-70690000D01*
X189868095Y-70456666D02*
X189830000Y-70423333D01*
X189791904Y-70356666D01*
X189791904Y-70190000D01*
X189830000Y-70123333D01*
X189868095Y-70090000D01*
X189944285Y-70056666D01*
X190020476Y-70056666D01*
X190134761Y-70090000D01*
X190591904Y-70490000D01*
X190591904Y-70056666D01*
X189791904Y-68973333D02*
X189791904Y-68573333D01*
X190591904Y-68773333D02*
X189791904Y-68773333D01*
X189791904Y-68406666D02*
X190591904Y-67940000D01*
X189791904Y-67940000D02*
X190591904Y-68406666D01*
X190591904Y-67673333D02*
X189791904Y-67673333D01*
X189791904Y-67506666D01*
X189830000Y-67406666D01*
X189906190Y-67340000D01*
X189982380Y-67306666D01*
X190134761Y-67273333D01*
X190249047Y-67273333D01*
X190401428Y-67306666D01*
X190477619Y-67340000D01*
X190553809Y-67406666D01*
X190591904Y-67506666D01*
X190591904Y-67673333D01*
X190591904Y-65806666D02*
X190210952Y-66040000D01*
X190591904Y-66206666D02*
X189791904Y-66206666D01*
X189791904Y-65940000D01*
X189830000Y-65873333D01*
X189868095Y-65840000D01*
X189944285Y-65806666D01*
X190058571Y-65806666D01*
X190134761Y-65840000D01*
X190172857Y-65873333D01*
X190210952Y-65940000D01*
X190210952Y-66206666D01*
X189791904Y-65573333D02*
X190591904Y-65106666D01*
X189791904Y-65106666D02*
X190591904Y-65573333D01*
X190591904Y-64840000D02*
X189791904Y-64840000D01*
X189791904Y-64673333D01*
X189830000Y-64573333D01*
X189906190Y-64506666D01*
X189982380Y-64473333D01*
X190134761Y-64440000D01*
X190249047Y-64440000D01*
X190401428Y-64473333D01*
X190477619Y-64506666D01*
X190553809Y-64573333D01*
X190591904Y-64673333D01*
X190591904Y-64840000D01*
X190058571Y-63040000D02*
X190591904Y-63040000D01*
X189753809Y-63206666D02*
X190325238Y-63373333D01*
X190325238Y-62940000D01*
X189791904Y-62340000D02*
X189791904Y-62673333D01*
X190172857Y-62706666D01*
X190134761Y-62673333D01*
X190096666Y-62606666D01*
X190096666Y-62440000D01*
X190134761Y-62373333D01*
X190172857Y-62340000D01*
X190249047Y-62306666D01*
X190439523Y-62306666D01*
X190515714Y-62340000D01*
X190553809Y-62373333D01*
X190591904Y-62440000D01*
X190591904Y-62606666D01*
X190553809Y-62673333D01*
X190515714Y-62706666D01*
X190058571Y-60790000D02*
X190591904Y-60790000D01*
X189753809Y-60956666D02*
X190325238Y-61123333D01*
X190325238Y-60690000D01*
X189791904Y-60123333D02*
X189791904Y-60256666D01*
X189830000Y-60323333D01*
X189868095Y-60356666D01*
X189982380Y-60423333D01*
X190134761Y-60456666D01*
X190439523Y-60456666D01*
X190515714Y-60423333D01*
X190553809Y-60390000D01*
X190591904Y-60323333D01*
X190591904Y-60190000D01*
X190553809Y-60123333D01*
X190515714Y-60090000D01*
X190439523Y-60056666D01*
X190249047Y-60056666D01*
X190172857Y-60090000D01*
X190134761Y-60123333D01*
X190096666Y-60190000D01*
X190096666Y-60323333D01*
X190134761Y-60390000D01*
X190172857Y-60423333D01*
X190249047Y-60456666D01*
X189830000Y-58623333D02*
X189791904Y-58690000D01*
X189791904Y-58790000D01*
X189830000Y-58890000D01*
X189906190Y-58956666D01*
X189982380Y-58990000D01*
X190134761Y-59023333D01*
X190249047Y-59023333D01*
X190401428Y-58990000D01*
X190477619Y-58956666D01*
X190553809Y-58890000D01*
X190591904Y-58790000D01*
X190591904Y-58723333D01*
X190553809Y-58623333D01*
X190515714Y-58590000D01*
X190249047Y-58590000D01*
X190249047Y-58723333D01*
X190591904Y-58290000D02*
X189791904Y-58290000D01*
X190591904Y-57890000D01*
X189791904Y-57890000D01*
X190591904Y-57556666D02*
X189791904Y-57556666D01*
X189791904Y-57390000D01*
X189830000Y-57290000D01*
X189906190Y-57223333D01*
X189982380Y-57190000D01*
X190134761Y-57156666D01*
X190249047Y-57156666D01*
X190401428Y-57190000D01*
X190477619Y-57223333D01*
X190553809Y-57290000D01*
X190591904Y-57390000D01*
X190591904Y-57556666D01*
X168918095Y-98456666D02*
X168918095Y-98056666D01*
X168918095Y-98256666D02*
X169718095Y-98256666D01*
X169603809Y-98190000D01*
X169527619Y-98123333D01*
X169489523Y-98056666D01*
X169718095Y-99090000D02*
X169718095Y-98756666D01*
X169337142Y-98723333D01*
X169375238Y-98756666D01*
X169413333Y-98823333D01*
X169413333Y-98990000D01*
X169375238Y-99056666D01*
X169337142Y-99090000D01*
X169260952Y-99123333D01*
X169070476Y-99123333D01*
X168994285Y-99090000D01*
X168956190Y-99056666D01*
X168918095Y-98990000D01*
X168918095Y-98823333D01*
X168956190Y-98756666D01*
X168994285Y-98723333D01*
X168918095Y-95976666D02*
X168918095Y-95576666D01*
X168918095Y-95776666D02*
X169718095Y-95776666D01*
X169603809Y-95710000D01*
X169527619Y-95643333D01*
X169489523Y-95576666D01*
X169451428Y-96576666D02*
X168918095Y-96576666D01*
X169756190Y-96410000D02*
X169184761Y-96243333D01*
X169184761Y-96676666D01*
X168918095Y-93206666D02*
X168918095Y-92806666D01*
X168918095Y-93006666D02*
X169718095Y-93006666D01*
X169603809Y-92940000D01*
X169527619Y-92873333D01*
X169489523Y-92806666D01*
X169718095Y-93440000D02*
X169718095Y-93873333D01*
X169413333Y-93640000D01*
X169413333Y-93740000D01*
X169375238Y-93806666D01*
X169337142Y-93840000D01*
X169260952Y-93873333D01*
X169070476Y-93873333D01*
X168994285Y-93840000D01*
X168956190Y-93806666D01*
X168918095Y-93740000D01*
X168918095Y-93540000D01*
X168956190Y-93473333D01*
X168994285Y-93440000D01*
X168918095Y-90706666D02*
X168918095Y-90306666D01*
X168918095Y-90506666D02*
X169718095Y-90506666D01*
X169603809Y-90440000D01*
X169527619Y-90373333D01*
X169489523Y-90306666D01*
X169641904Y-90973333D02*
X169680000Y-91006666D01*
X169718095Y-91073333D01*
X169718095Y-91240000D01*
X169680000Y-91306666D01*
X169641904Y-91340000D01*
X169565714Y-91373333D01*
X169489523Y-91373333D01*
X169375238Y-91340000D01*
X168918095Y-90940000D01*
X168918095Y-91373333D01*
X168918095Y-88226666D02*
X168918095Y-87826666D01*
X168918095Y-88026666D02*
X169718095Y-88026666D01*
X169603809Y-87960000D01*
X169527619Y-87893333D01*
X169489523Y-87826666D01*
X168918095Y-88893333D02*
X168918095Y-88493333D01*
X168918095Y-88693333D02*
X169718095Y-88693333D01*
X169603809Y-88626666D01*
X169527619Y-88560000D01*
X169489523Y-88493333D01*
X168918095Y-85706666D02*
X168918095Y-85306666D01*
X168918095Y-85506666D02*
X169718095Y-85506666D01*
X169603809Y-85440000D01*
X169527619Y-85373333D01*
X169489523Y-85306666D01*
X169718095Y-86140000D02*
X169718095Y-86206666D01*
X169680000Y-86273333D01*
X169641904Y-86306666D01*
X169565714Y-86340000D01*
X169413333Y-86373333D01*
X169222857Y-86373333D01*
X169070476Y-86340000D01*
X168994285Y-86306666D01*
X168956190Y-86273333D01*
X168918095Y-86206666D01*
X168918095Y-86140000D01*
X168956190Y-86073333D01*
X168994285Y-86040000D01*
X169070476Y-86006666D01*
X169222857Y-85973333D01*
X169413333Y-85973333D01*
X169565714Y-86006666D01*
X169641904Y-86040000D01*
X169680000Y-86073333D01*
X169718095Y-86140000D01*
X168918095Y-83226666D02*
X168918095Y-83360000D01*
X168956190Y-83426666D01*
X168994285Y-83460000D01*
X169108571Y-83526666D01*
X169260952Y-83560000D01*
X169565714Y-83560000D01*
X169641904Y-83526666D01*
X169680000Y-83493333D01*
X169718095Y-83426666D01*
X169718095Y-83293333D01*
X169680000Y-83226666D01*
X169641904Y-83193333D01*
X169565714Y-83160000D01*
X169375238Y-83160000D01*
X169299047Y-83193333D01*
X169260952Y-83226666D01*
X169222857Y-83293333D01*
X169222857Y-83426666D01*
X169260952Y-83493333D01*
X169299047Y-83526666D01*
X169375238Y-83560000D01*
X169375238Y-80793333D02*
X169413333Y-80726666D01*
X169451428Y-80693333D01*
X169527619Y-80660000D01*
X169565714Y-80660000D01*
X169641904Y-80693333D01*
X169680000Y-80726666D01*
X169718095Y-80793333D01*
X169718095Y-80926666D01*
X169680000Y-80993333D01*
X169641904Y-81026666D01*
X169565714Y-81060000D01*
X169527619Y-81060000D01*
X169451428Y-81026666D01*
X169413333Y-80993333D01*
X169375238Y-80926666D01*
X169375238Y-80793333D01*
X169337142Y-80726666D01*
X169299047Y-80693333D01*
X169222857Y-80660000D01*
X169070476Y-80660000D01*
X168994285Y-80693333D01*
X168956190Y-80726666D01*
X168918095Y-80793333D01*
X168918095Y-80926666D01*
X168956190Y-80993333D01*
X168994285Y-81026666D01*
X169070476Y-81060000D01*
X169222857Y-81060000D01*
X169299047Y-81026666D01*
X169337142Y-80993333D01*
X169375238Y-80926666D01*
X169718095Y-78126666D02*
X169718095Y-78593333D01*
X168918095Y-78293333D01*
X169718095Y-75993333D02*
X169718095Y-75860000D01*
X169680000Y-75793333D01*
X169641904Y-75760000D01*
X169527619Y-75693333D01*
X169375238Y-75660000D01*
X169070476Y-75660000D01*
X168994285Y-75693333D01*
X168956190Y-75726666D01*
X168918095Y-75793333D01*
X168918095Y-75926666D01*
X168956190Y-75993333D01*
X168994285Y-76026666D01*
X169070476Y-76060000D01*
X169260952Y-76060000D01*
X169337142Y-76026666D01*
X169375238Y-75993333D01*
X169413333Y-75926666D01*
X169413333Y-75793333D01*
X169375238Y-75726666D01*
X169337142Y-75693333D01*
X169260952Y-75660000D01*
X169451428Y-70743333D02*
X168918095Y-70743333D01*
X169756190Y-70576666D02*
X169184761Y-70410000D01*
X169184761Y-70843333D01*
X169718095Y-67876666D02*
X169718095Y-68310000D01*
X169413333Y-68076666D01*
X169413333Y-68176666D01*
X169375238Y-68243333D01*
X169337142Y-68276666D01*
X169260952Y-68310000D01*
X169070476Y-68310000D01*
X168994285Y-68276666D01*
X168956190Y-68243333D01*
X168918095Y-68176666D01*
X168918095Y-67976666D01*
X168956190Y-67910000D01*
X168994285Y-67876666D01*
X169641904Y-65410000D02*
X169680000Y-65443333D01*
X169718095Y-65510000D01*
X169718095Y-65676666D01*
X169680000Y-65743333D01*
X169641904Y-65776666D01*
X169565714Y-65810000D01*
X169489523Y-65810000D01*
X169375238Y-65776666D01*
X168918095Y-65376666D01*
X168918095Y-65810000D01*
X168918095Y-63310000D02*
X168918095Y-62910000D01*
X168918095Y-63110000D02*
X169718095Y-63110000D01*
X169603809Y-63043333D01*
X169527619Y-62976666D01*
X169489523Y-62910000D01*
X169718095Y-59633333D02*
X169718095Y-60066666D01*
X169413333Y-59833333D01*
X169413333Y-59933333D01*
X169375238Y-60000000D01*
X169337142Y-60033333D01*
X169260952Y-60066666D01*
X169070476Y-60066666D01*
X168994285Y-60033333D01*
X168956190Y-60000000D01*
X168918095Y-59933333D01*
X168918095Y-59733333D01*
X168956190Y-59666666D01*
X168994285Y-59633333D01*
X169718095Y-60266666D02*
X168918095Y-60500000D01*
X169718095Y-60733333D01*
X169718095Y-60900000D02*
X169718095Y-61333333D01*
X169413333Y-61100000D01*
X169413333Y-61200000D01*
X169375238Y-61266666D01*
X169337142Y-61300000D01*
X169260952Y-61333333D01*
X169070476Y-61333333D01*
X168994285Y-61300000D01*
X168956190Y-61266666D01*
X168918095Y-61200000D01*
X168918095Y-61000000D01*
X168956190Y-60933333D01*
X168994285Y-60900000D01*
X169680000Y-57346666D02*
X169718095Y-57280000D01*
X169718095Y-57180000D01*
X169680000Y-57080000D01*
X169603809Y-57013333D01*
X169527619Y-56980000D01*
X169375238Y-56946666D01*
X169260952Y-56946666D01*
X169108571Y-56980000D01*
X169032380Y-57013333D01*
X168956190Y-57080000D01*
X168918095Y-57180000D01*
X168918095Y-57246666D01*
X168956190Y-57346666D01*
X168994285Y-57380000D01*
X169260952Y-57380000D01*
X169260952Y-57246666D01*
X168918095Y-57680000D02*
X169718095Y-57680000D01*
X168918095Y-58080000D01*
X169718095Y-58080000D01*
X168918095Y-58413333D02*
X169718095Y-58413333D01*
X169718095Y-58580000D01*
X169680000Y-58680000D01*
X169603809Y-58746666D01*
X169527619Y-58780000D01*
X169375238Y-58813333D01*
X169260952Y-58813333D01*
X169108571Y-58780000D01*
X169032380Y-58746666D01*
X168956190Y-58680000D01*
X168918095Y-58580000D01*
X168918095Y-58413333D01*
D14*
X193530000Y-123200000D02*
X193530000Y-122200000D01*
X188000000Y-115630000D02*
X191000000Y-115630000D01*
X193150000Y-122180000D02*
X193150000Y-117680000D01*
X185850000Y-122180000D02*
X185850000Y-117680000D01*
X193150000Y-135130000D02*
X193150000Y-124680000D01*
X185850000Y-135130000D02*
X193150000Y-135130000D01*
X185850000Y-135130000D02*
X185850000Y-124680000D01*
X176462779Y-111790000D02*
X176137221Y-111790000D01*
X176462779Y-112810000D02*
X176137221Y-112810000D01*
X182177500Y-93862742D02*
X182177500Y-94337258D01*
X183222500Y-93862742D02*
X183222500Y-94337258D01*
D13*
X187645720Y-95867920D02*
X187645720Y-95867920D01*
X187645720Y-95967920D02*
X187645720Y-95967920D01*
X187645720Y-95967920D02*
G75*
G02X187645720Y-95867920I0J50000D01*
G01*
X187645720Y-95867920D02*
G75*
G02X187645720Y-95967920I0J-50000D01*
G01*
D14*
X173010000Y-101162779D02*
X173010000Y-100837221D01*
X171990000Y-101162779D02*
X171990000Y-100837221D01*
X176210000Y-106112779D02*
X176210000Y-105787221D01*
X175190000Y-106112779D02*
X175190000Y-105787221D01*
X190890000Y-56685000D02*
X192220000Y-56685000D01*
X190890000Y-58015000D02*
X190890000Y-56685000D01*
X190890000Y-59285000D02*
X193550000Y-59285000D01*
X193550000Y-59285000D02*
X193550000Y-112685000D01*
X190890000Y-59285000D02*
X190890000Y-112685000D01*
X190890000Y-112685000D02*
X193550000Y-112685000D01*
D15*
X183500000Y-109225000D02*
X183500000Y-110350000D01*
X180450000Y-110700000D02*
X183350000Y-110700000D01*
X180450000Y-111500000D02*
X180450000Y-110700000D01*
X183350000Y-111500000D02*
X180450000Y-111500000D01*
X183350000Y-110700000D02*
X183350000Y-111500000D01*
D14*
X173690000Y-99775000D02*
X173690000Y-101725000D01*
X173690000Y-99775000D02*
X173690000Y-97825000D01*
X183810000Y-99775000D02*
X183810000Y-101725000D01*
X183810000Y-99775000D02*
X183810000Y-96325000D01*
X167300000Y-123440000D02*
X167300000Y-123240000D01*
X171200000Y-123440000D02*
X171200000Y-123240000D01*
X167300000Y-120540000D02*
X167300000Y-120740000D01*
X171200000Y-120540000D02*
X171200000Y-120740000D01*
X171200000Y-123440000D02*
X167300000Y-123440000D01*
X167300000Y-120540000D02*
X171200000Y-120540000D01*
D15*
X174593980Y-115908620D02*
G75*
G03X174593980Y-115908620I-100000J0D01*
G01*
D16*
X173423980Y-124908620D02*
X173423980Y-123678620D01*
X182363980Y-124908620D02*
X173423980Y-124908620D01*
X182363980Y-123678620D02*
X182363980Y-124908620D01*
X182363980Y-119498620D02*
X182363980Y-120938620D01*
X173423980Y-119498620D02*
X173423980Y-120938620D01*
D13*
G36*
X188646676Y-88502239D02*
G01*
X188611116Y-88460011D01*
X188570000Y-88479458D01*
X188554442Y-88535021D01*
X188583891Y-88606696D01*
X188646676Y-88642256D01*
X188646676Y-88502239D01*
G37*
G36*
X188646676Y-89138985D02*
G01*
X188611116Y-89096758D01*
X188570000Y-89116204D01*
X188554442Y-89171767D01*
X188583891Y-89243443D01*
X188646676Y-89279003D01*
X188646676Y-89138985D01*
G37*
G36*
X188703350Y-89737949D02*
G01*
X188661123Y-89744061D01*
X188638898Y-89764619D01*
X188630008Y-89826849D01*
X188614450Y-89886856D01*
X188550553Y-89906859D01*
X188486656Y-89886301D01*
X188471099Y-89817959D01*
X188447762Y-89764619D01*
X188407757Y-89761285D01*
X188368864Y-89779621D01*
X188357751Y-89834628D01*
X188357751Y-89990203D01*
X188778915Y-89990203D01*
X188778915Y-89807958D01*
X188760024Y-89755451D01*
X188703350Y-89737949D01*
G37*
G36*
X187636206Y-91641520D02*
G01*
X188161060Y-91024221D01*
X188166616Y-90973659D01*
X188179951Y-90944766D01*
X188203287Y-90930320D01*
X188261072Y-90923653D01*
X188596670Y-90923653D01*
X188668346Y-90929348D01*
X188736688Y-90946433D01*
X188862259Y-90822529D01*
X188798362Y-90851421D01*
X188765441Y-90839475D01*
X188723353Y-90803638D01*
X188696683Y-90744741D01*
X188710573Y-90707514D01*
X188752245Y-90658064D01*
X188788361Y-90613614D01*
X188805585Y-90560274D01*
X188796201Y-90502859D01*
X188768049Y-90468410D01*
X188721130Y-90456928D01*
X188678347Y-90485264D01*
X188653344Y-90555829D01*
X188643204Y-90599723D01*
X188628341Y-90646951D01*
X188609588Y-90694179D01*
X188587780Y-90738074D01*
X188557637Y-90776829D01*
X188513882Y-90808638D01*
X188458180Y-90829891D01*
X188392200Y-90836975D01*
X188329785Y-90828888D01*
X188272926Y-90804625D01*
X188221623Y-90764188D01*
X188181186Y-90709799D01*
X188156924Y-90643679D01*
X188148836Y-90565830D01*
X188153142Y-90502072D01*
X188166061Y-90444148D01*
X188201065Y-90368028D01*
X188222179Y-90340246D01*
X188276630Y-90305798D01*
X188337749Y-90332468D01*
X188875594Y-90186894D01*
X188258850Y-90186894D01*
X188219956Y-90185227D01*
X188191064Y-90174670D01*
X188168561Y-90145222D01*
X188161060Y-90087993D01*
X188161060Y-89807958D01*
X188168962Y-89743505D01*
X188192669Y-89686461D01*
X188232180Y-89636825D01*
X188283544Y-89596697D01*
X188341329Y-89572620D01*
X188405535Y-89564594D01*
X188475822Y-89575151D01*
X188539996Y-89606821D01*
X188593954Y-89570397D01*
X188652109Y-89548542D01*
X188714463Y-89541258D01*
X188784533Y-89550703D01*
X188825464Y-89454580D01*
X188758419Y-89477916D01*
X188686681Y-89485695D01*
X188599572Y-89475632D01*
X188524933Y-89445443D01*
X188462764Y-89395128D01*
X188416154Y-89329750D01*
X188388187Y-89254370D01*
X188378865Y-89168989D01*
X188385671Y-89096896D01*
X188406091Y-89035083D01*
X188440123Y-88983549D01*
X188487767Y-88942294D01*
X188548192Y-88913957D01*
X188613894Y-88904511D01*
X188673346Y-88912985D01*
X188715018Y-88938404D01*
X188747800Y-89013414D01*
X188747800Y-89276780D01*
X188800029Y-89240109D01*
X188821143Y-89166766D01*
X188817809Y-89109259D01*
X188807808Y-89065643D01*
X188803363Y-89053419D01*
X188791139Y-89008969D01*
X188825464Y-88817834D01*
X188758419Y-88841170D01*
X188686681Y-88848949D01*
X188599572Y-88838886D01*
X188524933Y-88808697D01*
X188462764Y-88758382D01*
X188416154Y-88693003D01*
X188388187Y-88617624D01*
X188378865Y-88532243D01*
X188385671Y-88460150D01*
X188406091Y-88398337D01*
X188440123Y-88346803D01*
X188546664Y-87989953D01*
X188484712Y-87979673D01*
X188454430Y-87948836D01*
X188448874Y-87891051D01*
X188438039Y-87827710D01*
X188405535Y-87806596D01*
X188361085Y-87828821D01*
X188339971Y-87890496D01*
X188353306Y-87953281D01*
X188379976Y-87982174D01*
X188393311Y-87988841D01*
X188434983Y-88019956D01*
X188448874Y-88062184D01*
X188428871Y-88123303D01*
X188394145Y-88164974D01*
X188354417Y-88178865D01*
X188278852Y-88153306D01*
X188243848Y-88128859D01*
X188199954Y-88082742D01*
X188165505Y-88009399D01*
X188153837Y-87959532D01*
X188149947Y-87904386D01*
X188158591Y-87819684D01*
X188184520Y-87747824D01*
X188227735Y-87688804D01*
X188281754Y-87644971D01*
X188340095Y-87618672D01*
X188402757Y-87609905D01*
X188461591Y-87619536D01*
X188508449Y-87648428D01*
X188543330Y-87696583D01*
X188551109Y-87696583D01*
X188575001Y-87663801D01*
X188611116Y-87628796D01*
X188661123Y-87601293D01*
X188717796Y-87592125D01*
X188792435Y-87602003D01*
X188821281Y-87526145D01*
X188768358Y-87494891D01*
X188721408Y-87448913D01*
X188681681Y-87394323D01*
X188645843Y-87335426D01*
X188610561Y-87276530D01*
X188573195Y-87221940D01*
X188531106Y-87175962D01*
X188485267Y-87144708D01*
X188436650Y-87134290D01*
X188408313Y-87142069D01*
X188378309Y-87159293D01*
X188356640Y-87188741D01*
X188346639Y-87244304D01*
X188372753Y-87305978D01*
X188424426Y-87335426D01*
X188449985Y-87339871D01*
X188456652Y-87339871D01*
X188493324Y-87341538D01*
X188521105Y-87352095D01*
X188541107Y-87382099D01*
X188547775Y-87438773D01*
X188537218Y-87500725D01*
X188505548Y-87531006D01*
X188448874Y-87536563D01*
X188374482Y-87527364D01*
X188305399Y-87499768D01*
X188241626Y-87453774D01*
X188190693Y-87392903D01*
X188160134Y-87320671D01*
X188149947Y-87237081D01*
X188160257Y-87153428D01*
X188191187Y-87081012D01*
X188242737Y-87019831D01*
X188307498Y-86973529D01*
X188378062Y-86945748D01*
X188454430Y-86936488D01*
X188516104Y-86943433D01*
X188574445Y-86964269D01*
X188625563Y-86994828D01*
X188665568Y-87030944D01*
X188726964Y-87108731D01*
X188764469Y-87177629D01*
X188775581Y-87205410D01*
X188781138Y-87205410D01*
X188781138Y-87002051D01*
X188791694Y-86937043D01*
X188823921Y-86910929D01*
X188822254Y-86515324D01*
X188822254Y-86779801D01*
X188812808Y-86829530D01*
X188784471Y-86854255D01*
X188733354Y-86859811D01*
X188683348Y-86853144D01*
X188656678Y-86832030D01*
X188646676Y-86778690D01*
X188646676Y-86514213D01*
X188655844Y-86464762D01*
X188683348Y-86440870D01*
X188734465Y-86434203D01*
X188785027Y-86440314D01*
X188812253Y-86459761D01*
X188822254Y-86515324D01*
X188823921Y-86910929D01*
X188880594Y-86904261D01*
X188862259Y-86349748D01*
X188798362Y-86378640D01*
X188765441Y-86366694D01*
X188723353Y-86330856D01*
X188696683Y-86271960D01*
X188710573Y-86234733D01*
X188752245Y-86185283D01*
X188788361Y-86140833D01*
X188805585Y-86087493D01*
X188796201Y-86030078D01*
X188768049Y-85995629D01*
X188721130Y-85984146D01*
X188678347Y-86012483D01*
X188653344Y-86083048D01*
X188643204Y-86126942D01*
X188628341Y-86174170D01*
X188609588Y-86221398D01*
X188587780Y-86265293D01*
X188557637Y-86304047D01*
X188513882Y-86335857D01*
X188458180Y-86357110D01*
X188392200Y-86364194D01*
X188329785Y-86356106D01*
X188272926Y-86331844D01*
X188221623Y-86291407D01*
X188181186Y-86237017D01*
X188156924Y-86170898D01*
X188148836Y-86093049D01*
X188153142Y-86029291D01*
X188166061Y-85971367D01*
X188201065Y-85895246D01*
X188222179Y-85867465D01*
X188276630Y-85833016D01*
X188337749Y-85859686D01*
X188379421Y-85898024D01*
X188393311Y-85937474D01*
X188371086Y-85995259D01*
X188359974Y-86008038D01*
X188345527Y-86025263D01*
X188331081Y-86084714D01*
X188348306Y-86144722D01*
X188396089Y-86168614D01*
X188445540Y-86140277D01*
X188471099Y-86069713D01*
X188479572Y-86025540D01*
X188491657Y-85977479D01*
X188507075Y-85929417D01*
X188525550Y-85885245D01*
X188552915Y-85846490D01*
X188595003Y-85814681D01*
X188650149Y-85793428D01*
X188716685Y-85786344D01*
X188784610Y-85793567D01*
X188821281Y-85720363D01*
X188768358Y-85689109D01*
X188721408Y-85643131D01*
X188681681Y-85588541D01*
X188645843Y-85529645D01*
X188610561Y-85470749D01*
X188573195Y-85416159D01*
X188531106Y-85370181D01*
X188485267Y-85338927D01*
X188436650Y-85328509D01*
X188408313Y-85336288D01*
X188378309Y-85353512D01*
X188356640Y-85382960D01*
X188346639Y-85438523D01*
X188372753Y-85500197D01*
X188424426Y-85529645D01*
X188449985Y-85534090D01*
X188456652Y-85534090D01*
X188493324Y-85535757D01*
X188521105Y-85546314D01*
X188541107Y-85576318D01*
X188547775Y-85632991D01*
X188537218Y-85694943D01*
X188505548Y-85725225D01*
X188448874Y-85730781D01*
X188374482Y-85721583D01*
X188305399Y-85693987D01*
X188241626Y-85647993D01*
X188190693Y-85587121D01*
X188160134Y-85514890D01*
X188149947Y-85431299D01*
X188160257Y-85347647D01*
X188191187Y-85275231D01*
X188242737Y-85214050D01*
X188307498Y-85167748D01*
X188378062Y-85139967D01*
X188454430Y-85130706D01*
X188516104Y-85137652D01*
X188574445Y-85158488D01*
X188625563Y-85189047D01*
X188665568Y-85225163D01*
X188726964Y-85302950D01*
X188764469Y-85371848D01*
X188775581Y-85399629D01*
X188781138Y-85399629D01*
X188781138Y-85196270D01*
X188791694Y-85131262D01*
X188823921Y-85105148D01*
X188880594Y-85098480D01*
X188936713Y-85105703D01*
X188965605Y-85129595D01*
X188978940Y-85198493D01*
X188978940Y-85632991D01*
X188948936Y-85701889D01*
X188878928Y-85730781D01*
X188821281Y-85720363D01*
X188784610Y-85793567D01*
X188843923Y-85815236D01*
X188892679Y-85848574D01*
X188928934Y-85890801D01*
X188961654Y-85952167D01*
X188981286Y-86016249D01*
X188987830Y-86083048D01*
X188984635Y-86133887D01*
X188975051Y-86181949D01*
X188943380Y-86257514D01*
X188908376Y-86307520D01*
X188874483Y-86339746D01*
X188862259Y-86349748D01*
X188880594Y-86904261D01*
X188936713Y-86911484D01*
X188965605Y-86935376D01*
X188978940Y-87004274D01*
X188978940Y-87438773D01*
X188948936Y-87507670D01*
X188878928Y-87536563D01*
X188821281Y-87526145D01*
X188792435Y-87602003D01*
X188857814Y-87631636D01*
X188913932Y-87681025D01*
X188956838Y-87745354D01*
X188982582Y-87819808D01*
X188991164Y-87904386D01*
X188982521Y-87988347D01*
X188956592Y-88062431D01*
X188913376Y-88126636D01*
X188878650Y-88158029D01*
X188834478Y-88185533D01*
X188805585Y-88197756D01*
X188794473Y-88199979D01*
X188734465Y-88212203D01*
X188686126Y-88184977D01*
X188670013Y-88103300D01*
X188681125Y-88044404D01*
X188738910Y-88011066D01*
X188792250Y-87949948D01*
X188798918Y-87903275D01*
X188792945Y-87852158D01*
X188775026Y-87816598D01*
X188721130Y-87788816D01*
X188668346Y-87816042D01*
X188645565Y-87880494D01*
X188643343Y-87931056D01*
X188632230Y-87959949D01*
X188603615Y-87982452D01*
X188546664Y-87989953D01*
X188440123Y-88346803D01*
X188487767Y-88305548D01*
X188548192Y-88277211D01*
X188613894Y-88267765D01*
X188673346Y-88276238D01*
X188715018Y-88301658D01*
X188747800Y-88376668D01*
X188747800Y-88640034D01*
X188800029Y-88603363D01*
X188821143Y-88530020D01*
X188817809Y-88472513D01*
X188807808Y-88428896D01*
X188803363Y-88416673D01*
X188791139Y-88372223D01*
X188841145Y-88311104D01*
X188892263Y-88296658D01*
X188935532Y-88311451D01*
X188966438Y-88355832D01*
X188984982Y-88429799D01*
X188991164Y-88533354D01*
X188984080Y-88611002D01*
X188962827Y-88679483D01*
X188929906Y-88736296D01*
X188887818Y-88778940D01*
X188825464Y-88817834D01*
X188791139Y-89008969D01*
X188841145Y-88947850D01*
X188892263Y-88933404D01*
X188935532Y-88948197D01*
X188966438Y-88992578D01*
X188984982Y-89066545D01*
X188991164Y-89170100D01*
X188984080Y-89247749D01*
X188962827Y-89316229D01*
X188929906Y-89373042D01*
X188887818Y-89415686D01*
X188825464Y-89454580D01*
X188784533Y-89550703D01*
X188846578Y-89576077D01*
X188900597Y-89617378D01*
X188942269Y-89670163D01*
X188967272Y-89729985D01*
X188975606Y-89796845D01*
X188975606Y-90089104D01*
X188965049Y-90150778D01*
X188933379Y-90180226D01*
X188875594Y-90186894D01*
X188337749Y-90332468D01*
X188379421Y-90370806D01*
X188393311Y-90410255D01*
X188371086Y-90468040D01*
X188359974Y-90480819D01*
X188345527Y-90498044D01*
X188331081Y-90557496D01*
X188348306Y-90617503D01*
X188396089Y-90641395D01*
X188445540Y-90613058D01*
X188471099Y-90542494D01*
X188479572Y-90498322D01*
X188491657Y-90450260D01*
X188507075Y-90402198D01*
X188525550Y-90358026D01*
X188552915Y-90319271D01*
X188595003Y-90287462D01*
X188650149Y-90266209D01*
X188716685Y-90259125D01*
X188784610Y-90266348D01*
X188843923Y-90288018D01*
X188892679Y-90321355D01*
X188928934Y-90363583D01*
X188961654Y-90424948D01*
X188981286Y-90489030D01*
X188987830Y-90555829D01*
X188984635Y-90606668D01*
X188975051Y-90654730D01*
X188943380Y-90730295D01*
X188908376Y-90780301D01*
X188874483Y-90812528D01*
X188862259Y-90822529D01*
X188736688Y-90946433D01*
X188801696Y-90974909D01*
X188863370Y-91014775D01*
X188914626Y-91065615D01*
X188955048Y-91129234D01*
X188981301Y-91202993D01*
X188990053Y-91284253D01*
X188981163Y-91365374D01*
X188954493Y-91438717D01*
X188913376Y-91501641D01*
X188861148Y-91551509D01*
X188800307Y-91590889D01*
X188735576Y-91619017D01*
X188666957Y-91635894D01*
X188594448Y-91641520D01*
X188259961Y-91641520D01*
X188220512Y-91639853D01*
X188191064Y-91629296D01*
X188167727Y-91599293D01*
X188161060Y-91542619D01*
X188167727Y-91485945D01*
X188191064Y-91457053D01*
X188261072Y-91443718D01*
X188594448Y-91443718D01*
X188660567Y-91435383D01*
X188723353Y-91410380D01*
X188773359Y-91360374D01*
X188792250Y-91281475D01*
X188777248Y-91210633D01*
X188732243Y-91160349D01*
X188667512Y-91130345D01*
X188593336Y-91120344D01*
X188253294Y-91120344D01*
X188192175Y-91109231D01*
X188167727Y-91077005D01*
X188161060Y-91024221D01*
X187636206Y-91641520D01*
X187636206Y-92154150D01*
X187640703Y-92245678D01*
X187654149Y-92336324D01*
X187676415Y-92425216D01*
X187707287Y-92511498D01*
X187746467Y-92594338D01*
X187793579Y-92672938D01*
X187848168Y-92746543D01*
X187909708Y-92814442D01*
X187977607Y-92875983D01*
X188051212Y-92930571D01*
X188129813Y-92977683D01*
X188212653Y-93016863D01*
X188298934Y-93047735D01*
X188387826Y-93070002D01*
X188478472Y-93083448D01*
X188570000Y-93087944D01*
X188661528Y-93083448D01*
X188752174Y-93070002D01*
X188841066Y-93047735D01*
X188927347Y-93016863D01*
X189010187Y-92977683D01*
X189088788Y-92930571D01*
X189162393Y-92875983D01*
X189230292Y-92814442D01*
X189291832Y-92746543D01*
X189346421Y-92672938D01*
X189393533Y-92594338D01*
X189432713Y-92511498D01*
X189463585Y-92425216D01*
X189485851Y-92336324D01*
X189499297Y-92245678D01*
X189503794Y-92154150D01*
X189503794Y-91641520D01*
X189503794Y-85098480D01*
X189503794Y-84585850D01*
X189499297Y-84494322D01*
X189485851Y-84403676D01*
X189463585Y-84314784D01*
X189432713Y-84228502D01*
X189393533Y-84145662D01*
X189346421Y-84067062D01*
X189291832Y-83993457D01*
X189230292Y-83925558D01*
X189162393Y-83864017D01*
X189088788Y-83809429D01*
X189010187Y-83762317D01*
X188927347Y-83723137D01*
X188841066Y-83692265D01*
X188752174Y-83669998D01*
X188661528Y-83656552D01*
X188570000Y-83652056D01*
X188478472Y-83656552D01*
X188387826Y-83669998D01*
X188298934Y-83692265D01*
X188212653Y-83723137D01*
X188129813Y-83762317D01*
X188051212Y-83809429D01*
X187977607Y-83864017D01*
X187909708Y-83925558D01*
X187848168Y-83993457D01*
X187793579Y-84067062D01*
X187746467Y-84145662D01*
X187707287Y-84228502D01*
X187676415Y-84314784D01*
X187654149Y-84403676D01*
X187640703Y-84494322D01*
X187636206Y-84585850D01*
X187636206Y-85098480D01*
X187636206Y-91641520D01*
G37*
D14*
X186850000Y-114010000D02*
X186850000Y-113160000D01*
X186850000Y-113560000D02*
X186850000Y-114010000D01*
X187100000Y-113560000D02*
X185750000Y-113560000D01*
X186800000Y-113560000D02*
X187100000Y-113560000D01*
D13*
G36*
X186850000Y-113560000D02*
G01*
X186200000Y-113960000D01*
X186200000Y-113160000D01*
X186850000Y-113560000D01*
G37*
X186850000Y-113560000D02*
X186200000Y-113960000D01*
X186200000Y-113160000D01*
X186850000Y-113560000D01*
D14*
X188685000Y-112375000D02*
X184800000Y-112375000D01*
X188685000Y-114645000D02*
X188685000Y-112375000D01*
X184800000Y-114645000D02*
X188685000Y-114645000D01*
D15*
X171750000Y-104225000D02*
X171000000Y-104225000D01*
X171750000Y-106450000D02*
X171750000Y-104225000D01*
X171750000Y-112175000D02*
X171750000Y-109950000D01*
X171000000Y-112175000D02*
X171750000Y-112175000D01*
X166750000Y-112175000D02*
X167500000Y-112175000D01*
X166750000Y-104225000D02*
X167500000Y-104225000D01*
X166750000Y-112175000D02*
X166750000Y-104225000D01*
D13*
X174124000Y-110283000D02*
G75*
G03X174124000Y-110283000I-200000J0D01*
G01*
D14*
X178010000Y-106087779D02*
X178010000Y-105762221D01*
X176990000Y-106087779D02*
X176990000Y-105762221D01*
X175237258Y-114732500D02*
X174762742Y-114732500D01*
X175237258Y-113687500D02*
X174762742Y-113687500D01*
D15*
X187750000Y-100350000D02*
X186700000Y-100350000D01*
X186350000Y-97400000D02*
X186350000Y-100300000D01*
X185900000Y-97400000D02*
X186350000Y-97400000D01*
X185900000Y-100300000D02*
X185900000Y-97400000D01*
X186350000Y-100300000D02*
X185900000Y-100300000D01*
X187750000Y-104100000D02*
X186700000Y-104100000D01*
X186350000Y-101150000D02*
X186350000Y-104050000D01*
X185900000Y-101150000D02*
X186350000Y-101150000D01*
X185900000Y-104050000D02*
X185900000Y-101150000D01*
X186350000Y-104050000D02*
X185900000Y-104050000D01*
D14*
X178260000Y-110400000D02*
X178260000Y-107950000D01*
X175040000Y-108600000D02*
X175040000Y-110400000D01*
X185252500Y-92102900D02*
X185252500Y-90842900D01*
X185252500Y-85282900D02*
X185252500Y-86542900D01*
X181492500Y-92102900D02*
X185252500Y-92102900D01*
X179242500Y-85282900D02*
X185252500Y-85282900D01*
D13*
X170680000Y-56540000D02*
X170680000Y-50040000D01*
X170680000Y-50040000D02*
X188680000Y-50040000D01*
X188680000Y-50040000D02*
X188680000Y-56540000D01*
D15*
X169680000Y-57540000D02*
X169680000Y-57540000D01*
X169480000Y-57540000D02*
X169480000Y-57540000D01*
X169680000Y-57540000D02*
G75*
G02X169480000Y-57540000I-100000J0D01*
G01*
X169480000Y-57540000D02*
G75*
G02X169680000Y-57540000I100000J0D01*
G01*
D14*
X175177500Y-94337258D02*
X175177500Y-93862742D01*
X176222500Y-94337258D02*
X176222500Y-93862742D01*
X180115000Y-108785000D02*
X182600000Y-108785000D01*
X180115000Y-107415000D02*
X180115000Y-108785000D01*
X182600000Y-107415000D02*
X180115000Y-107415000D01*
X181837258Y-105977500D02*
X181362742Y-105977500D01*
X181837258Y-107022500D02*
X181362742Y-107022500D01*
X176600800Y-86609220D02*
X176600800Y-86890380D01*
X175580800Y-86609220D02*
X175580800Y-86890380D01*
X176562700Y-90596720D02*
X176562700Y-90877880D01*
X175542700Y-90596720D02*
X175542700Y-90877880D01*
X185797936Y-110100000D02*
X187002064Y-110100000D01*
X185797936Y-111920000D02*
X187002064Y-111920000D01*
X181765580Y-104265000D02*
X181484420Y-104265000D01*
X181765580Y-105285000D02*
X181484420Y-105285000D01*
X167300000Y-119540000D02*
X167300000Y-119340000D01*
X171200000Y-119540000D02*
X171200000Y-119340000D01*
X167300000Y-116640000D02*
X167300000Y-116840000D01*
X171200000Y-116640000D02*
X171200000Y-116840000D01*
X171200000Y-119540000D02*
X167300000Y-119540000D01*
X167300000Y-116640000D02*
X171200000Y-116640000D01*
X189597500Y-102412742D02*
X189597500Y-102887258D01*
X188552500Y-102412742D02*
X188552500Y-102887258D01*
X172816000Y-90411942D02*
X172816000Y-90886458D01*
X171771000Y-90411942D02*
X171771000Y-90886458D01*
X166100000Y-102525000D02*
X168760000Y-102525000D01*
X166100000Y-59285000D02*
X166100000Y-102525000D01*
X168760000Y-59285000D02*
X168760000Y-102525000D01*
X166100000Y-59285000D02*
X168760000Y-59285000D01*
X166100000Y-58015000D02*
X166100000Y-56685000D01*
X166100000Y-56685000D02*
X167430000Y-56685000D01*
X171567860Y-86064400D02*
X171567860Y-88549400D01*
X171567860Y-88549400D02*
X172937860Y-88549400D01*
X172937860Y-88549400D02*
X172937860Y-86064400D01*
X178328000Y-86583820D02*
X178328000Y-86864980D01*
X177308000Y-86583820D02*
X177308000Y-86864980D01*
X168459420Y-115910000D02*
X168740580Y-115910000D01*
X168459420Y-114890000D02*
X168740580Y-114890000D01*
X179610000Y-94245080D02*
X179610000Y-93963920D01*
X178590000Y-94245080D02*
X178590000Y-93963920D01*
X181410000Y-94240580D02*
X181410000Y-93959420D01*
X180390000Y-94240580D02*
X180390000Y-93959420D01*
X180637742Y-113687500D02*
X181112258Y-113687500D01*
X180637742Y-114732500D02*
X181112258Y-114732500D01*
X180003438Y-84110000D02*
X179528922Y-84110000D01*
X180003438Y-83065000D02*
X179528922Y-83065000D01*
X171977500Y-97937258D02*
X171977500Y-97462742D01*
X173022500Y-97937258D02*
X173022500Y-97462742D01*
X176877500Y-93862742D02*
X176877500Y-94337258D01*
X177922500Y-93862742D02*
X177922500Y-94337258D01*
X168489320Y-114134800D02*
X168770480Y-114134800D01*
X168489320Y-113114800D02*
X168770480Y-113114800D01*
X174772000Y-86839580D02*
X174772000Y-86558420D01*
X173752000Y-86839580D02*
X173752000Y-86558420D01*
X173739300Y-90545920D02*
X173739300Y-90827080D01*
X174759300Y-90545920D02*
X174759300Y-90827080D01*
X177295300Y-90597020D02*
X177295300Y-90878180D01*
X178315300Y-90597020D02*
X178315300Y-90878180D01*
X188602500Y-99087258D02*
X188602500Y-98612742D01*
X189647500Y-99087258D02*
X189647500Y-98612742D01*
D12*
X184420000Y-123296666D02*
X184420000Y-123796666D01*
X184391428Y-123896666D01*
X184334285Y-123963333D01*
X184248571Y-123996666D01*
X184191428Y-123996666D01*
X185020000Y-123996666D02*
X184677142Y-123996666D01*
X184848571Y-123996666D02*
X184848571Y-123296666D01*
X184791428Y-123396666D01*
X184734285Y-123463333D01*
X184677142Y-123496666D01*
X178284285Y-112606666D02*
X178084285Y-112273333D01*
X177941428Y-112606666D02*
X177941428Y-111906666D01*
X178170000Y-111906666D01*
X178227142Y-111940000D01*
X178255714Y-111973333D01*
X178284285Y-112040000D01*
X178284285Y-112140000D01*
X178255714Y-112206666D01*
X178227142Y-112240000D01*
X178170000Y-112273333D01*
X177941428Y-112273333D01*
X178855714Y-112606666D02*
X178512857Y-112606666D01*
X178684285Y-112606666D02*
X178684285Y-111906666D01*
X178627142Y-112006666D01*
X178570000Y-112073333D01*
X178512857Y-112106666D01*
X179370000Y-112140000D02*
X179370000Y-112606666D01*
X179227142Y-111873333D02*
X179084285Y-112373333D01*
X179455714Y-112373333D01*
D13*
X182378571Y-96136190D02*
X182211904Y-95898095D01*
X182092857Y-96136190D02*
X182092857Y-95636190D01*
X182283333Y-95636190D01*
X182330952Y-95660000D01*
X182354761Y-95683809D01*
X182378571Y-95731428D01*
X182378571Y-95802857D01*
X182354761Y-95850476D01*
X182330952Y-95874285D01*
X182283333Y-95898095D01*
X182092857Y-95898095D01*
X182854761Y-96136190D02*
X182569047Y-96136190D01*
X182711904Y-96136190D02*
X182711904Y-95636190D01*
X182664285Y-95707619D01*
X182616666Y-95755238D01*
X182569047Y-95779047D01*
X183021428Y-95636190D02*
X183330952Y-95636190D01*
X183164285Y-95826666D01*
X183235714Y-95826666D01*
X183283333Y-95850476D01*
X183307142Y-95874285D01*
X183330952Y-95921904D01*
X183330952Y-96040952D01*
X183307142Y-96088571D01*
X183283333Y-96112380D01*
X183235714Y-96136190D01*
X183092857Y-96136190D01*
X183045238Y-96112380D01*
X183021428Y-96088571D01*
D12*
X185757142Y-93193428D02*
X185757142Y-92593428D01*
X185900000Y-92593428D01*
X185985714Y-92622000D01*
X186042857Y-92679142D01*
X186071428Y-92736285D01*
X186100000Y-92850571D01*
X186100000Y-92936285D01*
X186071428Y-93050571D01*
X186042857Y-93107714D01*
X185985714Y-93164857D01*
X185900000Y-93193428D01*
X185757142Y-93193428D01*
X186614285Y-92793428D02*
X186614285Y-93193428D01*
X186471428Y-92564857D02*
X186328571Y-92993428D01*
X186700000Y-92993428D01*
X172390000Y-103376666D02*
X172190000Y-103043333D01*
X172047142Y-103376666D02*
X172047142Y-102676666D01*
X172275714Y-102676666D01*
X172332857Y-102710000D01*
X172361428Y-102743333D01*
X172390000Y-102810000D01*
X172390000Y-102910000D01*
X172361428Y-102976666D01*
X172332857Y-103010000D01*
X172275714Y-103043333D01*
X172047142Y-103043333D01*
X172732857Y-102976666D02*
X172675714Y-102943333D01*
X172647142Y-102910000D01*
X172618571Y-102843333D01*
X172618571Y-102810000D01*
X172647142Y-102743333D01*
X172675714Y-102710000D01*
X172732857Y-102676666D01*
X172847142Y-102676666D01*
X172904285Y-102710000D01*
X172932857Y-102743333D01*
X172961428Y-102810000D01*
X172961428Y-102843333D01*
X172932857Y-102910000D01*
X172904285Y-102943333D01*
X172847142Y-102976666D01*
X172732857Y-102976666D01*
X172675714Y-103010000D01*
X172647142Y-103043333D01*
X172618571Y-103110000D01*
X172618571Y-103243333D01*
X172647142Y-103310000D01*
X172675714Y-103343333D01*
X172732857Y-103376666D01*
X172847142Y-103376666D01*
X172904285Y-103343333D01*
X172932857Y-103310000D01*
X172961428Y-103243333D01*
X172961428Y-103110000D01*
X172932857Y-103043333D01*
X172904285Y-103010000D01*
X172847142Y-102976666D01*
X175600000Y-104376666D02*
X175400000Y-104043333D01*
X175257142Y-104376666D02*
X175257142Y-103676666D01*
X175485714Y-103676666D01*
X175542857Y-103710000D01*
X175571428Y-103743333D01*
X175600000Y-103810000D01*
X175600000Y-103910000D01*
X175571428Y-103976666D01*
X175542857Y-104010000D01*
X175485714Y-104043333D01*
X175257142Y-104043333D01*
X175800000Y-103676666D02*
X176200000Y-103676666D01*
X175942857Y-104376666D01*
X192011040Y-112997986D02*
X192011040Y-113497986D01*
X191982468Y-113597986D01*
X191925325Y-113664653D01*
X191839611Y-113697986D01*
X191782468Y-113697986D01*
X192582468Y-112997986D02*
X192296754Y-112997986D01*
X192268182Y-113331320D01*
X192296754Y-113297986D01*
X192353897Y-113264653D01*
X192496754Y-113264653D01*
X192553897Y-113297986D01*
X192582468Y-113331320D01*
X192611040Y-113397986D01*
X192611040Y-113564653D01*
X192582468Y-113631320D01*
X192553897Y-113664653D01*
X192496754Y-113697986D01*
X192353897Y-113697986D01*
X192296754Y-113664653D01*
X192268182Y-113631320D01*
X183748737Y-108862066D02*
X183748737Y-109428733D01*
X183777308Y-109495400D01*
X183805880Y-109528733D01*
X183863022Y-109562066D01*
X183977308Y-109562066D01*
X184034451Y-109528733D01*
X184063022Y-109495400D01*
X184091594Y-109428733D01*
X184091594Y-108862066D01*
X184663022Y-108862066D02*
X184377308Y-108862066D01*
X184348737Y-109195400D01*
X184377308Y-109162066D01*
X184434451Y-109128733D01*
X184577308Y-109128733D01*
X184634451Y-109162066D01*
X184663022Y-109195400D01*
X184691594Y-109262066D01*
X184691594Y-109428733D01*
X184663022Y-109495400D01*
X184634451Y-109528733D01*
X184577308Y-109562066D01*
X184434451Y-109562066D01*
X184377308Y-109528733D01*
X184348737Y-109495400D01*
X173662857Y-103726666D02*
X173662857Y-104293333D01*
X173691428Y-104360000D01*
X173720000Y-104393333D01*
X173777142Y-104426666D01*
X173891428Y-104426666D01*
X173948571Y-104393333D01*
X173977142Y-104360000D01*
X174005714Y-104293333D01*
X174005714Y-103726666D01*
X174548571Y-103960000D02*
X174548571Y-104426666D01*
X174405714Y-103693333D02*
X174262857Y-104193333D01*
X174634285Y-104193333D01*
D13*
X172732380Y-122536666D02*
X172756190Y-122465238D01*
X172756190Y-122346190D01*
X172732380Y-122298571D01*
X172708571Y-122274761D01*
X172660952Y-122250952D01*
X172613333Y-122250952D01*
X172565714Y-122274761D01*
X172541904Y-122298571D01*
X172518095Y-122346190D01*
X172494285Y-122441428D01*
X172470476Y-122489047D01*
X172446666Y-122512857D01*
X172399047Y-122536666D01*
X172351428Y-122536666D01*
X172303809Y-122512857D01*
X172280000Y-122489047D01*
X172256190Y-122441428D01*
X172256190Y-122322380D01*
X172280000Y-122250952D01*
X172256190Y-122084285D02*
X172756190Y-121965238D01*
X172399047Y-121870000D01*
X172756190Y-121774761D01*
X172256190Y-121655714D01*
X172756190Y-121203333D02*
X172756190Y-121489047D01*
X172756190Y-121346190D02*
X172256190Y-121346190D01*
X172327619Y-121393809D01*
X172375238Y-121441428D01*
X172399047Y-121489047D01*
D12*
X183463980Y-120725286D02*
X183463980Y-121225286D01*
X183435408Y-121325286D01*
X183378265Y-121391953D01*
X183292551Y-121425286D01*
X183235408Y-121425286D01*
X183721122Y-120791953D02*
X183749694Y-120758620D01*
X183806837Y-120725286D01*
X183949694Y-120725286D01*
X184006837Y-120758620D01*
X184035408Y-120791953D01*
X184063980Y-120858620D01*
X184063980Y-120925286D01*
X184035408Y-121025286D01*
X183692551Y-121425286D01*
X184063980Y-121425286D01*
X188927142Y-113926666D02*
X188927142Y-113226666D01*
X189070000Y-113226666D01*
X189155714Y-113260000D01*
X189212857Y-113326666D01*
X189241428Y-113393333D01*
X189270000Y-113526666D01*
X189270000Y-113626666D01*
X189241428Y-113760000D01*
X189212857Y-113826666D01*
X189155714Y-113893333D01*
X189070000Y-113926666D01*
X188927142Y-113926666D01*
X189841428Y-113926666D02*
X189498571Y-113926666D01*
X189670000Y-113926666D02*
X189670000Y-113226666D01*
X189612857Y-113326666D01*
X189555714Y-113393333D01*
X189498571Y-113426666D01*
X172340000Y-111526666D02*
X172340000Y-112026666D01*
X172311428Y-112126666D01*
X172254285Y-112193333D01*
X172168571Y-112226666D01*
X172111428Y-112226666D01*
X172882857Y-111760000D02*
X172882857Y-112226666D01*
X172740000Y-111493333D02*
X172597142Y-111993333D01*
X172968571Y-111993333D01*
X177360000Y-104280000D02*
X177331428Y-104313333D01*
X177245714Y-104346666D01*
X177188571Y-104346666D01*
X177102857Y-104313333D01*
X177045714Y-104246666D01*
X177017142Y-104180000D01*
X176988571Y-104046666D01*
X176988571Y-103946666D01*
X177017142Y-103813333D01*
X177045714Y-103746666D01*
X177102857Y-103680000D01*
X177188571Y-103646666D01*
X177245714Y-103646666D01*
X177331428Y-103680000D01*
X177360000Y-103713333D01*
X177645714Y-104346666D02*
X177760000Y-104346666D01*
X177817142Y-104313333D01*
X177845714Y-104280000D01*
X177902857Y-104180000D01*
X177931428Y-104046666D01*
X177931428Y-103780000D01*
X177902857Y-103713333D01*
X177874285Y-103680000D01*
X177817142Y-103646666D01*
X177702857Y-103646666D01*
X177645714Y-103680000D01*
X177617142Y-103713333D01*
X177588571Y-103780000D01*
X177588571Y-103946666D01*
X177617142Y-104013333D01*
X177645714Y-104046666D01*
X177702857Y-104080000D01*
X177817142Y-104080000D01*
X177874285Y-104046666D01*
X177902857Y-104013333D01*
X177931428Y-103946666D01*
X177010000Y-114546666D02*
X176810000Y-114213333D01*
X176667142Y-114546666D02*
X176667142Y-113846666D01*
X176895714Y-113846666D01*
X176952857Y-113880000D01*
X176981428Y-113913333D01*
X177010000Y-113980000D01*
X177010000Y-114080000D01*
X176981428Y-114146666D01*
X176952857Y-114180000D01*
X176895714Y-114213333D01*
X176667142Y-114213333D01*
X177210000Y-113846666D02*
X177581428Y-113846666D01*
X177381428Y-114113333D01*
X177467142Y-114113333D01*
X177524285Y-114146666D01*
X177552857Y-114180000D01*
X177581428Y-114246666D01*
X177581428Y-114413333D01*
X177552857Y-114480000D01*
X177524285Y-114513333D01*
X177467142Y-114546666D01*
X177295714Y-114546666D01*
X177238571Y-114513333D01*
X177210000Y-114480000D01*
X184782857Y-100463333D02*
X184725714Y-100430000D01*
X184668571Y-100363333D01*
X184582857Y-100263333D01*
X184525714Y-100230000D01*
X184468571Y-100230000D01*
X184497142Y-100396666D02*
X184440000Y-100363333D01*
X184382857Y-100296666D01*
X184354285Y-100163333D01*
X184354285Y-99930000D01*
X184382857Y-99796666D01*
X184440000Y-99730000D01*
X184497142Y-99696666D01*
X184611428Y-99696666D01*
X184668571Y-99730000D01*
X184725714Y-99796666D01*
X184754285Y-99930000D01*
X184754285Y-100163333D01*
X184725714Y-100296666D01*
X184668571Y-100363333D01*
X184611428Y-100396666D01*
X184497142Y-100396666D01*
X185325714Y-100396666D02*
X184982857Y-100396666D01*
X185154285Y-100396666D02*
X185154285Y-99696666D01*
X185097142Y-99796666D01*
X185040000Y-99863333D01*
X184982857Y-99896666D01*
X184772857Y-104223333D02*
X184715714Y-104190000D01*
X184658571Y-104123333D01*
X184572857Y-104023333D01*
X184515714Y-103990000D01*
X184458571Y-103990000D01*
X184487142Y-104156666D02*
X184430000Y-104123333D01*
X184372857Y-104056666D01*
X184344285Y-103923333D01*
X184344285Y-103690000D01*
X184372857Y-103556666D01*
X184430000Y-103490000D01*
X184487142Y-103456666D01*
X184601428Y-103456666D01*
X184658571Y-103490000D01*
X184715714Y-103556666D01*
X184744285Y-103690000D01*
X184744285Y-103923333D01*
X184715714Y-104056666D01*
X184658571Y-104123333D01*
X184601428Y-104156666D01*
X184487142Y-104156666D01*
X184972857Y-103523333D02*
X185001428Y-103490000D01*
X185058571Y-103456666D01*
X185201428Y-103456666D01*
X185258571Y-103490000D01*
X185287142Y-103523333D01*
X185315714Y-103590000D01*
X185315714Y-103656666D01*
X185287142Y-103756666D01*
X184944285Y-104156666D01*
X185315714Y-104156666D01*
D10*
X173672857Y-110636666D02*
X173672857Y-111203333D01*
X173701428Y-111270000D01*
X173730000Y-111303333D01*
X173787142Y-111336666D01*
X173901428Y-111336666D01*
X173958571Y-111303333D01*
X173987142Y-111270000D01*
X174015714Y-111203333D01*
X174015714Y-110636666D01*
X174272857Y-110703333D02*
X174301428Y-110670000D01*
X174358571Y-110636666D01*
X174501428Y-110636666D01*
X174558571Y-110670000D01*
X174587142Y-110703333D01*
X174615714Y-110770000D01*
X174615714Y-110836666D01*
X174587142Y-110936666D01*
X174244285Y-111336666D01*
X174615714Y-111336666D01*
D12*
X185970317Y-85535506D02*
X185970317Y-86102173D01*
X185998888Y-86168840D01*
X186027460Y-86202173D01*
X186084602Y-86235506D01*
X186198888Y-86235506D01*
X186256031Y-86202173D01*
X186284602Y-86168840D01*
X186313174Y-86102173D01*
X186313174Y-85535506D01*
X186541745Y-85535506D02*
X186913174Y-85535506D01*
X186713174Y-85802173D01*
X186798888Y-85802173D01*
X186856031Y-85835506D01*
X186884602Y-85868840D01*
X186913174Y-85935506D01*
X186913174Y-86102173D01*
X186884602Y-86168840D01*
X186856031Y-86202173D01*
X186798888Y-86235506D01*
X186627460Y-86235506D01*
X186570317Y-86202173D01*
X186541745Y-86168840D01*
X185985557Y-82004906D02*
X185985557Y-82571573D01*
X186014128Y-82638240D01*
X186042700Y-82671573D01*
X186099842Y-82704906D01*
X186214128Y-82704906D01*
X186271271Y-82671573D01*
X186299842Y-82638240D01*
X186328414Y-82571573D01*
X186328414Y-82004906D01*
X186928414Y-82704906D02*
X186585557Y-82704906D01*
X186756985Y-82704906D02*
X186756985Y-82004906D01*
X186699842Y-82104906D01*
X186642700Y-82171573D01*
X186585557Y-82204906D01*
D13*
X175391271Y-96104190D02*
X175224604Y-95866095D01*
X175105557Y-96104190D02*
X175105557Y-95604190D01*
X175296033Y-95604190D01*
X175343652Y-95628000D01*
X175367461Y-95651809D01*
X175391271Y-95699428D01*
X175391271Y-95770857D01*
X175367461Y-95818476D01*
X175343652Y-95842285D01*
X175296033Y-95866095D01*
X175105557Y-95866095D01*
X175867461Y-96104190D02*
X175581747Y-96104190D01*
X175724604Y-96104190D02*
X175724604Y-95604190D01*
X175676985Y-95675619D01*
X175629366Y-95723238D01*
X175581747Y-95747047D01*
X176176985Y-95604190D02*
X176224604Y-95604190D01*
X176272223Y-95628000D01*
X176296033Y-95651809D01*
X176319842Y-95699428D01*
X176343652Y-95794666D01*
X176343652Y-95913714D01*
X176319842Y-96008952D01*
X176296033Y-96056571D01*
X176272223Y-96080380D01*
X176224604Y-96104190D01*
X176176985Y-96104190D01*
X176129366Y-96080380D01*
X176105557Y-96056571D01*
X176081747Y-96008952D01*
X176057938Y-95913714D01*
X176057938Y-95794666D01*
X176081747Y-95699428D01*
X176105557Y-95651809D01*
X176129366Y-95628000D01*
X176176985Y-95604190D01*
D12*
X178947182Y-108434306D02*
X178947182Y-107734306D01*
X179090040Y-107734306D01*
X179175754Y-107767640D01*
X179232897Y-107834306D01*
X179261468Y-107900973D01*
X179290040Y-108034306D01*
X179290040Y-108134306D01*
X179261468Y-108267640D01*
X179232897Y-108334306D01*
X179175754Y-108400973D01*
X179090040Y-108434306D01*
X178947182Y-108434306D01*
X179490040Y-107734306D02*
X179861468Y-107734306D01*
X179661468Y-108000973D01*
X179747182Y-108000973D01*
X179804325Y-108034306D01*
X179832897Y-108067640D01*
X179861468Y-108134306D01*
X179861468Y-108300973D01*
X179832897Y-108367640D01*
X179804325Y-108400973D01*
X179747182Y-108434306D01*
X179575754Y-108434306D01*
X179518611Y-108400973D01*
X179490040Y-108367640D01*
X178933205Y-106790926D02*
X178733205Y-106457593D01*
X178590348Y-106790926D02*
X178590348Y-106090926D01*
X178818920Y-106090926D01*
X178876062Y-106124260D01*
X178904634Y-106157593D01*
X178933205Y-106224260D01*
X178933205Y-106324260D01*
X178904634Y-106390926D01*
X178876062Y-106424260D01*
X178818920Y-106457593D01*
X178590348Y-106457593D01*
X179504634Y-106790926D02*
X179161777Y-106790926D01*
X179333205Y-106790926D02*
X179333205Y-106090926D01*
X179276062Y-106190926D01*
X179218920Y-106257593D01*
X179161777Y-106290926D01*
X180076062Y-106790926D02*
X179733205Y-106790926D01*
X179904634Y-106790926D02*
X179904634Y-106090926D01*
X179847491Y-106190926D01*
X179790348Y-106257593D01*
X179733205Y-106290926D01*
X175889200Y-84967800D02*
X175860628Y-85001133D01*
X175774914Y-85034466D01*
X175717771Y-85034466D01*
X175632057Y-85001133D01*
X175574914Y-84934466D01*
X175546342Y-84867800D01*
X175517771Y-84734466D01*
X175517771Y-84634466D01*
X175546342Y-84501133D01*
X175574914Y-84434466D01*
X175632057Y-84367800D01*
X175717771Y-84334466D01*
X175774914Y-84334466D01*
X175860628Y-84367800D01*
X175889200Y-84401133D01*
X176232057Y-84634466D02*
X176174914Y-84601133D01*
X176146342Y-84567800D01*
X176117771Y-84501133D01*
X176117771Y-84467800D01*
X176146342Y-84401133D01*
X176174914Y-84367800D01*
X176232057Y-84334466D01*
X176346342Y-84334466D01*
X176403485Y-84367800D01*
X176432057Y-84401133D01*
X176460628Y-84467800D01*
X176460628Y-84501133D01*
X176432057Y-84567800D01*
X176403485Y-84601133D01*
X176346342Y-84634466D01*
X176232057Y-84634466D01*
X176174914Y-84667800D01*
X176146342Y-84701133D01*
X176117771Y-84767800D01*
X176117771Y-84901133D01*
X176146342Y-84967800D01*
X176174914Y-85001133D01*
X176232057Y-85034466D01*
X176346342Y-85034466D01*
X176403485Y-85001133D01*
X176432057Y-84967800D01*
X176460628Y-84901133D01*
X176460628Y-84767800D01*
X176432057Y-84701133D01*
X176403485Y-84667800D01*
X176346342Y-84634466D01*
X175920000Y-89020000D02*
X175891428Y-89053333D01*
X175805714Y-89086666D01*
X175748571Y-89086666D01*
X175662857Y-89053333D01*
X175605714Y-88986666D01*
X175577142Y-88920000D01*
X175548571Y-88786666D01*
X175548571Y-88686666D01*
X175577142Y-88553333D01*
X175605714Y-88486666D01*
X175662857Y-88420000D01*
X175748571Y-88386666D01*
X175805714Y-88386666D01*
X175891428Y-88420000D01*
X175920000Y-88453333D01*
X176434285Y-88386666D02*
X176320000Y-88386666D01*
X176262857Y-88420000D01*
X176234285Y-88453333D01*
X176177142Y-88553333D01*
X176148571Y-88686666D01*
X176148571Y-88953333D01*
X176177142Y-89020000D01*
X176205714Y-89053333D01*
X176262857Y-89086666D01*
X176377142Y-89086666D01*
X176434285Y-89053333D01*
X176462857Y-89020000D01*
X176491428Y-88953333D01*
X176491428Y-88786666D01*
X176462857Y-88720000D01*
X176434285Y-88686666D01*
X176377142Y-88653333D01*
X176262857Y-88653333D01*
X176205714Y-88686666D01*
X176177142Y-88720000D01*
X176148571Y-88786666D01*
X188970000Y-111070000D02*
X188770000Y-111070000D01*
X188770000Y-111436666D02*
X188770000Y-110736666D01*
X189055714Y-110736666D01*
X189598571Y-111436666D02*
X189255714Y-111436666D01*
X189427142Y-111436666D02*
X189427142Y-110736666D01*
X189370000Y-110836666D01*
X189312857Y-110903333D01*
X189255714Y-110936666D01*
X178813825Y-105040240D02*
X178785254Y-105073573D01*
X178699540Y-105106906D01*
X178642397Y-105106906D01*
X178556682Y-105073573D01*
X178499540Y-105006906D01*
X178470968Y-104940240D01*
X178442397Y-104806906D01*
X178442397Y-104706906D01*
X178470968Y-104573573D01*
X178499540Y-104506906D01*
X178556682Y-104440240D01*
X178642397Y-104406906D01*
X178699540Y-104406906D01*
X178785254Y-104440240D01*
X178813825Y-104473573D01*
X179385254Y-105106906D02*
X179042397Y-105106906D01*
X179213825Y-105106906D02*
X179213825Y-104406906D01*
X179156682Y-104506906D01*
X179099540Y-104573573D01*
X179042397Y-104606906D01*
X179956682Y-105106906D02*
X179613825Y-105106906D01*
X179785254Y-105106906D02*
X179785254Y-104406906D01*
X179728111Y-104506906D01*
X179670968Y-104573573D01*
X179613825Y-104606906D01*
D13*
X172762380Y-118736666D02*
X172786190Y-118665238D01*
X172786190Y-118546190D01*
X172762380Y-118498571D01*
X172738571Y-118474761D01*
X172690952Y-118450952D01*
X172643333Y-118450952D01*
X172595714Y-118474761D01*
X172571904Y-118498571D01*
X172548095Y-118546190D01*
X172524285Y-118641428D01*
X172500476Y-118689047D01*
X172476666Y-118712857D01*
X172429047Y-118736666D01*
X172381428Y-118736666D01*
X172333809Y-118712857D01*
X172310000Y-118689047D01*
X172286190Y-118641428D01*
X172286190Y-118522380D01*
X172310000Y-118450952D01*
X172286190Y-118284285D02*
X172786190Y-118165238D01*
X172429047Y-118070000D01*
X172786190Y-117974761D01*
X172286190Y-117855714D01*
X172333809Y-117689047D02*
X172310000Y-117665238D01*
X172286190Y-117617619D01*
X172286190Y-117498571D01*
X172310000Y-117450952D01*
X172333809Y-117427142D01*
X172381428Y-117403333D01*
X172429047Y-117403333D01*
X172500476Y-117427142D01*
X172786190Y-117712857D01*
X172786190Y-117403333D01*
D12*
X188940000Y-105016666D02*
X188740000Y-104683333D01*
X188597142Y-105016666D02*
X188597142Y-104316666D01*
X188825714Y-104316666D01*
X188882857Y-104350000D01*
X188911428Y-104383333D01*
X188940000Y-104450000D01*
X188940000Y-104550000D01*
X188911428Y-104616666D01*
X188882857Y-104650000D01*
X188825714Y-104683333D01*
X188597142Y-104683333D01*
X189482857Y-104316666D02*
X189197142Y-104316666D01*
X189168571Y-104650000D01*
X189197142Y-104616666D01*
X189254285Y-104583333D01*
X189397142Y-104583333D01*
X189454285Y-104616666D01*
X189482857Y-104650000D01*
X189511428Y-104716666D01*
X189511428Y-104883333D01*
X189482857Y-104950000D01*
X189454285Y-104983333D01*
X189397142Y-105016666D01*
X189254285Y-105016666D01*
X189197142Y-104983333D01*
X189168571Y-104950000D01*
X171920485Y-93060866D02*
X171720485Y-92727533D01*
X171577628Y-93060866D02*
X171577628Y-92360866D01*
X171806200Y-92360866D01*
X171863342Y-92394200D01*
X171891914Y-92427533D01*
X171920485Y-92494200D01*
X171920485Y-92594200D01*
X171891914Y-92660866D01*
X171863342Y-92694200D01*
X171806200Y-92727533D01*
X171577628Y-92727533D01*
X172491914Y-93060866D02*
X172149057Y-93060866D01*
X172320485Y-93060866D02*
X172320485Y-92360866D01*
X172263342Y-92460866D01*
X172206200Y-92527533D01*
X172149057Y-92560866D01*
X172720485Y-92427533D02*
X172749057Y-92394200D01*
X172806200Y-92360866D01*
X172949057Y-92360866D01*
X173006200Y-92394200D01*
X173034771Y-92427533D01*
X173063342Y-92494200D01*
X173063342Y-92560866D01*
X173034771Y-92660866D01*
X172691914Y-93060866D01*
X173063342Y-93060866D01*
X167305600Y-102851066D02*
X167305600Y-103351066D01*
X167277028Y-103451066D01*
X167219885Y-103517733D01*
X167134171Y-103551066D01*
X167077028Y-103551066D01*
X167534171Y-102851066D02*
X167905600Y-102851066D01*
X167705600Y-103117733D01*
X167791314Y-103117733D01*
X167848457Y-103151066D01*
X167877028Y-103184400D01*
X167905600Y-103251066D01*
X167905600Y-103417733D01*
X167877028Y-103484400D01*
X167848457Y-103517733D01*
X167791314Y-103551066D01*
X167619885Y-103551066D01*
X167562742Y-103517733D01*
X167534171Y-103484400D01*
X171787142Y-85009066D02*
X171787142Y-84309066D01*
X171930000Y-84309066D01*
X172015714Y-84342400D01*
X172072857Y-84409066D01*
X172101428Y-84475733D01*
X172130000Y-84609066D01*
X172130000Y-84709066D01*
X172101428Y-84842400D01*
X172072857Y-84909066D01*
X172015714Y-84975733D01*
X171930000Y-85009066D01*
X171787142Y-85009066D01*
X172358571Y-84375733D02*
X172387142Y-84342400D01*
X172444285Y-84309066D01*
X172587142Y-84309066D01*
X172644285Y-84342400D01*
X172672857Y-84375733D01*
X172701428Y-84442400D01*
X172701428Y-84509066D01*
X172672857Y-84609066D01*
X172330000Y-85009066D01*
X172701428Y-85009066D01*
X177356085Y-84993200D02*
X177327514Y-85026533D01*
X177241800Y-85059866D01*
X177184657Y-85059866D01*
X177098942Y-85026533D01*
X177041800Y-84959866D01*
X177013228Y-84893200D01*
X176984657Y-84759866D01*
X176984657Y-84659866D01*
X177013228Y-84526533D01*
X177041800Y-84459866D01*
X177098942Y-84393200D01*
X177184657Y-84359866D01*
X177241800Y-84359866D01*
X177327514Y-84393200D01*
X177356085Y-84426533D01*
X177927514Y-85059866D02*
X177584657Y-85059866D01*
X177756085Y-85059866D02*
X177756085Y-84359866D01*
X177698942Y-84459866D01*
X177641800Y-84526533D01*
X177584657Y-84559866D01*
X178298942Y-84359866D02*
X178356085Y-84359866D01*
X178413228Y-84393200D01*
X178441800Y-84426533D01*
X178470371Y-84493200D01*
X178498942Y-84626533D01*
X178498942Y-84793200D01*
X178470371Y-84926533D01*
X178441800Y-84993200D01*
X178413228Y-85026533D01*
X178356085Y-85059866D01*
X178298942Y-85059866D01*
X178241800Y-85026533D01*
X178213228Y-84993200D01*
X178184657Y-84926533D01*
X178156085Y-84793200D01*
X178156085Y-84626533D01*
X178184657Y-84493200D01*
X178213228Y-84426533D01*
X178241800Y-84393200D01*
X178298942Y-84359866D01*
X170920000Y-115540000D02*
X170953333Y-115568571D01*
X170986666Y-115654285D01*
X170986666Y-115711428D01*
X170953333Y-115797142D01*
X170886666Y-115854285D01*
X170820000Y-115882857D01*
X170686666Y-115911428D01*
X170586666Y-115911428D01*
X170453333Y-115882857D01*
X170386666Y-115854285D01*
X170320000Y-115797142D01*
X170286666Y-115711428D01*
X170286666Y-115654285D01*
X170320000Y-115568571D01*
X170353333Y-115540000D01*
X170520000Y-115025714D02*
X170986666Y-115025714D01*
X170253333Y-115168571D02*
X170753333Y-115311428D01*
X170753333Y-114940000D01*
D13*
X179056666Y-96048371D02*
X179032857Y-96072180D01*
X178961428Y-96095990D01*
X178913809Y-96095990D01*
X178842380Y-96072180D01*
X178794761Y-96024561D01*
X178770952Y-95976942D01*
X178747142Y-95881704D01*
X178747142Y-95810276D01*
X178770952Y-95715038D01*
X178794761Y-95667419D01*
X178842380Y-95619800D01*
X178913809Y-95595990D01*
X178961428Y-95595990D01*
X179032857Y-95619800D01*
X179056666Y-95643609D01*
X179532857Y-96095990D02*
X179247142Y-96095990D01*
X179390000Y-96095990D02*
X179390000Y-95595990D01*
X179342380Y-95667419D01*
X179294761Y-95715038D01*
X179247142Y-95738847D01*
X180578571Y-96058571D02*
X180554761Y-96082380D01*
X180483333Y-96106190D01*
X180435714Y-96106190D01*
X180364285Y-96082380D01*
X180316666Y-96034761D01*
X180292857Y-95987142D01*
X180269047Y-95891904D01*
X180269047Y-95820476D01*
X180292857Y-95725238D01*
X180316666Y-95677619D01*
X180364285Y-95630000D01*
X180435714Y-95606190D01*
X180483333Y-95606190D01*
X180554761Y-95630000D01*
X180578571Y-95653809D01*
X181054761Y-96106190D02*
X180769047Y-96106190D01*
X180911904Y-96106190D02*
X180911904Y-95606190D01*
X180864285Y-95677619D01*
X180816666Y-95725238D01*
X180769047Y-95749047D01*
X181245238Y-95653809D02*
X181269047Y-95630000D01*
X181316666Y-95606190D01*
X181435714Y-95606190D01*
X181483333Y-95630000D01*
X181507142Y-95653809D01*
X181530952Y-95701428D01*
X181530952Y-95749047D01*
X181507142Y-95820476D01*
X181221428Y-96106190D01*
X181530952Y-96106190D01*
D12*
X183050000Y-114516666D02*
X182850000Y-114183333D01*
X182707142Y-114516666D02*
X182707142Y-113816666D01*
X182935714Y-113816666D01*
X182992857Y-113850000D01*
X183021428Y-113883333D01*
X183050000Y-113950000D01*
X183050000Y-114050000D01*
X183021428Y-114116666D01*
X182992857Y-114150000D01*
X182935714Y-114183333D01*
X182707142Y-114183333D01*
X183564285Y-113816666D02*
X183450000Y-113816666D01*
X183392857Y-113850000D01*
X183364285Y-113883333D01*
X183307142Y-113983333D01*
X183278571Y-114116666D01*
X183278571Y-114383333D01*
X183307142Y-114450000D01*
X183335714Y-114483333D01*
X183392857Y-114516666D01*
X183507142Y-114516666D01*
X183564285Y-114483333D01*
X183592857Y-114450000D01*
X183621428Y-114383333D01*
X183621428Y-114216666D01*
X183592857Y-114150000D01*
X183564285Y-114116666D01*
X183507142Y-114083333D01*
X183392857Y-114083333D01*
X183335714Y-114116666D01*
X183307142Y-114150000D01*
X183278571Y-114216666D01*
X182226666Y-83674800D02*
X181893333Y-83874800D01*
X182226666Y-84017657D02*
X181526666Y-84017657D01*
X181526666Y-83789085D01*
X181560000Y-83731942D01*
X181593333Y-83703371D01*
X181660000Y-83674800D01*
X181760000Y-83674800D01*
X181826666Y-83703371D01*
X181860000Y-83731942D01*
X181893333Y-83789085D01*
X181893333Y-84017657D01*
X182226666Y-83103371D02*
X182226666Y-83446228D01*
X182226666Y-83274800D02*
X181526666Y-83274800D01*
X181626666Y-83331942D01*
X181693333Y-83389085D01*
X181726666Y-83446228D01*
X172390000Y-95986666D02*
X172190000Y-95653333D01*
X172047142Y-95986666D02*
X172047142Y-95286666D01*
X172275714Y-95286666D01*
X172332857Y-95320000D01*
X172361428Y-95353333D01*
X172390000Y-95420000D01*
X172390000Y-95520000D01*
X172361428Y-95586666D01*
X172332857Y-95620000D01*
X172275714Y-95653333D01*
X172047142Y-95653333D01*
X172675714Y-95986666D02*
X172790000Y-95986666D01*
X172847142Y-95953333D01*
X172875714Y-95920000D01*
X172932857Y-95820000D01*
X172961428Y-95686666D01*
X172961428Y-95420000D01*
X172932857Y-95353333D01*
X172904285Y-95320000D01*
X172847142Y-95286666D01*
X172732857Y-95286666D01*
X172675714Y-95320000D01*
X172647142Y-95353333D01*
X172618571Y-95420000D01*
X172618571Y-95586666D01*
X172647142Y-95653333D01*
X172675714Y-95686666D01*
X172732857Y-95720000D01*
X172847142Y-95720000D01*
X172904285Y-95686666D01*
X172932857Y-95653333D01*
X172961428Y-95586666D01*
D13*
X177346866Y-96109790D02*
X177180200Y-95871695D01*
X177061152Y-96109790D02*
X177061152Y-95609790D01*
X177251628Y-95609790D01*
X177299247Y-95633600D01*
X177323057Y-95657409D01*
X177346866Y-95705028D01*
X177346866Y-95776457D01*
X177323057Y-95824076D01*
X177299247Y-95847885D01*
X177251628Y-95871695D01*
X177061152Y-95871695D01*
X177537342Y-95657409D02*
X177561152Y-95633600D01*
X177608771Y-95609790D01*
X177727819Y-95609790D01*
X177775438Y-95633600D01*
X177799247Y-95657409D01*
X177823057Y-95705028D01*
X177823057Y-95752647D01*
X177799247Y-95824076D01*
X177513533Y-96109790D01*
X177823057Y-96109790D01*
D12*
X170950000Y-113740000D02*
X170983333Y-113768571D01*
X171016666Y-113854285D01*
X171016666Y-113911428D01*
X170983333Y-113997142D01*
X170916666Y-114054285D01*
X170850000Y-114082857D01*
X170716666Y-114111428D01*
X170616666Y-114111428D01*
X170483333Y-114082857D01*
X170416666Y-114054285D01*
X170350000Y-113997142D01*
X170316666Y-113911428D01*
X170316666Y-113854285D01*
X170350000Y-113768571D01*
X170383333Y-113740000D01*
X170316666Y-113197142D02*
X170316666Y-113482857D01*
X170650000Y-113511428D01*
X170616666Y-113482857D01*
X170583333Y-113425714D01*
X170583333Y-113282857D01*
X170616666Y-113225714D01*
X170650000Y-113197142D01*
X170716666Y-113168571D01*
X170883333Y-113168571D01*
X170950000Y-113197142D01*
X170983333Y-113225714D01*
X171016666Y-113282857D01*
X171016666Y-113425714D01*
X170983333Y-113482857D01*
X170950000Y-113511428D01*
X174187400Y-84967800D02*
X174158828Y-85001133D01*
X174073114Y-85034466D01*
X174015971Y-85034466D01*
X173930257Y-85001133D01*
X173873114Y-84934466D01*
X173844542Y-84867800D01*
X173815971Y-84734466D01*
X173815971Y-84634466D01*
X173844542Y-84501133D01*
X173873114Y-84434466D01*
X173930257Y-84367800D01*
X174015971Y-84334466D01*
X174073114Y-84334466D01*
X174158828Y-84367800D01*
X174187400Y-84401133D01*
X174387400Y-84334466D02*
X174758828Y-84334466D01*
X174558828Y-84601133D01*
X174644542Y-84601133D01*
X174701685Y-84634466D01*
X174730257Y-84667800D01*
X174758828Y-84734466D01*
X174758828Y-84901133D01*
X174730257Y-84967800D01*
X174701685Y-85001133D01*
X174644542Y-85034466D01*
X174473114Y-85034466D01*
X174415971Y-85001133D01*
X174387400Y-84967800D01*
X174130000Y-88990000D02*
X174101428Y-89023333D01*
X174015714Y-89056666D01*
X173958571Y-89056666D01*
X173872857Y-89023333D01*
X173815714Y-88956666D01*
X173787142Y-88890000D01*
X173758571Y-88756666D01*
X173758571Y-88656666D01*
X173787142Y-88523333D01*
X173815714Y-88456666D01*
X173872857Y-88390000D01*
X173958571Y-88356666D01*
X174015714Y-88356666D01*
X174101428Y-88390000D01*
X174130000Y-88423333D01*
X174358571Y-88423333D02*
X174387142Y-88390000D01*
X174444285Y-88356666D01*
X174587142Y-88356666D01*
X174644285Y-88390000D01*
X174672857Y-88423333D01*
X174701428Y-88490000D01*
X174701428Y-88556666D01*
X174672857Y-88656666D01*
X174330000Y-89056666D01*
X174701428Y-89056666D01*
X177718000Y-89010000D02*
X177689428Y-89043333D01*
X177603714Y-89076666D01*
X177546571Y-89076666D01*
X177460857Y-89043333D01*
X177403714Y-88976666D01*
X177375142Y-88910000D01*
X177346571Y-88776666D01*
X177346571Y-88676666D01*
X177375142Y-88543333D01*
X177403714Y-88476666D01*
X177460857Y-88410000D01*
X177546571Y-88376666D01*
X177603714Y-88376666D01*
X177689428Y-88410000D01*
X177718000Y-88443333D01*
X177918000Y-88376666D02*
X178318000Y-88376666D01*
X178060857Y-89076666D01*
X189040000Y-97246666D02*
X188840000Y-96913333D01*
X188697142Y-97246666D02*
X188697142Y-96546666D01*
X188925714Y-96546666D01*
X188982857Y-96580000D01*
X189011428Y-96613333D01*
X189040000Y-96680000D01*
X189040000Y-96780000D01*
X189011428Y-96846666D01*
X188982857Y-96880000D01*
X188925714Y-96913333D01*
X188697142Y-96913333D01*
X189554285Y-96780000D02*
X189554285Y-97246666D01*
X189411428Y-96513333D02*
X189268571Y-97013333D01*
X189640000Y-97013333D01*
M02*
