%FSLAX45Y45*%
G04 Gerber Fmt 4.5, Leading zero omitted, Abs format (unit mm)*
G04 Created by KiCad (PCBNEW 5.1.10-88a1d61d58~90~ubuntu20.04.1) date 2021-07-14 19:36:43*
%MOMM*%
%LPD*%
G01*
G04 APERTURE LIST*
%TA.AperFunction,Profile*%
%ADD10C,0.050000*%
%TD*%
%ADD11C,0.200000*%
%ADD12C,0.300000*%
G04 APERTURE END LIST*
D10*
X16582000Y-5792000D02*
X16582104Y-12315978D01*
X16715000Y-12465000D02*
X19246978Y-12467896D01*
X16715000Y-12465000D02*
G75*
G02*
X16582104Y-12315978I17104J149022D01*
G01*
X19396000Y-5792000D02*
X19396000Y-12335000D01*
X16732000Y-5642000D02*
X19245856Y-5641898D01*
X19396000Y-12335000D02*
G75*
G02*
X19246978Y-12467896I-149022J17104D01*
G01*
X16582000Y-5792000D02*
G75*
G02*
X16732000Y-5642000I150000J0D01*
G01*
X19245856Y-5641898D02*
G75*
G02*
X19396000Y-5792000I0J-150144D01*
G01*
D11*
X16747000Y-11578000D02*
X16787000Y-11618000D01*
X16787000Y-11578000D02*
X16747000Y-11618000D01*
X16751000Y-11219000D02*
X16791000Y-11259000D01*
X16791000Y-11219000D02*
X16751000Y-11259000D01*
X16908000Y-10531000D02*
X16948000Y-10571000D01*
X16948000Y-10531000D02*
X16908000Y-10571000D01*
X16918266Y-10017944D02*
X16958266Y-10057944D01*
X16958266Y-10017944D02*
X16918266Y-10057944D01*
X16919282Y-10244766D02*
X16959282Y-10284766D01*
X16959282Y-10244766D02*
X16919282Y-10284766D01*
X16923092Y-10996098D02*
X16963092Y-11036098D01*
X16963092Y-10996098D02*
X16923092Y-11036098D01*
X16975000Y-11218000D02*
X17015000Y-11258000D01*
X17015000Y-11218000D02*
X16975000Y-11258000D01*
X17128250Y-11456500D02*
X17168250Y-11496500D01*
X17168250Y-11456500D02*
X17128250Y-11496500D01*
X17133698Y-11996302D02*
X17173698Y-12036302D01*
X17173698Y-11996302D02*
X17133698Y-12036302D01*
X17181861Y-10779476D02*
X17221861Y-10819476D01*
X17221861Y-10779476D02*
X17181861Y-10819476D01*
X17201952Y-9532772D02*
X17241952Y-9572772D01*
X17241952Y-9532772D02*
X17201952Y-9572772D01*
X17208080Y-8365420D02*
X17248080Y-8405420D01*
X17248080Y-8365420D02*
X17208080Y-8405420D01*
X17215700Y-9317920D02*
X17255700Y-9357920D01*
X17255700Y-9317920D02*
X17215700Y-9357920D01*
X17233250Y-11456500D02*
X17273250Y-11496500D01*
X17273250Y-11456500D02*
X17233250Y-11496500D01*
X17237798Y-7683938D02*
X17277798Y-7723938D01*
X17277798Y-7683938D02*
X17237798Y-7723938D01*
X17238814Y-7532808D02*
X17278814Y-7572808D01*
X17278814Y-7532808D02*
X17238814Y-7572808D01*
X17239322Y-7386250D02*
X17279322Y-7426250D01*
X17279322Y-7386250D02*
X17239322Y-7426250D01*
X17244910Y-5735250D02*
X17284910Y-5775250D01*
X17284910Y-5735250D02*
X17244910Y-5775250D01*
X17245164Y-6046400D02*
X17285164Y-6086400D01*
X17285164Y-6046400D02*
X17245164Y-6086400D01*
X17268174Y-11996302D02*
X17308174Y-12036302D01*
X17308174Y-11996302D02*
X17268174Y-12036302D01*
X17309000Y-11579000D02*
X17349000Y-11619000D01*
X17349000Y-11579000D02*
X17309000Y-11619000D01*
X17326330Y-11085468D02*
X17366330Y-11125468D01*
X17366330Y-11085468D02*
X17326330Y-11125468D01*
X17396331Y-11343024D02*
X17436331Y-11383024D01*
X17436331Y-11343024D02*
X17396331Y-11383024D01*
X17397968Y-11996302D02*
X17437968Y-12036302D01*
X17437968Y-11996302D02*
X17397968Y-12036302D01*
X17450039Y-7532554D02*
X17490039Y-7572554D01*
X17490039Y-7532554D02*
X17450039Y-7572554D01*
X17544001Y-10472904D02*
X17584001Y-10512904D01*
X17584001Y-10472904D02*
X17544001Y-10512904D01*
X17554028Y-9535344D02*
X17594028Y-9575344D01*
X17594028Y-9535344D02*
X17554028Y-9575344D01*
X17589334Y-8850052D02*
X17629334Y-8890052D01*
X17629334Y-8850052D02*
X17589334Y-8890052D01*
X17594160Y-8365420D02*
X17634160Y-8405420D01*
X17634160Y-8365420D02*
X17594160Y-8405420D01*
X17603470Y-6304630D02*
X17643470Y-6344630D01*
X17643470Y-6304630D02*
X17603470Y-6344630D01*
X17603470Y-6454630D02*
X17643470Y-6494630D01*
X17643470Y-6454630D02*
X17603470Y-6494630D01*
X17603470Y-6604630D02*
X17643470Y-6644630D01*
X17643470Y-6604630D02*
X17603470Y-6644630D01*
X17603470Y-6754630D02*
X17643470Y-6794630D01*
X17643470Y-6754630D02*
X17603470Y-6794630D01*
X17613858Y-10874902D02*
X17653858Y-10914902D01*
X17653858Y-10874902D02*
X17613858Y-10914902D01*
X17663466Y-10015620D02*
X17703466Y-10055620D01*
X17703466Y-10015620D02*
X17663466Y-10055620D01*
X17724000Y-10880000D02*
X17764000Y-10920000D01*
X17764000Y-10880000D02*
X17724000Y-10920000D01*
X17742890Y-11359280D02*
X17782890Y-11399280D01*
X17782890Y-11359280D02*
X17742890Y-11399280D01*
X17743144Y-11096898D02*
X17783144Y-11136898D01*
X17783144Y-11096898D02*
X17743144Y-11136898D01*
X17753470Y-6304630D02*
X17793470Y-6344630D01*
X17793470Y-6304630D02*
X17753470Y-6344630D01*
X17753470Y-6454630D02*
X17793470Y-6494630D01*
X17793470Y-6454630D02*
X17753470Y-6494630D01*
X17753470Y-6604630D02*
X17793470Y-6644630D01*
X17793470Y-6604630D02*
X17753470Y-6644630D01*
X17753470Y-6754630D02*
X17793470Y-6794630D01*
X17793470Y-6754630D02*
X17753470Y-6794630D01*
X17761800Y-8854370D02*
X17801800Y-8894370D01*
X17801800Y-8854370D02*
X17761800Y-8894370D01*
X17768466Y-10015620D02*
X17808466Y-10055620D01*
X17808466Y-10015620D02*
X17768466Y-10055620D01*
X17789626Y-10979550D02*
X17829626Y-11019550D01*
X17829626Y-10979550D02*
X17789626Y-11019550D01*
X17838000Y-9411900D02*
X17878000Y-9451900D01*
X17878000Y-9411900D02*
X17838000Y-9451900D01*
X17903470Y-6304630D02*
X17943470Y-6344630D01*
X17943470Y-6304630D02*
X17903470Y-6344630D01*
X17903470Y-6454630D02*
X17943470Y-6494630D01*
X17943470Y-6454630D02*
X17903470Y-6494630D01*
X17903470Y-6604630D02*
X17943470Y-6644630D01*
X17943470Y-6604630D02*
X17903470Y-6644630D01*
X17903470Y-6754630D02*
X17943470Y-6794630D01*
X17943470Y-6754630D02*
X17903470Y-6794630D01*
X17962968Y-8215052D02*
X18002968Y-8255052D01*
X18002968Y-8215052D02*
X17962968Y-8255052D01*
X17977700Y-10391070D02*
X18017700Y-10431070D01*
X18017700Y-10391070D02*
X17977700Y-10431070D01*
X17990540Y-12177414D02*
X18030540Y-12217414D01*
X18030540Y-12177414D02*
X17990540Y-12217414D01*
X17992064Y-11614042D02*
X18032064Y-11654042D01*
X18032064Y-11614042D02*
X17992064Y-11654042D01*
X17992318Y-12082164D02*
X18032318Y-12122164D01*
X18032318Y-12082164D02*
X17992318Y-12122164D01*
X17999250Y-8619290D02*
X18039250Y-8659290D01*
X18039250Y-8619290D02*
X17999250Y-8659290D01*
X17999250Y-8849290D02*
X18039250Y-8889290D01*
X18039250Y-8849290D02*
X17999250Y-8889290D01*
X18030532Y-9544488D02*
X18070532Y-9584488D01*
X18070532Y-9544488D02*
X18030532Y-9584488D01*
X18053470Y-6304630D02*
X18093470Y-6344630D01*
X18093470Y-6304630D02*
X18053470Y-6344630D01*
X18053470Y-6454630D02*
X18093470Y-6494630D01*
X18093470Y-6454630D02*
X18053470Y-6494630D01*
X18053470Y-6604630D02*
X18093470Y-6644630D01*
X18093470Y-6604630D02*
X18053470Y-6644630D01*
X18053470Y-6754630D02*
X18093470Y-6794630D01*
X18093470Y-6754630D02*
X18053470Y-6794630D01*
X18057466Y-11042036D02*
X18097466Y-11082036D01*
X18097466Y-11042036D02*
X18057466Y-11082036D01*
X18058389Y-10937340D02*
X18098389Y-10977340D01*
X18098389Y-10937340D02*
X18058389Y-10977340D01*
X18073090Y-11359280D02*
X18113090Y-11399280D01*
X18113090Y-11359280D02*
X18073090Y-11399280D01*
X18078170Y-11231264D02*
X18118170Y-11271264D01*
X18118170Y-11231264D02*
X18078170Y-11271264D01*
X18158548Y-9541948D02*
X18198548Y-9581948D01*
X18198548Y-9541948D02*
X18158548Y-9581948D01*
X18170740Y-10389800D02*
X18210740Y-10429800D01*
X18210740Y-10389800D02*
X18170740Y-10429800D01*
X18283910Y-10836802D02*
X18323910Y-10876802D01*
X18323910Y-10836802D02*
X18283910Y-10876802D01*
X18290686Y-11496104D02*
X18330686Y-11536104D01*
X18330686Y-11496104D02*
X18290686Y-11536104D01*
X18293766Y-10987001D02*
X18333766Y-11027001D01*
X18333766Y-10987001D02*
X18293766Y-11027001D01*
X18373617Y-11413173D02*
X18413617Y-11453173D01*
X18413617Y-11413173D02*
X18373617Y-11453173D01*
X18424232Y-9292520D02*
X18464232Y-9332520D01*
X18464232Y-9292520D02*
X18424232Y-9332520D01*
X18450071Y-11336719D02*
X18490071Y-11376719D01*
X18490071Y-11336719D02*
X18450071Y-11376719D01*
X18573029Y-11015909D02*
X18613029Y-11055909D01*
X18613029Y-11015909D02*
X18573029Y-11055909D01*
X18590348Y-7528744D02*
X18630348Y-7568744D01*
X18630348Y-7528744D02*
X18590348Y-7568744D01*
X18590348Y-7832528D02*
X18630348Y-7872528D01*
X18630348Y-7832528D02*
X18590348Y-7872528D01*
X18590602Y-7682922D02*
X18630602Y-7722922D01*
X18630602Y-7682922D02*
X18590602Y-7722922D01*
X18592126Y-5882062D02*
X18632126Y-5922062D01*
X18632126Y-5882062D02*
X18592126Y-5922062D01*
X18593396Y-7383710D02*
X18633396Y-7423710D01*
X18633396Y-7383710D02*
X18593396Y-7423710D01*
X18595428Y-6482010D02*
X18635428Y-6522010D01*
X18635428Y-6482010D02*
X18595428Y-6522010D01*
X18596444Y-6331134D02*
X18636444Y-6371134D01*
X18636444Y-6331134D02*
X18596444Y-6371134D01*
X18603810Y-9627292D02*
X18643810Y-9667292D01*
X18643810Y-9627292D02*
X18603810Y-9667292D01*
X18630480Y-8749976D02*
X18670480Y-8789976D01*
X18670480Y-8749976D02*
X18630480Y-8789976D01*
X18630480Y-8944032D02*
X18670480Y-8984032D01*
X18670480Y-8944032D02*
X18630480Y-8984032D01*
X18656331Y-9830549D02*
X18696331Y-9870549D01*
X18696331Y-9830549D02*
X18656331Y-9870549D01*
X18666040Y-9977050D02*
X18706040Y-10017050D01*
X18706040Y-9977050D02*
X18666040Y-10017050D01*
X18667310Y-10173900D02*
X18707310Y-10213900D01*
X18707310Y-10173900D02*
X18667310Y-10213900D01*
X18775260Y-8122596D02*
X18815260Y-8162596D01*
X18815260Y-8122596D02*
X18775260Y-8162596D01*
X16751250Y-11827928D02*
G75*
G03*
X16751250Y-11827928I-32500J0D01*
G01*
X16696250Y-11772928D02*
X16696250Y-11882928D01*
X16741250Y-11772928D02*
X16741250Y-11882928D01*
X16696250Y-11882928D02*
G75*
G03*
X16741250Y-11882928I22500J0D01*
G01*
X16741250Y-11772928D02*
G75*
G03*
X16696250Y-11772928I-22500J0D01*
G01*
X16751250Y-12245928D02*
G75*
G03*
X16751250Y-12245928I-32500J0D01*
G01*
X16696250Y-12215928D02*
X16696250Y-12275928D01*
X16741250Y-12215928D02*
X16741250Y-12275928D01*
X16696250Y-12275928D02*
G75*
G03*
X16741250Y-12275928I22500J0D01*
G01*
X16741250Y-12215928D02*
G75*
G03*
X16696250Y-12215928I-22500J0D01*
G01*
X17615250Y-11827928D02*
G75*
G03*
X17615250Y-11827928I-32500J0D01*
G01*
X17560250Y-11772928D02*
X17560250Y-11882928D01*
X17605250Y-11772928D02*
X17605250Y-11882928D01*
X17560250Y-11882928D02*
G75*
G03*
X17605250Y-11882928I22500J0D01*
G01*
X17605250Y-11772928D02*
G75*
G03*
X17560250Y-11772928I-22500J0D01*
G01*
X17615250Y-12245928D02*
G75*
G03*
X17615250Y-12245928I-32500J0D01*
G01*
X17560250Y-12215928D02*
X17560250Y-12275928D01*
X17605250Y-12215928D02*
X17605250Y-12275928D01*
X17560250Y-12275928D02*
G75*
G03*
X17605250Y-12275928I22500J0D01*
G01*
X17605250Y-12215928D02*
G75*
G03*
X17560250Y-12215928I-22500J0D01*
G01*
X18991234Y-11566400D02*
X18991234Y-11658400D01*
X18945234Y-11612400D02*
X19037234Y-11612400D01*
X18991234Y-11766400D02*
X18991234Y-11858400D01*
X18945234Y-11812400D02*
X19037234Y-11812400D01*
X18991234Y-11966400D02*
X18991234Y-12058400D01*
X18945234Y-12012400D02*
X19037234Y-12012400D01*
X18991234Y-12166400D02*
X18991234Y-12258400D01*
X18945234Y-12212400D02*
X19037234Y-12212400D01*
X16778356Y-5836856D02*
X16778356Y-5766144D01*
X16707644Y-5766144D01*
X16707644Y-5836856D01*
X16778356Y-5836856D01*
X16778356Y-6090856D02*
X16778356Y-6020144D01*
X16707644Y-6020144D01*
X16707644Y-6090856D01*
X16778356Y-6090856D01*
X16778356Y-6344856D02*
X16778356Y-6274144D01*
X16707644Y-6274144D01*
X16707644Y-6344856D01*
X16778356Y-6344856D01*
X16778356Y-6598856D02*
X16778356Y-6528144D01*
X16707644Y-6528144D01*
X16707644Y-6598856D01*
X16778356Y-6598856D01*
X16778356Y-6852856D02*
X16778356Y-6782144D01*
X16707644Y-6782144D01*
X16707644Y-6852856D01*
X16778356Y-6852856D01*
X16778356Y-7106856D02*
X16778356Y-7036144D01*
X16707644Y-7036144D01*
X16707644Y-7106856D01*
X16778356Y-7106856D01*
X16778356Y-7360856D02*
X16778356Y-7290144D01*
X16707644Y-7290144D01*
X16707644Y-7360856D01*
X16778356Y-7360856D01*
X16778356Y-7614856D02*
X16778356Y-7544144D01*
X16707644Y-7544144D01*
X16707644Y-7614856D01*
X16778356Y-7614856D01*
X16778356Y-7868856D02*
X16778356Y-7798144D01*
X16707644Y-7798144D01*
X16707644Y-7868856D01*
X16778356Y-7868856D01*
X16778356Y-8122856D02*
X16778356Y-8052144D01*
X16707644Y-8052144D01*
X16707644Y-8122856D01*
X16778356Y-8122856D01*
X16778356Y-8376856D02*
X16778356Y-8306144D01*
X16707644Y-8306144D01*
X16707644Y-8376856D01*
X16778356Y-8376856D01*
X16778356Y-8630856D02*
X16778356Y-8560144D01*
X16707644Y-8560144D01*
X16707644Y-8630856D01*
X16778356Y-8630856D01*
X16778356Y-8884856D02*
X16778356Y-8814144D01*
X16707644Y-8814144D01*
X16707644Y-8884856D01*
X16778356Y-8884856D01*
X16778356Y-9138856D02*
X16778356Y-9068144D01*
X16707644Y-9068144D01*
X16707644Y-9138856D01*
X16778356Y-9138856D01*
X16778356Y-9392856D02*
X16778356Y-9322144D01*
X16707644Y-9322144D01*
X16707644Y-9392856D01*
X16778356Y-9392856D01*
X16778356Y-9646856D02*
X16778356Y-9576144D01*
X16707644Y-9576144D01*
X16707644Y-9646856D01*
X16778356Y-9646856D01*
X16778356Y-9900856D02*
X16778356Y-9830144D01*
X16707644Y-9830144D01*
X16707644Y-9900856D01*
X16778356Y-9900856D01*
X16778356Y-10154856D02*
X16778356Y-10084144D01*
X16707644Y-10084144D01*
X16707644Y-10154856D01*
X16778356Y-10154856D01*
X19257356Y-5836856D02*
X19257356Y-5766144D01*
X19186644Y-5766144D01*
X19186644Y-5836856D01*
X19257356Y-5836856D01*
X19257356Y-6090856D02*
X19257356Y-6020144D01*
X19186644Y-6020144D01*
X19186644Y-6090856D01*
X19257356Y-6090856D01*
X19257356Y-6344856D02*
X19257356Y-6274144D01*
X19186644Y-6274144D01*
X19186644Y-6344856D01*
X19257356Y-6344856D01*
X19257356Y-6598856D02*
X19257356Y-6528144D01*
X19186644Y-6528144D01*
X19186644Y-6598856D01*
X19257356Y-6598856D01*
X19257356Y-6852856D02*
X19257356Y-6782144D01*
X19186644Y-6782144D01*
X19186644Y-6852856D01*
X19257356Y-6852856D01*
X19257356Y-7106856D02*
X19257356Y-7036144D01*
X19186644Y-7036144D01*
X19186644Y-7106856D01*
X19257356Y-7106856D01*
X19257356Y-7360856D02*
X19257356Y-7290144D01*
X19186644Y-7290144D01*
X19186644Y-7360856D01*
X19257356Y-7360856D01*
X19257356Y-7614856D02*
X19257356Y-7544144D01*
X19186644Y-7544144D01*
X19186644Y-7614856D01*
X19257356Y-7614856D01*
X19257356Y-7868856D02*
X19257356Y-7798144D01*
X19186644Y-7798144D01*
X19186644Y-7868856D01*
X19257356Y-7868856D01*
X19257356Y-8122856D02*
X19257356Y-8052144D01*
X19186644Y-8052144D01*
X19186644Y-8122856D01*
X19257356Y-8122856D01*
X19257356Y-8376856D02*
X19257356Y-8306144D01*
X19186644Y-8306144D01*
X19186644Y-8376856D01*
X19257356Y-8376856D01*
X19257356Y-8630856D02*
X19257356Y-8560144D01*
X19186644Y-8560144D01*
X19186644Y-8630856D01*
X19257356Y-8630856D01*
X19257356Y-8884856D02*
X19257356Y-8814144D01*
X19186644Y-8814144D01*
X19186644Y-8884856D01*
X19257356Y-8884856D01*
X19257356Y-9138856D02*
X19257356Y-9068144D01*
X19186644Y-9068144D01*
X19186644Y-9138856D01*
X19257356Y-9138856D01*
X19257356Y-9392856D02*
X19257356Y-9322144D01*
X19186644Y-9322144D01*
X19186644Y-9392856D01*
X19257356Y-9392856D01*
X19257356Y-9646856D02*
X19257356Y-9576144D01*
X19186644Y-9576144D01*
X19186644Y-9646856D01*
X19257356Y-9646856D01*
X19257356Y-9900856D02*
X19257356Y-9830144D01*
X19186644Y-9830144D01*
X19186644Y-9900856D01*
X19257356Y-9900856D01*
X19257356Y-10154856D02*
X19257356Y-10084144D01*
X19186644Y-10084144D01*
X19186644Y-10154856D01*
X19257356Y-10154856D01*
X19257356Y-10408856D02*
X19257356Y-10338144D01*
X19186644Y-10338144D01*
X19186644Y-10408856D01*
X19257356Y-10408856D01*
X19257356Y-10662856D02*
X19257356Y-10592144D01*
X19186644Y-10592144D01*
X19186644Y-10662856D01*
X19257356Y-10662856D01*
X19257356Y-10916856D02*
X19257356Y-10846144D01*
X19186644Y-10846144D01*
X19186644Y-10916856D01*
X19257356Y-10916856D01*
X19257356Y-11170856D02*
X19257356Y-11100144D01*
X19186644Y-11100144D01*
X19186644Y-11170856D01*
X19257356Y-11170856D01*
X18719234Y-11660400D02*
X18794234Y-11585400D01*
X18719234Y-11510400D01*
X18644234Y-11585400D01*
X18719234Y-11660400D01*
X18719234Y-12360400D02*
X18794234Y-12285400D01*
X18719234Y-12210400D01*
X18644234Y-12285400D01*
X18719234Y-12360400D01*
X19263234Y-11660400D02*
X19338234Y-11585400D01*
X19263234Y-11510400D01*
X19188234Y-11585400D01*
X19263234Y-11660400D01*
X19263234Y-12360400D02*
X19338234Y-12285400D01*
X19263234Y-12210400D01*
X19188234Y-12285400D01*
X19263234Y-12360400D01*
D12*
X16865928Y-12936110D02*
X16865928Y-12636110D01*
X16937357Y-12636110D01*
X16980214Y-12650396D01*
X17008786Y-12678967D01*
X17023071Y-12707539D01*
X17037357Y-12764681D01*
X17037357Y-12807539D01*
X17023071Y-12864681D01*
X17008786Y-12893253D01*
X16980214Y-12921824D01*
X16937357Y-12936110D01*
X16865928Y-12936110D01*
X17165928Y-12936110D02*
X17165928Y-12736110D01*
X17165928Y-12793253D02*
X17180214Y-12764681D01*
X17194500Y-12750396D01*
X17223071Y-12736110D01*
X17251643Y-12736110D01*
X17351643Y-12936110D02*
X17351643Y-12736110D01*
X17351643Y-12636110D02*
X17337357Y-12650396D01*
X17351643Y-12664681D01*
X17365928Y-12650396D01*
X17351643Y-12636110D01*
X17351643Y-12664681D01*
X17537357Y-12936110D02*
X17508786Y-12921824D01*
X17494500Y-12893253D01*
X17494500Y-12636110D01*
X17694500Y-12936110D02*
X17665928Y-12921824D01*
X17651643Y-12893253D01*
X17651643Y-12636110D01*
X18037357Y-12936110D02*
X18037357Y-12636110D01*
X18137357Y-12850396D01*
X18237357Y-12636110D01*
X18237357Y-12936110D01*
X18508786Y-12936110D02*
X18508786Y-12778967D01*
X18494500Y-12750396D01*
X18465928Y-12736110D01*
X18408786Y-12736110D01*
X18380214Y-12750396D01*
X18508786Y-12921824D02*
X18480214Y-12936110D01*
X18408786Y-12936110D01*
X18380214Y-12921824D01*
X18365928Y-12893253D01*
X18365928Y-12864681D01*
X18380214Y-12836110D01*
X18408786Y-12821824D01*
X18480214Y-12821824D01*
X18508786Y-12807539D01*
X18651643Y-12736110D02*
X18651643Y-13036110D01*
X18651643Y-12750396D02*
X18680214Y-12736110D01*
X18737357Y-12736110D01*
X18765928Y-12750396D01*
X18780214Y-12764681D01*
X18794500Y-12793253D01*
X18794500Y-12878967D01*
X18780214Y-12907539D01*
X18765928Y-12921824D01*
X18737357Y-12936110D01*
X18680214Y-12936110D01*
X18651643Y-12921824D01*
X18923071Y-12907539D02*
X18937357Y-12921824D01*
X18923071Y-12936110D01*
X18908786Y-12921824D01*
X18923071Y-12907539D01*
X18923071Y-12936110D01*
X18923071Y-12750396D02*
X18937357Y-12764681D01*
X18923071Y-12778967D01*
X18908786Y-12764681D01*
X18923071Y-12750396D01*
X18923071Y-12778967D01*
X16539500Y-13410396D02*
X16579500Y-13450396D01*
X16579500Y-13410396D02*
X16539500Y-13450396D01*
X16923071Y-13266110D02*
X16951643Y-13266110D01*
X16980214Y-13280396D01*
X16994500Y-13294681D01*
X17008786Y-13323253D01*
X17023071Y-13380396D01*
X17023071Y-13451824D01*
X17008786Y-13508967D01*
X16994500Y-13537539D01*
X16980214Y-13551824D01*
X16951643Y-13566110D01*
X16923071Y-13566110D01*
X16894500Y-13551824D01*
X16880214Y-13537539D01*
X16865928Y-13508967D01*
X16851643Y-13451824D01*
X16851643Y-13380396D01*
X16865928Y-13323253D01*
X16880214Y-13294681D01*
X16894500Y-13280396D01*
X16923071Y-13266110D01*
X17151643Y-13537539D02*
X17165928Y-13551824D01*
X17151643Y-13566110D01*
X17137357Y-13551824D01*
X17151643Y-13537539D01*
X17151643Y-13566110D01*
X17423071Y-13366110D02*
X17423071Y-13566110D01*
X17351643Y-13251824D02*
X17280214Y-13466110D01*
X17465928Y-13466110D01*
X17637357Y-13266110D02*
X17665928Y-13266110D01*
X17694500Y-13280396D01*
X17708786Y-13294681D01*
X17723071Y-13323253D01*
X17737357Y-13380396D01*
X17737357Y-13451824D01*
X17723071Y-13508967D01*
X17708786Y-13537539D01*
X17694500Y-13551824D01*
X17665928Y-13566110D01*
X17637357Y-13566110D01*
X17608786Y-13551824D01*
X17594500Y-13537539D01*
X17580214Y-13508967D01*
X17565928Y-13451824D01*
X17565928Y-13380396D01*
X17580214Y-13323253D01*
X17594500Y-13294681D01*
X17608786Y-13280396D01*
X17637357Y-13266110D01*
X17923071Y-13266110D02*
X17951643Y-13266110D01*
X17980214Y-13280396D01*
X17994500Y-13294681D01*
X18008786Y-13323253D01*
X18023071Y-13380396D01*
X18023071Y-13451824D01*
X18008786Y-13508967D01*
X17994500Y-13537539D01*
X17980214Y-13551824D01*
X17951643Y-13566110D01*
X17923071Y-13566110D01*
X17894500Y-13551824D01*
X17880214Y-13537539D01*
X17865928Y-13508967D01*
X17851643Y-13451824D01*
X17851643Y-13380396D01*
X17865928Y-13323253D01*
X17880214Y-13294681D01*
X17894500Y-13280396D01*
X17923071Y-13266110D01*
X18151643Y-13566110D02*
X18151643Y-13366110D01*
X18151643Y-13394681D02*
X18165928Y-13380396D01*
X18194500Y-13366110D01*
X18237357Y-13366110D01*
X18265928Y-13380396D01*
X18280214Y-13408967D01*
X18280214Y-13566110D01*
X18280214Y-13408967D02*
X18294500Y-13380396D01*
X18323071Y-13366110D01*
X18365928Y-13366110D01*
X18394500Y-13380396D01*
X18408786Y-13408967D01*
X18408786Y-13566110D01*
X18551643Y-13566110D02*
X18551643Y-13366110D01*
X18551643Y-13394681D02*
X18565928Y-13380396D01*
X18594500Y-13366110D01*
X18637357Y-13366110D01*
X18665928Y-13380396D01*
X18680214Y-13408967D01*
X18680214Y-13566110D01*
X18680214Y-13408967D02*
X18694500Y-13380396D01*
X18723071Y-13366110D01*
X18765928Y-13366110D01*
X18794500Y-13380396D01*
X18808786Y-13408967D01*
X18808786Y-13566110D01*
X19394500Y-13251824D02*
X19137357Y-13637539D01*
X19780214Y-13266110D02*
X19808786Y-13266110D01*
X19837357Y-13280396D01*
X19851643Y-13294681D01*
X19865928Y-13323253D01*
X19880214Y-13380396D01*
X19880214Y-13451824D01*
X19865928Y-13508967D01*
X19851643Y-13537539D01*
X19837357Y-13551824D01*
X19808786Y-13566110D01*
X19780214Y-13566110D01*
X19751643Y-13551824D01*
X19737357Y-13537539D01*
X19723071Y-13508967D01*
X19708786Y-13451824D01*
X19708786Y-13380396D01*
X19723071Y-13323253D01*
X19737357Y-13294681D01*
X19751643Y-13280396D01*
X19780214Y-13266110D01*
X20008786Y-13537539D02*
X20023071Y-13551824D01*
X20008786Y-13566110D01*
X19994500Y-13551824D01*
X20008786Y-13537539D01*
X20008786Y-13566110D01*
X20208786Y-13266110D02*
X20237357Y-13266110D01*
X20265928Y-13280396D01*
X20280214Y-13294681D01*
X20294500Y-13323253D01*
X20308786Y-13380396D01*
X20308786Y-13451824D01*
X20294500Y-13508967D01*
X20280214Y-13537539D01*
X20265928Y-13551824D01*
X20237357Y-13566110D01*
X20208786Y-13566110D01*
X20180214Y-13551824D01*
X20165928Y-13537539D01*
X20151643Y-13508967D01*
X20137357Y-13451824D01*
X20137357Y-13380396D01*
X20151643Y-13323253D01*
X20165928Y-13294681D01*
X20180214Y-13280396D01*
X20208786Y-13266110D01*
X20594500Y-13566110D02*
X20423071Y-13566110D01*
X20508786Y-13566110D02*
X20508786Y-13266110D01*
X20480214Y-13308967D01*
X20451643Y-13337539D01*
X20423071Y-13351824D01*
X20865928Y-13266110D02*
X20723071Y-13266110D01*
X20708786Y-13408967D01*
X20723071Y-13394681D01*
X20751643Y-13380396D01*
X20823071Y-13380396D01*
X20851643Y-13394681D01*
X20865928Y-13408967D01*
X20880214Y-13437539D01*
X20880214Y-13508967D01*
X20865928Y-13537539D01*
X20851643Y-13551824D01*
X20823071Y-13566110D01*
X20751643Y-13566110D01*
X20723071Y-13551824D01*
X20708786Y-13537539D01*
X20980214Y-13266110D02*
X21180214Y-13266110D01*
X21051643Y-13566110D01*
X21280214Y-13266110D02*
X21280214Y-13323253D01*
X21394500Y-13266110D02*
X21394500Y-13323253D01*
X21837357Y-13680396D02*
X21823071Y-13666110D01*
X21794500Y-13623253D01*
X21780214Y-13594681D01*
X21765928Y-13551824D01*
X21751643Y-13480396D01*
X21751643Y-13423253D01*
X21765928Y-13351824D01*
X21780214Y-13308967D01*
X21794500Y-13280396D01*
X21823071Y-13237539D01*
X21837357Y-13223253D01*
X21994500Y-13394681D02*
X21965928Y-13380396D01*
X21951643Y-13366110D01*
X21937357Y-13337539D01*
X21937357Y-13323253D01*
X21951643Y-13294681D01*
X21965928Y-13280396D01*
X21994500Y-13266110D01*
X22051643Y-13266110D01*
X22080214Y-13280396D01*
X22094500Y-13294681D01*
X22108786Y-13323253D01*
X22108786Y-13337539D01*
X22094500Y-13366110D01*
X22080214Y-13380396D01*
X22051643Y-13394681D01*
X21994500Y-13394681D01*
X21965928Y-13408967D01*
X21951643Y-13423253D01*
X21937357Y-13451824D01*
X21937357Y-13508967D01*
X21951643Y-13537539D01*
X21965928Y-13551824D01*
X21994500Y-13566110D01*
X22051643Y-13566110D01*
X22080214Y-13551824D01*
X22094500Y-13537539D01*
X22108786Y-13508967D01*
X22108786Y-13451824D01*
X22094500Y-13423253D01*
X22080214Y-13408967D01*
X22051643Y-13394681D01*
X22251643Y-13566110D02*
X22308786Y-13566110D01*
X22337357Y-13551824D01*
X22351643Y-13537539D01*
X22380214Y-13494681D01*
X22394500Y-13437539D01*
X22394500Y-13323253D01*
X22380214Y-13294681D01*
X22365928Y-13280396D01*
X22337357Y-13266110D01*
X22280214Y-13266110D01*
X22251643Y-13280396D01*
X22237357Y-13294681D01*
X22223071Y-13323253D01*
X22223071Y-13394681D01*
X22237357Y-13423253D01*
X22251643Y-13437539D01*
X22280214Y-13451824D01*
X22337357Y-13451824D01*
X22365928Y-13437539D01*
X22380214Y-13423253D01*
X22394500Y-13394681D01*
X22751643Y-13566110D02*
X22751643Y-13266110D01*
X22880214Y-13566110D02*
X22880214Y-13408967D01*
X22865928Y-13380396D01*
X22837357Y-13366110D01*
X22794500Y-13366110D01*
X22765928Y-13380396D01*
X22751643Y-13394681D01*
X23065928Y-13566110D02*
X23037357Y-13551824D01*
X23023071Y-13537539D01*
X23008786Y-13508967D01*
X23008786Y-13423253D01*
X23023071Y-13394681D01*
X23037357Y-13380396D01*
X23065928Y-13366110D01*
X23108786Y-13366110D01*
X23137357Y-13380396D01*
X23151643Y-13394681D01*
X23165928Y-13423253D01*
X23165928Y-13508967D01*
X23151643Y-13537539D01*
X23137357Y-13551824D01*
X23108786Y-13566110D01*
X23065928Y-13566110D01*
X23337357Y-13566110D02*
X23308786Y-13551824D01*
X23294500Y-13523253D01*
X23294500Y-13266110D01*
X23565928Y-13551824D02*
X23537357Y-13566110D01*
X23480214Y-13566110D01*
X23451643Y-13551824D01*
X23437357Y-13523253D01*
X23437357Y-13408967D01*
X23451643Y-13380396D01*
X23480214Y-13366110D01*
X23537357Y-13366110D01*
X23565928Y-13380396D01*
X23580214Y-13408967D01*
X23580214Y-13437539D01*
X23437357Y-13466110D01*
X23694500Y-13551824D02*
X23723071Y-13566110D01*
X23780214Y-13566110D01*
X23808786Y-13551824D01*
X23823071Y-13523253D01*
X23823071Y-13508967D01*
X23808786Y-13480396D01*
X23780214Y-13466110D01*
X23737357Y-13466110D01*
X23708786Y-13451824D01*
X23694500Y-13423253D01*
X23694500Y-13408967D01*
X23708786Y-13380396D01*
X23737357Y-13366110D01*
X23780214Y-13366110D01*
X23808786Y-13380396D01*
X23923071Y-13680396D02*
X23937357Y-13666110D01*
X23965928Y-13623253D01*
X23980214Y-13594681D01*
X23994500Y-13551824D01*
X24008786Y-13480396D01*
X24008786Y-13423253D01*
X23994500Y-13351824D01*
X23980214Y-13308967D01*
X23965928Y-13280396D01*
X23937357Y-13237539D01*
X23923071Y-13223253D01*
X16579500Y-13826396D02*
G75*
G03*
X16579500Y-13826396I-32500J0D01*
G01*
X16923071Y-13662110D02*
X16951643Y-13662110D01*
X16980214Y-13676396D01*
X16994500Y-13690681D01*
X17008786Y-13719253D01*
X17023071Y-13776396D01*
X17023071Y-13847824D01*
X17008786Y-13904967D01*
X16994500Y-13933539D01*
X16980214Y-13947824D01*
X16951643Y-13962110D01*
X16923071Y-13962110D01*
X16894500Y-13947824D01*
X16880214Y-13933539D01*
X16865928Y-13904967D01*
X16851643Y-13847824D01*
X16851643Y-13776396D01*
X16865928Y-13719253D01*
X16880214Y-13690681D01*
X16894500Y-13676396D01*
X16923071Y-13662110D01*
X17151643Y-13933539D02*
X17165928Y-13947824D01*
X17151643Y-13962110D01*
X17137357Y-13947824D01*
X17151643Y-13933539D01*
X17151643Y-13962110D01*
X17423071Y-13662110D02*
X17365928Y-13662110D01*
X17337357Y-13676396D01*
X17323071Y-13690681D01*
X17294500Y-13733539D01*
X17280214Y-13790681D01*
X17280214Y-13904967D01*
X17294500Y-13933539D01*
X17308786Y-13947824D01*
X17337357Y-13962110D01*
X17394500Y-13962110D01*
X17423071Y-13947824D01*
X17437357Y-13933539D01*
X17451643Y-13904967D01*
X17451643Y-13833539D01*
X17437357Y-13804967D01*
X17423071Y-13790681D01*
X17394500Y-13776396D01*
X17337357Y-13776396D01*
X17308786Y-13790681D01*
X17294500Y-13804967D01*
X17280214Y-13833539D01*
X17723071Y-13662110D02*
X17580214Y-13662110D01*
X17565928Y-13804967D01*
X17580214Y-13790681D01*
X17608786Y-13776396D01*
X17680214Y-13776396D01*
X17708786Y-13790681D01*
X17723071Y-13804967D01*
X17737357Y-13833539D01*
X17737357Y-13904967D01*
X17723071Y-13933539D01*
X17708786Y-13947824D01*
X17680214Y-13962110D01*
X17608786Y-13962110D01*
X17580214Y-13947824D01*
X17565928Y-13933539D01*
X17923071Y-13662110D02*
X17951643Y-13662110D01*
X17980214Y-13676396D01*
X17994500Y-13690681D01*
X18008786Y-13719253D01*
X18023071Y-13776396D01*
X18023071Y-13847824D01*
X18008786Y-13904967D01*
X17994500Y-13933539D01*
X17980214Y-13947824D01*
X17951643Y-13962110D01*
X17923071Y-13962110D01*
X17894500Y-13947824D01*
X17880214Y-13933539D01*
X17865928Y-13904967D01*
X17851643Y-13847824D01*
X17851643Y-13776396D01*
X17865928Y-13719253D01*
X17880214Y-13690681D01*
X17894500Y-13676396D01*
X17923071Y-13662110D01*
X18151643Y-13962110D02*
X18151643Y-13762110D01*
X18151643Y-13790681D02*
X18165928Y-13776396D01*
X18194500Y-13762110D01*
X18237357Y-13762110D01*
X18265928Y-13776396D01*
X18280214Y-13804967D01*
X18280214Y-13962110D01*
X18280214Y-13804967D02*
X18294500Y-13776396D01*
X18323071Y-13762110D01*
X18365928Y-13762110D01*
X18394500Y-13776396D01*
X18408786Y-13804967D01*
X18408786Y-13962110D01*
X18551643Y-13962110D02*
X18551643Y-13762110D01*
X18551643Y-13790681D02*
X18565928Y-13776396D01*
X18594500Y-13762110D01*
X18637357Y-13762110D01*
X18665928Y-13776396D01*
X18680214Y-13804967D01*
X18680214Y-13962110D01*
X18680214Y-13804967D02*
X18694500Y-13776396D01*
X18723071Y-13762110D01*
X18765928Y-13762110D01*
X18794500Y-13776396D01*
X18808786Y-13804967D01*
X18808786Y-13962110D01*
X19394500Y-13647824D02*
X19137357Y-14033539D01*
X19780214Y-13662110D02*
X19808786Y-13662110D01*
X19837357Y-13676396D01*
X19851643Y-13690681D01*
X19865928Y-13719253D01*
X19880214Y-13776396D01*
X19880214Y-13847824D01*
X19865928Y-13904967D01*
X19851643Y-13933539D01*
X19837357Y-13947824D01*
X19808786Y-13962110D01*
X19780214Y-13962110D01*
X19751643Y-13947824D01*
X19737357Y-13933539D01*
X19723071Y-13904967D01*
X19708786Y-13847824D01*
X19708786Y-13776396D01*
X19723071Y-13719253D01*
X19737357Y-13690681D01*
X19751643Y-13676396D01*
X19780214Y-13662110D01*
X20008786Y-13933539D02*
X20023071Y-13947824D01*
X20008786Y-13962110D01*
X19994500Y-13947824D01*
X20008786Y-13933539D01*
X20008786Y-13962110D01*
X20208786Y-13662110D02*
X20237357Y-13662110D01*
X20265928Y-13676396D01*
X20280214Y-13690681D01*
X20294500Y-13719253D01*
X20308786Y-13776396D01*
X20308786Y-13847824D01*
X20294500Y-13904967D01*
X20280214Y-13933539D01*
X20265928Y-13947824D01*
X20237357Y-13962110D01*
X20208786Y-13962110D01*
X20180214Y-13947824D01*
X20165928Y-13933539D01*
X20151643Y-13904967D01*
X20137357Y-13847824D01*
X20137357Y-13776396D01*
X20151643Y-13719253D01*
X20165928Y-13690681D01*
X20180214Y-13676396D01*
X20208786Y-13662110D01*
X20423071Y-13690681D02*
X20437357Y-13676396D01*
X20465928Y-13662110D01*
X20537357Y-13662110D01*
X20565928Y-13676396D01*
X20580214Y-13690681D01*
X20594500Y-13719253D01*
X20594500Y-13747824D01*
X20580214Y-13790681D01*
X20408786Y-13962110D01*
X20594500Y-13962110D01*
X20865928Y-13662110D02*
X20723071Y-13662110D01*
X20708786Y-13804967D01*
X20723071Y-13790681D01*
X20751643Y-13776396D01*
X20823071Y-13776396D01*
X20851643Y-13790681D01*
X20865928Y-13804967D01*
X20880214Y-13833539D01*
X20880214Y-13904967D01*
X20865928Y-13933539D01*
X20851643Y-13947824D01*
X20823071Y-13962110D01*
X20751643Y-13962110D01*
X20723071Y-13947824D01*
X20708786Y-13933539D01*
X21137357Y-13662110D02*
X21080214Y-13662110D01*
X21051643Y-13676396D01*
X21037357Y-13690681D01*
X21008786Y-13733539D01*
X20994500Y-13790681D01*
X20994500Y-13904967D01*
X21008786Y-13933539D01*
X21023071Y-13947824D01*
X21051643Y-13962110D01*
X21108786Y-13962110D01*
X21137357Y-13947824D01*
X21151643Y-13933539D01*
X21165928Y-13904967D01*
X21165928Y-13833539D01*
X21151643Y-13804967D01*
X21137357Y-13790681D01*
X21108786Y-13776396D01*
X21051643Y-13776396D01*
X21023071Y-13790681D01*
X21008786Y-13804967D01*
X20994500Y-13833539D01*
X21280214Y-13662110D02*
X21280214Y-13719253D01*
X21394500Y-13662110D02*
X21394500Y-13719253D01*
X21837357Y-14076396D02*
X21823071Y-14062110D01*
X21794500Y-14019253D01*
X21780214Y-13990681D01*
X21765928Y-13947824D01*
X21751643Y-13876396D01*
X21751643Y-13819253D01*
X21765928Y-13747824D01*
X21780214Y-13704967D01*
X21794500Y-13676396D01*
X21823071Y-13633539D01*
X21837357Y-13619253D01*
X22008786Y-13662110D02*
X22037357Y-13662110D01*
X22065928Y-13676396D01*
X22080214Y-13690681D01*
X22094500Y-13719253D01*
X22108786Y-13776396D01*
X22108786Y-13847824D01*
X22094500Y-13904967D01*
X22080214Y-13933539D01*
X22065928Y-13947824D01*
X22037357Y-13962110D01*
X22008786Y-13962110D01*
X21980214Y-13947824D01*
X21965928Y-13933539D01*
X21951643Y-13904967D01*
X21937357Y-13847824D01*
X21937357Y-13776396D01*
X21951643Y-13719253D01*
X21965928Y-13690681D01*
X21980214Y-13676396D01*
X22008786Y-13662110D01*
X22465928Y-13962110D02*
X22465928Y-13662110D01*
X22594500Y-13962110D02*
X22594500Y-13804967D01*
X22580214Y-13776396D01*
X22551643Y-13762110D01*
X22508786Y-13762110D01*
X22480214Y-13776396D01*
X22465928Y-13790681D01*
X22780214Y-13962110D02*
X22751643Y-13947824D01*
X22737357Y-13933539D01*
X22723071Y-13904967D01*
X22723071Y-13819253D01*
X22737357Y-13790681D01*
X22751643Y-13776396D01*
X22780214Y-13762110D01*
X22823071Y-13762110D01*
X22851643Y-13776396D01*
X22865928Y-13790681D01*
X22880214Y-13819253D01*
X22880214Y-13904967D01*
X22865928Y-13933539D01*
X22851643Y-13947824D01*
X22823071Y-13962110D01*
X22780214Y-13962110D01*
X23051643Y-13962110D02*
X23023071Y-13947824D01*
X23008786Y-13919253D01*
X23008786Y-13662110D01*
X23280214Y-13947824D02*
X23251643Y-13962110D01*
X23194500Y-13962110D01*
X23165928Y-13947824D01*
X23151643Y-13919253D01*
X23151643Y-13804967D01*
X23165928Y-13776396D01*
X23194500Y-13762110D01*
X23251643Y-13762110D01*
X23280214Y-13776396D01*
X23294500Y-13804967D01*
X23294500Y-13833539D01*
X23151643Y-13862110D01*
X23408786Y-13947824D02*
X23437357Y-13962110D01*
X23494500Y-13962110D01*
X23523071Y-13947824D01*
X23537357Y-13919253D01*
X23537357Y-13904967D01*
X23523071Y-13876396D01*
X23494500Y-13862110D01*
X23451643Y-13862110D01*
X23423071Y-13847824D01*
X23408786Y-13819253D01*
X23408786Y-13804967D01*
X23423071Y-13776396D01*
X23451643Y-13762110D01*
X23494500Y-13762110D01*
X23523071Y-13776396D01*
X23894500Y-13847824D02*
X24123071Y-13847824D01*
X24008786Y-13962110D02*
X24008786Y-13733539D01*
X24623071Y-13762110D02*
X24623071Y-13962110D01*
X24551643Y-13647824D02*
X24480214Y-13862110D01*
X24665928Y-13862110D01*
X24994500Y-13947824D02*
X25023071Y-13962110D01*
X25080214Y-13962110D01*
X25108786Y-13947824D01*
X25123071Y-13919253D01*
X25123071Y-13904967D01*
X25108786Y-13876396D01*
X25080214Y-13862110D01*
X25037357Y-13862110D01*
X25008786Y-13847824D01*
X24994500Y-13819253D01*
X24994500Y-13804967D01*
X25008786Y-13776396D01*
X25037357Y-13762110D01*
X25080214Y-13762110D01*
X25108786Y-13776396D01*
X25294500Y-13962110D02*
X25265928Y-13947824D01*
X25251643Y-13919253D01*
X25251643Y-13662110D01*
X25451643Y-13962110D02*
X25423071Y-13947824D01*
X25408786Y-13933539D01*
X25394500Y-13904967D01*
X25394500Y-13819253D01*
X25408786Y-13790681D01*
X25423071Y-13776396D01*
X25451643Y-13762110D01*
X25494500Y-13762110D01*
X25523071Y-13776396D01*
X25537357Y-13790681D01*
X25551643Y-13819253D01*
X25551643Y-13904967D01*
X25537357Y-13933539D01*
X25523071Y-13947824D01*
X25494500Y-13962110D01*
X25451643Y-13962110D01*
X25637357Y-13762110D02*
X25751643Y-13762110D01*
X25680214Y-13662110D02*
X25680214Y-13919253D01*
X25694500Y-13947824D01*
X25723071Y-13962110D01*
X25751643Y-13962110D01*
X25837357Y-13947824D02*
X25865928Y-13962110D01*
X25923071Y-13962110D01*
X25951643Y-13947824D01*
X25965928Y-13919253D01*
X25965928Y-13904967D01*
X25951643Y-13876396D01*
X25923071Y-13862110D01*
X25880214Y-13862110D01*
X25851643Y-13847824D01*
X25837357Y-13819253D01*
X25837357Y-13804967D01*
X25851643Y-13776396D01*
X25880214Y-13762110D01*
X25923071Y-13762110D01*
X25951643Y-13776396D01*
X26065928Y-14076396D02*
X26080214Y-14062110D01*
X26108786Y-14019253D01*
X26123071Y-13990681D01*
X26137357Y-13947824D01*
X26151643Y-13876396D01*
X26151643Y-13819253D01*
X26137357Y-13747824D01*
X26123071Y-13704967D01*
X26108786Y-13676396D01*
X26080214Y-13633539D01*
X26065928Y-13619253D01*
X16533500Y-14176396D02*
X16533500Y-14268396D01*
X16487500Y-14222396D02*
X16579500Y-14222396D01*
X16923071Y-14058110D02*
X16951643Y-14058110D01*
X16980214Y-14072396D01*
X16994500Y-14086681D01*
X17008786Y-14115253D01*
X17023071Y-14172396D01*
X17023071Y-14243824D01*
X17008786Y-14300967D01*
X16994500Y-14329539D01*
X16980214Y-14343824D01*
X16951643Y-14358110D01*
X16923071Y-14358110D01*
X16894500Y-14343824D01*
X16880214Y-14329539D01*
X16865928Y-14300967D01*
X16851643Y-14243824D01*
X16851643Y-14172396D01*
X16865928Y-14115253D01*
X16880214Y-14086681D01*
X16894500Y-14072396D01*
X16923071Y-14058110D01*
X17151643Y-14329539D02*
X17165928Y-14343824D01*
X17151643Y-14358110D01*
X17137357Y-14343824D01*
X17151643Y-14329539D01*
X17151643Y-14358110D01*
X17308786Y-14358110D02*
X17365928Y-14358110D01*
X17394500Y-14343824D01*
X17408786Y-14329539D01*
X17437357Y-14286681D01*
X17451643Y-14229539D01*
X17451643Y-14115253D01*
X17437357Y-14086681D01*
X17423071Y-14072396D01*
X17394500Y-14058110D01*
X17337357Y-14058110D01*
X17308786Y-14072396D01*
X17294500Y-14086681D01*
X17280214Y-14115253D01*
X17280214Y-14186681D01*
X17294500Y-14215253D01*
X17308786Y-14229539D01*
X17337357Y-14243824D01*
X17394500Y-14243824D01*
X17423071Y-14229539D01*
X17437357Y-14215253D01*
X17451643Y-14186681D01*
X17565928Y-14086681D02*
X17580214Y-14072396D01*
X17608786Y-14058110D01*
X17680214Y-14058110D01*
X17708786Y-14072396D01*
X17723071Y-14086681D01*
X17737357Y-14115253D01*
X17737357Y-14143824D01*
X17723071Y-14186681D01*
X17551643Y-14358110D01*
X17737357Y-14358110D01*
X17923071Y-14058110D02*
X17951643Y-14058110D01*
X17980214Y-14072396D01*
X17994500Y-14086681D01*
X18008786Y-14115253D01*
X18023071Y-14172396D01*
X18023071Y-14243824D01*
X18008786Y-14300967D01*
X17994500Y-14329539D01*
X17980214Y-14343824D01*
X17951643Y-14358110D01*
X17923071Y-14358110D01*
X17894500Y-14343824D01*
X17880214Y-14329539D01*
X17865928Y-14300967D01*
X17851643Y-14243824D01*
X17851643Y-14172396D01*
X17865928Y-14115253D01*
X17880214Y-14086681D01*
X17894500Y-14072396D01*
X17923071Y-14058110D01*
X18151643Y-14358110D02*
X18151643Y-14158110D01*
X18151643Y-14186681D02*
X18165928Y-14172396D01*
X18194500Y-14158110D01*
X18237357Y-14158110D01*
X18265928Y-14172396D01*
X18280214Y-14200967D01*
X18280214Y-14358110D01*
X18280214Y-14200967D02*
X18294500Y-14172396D01*
X18323071Y-14158110D01*
X18365928Y-14158110D01*
X18394500Y-14172396D01*
X18408786Y-14200967D01*
X18408786Y-14358110D01*
X18551643Y-14358110D02*
X18551643Y-14158110D01*
X18551643Y-14186681D02*
X18565928Y-14172396D01*
X18594500Y-14158110D01*
X18637357Y-14158110D01*
X18665928Y-14172396D01*
X18680214Y-14200967D01*
X18680214Y-14358110D01*
X18680214Y-14200967D02*
X18694500Y-14172396D01*
X18723071Y-14158110D01*
X18765928Y-14158110D01*
X18794500Y-14172396D01*
X18808786Y-14200967D01*
X18808786Y-14358110D01*
X19394500Y-14043824D02*
X19137357Y-14429539D01*
X19780214Y-14058110D02*
X19808786Y-14058110D01*
X19837357Y-14072396D01*
X19851643Y-14086681D01*
X19865928Y-14115253D01*
X19880214Y-14172396D01*
X19880214Y-14243824D01*
X19865928Y-14300967D01*
X19851643Y-14329539D01*
X19837357Y-14343824D01*
X19808786Y-14358110D01*
X19780214Y-14358110D01*
X19751643Y-14343824D01*
X19737357Y-14329539D01*
X19723071Y-14300967D01*
X19708786Y-14243824D01*
X19708786Y-14172396D01*
X19723071Y-14115253D01*
X19737357Y-14086681D01*
X19751643Y-14072396D01*
X19780214Y-14058110D01*
X20008786Y-14329539D02*
X20023071Y-14343824D01*
X20008786Y-14358110D01*
X19994500Y-14343824D01*
X20008786Y-14329539D01*
X20008786Y-14358110D01*
X20208786Y-14058110D02*
X20237357Y-14058110D01*
X20265928Y-14072396D01*
X20280214Y-14086681D01*
X20294500Y-14115253D01*
X20308786Y-14172396D01*
X20308786Y-14243824D01*
X20294500Y-14300967D01*
X20280214Y-14329539D01*
X20265928Y-14343824D01*
X20237357Y-14358110D01*
X20208786Y-14358110D01*
X20180214Y-14343824D01*
X20165928Y-14329539D01*
X20151643Y-14300967D01*
X20137357Y-14243824D01*
X20137357Y-14172396D01*
X20151643Y-14115253D01*
X20165928Y-14086681D01*
X20180214Y-14072396D01*
X20208786Y-14058110D01*
X20408786Y-14058110D02*
X20594500Y-14058110D01*
X20494500Y-14172396D01*
X20537357Y-14172396D01*
X20565928Y-14186681D01*
X20580214Y-14200967D01*
X20594500Y-14229539D01*
X20594500Y-14300967D01*
X20580214Y-14329539D01*
X20565928Y-14343824D01*
X20537357Y-14358110D01*
X20451643Y-14358110D01*
X20423071Y-14343824D01*
X20408786Y-14329539D01*
X20851643Y-14058110D02*
X20794500Y-14058110D01*
X20765928Y-14072396D01*
X20751643Y-14086681D01*
X20723071Y-14129539D01*
X20708786Y-14186681D01*
X20708786Y-14300967D01*
X20723071Y-14329539D01*
X20737357Y-14343824D01*
X20765928Y-14358110D01*
X20823071Y-14358110D01*
X20851643Y-14343824D01*
X20865928Y-14329539D01*
X20880214Y-14300967D01*
X20880214Y-14229539D01*
X20865928Y-14200967D01*
X20851643Y-14186681D01*
X20823071Y-14172396D01*
X20765928Y-14172396D01*
X20737357Y-14186681D01*
X20723071Y-14200967D01*
X20708786Y-14229539D01*
X20994500Y-14086681D02*
X21008786Y-14072396D01*
X21037357Y-14058110D01*
X21108786Y-14058110D01*
X21137357Y-14072396D01*
X21151643Y-14086681D01*
X21165928Y-14115253D01*
X21165928Y-14143824D01*
X21151643Y-14186681D01*
X20980214Y-14358110D01*
X21165928Y-14358110D01*
X21280214Y-14058110D02*
X21280214Y-14115253D01*
X21394500Y-14058110D02*
X21394500Y-14115253D01*
X21837357Y-14472396D02*
X21823071Y-14458110D01*
X21794500Y-14415253D01*
X21780214Y-14386681D01*
X21765928Y-14343824D01*
X21751643Y-14272396D01*
X21751643Y-14215253D01*
X21765928Y-14143824D01*
X21780214Y-14100967D01*
X21794500Y-14072396D01*
X21823071Y-14029539D01*
X21837357Y-14015253D01*
X22080214Y-14158110D02*
X22080214Y-14358110D01*
X22008786Y-14043824D02*
X21937357Y-14258110D01*
X22123071Y-14258110D01*
X22465928Y-14358110D02*
X22465928Y-14058110D01*
X22594500Y-14358110D02*
X22594500Y-14200967D01*
X22580214Y-14172396D01*
X22551643Y-14158110D01*
X22508786Y-14158110D01*
X22480214Y-14172396D01*
X22465928Y-14186681D01*
X22780214Y-14358110D02*
X22751643Y-14343824D01*
X22737357Y-14329539D01*
X22723071Y-14300967D01*
X22723071Y-14215253D01*
X22737357Y-14186681D01*
X22751643Y-14172396D01*
X22780214Y-14158110D01*
X22823071Y-14158110D01*
X22851643Y-14172396D01*
X22865928Y-14186681D01*
X22880214Y-14215253D01*
X22880214Y-14300967D01*
X22865928Y-14329539D01*
X22851643Y-14343824D01*
X22823071Y-14358110D01*
X22780214Y-14358110D01*
X23051643Y-14358110D02*
X23023071Y-14343824D01*
X23008786Y-14315253D01*
X23008786Y-14058110D01*
X23280214Y-14343824D02*
X23251643Y-14358110D01*
X23194500Y-14358110D01*
X23165928Y-14343824D01*
X23151643Y-14315253D01*
X23151643Y-14200967D01*
X23165928Y-14172396D01*
X23194500Y-14158110D01*
X23251643Y-14158110D01*
X23280214Y-14172396D01*
X23294500Y-14200967D01*
X23294500Y-14229539D01*
X23151643Y-14258110D01*
X23408786Y-14343824D02*
X23437357Y-14358110D01*
X23494500Y-14358110D01*
X23523071Y-14343824D01*
X23537357Y-14315253D01*
X23537357Y-14300967D01*
X23523071Y-14272396D01*
X23494500Y-14258110D01*
X23451643Y-14258110D01*
X23423071Y-14243824D01*
X23408786Y-14215253D01*
X23408786Y-14200967D01*
X23423071Y-14172396D01*
X23451643Y-14158110D01*
X23494500Y-14158110D01*
X23523071Y-14172396D01*
X23637357Y-14472396D02*
X23651643Y-14458110D01*
X23680214Y-14415253D01*
X23694500Y-14386681D01*
X23708786Y-14343824D01*
X23723071Y-14272396D01*
X23723071Y-14215253D01*
X23708786Y-14143824D01*
X23694500Y-14100967D01*
X23680214Y-14072396D01*
X23651643Y-14029539D01*
X23637357Y-14015253D01*
X16564856Y-14653751D02*
X16564856Y-14583040D01*
X16494144Y-14583040D01*
X16494144Y-14653751D01*
X16564856Y-14653751D01*
X17023071Y-14754110D02*
X16851643Y-14754110D01*
X16937357Y-14754110D02*
X16937357Y-14454110D01*
X16908786Y-14496967D01*
X16880214Y-14525539D01*
X16851643Y-14539824D01*
X17151643Y-14725539D02*
X17165928Y-14739824D01*
X17151643Y-14754110D01*
X17137357Y-14739824D01*
X17151643Y-14725539D01*
X17151643Y-14754110D01*
X17351643Y-14454110D02*
X17380214Y-14454110D01*
X17408786Y-14468396D01*
X17423071Y-14482681D01*
X17437357Y-14511253D01*
X17451643Y-14568396D01*
X17451643Y-14639824D01*
X17437357Y-14696967D01*
X17423071Y-14725539D01*
X17408786Y-14739824D01*
X17380214Y-14754110D01*
X17351643Y-14754110D01*
X17323071Y-14739824D01*
X17308786Y-14725539D01*
X17294500Y-14696967D01*
X17280214Y-14639824D01*
X17280214Y-14568396D01*
X17294500Y-14511253D01*
X17308786Y-14482681D01*
X17323071Y-14468396D01*
X17351643Y-14454110D01*
X17637357Y-14454110D02*
X17665928Y-14454110D01*
X17694500Y-14468396D01*
X17708786Y-14482681D01*
X17723071Y-14511253D01*
X17737357Y-14568396D01*
X17737357Y-14639824D01*
X17723071Y-14696967D01*
X17708786Y-14725539D01*
X17694500Y-14739824D01*
X17665928Y-14754110D01*
X17637357Y-14754110D01*
X17608786Y-14739824D01*
X17594500Y-14725539D01*
X17580214Y-14696967D01*
X17565928Y-14639824D01*
X17565928Y-14568396D01*
X17580214Y-14511253D01*
X17594500Y-14482681D01*
X17608786Y-14468396D01*
X17637357Y-14454110D01*
X17923071Y-14454110D02*
X17951643Y-14454110D01*
X17980214Y-14468396D01*
X17994500Y-14482681D01*
X18008786Y-14511253D01*
X18023071Y-14568396D01*
X18023071Y-14639824D01*
X18008786Y-14696967D01*
X17994500Y-14725539D01*
X17980214Y-14739824D01*
X17951643Y-14754110D01*
X17923071Y-14754110D01*
X17894500Y-14739824D01*
X17880214Y-14725539D01*
X17865928Y-14696967D01*
X17851643Y-14639824D01*
X17851643Y-14568396D01*
X17865928Y-14511253D01*
X17880214Y-14482681D01*
X17894500Y-14468396D01*
X17923071Y-14454110D01*
X18151643Y-14754110D02*
X18151643Y-14554110D01*
X18151643Y-14582681D02*
X18165928Y-14568396D01*
X18194500Y-14554110D01*
X18237357Y-14554110D01*
X18265928Y-14568396D01*
X18280214Y-14596967D01*
X18280214Y-14754110D01*
X18280214Y-14596967D02*
X18294500Y-14568396D01*
X18323071Y-14554110D01*
X18365928Y-14554110D01*
X18394500Y-14568396D01*
X18408786Y-14596967D01*
X18408786Y-14754110D01*
X18551643Y-14754110D02*
X18551643Y-14554110D01*
X18551643Y-14582681D02*
X18565928Y-14568396D01*
X18594500Y-14554110D01*
X18637357Y-14554110D01*
X18665928Y-14568396D01*
X18680214Y-14596967D01*
X18680214Y-14754110D01*
X18680214Y-14596967D02*
X18694500Y-14568396D01*
X18723071Y-14554110D01*
X18765928Y-14554110D01*
X18794500Y-14568396D01*
X18808786Y-14596967D01*
X18808786Y-14754110D01*
X19394500Y-14439824D02*
X19137357Y-14825539D01*
X19780214Y-14454110D02*
X19808786Y-14454110D01*
X19837357Y-14468396D01*
X19851643Y-14482681D01*
X19865928Y-14511253D01*
X19880214Y-14568396D01*
X19880214Y-14639824D01*
X19865928Y-14696967D01*
X19851643Y-14725539D01*
X19837357Y-14739824D01*
X19808786Y-14754110D01*
X19780214Y-14754110D01*
X19751643Y-14739824D01*
X19737357Y-14725539D01*
X19723071Y-14696967D01*
X19708786Y-14639824D01*
X19708786Y-14568396D01*
X19723071Y-14511253D01*
X19737357Y-14482681D01*
X19751643Y-14468396D01*
X19780214Y-14454110D01*
X20008786Y-14725539D02*
X20023071Y-14739824D01*
X20008786Y-14754110D01*
X19994500Y-14739824D01*
X20008786Y-14725539D01*
X20008786Y-14754110D01*
X20208786Y-14454110D02*
X20237357Y-14454110D01*
X20265928Y-14468396D01*
X20280214Y-14482681D01*
X20294500Y-14511253D01*
X20308786Y-14568396D01*
X20308786Y-14639824D01*
X20294500Y-14696967D01*
X20280214Y-14725539D01*
X20265928Y-14739824D01*
X20237357Y-14754110D01*
X20208786Y-14754110D01*
X20180214Y-14739824D01*
X20165928Y-14725539D01*
X20151643Y-14696967D01*
X20137357Y-14639824D01*
X20137357Y-14568396D01*
X20151643Y-14511253D01*
X20165928Y-14482681D01*
X20180214Y-14468396D01*
X20208786Y-14454110D01*
X20408786Y-14454110D02*
X20594500Y-14454110D01*
X20494500Y-14568396D01*
X20537357Y-14568396D01*
X20565928Y-14582681D01*
X20580214Y-14596967D01*
X20594500Y-14625539D01*
X20594500Y-14696967D01*
X20580214Y-14725539D01*
X20565928Y-14739824D01*
X20537357Y-14754110D01*
X20451643Y-14754110D01*
X20423071Y-14739824D01*
X20408786Y-14725539D01*
X20737357Y-14754110D02*
X20794500Y-14754110D01*
X20823071Y-14739824D01*
X20837357Y-14725539D01*
X20865928Y-14682681D01*
X20880214Y-14625539D01*
X20880214Y-14511253D01*
X20865928Y-14482681D01*
X20851643Y-14468396D01*
X20823071Y-14454110D01*
X20765928Y-14454110D01*
X20737357Y-14468396D01*
X20723071Y-14482681D01*
X20708786Y-14511253D01*
X20708786Y-14582681D01*
X20723071Y-14611253D01*
X20737357Y-14625539D01*
X20765928Y-14639824D01*
X20823071Y-14639824D01*
X20851643Y-14625539D01*
X20865928Y-14611253D01*
X20880214Y-14582681D01*
X21137357Y-14554110D02*
X21137357Y-14754110D01*
X21065928Y-14439824D02*
X20994500Y-14654110D01*
X21180214Y-14654110D01*
X21280214Y-14454110D02*
X21280214Y-14511253D01*
X21394500Y-14454110D02*
X21394500Y-14511253D01*
X21837357Y-14868396D02*
X21823071Y-14854110D01*
X21794500Y-14811253D01*
X21780214Y-14782681D01*
X21765928Y-14739824D01*
X21751643Y-14668396D01*
X21751643Y-14611253D01*
X21765928Y-14539824D01*
X21780214Y-14496967D01*
X21794500Y-14468396D01*
X21823071Y-14425539D01*
X21837357Y-14411253D01*
X22080214Y-14554110D02*
X22080214Y-14754110D01*
X22008786Y-14439824D02*
X21937357Y-14654110D01*
X22123071Y-14654110D01*
X22294500Y-14454110D02*
X22323071Y-14454110D01*
X22351643Y-14468396D01*
X22365928Y-14482681D01*
X22380214Y-14511253D01*
X22394500Y-14568396D01*
X22394500Y-14639824D01*
X22380214Y-14696967D01*
X22365928Y-14725539D01*
X22351643Y-14739824D01*
X22323071Y-14754110D01*
X22294500Y-14754110D01*
X22265928Y-14739824D01*
X22251643Y-14725539D01*
X22237357Y-14696967D01*
X22223071Y-14639824D01*
X22223071Y-14568396D01*
X22237357Y-14511253D01*
X22251643Y-14482681D01*
X22265928Y-14468396D01*
X22294500Y-14454110D01*
X22751643Y-14754110D02*
X22751643Y-14454110D01*
X22880214Y-14754110D02*
X22880214Y-14596967D01*
X22865928Y-14568396D01*
X22837357Y-14554110D01*
X22794500Y-14554110D01*
X22765928Y-14568396D01*
X22751643Y-14582681D01*
X23065928Y-14754110D02*
X23037357Y-14739824D01*
X23023071Y-14725539D01*
X23008786Y-14696967D01*
X23008786Y-14611253D01*
X23023071Y-14582681D01*
X23037357Y-14568396D01*
X23065928Y-14554110D01*
X23108786Y-14554110D01*
X23137357Y-14568396D01*
X23151643Y-14582681D01*
X23165928Y-14611253D01*
X23165928Y-14696967D01*
X23151643Y-14725539D01*
X23137357Y-14739824D01*
X23108786Y-14754110D01*
X23065928Y-14754110D01*
X23337357Y-14754110D02*
X23308786Y-14739824D01*
X23294500Y-14711253D01*
X23294500Y-14454110D01*
X23565928Y-14739824D02*
X23537357Y-14754110D01*
X23480214Y-14754110D01*
X23451643Y-14739824D01*
X23437357Y-14711253D01*
X23437357Y-14596967D01*
X23451643Y-14568396D01*
X23480214Y-14554110D01*
X23537357Y-14554110D01*
X23565928Y-14568396D01*
X23580214Y-14596967D01*
X23580214Y-14625539D01*
X23437357Y-14654110D01*
X23694500Y-14739824D02*
X23723071Y-14754110D01*
X23780214Y-14754110D01*
X23808786Y-14739824D01*
X23823071Y-14711253D01*
X23823071Y-14696967D01*
X23808786Y-14668396D01*
X23780214Y-14654110D01*
X23737357Y-14654110D01*
X23708786Y-14639824D01*
X23694500Y-14611253D01*
X23694500Y-14596967D01*
X23708786Y-14568396D01*
X23737357Y-14554110D01*
X23780214Y-14554110D01*
X23808786Y-14568396D01*
X23923071Y-14868396D02*
X23937357Y-14854110D01*
X23965928Y-14811253D01*
X23980214Y-14782681D01*
X23994500Y-14739824D01*
X24008786Y-14668396D01*
X24008786Y-14611253D01*
X23994500Y-14539824D01*
X23980214Y-14496967D01*
X23965928Y-14468396D01*
X23937357Y-14425539D01*
X23923071Y-14411253D01*
X16504500Y-15089396D02*
X16579500Y-15014396D01*
X16504500Y-14939396D01*
X16429500Y-15014396D01*
X16504500Y-15089396D01*
X17023071Y-15150110D02*
X16851643Y-15150110D01*
X16937357Y-15150110D02*
X16937357Y-14850110D01*
X16908786Y-14892967D01*
X16880214Y-14921539D01*
X16851643Y-14935824D01*
X17151643Y-15121539D02*
X17165928Y-15135824D01*
X17151643Y-15150110D01*
X17137357Y-15135824D01*
X17151643Y-15121539D01*
X17151643Y-15150110D01*
X17437357Y-14850110D02*
X17294500Y-14850110D01*
X17280214Y-14992967D01*
X17294500Y-14978681D01*
X17323071Y-14964396D01*
X17394500Y-14964396D01*
X17423071Y-14978681D01*
X17437357Y-14992967D01*
X17451643Y-15021539D01*
X17451643Y-15092967D01*
X17437357Y-15121539D01*
X17423071Y-15135824D01*
X17394500Y-15150110D01*
X17323071Y-15150110D01*
X17294500Y-15135824D01*
X17280214Y-15121539D01*
X17637357Y-14850110D02*
X17665928Y-14850110D01*
X17694500Y-14864396D01*
X17708786Y-14878681D01*
X17723071Y-14907253D01*
X17737357Y-14964396D01*
X17737357Y-15035824D01*
X17723071Y-15092967D01*
X17708786Y-15121539D01*
X17694500Y-15135824D01*
X17665928Y-15150110D01*
X17637357Y-15150110D01*
X17608786Y-15135824D01*
X17594500Y-15121539D01*
X17580214Y-15092967D01*
X17565928Y-15035824D01*
X17565928Y-14964396D01*
X17580214Y-14907253D01*
X17594500Y-14878681D01*
X17608786Y-14864396D01*
X17637357Y-14850110D01*
X17923071Y-14850110D02*
X17951643Y-14850110D01*
X17980214Y-14864396D01*
X17994500Y-14878681D01*
X18008786Y-14907253D01*
X18023071Y-14964396D01*
X18023071Y-15035824D01*
X18008786Y-15092967D01*
X17994500Y-15121539D01*
X17980214Y-15135824D01*
X17951643Y-15150110D01*
X17923071Y-15150110D01*
X17894500Y-15135824D01*
X17880214Y-15121539D01*
X17865928Y-15092967D01*
X17851643Y-15035824D01*
X17851643Y-14964396D01*
X17865928Y-14907253D01*
X17880214Y-14878681D01*
X17894500Y-14864396D01*
X17923071Y-14850110D01*
X18151643Y-15150110D02*
X18151643Y-14950110D01*
X18151643Y-14978681D02*
X18165928Y-14964396D01*
X18194500Y-14950110D01*
X18237357Y-14950110D01*
X18265928Y-14964396D01*
X18280214Y-14992967D01*
X18280214Y-15150110D01*
X18280214Y-14992967D02*
X18294500Y-14964396D01*
X18323071Y-14950110D01*
X18365928Y-14950110D01*
X18394500Y-14964396D01*
X18408786Y-14992967D01*
X18408786Y-15150110D01*
X18551643Y-15150110D02*
X18551643Y-14950110D01*
X18551643Y-14978681D02*
X18565928Y-14964396D01*
X18594500Y-14950110D01*
X18637357Y-14950110D01*
X18665928Y-14964396D01*
X18680214Y-14992967D01*
X18680214Y-15150110D01*
X18680214Y-14992967D02*
X18694500Y-14964396D01*
X18723071Y-14950110D01*
X18765928Y-14950110D01*
X18794500Y-14964396D01*
X18808786Y-14992967D01*
X18808786Y-15150110D01*
X19394500Y-14835824D02*
X19137357Y-15221539D01*
X19780214Y-14850110D02*
X19808786Y-14850110D01*
X19837357Y-14864396D01*
X19851643Y-14878681D01*
X19865928Y-14907253D01*
X19880214Y-14964396D01*
X19880214Y-15035824D01*
X19865928Y-15092967D01*
X19851643Y-15121539D01*
X19837357Y-15135824D01*
X19808786Y-15150110D01*
X19780214Y-15150110D01*
X19751643Y-15135824D01*
X19737357Y-15121539D01*
X19723071Y-15092967D01*
X19708786Y-15035824D01*
X19708786Y-14964396D01*
X19723071Y-14907253D01*
X19737357Y-14878681D01*
X19751643Y-14864396D01*
X19780214Y-14850110D01*
X20008786Y-15121539D02*
X20023071Y-15135824D01*
X20008786Y-15150110D01*
X19994500Y-15135824D01*
X20008786Y-15121539D01*
X20008786Y-15150110D01*
X20208786Y-14850110D02*
X20237357Y-14850110D01*
X20265928Y-14864396D01*
X20280214Y-14878681D01*
X20294500Y-14907253D01*
X20308786Y-14964396D01*
X20308786Y-15035824D01*
X20294500Y-15092967D01*
X20280214Y-15121539D01*
X20265928Y-15135824D01*
X20237357Y-15150110D01*
X20208786Y-15150110D01*
X20180214Y-15135824D01*
X20165928Y-15121539D01*
X20151643Y-15092967D01*
X20137357Y-15035824D01*
X20137357Y-14964396D01*
X20151643Y-14907253D01*
X20165928Y-14878681D01*
X20180214Y-14864396D01*
X20208786Y-14850110D01*
X20580214Y-14850110D02*
X20437357Y-14850110D01*
X20423071Y-14992967D01*
X20437357Y-14978681D01*
X20465928Y-14964396D01*
X20537357Y-14964396D01*
X20565928Y-14978681D01*
X20580214Y-14992967D01*
X20594500Y-15021539D01*
X20594500Y-15092967D01*
X20580214Y-15121539D01*
X20565928Y-15135824D01*
X20537357Y-15150110D01*
X20465928Y-15150110D01*
X20437357Y-15135824D01*
X20423071Y-15121539D01*
X20737357Y-15150110D02*
X20794500Y-15150110D01*
X20823071Y-15135824D01*
X20837357Y-15121539D01*
X20865928Y-15078681D01*
X20880214Y-15021539D01*
X20880214Y-14907253D01*
X20865928Y-14878681D01*
X20851643Y-14864396D01*
X20823071Y-14850110D01*
X20765928Y-14850110D01*
X20737357Y-14864396D01*
X20723071Y-14878681D01*
X20708786Y-14907253D01*
X20708786Y-14978681D01*
X20723071Y-15007253D01*
X20737357Y-15021539D01*
X20765928Y-15035824D01*
X20823071Y-15035824D01*
X20851643Y-15021539D01*
X20865928Y-15007253D01*
X20880214Y-14978681D01*
X21165928Y-15150110D02*
X20994500Y-15150110D01*
X21080214Y-15150110D02*
X21080214Y-14850110D01*
X21051643Y-14892967D01*
X21023071Y-14921539D01*
X20994500Y-14935824D01*
X21280214Y-14850110D02*
X21280214Y-14907253D01*
X21394500Y-14850110D02*
X21394500Y-14907253D01*
X21837357Y-15264396D02*
X21823071Y-15250110D01*
X21794500Y-15207253D01*
X21780214Y-15178681D01*
X21765928Y-15135824D01*
X21751643Y-15064396D01*
X21751643Y-15007253D01*
X21765928Y-14935824D01*
X21780214Y-14892967D01*
X21794500Y-14864396D01*
X21823071Y-14821539D01*
X21837357Y-14807253D01*
X22080214Y-14950110D02*
X22080214Y-15150110D01*
X22008786Y-14835824D02*
X21937357Y-15050110D01*
X22123071Y-15050110D01*
X22465928Y-15150110D02*
X22465928Y-14850110D01*
X22594500Y-15150110D02*
X22594500Y-14992967D01*
X22580214Y-14964396D01*
X22551643Y-14950110D01*
X22508786Y-14950110D01*
X22480214Y-14964396D01*
X22465928Y-14978681D01*
X22780214Y-15150110D02*
X22751643Y-15135824D01*
X22737357Y-15121539D01*
X22723071Y-15092967D01*
X22723071Y-15007253D01*
X22737357Y-14978681D01*
X22751643Y-14964396D01*
X22780214Y-14950110D01*
X22823071Y-14950110D01*
X22851643Y-14964396D01*
X22865928Y-14978681D01*
X22880214Y-15007253D01*
X22880214Y-15092967D01*
X22865928Y-15121539D01*
X22851643Y-15135824D01*
X22823071Y-15150110D01*
X22780214Y-15150110D01*
X23051643Y-15150110D02*
X23023071Y-15135824D01*
X23008786Y-15107253D01*
X23008786Y-14850110D01*
X23280214Y-15135824D02*
X23251643Y-15150110D01*
X23194500Y-15150110D01*
X23165928Y-15135824D01*
X23151643Y-15107253D01*
X23151643Y-14992967D01*
X23165928Y-14964396D01*
X23194500Y-14950110D01*
X23251643Y-14950110D01*
X23280214Y-14964396D01*
X23294500Y-14992967D01*
X23294500Y-15021539D01*
X23151643Y-15050110D01*
X23408786Y-15135824D02*
X23437357Y-15150110D01*
X23494500Y-15150110D01*
X23523071Y-15135824D01*
X23537357Y-15107253D01*
X23537357Y-15092967D01*
X23523071Y-15064396D01*
X23494500Y-15050110D01*
X23451643Y-15050110D01*
X23423071Y-15035824D01*
X23408786Y-15007253D01*
X23408786Y-14992967D01*
X23423071Y-14964396D01*
X23451643Y-14950110D01*
X23494500Y-14950110D01*
X23523071Y-14964396D01*
X23637357Y-15264396D02*
X23651643Y-15250110D01*
X23680214Y-15207253D01*
X23694500Y-15178681D01*
X23708786Y-15135824D01*
X23723071Y-15064396D01*
X23723071Y-15007253D01*
X23708786Y-14935824D01*
X23694500Y-14892967D01*
X23680214Y-14864396D01*
X23651643Y-14821539D01*
X23637357Y-14807253D01*
M02*
