%TF.GenerationSoftware,KiCad,Pcbnew,5.1.9-73d0e3b20d~88~ubuntu20.04.1*%
%TF.CreationDate,2021-03-20T23:28:39+05:30*%
%TF.ProjectId,ESP32-S2,45535033-322d-4533-922e-6b696361645f,rev?*%
%TF.SameCoordinates,Original*%
%TF.FileFunction,Legend,Top*%
%TF.FilePolarity,Positive*%
%FSLAX46Y46*%
G04 Gerber Fmt 4.6, Leading zero omitted, Abs format (unit mm)*
G04 Created by KiCad (PCBNEW 5.1.9-73d0e3b20d~88~ubuntu20.04.1) date 2021-03-20 23:28:39*
%MOMM*%
%LPD*%
G01*
G04 APERTURE LIST*
%ADD10C,0.150000*%
%ADD11C,0.100000*%
%ADD12C,0.010000*%
%ADD13C,0.120000*%
%ADD14C,0.127000*%
%ADD15C,0.200000*%
G04 APERTURE END LIST*
D10*
X144421428Y-110160000D02*
X144878571Y-110160000D01*
X144650000Y-110426666D02*
X144650000Y-109893333D01*
X142451428Y-103550000D02*
X142908571Y-103550000D01*
X142680000Y-103816666D02*
X142680000Y-103283333D01*
X146741428Y-115560000D02*
X147198571Y-115560000D01*
X146970000Y-115826666D02*
X146970000Y-115293333D01*
D11*
X149276190Y-116846666D02*
X148776190Y-116846666D01*
X148776190Y-116656190D01*
X148800000Y-116608571D01*
X148823809Y-116584761D01*
X148871428Y-116560952D01*
X148942857Y-116560952D01*
X148990476Y-116584761D01*
X149014285Y-116608571D01*
X149038095Y-116656190D01*
X149038095Y-116846666D01*
X148776190Y-116394285D02*
X149276190Y-116275238D01*
X148919047Y-116180000D01*
X149276190Y-116084761D01*
X148776190Y-115965714D01*
X149276190Y-115489523D02*
X149038095Y-115656190D01*
X149276190Y-115775238D02*
X148776190Y-115775238D01*
X148776190Y-115584761D01*
X148800000Y-115537142D01*
X148823809Y-115513333D01*
X148871428Y-115489523D01*
X148942857Y-115489523D01*
X148990476Y-115513333D01*
X149014285Y-115537142D01*
X149038095Y-115584761D01*
X149038095Y-115775238D01*
X155137142Y-122677142D02*
X155337142Y-122677142D01*
X155422857Y-122991428D02*
X155137142Y-122991428D01*
X155137142Y-122391428D01*
X155422857Y-122391428D01*
X155680000Y-122991428D02*
X155680000Y-122391428D01*
X156022857Y-122991428D01*
X156022857Y-122391428D01*
X150345714Y-122677142D02*
X150431428Y-122705714D01*
X150460000Y-122734285D01*
X150488571Y-122791428D01*
X150488571Y-122877142D01*
X150460000Y-122934285D01*
X150431428Y-122962857D01*
X150374285Y-122991428D01*
X150145714Y-122991428D01*
X150145714Y-122391428D01*
X150345714Y-122391428D01*
X150402857Y-122420000D01*
X150431428Y-122448571D01*
X150460000Y-122505714D01*
X150460000Y-122562857D01*
X150431428Y-122620000D01*
X150402857Y-122648571D01*
X150345714Y-122677142D01*
X150145714Y-122677142D01*
X150860000Y-122391428D02*
X150974285Y-122391428D01*
X151031428Y-122420000D01*
X151088571Y-122477142D01*
X151117142Y-122591428D01*
X151117142Y-122791428D01*
X151088571Y-122905714D01*
X151031428Y-122962857D01*
X150974285Y-122991428D01*
X150860000Y-122991428D01*
X150802857Y-122962857D01*
X150745714Y-122905714D01*
X150717142Y-122791428D01*
X150717142Y-122591428D01*
X150745714Y-122477142D01*
X150802857Y-122420000D01*
X150860000Y-122391428D01*
X151488571Y-122391428D02*
X151602857Y-122391428D01*
X151660000Y-122420000D01*
X151717142Y-122477142D01*
X151745714Y-122591428D01*
X151745714Y-122791428D01*
X151717142Y-122905714D01*
X151660000Y-122962857D01*
X151602857Y-122991428D01*
X151488571Y-122991428D01*
X151431428Y-122962857D01*
X151374285Y-122905714D01*
X151345714Y-122791428D01*
X151345714Y-122591428D01*
X151374285Y-122477142D01*
X151431428Y-122420000D01*
X151488571Y-122391428D01*
X151917142Y-122391428D02*
X152260000Y-122391428D01*
X152088571Y-122991428D02*
X152088571Y-122391428D01*
D10*
X161611904Y-122133333D02*
X161611904Y-122533333D01*
X161611904Y-122333333D02*
X160811904Y-122333333D01*
X160926190Y-122400000D01*
X161002380Y-122466666D01*
X161040476Y-122533333D01*
X160811904Y-121533333D02*
X160811904Y-121666666D01*
X160850000Y-121733333D01*
X160888095Y-121766666D01*
X161002380Y-121833333D01*
X161154761Y-121866666D01*
X161459523Y-121866666D01*
X161535714Y-121833333D01*
X161573809Y-121800000D01*
X161611904Y-121733333D01*
X161611904Y-121600000D01*
X161573809Y-121533333D01*
X161535714Y-121500000D01*
X161459523Y-121466666D01*
X161269047Y-121466666D01*
X161192857Y-121500000D01*
X161154761Y-121533333D01*
X161116666Y-121600000D01*
X161116666Y-121733333D01*
X161154761Y-121800000D01*
X161192857Y-121833333D01*
X161269047Y-121866666D01*
X161611904Y-119383333D02*
X161611904Y-119783333D01*
X161611904Y-119583333D02*
X160811904Y-119583333D01*
X160926190Y-119650000D01*
X161002380Y-119716666D01*
X161040476Y-119783333D01*
X160811904Y-119150000D02*
X160811904Y-118683333D01*
X161611904Y-118983333D01*
X161611904Y-116883333D02*
X161611904Y-117283333D01*
X161611904Y-117083333D02*
X160811904Y-117083333D01*
X160926190Y-117150000D01*
X161002380Y-117216666D01*
X161040476Y-117283333D01*
X161611904Y-116550000D02*
X161611904Y-116416666D01*
X161573809Y-116350000D01*
X161535714Y-116316666D01*
X161421428Y-116250000D01*
X161269047Y-116216666D01*
X160964285Y-116216666D01*
X160888095Y-116250000D01*
X160850000Y-116283333D01*
X160811904Y-116350000D01*
X160811904Y-116483333D01*
X160850000Y-116550000D01*
X160888095Y-116583333D01*
X160964285Y-116616666D01*
X161154761Y-116616666D01*
X161230952Y-116583333D01*
X161269047Y-116550000D01*
X161307142Y-116483333D01*
X161307142Y-116350000D01*
X161269047Y-116283333D01*
X161230952Y-116250000D01*
X161154761Y-116216666D01*
X160888095Y-114783333D02*
X160850000Y-114750000D01*
X160811904Y-114683333D01*
X160811904Y-114516666D01*
X160850000Y-114450000D01*
X160888095Y-114416666D01*
X160964285Y-114383333D01*
X161040476Y-114383333D01*
X161154761Y-114416666D01*
X161611904Y-114816666D01*
X161611904Y-114383333D01*
X160811904Y-113950000D02*
X160811904Y-113883333D01*
X160850000Y-113816666D01*
X160888095Y-113783333D01*
X160964285Y-113750000D01*
X161116666Y-113716666D01*
X161307142Y-113716666D01*
X161459523Y-113750000D01*
X161535714Y-113783333D01*
X161573809Y-113816666D01*
X161611904Y-113883333D01*
X161611904Y-113950000D01*
X161573809Y-114016666D01*
X161535714Y-114050000D01*
X161459523Y-114083333D01*
X161307142Y-114116666D01*
X161116666Y-114116666D01*
X160964285Y-114083333D01*
X160888095Y-114050000D01*
X160850000Y-114016666D01*
X160811904Y-113950000D01*
X160888095Y-112283333D02*
X160850000Y-112250000D01*
X160811904Y-112183333D01*
X160811904Y-112016666D01*
X160850000Y-111950000D01*
X160888095Y-111916666D01*
X160964285Y-111883333D01*
X161040476Y-111883333D01*
X161154761Y-111916666D01*
X161611904Y-112316666D01*
X161611904Y-111883333D01*
X161611904Y-111216666D02*
X161611904Y-111616666D01*
X161611904Y-111416666D02*
X160811904Y-111416666D01*
X160926190Y-111483333D01*
X161002380Y-111550000D01*
X161040476Y-111616666D01*
X160850000Y-109783333D02*
X160811904Y-109850000D01*
X160811904Y-109950000D01*
X160850000Y-110050000D01*
X160926190Y-110116666D01*
X161002380Y-110150000D01*
X161154761Y-110183333D01*
X161269047Y-110183333D01*
X161421428Y-110150000D01*
X161497619Y-110116666D01*
X161573809Y-110050000D01*
X161611904Y-109950000D01*
X161611904Y-109883333D01*
X161573809Y-109783333D01*
X161535714Y-109750000D01*
X161269047Y-109750000D01*
X161269047Y-109883333D01*
X161611904Y-109450000D02*
X160811904Y-109450000D01*
X161611904Y-109050000D01*
X160811904Y-109050000D01*
X161611904Y-108716666D02*
X160811904Y-108716666D01*
X160811904Y-108550000D01*
X160850000Y-108450000D01*
X160926190Y-108383333D01*
X161002380Y-108350000D01*
X161154761Y-108316666D01*
X161269047Y-108316666D01*
X161421428Y-108350000D01*
X161497619Y-108383333D01*
X161573809Y-108450000D01*
X161611904Y-108550000D01*
X161611904Y-108716666D01*
X160888095Y-107033333D02*
X160850000Y-107000000D01*
X160811904Y-106933333D01*
X160811904Y-106766666D01*
X160850000Y-106700000D01*
X160888095Y-106666666D01*
X160964285Y-106633333D01*
X161040476Y-106633333D01*
X161154761Y-106666666D01*
X161611904Y-107066666D01*
X161611904Y-106633333D01*
X160811904Y-106033333D02*
X160811904Y-106166666D01*
X160850000Y-106233333D01*
X160888095Y-106266666D01*
X161002380Y-106333333D01*
X161154761Y-106366666D01*
X161459523Y-106366666D01*
X161535714Y-106333333D01*
X161573809Y-106300000D01*
X161611904Y-106233333D01*
X161611904Y-106100000D01*
X161573809Y-106033333D01*
X161535714Y-106000000D01*
X161459523Y-105966666D01*
X161269047Y-105966666D01*
X161192857Y-106000000D01*
X161154761Y-106033333D01*
X161116666Y-106100000D01*
X161116666Y-106233333D01*
X161154761Y-106300000D01*
X161192857Y-106333333D01*
X161269047Y-106366666D01*
X160811904Y-104566666D02*
X160811904Y-104133333D01*
X161116666Y-104366666D01*
X161116666Y-104266666D01*
X161154761Y-104200000D01*
X161192857Y-104166666D01*
X161269047Y-104133333D01*
X161459523Y-104133333D01*
X161535714Y-104166666D01*
X161573809Y-104200000D01*
X161611904Y-104266666D01*
X161611904Y-104466666D01*
X161573809Y-104533333D01*
X161535714Y-104566666D01*
X160811904Y-103900000D02*
X160811904Y-103466666D01*
X161116666Y-103700000D01*
X161116666Y-103600000D01*
X161154761Y-103533333D01*
X161192857Y-103500000D01*
X161269047Y-103466666D01*
X161459523Y-103466666D01*
X161535714Y-103500000D01*
X161573809Y-103533333D01*
X161611904Y-103600000D01*
X161611904Y-103800000D01*
X161573809Y-103866666D01*
X161535714Y-103900000D01*
X160811904Y-102066666D02*
X160811904Y-101633333D01*
X161116666Y-101866666D01*
X161116666Y-101766666D01*
X161154761Y-101700000D01*
X161192857Y-101666666D01*
X161269047Y-101633333D01*
X161459523Y-101633333D01*
X161535714Y-101666666D01*
X161573809Y-101700000D01*
X161611904Y-101766666D01*
X161611904Y-101966666D01*
X161573809Y-102033333D01*
X161535714Y-102066666D01*
X161078571Y-101033333D02*
X161611904Y-101033333D01*
X160773809Y-101200000D02*
X161345238Y-101366666D01*
X161345238Y-100933333D01*
X160811904Y-99566666D02*
X160811904Y-99133333D01*
X161116666Y-99366666D01*
X161116666Y-99266666D01*
X161154761Y-99200000D01*
X161192857Y-99166666D01*
X161269047Y-99133333D01*
X161459523Y-99133333D01*
X161535714Y-99166666D01*
X161573809Y-99200000D01*
X161611904Y-99266666D01*
X161611904Y-99466666D01*
X161573809Y-99533333D01*
X161535714Y-99566666D01*
X160811904Y-98500000D02*
X160811904Y-98833333D01*
X161192857Y-98866666D01*
X161154761Y-98833333D01*
X161116666Y-98766666D01*
X161116666Y-98600000D01*
X161154761Y-98533333D01*
X161192857Y-98500000D01*
X161269047Y-98466666D01*
X161459523Y-98466666D01*
X161535714Y-98500000D01*
X161573809Y-98533333D01*
X161611904Y-98600000D01*
X161611904Y-98766666D01*
X161573809Y-98833333D01*
X161535714Y-98866666D01*
X160811904Y-97066666D02*
X160811904Y-96633333D01*
X161116666Y-96866666D01*
X161116666Y-96766666D01*
X161154761Y-96700000D01*
X161192857Y-96666666D01*
X161269047Y-96633333D01*
X161459523Y-96633333D01*
X161535714Y-96666666D01*
X161573809Y-96700000D01*
X161611904Y-96766666D01*
X161611904Y-96966666D01*
X161573809Y-97033333D01*
X161535714Y-97066666D01*
X160811904Y-96033333D02*
X160811904Y-96166666D01*
X160850000Y-96233333D01*
X160888095Y-96266666D01*
X161002380Y-96333333D01*
X161154761Y-96366666D01*
X161459523Y-96366666D01*
X161535714Y-96333333D01*
X161573809Y-96300000D01*
X161611904Y-96233333D01*
X161611904Y-96100000D01*
X161573809Y-96033333D01*
X161535714Y-96000000D01*
X161459523Y-95966666D01*
X161269047Y-95966666D01*
X161192857Y-96000000D01*
X161154761Y-96033333D01*
X161116666Y-96100000D01*
X161116666Y-96233333D01*
X161154761Y-96300000D01*
X161192857Y-96333333D01*
X161269047Y-96366666D01*
X160811904Y-94566666D02*
X160811904Y-94133333D01*
X161116666Y-94366666D01*
X161116666Y-94266666D01*
X161154761Y-94200000D01*
X161192857Y-94166666D01*
X161269047Y-94133333D01*
X161459523Y-94133333D01*
X161535714Y-94166666D01*
X161573809Y-94200000D01*
X161611904Y-94266666D01*
X161611904Y-94466666D01*
X161573809Y-94533333D01*
X161535714Y-94566666D01*
X160811904Y-93900000D02*
X160811904Y-93433333D01*
X161611904Y-93733333D01*
X160811904Y-92066666D02*
X160811904Y-91633333D01*
X161116666Y-91866666D01*
X161116666Y-91766666D01*
X161154761Y-91700000D01*
X161192857Y-91666666D01*
X161269047Y-91633333D01*
X161459523Y-91633333D01*
X161535714Y-91666666D01*
X161573809Y-91700000D01*
X161611904Y-91766666D01*
X161611904Y-91966666D01*
X161573809Y-92033333D01*
X161535714Y-92066666D01*
X161154761Y-91233333D02*
X161116666Y-91300000D01*
X161078571Y-91333333D01*
X161002380Y-91366666D01*
X160964285Y-91366666D01*
X160888095Y-91333333D01*
X160850000Y-91300000D01*
X160811904Y-91233333D01*
X160811904Y-91100000D01*
X160850000Y-91033333D01*
X160888095Y-91000000D01*
X160964285Y-90966666D01*
X161002380Y-90966666D01*
X161078571Y-91000000D01*
X161116666Y-91033333D01*
X161154761Y-91100000D01*
X161154761Y-91233333D01*
X161192857Y-91300000D01*
X161230952Y-91333333D01*
X161307142Y-91366666D01*
X161459523Y-91366666D01*
X161535714Y-91333333D01*
X161573809Y-91300000D01*
X161611904Y-91233333D01*
X161611904Y-91100000D01*
X161573809Y-91033333D01*
X161535714Y-91000000D01*
X161459523Y-90966666D01*
X161307142Y-90966666D01*
X161230952Y-91000000D01*
X161192857Y-91033333D01*
X161154761Y-91100000D01*
X160811904Y-89566666D02*
X160811904Y-89133333D01*
X161116666Y-89366666D01*
X161116666Y-89266666D01*
X161154761Y-89200000D01*
X161192857Y-89166666D01*
X161269047Y-89133333D01*
X161459523Y-89133333D01*
X161535714Y-89166666D01*
X161573809Y-89200000D01*
X161611904Y-89266666D01*
X161611904Y-89466666D01*
X161573809Y-89533333D01*
X161535714Y-89566666D01*
X161611904Y-88800000D02*
X161611904Y-88666666D01*
X161573809Y-88600000D01*
X161535714Y-88566666D01*
X161421428Y-88500000D01*
X161269047Y-88466666D01*
X160964285Y-88466666D01*
X160888095Y-88500000D01*
X160850000Y-88533333D01*
X160811904Y-88600000D01*
X160811904Y-88733333D01*
X160850000Y-88800000D01*
X160888095Y-88833333D01*
X160964285Y-88866666D01*
X161154761Y-88866666D01*
X161230952Y-88833333D01*
X161269047Y-88800000D01*
X161307142Y-88733333D01*
X161307142Y-88600000D01*
X161269047Y-88533333D01*
X161230952Y-88500000D01*
X161154761Y-88466666D01*
X161573809Y-87333333D02*
X161611904Y-87233333D01*
X161611904Y-87066666D01*
X161573809Y-87000000D01*
X161535714Y-86966666D01*
X161459523Y-86933333D01*
X161383333Y-86933333D01*
X161307142Y-86966666D01*
X161269047Y-87000000D01*
X161230952Y-87066666D01*
X161192857Y-87200000D01*
X161154761Y-87266666D01*
X161116666Y-87300000D01*
X161040476Y-87333333D01*
X160964285Y-87333333D01*
X160888095Y-87300000D01*
X160850000Y-87266666D01*
X160811904Y-87200000D01*
X160811904Y-87033333D01*
X160850000Y-86933333D01*
X161535714Y-86233333D02*
X161573809Y-86266666D01*
X161611904Y-86366666D01*
X161611904Y-86433333D01*
X161573809Y-86533333D01*
X161497619Y-86600000D01*
X161421428Y-86633333D01*
X161269047Y-86666666D01*
X161154761Y-86666666D01*
X161002380Y-86633333D01*
X160926190Y-86600000D01*
X160850000Y-86533333D01*
X160811904Y-86433333D01*
X160811904Y-86366666D01*
X160850000Y-86266666D01*
X160888095Y-86233333D01*
X161611904Y-85600000D02*
X161611904Y-85933333D01*
X160811904Y-85933333D01*
X161573809Y-84600000D02*
X161611904Y-84500000D01*
X161611904Y-84333333D01*
X161573809Y-84266666D01*
X161535714Y-84233333D01*
X161459523Y-84200000D01*
X161383333Y-84200000D01*
X161307142Y-84233333D01*
X161269047Y-84266666D01*
X161230952Y-84333333D01*
X161192857Y-84466666D01*
X161154761Y-84533333D01*
X161116666Y-84566666D01*
X161040476Y-84600000D01*
X160964285Y-84600000D01*
X160888095Y-84566666D01*
X160850000Y-84533333D01*
X160811904Y-84466666D01*
X160811904Y-84300000D01*
X160850000Y-84200000D01*
X161611904Y-83900000D02*
X160811904Y-83900000D01*
X160811904Y-83733333D01*
X160850000Y-83633333D01*
X160926190Y-83566666D01*
X161002380Y-83533333D01*
X161154761Y-83500000D01*
X161269047Y-83500000D01*
X161421428Y-83533333D01*
X161497619Y-83566666D01*
X161573809Y-83633333D01*
X161611904Y-83733333D01*
X161611904Y-83900000D01*
X161383333Y-83233333D02*
X161383333Y-82900000D01*
X161611904Y-83300000D02*
X160811904Y-83066666D01*
X161611904Y-82833333D01*
X161078571Y-81450000D02*
X161611904Y-81450000D01*
X160773809Y-81616666D02*
X161345238Y-81783333D01*
X161345238Y-81350000D01*
X160888095Y-81116666D02*
X160850000Y-81083333D01*
X160811904Y-81016666D01*
X160811904Y-80850000D01*
X160850000Y-80783333D01*
X160888095Y-80750000D01*
X160964285Y-80716666D01*
X161040476Y-80716666D01*
X161154761Y-80750000D01*
X161611904Y-81150000D01*
X161611904Y-80716666D01*
X160811904Y-79633333D02*
X160811904Y-79233333D01*
X161611904Y-79433333D02*
X160811904Y-79433333D01*
X160811904Y-79066666D02*
X161611904Y-78600000D01*
X160811904Y-78600000D02*
X161611904Y-79066666D01*
X161611904Y-78333333D02*
X160811904Y-78333333D01*
X160811904Y-78166666D01*
X160850000Y-78066666D01*
X160926190Y-78000000D01*
X161002380Y-77966666D01*
X161154761Y-77933333D01*
X161269047Y-77933333D01*
X161421428Y-77966666D01*
X161497619Y-78000000D01*
X161573809Y-78066666D01*
X161611904Y-78166666D01*
X161611904Y-78333333D01*
X161611904Y-76466666D02*
X161230952Y-76700000D01*
X161611904Y-76866666D02*
X160811904Y-76866666D01*
X160811904Y-76600000D01*
X160850000Y-76533333D01*
X160888095Y-76500000D01*
X160964285Y-76466666D01*
X161078571Y-76466666D01*
X161154761Y-76500000D01*
X161192857Y-76533333D01*
X161230952Y-76600000D01*
X161230952Y-76866666D01*
X160811904Y-76233333D02*
X161611904Y-75766666D01*
X160811904Y-75766666D02*
X161611904Y-76233333D01*
X161611904Y-75500000D02*
X160811904Y-75500000D01*
X160811904Y-75333333D01*
X160850000Y-75233333D01*
X160926190Y-75166666D01*
X161002380Y-75133333D01*
X161154761Y-75100000D01*
X161269047Y-75100000D01*
X161421428Y-75133333D01*
X161497619Y-75166666D01*
X161573809Y-75233333D01*
X161611904Y-75333333D01*
X161611904Y-75500000D01*
X161078571Y-73700000D02*
X161611904Y-73700000D01*
X160773809Y-73866666D02*
X161345238Y-74033333D01*
X161345238Y-73600000D01*
X160811904Y-73000000D02*
X160811904Y-73333333D01*
X161192857Y-73366666D01*
X161154761Y-73333333D01*
X161116666Y-73266666D01*
X161116666Y-73100000D01*
X161154761Y-73033333D01*
X161192857Y-73000000D01*
X161269047Y-72966666D01*
X161459523Y-72966666D01*
X161535714Y-73000000D01*
X161573809Y-73033333D01*
X161611904Y-73100000D01*
X161611904Y-73266666D01*
X161573809Y-73333333D01*
X161535714Y-73366666D01*
X161078571Y-71450000D02*
X161611904Y-71450000D01*
X160773809Y-71616666D02*
X161345238Y-71783333D01*
X161345238Y-71350000D01*
X160811904Y-70783333D02*
X160811904Y-70916666D01*
X160850000Y-70983333D01*
X160888095Y-71016666D01*
X161002380Y-71083333D01*
X161154761Y-71116666D01*
X161459523Y-71116666D01*
X161535714Y-71083333D01*
X161573809Y-71050000D01*
X161611904Y-70983333D01*
X161611904Y-70850000D01*
X161573809Y-70783333D01*
X161535714Y-70750000D01*
X161459523Y-70716666D01*
X161269047Y-70716666D01*
X161192857Y-70750000D01*
X161154761Y-70783333D01*
X161116666Y-70850000D01*
X161116666Y-70983333D01*
X161154761Y-71050000D01*
X161192857Y-71083333D01*
X161269047Y-71116666D01*
X160850000Y-69283333D02*
X160811904Y-69350000D01*
X160811904Y-69450000D01*
X160850000Y-69550000D01*
X160926190Y-69616666D01*
X161002380Y-69650000D01*
X161154761Y-69683333D01*
X161269047Y-69683333D01*
X161421428Y-69650000D01*
X161497619Y-69616666D01*
X161573809Y-69550000D01*
X161611904Y-69450000D01*
X161611904Y-69383333D01*
X161573809Y-69283333D01*
X161535714Y-69250000D01*
X161269047Y-69250000D01*
X161269047Y-69383333D01*
X161611904Y-68950000D02*
X160811904Y-68950000D01*
X161611904Y-68550000D01*
X160811904Y-68550000D01*
X161611904Y-68216666D02*
X160811904Y-68216666D01*
X160811904Y-68050000D01*
X160850000Y-67950000D01*
X160926190Y-67883333D01*
X161002380Y-67850000D01*
X161154761Y-67816666D01*
X161269047Y-67816666D01*
X161421428Y-67850000D01*
X161497619Y-67883333D01*
X161573809Y-67950000D01*
X161611904Y-68050000D01*
X161611904Y-68216666D01*
X140738095Y-111053333D02*
X139938095Y-111286666D01*
X140738095Y-111520000D01*
X139938095Y-111753333D02*
X140471428Y-111753333D01*
X140738095Y-111753333D02*
X140700000Y-111720000D01*
X140661904Y-111753333D01*
X140700000Y-111786666D01*
X140738095Y-111753333D01*
X140661904Y-111753333D01*
X140471428Y-112086666D02*
X139938095Y-112086666D01*
X140395238Y-112086666D02*
X140433333Y-112120000D01*
X140471428Y-112186666D01*
X140471428Y-112286666D01*
X140433333Y-112353333D01*
X140357142Y-112386666D01*
X139938095Y-112386666D01*
X139938095Y-109116666D02*
X139938095Y-108716666D01*
X139938095Y-108916666D02*
X140738095Y-108916666D01*
X140623809Y-108850000D01*
X140547619Y-108783333D01*
X140509523Y-108716666D01*
X140738095Y-109750000D02*
X140738095Y-109416666D01*
X140357142Y-109383333D01*
X140395238Y-109416666D01*
X140433333Y-109483333D01*
X140433333Y-109650000D01*
X140395238Y-109716666D01*
X140357142Y-109750000D01*
X140280952Y-109783333D01*
X140090476Y-109783333D01*
X140014285Y-109750000D01*
X139976190Y-109716666D01*
X139938095Y-109650000D01*
X139938095Y-109483333D01*
X139976190Y-109416666D01*
X140014285Y-109383333D01*
X139938095Y-106636666D02*
X139938095Y-106236666D01*
X139938095Y-106436666D02*
X140738095Y-106436666D01*
X140623809Y-106370000D01*
X140547619Y-106303333D01*
X140509523Y-106236666D01*
X140471428Y-107236666D02*
X139938095Y-107236666D01*
X140776190Y-107070000D02*
X140204761Y-106903333D01*
X140204761Y-107336666D01*
X139938095Y-103866666D02*
X139938095Y-103466666D01*
X139938095Y-103666666D02*
X140738095Y-103666666D01*
X140623809Y-103600000D01*
X140547619Y-103533333D01*
X140509523Y-103466666D01*
X140738095Y-104100000D02*
X140738095Y-104533333D01*
X140433333Y-104300000D01*
X140433333Y-104400000D01*
X140395238Y-104466666D01*
X140357142Y-104500000D01*
X140280952Y-104533333D01*
X140090476Y-104533333D01*
X140014285Y-104500000D01*
X139976190Y-104466666D01*
X139938095Y-104400000D01*
X139938095Y-104200000D01*
X139976190Y-104133333D01*
X140014285Y-104100000D01*
X139938095Y-101366666D02*
X139938095Y-100966666D01*
X139938095Y-101166666D02*
X140738095Y-101166666D01*
X140623809Y-101100000D01*
X140547619Y-101033333D01*
X140509523Y-100966666D01*
X140661904Y-101633333D02*
X140700000Y-101666666D01*
X140738095Y-101733333D01*
X140738095Y-101900000D01*
X140700000Y-101966666D01*
X140661904Y-102000000D01*
X140585714Y-102033333D01*
X140509523Y-102033333D01*
X140395238Y-102000000D01*
X139938095Y-101600000D01*
X139938095Y-102033333D01*
X139938095Y-98886666D02*
X139938095Y-98486666D01*
X139938095Y-98686666D02*
X140738095Y-98686666D01*
X140623809Y-98620000D01*
X140547619Y-98553333D01*
X140509523Y-98486666D01*
X139938095Y-99553333D02*
X139938095Y-99153333D01*
X139938095Y-99353333D02*
X140738095Y-99353333D01*
X140623809Y-99286666D01*
X140547619Y-99220000D01*
X140509523Y-99153333D01*
X139938095Y-96366666D02*
X139938095Y-95966666D01*
X139938095Y-96166666D02*
X140738095Y-96166666D01*
X140623809Y-96100000D01*
X140547619Y-96033333D01*
X140509523Y-95966666D01*
X140738095Y-96800000D02*
X140738095Y-96866666D01*
X140700000Y-96933333D01*
X140661904Y-96966666D01*
X140585714Y-97000000D01*
X140433333Y-97033333D01*
X140242857Y-97033333D01*
X140090476Y-97000000D01*
X140014285Y-96966666D01*
X139976190Y-96933333D01*
X139938095Y-96866666D01*
X139938095Y-96800000D01*
X139976190Y-96733333D01*
X140014285Y-96700000D01*
X140090476Y-96666666D01*
X140242857Y-96633333D01*
X140433333Y-96633333D01*
X140585714Y-96666666D01*
X140661904Y-96700000D01*
X140700000Y-96733333D01*
X140738095Y-96800000D01*
X139938095Y-93886666D02*
X139938095Y-94020000D01*
X139976190Y-94086666D01*
X140014285Y-94120000D01*
X140128571Y-94186666D01*
X140280952Y-94220000D01*
X140585714Y-94220000D01*
X140661904Y-94186666D01*
X140700000Y-94153333D01*
X140738095Y-94086666D01*
X140738095Y-93953333D01*
X140700000Y-93886666D01*
X140661904Y-93853333D01*
X140585714Y-93820000D01*
X140395238Y-93820000D01*
X140319047Y-93853333D01*
X140280952Y-93886666D01*
X140242857Y-93953333D01*
X140242857Y-94086666D01*
X140280952Y-94153333D01*
X140319047Y-94186666D01*
X140395238Y-94220000D01*
X140395238Y-91453333D02*
X140433333Y-91386666D01*
X140471428Y-91353333D01*
X140547619Y-91320000D01*
X140585714Y-91320000D01*
X140661904Y-91353333D01*
X140700000Y-91386666D01*
X140738095Y-91453333D01*
X140738095Y-91586666D01*
X140700000Y-91653333D01*
X140661904Y-91686666D01*
X140585714Y-91720000D01*
X140547619Y-91720000D01*
X140471428Y-91686666D01*
X140433333Y-91653333D01*
X140395238Y-91586666D01*
X140395238Y-91453333D01*
X140357142Y-91386666D01*
X140319047Y-91353333D01*
X140242857Y-91320000D01*
X140090476Y-91320000D01*
X140014285Y-91353333D01*
X139976190Y-91386666D01*
X139938095Y-91453333D01*
X139938095Y-91586666D01*
X139976190Y-91653333D01*
X140014285Y-91686666D01*
X140090476Y-91720000D01*
X140242857Y-91720000D01*
X140319047Y-91686666D01*
X140357142Y-91653333D01*
X140395238Y-91586666D01*
X140738095Y-88786666D02*
X140738095Y-89253333D01*
X139938095Y-88953333D01*
X140738095Y-86653333D02*
X140738095Y-86520000D01*
X140700000Y-86453333D01*
X140661904Y-86420000D01*
X140547619Y-86353333D01*
X140395238Y-86320000D01*
X140090476Y-86320000D01*
X140014285Y-86353333D01*
X139976190Y-86386666D01*
X139938095Y-86453333D01*
X139938095Y-86586666D01*
X139976190Y-86653333D01*
X140014285Y-86686666D01*
X140090476Y-86720000D01*
X140280952Y-86720000D01*
X140357142Y-86686666D01*
X140395238Y-86653333D01*
X140433333Y-86586666D01*
X140433333Y-86453333D01*
X140395238Y-86386666D01*
X140357142Y-86353333D01*
X140280952Y-86320000D01*
X140738095Y-83936666D02*
X140738095Y-83603333D01*
X140357142Y-83570000D01*
X140395238Y-83603333D01*
X140433333Y-83670000D01*
X140433333Y-83836666D01*
X140395238Y-83903333D01*
X140357142Y-83936666D01*
X140280952Y-83970000D01*
X140090476Y-83970000D01*
X140014285Y-83936666D01*
X139976190Y-83903333D01*
X139938095Y-83836666D01*
X139938095Y-83670000D01*
X139976190Y-83603333D01*
X140014285Y-83570000D01*
X140471428Y-81403333D02*
X139938095Y-81403333D01*
X140776190Y-81236666D02*
X140204761Y-81070000D01*
X140204761Y-81503333D01*
X140738095Y-78536666D02*
X140738095Y-78970000D01*
X140433333Y-78736666D01*
X140433333Y-78836666D01*
X140395238Y-78903333D01*
X140357142Y-78936666D01*
X140280952Y-78970000D01*
X140090476Y-78970000D01*
X140014285Y-78936666D01*
X139976190Y-78903333D01*
X139938095Y-78836666D01*
X139938095Y-78636666D01*
X139976190Y-78570000D01*
X140014285Y-78536666D01*
X140661904Y-76070000D02*
X140700000Y-76103333D01*
X140738095Y-76170000D01*
X140738095Y-76336666D01*
X140700000Y-76403333D01*
X140661904Y-76436666D01*
X140585714Y-76470000D01*
X140509523Y-76470000D01*
X140395238Y-76436666D01*
X139938095Y-76036666D01*
X139938095Y-76470000D01*
X139938095Y-73970000D02*
X139938095Y-73570000D01*
X139938095Y-73770000D02*
X140738095Y-73770000D01*
X140623809Y-73703333D01*
X140547619Y-73636666D01*
X140509523Y-73570000D01*
X140738095Y-70293333D02*
X140738095Y-70726666D01*
X140433333Y-70493333D01*
X140433333Y-70593333D01*
X140395238Y-70660000D01*
X140357142Y-70693333D01*
X140280952Y-70726666D01*
X140090476Y-70726666D01*
X140014285Y-70693333D01*
X139976190Y-70660000D01*
X139938095Y-70593333D01*
X139938095Y-70393333D01*
X139976190Y-70326666D01*
X140014285Y-70293333D01*
X140738095Y-70926666D02*
X139938095Y-71160000D01*
X140738095Y-71393333D01*
X140738095Y-71560000D02*
X140738095Y-71993333D01*
X140433333Y-71760000D01*
X140433333Y-71860000D01*
X140395238Y-71926666D01*
X140357142Y-71960000D01*
X140280952Y-71993333D01*
X140090476Y-71993333D01*
X140014285Y-71960000D01*
X139976190Y-71926666D01*
X139938095Y-71860000D01*
X139938095Y-71660000D01*
X139976190Y-71593333D01*
X140014285Y-71560000D01*
X140700000Y-68006666D02*
X140738095Y-67940000D01*
X140738095Y-67840000D01*
X140700000Y-67740000D01*
X140623809Y-67673333D01*
X140547619Y-67640000D01*
X140395238Y-67606666D01*
X140280952Y-67606666D01*
X140128571Y-67640000D01*
X140052380Y-67673333D01*
X139976190Y-67740000D01*
X139938095Y-67840000D01*
X139938095Y-67906666D01*
X139976190Y-68006666D01*
X140014285Y-68040000D01*
X140280952Y-68040000D01*
X140280952Y-67906666D01*
X139938095Y-68340000D02*
X140738095Y-68340000D01*
X139938095Y-68740000D01*
X140738095Y-68740000D01*
X139938095Y-69073333D02*
X140738095Y-69073333D01*
X140738095Y-69240000D01*
X140700000Y-69340000D01*
X140623809Y-69406666D01*
X140547619Y-69440000D01*
X140395238Y-69473333D01*
X140280952Y-69473333D01*
X140128571Y-69440000D01*
X140052380Y-69406666D01*
X139976190Y-69340000D01*
X139938095Y-69240000D01*
X139938095Y-69073333D01*
X145486666Y-105044285D02*
X145486666Y-105387142D01*
X145486666Y-105215714D02*
X144786666Y-105215714D01*
X144886666Y-105272857D01*
X144953333Y-105330000D01*
X144986666Y-105387142D01*
X145020000Y-104530000D02*
X145486666Y-104530000D01*
X144753333Y-104672857D02*
X145253333Y-104815714D01*
X145253333Y-104444285D01*
X145486666Y-108904285D02*
X145486666Y-109247142D01*
X145486666Y-109075714D02*
X144786666Y-109075714D01*
X144886666Y-109132857D01*
X144953333Y-109190000D01*
X144986666Y-109247142D01*
X144786666Y-108361428D02*
X144786666Y-108647142D01*
X145120000Y-108675714D01*
X145086666Y-108647142D01*
X145053333Y-108590000D01*
X145053333Y-108447142D01*
X145086666Y-108390000D01*
X145120000Y-108361428D01*
X145186666Y-108332857D01*
X145353333Y-108332857D01*
X145420000Y-108361428D01*
X145453333Y-108390000D01*
X145486666Y-108447142D01*
X145486666Y-108590000D01*
X145453333Y-108647142D01*
X145420000Y-108675714D01*
D12*
G36*
X157970000Y-109230000D02*
G01*
X157980000Y-109320000D01*
X158000000Y-109400000D01*
X158020000Y-109480000D01*
X158050000Y-109560000D01*
X158090000Y-109630000D01*
X158140000Y-109700000D01*
X158190000Y-109770000D01*
X158260000Y-109830000D01*
X158320000Y-109880000D01*
X158390000Y-109930000D01*
X158470000Y-109970000D01*
X158550000Y-110000000D01*
X158630000Y-110020000D01*
X158710000Y-110040000D01*
X158790000Y-110040000D01*
X158880000Y-110040000D01*
X158960000Y-110030000D01*
X159050000Y-110010000D01*
X159130000Y-109990000D01*
X159200000Y-109950000D01*
X159280000Y-109910000D01*
X159350000Y-109860000D01*
X159410000Y-109800000D01*
X159470000Y-109740000D01*
X159520000Y-109680000D01*
X159560000Y-109600000D01*
X159600000Y-109530000D01*
X159630000Y-109450000D01*
X159650000Y-109370000D01*
X159660000Y-109280000D01*
X159670000Y-109200000D01*
X159670000Y-99290000D01*
X159410000Y-99400000D01*
X159410000Y-100160000D01*
X159330000Y-100160000D01*
X159260000Y-100120000D01*
X158880000Y-99780000D01*
X158810000Y-99710000D01*
X158740000Y-99660000D01*
X158680000Y-99630000D01*
X158600000Y-99610000D01*
X158510000Y-99610000D01*
X158440000Y-99650000D01*
X158380000Y-99710000D01*
X158360000Y-99790000D01*
X158370000Y-99880000D01*
X158410000Y-99950000D01*
X158470000Y-100010000D01*
X158540000Y-100030000D01*
X158600000Y-100070000D01*
X158600000Y-100150000D01*
X158540000Y-100180000D01*
X158450000Y-100150000D01*
X158380000Y-100110000D01*
X158320000Y-100060000D01*
X158280000Y-99990000D01*
X158260000Y-99910000D01*
X158240000Y-99820000D01*
X158250000Y-99730000D01*
X158270000Y-99650000D01*
X158310000Y-99580000D01*
X158360000Y-99520000D01*
X158430000Y-99470000D01*
X158520000Y-99450000D01*
X158590000Y-99450000D01*
X158650000Y-99470000D01*
X158720000Y-99500000D01*
X158800000Y-99540000D01*
X158880000Y-99600000D01*
X158960000Y-99670000D01*
X159270000Y-99960000D01*
X159290000Y-99930000D01*
X159290000Y-99430000D01*
X159350000Y-99400000D01*
X159410000Y-99400000D01*
X159670000Y-99290000D01*
X159670000Y-99210000D01*
X159660000Y-99120000D01*
X159650000Y-99040000D01*
X159620000Y-98960000D01*
X159590000Y-98880000D01*
X159550000Y-98800000D01*
X159510000Y-98730000D01*
X159460000Y-98660000D01*
X159400000Y-98600000D01*
X159330000Y-98550000D01*
X159260000Y-98500000D01*
X159190000Y-98460000D01*
X159110000Y-98430000D01*
X159030000Y-98400000D01*
X158950000Y-98390000D01*
X158860000Y-98380000D01*
X158780000Y-98380000D01*
X158690000Y-98390000D01*
X158610000Y-98400000D01*
X158530000Y-98430000D01*
X158450000Y-98460000D01*
X158380000Y-98500000D01*
X158310000Y-98550000D01*
X158240000Y-98600000D01*
X158180000Y-98660000D01*
X158130000Y-98730000D01*
X158090000Y-98800000D01*
X158050000Y-98880000D01*
X158020000Y-98960000D01*
X157990000Y-99040000D01*
X157980000Y-99120000D01*
X157970000Y-99210000D01*
X157970000Y-99290000D01*
X157970000Y-109200000D01*
X158260000Y-109090000D01*
X158240000Y-109030000D01*
X158240000Y-108940000D01*
X158310000Y-108930000D01*
X158990000Y-108930000D01*
X159080000Y-108930000D01*
X159160000Y-108910000D01*
X159220000Y-108860000D01*
X159260000Y-108800000D01*
X159280000Y-108710000D01*
X159280000Y-108610000D01*
X159260000Y-108530000D01*
X159220000Y-108470000D01*
X159150000Y-108430000D01*
X159070000Y-108400000D01*
X158980000Y-108400000D01*
X158300000Y-108400000D01*
X158240000Y-108380000D01*
X158240000Y-108300000D01*
X158280000Y-108250000D01*
X159050000Y-108250000D01*
X159060000Y-108040000D01*
X159060000Y-107950000D01*
X159080000Y-107880000D01*
X159160000Y-107860000D01*
X159220000Y-107810000D01*
X159260000Y-107750000D01*
X159280000Y-107660000D01*
X159280000Y-107570000D01*
X159270000Y-107480000D01*
X159240000Y-107410000D01*
X159170000Y-107360000D01*
X159080000Y-107350000D01*
X159000000Y-107380000D01*
X158960000Y-107430000D01*
X158920000Y-107490000D01*
X158890000Y-107580000D01*
X158860000Y-107700000D01*
X158820000Y-107790000D01*
X158780000Y-107860000D01*
X158740000Y-107910000D01*
X158680000Y-107970000D01*
X158600000Y-108000000D01*
X158520000Y-108000000D01*
X158440000Y-107980000D01*
X158360000Y-107940000D01*
X158310000Y-107880000D01*
X158270000Y-107810000D01*
X158240000Y-107730000D01*
X158230000Y-107640000D01*
X158230000Y-107550000D01*
X158250000Y-107470000D01*
X158270000Y-107390000D01*
X158320000Y-107320000D01*
X158380000Y-107270000D01*
X158460000Y-107230000D01*
X158540000Y-107210000D01*
X158570000Y-107260000D01*
X158570000Y-107340000D01*
X158500000Y-107370000D01*
X158430000Y-107400000D01*
X158380000Y-107460000D01*
X158350000Y-107540000D01*
X158350000Y-107640000D01*
X158360000Y-107720000D01*
X158400000Y-107790000D01*
X158460000Y-107840000D01*
X158550000Y-107850000D01*
X158630000Y-107820000D01*
X158670000Y-107760000D01*
X158710000Y-107690000D01*
X158770000Y-107500000D01*
X158800000Y-107420000D01*
X158840000Y-107360000D01*
X158890000Y-107290000D01*
X158950000Y-107240000D01*
X159030000Y-107210000D01*
X159120000Y-107200000D01*
X159200000Y-107210000D01*
X159350000Y-106920000D01*
X158330000Y-106920000D01*
X158250000Y-106910000D01*
X158250000Y-106580000D01*
X158260000Y-106480000D01*
X158270000Y-106390000D01*
X158300000Y-106310000D01*
X158340000Y-106260000D01*
X158400000Y-106210000D01*
X158470000Y-106180000D01*
X158570000Y-106170000D01*
X158650000Y-106180000D01*
X158720000Y-106220000D01*
X158780000Y-106290000D01*
X158810000Y-106310000D01*
X158860000Y-106230000D01*
X158920000Y-106180000D01*
X158990000Y-106140000D01*
X159080000Y-106130000D01*
X159050000Y-105890000D01*
X158960000Y-105890000D01*
X158870000Y-105890000D01*
X158790000Y-105870000D01*
X158710000Y-105840000D01*
X158640000Y-105790000D01*
X158590000Y-105730000D01*
X158550000Y-105650000D01*
X158530000Y-105570000D01*
X158530000Y-105480000D01*
X158540000Y-105400000D01*
X158580000Y-105320000D01*
X158630000Y-105260000D01*
X158690000Y-105220000D01*
X158760000Y-105190000D01*
X158850000Y-105170000D01*
X158950000Y-105170000D01*
X158940000Y-104910000D01*
X158850000Y-104900000D01*
X158770000Y-104880000D01*
X158700000Y-104850000D01*
X158630000Y-104790000D01*
X158580000Y-104730000D01*
X158540000Y-104650000D01*
X158520000Y-104570000D01*
X158530000Y-104480000D01*
X158550000Y-104400000D01*
X158590000Y-104330000D01*
X158640000Y-104270000D01*
X158710000Y-104230000D01*
X158780000Y-104200000D01*
X158870000Y-104190000D01*
X158970000Y-104180000D01*
X159090000Y-103920000D01*
X159090000Y-103840000D01*
X159120000Y-103780000D01*
X159200000Y-103760000D01*
X159260000Y-103700000D01*
X159290000Y-103630000D01*
X159290000Y-103530000D01*
X159270000Y-103450000D01*
X159220000Y-103390000D01*
X159150000Y-103360000D01*
X159060000Y-103350000D01*
X158980000Y-103370000D01*
X158920000Y-103420000D01*
X158880000Y-103490000D01*
X158860000Y-103580000D01*
X158860000Y-103660000D01*
X158810000Y-103690000D01*
X158740000Y-103650000D01*
X158740000Y-103570000D01*
X158730000Y-103480000D01*
X158690000Y-103410000D01*
X158620000Y-103370000D01*
X158530000Y-103360000D01*
X158440000Y-103380000D01*
X158380000Y-103430000D01*
X158350000Y-103500000D01*
X158350000Y-103600000D01*
X158370000Y-103680000D01*
X158420000Y-103740000D01*
X158500000Y-103770000D01*
X158540000Y-103820000D01*
X158540000Y-103910000D01*
X158470000Y-103910000D01*
X158390000Y-103880000D01*
X158330000Y-103830000D01*
X158280000Y-103770000D01*
X158240000Y-103690000D01*
X158230000Y-103610000D01*
X158230000Y-103510000D01*
X158250000Y-103430000D01*
X158280000Y-103350000D01*
X158330000Y-103290000D01*
X158400000Y-103250000D01*
X158480000Y-103230000D01*
X158570000Y-103220000D01*
X158520000Y-102940000D01*
X158440000Y-102920000D01*
X158370000Y-102870000D01*
X158320000Y-102820000D01*
X158280000Y-102750000D01*
X158250000Y-102670000D01*
X158240000Y-102570000D01*
X158250000Y-102480000D01*
X158280000Y-102400000D01*
X158320000Y-102330000D01*
X158370000Y-102280000D01*
X158450000Y-102240000D01*
X158530000Y-102220000D01*
X158600000Y-102220000D01*
X158660000Y-102240000D01*
X158830000Y-101950000D01*
X158830000Y-101610000D01*
X158880000Y-101580000D01*
X158950000Y-101590000D01*
X159090000Y-101280000D01*
X159060000Y-101230000D01*
X159060000Y-101150000D01*
X159130000Y-101120000D01*
X159200000Y-101080000D01*
X159250000Y-101020000D01*
X159280000Y-100940000D01*
X159290000Y-100850000D01*
X159280000Y-100760000D01*
X159250000Y-100680000D01*
X159200000Y-100620000D01*
X159120000Y-100600000D01*
X159030000Y-100610000D01*
X158970000Y-100650000D01*
X158940000Y-100710000D01*
X158900000Y-100790000D01*
X158870000Y-100900000D01*
X158840000Y-101000000D01*
X158800000Y-101070000D01*
X158760000Y-101130000D01*
X158710000Y-101190000D01*
X158630000Y-101230000D01*
X158550000Y-101250000D01*
X158470000Y-101240000D01*
X158390000Y-101210000D01*
X158330000Y-101150000D01*
X158280000Y-101080000D01*
X158250000Y-101010000D01*
X158230000Y-100920000D01*
X158230000Y-100830000D01*
X158240000Y-100740000D01*
X158260000Y-100670000D01*
X158300000Y-100590000D01*
X158360000Y-100530000D01*
X158430000Y-100480000D01*
X158510000Y-100460000D01*
X158570000Y-100470000D01*
X158570000Y-100550000D01*
X158540000Y-100610000D01*
X158460000Y-100630000D01*
X158400000Y-100680000D01*
X158360000Y-100750000D01*
X158350000Y-100840000D01*
X158350000Y-100930000D01*
X158380000Y-101010000D01*
X158440000Y-101070000D01*
X158510000Y-101090000D01*
X158600000Y-101080000D01*
X158660000Y-101030000D01*
X158690000Y-100970000D01*
X158730000Y-100880000D01*
X158760000Y-100780000D01*
X158790000Y-100700000D01*
X158820000Y-100630000D01*
X158870000Y-100560000D01*
X158930000Y-100500000D01*
X159000000Y-100460000D01*
X159080000Y-100440000D01*
X159170000Y-100450000D01*
X159250000Y-100480000D01*
X159310000Y-100530000D01*
X159360000Y-100600000D01*
X159390000Y-100670000D01*
X159410000Y-100750000D01*
X159410000Y-100850000D01*
X159410000Y-100930000D01*
X159390000Y-101010000D01*
X159350000Y-101090000D01*
X159310000Y-101160000D01*
X159250000Y-101220000D01*
X159170000Y-101260000D01*
X159090000Y-101280000D01*
X158950000Y-101590000D01*
X158950000Y-101930000D01*
X158900000Y-101970000D01*
X158830000Y-101950000D01*
X158670000Y-102240000D01*
X158740000Y-102280000D01*
X158810000Y-102320000D01*
X158890000Y-102380000D01*
X158970000Y-102450000D01*
X159280000Y-102740000D01*
X159290000Y-102690000D01*
X159290000Y-102180000D01*
X159370000Y-102170000D01*
X159410000Y-102180000D01*
X159410000Y-102860000D01*
X159400000Y-102930000D01*
X159310000Y-102930000D01*
X159250000Y-102880000D01*
X158870000Y-102540000D01*
X158800000Y-102470000D01*
X158730000Y-102430000D01*
X158660000Y-102390000D01*
X158580000Y-102370000D01*
X158500000Y-102380000D01*
X158430000Y-102420000D01*
X158380000Y-102490000D01*
X158360000Y-102580000D01*
X158380000Y-102670000D01*
X158420000Y-102730000D01*
X158480000Y-102780000D01*
X158560000Y-102800000D01*
X158600000Y-102850000D01*
X158600000Y-102940000D01*
X158520000Y-102940000D01*
X158570000Y-103220000D01*
X158650000Y-103240000D01*
X158720000Y-103280000D01*
X158780000Y-103350000D01*
X158820000Y-103370000D01*
X158860000Y-103300000D01*
X158920000Y-103240000D01*
X159000000Y-103210000D01*
X159080000Y-103200000D01*
X159170000Y-103210000D01*
X159250000Y-103250000D01*
X159310000Y-103300000D01*
X159360000Y-103360000D01*
X159390000Y-103440000D01*
X159410000Y-103520000D01*
X159410000Y-103610000D01*
X159390000Y-103700000D01*
X159360000Y-103770000D01*
X159310000Y-103840000D01*
X159250000Y-103890000D01*
X159170000Y-103920000D01*
X159090000Y-103930000D01*
X158970000Y-104190000D01*
X159010000Y-104230000D01*
X159010000Y-104740000D01*
X159060000Y-104760000D01*
X159140000Y-104740000D01*
X159210000Y-104700000D01*
X159270000Y-104630000D01*
X159290000Y-104550000D01*
X159290000Y-104470000D01*
X159260000Y-104390000D01*
X159210000Y-104320000D01*
X159200000Y-104260000D01*
X159250000Y-104210000D01*
X159320000Y-104260000D01*
X159370000Y-104320000D01*
X159400000Y-104400000D01*
X159410000Y-104490000D01*
X159410000Y-104540000D01*
X159400000Y-104630000D01*
X159370000Y-104710000D01*
X159320000Y-104780000D01*
X159260000Y-104830000D01*
X159200000Y-104870000D01*
X159120000Y-104900000D01*
X159030000Y-104910000D01*
X158940000Y-104910000D01*
X158950000Y-105170000D01*
X159010000Y-105190000D01*
X159010000Y-105700000D01*
X159040000Y-105750000D01*
X159130000Y-105730000D01*
X159200000Y-105690000D01*
X159260000Y-105630000D01*
X159290000Y-105560000D01*
X159290000Y-105470000D01*
X159270000Y-105390000D01*
X159180000Y-105260000D01*
X159240000Y-105190000D01*
X159300000Y-105230000D01*
X159360000Y-105290000D01*
X159390000Y-105360000D01*
X159410000Y-105450000D01*
X159400000Y-105590000D01*
X159380000Y-105670000D01*
X159340000Y-105740000D01*
X159280000Y-105800000D01*
X159210000Y-105850000D01*
X159140000Y-105880000D01*
X159050000Y-105890000D01*
X159080000Y-106130000D01*
X159170000Y-106140000D01*
X159250000Y-106170000D01*
X159310000Y-106220000D01*
X159360000Y-106280000D01*
X159390000Y-106350000D01*
X159410000Y-106440000D01*
X159410000Y-106530000D01*
X159410000Y-106870000D01*
X159350000Y-106920000D01*
X159200000Y-107220000D01*
X159270000Y-107250000D01*
X159330000Y-107310000D01*
X159370000Y-107380000D01*
X159400000Y-107460000D01*
X159410000Y-107540000D01*
X159410000Y-107640000D01*
X159400000Y-107720000D01*
X159380000Y-107800000D01*
X159340000Y-107880000D01*
X159280000Y-107950000D01*
X159220000Y-107990000D01*
X159140000Y-108030000D01*
X159060000Y-108040000D01*
X159050000Y-108250000D01*
X159140000Y-108260000D01*
X159210000Y-108290000D01*
X159280000Y-108340000D01*
X159330000Y-108400000D01*
X159370000Y-108470000D01*
X159400000Y-108550000D01*
X159410000Y-108640000D01*
X159410000Y-108730000D01*
X159390000Y-108820000D01*
X159370000Y-108890000D01*
X159320000Y-108960000D01*
X159270000Y-109010000D01*
X159200000Y-109050000D01*
X159120000Y-109080000D01*
X159020000Y-109090000D01*
X158260000Y-109090000D01*
X157970000Y-109200000D01*
X157970000Y-109230000D01*
G37*
X157970000Y-109230000D02*
X157980000Y-109320000D01*
X158000000Y-109400000D01*
X158020000Y-109480000D01*
X158050000Y-109560000D01*
X158090000Y-109630000D01*
X158140000Y-109700000D01*
X158190000Y-109770000D01*
X158260000Y-109830000D01*
X158320000Y-109880000D01*
X158390000Y-109930000D01*
X158470000Y-109970000D01*
X158550000Y-110000000D01*
X158630000Y-110020000D01*
X158710000Y-110040000D01*
X158790000Y-110040000D01*
X158880000Y-110040000D01*
X158960000Y-110030000D01*
X159050000Y-110010000D01*
X159130000Y-109990000D01*
X159200000Y-109950000D01*
X159280000Y-109910000D01*
X159350000Y-109860000D01*
X159410000Y-109800000D01*
X159470000Y-109740000D01*
X159520000Y-109680000D01*
X159560000Y-109600000D01*
X159600000Y-109530000D01*
X159630000Y-109450000D01*
X159650000Y-109370000D01*
X159660000Y-109280000D01*
X159670000Y-109200000D01*
X159670000Y-99290000D01*
X159410000Y-99400000D01*
X159410000Y-100160000D01*
X159330000Y-100160000D01*
X159260000Y-100120000D01*
X158880000Y-99780000D01*
X158810000Y-99710000D01*
X158740000Y-99660000D01*
X158680000Y-99630000D01*
X158600000Y-99610000D01*
X158510000Y-99610000D01*
X158440000Y-99650000D01*
X158380000Y-99710000D01*
X158360000Y-99790000D01*
X158370000Y-99880000D01*
X158410000Y-99950000D01*
X158470000Y-100010000D01*
X158540000Y-100030000D01*
X158600000Y-100070000D01*
X158600000Y-100150000D01*
X158540000Y-100180000D01*
X158450000Y-100150000D01*
X158380000Y-100110000D01*
X158320000Y-100060000D01*
X158280000Y-99990000D01*
X158260000Y-99910000D01*
X158240000Y-99820000D01*
X158250000Y-99730000D01*
X158270000Y-99650000D01*
X158310000Y-99580000D01*
X158360000Y-99520000D01*
X158430000Y-99470000D01*
X158520000Y-99450000D01*
X158590000Y-99450000D01*
X158650000Y-99470000D01*
X158720000Y-99500000D01*
X158800000Y-99540000D01*
X158880000Y-99600000D01*
X158960000Y-99670000D01*
X159270000Y-99960000D01*
X159290000Y-99930000D01*
X159290000Y-99430000D01*
X159350000Y-99400000D01*
X159410000Y-99400000D01*
X159670000Y-99290000D01*
X159670000Y-99210000D01*
X159660000Y-99120000D01*
X159650000Y-99040000D01*
X159620000Y-98960000D01*
X159590000Y-98880000D01*
X159550000Y-98800000D01*
X159510000Y-98730000D01*
X159460000Y-98660000D01*
X159400000Y-98600000D01*
X159330000Y-98550000D01*
X159260000Y-98500000D01*
X159190000Y-98460000D01*
X159110000Y-98430000D01*
X159030000Y-98400000D01*
X158950000Y-98390000D01*
X158860000Y-98380000D01*
X158780000Y-98380000D01*
X158690000Y-98390000D01*
X158610000Y-98400000D01*
X158530000Y-98430000D01*
X158450000Y-98460000D01*
X158380000Y-98500000D01*
X158310000Y-98550000D01*
X158240000Y-98600000D01*
X158180000Y-98660000D01*
X158130000Y-98730000D01*
X158090000Y-98800000D01*
X158050000Y-98880000D01*
X158020000Y-98960000D01*
X157990000Y-99040000D01*
X157980000Y-99120000D01*
X157970000Y-99210000D01*
X157970000Y-99290000D01*
X157970000Y-109200000D01*
X158260000Y-109090000D01*
X158240000Y-109030000D01*
X158240000Y-108940000D01*
X158310000Y-108930000D01*
X158990000Y-108930000D01*
X159080000Y-108930000D01*
X159160000Y-108910000D01*
X159220000Y-108860000D01*
X159260000Y-108800000D01*
X159280000Y-108710000D01*
X159280000Y-108610000D01*
X159260000Y-108530000D01*
X159220000Y-108470000D01*
X159150000Y-108430000D01*
X159070000Y-108400000D01*
X158980000Y-108400000D01*
X158300000Y-108400000D01*
X158240000Y-108380000D01*
X158240000Y-108300000D01*
X158280000Y-108250000D01*
X159050000Y-108250000D01*
X159060000Y-108040000D01*
X159060000Y-107950000D01*
X159080000Y-107880000D01*
X159160000Y-107860000D01*
X159220000Y-107810000D01*
X159260000Y-107750000D01*
X159280000Y-107660000D01*
X159280000Y-107570000D01*
X159270000Y-107480000D01*
X159240000Y-107410000D01*
X159170000Y-107360000D01*
X159080000Y-107350000D01*
X159000000Y-107380000D01*
X158960000Y-107430000D01*
X158920000Y-107490000D01*
X158890000Y-107580000D01*
X158860000Y-107700000D01*
X158820000Y-107790000D01*
X158780000Y-107860000D01*
X158740000Y-107910000D01*
X158680000Y-107970000D01*
X158600000Y-108000000D01*
X158520000Y-108000000D01*
X158440000Y-107980000D01*
X158360000Y-107940000D01*
X158310000Y-107880000D01*
X158270000Y-107810000D01*
X158240000Y-107730000D01*
X158230000Y-107640000D01*
X158230000Y-107550000D01*
X158250000Y-107470000D01*
X158270000Y-107390000D01*
X158320000Y-107320000D01*
X158380000Y-107270000D01*
X158460000Y-107230000D01*
X158540000Y-107210000D01*
X158570000Y-107260000D01*
X158570000Y-107340000D01*
X158500000Y-107370000D01*
X158430000Y-107400000D01*
X158380000Y-107460000D01*
X158350000Y-107540000D01*
X158350000Y-107640000D01*
X158360000Y-107720000D01*
X158400000Y-107790000D01*
X158460000Y-107840000D01*
X158550000Y-107850000D01*
X158630000Y-107820000D01*
X158670000Y-107760000D01*
X158710000Y-107690000D01*
X158770000Y-107500000D01*
X158800000Y-107420000D01*
X158840000Y-107360000D01*
X158890000Y-107290000D01*
X158950000Y-107240000D01*
X159030000Y-107210000D01*
X159120000Y-107200000D01*
X159200000Y-107210000D01*
X159350000Y-106920000D01*
X158330000Y-106920000D01*
X158250000Y-106910000D01*
X158250000Y-106580000D01*
X158260000Y-106480000D01*
X158270000Y-106390000D01*
X158300000Y-106310000D01*
X158340000Y-106260000D01*
X158400000Y-106210000D01*
X158470000Y-106180000D01*
X158570000Y-106170000D01*
X158650000Y-106180000D01*
X158720000Y-106220000D01*
X158780000Y-106290000D01*
X158810000Y-106310000D01*
X158860000Y-106230000D01*
X158920000Y-106180000D01*
X158990000Y-106140000D01*
X159080000Y-106130000D01*
X159050000Y-105890000D01*
X158960000Y-105890000D01*
X158870000Y-105890000D01*
X158790000Y-105870000D01*
X158710000Y-105840000D01*
X158640000Y-105790000D01*
X158590000Y-105730000D01*
X158550000Y-105650000D01*
X158530000Y-105570000D01*
X158530000Y-105480000D01*
X158540000Y-105400000D01*
X158580000Y-105320000D01*
X158630000Y-105260000D01*
X158690000Y-105220000D01*
X158760000Y-105190000D01*
X158850000Y-105170000D01*
X158950000Y-105170000D01*
X158940000Y-104910000D01*
X158850000Y-104900000D01*
X158770000Y-104880000D01*
X158700000Y-104850000D01*
X158630000Y-104790000D01*
X158580000Y-104730000D01*
X158540000Y-104650000D01*
X158520000Y-104570000D01*
X158530000Y-104480000D01*
X158550000Y-104400000D01*
X158590000Y-104330000D01*
X158640000Y-104270000D01*
X158710000Y-104230000D01*
X158780000Y-104200000D01*
X158870000Y-104190000D01*
X158970000Y-104180000D01*
X159090000Y-103920000D01*
X159090000Y-103840000D01*
X159120000Y-103780000D01*
X159200000Y-103760000D01*
X159260000Y-103700000D01*
X159290000Y-103630000D01*
X159290000Y-103530000D01*
X159270000Y-103450000D01*
X159220000Y-103390000D01*
X159150000Y-103360000D01*
X159060000Y-103350000D01*
X158980000Y-103370000D01*
X158920000Y-103420000D01*
X158880000Y-103490000D01*
X158860000Y-103580000D01*
X158860000Y-103660000D01*
X158810000Y-103690000D01*
X158740000Y-103650000D01*
X158740000Y-103570000D01*
X158730000Y-103480000D01*
X158690000Y-103410000D01*
X158620000Y-103370000D01*
X158530000Y-103360000D01*
X158440000Y-103380000D01*
X158380000Y-103430000D01*
X158350000Y-103500000D01*
X158350000Y-103600000D01*
X158370000Y-103680000D01*
X158420000Y-103740000D01*
X158500000Y-103770000D01*
X158540000Y-103820000D01*
X158540000Y-103910000D01*
X158470000Y-103910000D01*
X158390000Y-103880000D01*
X158330000Y-103830000D01*
X158280000Y-103770000D01*
X158240000Y-103690000D01*
X158230000Y-103610000D01*
X158230000Y-103510000D01*
X158250000Y-103430000D01*
X158280000Y-103350000D01*
X158330000Y-103290000D01*
X158400000Y-103250000D01*
X158480000Y-103230000D01*
X158570000Y-103220000D01*
X158520000Y-102940000D01*
X158440000Y-102920000D01*
X158370000Y-102870000D01*
X158320000Y-102820000D01*
X158280000Y-102750000D01*
X158250000Y-102670000D01*
X158240000Y-102570000D01*
X158250000Y-102480000D01*
X158280000Y-102400000D01*
X158320000Y-102330000D01*
X158370000Y-102280000D01*
X158450000Y-102240000D01*
X158530000Y-102220000D01*
X158600000Y-102220000D01*
X158660000Y-102240000D01*
X158830000Y-101950000D01*
X158830000Y-101610000D01*
X158880000Y-101580000D01*
X158950000Y-101590000D01*
X159090000Y-101280000D01*
X159060000Y-101230000D01*
X159060000Y-101150000D01*
X159130000Y-101120000D01*
X159200000Y-101080000D01*
X159250000Y-101020000D01*
X159280000Y-100940000D01*
X159290000Y-100850000D01*
X159280000Y-100760000D01*
X159250000Y-100680000D01*
X159200000Y-100620000D01*
X159120000Y-100600000D01*
X159030000Y-100610000D01*
X158970000Y-100650000D01*
X158940000Y-100710000D01*
X158900000Y-100790000D01*
X158870000Y-100900000D01*
X158840000Y-101000000D01*
X158800000Y-101070000D01*
X158760000Y-101130000D01*
X158710000Y-101190000D01*
X158630000Y-101230000D01*
X158550000Y-101250000D01*
X158470000Y-101240000D01*
X158390000Y-101210000D01*
X158330000Y-101150000D01*
X158280000Y-101080000D01*
X158250000Y-101010000D01*
X158230000Y-100920000D01*
X158230000Y-100830000D01*
X158240000Y-100740000D01*
X158260000Y-100670000D01*
X158300000Y-100590000D01*
X158360000Y-100530000D01*
X158430000Y-100480000D01*
X158510000Y-100460000D01*
X158570000Y-100470000D01*
X158570000Y-100550000D01*
X158540000Y-100610000D01*
X158460000Y-100630000D01*
X158400000Y-100680000D01*
X158360000Y-100750000D01*
X158350000Y-100840000D01*
X158350000Y-100930000D01*
X158380000Y-101010000D01*
X158440000Y-101070000D01*
X158510000Y-101090000D01*
X158600000Y-101080000D01*
X158660000Y-101030000D01*
X158690000Y-100970000D01*
X158730000Y-100880000D01*
X158760000Y-100780000D01*
X158790000Y-100700000D01*
X158820000Y-100630000D01*
X158870000Y-100560000D01*
X158930000Y-100500000D01*
X159000000Y-100460000D01*
X159080000Y-100440000D01*
X159170000Y-100450000D01*
X159250000Y-100480000D01*
X159310000Y-100530000D01*
X159360000Y-100600000D01*
X159390000Y-100670000D01*
X159410000Y-100750000D01*
X159410000Y-100850000D01*
X159410000Y-100930000D01*
X159390000Y-101010000D01*
X159350000Y-101090000D01*
X159310000Y-101160000D01*
X159250000Y-101220000D01*
X159170000Y-101260000D01*
X159090000Y-101280000D01*
X158950000Y-101590000D01*
X158950000Y-101930000D01*
X158900000Y-101970000D01*
X158830000Y-101950000D01*
X158670000Y-102240000D01*
X158740000Y-102280000D01*
X158810000Y-102320000D01*
X158890000Y-102380000D01*
X158970000Y-102450000D01*
X159280000Y-102740000D01*
X159290000Y-102690000D01*
X159290000Y-102180000D01*
X159370000Y-102170000D01*
X159410000Y-102180000D01*
X159410000Y-102860000D01*
X159400000Y-102930000D01*
X159310000Y-102930000D01*
X159250000Y-102880000D01*
X158870000Y-102540000D01*
X158800000Y-102470000D01*
X158730000Y-102430000D01*
X158660000Y-102390000D01*
X158580000Y-102370000D01*
X158500000Y-102380000D01*
X158430000Y-102420000D01*
X158380000Y-102490000D01*
X158360000Y-102580000D01*
X158380000Y-102670000D01*
X158420000Y-102730000D01*
X158480000Y-102780000D01*
X158560000Y-102800000D01*
X158600000Y-102850000D01*
X158600000Y-102940000D01*
X158520000Y-102940000D01*
X158570000Y-103220000D01*
X158650000Y-103240000D01*
X158720000Y-103280000D01*
X158780000Y-103350000D01*
X158820000Y-103370000D01*
X158860000Y-103300000D01*
X158920000Y-103240000D01*
X159000000Y-103210000D01*
X159080000Y-103200000D01*
X159170000Y-103210000D01*
X159250000Y-103250000D01*
X159310000Y-103300000D01*
X159360000Y-103360000D01*
X159390000Y-103440000D01*
X159410000Y-103520000D01*
X159410000Y-103610000D01*
X159390000Y-103700000D01*
X159360000Y-103770000D01*
X159310000Y-103840000D01*
X159250000Y-103890000D01*
X159170000Y-103920000D01*
X159090000Y-103930000D01*
X158970000Y-104190000D01*
X159010000Y-104230000D01*
X159010000Y-104740000D01*
X159060000Y-104760000D01*
X159140000Y-104740000D01*
X159210000Y-104700000D01*
X159270000Y-104630000D01*
X159290000Y-104550000D01*
X159290000Y-104470000D01*
X159260000Y-104390000D01*
X159210000Y-104320000D01*
X159200000Y-104260000D01*
X159250000Y-104210000D01*
X159320000Y-104260000D01*
X159370000Y-104320000D01*
X159400000Y-104400000D01*
X159410000Y-104490000D01*
X159410000Y-104540000D01*
X159400000Y-104630000D01*
X159370000Y-104710000D01*
X159320000Y-104780000D01*
X159260000Y-104830000D01*
X159200000Y-104870000D01*
X159120000Y-104900000D01*
X159030000Y-104910000D01*
X158940000Y-104910000D01*
X158950000Y-105170000D01*
X159010000Y-105190000D01*
X159010000Y-105700000D01*
X159040000Y-105750000D01*
X159130000Y-105730000D01*
X159200000Y-105690000D01*
X159260000Y-105630000D01*
X159290000Y-105560000D01*
X159290000Y-105470000D01*
X159270000Y-105390000D01*
X159180000Y-105260000D01*
X159240000Y-105190000D01*
X159300000Y-105230000D01*
X159360000Y-105290000D01*
X159390000Y-105360000D01*
X159410000Y-105450000D01*
X159400000Y-105590000D01*
X159380000Y-105670000D01*
X159340000Y-105740000D01*
X159280000Y-105800000D01*
X159210000Y-105850000D01*
X159140000Y-105880000D01*
X159050000Y-105890000D01*
X159080000Y-106130000D01*
X159170000Y-106140000D01*
X159250000Y-106170000D01*
X159310000Y-106220000D01*
X159360000Y-106280000D01*
X159390000Y-106350000D01*
X159410000Y-106440000D01*
X159410000Y-106530000D01*
X159410000Y-106870000D01*
X159350000Y-106920000D01*
X159200000Y-107220000D01*
X159270000Y-107250000D01*
X159330000Y-107310000D01*
X159370000Y-107380000D01*
X159400000Y-107460000D01*
X159410000Y-107540000D01*
X159410000Y-107640000D01*
X159400000Y-107720000D01*
X159380000Y-107800000D01*
X159340000Y-107880000D01*
X159280000Y-107950000D01*
X159220000Y-107990000D01*
X159140000Y-108030000D01*
X159060000Y-108040000D01*
X159050000Y-108250000D01*
X159140000Y-108260000D01*
X159210000Y-108290000D01*
X159280000Y-108340000D01*
X159330000Y-108400000D01*
X159370000Y-108470000D01*
X159400000Y-108550000D01*
X159410000Y-108640000D01*
X159410000Y-108730000D01*
X159390000Y-108820000D01*
X159370000Y-108890000D01*
X159320000Y-108960000D01*
X159270000Y-109010000D01*
X159200000Y-109050000D01*
X159120000Y-109080000D01*
X159020000Y-109090000D01*
X158260000Y-109090000D01*
X157970000Y-109200000D01*
X157970000Y-109230000D01*
G36*
X158910000Y-106770000D02*
G01*
X159250000Y-106770000D01*
X159290000Y-106720000D01*
X159290000Y-106550000D01*
X159280000Y-106460000D01*
X159260000Y-106390000D01*
X159200000Y-106320000D01*
X159130000Y-106290000D01*
X159040000Y-106290000D01*
X158960000Y-106310000D01*
X158910000Y-106360000D01*
X158880000Y-106440000D01*
X158870000Y-106530000D01*
X158870000Y-106700000D01*
X158750000Y-106750000D01*
X158750000Y-106580000D01*
X158750000Y-106490000D01*
X158720000Y-106410000D01*
X158670000Y-106350000D01*
X158590000Y-106320000D01*
X158500000Y-106330000D01*
X158430000Y-106370000D01*
X158400000Y-106430000D01*
X158380000Y-106520000D01*
X158380000Y-106690000D01*
X158390000Y-106770000D01*
X158730000Y-106770000D01*
X158910000Y-106770000D01*
G37*
X158910000Y-106770000D02*
X159250000Y-106770000D01*
X159290000Y-106720000D01*
X159290000Y-106550000D01*
X159280000Y-106460000D01*
X159260000Y-106390000D01*
X159200000Y-106320000D01*
X159130000Y-106290000D01*
X159040000Y-106290000D01*
X158960000Y-106310000D01*
X158910000Y-106360000D01*
X158880000Y-106440000D01*
X158870000Y-106530000D01*
X158870000Y-106700000D01*
X158750000Y-106750000D01*
X158750000Y-106580000D01*
X158750000Y-106490000D01*
X158720000Y-106410000D01*
X158670000Y-106350000D01*
X158590000Y-106320000D01*
X158500000Y-106330000D01*
X158430000Y-106370000D01*
X158400000Y-106430000D01*
X158380000Y-106520000D01*
X158380000Y-106690000D01*
X158390000Y-106770000D01*
X158730000Y-106770000D01*
X158910000Y-106770000D01*
G36*
X158640000Y-105550000D02*
G01*
X158670000Y-105630000D01*
X158730000Y-105690000D01*
X158800000Y-105730000D01*
X158890000Y-105740000D01*
X158890000Y-105400000D01*
X158880000Y-105320000D01*
X158790000Y-105330000D01*
X158720000Y-105360000D01*
X158670000Y-105420000D01*
X158640000Y-105500000D01*
X158640000Y-105550000D01*
G37*
X158640000Y-105550000D02*
X158670000Y-105630000D01*
X158730000Y-105690000D01*
X158800000Y-105730000D01*
X158890000Y-105740000D01*
X158890000Y-105400000D01*
X158880000Y-105320000D01*
X158790000Y-105330000D01*
X158720000Y-105360000D01*
X158670000Y-105420000D01*
X158640000Y-105500000D01*
X158640000Y-105550000D01*
G36*
X158650000Y-104590000D02*
G01*
X158690000Y-104660000D01*
X158740000Y-104720000D01*
X158820000Y-104750000D01*
X158890000Y-104740000D01*
X158890000Y-104400000D01*
X158860000Y-104340000D01*
X158770000Y-104350000D01*
X158700000Y-104390000D01*
X158660000Y-104450000D01*
X158640000Y-104540000D01*
X158650000Y-104590000D01*
G37*
X158650000Y-104590000D02*
X158690000Y-104660000D01*
X158740000Y-104720000D01*
X158820000Y-104750000D01*
X158890000Y-104740000D01*
X158890000Y-104400000D01*
X158860000Y-104340000D01*
X158770000Y-104350000D01*
X158700000Y-104390000D01*
X158660000Y-104450000D01*
X158640000Y-104540000D01*
X158650000Y-104590000D01*
D13*
X147026000Y-124780580D02*
X147026000Y-124499420D01*
X148046000Y-124780580D02*
X148046000Y-124499420D01*
X144938000Y-124770580D02*
X144938000Y-124489420D01*
X145958000Y-124770580D02*
X145958000Y-124489420D01*
D14*
X148250000Y-128650000D02*
X148250000Y-130350000D01*
X149550000Y-130350000D02*
X149550000Y-128650000D01*
D15*
X149000000Y-127300000D02*
G75*
G03*
X149000000Y-127300000I-100000J0D01*
G01*
D13*
X148900000Y-129000000D02*
X149350000Y-129950000D01*
X149350000Y-129950000D02*
X148550000Y-129950000D01*
X148550000Y-129950000D02*
X148900000Y-129000000D01*
X140427064Y-125160000D02*
X139222936Y-125160000D01*
X140427064Y-123340000D02*
X139222936Y-123340000D01*
X161910000Y-67345000D02*
X163240000Y-67345000D01*
X161910000Y-68675000D02*
X161910000Y-67345000D01*
X161910000Y-69945000D02*
X164570000Y-69945000D01*
X164570000Y-69945000D02*
X164570000Y-123345000D01*
X161910000Y-69945000D02*
X161910000Y-123345000D01*
X161910000Y-123345000D02*
X164570000Y-123345000D01*
D11*
X141700000Y-67200000D02*
X141700000Y-60700000D01*
X141700000Y-60700000D02*
X159700000Y-60700000D01*
X159700000Y-60700000D02*
X159700000Y-67200000D01*
D15*
X140700000Y-68200000D02*
X140700000Y-68200000D01*
X140500000Y-68200000D02*
X140500000Y-68200000D01*
X140700000Y-68200000D02*
G75*
G02*
X140500000Y-68200000I-100000J0D01*
G01*
X140500000Y-68200000D02*
G75*
G02*
X140700000Y-68200000I100000J0D01*
G01*
D13*
X146011580Y-103329740D02*
X146011580Y-105279740D01*
X146011580Y-103329740D02*
X146011580Y-101379740D01*
X156131580Y-103329740D02*
X156131580Y-105279740D01*
X156131580Y-103329740D02*
X156131580Y-99879740D01*
X153800000Y-108689420D02*
X153800000Y-108970580D01*
X154820000Y-108689420D02*
X154820000Y-108970580D01*
X145930000Y-134900000D02*
X145930000Y-133900000D01*
X140400000Y-127330000D02*
X143400000Y-127330000D01*
X145550000Y-133880000D02*
X145550000Y-129380000D01*
X138250000Y-133880000D02*
X138250000Y-129380000D01*
X145550000Y-146830000D02*
X145550000Y-136380000D01*
X138250000Y-146830000D02*
X145550000Y-146830000D01*
X138250000Y-146830000D02*
X138250000Y-136380000D01*
X157060000Y-121240000D02*
X156860000Y-121240000D01*
X157060000Y-117340000D02*
X156860000Y-117340000D01*
X154160000Y-121240000D02*
X154360000Y-121240000D01*
X154160000Y-117340000D02*
X154360000Y-117340000D01*
X157060000Y-117340000D02*
X157060000Y-121240000D01*
X154160000Y-121240000D02*
X154160000Y-117340000D01*
X152750000Y-121220000D02*
X152550000Y-121220000D01*
X152750000Y-117320000D02*
X152550000Y-117320000D01*
X149850000Y-121220000D02*
X150050000Y-121220000D01*
X149850000Y-117320000D02*
X150050000Y-117320000D01*
X152750000Y-117320000D02*
X152750000Y-121220000D01*
X149850000Y-121220000D02*
X149850000Y-117320000D01*
D15*
X151549140Y-110687100D02*
X151549140Y-110687100D01*
X151549140Y-110587100D02*
X151549140Y-110587100D01*
X151549140Y-110687100D02*
X151549140Y-110687100D01*
X151549140Y-110587100D02*
G75*
G02*
X151549140Y-110687100I0J-50000D01*
G01*
X151549140Y-110687100D02*
G75*
G02*
X151549140Y-110587100I0J50000D01*
G01*
X151549140Y-110587100D02*
G75*
G02*
X151549140Y-110687100I0J-50000D01*
G01*
D13*
X150232500Y-108662742D02*
X150232500Y-109137258D01*
X149187500Y-108662742D02*
X149187500Y-109137258D01*
X148422500Y-120502742D02*
X148422500Y-120977258D01*
X147377500Y-120502742D02*
X147377500Y-120977258D01*
X137120000Y-113185000D02*
X139780000Y-113185000D01*
X137120000Y-69945000D02*
X137120000Y-113185000D01*
X139780000Y-69945000D02*
X139780000Y-113185000D01*
X137120000Y-69945000D02*
X139780000Y-69945000D01*
X137120000Y-68675000D02*
X137120000Y-67345000D01*
X137120000Y-67345000D02*
X138450000Y-67345000D01*
X147205000Y-115810000D02*
X147205000Y-118295000D01*
X147205000Y-118295000D02*
X148575000Y-118295000D01*
X148575000Y-118295000D02*
X148575000Y-115810000D01*
X149149000Y-124815580D02*
X149149000Y-124534420D01*
X150169000Y-124815580D02*
X150169000Y-124534420D01*
X148726620Y-112601620D02*
X148726620Y-112320460D01*
X147706620Y-112601620D02*
X147706620Y-112320460D01*
X148450000Y-97239420D02*
X148450000Y-97520580D01*
X149470000Y-97239420D02*
X149470000Y-97520580D01*
X154380000Y-97580580D02*
X154380000Y-97299420D01*
X153360000Y-97580580D02*
X153360000Y-97299420D01*
X142432500Y-108702742D02*
X142432500Y-109177258D01*
X141387500Y-108702742D02*
X141387500Y-109177258D01*
X156127500Y-125477258D02*
X156127500Y-125002742D01*
X157172500Y-125477258D02*
X157172500Y-125002742D01*
X143095000Y-104140000D02*
X143095000Y-106625000D01*
X143095000Y-106625000D02*
X144465000Y-106625000D01*
X144465000Y-106625000D02*
X144465000Y-104140000D01*
X159097500Y-125417258D02*
X159097500Y-124942742D01*
X160142500Y-125417258D02*
X160142500Y-124942742D01*
X144515000Y-109530000D02*
X144515000Y-107045000D01*
X144515000Y-107045000D02*
X143145000Y-107045000D01*
X143145000Y-107045000D02*
X143145000Y-109530000D01*
X150580322Y-93396540D02*
X151054838Y-93396540D01*
X150580322Y-94441540D02*
X151054838Y-94441540D01*
X146979880Y-112234582D02*
X146979880Y-112709098D01*
X145934880Y-112234582D02*
X145934880Y-112709098D01*
X144390000Y-122050000D02*
X144390000Y-120790000D01*
X144390000Y-115230000D02*
X144390000Y-116490000D01*
X140630000Y-122050000D02*
X144390000Y-122050000D01*
X138380000Y-115230000D02*
X144390000Y-115230000D01*
X151115120Y-97617938D02*
X151115120Y-97143422D01*
X150070120Y-97617938D02*
X150070120Y-97143422D01*
D15*
X154810000Y-114190000D02*
X154810000Y-114190000D01*
X154810000Y-114290000D02*
X154810000Y-114290000D01*
X154810000Y-114190000D02*
X154810000Y-114190000D01*
X154810000Y-114290000D02*
G75*
G02*
X154810000Y-114190000I0J50000D01*
G01*
X154810000Y-114190000D02*
G75*
G02*
X154810000Y-114290000I0J-50000D01*
G01*
X154810000Y-114290000D02*
G75*
G02*
X154810000Y-114190000I0J50000D01*
G01*
D13*
X144322500Y-101252742D02*
X144322500Y-101727258D01*
X143277500Y-101252742D02*
X143277500Y-101727258D01*
X152762500Y-97182742D02*
X152762500Y-97657258D01*
X151717500Y-97182742D02*
X151717500Y-97657258D01*
X147810000Y-97520580D02*
X147810000Y-97239420D01*
X146790000Y-97520580D02*
X146790000Y-97239420D01*
X153465000Y-124509420D02*
X153465000Y-124790580D01*
X154485000Y-124509420D02*
X154485000Y-124790580D01*
X151307000Y-124534420D02*
X151307000Y-124815580D01*
X152327000Y-124534420D02*
X152327000Y-124815580D01*
X143835000Y-124770580D02*
X143835000Y-124489420D01*
X142815000Y-124770580D02*
X142815000Y-124489420D01*
X147702500Y-108642742D02*
X147702500Y-109117258D01*
X146657500Y-108642742D02*
X146657500Y-109117258D01*
D15*
X154560000Y-127500000D02*
G75*
G03*
X154560000Y-127500000I-100000J0D01*
G01*
D14*
X153390000Y-136500000D02*
X153390000Y-135270000D01*
X162330000Y-136500000D02*
X153390000Y-136500000D01*
X162330000Y-135270000D02*
X162330000Y-136500000D01*
X162330000Y-131090000D02*
X162330000Y-132530000D01*
X153390000Y-131090000D02*
X153390000Y-132530000D01*
D10*
X147180285Y-127060000D02*
X147151714Y-127093333D01*
X147066000Y-127126666D01*
X147008857Y-127126666D01*
X146923142Y-127093333D01*
X146866000Y-127026666D01*
X146837428Y-126960000D01*
X146808857Y-126826666D01*
X146808857Y-126726666D01*
X146837428Y-126593333D01*
X146866000Y-126526666D01*
X146923142Y-126460000D01*
X147008857Y-126426666D01*
X147066000Y-126426666D01*
X147151714Y-126460000D01*
X147180285Y-126493333D01*
X147751714Y-127126666D02*
X147408857Y-127126666D01*
X147580285Y-127126666D02*
X147580285Y-126426666D01*
X147523142Y-126526666D01*
X147466000Y-126593333D01*
X147408857Y-126626666D01*
X148123142Y-126426666D02*
X148180285Y-126426666D01*
X148237428Y-126460000D01*
X148266000Y-126493333D01*
X148294571Y-126560000D01*
X148323142Y-126693333D01*
X148323142Y-126860000D01*
X148294571Y-126993333D01*
X148266000Y-127060000D01*
X148237428Y-127093333D01*
X148180285Y-127126666D01*
X148123142Y-127126666D01*
X148066000Y-127093333D01*
X148037428Y-127060000D01*
X148008857Y-126993333D01*
X147980285Y-126860000D01*
X147980285Y-126693333D01*
X148008857Y-126560000D01*
X148037428Y-126493333D01*
X148066000Y-126460000D01*
X148123142Y-126426666D01*
X145368000Y-127050000D02*
X145339428Y-127083333D01*
X145253714Y-127116666D01*
X145196571Y-127116666D01*
X145110857Y-127083333D01*
X145053714Y-127016666D01*
X145025142Y-126950000D01*
X144996571Y-126816666D01*
X144996571Y-126716666D01*
X145025142Y-126583333D01*
X145053714Y-126516666D01*
X145110857Y-126450000D01*
X145196571Y-126416666D01*
X145253714Y-126416666D01*
X145339428Y-126450000D01*
X145368000Y-126483333D01*
X145710857Y-126716666D02*
X145653714Y-126683333D01*
X145625142Y-126650000D01*
X145596571Y-126583333D01*
X145596571Y-126550000D01*
X145625142Y-126483333D01*
X145653714Y-126450000D01*
X145710857Y-126416666D01*
X145825142Y-126416666D01*
X145882285Y-126450000D01*
X145910857Y-126483333D01*
X145939428Y-126550000D01*
X145939428Y-126583333D01*
X145910857Y-126650000D01*
X145882285Y-126683333D01*
X145825142Y-126716666D01*
X145710857Y-126716666D01*
X145653714Y-126750000D01*
X145625142Y-126783333D01*
X145596571Y-126850000D01*
X145596571Y-126983333D01*
X145625142Y-127050000D01*
X145653714Y-127083333D01*
X145710857Y-127116666D01*
X145825142Y-127116666D01*
X145882285Y-127083333D01*
X145910857Y-127050000D01*
X145939428Y-126983333D01*
X145939428Y-126850000D01*
X145910857Y-126783333D01*
X145882285Y-126750000D01*
X145825142Y-126716666D01*
X150846666Y-129952857D02*
X150146666Y-129952857D01*
X150146666Y-129810000D01*
X150180000Y-129724285D01*
X150246666Y-129667142D01*
X150313333Y-129638571D01*
X150446666Y-129610000D01*
X150546666Y-129610000D01*
X150680000Y-129638571D01*
X150746666Y-129667142D01*
X150813333Y-129724285D01*
X150846666Y-129810000D01*
X150846666Y-129952857D01*
X150846666Y-129038571D02*
X150846666Y-129381428D01*
X150846666Y-129210000D02*
X150146666Y-129210000D01*
X150246666Y-129267142D01*
X150313333Y-129324285D01*
X150346666Y-129381428D01*
X139675000Y-125875000D02*
X139475000Y-125875000D01*
X139475000Y-126241666D02*
X139475000Y-125541666D01*
X139760714Y-125541666D01*
X140303571Y-126241666D02*
X139960714Y-126241666D01*
X140132142Y-126241666D02*
X140132142Y-125541666D01*
X140075000Y-125641666D01*
X140017857Y-125708333D01*
X139960714Y-125741666D01*
X163050000Y-124116666D02*
X163050000Y-124616666D01*
X163021428Y-124716666D01*
X162964285Y-124783333D01*
X162878571Y-124816666D01*
X162821428Y-124816666D01*
X163592857Y-124350000D02*
X163592857Y-124816666D01*
X163450000Y-124083333D02*
X163307142Y-124583333D01*
X163678571Y-124583333D01*
X159052857Y-92026666D02*
X159052857Y-92593333D01*
X159081428Y-92660000D01*
X159110000Y-92693333D01*
X159167142Y-92726666D01*
X159281428Y-92726666D01*
X159338571Y-92693333D01*
X159367142Y-92660000D01*
X159395714Y-92593333D01*
X159395714Y-92026666D01*
X159995714Y-92726666D02*
X159652857Y-92726666D01*
X159824285Y-92726666D02*
X159824285Y-92026666D01*
X159767142Y-92126666D01*
X159710000Y-92193333D01*
X159652857Y-92226666D01*
X156482857Y-105756666D02*
X156482857Y-106323333D01*
X156511428Y-106390000D01*
X156540000Y-106423333D01*
X156597142Y-106456666D01*
X156711428Y-106456666D01*
X156768571Y-106423333D01*
X156797142Y-106390000D01*
X156825714Y-106323333D01*
X156825714Y-105756666D01*
X157082857Y-105823333D02*
X157111428Y-105790000D01*
X157168571Y-105756666D01*
X157311428Y-105756666D01*
X157368571Y-105790000D01*
X157397142Y-105823333D01*
X157425714Y-105890000D01*
X157425714Y-105956666D01*
X157397142Y-106056666D01*
X157054285Y-106456666D01*
X157425714Y-106456666D01*
X154240000Y-111150000D02*
X154211428Y-111183333D01*
X154125714Y-111216666D01*
X154068571Y-111216666D01*
X153982857Y-111183333D01*
X153925714Y-111116666D01*
X153897142Y-111050000D01*
X153868571Y-110916666D01*
X153868571Y-110816666D01*
X153897142Y-110683333D01*
X153925714Y-110616666D01*
X153982857Y-110550000D01*
X154068571Y-110516666D01*
X154125714Y-110516666D01*
X154211428Y-110550000D01*
X154240000Y-110583333D01*
X154754285Y-110516666D02*
X154640000Y-110516666D01*
X154582857Y-110550000D01*
X154554285Y-110583333D01*
X154497142Y-110683333D01*
X154468571Y-110816666D01*
X154468571Y-111083333D01*
X154497142Y-111150000D01*
X154525714Y-111183333D01*
X154582857Y-111216666D01*
X154697142Y-111216666D01*
X154754285Y-111183333D01*
X154782857Y-111150000D01*
X154811428Y-111083333D01*
X154811428Y-110916666D01*
X154782857Y-110850000D01*
X154754285Y-110816666D01*
X154697142Y-110783333D01*
X154582857Y-110783333D01*
X154525714Y-110816666D01*
X154497142Y-110850000D01*
X154468571Y-110916666D01*
X146730000Y-134086666D02*
X146730000Y-134586666D01*
X146701428Y-134686666D01*
X146644285Y-134753333D01*
X146558571Y-134786666D01*
X146501428Y-134786666D01*
X147330000Y-134786666D02*
X146987142Y-134786666D01*
X147158571Y-134786666D02*
X147158571Y-134086666D01*
X147101428Y-134186666D01*
X147044285Y-134253333D01*
X146987142Y-134286666D01*
X154765000Y-116073333D02*
X154850714Y-116106666D01*
X154993571Y-116106666D01*
X155050714Y-116073333D01*
X155079285Y-116040000D01*
X155107857Y-115973333D01*
X155107857Y-115906666D01*
X155079285Y-115840000D01*
X155050714Y-115806666D01*
X154993571Y-115773333D01*
X154879285Y-115740000D01*
X154822142Y-115706666D01*
X154793571Y-115673333D01*
X154765000Y-115606666D01*
X154765000Y-115540000D01*
X154793571Y-115473333D01*
X154822142Y-115440000D01*
X154879285Y-115406666D01*
X155022142Y-115406666D01*
X155107857Y-115440000D01*
X155307857Y-115406666D02*
X155450714Y-116106666D01*
X155565000Y-115606666D01*
X155679285Y-116106666D01*
X155822142Y-115406666D01*
X156022142Y-115473333D02*
X156050714Y-115440000D01*
X156107857Y-115406666D01*
X156250714Y-115406666D01*
X156307857Y-115440000D01*
X156336428Y-115473333D01*
X156365000Y-115540000D01*
X156365000Y-115606666D01*
X156336428Y-115706666D01*
X155993571Y-116106666D01*
X156365000Y-116106666D01*
X150375000Y-116073333D02*
X150460714Y-116106666D01*
X150603571Y-116106666D01*
X150660714Y-116073333D01*
X150689285Y-116040000D01*
X150717857Y-115973333D01*
X150717857Y-115906666D01*
X150689285Y-115840000D01*
X150660714Y-115806666D01*
X150603571Y-115773333D01*
X150489285Y-115740000D01*
X150432142Y-115706666D01*
X150403571Y-115673333D01*
X150375000Y-115606666D01*
X150375000Y-115540000D01*
X150403571Y-115473333D01*
X150432142Y-115440000D01*
X150489285Y-115406666D01*
X150632142Y-115406666D01*
X150717857Y-115440000D01*
X150917857Y-115406666D02*
X151060714Y-116106666D01*
X151175000Y-115606666D01*
X151289285Y-116106666D01*
X151432142Y-115406666D01*
X151975000Y-116106666D02*
X151632142Y-116106666D01*
X151803571Y-116106666D02*
X151803571Y-115406666D01*
X151746428Y-115506666D01*
X151689285Y-115573333D01*
X151632142Y-115606666D01*
X152803333Y-114357142D02*
X152770000Y-114414285D01*
X152703333Y-114471428D01*
X152603333Y-114557142D01*
X152570000Y-114614285D01*
X152570000Y-114671428D01*
X152736666Y-114642857D02*
X152703333Y-114700000D01*
X152636666Y-114757142D01*
X152503333Y-114785714D01*
X152270000Y-114785714D01*
X152136666Y-114757142D01*
X152070000Y-114700000D01*
X152036666Y-114642857D01*
X152036666Y-114528571D01*
X152070000Y-114471428D01*
X152136666Y-114414285D01*
X152270000Y-114385714D01*
X152503333Y-114385714D01*
X152636666Y-114414285D01*
X152703333Y-114471428D01*
X152736666Y-114528571D01*
X152736666Y-114642857D01*
X152103333Y-114157142D02*
X152070000Y-114128571D01*
X152036666Y-114071428D01*
X152036666Y-113928571D01*
X152070000Y-113871428D01*
X152103333Y-113842857D01*
X152170000Y-113814285D01*
X152236666Y-113814285D01*
X152336666Y-113842857D01*
X152736666Y-114185714D01*
X152736666Y-113814285D01*
X149630000Y-111036666D02*
X149430000Y-110703333D01*
X149287142Y-111036666D02*
X149287142Y-110336666D01*
X149515714Y-110336666D01*
X149572857Y-110370000D01*
X149601428Y-110403333D01*
X149630000Y-110470000D01*
X149630000Y-110570000D01*
X149601428Y-110636666D01*
X149572857Y-110670000D01*
X149515714Y-110703333D01*
X149287142Y-110703333D01*
X150172857Y-110336666D02*
X149887142Y-110336666D01*
X149858571Y-110670000D01*
X149887142Y-110636666D01*
X149944285Y-110603333D01*
X150087142Y-110603333D01*
X150144285Y-110636666D01*
X150172857Y-110670000D01*
X150201428Y-110736666D01*
X150201428Y-110903333D01*
X150172857Y-110970000D01*
X150144285Y-111003333D01*
X150087142Y-111036666D01*
X149944285Y-111036666D01*
X149887142Y-111003333D01*
X149858571Y-110970000D01*
X149486666Y-121055714D02*
X149153333Y-121255714D01*
X149486666Y-121398571D02*
X148786666Y-121398571D01*
X148786666Y-121170000D01*
X148820000Y-121112857D01*
X148853333Y-121084285D01*
X148920000Y-121055714D01*
X149020000Y-121055714D01*
X149086666Y-121084285D01*
X149120000Y-121112857D01*
X149153333Y-121170000D01*
X149153333Y-121398571D01*
X149486666Y-120484285D02*
X149486666Y-120827142D01*
X149486666Y-120655714D02*
X148786666Y-120655714D01*
X148886666Y-120712857D01*
X148953333Y-120770000D01*
X148986666Y-120827142D01*
X149486666Y-119912857D02*
X149486666Y-120255714D01*
X149486666Y-120084285D02*
X148786666Y-120084285D01*
X148886666Y-120141428D01*
X148953333Y-120198571D01*
X148986666Y-120255714D01*
X138250000Y-113816666D02*
X138250000Y-114316666D01*
X138221428Y-114416666D01*
X138164285Y-114483333D01*
X138078571Y-114516666D01*
X138021428Y-114516666D01*
X138478571Y-113816666D02*
X138850000Y-113816666D01*
X138650000Y-114083333D01*
X138735714Y-114083333D01*
X138792857Y-114116666D01*
X138821428Y-114150000D01*
X138850000Y-114216666D01*
X138850000Y-114383333D01*
X138821428Y-114450000D01*
X138792857Y-114483333D01*
X138735714Y-114516666D01*
X138564285Y-114516666D01*
X138507142Y-114483333D01*
X138478571Y-114450000D01*
X149486666Y-118262857D02*
X148786666Y-118262857D01*
X148786666Y-118120000D01*
X148820000Y-118034285D01*
X148886666Y-117977142D01*
X148953333Y-117948571D01*
X149086666Y-117920000D01*
X149186666Y-117920000D01*
X149320000Y-117948571D01*
X149386666Y-117977142D01*
X149453333Y-118034285D01*
X149486666Y-118120000D01*
X149486666Y-118262857D01*
X148786666Y-117720000D02*
X148786666Y-117348571D01*
X149053333Y-117548571D01*
X149053333Y-117462857D01*
X149086666Y-117405714D01*
X149120000Y-117377142D01*
X149186666Y-117348571D01*
X149353333Y-117348571D01*
X149420000Y-117377142D01*
X149453333Y-117405714D01*
X149486666Y-117462857D01*
X149486666Y-117634285D01*
X149453333Y-117691428D01*
X149420000Y-117720000D01*
X149288285Y-127030000D02*
X149259714Y-127063333D01*
X149174000Y-127096666D01*
X149116857Y-127096666D01*
X149031142Y-127063333D01*
X148974000Y-126996666D01*
X148945428Y-126930000D01*
X148916857Y-126796666D01*
X148916857Y-126696666D01*
X148945428Y-126563333D01*
X148974000Y-126496666D01*
X149031142Y-126430000D01*
X149116857Y-126396666D01*
X149174000Y-126396666D01*
X149259714Y-126430000D01*
X149288285Y-126463333D01*
X149859714Y-127096666D02*
X149516857Y-127096666D01*
X149688285Y-127096666D02*
X149688285Y-126396666D01*
X149631142Y-126496666D01*
X149574000Y-126563333D01*
X149516857Y-126596666D01*
X150431142Y-127096666D02*
X150088285Y-127096666D01*
X150259714Y-127096666D02*
X150259714Y-126396666D01*
X150202571Y-126496666D01*
X150145428Y-126563333D01*
X150088285Y-126596666D01*
X148900000Y-114760000D02*
X148871428Y-114793333D01*
X148785714Y-114826666D01*
X148728571Y-114826666D01*
X148642857Y-114793333D01*
X148585714Y-114726666D01*
X148557142Y-114660000D01*
X148528571Y-114526666D01*
X148528571Y-114426666D01*
X148557142Y-114293333D01*
X148585714Y-114226666D01*
X148642857Y-114160000D01*
X148728571Y-114126666D01*
X148785714Y-114126666D01*
X148871428Y-114160000D01*
X148900000Y-114193333D01*
X149414285Y-114360000D02*
X149414285Y-114826666D01*
X149271428Y-114093333D02*
X149128571Y-114593333D01*
X149500000Y-114593333D01*
X148820000Y-95580000D02*
X148791428Y-95613333D01*
X148705714Y-95646666D01*
X148648571Y-95646666D01*
X148562857Y-95613333D01*
X148505714Y-95546666D01*
X148477142Y-95480000D01*
X148448571Y-95346666D01*
X148448571Y-95246666D01*
X148477142Y-95113333D01*
X148505714Y-95046666D01*
X148562857Y-94980000D01*
X148648571Y-94946666D01*
X148705714Y-94946666D01*
X148791428Y-94980000D01*
X148820000Y-95013333D01*
X149391428Y-95646666D02*
X149048571Y-95646666D01*
X149220000Y-95646666D02*
X149220000Y-94946666D01*
X149162857Y-95046666D01*
X149105714Y-95113333D01*
X149048571Y-95146666D01*
X153780000Y-95610000D02*
X153751428Y-95643333D01*
X153665714Y-95676666D01*
X153608571Y-95676666D01*
X153522857Y-95643333D01*
X153465714Y-95576666D01*
X153437142Y-95510000D01*
X153408571Y-95376666D01*
X153408571Y-95276666D01*
X153437142Y-95143333D01*
X153465714Y-95076666D01*
X153522857Y-95010000D01*
X153608571Y-94976666D01*
X153665714Y-94976666D01*
X153751428Y-95010000D01*
X153780000Y-95043333D01*
X153980000Y-94976666D02*
X154380000Y-94976666D01*
X154122857Y-95676666D01*
X141574285Y-111396666D02*
X141374285Y-111063333D01*
X141231428Y-111396666D02*
X141231428Y-110696666D01*
X141460000Y-110696666D01*
X141517142Y-110730000D01*
X141545714Y-110763333D01*
X141574285Y-110830000D01*
X141574285Y-110930000D01*
X141545714Y-110996666D01*
X141517142Y-111030000D01*
X141460000Y-111063333D01*
X141231428Y-111063333D01*
X142145714Y-111396666D02*
X141802857Y-111396666D01*
X141974285Y-111396666D02*
X141974285Y-110696666D01*
X141917142Y-110796666D01*
X141860000Y-110863333D01*
X141802857Y-110896666D01*
X142517142Y-110696666D02*
X142574285Y-110696666D01*
X142631428Y-110730000D01*
X142660000Y-110763333D01*
X142688571Y-110830000D01*
X142717142Y-110963333D01*
X142717142Y-111130000D01*
X142688571Y-111263333D01*
X142660000Y-111330000D01*
X142631428Y-111363333D01*
X142574285Y-111396666D01*
X142517142Y-111396666D01*
X142460000Y-111363333D01*
X142431428Y-111330000D01*
X142402857Y-111263333D01*
X142374285Y-111130000D01*
X142374285Y-110963333D01*
X142402857Y-110830000D01*
X142431428Y-110763333D01*
X142460000Y-110730000D01*
X142517142Y-110696666D01*
X156545000Y-127601666D02*
X156345000Y-127268333D01*
X156202142Y-127601666D02*
X156202142Y-126901666D01*
X156430714Y-126901666D01*
X156487857Y-126935000D01*
X156516428Y-126968333D01*
X156545000Y-127035000D01*
X156545000Y-127135000D01*
X156516428Y-127201666D01*
X156487857Y-127235000D01*
X156430714Y-127268333D01*
X156202142Y-127268333D01*
X156745000Y-126901666D02*
X157116428Y-126901666D01*
X156916428Y-127168333D01*
X157002142Y-127168333D01*
X157059285Y-127201666D01*
X157087857Y-127235000D01*
X157116428Y-127301666D01*
X157116428Y-127468333D01*
X157087857Y-127535000D01*
X157059285Y-127568333D01*
X157002142Y-127601666D01*
X156830714Y-127601666D01*
X156773571Y-127568333D01*
X156745000Y-127535000D01*
X142736666Y-105402857D02*
X142036666Y-105402857D01*
X142036666Y-105260000D01*
X142070000Y-105174285D01*
X142136666Y-105117142D01*
X142203333Y-105088571D01*
X142336666Y-105060000D01*
X142436666Y-105060000D01*
X142570000Y-105088571D01*
X142636666Y-105117142D01*
X142703333Y-105174285D01*
X142736666Y-105260000D01*
X142736666Y-105402857D01*
X142103333Y-104831428D02*
X142070000Y-104802857D01*
X142036666Y-104745714D01*
X142036666Y-104602857D01*
X142070000Y-104545714D01*
X142103333Y-104517142D01*
X142170000Y-104488571D01*
X142236666Y-104488571D01*
X142336666Y-104517142D01*
X142736666Y-104860000D01*
X142736666Y-104488571D01*
X159550000Y-127601666D02*
X159350000Y-127268333D01*
X159207142Y-127601666D02*
X159207142Y-126901666D01*
X159435714Y-126901666D01*
X159492857Y-126935000D01*
X159521428Y-126968333D01*
X159550000Y-127035000D01*
X159550000Y-127135000D01*
X159521428Y-127201666D01*
X159492857Y-127235000D01*
X159435714Y-127268333D01*
X159207142Y-127268333D01*
X160064285Y-126901666D02*
X159950000Y-126901666D01*
X159892857Y-126935000D01*
X159864285Y-126968333D01*
X159807142Y-127068333D01*
X159778571Y-127201666D01*
X159778571Y-127468333D01*
X159807142Y-127535000D01*
X159835714Y-127568333D01*
X159892857Y-127601666D01*
X160007142Y-127601666D01*
X160064285Y-127568333D01*
X160092857Y-127535000D01*
X160121428Y-127468333D01*
X160121428Y-127301666D01*
X160092857Y-127235000D01*
X160064285Y-127201666D01*
X160007142Y-127168333D01*
X159892857Y-127168333D01*
X159835714Y-127201666D01*
X159807142Y-127235000D01*
X159778571Y-127301666D01*
X143357142Y-111356666D02*
X143357142Y-110656666D01*
X143500000Y-110656666D01*
X143585714Y-110690000D01*
X143642857Y-110756666D01*
X143671428Y-110823333D01*
X143700000Y-110956666D01*
X143700000Y-111056666D01*
X143671428Y-111190000D01*
X143642857Y-111256666D01*
X143585714Y-111323333D01*
X143500000Y-111356666D01*
X143357142Y-111356666D01*
X144214285Y-110890000D02*
X144214285Y-111356666D01*
X144071428Y-110623333D02*
X143928571Y-111123333D01*
X144300000Y-111123333D01*
X150630000Y-93076666D02*
X150430000Y-92743333D01*
X150287142Y-93076666D02*
X150287142Y-92376666D01*
X150515714Y-92376666D01*
X150572857Y-92410000D01*
X150601428Y-92443333D01*
X150630000Y-92510000D01*
X150630000Y-92610000D01*
X150601428Y-92676666D01*
X150572857Y-92710000D01*
X150515714Y-92743333D01*
X150287142Y-92743333D01*
X151201428Y-93076666D02*
X150858571Y-93076666D01*
X151030000Y-93076666D02*
X151030000Y-92376666D01*
X150972857Y-92476666D01*
X150915714Y-92543333D01*
X150858571Y-92576666D01*
X146390000Y-114876666D02*
X146190000Y-114543333D01*
X146047142Y-114876666D02*
X146047142Y-114176666D01*
X146275714Y-114176666D01*
X146332857Y-114210000D01*
X146361428Y-114243333D01*
X146390000Y-114310000D01*
X146390000Y-114410000D01*
X146361428Y-114476666D01*
X146332857Y-114510000D01*
X146275714Y-114543333D01*
X146047142Y-114543333D01*
X146590000Y-114176666D02*
X146990000Y-114176666D01*
X146732857Y-114876666D01*
X141942857Y-113876666D02*
X141942857Y-114443333D01*
X141971428Y-114510000D01*
X142000000Y-114543333D01*
X142057142Y-114576666D01*
X142171428Y-114576666D01*
X142228571Y-114543333D01*
X142257142Y-114510000D01*
X142285714Y-114443333D01*
X142285714Y-113876666D01*
X142514285Y-113876666D02*
X142885714Y-113876666D01*
X142685714Y-114143333D01*
X142771428Y-114143333D01*
X142828571Y-114176666D01*
X142857142Y-114210000D01*
X142885714Y-114276666D01*
X142885714Y-114443333D01*
X142857142Y-114510000D01*
X142828571Y-114543333D01*
X142771428Y-114576666D01*
X142600000Y-114576666D01*
X142542857Y-114543333D01*
X142514285Y-114510000D01*
X150550000Y-95641666D02*
X150350000Y-95308333D01*
X150207142Y-95641666D02*
X150207142Y-94941666D01*
X150435714Y-94941666D01*
X150492857Y-94975000D01*
X150521428Y-95008333D01*
X150550000Y-95075000D01*
X150550000Y-95175000D01*
X150521428Y-95241666D01*
X150492857Y-95275000D01*
X150435714Y-95308333D01*
X150207142Y-95308333D01*
X150778571Y-95008333D02*
X150807142Y-94975000D01*
X150864285Y-94941666D01*
X151007142Y-94941666D01*
X151064285Y-94975000D01*
X151092857Y-95008333D01*
X151121428Y-95075000D01*
X151121428Y-95141666D01*
X151092857Y-95241666D01*
X150750000Y-95641666D01*
X151121428Y-95641666D01*
X158003333Y-114557142D02*
X157970000Y-114614285D01*
X157903333Y-114671428D01*
X157803333Y-114757142D01*
X157770000Y-114814285D01*
X157770000Y-114871428D01*
X157936666Y-114842857D02*
X157903333Y-114900000D01*
X157836666Y-114957142D01*
X157703333Y-114985714D01*
X157470000Y-114985714D01*
X157336666Y-114957142D01*
X157270000Y-114900000D01*
X157236666Y-114842857D01*
X157236666Y-114728571D01*
X157270000Y-114671428D01*
X157336666Y-114614285D01*
X157470000Y-114585714D01*
X157703333Y-114585714D01*
X157836666Y-114614285D01*
X157903333Y-114671428D01*
X157936666Y-114728571D01*
X157936666Y-114842857D01*
X157936666Y-114014285D02*
X157936666Y-114357142D01*
X157936666Y-114185714D02*
X157236666Y-114185714D01*
X157336666Y-114242857D01*
X157403333Y-114300000D01*
X157436666Y-114357142D01*
X145416666Y-101615000D02*
X145083333Y-101815000D01*
X145416666Y-101957857D02*
X144716666Y-101957857D01*
X144716666Y-101729285D01*
X144750000Y-101672142D01*
X144783333Y-101643571D01*
X144850000Y-101615000D01*
X144950000Y-101615000D01*
X145016666Y-101643571D01*
X145050000Y-101672142D01*
X145083333Y-101729285D01*
X145083333Y-101957857D01*
X145416666Y-101329285D02*
X145416666Y-101215000D01*
X145383333Y-101157857D01*
X145350000Y-101129285D01*
X145250000Y-101072142D01*
X145116666Y-101043571D01*
X144850000Y-101043571D01*
X144783333Y-101072142D01*
X144750000Y-101100714D01*
X144716666Y-101157857D01*
X144716666Y-101272142D01*
X144750000Y-101329285D01*
X144783333Y-101357857D01*
X144850000Y-101386428D01*
X145016666Y-101386428D01*
X145083333Y-101357857D01*
X145116666Y-101329285D01*
X145150000Y-101272142D01*
X145150000Y-101157857D01*
X145116666Y-101100714D01*
X145083333Y-101072142D01*
X145016666Y-101043571D01*
X152200000Y-95641666D02*
X152000000Y-95308333D01*
X151857142Y-95641666D02*
X151857142Y-94941666D01*
X152085714Y-94941666D01*
X152142857Y-94975000D01*
X152171428Y-95008333D01*
X152200000Y-95075000D01*
X152200000Y-95175000D01*
X152171428Y-95241666D01*
X152142857Y-95275000D01*
X152085714Y-95308333D01*
X151857142Y-95308333D01*
X152542857Y-95241666D02*
X152485714Y-95208333D01*
X152457142Y-95175000D01*
X152428571Y-95108333D01*
X152428571Y-95075000D01*
X152457142Y-95008333D01*
X152485714Y-94975000D01*
X152542857Y-94941666D01*
X152657142Y-94941666D01*
X152714285Y-94975000D01*
X152742857Y-95008333D01*
X152771428Y-95075000D01*
X152771428Y-95108333D01*
X152742857Y-95175000D01*
X152714285Y-95208333D01*
X152657142Y-95241666D01*
X152542857Y-95241666D01*
X152485714Y-95275000D01*
X152457142Y-95308333D01*
X152428571Y-95375000D01*
X152428571Y-95508333D01*
X152457142Y-95575000D01*
X152485714Y-95608333D01*
X152542857Y-95641666D01*
X152657142Y-95641666D01*
X152714285Y-95608333D01*
X152742857Y-95575000D01*
X152771428Y-95508333D01*
X152771428Y-95375000D01*
X152742857Y-95308333D01*
X152714285Y-95275000D01*
X152657142Y-95241666D01*
X147020000Y-95580000D02*
X146991428Y-95613333D01*
X146905714Y-95646666D01*
X146848571Y-95646666D01*
X146762857Y-95613333D01*
X146705714Y-95546666D01*
X146677142Y-95480000D01*
X146648571Y-95346666D01*
X146648571Y-95246666D01*
X146677142Y-95113333D01*
X146705714Y-95046666D01*
X146762857Y-94980000D01*
X146848571Y-94946666D01*
X146905714Y-94946666D01*
X146991428Y-94980000D01*
X147020000Y-95013333D01*
X147562857Y-94946666D02*
X147277142Y-94946666D01*
X147248571Y-95280000D01*
X147277142Y-95246666D01*
X147334285Y-95213333D01*
X147477142Y-95213333D01*
X147534285Y-95246666D01*
X147562857Y-95280000D01*
X147591428Y-95346666D01*
X147591428Y-95513333D01*
X147562857Y-95580000D01*
X147534285Y-95613333D01*
X147477142Y-95646666D01*
X147334285Y-95646666D01*
X147277142Y-95613333D01*
X147248571Y-95580000D01*
X153800000Y-127035000D02*
X153771428Y-127068333D01*
X153685714Y-127101666D01*
X153628571Y-127101666D01*
X153542857Y-127068333D01*
X153485714Y-127001666D01*
X153457142Y-126935000D01*
X153428571Y-126801666D01*
X153428571Y-126701666D01*
X153457142Y-126568333D01*
X153485714Y-126501666D01*
X153542857Y-126435000D01*
X153628571Y-126401666D01*
X153685714Y-126401666D01*
X153771428Y-126435000D01*
X153800000Y-126468333D01*
X154000000Y-126401666D02*
X154371428Y-126401666D01*
X154171428Y-126668333D01*
X154257142Y-126668333D01*
X154314285Y-126701666D01*
X154342857Y-126735000D01*
X154371428Y-126801666D01*
X154371428Y-126968333D01*
X154342857Y-127035000D01*
X154314285Y-127068333D01*
X154257142Y-127101666D01*
X154085714Y-127101666D01*
X154028571Y-127068333D01*
X154000000Y-127035000D01*
X151717000Y-127040000D02*
X151688428Y-127073333D01*
X151602714Y-127106666D01*
X151545571Y-127106666D01*
X151459857Y-127073333D01*
X151402714Y-127006666D01*
X151374142Y-126940000D01*
X151345571Y-126806666D01*
X151345571Y-126706666D01*
X151374142Y-126573333D01*
X151402714Y-126506666D01*
X151459857Y-126440000D01*
X151545571Y-126406666D01*
X151602714Y-126406666D01*
X151688428Y-126440000D01*
X151717000Y-126473333D01*
X151945571Y-126473333D02*
X151974142Y-126440000D01*
X152031285Y-126406666D01*
X152174142Y-126406666D01*
X152231285Y-126440000D01*
X152259857Y-126473333D01*
X152288428Y-126540000D01*
X152288428Y-126606666D01*
X152259857Y-126706666D01*
X151917000Y-127106666D01*
X152288428Y-127106666D01*
X143250700Y-126956120D02*
X143222128Y-126989453D01*
X143136414Y-127022786D01*
X143079271Y-127022786D01*
X142993557Y-126989453D01*
X142936414Y-126922786D01*
X142907842Y-126856120D01*
X142879271Y-126722786D01*
X142879271Y-126622786D01*
X142907842Y-126489453D01*
X142936414Y-126422786D01*
X142993557Y-126356120D01*
X143079271Y-126322786D01*
X143136414Y-126322786D01*
X143222128Y-126356120D01*
X143250700Y-126389453D01*
X143536414Y-127022786D02*
X143650700Y-127022786D01*
X143707842Y-126989453D01*
X143736414Y-126956120D01*
X143793557Y-126856120D01*
X143822128Y-126722786D01*
X143822128Y-126456120D01*
X143793557Y-126389453D01*
X143764985Y-126356120D01*
X143707842Y-126322786D01*
X143593557Y-126322786D01*
X143536414Y-126356120D01*
X143507842Y-126389453D01*
X143479271Y-126456120D01*
X143479271Y-126622786D01*
X143507842Y-126689453D01*
X143536414Y-126722786D01*
X143593557Y-126756120D01*
X143707842Y-126756120D01*
X143764985Y-126722786D01*
X143793557Y-126689453D01*
X143822128Y-126622786D01*
X147080000Y-111006666D02*
X146880000Y-110673333D01*
X146737142Y-111006666D02*
X146737142Y-110306666D01*
X146965714Y-110306666D01*
X147022857Y-110340000D01*
X147051428Y-110373333D01*
X147080000Y-110440000D01*
X147080000Y-110540000D01*
X147051428Y-110606666D01*
X147022857Y-110640000D01*
X146965714Y-110673333D01*
X146737142Y-110673333D01*
X147594285Y-110540000D02*
X147594285Y-111006666D01*
X147451428Y-110273333D02*
X147308571Y-110773333D01*
X147680000Y-110773333D01*
X163450000Y-135366666D02*
X163450000Y-135866666D01*
X163421428Y-135966666D01*
X163364285Y-136033333D01*
X163278571Y-136066666D01*
X163221428Y-136066666D01*
X163707142Y-135433333D02*
X163735714Y-135400000D01*
X163792857Y-135366666D01*
X163935714Y-135366666D01*
X163992857Y-135400000D01*
X164021428Y-135433333D01*
X164050000Y-135500000D01*
X164050000Y-135566666D01*
X164021428Y-135666666D01*
X163678571Y-136066666D01*
X164050000Y-136066666D01*
M02*
