%TF.GenerationSoftware,KiCad,Pcbnew,5.1.9-73d0e3b20d~88~ubuntu20.04.1*%
%TF.CreationDate,2021-03-20T23:28:39+05:30*%
%TF.ProjectId,ESP32-S2,45535033-322d-4533-922e-6b696361645f,rev?*%
%TF.SameCoordinates,Original*%
%TF.FileFunction,Legend,Bot*%
%TF.FilePolarity,Positive*%
%FSLAX46Y46*%
G04 Gerber Fmt 4.6, Leading zero omitted, Abs format (unit mm)*
G04 Created by KiCad (PCBNEW 5.1.9-73d0e3b20d~88~ubuntu20.04.1) date 2021-03-20 23:28:39*
%MOMM*%
%LPD*%
G01*
G04 APERTURE LIST*
%ADD10C,0.200000*%
%ADD11C,0.010000*%
G04 APERTURE END LIST*
D10*
X154815952Y-92832380D02*
X154690952Y-91832380D01*
X154452857Y-91832380D01*
X154315952Y-91880000D01*
X154232619Y-91975238D01*
X154196904Y-92070476D01*
X154173095Y-92260952D01*
X154190952Y-92403809D01*
X154262380Y-92594285D01*
X154321904Y-92689523D01*
X154429047Y-92784761D01*
X154577857Y-92832380D01*
X154815952Y-92832380D01*
X153429047Y-92784761D02*
X153530238Y-92832380D01*
X153720714Y-92832380D01*
X153810000Y-92784761D01*
X153845714Y-92689523D01*
X153798095Y-92308571D01*
X153738571Y-92213333D01*
X153637380Y-92165714D01*
X153446904Y-92165714D01*
X153357619Y-92213333D01*
X153321904Y-92308571D01*
X153333809Y-92403809D01*
X153821904Y-92499047D01*
X153000476Y-92784761D02*
X152911190Y-92832380D01*
X152720714Y-92832380D01*
X152619523Y-92784761D01*
X152560000Y-92689523D01*
X152554047Y-92641904D01*
X152589761Y-92546666D01*
X152679047Y-92499047D01*
X152821904Y-92499047D01*
X152911190Y-92451428D01*
X152946904Y-92356190D01*
X152940952Y-92308571D01*
X152881428Y-92213333D01*
X152780238Y-92165714D01*
X152637380Y-92165714D01*
X152548095Y-92213333D01*
X152149285Y-92832380D02*
X152065952Y-92165714D01*
X152024285Y-91832380D02*
X152077857Y-91880000D01*
X152036190Y-91927619D01*
X151982619Y-91880000D01*
X152024285Y-91832380D01*
X152036190Y-91927619D01*
X151161190Y-92165714D02*
X151262380Y-92975238D01*
X151321904Y-93070476D01*
X151375476Y-93118095D01*
X151476666Y-93165714D01*
X151619523Y-93165714D01*
X151708809Y-93118095D01*
X151238571Y-92784761D02*
X151339761Y-92832380D01*
X151530238Y-92832380D01*
X151619523Y-92784761D01*
X151661190Y-92737142D01*
X151696904Y-92641904D01*
X151661190Y-92356190D01*
X151601666Y-92260952D01*
X151548095Y-92213333D01*
X151446904Y-92165714D01*
X151256428Y-92165714D01*
X151167142Y-92213333D01*
X150685000Y-92165714D02*
X150768333Y-92832380D01*
X150696904Y-92260952D02*
X150643333Y-92213333D01*
X150542142Y-92165714D01*
X150399285Y-92165714D01*
X150310000Y-92213333D01*
X150274285Y-92308571D01*
X150339761Y-92832380D01*
X149476666Y-92784761D02*
X149577857Y-92832380D01*
X149768333Y-92832380D01*
X149857619Y-92784761D01*
X149893333Y-92689523D01*
X149845714Y-92308571D01*
X149786190Y-92213333D01*
X149685000Y-92165714D01*
X149494523Y-92165714D01*
X149405238Y-92213333D01*
X149369523Y-92308571D01*
X149381428Y-92403809D01*
X149869523Y-92499047D01*
X148577857Y-92832380D02*
X148452857Y-91832380D01*
X148571904Y-92784761D02*
X148673095Y-92832380D01*
X148863571Y-92832380D01*
X148952857Y-92784761D01*
X148994523Y-92737142D01*
X149030238Y-92641904D01*
X148994523Y-92356190D01*
X148935000Y-92260952D01*
X148881428Y-92213333D01*
X148780238Y-92165714D01*
X148589761Y-92165714D01*
X148500476Y-92213333D01*
X146940952Y-92308571D02*
X146804047Y-92356190D01*
X146762380Y-92403809D01*
X146726666Y-92499047D01*
X146744523Y-92641904D01*
X146804047Y-92737142D01*
X146857619Y-92784761D01*
X146958809Y-92832380D01*
X147339761Y-92832380D01*
X147214761Y-91832380D01*
X146881428Y-91832380D01*
X146792142Y-91880000D01*
X146750476Y-91927619D01*
X146714761Y-92022857D01*
X146726666Y-92118095D01*
X146786190Y-92213333D01*
X146839761Y-92260952D01*
X146940952Y-92308571D01*
X147274285Y-92308571D01*
X146351666Y-92165714D02*
X146196904Y-92832380D01*
X145875476Y-92165714D02*
X146196904Y-92832380D01*
X146321904Y-93070476D01*
X146375476Y-93118095D01*
X146476666Y-93165714D01*
X145565952Y-92737142D02*
X145524285Y-92784761D01*
X145577857Y-92832380D01*
X145619523Y-92784761D01*
X145565952Y-92737142D01*
X145577857Y-92832380D01*
X145500476Y-92213333D02*
X145458809Y-92260952D01*
X145512380Y-92308571D01*
X145554047Y-92260952D01*
X145500476Y-92213333D01*
X145512380Y-92308571D01*
X154292142Y-94532380D02*
X154863571Y-94532380D01*
X154577857Y-94532380D02*
X154452857Y-93532380D01*
X154565952Y-93675238D01*
X154673095Y-93770476D01*
X154774285Y-93818095D01*
X153851666Y-94437142D02*
X153810000Y-94484761D01*
X153863571Y-94532380D01*
X153905238Y-94484761D01*
X153851666Y-94437142D01*
X153863571Y-94532380D01*
X152625476Y-94532380D02*
X152500476Y-93532380D01*
X152262380Y-93532380D01*
X152125476Y-93580000D01*
X152042142Y-93675238D01*
X152006428Y-93770476D01*
X151982619Y-93960952D01*
X152000476Y-94103809D01*
X152071904Y-94294285D01*
X152131428Y-94389523D01*
X152238571Y-94484761D01*
X152387380Y-94532380D01*
X152625476Y-94532380D01*
X151625476Y-94532380D02*
X151500476Y-93532380D01*
X151196904Y-94532380D02*
X151131428Y-94008571D01*
X151167142Y-93913333D01*
X151256428Y-93865714D01*
X151399285Y-93865714D01*
X151500476Y-93913333D01*
X151554047Y-93960952D01*
X150292142Y-94532380D02*
X150226666Y-94008571D01*
X150262380Y-93913333D01*
X150351666Y-93865714D01*
X150542142Y-93865714D01*
X150643333Y-93913333D01*
X150286190Y-94484761D02*
X150387380Y-94532380D01*
X150625476Y-94532380D01*
X150714761Y-94484761D01*
X150750476Y-94389523D01*
X150738571Y-94294285D01*
X150679047Y-94199047D01*
X150577857Y-94151428D01*
X150339761Y-94151428D01*
X150238571Y-94103809D01*
X149815952Y-94532380D02*
X149732619Y-93865714D01*
X149690952Y-93532380D02*
X149744523Y-93580000D01*
X149702857Y-93627619D01*
X149649285Y-93580000D01*
X149690952Y-93532380D01*
X149702857Y-93627619D01*
X149339761Y-94532380D02*
X149256428Y-93865714D01*
X149280238Y-94056190D02*
X149220714Y-93960952D01*
X149167142Y-93913333D01*
X149065952Y-93865714D01*
X148970714Y-93865714D01*
X148732619Y-93865714D02*
X148577857Y-94532380D01*
X148256428Y-93865714D02*
X148577857Y-94532380D01*
X148702857Y-94770476D01*
X148756428Y-94818095D01*
X148857619Y-94865714D01*
X147530238Y-94532380D02*
X147464761Y-94008571D01*
X147500476Y-93913333D01*
X147589761Y-93865714D01*
X147780238Y-93865714D01*
X147881428Y-93913333D01*
X147524285Y-94484761D02*
X147625476Y-94532380D01*
X147863571Y-94532380D01*
X147952857Y-94484761D01*
X147988571Y-94389523D01*
X147976666Y-94294285D01*
X147917142Y-94199047D01*
X147815952Y-94151428D01*
X147577857Y-94151428D01*
X147476666Y-94103809D01*
X154750476Y-95327619D02*
X154696904Y-95280000D01*
X154595714Y-95232380D01*
X154357619Y-95232380D01*
X154268333Y-95280000D01*
X154226666Y-95327619D01*
X154190952Y-95422857D01*
X154202857Y-95518095D01*
X154268333Y-95660952D01*
X154911190Y-96232380D01*
X154292142Y-96232380D01*
X153851666Y-96137142D02*
X153810000Y-96184761D01*
X153863571Y-96232380D01*
X153905238Y-96184761D01*
X153851666Y-96137142D01*
X153863571Y-96232380D01*
X152042142Y-96137142D02*
X152095714Y-96184761D01*
X152244523Y-96232380D01*
X152339761Y-96232380D01*
X152476666Y-96184761D01*
X152560000Y-96089523D01*
X152595714Y-95994285D01*
X152619523Y-95803809D01*
X152601666Y-95660952D01*
X152530238Y-95470476D01*
X152470714Y-95375238D01*
X152363571Y-95280000D01*
X152214761Y-95232380D01*
X152119523Y-95232380D01*
X151982619Y-95280000D01*
X151940952Y-95327619D01*
X151625476Y-96232380D02*
X151500476Y-95232380D01*
X151196904Y-96232380D02*
X151131428Y-95708571D01*
X151167142Y-95613333D01*
X151256428Y-95565714D01*
X151399285Y-95565714D01*
X151500476Y-95613333D01*
X151554047Y-95660952D01*
X150292142Y-96232380D02*
X150226666Y-95708571D01*
X150262380Y-95613333D01*
X150351666Y-95565714D01*
X150542142Y-95565714D01*
X150643333Y-95613333D01*
X150286190Y-96184761D02*
X150387380Y-96232380D01*
X150625476Y-96232380D01*
X150714761Y-96184761D01*
X150750476Y-96089523D01*
X150738571Y-95994285D01*
X150679047Y-95899047D01*
X150577857Y-95851428D01*
X150339761Y-95851428D01*
X150238571Y-95803809D01*
X149815952Y-96232380D02*
X149732619Y-95565714D01*
X149690952Y-95232380D02*
X149744523Y-95280000D01*
X149702857Y-95327619D01*
X149649285Y-95280000D01*
X149690952Y-95232380D01*
X149702857Y-95327619D01*
X149399285Y-95565714D02*
X149018333Y-95565714D01*
X149214761Y-95232380D02*
X149321904Y-96089523D01*
X149286190Y-96184761D01*
X149196904Y-96232380D01*
X149101666Y-96232380D01*
X148768333Y-96232380D02*
X148685000Y-95565714D01*
X148708809Y-95756190D02*
X148649285Y-95660952D01*
X148595714Y-95613333D01*
X148494523Y-95565714D01*
X148399285Y-95565714D01*
X147720714Y-96232380D02*
X147655238Y-95708571D01*
X147690952Y-95613333D01*
X147780238Y-95565714D01*
X147970714Y-95565714D01*
X148071904Y-95613333D01*
X147714761Y-96184761D02*
X147815952Y-96232380D01*
X148054047Y-96232380D01*
X148143333Y-96184761D01*
X148179047Y-96089523D01*
X148167142Y-95994285D01*
X148107619Y-95899047D01*
X148006428Y-95851428D01*
X147768333Y-95851428D01*
X147667142Y-95803809D01*
X147256428Y-95565714D02*
X147101666Y-96232380D01*
X146780238Y-95565714D01*
X146482619Y-96232380D02*
X146399285Y-95565714D01*
X146357619Y-95232380D02*
X146411190Y-95280000D01*
X146369523Y-95327619D01*
X146315952Y-95280000D01*
X146357619Y-95232380D01*
X146369523Y-95327619D01*
X154786190Y-96932380D02*
X154167142Y-96932380D01*
X154548095Y-97313333D01*
X154405238Y-97313333D01*
X154315952Y-97360952D01*
X154274285Y-97408571D01*
X154238571Y-97503809D01*
X154268333Y-97741904D01*
X154327857Y-97837142D01*
X154381428Y-97884761D01*
X154482619Y-97932380D01*
X154768333Y-97932380D01*
X154857619Y-97884761D01*
X154899285Y-97837142D01*
X153851666Y-97837142D02*
X153810000Y-97884761D01*
X153863571Y-97932380D01*
X153905238Y-97884761D01*
X153851666Y-97837142D01*
X153863571Y-97932380D01*
X152667142Y-97884761D02*
X152530238Y-97932380D01*
X152292142Y-97932380D01*
X152190952Y-97884761D01*
X152137380Y-97837142D01*
X152077857Y-97741904D01*
X152065952Y-97646666D01*
X152101666Y-97551428D01*
X152143333Y-97503809D01*
X152232619Y-97456190D01*
X152417142Y-97408571D01*
X152506428Y-97360952D01*
X152548095Y-97313333D01*
X152583809Y-97218095D01*
X152571904Y-97122857D01*
X152512380Y-97027619D01*
X152458809Y-96980000D01*
X152357619Y-96932380D01*
X152119523Y-96932380D01*
X151982619Y-96980000D01*
X151244523Y-97932380D02*
X151179047Y-97408571D01*
X151214761Y-97313333D01*
X151304047Y-97265714D01*
X151494523Y-97265714D01*
X151595714Y-97313333D01*
X151238571Y-97884761D02*
X151339761Y-97932380D01*
X151577857Y-97932380D01*
X151667142Y-97884761D01*
X151702857Y-97789523D01*
X151690952Y-97694285D01*
X151631428Y-97599047D01*
X151530238Y-97551428D01*
X151292142Y-97551428D01*
X151190952Y-97503809D01*
X150768333Y-97932380D02*
X150643333Y-96932380D01*
X150625476Y-97551428D02*
X150387380Y-97932380D01*
X150304047Y-97265714D02*
X150732619Y-97646666D01*
X150000476Y-97884761D02*
X149911190Y-97932380D01*
X149720714Y-97932380D01*
X149619523Y-97884761D01*
X149560000Y-97789523D01*
X149554047Y-97741904D01*
X149589761Y-97646666D01*
X149679047Y-97599047D01*
X149821904Y-97599047D01*
X149911190Y-97551428D01*
X149946904Y-97456190D01*
X149940952Y-97408571D01*
X149881428Y-97313333D01*
X149780238Y-97265714D01*
X149637380Y-97265714D01*
X149548095Y-97313333D01*
X149149285Y-97932380D02*
X149024285Y-96932380D01*
X148720714Y-97932380D02*
X148655238Y-97408571D01*
X148690952Y-97313333D01*
X148780238Y-97265714D01*
X148923095Y-97265714D01*
X149024285Y-97313333D01*
X149077857Y-97360952D01*
X148244523Y-97932380D02*
X148161190Y-97265714D01*
X148119523Y-96932380D02*
X148173095Y-96980000D01*
X148131428Y-97027619D01*
X148077857Y-96980000D01*
X148119523Y-96932380D01*
X148131428Y-97027619D01*
X154304047Y-98965714D02*
X154387380Y-99632380D01*
X154494523Y-98584761D02*
X154821904Y-99299047D01*
X154202857Y-99299047D01*
X153851666Y-99537142D02*
X153810000Y-99584761D01*
X153863571Y-99632380D01*
X153905238Y-99584761D01*
X153851666Y-99537142D01*
X153863571Y-99632380D01*
X152643333Y-98632380D02*
X152435000Y-99632380D01*
X151976666Y-98632380D01*
X151381428Y-99584761D02*
X151482619Y-99632380D01*
X151673095Y-99632380D01*
X151762380Y-99584761D01*
X151798095Y-99489523D01*
X151750476Y-99108571D01*
X151690952Y-99013333D01*
X151589761Y-98965714D01*
X151399285Y-98965714D01*
X151310000Y-99013333D01*
X151274285Y-99108571D01*
X151286190Y-99203809D01*
X151774285Y-99299047D01*
X150482619Y-99632380D02*
X150357619Y-98632380D01*
X150476666Y-99584761D02*
X150577857Y-99632380D01*
X150768333Y-99632380D01*
X150857619Y-99584761D01*
X150899285Y-99537142D01*
X150935000Y-99441904D01*
X150899285Y-99156190D01*
X150839761Y-99060952D01*
X150786190Y-99013333D01*
X150685000Y-98965714D01*
X150494523Y-98965714D01*
X150405238Y-99013333D01*
X149577857Y-99632380D02*
X149512380Y-99108571D01*
X149548095Y-99013333D01*
X149637380Y-98965714D01*
X149827857Y-98965714D01*
X149929047Y-99013333D01*
X149571904Y-99584761D02*
X149673095Y-99632380D01*
X149911190Y-99632380D01*
X150000476Y-99584761D01*
X150036190Y-99489523D01*
X150024285Y-99394285D01*
X149964761Y-99299047D01*
X149863571Y-99251428D01*
X149625476Y-99251428D01*
X149524285Y-99203809D01*
X149018333Y-98965714D02*
X149101666Y-99632380D01*
X149030238Y-99060952D02*
X148976666Y-99013333D01*
X148875476Y-98965714D01*
X148732619Y-98965714D01*
X148643333Y-99013333D01*
X148607619Y-99108571D01*
X148673095Y-99632380D01*
X148256428Y-98965714D02*
X147875476Y-98965714D01*
X148071904Y-98632380D02*
X148179047Y-99489523D01*
X148143333Y-99584761D01*
X148054047Y-99632380D01*
X147958809Y-99632380D01*
X154214761Y-100332380D02*
X154690952Y-100332380D01*
X154798095Y-100808571D01*
X154744523Y-100760952D01*
X154643333Y-100713333D01*
X154405238Y-100713333D01*
X154315952Y-100760952D01*
X154274285Y-100808571D01*
X154238571Y-100903809D01*
X154268333Y-101141904D01*
X154327857Y-101237142D01*
X154381428Y-101284761D01*
X154482619Y-101332380D01*
X154720714Y-101332380D01*
X154810000Y-101284761D01*
X154851666Y-101237142D01*
X153851666Y-101237142D02*
X153810000Y-101284761D01*
X153863571Y-101332380D01*
X153905238Y-101284761D01*
X153851666Y-101237142D01*
X153863571Y-101332380D01*
X152310000Y-100332380D02*
X152119523Y-100332380D01*
X152030238Y-100380000D01*
X151946904Y-100475238D01*
X151923095Y-100665714D01*
X151964761Y-100999047D01*
X152036190Y-101189523D01*
X152143333Y-101284761D01*
X152244523Y-101332380D01*
X152435000Y-101332380D01*
X152524285Y-101284761D01*
X152607619Y-101189523D01*
X152631428Y-100999047D01*
X152589761Y-100665714D01*
X152518333Y-100475238D01*
X152411190Y-100380000D01*
X152310000Y-100332380D01*
X151577857Y-101332380D02*
X151494523Y-100665714D01*
X151506428Y-100760952D02*
X151452857Y-100713333D01*
X151351666Y-100665714D01*
X151208809Y-100665714D01*
X151119523Y-100713333D01*
X151083809Y-100808571D01*
X151149285Y-101332380D01*
X151083809Y-100808571D02*
X151024285Y-100713333D01*
X150923095Y-100665714D01*
X150780238Y-100665714D01*
X150690952Y-100713333D01*
X150655238Y-100808571D01*
X150720714Y-101332380D01*
X150244523Y-101332380D02*
X150119523Y-100332380D01*
X150101666Y-100951428D02*
X149863571Y-101332380D01*
X149780238Y-100665714D02*
X150208809Y-101046666D01*
X149006428Y-101332380D02*
X148940952Y-100808571D01*
X148976666Y-100713333D01*
X149065952Y-100665714D01*
X149256428Y-100665714D01*
X149357619Y-100713333D01*
X149000476Y-101284761D02*
X149101666Y-101332380D01*
X149339761Y-101332380D01*
X149429047Y-101284761D01*
X149464761Y-101189523D01*
X149452857Y-101094285D01*
X149393333Y-100999047D01*
X149292142Y-100951428D01*
X149054047Y-100951428D01*
X148952857Y-100903809D01*
X148530238Y-101332380D02*
X148446904Y-100665714D01*
X148470714Y-100856190D02*
X148411190Y-100760952D01*
X148357619Y-100713333D01*
X148256428Y-100665714D01*
X148161190Y-100665714D01*
D11*
G36*
X149990000Y-83047715D02*
G01*
X149896573Y-83158720D01*
X149863571Y-83339264D01*
X149900536Y-83499315D01*
X149938041Y-83538051D01*
X150013579Y-83505774D01*
X150063885Y-83394881D01*
X150111679Y-83150744D01*
X150082456Y-83042833D01*
X149990000Y-83047715D01*
G37*
X149990000Y-83047715D02*
X149896573Y-83158720D01*
X149863571Y-83339264D01*
X149900536Y-83499315D01*
X149938041Y-83538051D01*
X150013579Y-83505774D01*
X150063885Y-83394881D01*
X150111679Y-83150744D01*
X150082456Y-83042833D01*
X149990000Y-83047715D01*
G36*
X144940180Y-80772501D02*
G01*
X144783202Y-80876328D01*
X144657384Y-80984477D01*
X144559285Y-81116010D01*
X144485465Y-81289990D01*
X144432483Y-81525480D01*
X144396899Y-81841541D01*
X144375271Y-82257236D01*
X144364160Y-82791627D01*
X144360125Y-83463777D01*
X144359666Y-83988775D01*
X144360028Y-84697541D01*
X144362064Y-85257332D01*
X144367204Y-85688507D01*
X144376876Y-86011423D01*
X144392508Y-86246440D01*
X144415530Y-86413915D01*
X144447369Y-86534207D01*
X144489455Y-86627674D01*
X144543216Y-86714674D01*
X144551854Y-86727646D01*
X144642549Y-86861068D01*
X144730984Y-86972440D01*
X144832488Y-87063728D01*
X144962389Y-87136899D01*
X145136018Y-87193917D01*
X145368701Y-87236748D01*
X145675769Y-87267359D01*
X146072550Y-87287715D01*
X146574373Y-87299782D01*
X147196566Y-87305525D01*
X147954459Y-87306910D01*
X148863380Y-87305904D01*
X149058666Y-87305597D01*
X149947824Y-87304034D01*
X150680629Y-87301975D01*
X151270064Y-87298823D01*
X151729111Y-87293982D01*
X152070752Y-87286853D01*
X152307967Y-87276840D01*
X152453739Y-87263346D01*
X152521049Y-87245775D01*
X152522880Y-87223528D01*
X152472212Y-87196008D01*
X152382027Y-87162620D01*
X152356677Y-87153917D01*
X151823736Y-86928258D01*
X151369787Y-86628051D01*
X150941341Y-86223630D01*
X150518410Y-85689914D01*
X150237737Y-85131854D01*
X150107939Y-84681630D01*
X150034133Y-84422704D01*
X149963965Y-84331008D01*
X149903477Y-84404457D01*
X149858708Y-84640965D01*
X149847178Y-84771667D01*
X149820666Y-85152667D01*
X149074566Y-85152667D01*
X149075249Y-85072098D01*
X148423666Y-85072098D01*
X148347594Y-85094162D01*
X148152586Y-85099734D01*
X147989824Y-85093591D01*
X147555981Y-85068000D01*
X147053747Y-84181312D01*
X146857226Y-83836010D01*
X146691984Y-83548780D01*
X146575218Y-83349298D01*
X146524125Y-83267243D01*
X146523953Y-83267064D01*
X146474788Y-83325734D01*
X146360166Y-83505808D01*
X146196451Y-83780435D01*
X146000007Y-84122767D01*
X145970627Y-84174919D01*
X145444860Y-85110333D01*
X145029263Y-85110333D01*
X144790769Y-85098718D01*
X144641463Y-85069071D01*
X144615734Y-85046833D01*
X144656589Y-84956249D01*
X144768734Y-84743810D01*
X144938633Y-84434219D01*
X145152750Y-84052176D01*
X145369673Y-83671000D01*
X146121543Y-82358667D01*
X146497645Y-82333390D01*
X146873747Y-82308114D01*
X147648707Y-83666564D01*
X147893938Y-84098867D01*
X148107231Y-84479512D01*
X148275403Y-84784588D01*
X148385269Y-84990184D01*
X148423666Y-85072098D01*
X149075249Y-85072098D01*
X149078348Y-84707044D01*
X149099952Y-84427829D01*
X149150938Y-84206874D01*
X149188679Y-84133036D01*
X149252171Y-83988322D01*
X149200330Y-83796396D01*
X149198114Y-83791509D01*
X149141939Y-83583452D01*
X149106871Y-83290448D01*
X149101000Y-83121484D01*
X149133876Y-82783040D01*
X149248953Y-82564789D01*
X149470903Y-82445077D01*
X149824400Y-82402253D01*
X149921998Y-82401000D01*
X150190951Y-82391231D01*
X150346925Y-82346621D01*
X150445856Y-82244211D01*
X150489303Y-82168167D01*
X150630816Y-81963866D01*
X150853467Y-81712290D01*
X151124144Y-81443411D01*
X151409734Y-81187204D01*
X151677126Y-80973641D01*
X151893205Y-80832696D01*
X152009219Y-80792333D01*
X151988228Y-80837046D01*
X151858089Y-80953780D01*
X151665972Y-81102925D01*
X151423422Y-81307486D01*
X151176546Y-81556629D01*
X150952241Y-81817225D01*
X150777401Y-82056143D01*
X150678922Y-82240251D01*
X150673215Y-82325850D01*
X150772834Y-82358424D01*
X151001960Y-82383880D01*
X151320800Y-82398681D01*
X151518997Y-82401000D01*
X152318333Y-82401000D01*
X152318333Y-82988121D01*
X151365833Y-83012060D01*
X150413333Y-83036000D01*
X150386802Y-83311167D01*
X150360271Y-83586333D01*
X152318333Y-83586333D01*
X152318333Y-85204736D01*
X151958500Y-85178701D01*
X151598666Y-85152667D01*
X151547484Y-84263667D01*
X150437309Y-84263667D01*
X150494613Y-84496500D01*
X150675105Y-84947671D01*
X150980562Y-85409255D01*
X151375484Y-85837582D01*
X151824372Y-86188981D01*
X151916450Y-86245571D01*
X152567025Y-86535683D01*
X153245569Y-86674095D01*
X153928181Y-86668120D01*
X154590962Y-86525069D01*
X155210013Y-86252254D01*
X155761433Y-85856987D01*
X156221324Y-85346579D01*
X156517721Y-84837878D01*
X156605697Y-84641962D01*
X156382333Y-84641962D01*
X156318313Y-84902632D01*
X156121388Y-85077770D01*
X155784267Y-85171781D01*
X155472166Y-85191610D01*
X155027666Y-85195000D01*
X155027666Y-84898667D01*
X155041747Y-84699618D01*
X155113668Y-84617975D01*
X155284324Y-84602333D01*
X155491973Y-84562614D01*
X155589715Y-84475333D01*
X155708147Y-84382532D01*
X155975532Y-84348604D01*
X156010392Y-84348333D01*
X156240877Y-84355197D01*
X156348670Y-84400330D01*
X156380402Y-84520548D01*
X156382333Y-84641962D01*
X156605697Y-84641962D01*
X156606280Y-84640665D01*
X156670500Y-84469564D01*
X156714289Y-84292528D01*
X156741558Y-84077507D01*
X156756214Y-83792453D01*
X156762169Y-83405315D01*
X156762496Y-83258085D01*
X156382333Y-83258085D01*
X156377409Y-83567559D01*
X156352402Y-83754125D01*
X156291962Y-83864144D01*
X156180738Y-83943975D01*
X156149500Y-83961239D01*
X155926717Y-84036244D01*
X155625427Y-84083299D01*
X155472166Y-84090943D01*
X155027666Y-84094333D01*
X155027666Y-83798000D01*
X155044905Y-83595974D01*
X155117245Y-83513219D01*
X155207978Y-83501667D01*
X154435000Y-83501667D01*
X154435000Y-83792635D01*
X154418551Y-83991559D01*
X154336301Y-84079041D01*
X154160527Y-84110135D01*
X153936712Y-84180549D01*
X153843304Y-84307195D01*
X153873054Y-84447694D01*
X154018713Y-84559667D01*
X154244500Y-84601037D01*
X154374298Y-84628736D01*
X154427181Y-84741624D01*
X154435000Y-84898667D01*
X154435000Y-85195000D01*
X153974054Y-85195000D01*
X153654261Y-85175002D01*
X153431435Y-85101777D01*
X153281721Y-84995968D01*
X153150289Y-84864367D01*
X153083687Y-84722450D01*
X153063843Y-84511201D01*
X153067850Y-84297468D01*
X153108218Y-83928764D01*
X153216821Y-83690949D01*
X153421480Y-83558533D01*
X153750014Y-83506025D01*
X153936380Y-83501667D01*
X154435000Y-83501667D01*
X155207978Y-83501667D01*
X155218166Y-83500370D01*
X155470923Y-83449723D01*
X155602857Y-83330445D01*
X155608705Y-83185169D01*
X155483207Y-83056531D01*
X155280705Y-82993667D01*
X155084163Y-82950844D01*
X155010991Y-82866826D01*
X155014545Y-82705859D01*
X154435000Y-82705859D01*
X154419584Y-82901289D01*
X154343462Y-82979931D01*
X154185997Y-82993667D01*
X153990468Y-83019765D01*
X153884666Y-83078333D01*
X153775157Y-83129463D01*
X153560034Y-83159590D01*
X153450972Y-83163000D01*
X153217321Y-83157122D01*
X153110170Y-83117347D01*
X153086686Y-83010457D01*
X153096135Y-82887833D01*
X153197059Y-82627416D01*
X153432147Y-82456477D01*
X153787424Y-82382465D01*
X154036765Y-82386378D01*
X154277540Y-82412217D01*
X154394241Y-82463205D01*
X154431778Y-82575370D01*
X154435000Y-82705859D01*
X155014545Y-82705859D01*
X155014734Y-82697333D01*
X155042330Y-82510506D01*
X155067185Y-82419104D01*
X155157216Y-82405034D01*
X155365966Y-82393842D01*
X155571712Y-82389124D01*
X155937785Y-82407782D01*
X156176470Y-82492280D01*
X156313033Y-82669701D01*
X156372739Y-82967130D01*
X156382333Y-83258085D01*
X156762496Y-83258085D01*
X156763330Y-82884045D01*
X156763333Y-82824333D01*
X156760363Y-82237413D01*
X156746428Y-81793243D01*
X156713995Y-81465273D01*
X156655529Y-81226955D01*
X156563495Y-81051740D01*
X156430359Y-80913080D01*
X156248587Y-80784424D01*
X156193218Y-80750000D01*
X152233666Y-80750000D01*
X152191333Y-80792333D01*
X152149000Y-80750000D01*
X152191333Y-80707667D01*
X152233666Y-80750000D01*
X156193218Y-80750000D01*
X156170666Y-80735979D01*
X156111374Y-80704383D01*
X156036146Y-80677375D01*
X155932097Y-80654596D01*
X155786345Y-80635689D01*
X155586005Y-80620296D01*
X155318193Y-80608059D01*
X154970024Y-80598618D01*
X154528615Y-80591617D01*
X153981081Y-80586697D01*
X153314538Y-80583501D01*
X152516102Y-80581669D01*
X151572890Y-80580844D01*
X150582666Y-80580667D01*
X145248666Y-80580667D01*
X144940180Y-80772501D01*
G37*
X144940180Y-80772501D02*
X144783202Y-80876328D01*
X144657384Y-80984477D01*
X144559285Y-81116010D01*
X144485465Y-81289990D01*
X144432483Y-81525480D01*
X144396899Y-81841541D01*
X144375271Y-82257236D01*
X144364160Y-82791627D01*
X144360125Y-83463777D01*
X144359666Y-83988775D01*
X144360028Y-84697541D01*
X144362064Y-85257332D01*
X144367204Y-85688507D01*
X144376876Y-86011423D01*
X144392508Y-86246440D01*
X144415530Y-86413915D01*
X144447369Y-86534207D01*
X144489455Y-86627674D01*
X144543216Y-86714674D01*
X144551854Y-86727646D01*
X144642549Y-86861068D01*
X144730984Y-86972440D01*
X144832488Y-87063728D01*
X144962389Y-87136899D01*
X145136018Y-87193917D01*
X145368701Y-87236748D01*
X145675769Y-87267359D01*
X146072550Y-87287715D01*
X146574373Y-87299782D01*
X147196566Y-87305525D01*
X147954459Y-87306910D01*
X148863380Y-87305904D01*
X149058666Y-87305597D01*
X149947824Y-87304034D01*
X150680629Y-87301975D01*
X151270064Y-87298823D01*
X151729111Y-87293982D01*
X152070752Y-87286853D01*
X152307967Y-87276840D01*
X152453739Y-87263346D01*
X152521049Y-87245775D01*
X152522880Y-87223528D01*
X152472212Y-87196008D01*
X152382027Y-87162620D01*
X152356677Y-87153917D01*
X151823736Y-86928258D01*
X151369787Y-86628051D01*
X150941341Y-86223630D01*
X150518410Y-85689914D01*
X150237737Y-85131854D01*
X150107939Y-84681630D01*
X150034133Y-84422704D01*
X149963965Y-84331008D01*
X149903477Y-84404457D01*
X149858708Y-84640965D01*
X149847178Y-84771667D01*
X149820666Y-85152667D01*
X149074566Y-85152667D01*
X149075249Y-85072098D01*
X148423666Y-85072098D01*
X148347594Y-85094162D01*
X148152586Y-85099734D01*
X147989824Y-85093591D01*
X147555981Y-85068000D01*
X147053747Y-84181312D01*
X146857226Y-83836010D01*
X146691984Y-83548780D01*
X146575218Y-83349298D01*
X146524125Y-83267243D01*
X146523953Y-83267064D01*
X146474788Y-83325734D01*
X146360166Y-83505808D01*
X146196451Y-83780435D01*
X146000007Y-84122767D01*
X145970627Y-84174919D01*
X145444860Y-85110333D01*
X145029263Y-85110333D01*
X144790769Y-85098718D01*
X144641463Y-85069071D01*
X144615734Y-85046833D01*
X144656589Y-84956249D01*
X144768734Y-84743810D01*
X144938633Y-84434219D01*
X145152750Y-84052176D01*
X145369673Y-83671000D01*
X146121543Y-82358667D01*
X146497645Y-82333390D01*
X146873747Y-82308114D01*
X147648707Y-83666564D01*
X147893938Y-84098867D01*
X148107231Y-84479512D01*
X148275403Y-84784588D01*
X148385269Y-84990184D01*
X148423666Y-85072098D01*
X149075249Y-85072098D01*
X149078348Y-84707044D01*
X149099952Y-84427829D01*
X149150938Y-84206874D01*
X149188679Y-84133036D01*
X149252171Y-83988322D01*
X149200330Y-83796396D01*
X149198114Y-83791509D01*
X149141939Y-83583452D01*
X149106871Y-83290448D01*
X149101000Y-83121484D01*
X149133876Y-82783040D01*
X149248953Y-82564789D01*
X149470903Y-82445077D01*
X149824400Y-82402253D01*
X149921998Y-82401000D01*
X150190951Y-82391231D01*
X150346925Y-82346621D01*
X150445856Y-82244211D01*
X150489303Y-82168167D01*
X150630816Y-81963866D01*
X150853467Y-81712290D01*
X151124144Y-81443411D01*
X151409734Y-81187204D01*
X151677126Y-80973641D01*
X151893205Y-80832696D01*
X152009219Y-80792333D01*
X151988228Y-80837046D01*
X151858089Y-80953780D01*
X151665972Y-81102925D01*
X151423422Y-81307486D01*
X151176546Y-81556629D01*
X150952241Y-81817225D01*
X150777401Y-82056143D01*
X150678922Y-82240251D01*
X150673215Y-82325850D01*
X150772834Y-82358424D01*
X151001960Y-82383880D01*
X151320800Y-82398681D01*
X151518997Y-82401000D01*
X152318333Y-82401000D01*
X152318333Y-82988121D01*
X151365833Y-83012060D01*
X150413333Y-83036000D01*
X150386802Y-83311167D01*
X150360271Y-83586333D01*
X152318333Y-83586333D01*
X152318333Y-85204736D01*
X151958500Y-85178701D01*
X151598666Y-85152667D01*
X151547484Y-84263667D01*
X150437309Y-84263667D01*
X150494613Y-84496500D01*
X150675105Y-84947671D01*
X150980562Y-85409255D01*
X151375484Y-85837582D01*
X151824372Y-86188981D01*
X151916450Y-86245571D01*
X152567025Y-86535683D01*
X153245569Y-86674095D01*
X153928181Y-86668120D01*
X154590962Y-86525069D01*
X155210013Y-86252254D01*
X155761433Y-85856987D01*
X156221324Y-85346579D01*
X156517721Y-84837878D01*
X156605697Y-84641962D01*
X156382333Y-84641962D01*
X156318313Y-84902632D01*
X156121388Y-85077770D01*
X155784267Y-85171781D01*
X155472166Y-85191610D01*
X155027666Y-85195000D01*
X155027666Y-84898667D01*
X155041747Y-84699618D01*
X155113668Y-84617975D01*
X155284324Y-84602333D01*
X155491973Y-84562614D01*
X155589715Y-84475333D01*
X155708147Y-84382532D01*
X155975532Y-84348604D01*
X156010392Y-84348333D01*
X156240877Y-84355197D01*
X156348670Y-84400330D01*
X156380402Y-84520548D01*
X156382333Y-84641962D01*
X156605697Y-84641962D01*
X156606280Y-84640665D01*
X156670500Y-84469564D01*
X156714289Y-84292528D01*
X156741558Y-84077507D01*
X156756214Y-83792453D01*
X156762169Y-83405315D01*
X156762496Y-83258085D01*
X156382333Y-83258085D01*
X156377409Y-83567559D01*
X156352402Y-83754125D01*
X156291962Y-83864144D01*
X156180738Y-83943975D01*
X156149500Y-83961239D01*
X155926717Y-84036244D01*
X155625427Y-84083299D01*
X155472166Y-84090943D01*
X155027666Y-84094333D01*
X155027666Y-83798000D01*
X155044905Y-83595974D01*
X155117245Y-83513219D01*
X155207978Y-83501667D01*
X154435000Y-83501667D01*
X154435000Y-83792635D01*
X154418551Y-83991559D01*
X154336301Y-84079041D01*
X154160527Y-84110135D01*
X153936712Y-84180549D01*
X153843304Y-84307195D01*
X153873054Y-84447694D01*
X154018713Y-84559667D01*
X154244500Y-84601037D01*
X154374298Y-84628736D01*
X154427181Y-84741624D01*
X154435000Y-84898667D01*
X154435000Y-85195000D01*
X153974054Y-85195000D01*
X153654261Y-85175002D01*
X153431435Y-85101777D01*
X153281721Y-84995968D01*
X153150289Y-84864367D01*
X153083687Y-84722450D01*
X153063843Y-84511201D01*
X153067850Y-84297468D01*
X153108218Y-83928764D01*
X153216821Y-83690949D01*
X153421480Y-83558533D01*
X153750014Y-83506025D01*
X153936380Y-83501667D01*
X154435000Y-83501667D01*
X155207978Y-83501667D01*
X155218166Y-83500370D01*
X155470923Y-83449723D01*
X155602857Y-83330445D01*
X155608705Y-83185169D01*
X155483207Y-83056531D01*
X155280705Y-82993667D01*
X155084163Y-82950844D01*
X155010991Y-82866826D01*
X155014545Y-82705859D01*
X154435000Y-82705859D01*
X154419584Y-82901289D01*
X154343462Y-82979931D01*
X154185997Y-82993667D01*
X153990468Y-83019765D01*
X153884666Y-83078333D01*
X153775157Y-83129463D01*
X153560034Y-83159590D01*
X153450972Y-83163000D01*
X153217321Y-83157122D01*
X153110170Y-83117347D01*
X153086686Y-83010457D01*
X153096135Y-82887833D01*
X153197059Y-82627416D01*
X153432147Y-82456477D01*
X153787424Y-82382465D01*
X154036765Y-82386378D01*
X154277540Y-82412217D01*
X154394241Y-82463205D01*
X154431778Y-82575370D01*
X154435000Y-82705859D01*
X155014545Y-82705859D01*
X155014734Y-82697333D01*
X155042330Y-82510506D01*
X155067185Y-82419104D01*
X155157216Y-82405034D01*
X155365966Y-82393842D01*
X155571712Y-82389124D01*
X155937785Y-82407782D01*
X156176470Y-82492280D01*
X156313033Y-82669701D01*
X156372739Y-82967130D01*
X156382333Y-83258085D01*
X156762496Y-83258085D01*
X156763330Y-82884045D01*
X156763333Y-82824333D01*
X156760363Y-82237413D01*
X156746428Y-81793243D01*
X156713995Y-81465273D01*
X156655529Y-81226955D01*
X156563495Y-81051740D01*
X156430359Y-80913080D01*
X156248587Y-80784424D01*
X156193218Y-80750000D01*
X152233666Y-80750000D01*
X152191333Y-80792333D01*
X152149000Y-80750000D01*
X152191333Y-80707667D01*
X152233666Y-80750000D01*
X156193218Y-80750000D01*
X156170666Y-80735979D01*
X156111374Y-80704383D01*
X156036146Y-80677375D01*
X155932097Y-80654596D01*
X155786345Y-80635689D01*
X155586005Y-80620296D01*
X155318193Y-80608059D01*
X154970024Y-80598618D01*
X154528615Y-80591617D01*
X153981081Y-80586697D01*
X153314538Y-80583501D01*
X152516102Y-80581669D01*
X151572890Y-80580844D01*
X150582666Y-80580667D01*
X145248666Y-80580667D01*
X144940180Y-80772501D01*
G36*
X148221177Y-74224533D02*
G01*
X148189798Y-74246776D01*
X148162089Y-74274485D01*
X148162089Y-74583920D01*
X148162162Y-74675799D01*
X148162505Y-74747840D01*
X148163308Y-74802780D01*
X148164759Y-74843360D01*
X148167048Y-74872317D01*
X148170364Y-74892391D01*
X148174895Y-74906321D01*
X148180831Y-74916845D01*
X148185486Y-74923100D01*
X148216217Y-74947673D01*
X148251504Y-74950341D01*
X148283755Y-74935271D01*
X148294412Y-74926374D01*
X148301536Y-74914557D01*
X148305833Y-74895526D01*
X148308009Y-74864992D01*
X148308772Y-74818662D01*
X148308845Y-74782871D01*
X148308845Y-74648045D01*
X148805556Y-74648045D01*
X148805556Y-74770700D01*
X148806069Y-74826787D01*
X148808124Y-74865333D01*
X148812492Y-74891361D01*
X148819944Y-74909897D01*
X148828953Y-74923100D01*
X148859856Y-74947604D01*
X148894804Y-74950506D01*
X148928262Y-74933089D01*
X148937396Y-74923959D01*
X148943848Y-74911855D01*
X148948103Y-74893001D01*
X148950648Y-74863620D01*
X148951971Y-74819937D01*
X148952557Y-74758175D01*
X148952625Y-74744000D01*
X148953109Y-74627631D01*
X148953359Y-74531727D01*
X148953277Y-74454177D01*
X148952769Y-74392869D01*
X148951738Y-74345690D01*
X148950087Y-74310530D01*
X148947721Y-74285276D01*
X148944543Y-74267817D01*
X148940456Y-74256041D01*
X148935366Y-74247835D01*
X148929734Y-74241645D01*
X148897872Y-74221844D01*
X148864643Y-74224533D01*
X148833265Y-74246776D01*
X148820567Y-74261126D01*
X148812474Y-74276978D01*
X148807958Y-74299554D01*
X148805994Y-74334078D01*
X148805556Y-74385776D01*
X148805556Y-74501289D01*
X148308845Y-74501289D01*
X148308845Y-74382756D01*
X148308338Y-74328148D01*
X148306302Y-74291275D01*
X148301965Y-74267307D01*
X148294553Y-74251415D01*
X148286267Y-74241645D01*
X148254406Y-74221844D01*
X148221177Y-74224533D01*
G37*
X148221177Y-74224533D02*
X148189798Y-74246776D01*
X148162089Y-74274485D01*
X148162089Y-74583920D01*
X148162162Y-74675799D01*
X148162505Y-74747840D01*
X148163308Y-74802780D01*
X148164759Y-74843360D01*
X148167048Y-74872317D01*
X148170364Y-74892391D01*
X148174895Y-74906321D01*
X148180831Y-74916845D01*
X148185486Y-74923100D01*
X148216217Y-74947673D01*
X148251504Y-74950341D01*
X148283755Y-74935271D01*
X148294412Y-74926374D01*
X148301536Y-74914557D01*
X148305833Y-74895526D01*
X148308009Y-74864992D01*
X148308772Y-74818662D01*
X148308845Y-74782871D01*
X148308845Y-74648045D01*
X148805556Y-74648045D01*
X148805556Y-74770700D01*
X148806069Y-74826787D01*
X148808124Y-74865333D01*
X148812492Y-74891361D01*
X148819944Y-74909897D01*
X148828953Y-74923100D01*
X148859856Y-74947604D01*
X148894804Y-74950506D01*
X148928262Y-74933089D01*
X148937396Y-74923959D01*
X148943848Y-74911855D01*
X148948103Y-74893001D01*
X148950648Y-74863620D01*
X148951971Y-74819937D01*
X148952557Y-74758175D01*
X148952625Y-74744000D01*
X148953109Y-74627631D01*
X148953359Y-74531727D01*
X148953277Y-74454177D01*
X148952769Y-74392869D01*
X148951738Y-74345690D01*
X148950087Y-74310530D01*
X148947721Y-74285276D01*
X148944543Y-74267817D01*
X148940456Y-74256041D01*
X148935366Y-74247835D01*
X148929734Y-74241645D01*
X148897872Y-74221844D01*
X148864643Y-74224533D01*
X148833265Y-74246776D01*
X148820567Y-74261126D01*
X148812474Y-74276978D01*
X148807958Y-74299554D01*
X148805994Y-74334078D01*
X148805556Y-74385776D01*
X148805556Y-74501289D01*
X148308845Y-74501289D01*
X148308845Y-74382756D01*
X148308338Y-74328148D01*
X148306302Y-74291275D01*
X148301965Y-74267307D01*
X148294553Y-74251415D01*
X148286267Y-74241645D01*
X148254406Y-74221844D01*
X148221177Y-74224533D01*
G36*
X149486935Y-74219163D02*
G01*
X149408228Y-74219542D01*
X149347137Y-74220333D01*
X149301183Y-74221670D01*
X149267886Y-74223683D01*
X149244764Y-74226506D01*
X149229338Y-74230269D01*
X149219129Y-74235105D01*
X149214187Y-74238822D01*
X149188543Y-74271358D01*
X149185441Y-74305138D01*
X149201289Y-74335826D01*
X149211652Y-74348089D01*
X149222804Y-74356450D01*
X149238965Y-74361657D01*
X149264358Y-74364457D01*
X149303202Y-74365596D01*
X149359720Y-74365821D01*
X149370820Y-74365822D01*
X149516756Y-74365822D01*
X149516756Y-74636756D01*
X149516852Y-74722154D01*
X149517289Y-74787864D01*
X149518288Y-74836774D01*
X149520072Y-74871773D01*
X149522863Y-74895749D01*
X149526883Y-74911593D01*
X149532355Y-74922191D01*
X149539334Y-74930267D01*
X149572266Y-74950112D01*
X149606646Y-74948548D01*
X149637824Y-74925906D01*
X149640114Y-74923100D01*
X149647571Y-74912492D01*
X149653253Y-74900081D01*
X149657399Y-74882850D01*
X149660250Y-74857784D01*
X149662046Y-74821867D01*
X149663028Y-74772083D01*
X149663436Y-74705417D01*
X149663511Y-74629589D01*
X149663511Y-74365822D01*
X149802873Y-74365822D01*
X149862678Y-74365418D01*
X149904082Y-74363840D01*
X149931252Y-74360547D01*
X149948354Y-74354992D01*
X149959557Y-74346631D01*
X149960917Y-74345178D01*
X149977275Y-74311939D01*
X149975828Y-74274362D01*
X149957022Y-74241645D01*
X149949750Y-74235298D01*
X149940373Y-74230266D01*
X149926391Y-74226396D01*
X149905304Y-74223537D01*
X149874611Y-74221535D01*
X149831811Y-74220239D01*
X149774405Y-74219498D01*
X149699890Y-74219158D01*
X149605767Y-74219068D01*
X149585740Y-74219067D01*
X149486935Y-74219163D01*
G37*
X149486935Y-74219163D02*
X149408228Y-74219542D01*
X149347137Y-74220333D01*
X149301183Y-74221670D01*
X149267886Y-74223683D01*
X149244764Y-74226506D01*
X149229338Y-74230269D01*
X149219129Y-74235105D01*
X149214187Y-74238822D01*
X149188543Y-74271358D01*
X149185441Y-74305138D01*
X149201289Y-74335826D01*
X149211652Y-74348089D01*
X149222804Y-74356450D01*
X149238965Y-74361657D01*
X149264358Y-74364457D01*
X149303202Y-74365596D01*
X149359720Y-74365821D01*
X149370820Y-74365822D01*
X149516756Y-74365822D01*
X149516756Y-74636756D01*
X149516852Y-74722154D01*
X149517289Y-74787864D01*
X149518288Y-74836774D01*
X149520072Y-74871773D01*
X149522863Y-74895749D01*
X149526883Y-74911593D01*
X149532355Y-74922191D01*
X149539334Y-74930267D01*
X149572266Y-74950112D01*
X149606646Y-74948548D01*
X149637824Y-74925906D01*
X149640114Y-74923100D01*
X149647571Y-74912492D01*
X149653253Y-74900081D01*
X149657399Y-74882850D01*
X149660250Y-74857784D01*
X149662046Y-74821867D01*
X149663028Y-74772083D01*
X149663436Y-74705417D01*
X149663511Y-74629589D01*
X149663511Y-74365822D01*
X149802873Y-74365822D01*
X149862678Y-74365418D01*
X149904082Y-74363840D01*
X149931252Y-74360547D01*
X149948354Y-74354992D01*
X149959557Y-74346631D01*
X149960917Y-74345178D01*
X149977275Y-74311939D01*
X149975828Y-74274362D01*
X149957022Y-74241645D01*
X149949750Y-74235298D01*
X149940373Y-74230266D01*
X149926391Y-74226396D01*
X149905304Y-74223537D01*
X149874611Y-74221535D01*
X149831811Y-74220239D01*
X149774405Y-74219498D01*
X149699890Y-74219158D01*
X149605767Y-74219068D01*
X149585740Y-74219067D01*
X149486935Y-74219163D01*
G36*
X150261386Y-74225877D02*
G01*
X150237673Y-74240647D01*
X150211022Y-74262227D01*
X150211022Y-74583773D01*
X150211107Y-74677830D01*
X150211471Y-74751932D01*
X150212276Y-74808704D01*
X150213687Y-74850768D01*
X150215867Y-74880748D01*
X150218979Y-74901267D01*
X150223186Y-74914949D01*
X150228652Y-74924416D01*
X150232528Y-74929082D01*
X150263966Y-74949575D01*
X150299767Y-74948739D01*
X150331127Y-74931264D01*
X150357778Y-74909684D01*
X150357778Y-74262227D01*
X150331127Y-74240647D01*
X150305406Y-74224949D01*
X150284400Y-74219067D01*
X150261386Y-74225877D01*
G37*
X150261386Y-74225877D02*
X150237673Y-74240647D01*
X150211022Y-74262227D01*
X150211022Y-74583773D01*
X150211107Y-74677830D01*
X150211471Y-74751932D01*
X150212276Y-74808704D01*
X150213687Y-74850768D01*
X150215867Y-74880748D01*
X150218979Y-74901267D01*
X150223186Y-74914949D01*
X150228652Y-74924416D01*
X150232528Y-74929082D01*
X150263966Y-74949575D01*
X150299767Y-74948739D01*
X150331127Y-74931264D01*
X150357778Y-74909684D01*
X150357778Y-74262227D01*
X150331127Y-74240647D01*
X150305406Y-74224949D01*
X150284400Y-74219067D01*
X150261386Y-74225877D01*
G36*
X150705335Y-74221034D02*
G01*
X150685745Y-74228035D01*
X150684990Y-74228377D01*
X150658387Y-74248678D01*
X150643730Y-74269561D01*
X150640862Y-74279352D01*
X150641004Y-74292361D01*
X150645039Y-74310895D01*
X150653854Y-74337257D01*
X150668331Y-74373752D01*
X150689355Y-74422687D01*
X150717812Y-74486365D01*
X150754585Y-74567093D01*
X150774825Y-74611216D01*
X150811375Y-74689985D01*
X150845685Y-74762423D01*
X150876448Y-74825880D01*
X150902352Y-74877708D01*
X150922090Y-74915259D01*
X150934350Y-74935884D01*
X150936776Y-74938733D01*
X150967817Y-74951302D01*
X151002879Y-74949619D01*
X151031000Y-74934332D01*
X151032146Y-74933089D01*
X151043332Y-74916154D01*
X151062096Y-74883170D01*
X151086125Y-74838380D01*
X151113103Y-74786032D01*
X151122799Y-74766742D01*
X151195986Y-74620150D01*
X151275760Y-74779393D01*
X151304233Y-74834415D01*
X151330650Y-74882132D01*
X151352852Y-74918893D01*
X151368681Y-74941044D01*
X151374046Y-74945741D01*
X151415743Y-74952102D01*
X151450151Y-74938733D01*
X151460272Y-74924446D01*
X151477786Y-74892692D01*
X151501265Y-74846597D01*
X151529280Y-74789285D01*
X151560401Y-74723880D01*
X151593201Y-74653507D01*
X151626250Y-74581291D01*
X151658119Y-74510355D01*
X151687381Y-74443825D01*
X151712605Y-74384826D01*
X151732364Y-74336481D01*
X151745228Y-74301915D01*
X151749769Y-74284253D01*
X151749723Y-74283613D01*
X151738674Y-74261388D01*
X151716590Y-74238753D01*
X151715290Y-74237768D01*
X151688147Y-74222425D01*
X151663042Y-74222574D01*
X151653632Y-74225466D01*
X151642166Y-74231718D01*
X151629990Y-74244014D01*
X151615643Y-74264908D01*
X151597664Y-74296949D01*
X151574593Y-74342688D01*
X151544970Y-74404677D01*
X151518255Y-74461898D01*
X151487520Y-74528226D01*
X151459979Y-74587874D01*
X151437062Y-74637725D01*
X151420202Y-74674664D01*
X151410827Y-74695573D01*
X151409460Y-74698845D01*
X151403311Y-74693497D01*
X151389178Y-74671109D01*
X151368943Y-74634946D01*
X151344485Y-74588277D01*
X151334752Y-74569022D01*
X151301783Y-74504004D01*
X151276357Y-74456654D01*
X151256388Y-74424219D01*
X151239790Y-74403946D01*
X151224476Y-74393082D01*
X151208360Y-74388875D01*
X151197857Y-74388400D01*
X151179330Y-74390042D01*
X151163096Y-74396831D01*
X151146965Y-74411566D01*
X151128749Y-74437044D01*
X151106261Y-74476061D01*
X151077311Y-74531414D01*
X151061338Y-74562903D01*
X151035430Y-74613087D01*
X151012833Y-74654704D01*
X150995542Y-74684242D01*
X150985550Y-74698189D01*
X150984191Y-74698770D01*
X150977739Y-74687793D01*
X150963292Y-74659290D01*
X150942297Y-74616244D01*
X150916203Y-74561638D01*
X150886454Y-74498454D01*
X150871820Y-74467071D01*
X150833750Y-74386078D01*
X150803095Y-74323756D01*
X150778263Y-74278071D01*
X150757663Y-74246989D01*
X150739702Y-74228478D01*
X150722790Y-74220504D01*
X150705335Y-74221034D01*
G37*
X150705335Y-74221034D02*
X150685745Y-74228035D01*
X150684990Y-74228377D01*
X150658387Y-74248678D01*
X150643730Y-74269561D01*
X150640862Y-74279352D01*
X150641004Y-74292361D01*
X150645039Y-74310895D01*
X150653854Y-74337257D01*
X150668331Y-74373752D01*
X150689355Y-74422687D01*
X150717812Y-74486365D01*
X150754585Y-74567093D01*
X150774825Y-74611216D01*
X150811375Y-74689985D01*
X150845685Y-74762423D01*
X150876448Y-74825880D01*
X150902352Y-74877708D01*
X150922090Y-74915259D01*
X150934350Y-74935884D01*
X150936776Y-74938733D01*
X150967817Y-74951302D01*
X151002879Y-74949619D01*
X151031000Y-74934332D01*
X151032146Y-74933089D01*
X151043332Y-74916154D01*
X151062096Y-74883170D01*
X151086125Y-74838380D01*
X151113103Y-74786032D01*
X151122799Y-74766742D01*
X151195986Y-74620150D01*
X151275760Y-74779393D01*
X151304233Y-74834415D01*
X151330650Y-74882132D01*
X151352852Y-74918893D01*
X151368681Y-74941044D01*
X151374046Y-74945741D01*
X151415743Y-74952102D01*
X151450151Y-74938733D01*
X151460272Y-74924446D01*
X151477786Y-74892692D01*
X151501265Y-74846597D01*
X151529280Y-74789285D01*
X151560401Y-74723880D01*
X151593201Y-74653507D01*
X151626250Y-74581291D01*
X151658119Y-74510355D01*
X151687381Y-74443825D01*
X151712605Y-74384826D01*
X151732364Y-74336481D01*
X151745228Y-74301915D01*
X151749769Y-74284253D01*
X151749723Y-74283613D01*
X151738674Y-74261388D01*
X151716590Y-74238753D01*
X151715290Y-74237768D01*
X151688147Y-74222425D01*
X151663042Y-74222574D01*
X151653632Y-74225466D01*
X151642166Y-74231718D01*
X151629990Y-74244014D01*
X151615643Y-74264908D01*
X151597664Y-74296949D01*
X151574593Y-74342688D01*
X151544970Y-74404677D01*
X151518255Y-74461898D01*
X151487520Y-74528226D01*
X151459979Y-74587874D01*
X151437062Y-74637725D01*
X151420202Y-74674664D01*
X151410827Y-74695573D01*
X151409460Y-74698845D01*
X151403311Y-74693497D01*
X151389178Y-74671109D01*
X151368943Y-74634946D01*
X151344485Y-74588277D01*
X151334752Y-74569022D01*
X151301783Y-74504004D01*
X151276357Y-74456654D01*
X151256388Y-74424219D01*
X151239790Y-74403946D01*
X151224476Y-74393082D01*
X151208360Y-74388875D01*
X151197857Y-74388400D01*
X151179330Y-74390042D01*
X151163096Y-74396831D01*
X151146965Y-74411566D01*
X151128749Y-74437044D01*
X151106261Y-74476061D01*
X151077311Y-74531414D01*
X151061338Y-74562903D01*
X151035430Y-74613087D01*
X151012833Y-74654704D01*
X150995542Y-74684242D01*
X150985550Y-74698189D01*
X150984191Y-74698770D01*
X150977739Y-74687793D01*
X150963292Y-74659290D01*
X150942297Y-74616244D01*
X150916203Y-74561638D01*
X150886454Y-74498454D01*
X150871820Y-74467071D01*
X150833750Y-74386078D01*
X150803095Y-74323756D01*
X150778263Y-74278071D01*
X150757663Y-74246989D01*
X150739702Y-74228478D01*
X150722790Y-74220504D01*
X150705335Y-74221034D01*
G36*
X153431691Y-74219275D02*
G01*
X153302712Y-74223636D01*
X153193009Y-74236861D01*
X153100774Y-74259741D01*
X153024198Y-74293070D01*
X152961473Y-74337638D01*
X152910788Y-74394236D01*
X152870337Y-74463658D01*
X152869541Y-74465351D01*
X152845399Y-74527483D01*
X152836797Y-74582509D01*
X152843769Y-74637887D01*
X152866346Y-74701073D01*
X152870628Y-74710689D01*
X152899828Y-74766966D01*
X152932644Y-74810451D01*
X152974998Y-74847417D01*
X153032810Y-74884135D01*
X153036169Y-74886052D01*
X153086496Y-74910227D01*
X153143379Y-74928282D01*
X153210473Y-74940839D01*
X153291435Y-74948522D01*
X153389918Y-74951953D01*
X153424714Y-74952251D01*
X153590406Y-74952845D01*
X153613803Y-74923100D01*
X153620743Y-74913319D01*
X153626158Y-74901897D01*
X153630235Y-74886095D01*
X153633163Y-74863175D01*
X153635133Y-74830396D01*
X153635775Y-74806089D01*
X153479156Y-74806089D01*
X153385274Y-74806089D01*
X153330336Y-74804483D01*
X153273940Y-74800255D01*
X153227655Y-74794292D01*
X153224861Y-74793790D01*
X153142652Y-74771736D01*
X153078886Y-74738600D01*
X153031548Y-74692847D01*
X152998618Y-74632939D01*
X152992892Y-74617061D01*
X152987279Y-74592333D01*
X152989709Y-74567902D01*
X153001533Y-74535400D01*
X153008660Y-74519434D01*
X153032000Y-74477006D01*
X153060120Y-74447240D01*
X153091060Y-74426511D01*
X153153034Y-74399537D01*
X153232349Y-74379998D01*
X153324747Y-74368746D01*
X153391667Y-74366270D01*
X153479156Y-74365822D01*
X153479156Y-74806089D01*
X153635775Y-74806089D01*
X153636332Y-74785021D01*
X153636950Y-74724311D01*
X153637175Y-74645526D01*
X153637200Y-74583920D01*
X153637200Y-74274485D01*
X153609491Y-74246776D01*
X153597194Y-74235544D01*
X153583897Y-74227853D01*
X153565328Y-74223040D01*
X153537214Y-74220446D01*
X153495283Y-74219410D01*
X153435263Y-74219270D01*
X153431691Y-74219275D01*
G37*
X153431691Y-74219275D02*
X153302712Y-74223636D01*
X153193009Y-74236861D01*
X153100774Y-74259741D01*
X153024198Y-74293070D01*
X152961473Y-74337638D01*
X152910788Y-74394236D01*
X152870337Y-74463658D01*
X152869541Y-74465351D01*
X152845399Y-74527483D01*
X152836797Y-74582509D01*
X152843769Y-74637887D01*
X152866346Y-74701073D01*
X152870628Y-74710689D01*
X152899828Y-74766966D01*
X152932644Y-74810451D01*
X152974998Y-74847417D01*
X153032810Y-74884135D01*
X153036169Y-74886052D01*
X153086496Y-74910227D01*
X153143379Y-74928282D01*
X153210473Y-74940839D01*
X153291435Y-74948522D01*
X153389918Y-74951953D01*
X153424714Y-74952251D01*
X153590406Y-74952845D01*
X153613803Y-74923100D01*
X153620743Y-74913319D01*
X153626158Y-74901897D01*
X153630235Y-74886095D01*
X153633163Y-74863175D01*
X153635133Y-74830396D01*
X153635775Y-74806089D01*
X153479156Y-74806089D01*
X153385274Y-74806089D01*
X153330336Y-74804483D01*
X153273940Y-74800255D01*
X153227655Y-74794292D01*
X153224861Y-74793790D01*
X153142652Y-74771736D01*
X153078886Y-74738600D01*
X153031548Y-74692847D01*
X152998618Y-74632939D01*
X152992892Y-74617061D01*
X152987279Y-74592333D01*
X152989709Y-74567902D01*
X153001533Y-74535400D01*
X153008660Y-74519434D01*
X153032000Y-74477006D01*
X153060120Y-74447240D01*
X153091060Y-74426511D01*
X153153034Y-74399537D01*
X153232349Y-74379998D01*
X153324747Y-74368746D01*
X153391667Y-74366270D01*
X153479156Y-74365822D01*
X153479156Y-74806089D01*
X153635775Y-74806089D01*
X153636332Y-74785021D01*
X153636950Y-74724311D01*
X153637175Y-74645526D01*
X153637200Y-74583920D01*
X153637200Y-74274485D01*
X153609491Y-74246776D01*
X153597194Y-74235544D01*
X153583897Y-74227853D01*
X153565328Y-74223040D01*
X153537214Y-74220446D01*
X153495283Y-74219410D01*
X153435263Y-74219270D01*
X153431691Y-74219275D01*
G36*
X154219657Y-74219260D02*
G01*
X154143299Y-74220174D01*
X154084783Y-74222311D01*
X154041745Y-74226175D01*
X154011817Y-74232267D01*
X153992632Y-74241090D01*
X153981824Y-74253146D01*
X153977027Y-74268939D01*
X153975873Y-74288970D01*
X153975867Y-74291335D01*
X153976869Y-74313992D01*
X153981604Y-74331503D01*
X153992667Y-74344574D01*
X154012652Y-74353913D01*
X154044154Y-74360227D01*
X154089768Y-74364222D01*
X154152087Y-74366606D01*
X154233707Y-74368086D01*
X154258723Y-74368414D01*
X154500800Y-74371467D01*
X154504186Y-74436378D01*
X154507571Y-74501289D01*
X154339424Y-74501289D01*
X154273734Y-74501531D01*
X154226828Y-74502556D01*
X154194917Y-74504811D01*
X154174209Y-74508742D01*
X154160916Y-74514798D01*
X154151245Y-74523424D01*
X154151183Y-74523493D01*
X154133644Y-74557112D01*
X154134278Y-74593448D01*
X154152686Y-74624423D01*
X154156329Y-74627607D01*
X154169259Y-74635812D01*
X154186976Y-74641521D01*
X154213430Y-74645162D01*
X154252568Y-74647167D01*
X154308338Y-74647964D01*
X154344006Y-74648045D01*
X154506445Y-74648045D01*
X154506445Y-74806089D01*
X154259839Y-74806089D01*
X154178420Y-74806231D01*
X154116590Y-74806814D01*
X154071363Y-74808068D01*
X154039752Y-74810227D01*
X154018769Y-74813523D01*
X154005427Y-74818189D01*
X153996739Y-74824457D01*
X153994550Y-74826733D01*
X153978386Y-74858280D01*
X153977203Y-74894168D01*
X153990464Y-74925285D01*
X154000957Y-74935271D01*
X154011871Y-74940769D01*
X154028783Y-74945022D01*
X154054367Y-74948180D01*
X154091299Y-74950392D01*
X154142254Y-74951806D01*
X154209906Y-74952572D01*
X154296931Y-74952838D01*
X154316606Y-74952845D01*
X154405089Y-74952787D01*
X154473773Y-74952467D01*
X154525436Y-74951667D01*
X154562855Y-74950167D01*
X154588810Y-74947749D01*
X154606078Y-74944194D01*
X154617438Y-74939282D01*
X154625668Y-74932795D01*
X154630183Y-74928138D01*
X154636979Y-74919889D01*
X154642288Y-74909669D01*
X154646294Y-74894800D01*
X154649179Y-74872602D01*
X154651126Y-74840393D01*
X154652319Y-74795496D01*
X154652939Y-74735228D01*
X154653171Y-74656911D01*
X154653200Y-74590994D01*
X154653129Y-74498628D01*
X154652792Y-74426117D01*
X154652002Y-74370737D01*
X154650574Y-74329765D01*
X154648321Y-74300478D01*
X154645057Y-74280153D01*
X154640596Y-74266066D01*
X154634752Y-74255495D01*
X154629803Y-74248811D01*
X154606406Y-74219067D01*
X154316226Y-74219067D01*
X154219657Y-74219260D01*
G37*
X154219657Y-74219260D02*
X154143299Y-74220174D01*
X154084783Y-74222311D01*
X154041745Y-74226175D01*
X154011817Y-74232267D01*
X153992632Y-74241090D01*
X153981824Y-74253146D01*
X153977027Y-74268939D01*
X153975873Y-74288970D01*
X153975867Y-74291335D01*
X153976869Y-74313992D01*
X153981604Y-74331503D01*
X153992667Y-74344574D01*
X154012652Y-74353913D01*
X154044154Y-74360227D01*
X154089768Y-74364222D01*
X154152087Y-74366606D01*
X154233707Y-74368086D01*
X154258723Y-74368414D01*
X154500800Y-74371467D01*
X154504186Y-74436378D01*
X154507571Y-74501289D01*
X154339424Y-74501289D01*
X154273734Y-74501531D01*
X154226828Y-74502556D01*
X154194917Y-74504811D01*
X154174209Y-74508742D01*
X154160916Y-74514798D01*
X154151245Y-74523424D01*
X154151183Y-74523493D01*
X154133644Y-74557112D01*
X154134278Y-74593448D01*
X154152686Y-74624423D01*
X154156329Y-74627607D01*
X154169259Y-74635812D01*
X154186976Y-74641521D01*
X154213430Y-74645162D01*
X154252568Y-74647167D01*
X154308338Y-74647964D01*
X154344006Y-74648045D01*
X154506445Y-74648045D01*
X154506445Y-74806089D01*
X154259839Y-74806089D01*
X154178420Y-74806231D01*
X154116590Y-74806814D01*
X154071363Y-74808068D01*
X154039752Y-74810227D01*
X154018769Y-74813523D01*
X154005427Y-74818189D01*
X153996739Y-74824457D01*
X153994550Y-74826733D01*
X153978386Y-74858280D01*
X153977203Y-74894168D01*
X153990464Y-74925285D01*
X154000957Y-74935271D01*
X154011871Y-74940769D01*
X154028783Y-74945022D01*
X154054367Y-74948180D01*
X154091299Y-74950392D01*
X154142254Y-74951806D01*
X154209906Y-74952572D01*
X154296931Y-74952838D01*
X154316606Y-74952845D01*
X154405089Y-74952787D01*
X154473773Y-74952467D01*
X154525436Y-74951667D01*
X154562855Y-74950167D01*
X154588810Y-74947749D01*
X154606078Y-74944194D01*
X154617438Y-74939282D01*
X154625668Y-74932795D01*
X154630183Y-74928138D01*
X154636979Y-74919889D01*
X154642288Y-74909669D01*
X154646294Y-74894800D01*
X154649179Y-74872602D01*
X154651126Y-74840393D01*
X154652319Y-74795496D01*
X154652939Y-74735228D01*
X154653171Y-74656911D01*
X154653200Y-74590994D01*
X154653129Y-74498628D01*
X154652792Y-74426117D01*
X154652002Y-74370737D01*
X154650574Y-74329765D01*
X154648321Y-74300478D01*
X154645057Y-74280153D01*
X154640596Y-74266066D01*
X154634752Y-74255495D01*
X154629803Y-74248811D01*
X154606406Y-74219067D01*
X154316226Y-74219067D01*
X154219657Y-74219260D01*
G36*
X155750114Y-74223448D02*
G01*
X155726548Y-74237273D01*
X155695735Y-74259881D01*
X155656078Y-74292338D01*
X155605980Y-74335708D01*
X155543843Y-74391058D01*
X155468072Y-74459451D01*
X155381334Y-74538084D01*
X155200711Y-74701878D01*
X155195067Y-74482029D01*
X155193029Y-74406351D01*
X155191063Y-74349994D01*
X155188734Y-74309706D01*
X155185606Y-74282235D01*
X155181245Y-74264329D01*
X155175216Y-74252737D01*
X155167084Y-74244208D01*
X155162772Y-74240623D01*
X155128241Y-74221670D01*
X155095383Y-74224441D01*
X155069318Y-74240633D01*
X155042667Y-74262199D01*
X155039352Y-74577151D01*
X155038435Y-74669779D01*
X155037968Y-74742544D01*
X155038113Y-74798161D01*
X155039032Y-74839342D01*
X155040887Y-74868803D01*
X155043839Y-74889255D01*
X155048050Y-74903413D01*
X155053682Y-74913991D01*
X155059927Y-74922474D01*
X155073439Y-74938207D01*
X155086883Y-74948636D01*
X155102124Y-74952639D01*
X155121026Y-74949094D01*
X155145455Y-74936879D01*
X155177273Y-74914871D01*
X155218348Y-74881949D01*
X155270542Y-74836991D01*
X155335722Y-74778875D01*
X155409556Y-74712099D01*
X155674845Y-74471458D01*
X155680489Y-74690589D01*
X155682531Y-74766128D01*
X155684502Y-74822354D01*
X155686839Y-74862524D01*
X155689981Y-74889896D01*
X155694364Y-74907728D01*
X155700424Y-74919279D01*
X155708600Y-74927807D01*
X155712784Y-74931282D01*
X155749765Y-74950372D01*
X155784708Y-74947493D01*
X155815136Y-74923100D01*
X155822097Y-74913286D01*
X155827523Y-74901826D01*
X155831603Y-74885968D01*
X155834529Y-74862963D01*
X155836492Y-74830062D01*
X155837683Y-74784516D01*
X155838292Y-74723573D01*
X155838511Y-74644486D01*
X155838534Y-74585956D01*
X155838460Y-74494407D01*
X155838113Y-74422687D01*
X155837301Y-74368045D01*
X155835833Y-74327732D01*
X155833519Y-74298998D01*
X155830167Y-74279093D01*
X155825588Y-74265268D01*
X155819589Y-74254772D01*
X155815136Y-74248811D01*
X155803850Y-74234691D01*
X155793301Y-74224029D01*
X155781893Y-74217892D01*
X155768030Y-74217343D01*
X155750114Y-74223448D01*
G37*
X155750114Y-74223448D02*
X155726548Y-74237273D01*
X155695735Y-74259881D01*
X155656078Y-74292338D01*
X155605980Y-74335708D01*
X155543843Y-74391058D01*
X155468072Y-74459451D01*
X155381334Y-74538084D01*
X155200711Y-74701878D01*
X155195067Y-74482029D01*
X155193029Y-74406351D01*
X155191063Y-74349994D01*
X155188734Y-74309706D01*
X155185606Y-74282235D01*
X155181245Y-74264329D01*
X155175216Y-74252737D01*
X155167084Y-74244208D01*
X155162772Y-74240623D01*
X155128241Y-74221670D01*
X155095383Y-74224441D01*
X155069318Y-74240633D01*
X155042667Y-74262199D01*
X155039352Y-74577151D01*
X155038435Y-74669779D01*
X155037968Y-74742544D01*
X155038113Y-74798161D01*
X155039032Y-74839342D01*
X155040887Y-74868803D01*
X155043839Y-74889255D01*
X155048050Y-74903413D01*
X155053682Y-74913991D01*
X155059927Y-74922474D01*
X155073439Y-74938207D01*
X155086883Y-74948636D01*
X155102124Y-74952639D01*
X155121026Y-74949094D01*
X155145455Y-74936879D01*
X155177273Y-74914871D01*
X155218348Y-74881949D01*
X155270542Y-74836991D01*
X155335722Y-74778875D01*
X155409556Y-74712099D01*
X155674845Y-74471458D01*
X155680489Y-74690589D01*
X155682531Y-74766128D01*
X155684502Y-74822354D01*
X155686839Y-74862524D01*
X155689981Y-74889896D01*
X155694364Y-74907728D01*
X155700424Y-74919279D01*
X155708600Y-74927807D01*
X155712784Y-74931282D01*
X155749765Y-74950372D01*
X155784708Y-74947493D01*
X155815136Y-74923100D01*
X155822097Y-74913286D01*
X155827523Y-74901826D01*
X155831603Y-74885968D01*
X155834529Y-74862963D01*
X155836492Y-74830062D01*
X155837683Y-74784516D01*
X155838292Y-74723573D01*
X155838511Y-74644486D01*
X155838534Y-74585956D01*
X155838460Y-74494407D01*
X155838113Y-74422687D01*
X155837301Y-74368045D01*
X155835833Y-74327732D01*
X155833519Y-74298998D01*
X155830167Y-74279093D01*
X155825588Y-74265268D01*
X155819589Y-74254772D01*
X155815136Y-74248811D01*
X155803850Y-74234691D01*
X155793301Y-74224029D01*
X155781893Y-74217892D01*
X155768030Y-74217343D01*
X155750114Y-74223448D01*
G36*
X156400081Y-74224599D02*
G01*
X156331565Y-74236095D01*
X156278943Y-74253967D01*
X156244708Y-74277499D01*
X156235379Y-74290924D01*
X156225893Y-74322148D01*
X156232277Y-74350395D01*
X156252430Y-74377182D01*
X156283745Y-74389713D01*
X156329183Y-74388696D01*
X156364326Y-74381906D01*
X156442419Y-74368971D01*
X156522226Y-74367742D01*
X156611555Y-74378241D01*
X156636229Y-74382690D01*
X156719291Y-74406108D01*
X156784273Y-74440945D01*
X156830461Y-74486604D01*
X156857145Y-74542494D01*
X156862663Y-74571388D01*
X156859051Y-74630012D01*
X156835729Y-74681879D01*
X156794824Y-74725978D01*
X156738459Y-74761299D01*
X156668760Y-74786829D01*
X156587852Y-74801559D01*
X156497860Y-74804478D01*
X156400910Y-74794575D01*
X156395436Y-74793641D01*
X156356875Y-74786459D01*
X156335494Y-74779521D01*
X156326227Y-74769227D01*
X156324006Y-74751976D01*
X156323956Y-74742841D01*
X156323956Y-74704489D01*
X156392431Y-74704489D01*
X156452900Y-74700347D01*
X156494165Y-74687147D01*
X156518175Y-74663730D01*
X156526877Y-74628936D01*
X156526983Y-74624394D01*
X156521892Y-74594654D01*
X156504433Y-74573419D01*
X156471939Y-74559366D01*
X156421743Y-74551173D01*
X156373123Y-74548161D01*
X156302456Y-74546433D01*
X156251198Y-74549070D01*
X156216239Y-74558800D01*
X156194470Y-74578353D01*
X156182780Y-74610456D01*
X156178060Y-74657838D01*
X156177200Y-74720071D01*
X156178609Y-74789535D01*
X156182848Y-74836786D01*
X156189936Y-74862012D01*
X156191311Y-74863988D01*
X156230228Y-74895508D01*
X156287286Y-74920470D01*
X156358869Y-74938340D01*
X156441358Y-74948586D01*
X156531139Y-74950673D01*
X156624592Y-74944068D01*
X156679556Y-74935956D01*
X156765766Y-74911554D01*
X156845892Y-74871662D01*
X156912977Y-74819887D01*
X156923173Y-74809539D01*
X156956302Y-74766035D01*
X156986194Y-74712118D01*
X157009357Y-74655592D01*
X157022298Y-74604259D01*
X157023858Y-74584544D01*
X157017218Y-74543419D01*
X156999568Y-74492252D01*
X156974297Y-74438394D01*
X156944789Y-74389195D01*
X156918719Y-74356334D01*
X156857765Y-74307452D01*
X156778969Y-74268545D01*
X156685157Y-74240494D01*
X156579150Y-74224179D01*
X156482000Y-74220192D01*
X156400081Y-74224599D01*
G37*
X156400081Y-74224599D02*
X156331565Y-74236095D01*
X156278943Y-74253967D01*
X156244708Y-74277499D01*
X156235379Y-74290924D01*
X156225893Y-74322148D01*
X156232277Y-74350395D01*
X156252430Y-74377182D01*
X156283745Y-74389713D01*
X156329183Y-74388696D01*
X156364326Y-74381906D01*
X156442419Y-74368971D01*
X156522226Y-74367742D01*
X156611555Y-74378241D01*
X156636229Y-74382690D01*
X156719291Y-74406108D01*
X156784273Y-74440945D01*
X156830461Y-74486604D01*
X156857145Y-74542494D01*
X156862663Y-74571388D01*
X156859051Y-74630012D01*
X156835729Y-74681879D01*
X156794824Y-74725978D01*
X156738459Y-74761299D01*
X156668760Y-74786829D01*
X156587852Y-74801559D01*
X156497860Y-74804478D01*
X156400910Y-74794575D01*
X156395436Y-74793641D01*
X156356875Y-74786459D01*
X156335494Y-74779521D01*
X156326227Y-74769227D01*
X156324006Y-74751976D01*
X156323956Y-74742841D01*
X156323956Y-74704489D01*
X156392431Y-74704489D01*
X156452900Y-74700347D01*
X156494165Y-74687147D01*
X156518175Y-74663730D01*
X156526877Y-74628936D01*
X156526983Y-74624394D01*
X156521892Y-74594654D01*
X156504433Y-74573419D01*
X156471939Y-74559366D01*
X156421743Y-74551173D01*
X156373123Y-74548161D01*
X156302456Y-74546433D01*
X156251198Y-74549070D01*
X156216239Y-74558800D01*
X156194470Y-74578353D01*
X156182780Y-74610456D01*
X156178060Y-74657838D01*
X156177200Y-74720071D01*
X156178609Y-74789535D01*
X156182848Y-74836786D01*
X156189936Y-74862012D01*
X156191311Y-74863988D01*
X156230228Y-74895508D01*
X156287286Y-74920470D01*
X156358869Y-74938340D01*
X156441358Y-74948586D01*
X156531139Y-74950673D01*
X156624592Y-74944068D01*
X156679556Y-74935956D01*
X156765766Y-74911554D01*
X156845892Y-74871662D01*
X156912977Y-74819887D01*
X156923173Y-74809539D01*
X156956302Y-74766035D01*
X156986194Y-74712118D01*
X157009357Y-74655592D01*
X157022298Y-74604259D01*
X157023858Y-74584544D01*
X157017218Y-74543419D01*
X156999568Y-74492252D01*
X156974297Y-74438394D01*
X156944789Y-74389195D01*
X156918719Y-74356334D01*
X156857765Y-74307452D01*
X156778969Y-74268545D01*
X156685157Y-74240494D01*
X156579150Y-74224179D01*
X156482000Y-74220192D01*
X156400081Y-74224599D01*
G36*
X157373822Y-74241645D02*
G01*
X157367242Y-74249218D01*
X157362079Y-74258987D01*
X157358164Y-74273571D01*
X157355324Y-74295585D01*
X157353387Y-74327648D01*
X157352183Y-74372375D01*
X157351539Y-74432385D01*
X157351284Y-74510294D01*
X157351245Y-74585956D01*
X157351314Y-74679802D01*
X157351638Y-74753689D01*
X157352386Y-74810232D01*
X157353732Y-74852049D01*
X157355846Y-74881757D01*
X157358900Y-74901973D01*
X157363066Y-74915314D01*
X157368516Y-74924398D01*
X157373822Y-74930267D01*
X157406826Y-74949947D01*
X157441991Y-74948181D01*
X157473455Y-74926717D01*
X157480684Y-74918337D01*
X157486334Y-74908614D01*
X157490599Y-74894861D01*
X157493673Y-74874389D01*
X157495752Y-74844512D01*
X157497030Y-74802541D01*
X157497701Y-74745789D01*
X157497959Y-74671567D01*
X157498000Y-74587537D01*
X157498000Y-74274485D01*
X157470291Y-74246776D01*
X157436137Y-74223463D01*
X157403006Y-74222623D01*
X157373822Y-74241645D01*
G37*
X157373822Y-74241645D02*
X157367242Y-74249218D01*
X157362079Y-74258987D01*
X157358164Y-74273571D01*
X157355324Y-74295585D01*
X157353387Y-74327648D01*
X157352183Y-74372375D01*
X157351539Y-74432385D01*
X157351284Y-74510294D01*
X157351245Y-74585956D01*
X157351314Y-74679802D01*
X157351638Y-74753689D01*
X157352386Y-74810232D01*
X157353732Y-74852049D01*
X157355846Y-74881757D01*
X157358900Y-74901973D01*
X157363066Y-74915314D01*
X157368516Y-74924398D01*
X157373822Y-74930267D01*
X157406826Y-74949947D01*
X157441991Y-74948181D01*
X157473455Y-74926717D01*
X157480684Y-74918337D01*
X157486334Y-74908614D01*
X157490599Y-74894861D01*
X157493673Y-74874389D01*
X157495752Y-74844512D01*
X157497030Y-74802541D01*
X157497701Y-74745789D01*
X157497959Y-74671567D01*
X157498000Y-74587537D01*
X157498000Y-74274485D01*
X157470291Y-74246776D01*
X157436137Y-74223463D01*
X157403006Y-74222623D01*
X157373822Y-74241645D01*
G36*
X158141703Y-74220351D02*
G01*
X158066888Y-74225581D01*
X157997306Y-74233750D01*
X157937002Y-74244550D01*
X157890020Y-74257673D01*
X157860406Y-74272813D01*
X157855860Y-74277269D01*
X157840054Y-74311850D01*
X157844847Y-74347351D01*
X157869364Y-74377725D01*
X157870534Y-74378596D01*
X157884954Y-74387954D01*
X157900008Y-74392876D01*
X157921005Y-74393473D01*
X157953257Y-74389861D01*
X158002073Y-74382154D01*
X158006000Y-74381505D01*
X158078739Y-74372569D01*
X158157217Y-74368161D01*
X158235927Y-74368119D01*
X158309361Y-74372279D01*
X158372011Y-74380479D01*
X158418370Y-74392557D01*
X158421416Y-74393771D01*
X158455048Y-74412615D01*
X158466864Y-74431685D01*
X158457614Y-74450439D01*
X158428047Y-74468337D01*
X158378911Y-74484837D01*
X158310957Y-74499396D01*
X158265645Y-74506406D01*
X158171456Y-74519889D01*
X158096544Y-74532214D01*
X158037717Y-74544449D01*
X157991785Y-74557661D01*
X157955555Y-74572917D01*
X157925838Y-74591285D01*
X157899442Y-74613831D01*
X157878230Y-74635971D01*
X157853065Y-74666819D01*
X157840681Y-74693345D01*
X157836808Y-74726026D01*
X157836667Y-74737995D01*
X157839576Y-74777712D01*
X157851202Y-74807259D01*
X157871323Y-74833486D01*
X157912216Y-74873576D01*
X157957817Y-74904149D01*
X158011513Y-74926203D01*
X158076692Y-74940735D01*
X158156744Y-74948741D01*
X158255057Y-74951218D01*
X158271289Y-74951177D01*
X158336849Y-74949818D01*
X158401866Y-74946730D01*
X158459252Y-74942356D01*
X158501922Y-74937140D01*
X158505372Y-74936541D01*
X158547796Y-74926491D01*
X158583780Y-74913796D01*
X158604150Y-74902190D01*
X158623107Y-74871572D01*
X158624427Y-74835918D01*
X158608085Y-74804144D01*
X158604429Y-74800551D01*
X158589315Y-74789876D01*
X158570415Y-74785276D01*
X158541162Y-74786059D01*
X158505651Y-74790127D01*
X158465970Y-74793762D01*
X158410345Y-74796828D01*
X158345406Y-74799053D01*
X158277785Y-74800164D01*
X158260000Y-74800237D01*
X158192128Y-74799964D01*
X158142454Y-74798646D01*
X158106610Y-74795827D01*
X158080224Y-74791050D01*
X158058926Y-74783857D01*
X158046126Y-74777867D01*
X158018000Y-74761233D01*
X158000068Y-74746168D01*
X157997447Y-74741897D01*
X158002976Y-74724263D01*
X158029260Y-74707192D01*
X158074478Y-74691458D01*
X158136808Y-74677838D01*
X158155171Y-74674804D01*
X158251090Y-74659738D01*
X158327641Y-74647146D01*
X158387780Y-74636111D01*
X158434460Y-74625720D01*
X158470637Y-74615056D01*
X158499265Y-74603205D01*
X158523298Y-74589251D01*
X158545692Y-74572281D01*
X158569402Y-74551378D01*
X158577380Y-74544049D01*
X158605353Y-74516699D01*
X158620160Y-74495029D01*
X158625952Y-74470232D01*
X158626889Y-74438983D01*
X158616575Y-74377705D01*
X158585752Y-74325640D01*
X158534595Y-74282958D01*
X158463283Y-74249825D01*
X158412400Y-74234964D01*
X158357100Y-74225366D01*
X158290853Y-74219936D01*
X158217706Y-74218367D01*
X158141703Y-74220351D01*
G37*
X158141703Y-74220351D02*
X158066888Y-74225581D01*
X157997306Y-74233750D01*
X157937002Y-74244550D01*
X157890020Y-74257673D01*
X157860406Y-74272813D01*
X157855860Y-74277269D01*
X157840054Y-74311850D01*
X157844847Y-74347351D01*
X157869364Y-74377725D01*
X157870534Y-74378596D01*
X157884954Y-74387954D01*
X157900008Y-74392876D01*
X157921005Y-74393473D01*
X157953257Y-74389861D01*
X158002073Y-74382154D01*
X158006000Y-74381505D01*
X158078739Y-74372569D01*
X158157217Y-74368161D01*
X158235927Y-74368119D01*
X158309361Y-74372279D01*
X158372011Y-74380479D01*
X158418370Y-74392557D01*
X158421416Y-74393771D01*
X158455048Y-74412615D01*
X158466864Y-74431685D01*
X158457614Y-74450439D01*
X158428047Y-74468337D01*
X158378911Y-74484837D01*
X158310957Y-74499396D01*
X158265645Y-74506406D01*
X158171456Y-74519889D01*
X158096544Y-74532214D01*
X158037717Y-74544449D01*
X157991785Y-74557661D01*
X157955555Y-74572917D01*
X157925838Y-74591285D01*
X157899442Y-74613831D01*
X157878230Y-74635971D01*
X157853065Y-74666819D01*
X157840681Y-74693345D01*
X157836808Y-74726026D01*
X157836667Y-74737995D01*
X157839576Y-74777712D01*
X157851202Y-74807259D01*
X157871323Y-74833486D01*
X157912216Y-74873576D01*
X157957817Y-74904149D01*
X158011513Y-74926203D01*
X158076692Y-74940735D01*
X158156744Y-74948741D01*
X158255057Y-74951218D01*
X158271289Y-74951177D01*
X158336849Y-74949818D01*
X158401866Y-74946730D01*
X158459252Y-74942356D01*
X158501922Y-74937140D01*
X158505372Y-74936541D01*
X158547796Y-74926491D01*
X158583780Y-74913796D01*
X158604150Y-74902190D01*
X158623107Y-74871572D01*
X158624427Y-74835918D01*
X158608085Y-74804144D01*
X158604429Y-74800551D01*
X158589315Y-74789876D01*
X158570415Y-74785276D01*
X158541162Y-74786059D01*
X158505651Y-74790127D01*
X158465970Y-74793762D01*
X158410345Y-74796828D01*
X158345406Y-74799053D01*
X158277785Y-74800164D01*
X158260000Y-74800237D01*
X158192128Y-74799964D01*
X158142454Y-74798646D01*
X158106610Y-74795827D01*
X158080224Y-74791050D01*
X158058926Y-74783857D01*
X158046126Y-74777867D01*
X158018000Y-74761233D01*
X158000068Y-74746168D01*
X157997447Y-74741897D01*
X158002976Y-74724263D01*
X158029260Y-74707192D01*
X158074478Y-74691458D01*
X158136808Y-74677838D01*
X158155171Y-74674804D01*
X158251090Y-74659738D01*
X158327641Y-74647146D01*
X158387780Y-74636111D01*
X158434460Y-74625720D01*
X158470637Y-74615056D01*
X158499265Y-74603205D01*
X158523298Y-74589251D01*
X158545692Y-74572281D01*
X158569402Y-74551378D01*
X158577380Y-74544049D01*
X158605353Y-74516699D01*
X158620160Y-74495029D01*
X158625952Y-74470232D01*
X158626889Y-74438983D01*
X158616575Y-74377705D01*
X158585752Y-74325640D01*
X158534595Y-74282958D01*
X158463283Y-74249825D01*
X158412400Y-74234964D01*
X158357100Y-74225366D01*
X158290853Y-74219936D01*
X158217706Y-74218367D01*
X158141703Y-74220351D01*
G36*
X159162794Y-74219146D02*
G01*
X159093386Y-74219518D01*
X159040997Y-74220385D01*
X159002847Y-74221946D01*
X158976159Y-74224403D01*
X158958153Y-74227957D01*
X158946049Y-74232810D01*
X158937069Y-74239161D01*
X158933818Y-74242084D01*
X158914043Y-74273142D01*
X158910482Y-74308828D01*
X158923491Y-74340510D01*
X158929506Y-74346913D01*
X158939235Y-74353121D01*
X158954901Y-74357910D01*
X158979408Y-74361514D01*
X159015661Y-74364164D01*
X159066565Y-74366095D01*
X159135026Y-74367539D01*
X159197617Y-74368418D01*
X159445334Y-74371467D01*
X159448719Y-74436378D01*
X159452105Y-74501289D01*
X159283958Y-74501289D01*
X159210959Y-74501919D01*
X159157517Y-74504553D01*
X159120628Y-74510309D01*
X159097288Y-74520304D01*
X159084494Y-74535656D01*
X159079242Y-74557482D01*
X159078445Y-74577738D01*
X159080923Y-74602592D01*
X159090277Y-74620906D01*
X159109383Y-74633637D01*
X159141118Y-74641741D01*
X159188359Y-74646176D01*
X159253983Y-74647899D01*
X159289801Y-74648045D01*
X159450978Y-74648045D01*
X159450978Y-74806089D01*
X159202622Y-74806089D01*
X159121213Y-74806202D01*
X159059342Y-74806712D01*
X159013968Y-74807870D01*
X158982054Y-74809930D01*
X158960559Y-74813146D01*
X158946443Y-74817772D01*
X158936668Y-74824059D01*
X158931689Y-74828667D01*
X158914610Y-74855560D01*
X158909111Y-74879467D01*
X158916963Y-74908667D01*
X158931689Y-74930267D01*
X158939546Y-74937066D01*
X158949688Y-74942346D01*
X158964844Y-74946298D01*
X158987741Y-74949113D01*
X159021109Y-74950982D01*
X159067675Y-74952098D01*
X159130167Y-74952651D01*
X159211314Y-74952833D01*
X159253422Y-74952845D01*
X159343598Y-74952765D01*
X159413924Y-74952398D01*
X159467129Y-74951552D01*
X159505940Y-74950036D01*
X159533087Y-74947659D01*
X159551298Y-74944229D01*
X159563300Y-74939554D01*
X159571822Y-74933444D01*
X159575156Y-74930267D01*
X159581755Y-74922670D01*
X159586927Y-74912870D01*
X159590846Y-74898239D01*
X159593684Y-74876152D01*
X159595615Y-74843982D01*
X159596812Y-74799103D01*
X159597448Y-74738889D01*
X159597697Y-74660713D01*
X159597734Y-74587923D01*
X159597700Y-74494707D01*
X159597465Y-74421431D01*
X159596830Y-74365458D01*
X159595594Y-74324151D01*
X159593556Y-74294872D01*
X159590517Y-74274984D01*
X159586277Y-74261850D01*
X159580635Y-74252832D01*
X159573391Y-74245293D01*
X159571606Y-74243612D01*
X159562945Y-74236172D01*
X159552882Y-74230409D01*
X159538625Y-74226112D01*
X159517383Y-74223064D01*
X159486364Y-74221051D01*
X159442777Y-74219860D01*
X159383831Y-74219275D01*
X159306734Y-74219083D01*
X159252001Y-74219067D01*
X159162794Y-74219146D01*
G37*
X159162794Y-74219146D02*
X159093386Y-74219518D01*
X159040997Y-74220385D01*
X159002847Y-74221946D01*
X158976159Y-74224403D01*
X158958153Y-74227957D01*
X158946049Y-74232810D01*
X158937069Y-74239161D01*
X158933818Y-74242084D01*
X158914043Y-74273142D01*
X158910482Y-74308828D01*
X158923491Y-74340510D01*
X158929506Y-74346913D01*
X158939235Y-74353121D01*
X158954901Y-74357910D01*
X158979408Y-74361514D01*
X159015661Y-74364164D01*
X159066565Y-74366095D01*
X159135026Y-74367539D01*
X159197617Y-74368418D01*
X159445334Y-74371467D01*
X159448719Y-74436378D01*
X159452105Y-74501289D01*
X159283958Y-74501289D01*
X159210959Y-74501919D01*
X159157517Y-74504553D01*
X159120628Y-74510309D01*
X159097288Y-74520304D01*
X159084494Y-74535656D01*
X159079242Y-74557482D01*
X159078445Y-74577738D01*
X159080923Y-74602592D01*
X159090277Y-74620906D01*
X159109383Y-74633637D01*
X159141118Y-74641741D01*
X159188359Y-74646176D01*
X159253983Y-74647899D01*
X159289801Y-74648045D01*
X159450978Y-74648045D01*
X159450978Y-74806089D01*
X159202622Y-74806089D01*
X159121213Y-74806202D01*
X159059342Y-74806712D01*
X159013968Y-74807870D01*
X158982054Y-74809930D01*
X158960559Y-74813146D01*
X158946443Y-74817772D01*
X158936668Y-74824059D01*
X158931689Y-74828667D01*
X158914610Y-74855560D01*
X158909111Y-74879467D01*
X158916963Y-74908667D01*
X158931689Y-74930267D01*
X158939546Y-74937066D01*
X158949688Y-74942346D01*
X158964844Y-74946298D01*
X158987741Y-74949113D01*
X159021109Y-74950982D01*
X159067675Y-74952098D01*
X159130167Y-74952651D01*
X159211314Y-74952833D01*
X159253422Y-74952845D01*
X159343598Y-74952765D01*
X159413924Y-74952398D01*
X159467129Y-74951552D01*
X159505940Y-74950036D01*
X159533087Y-74947659D01*
X159551298Y-74944229D01*
X159563300Y-74939554D01*
X159571822Y-74933444D01*
X159575156Y-74930267D01*
X159581755Y-74922670D01*
X159586927Y-74912870D01*
X159590846Y-74898239D01*
X159593684Y-74876152D01*
X159595615Y-74843982D01*
X159596812Y-74799103D01*
X159597448Y-74738889D01*
X159597697Y-74660713D01*
X159597734Y-74587923D01*
X159597700Y-74494707D01*
X159597465Y-74421431D01*
X159596830Y-74365458D01*
X159595594Y-74324151D01*
X159593556Y-74294872D01*
X159590517Y-74274984D01*
X159586277Y-74261850D01*
X159580635Y-74252832D01*
X159573391Y-74245293D01*
X159571606Y-74243612D01*
X159562945Y-74236172D01*
X159552882Y-74230409D01*
X159538625Y-74226112D01*
X159517383Y-74223064D01*
X159486364Y-74221051D01*
X159442777Y-74219860D01*
X159383831Y-74219275D01*
X159306734Y-74219083D01*
X159252001Y-74219067D01*
X159162794Y-74219146D01*
G36*
X160571371Y-74219066D02*
G01*
X160531889Y-74219467D01*
X160416200Y-74222259D01*
X160319311Y-74230550D01*
X160237919Y-74245232D01*
X160168723Y-74267193D01*
X160108420Y-74297322D01*
X160053708Y-74336510D01*
X160034167Y-74353532D01*
X160001750Y-74393363D01*
X159972520Y-74447413D01*
X159949991Y-74507323D01*
X159937679Y-74564739D01*
X159936400Y-74585956D01*
X159944417Y-74644769D01*
X159965899Y-74709013D01*
X159996999Y-74769821D01*
X160033866Y-74818330D01*
X160039854Y-74824182D01*
X160090579Y-74865321D01*
X160146125Y-74897435D01*
X160209696Y-74921365D01*
X160284494Y-74937953D01*
X160373722Y-74948041D01*
X160480582Y-74952469D01*
X160529528Y-74952845D01*
X160591762Y-74952545D01*
X160635528Y-74951292D01*
X160664931Y-74948554D01*
X160684079Y-74943801D01*
X160697077Y-74936501D01*
X160704045Y-74930267D01*
X160710626Y-74922694D01*
X160715788Y-74912924D01*
X160719703Y-74898340D01*
X160722543Y-74876326D01*
X160724480Y-74844264D01*
X160725684Y-74799536D01*
X160726328Y-74739526D01*
X160726583Y-74661617D01*
X160726622Y-74585956D01*
X160726870Y-74485041D01*
X160726817Y-74404427D01*
X160725857Y-74365822D01*
X160579867Y-74365822D01*
X160579867Y-74806089D01*
X160486734Y-74806004D01*
X160430693Y-74804396D01*
X160371999Y-74800256D01*
X160323028Y-74794464D01*
X160321538Y-74794226D01*
X160242392Y-74775090D01*
X160181002Y-74745287D01*
X160134305Y-74702878D01*
X160104635Y-74656961D01*
X160086353Y-74606026D01*
X160087771Y-74558200D01*
X160108988Y-74506933D01*
X160150489Y-74453899D01*
X160207998Y-74414600D01*
X160282750Y-74388331D01*
X160332708Y-74379035D01*
X160389416Y-74372507D01*
X160449519Y-74367782D01*
X160500639Y-74365817D01*
X160503667Y-74365808D01*
X160579867Y-74365822D01*
X160725857Y-74365822D01*
X160725260Y-74341851D01*
X160720998Y-74295055D01*
X160712830Y-74261778D01*
X160699556Y-74239759D01*
X160679974Y-74226739D01*
X160652883Y-74220457D01*
X160617082Y-74218653D01*
X160571371Y-74219066D01*
G37*
X160571371Y-74219066D02*
X160531889Y-74219467D01*
X160416200Y-74222259D01*
X160319311Y-74230550D01*
X160237919Y-74245232D01*
X160168723Y-74267193D01*
X160108420Y-74297322D01*
X160053708Y-74336510D01*
X160034167Y-74353532D01*
X160001750Y-74393363D01*
X159972520Y-74447413D01*
X159949991Y-74507323D01*
X159937679Y-74564739D01*
X159936400Y-74585956D01*
X159944417Y-74644769D01*
X159965899Y-74709013D01*
X159996999Y-74769821D01*
X160033866Y-74818330D01*
X160039854Y-74824182D01*
X160090579Y-74865321D01*
X160146125Y-74897435D01*
X160209696Y-74921365D01*
X160284494Y-74937953D01*
X160373722Y-74948041D01*
X160480582Y-74952469D01*
X160529528Y-74952845D01*
X160591762Y-74952545D01*
X160635528Y-74951292D01*
X160664931Y-74948554D01*
X160684079Y-74943801D01*
X160697077Y-74936501D01*
X160704045Y-74930267D01*
X160710626Y-74922694D01*
X160715788Y-74912924D01*
X160719703Y-74898340D01*
X160722543Y-74876326D01*
X160724480Y-74844264D01*
X160725684Y-74799536D01*
X160726328Y-74739526D01*
X160726583Y-74661617D01*
X160726622Y-74585956D01*
X160726870Y-74485041D01*
X160726817Y-74404427D01*
X160725857Y-74365822D01*
X160579867Y-74365822D01*
X160579867Y-74806089D01*
X160486734Y-74806004D01*
X160430693Y-74804396D01*
X160371999Y-74800256D01*
X160323028Y-74794464D01*
X160321538Y-74794226D01*
X160242392Y-74775090D01*
X160181002Y-74745287D01*
X160134305Y-74702878D01*
X160104635Y-74656961D01*
X160086353Y-74606026D01*
X160087771Y-74558200D01*
X160108988Y-74506933D01*
X160150489Y-74453899D01*
X160207998Y-74414600D01*
X160282750Y-74388331D01*
X160332708Y-74379035D01*
X160389416Y-74372507D01*
X160449519Y-74367782D01*
X160500639Y-74365817D01*
X160503667Y-74365808D01*
X160579867Y-74365822D01*
X160725857Y-74365822D01*
X160725260Y-74341851D01*
X160720998Y-74295055D01*
X160712830Y-74261778D01*
X160699556Y-74239759D01*
X160679974Y-74226739D01*
X160652883Y-74220457D01*
X160617082Y-74218653D01*
X160571371Y-74219066D01*
G36*
X156723043Y-68976571D02*
G01*
X156626768Y-69000809D01*
X156540184Y-69043641D01*
X156465373Y-69103419D01*
X156404418Y-69178494D01*
X156359399Y-69267220D01*
X156333136Y-69363530D01*
X156327286Y-69460795D01*
X156342140Y-69554654D01*
X156375840Y-69642511D01*
X156426528Y-69721770D01*
X156492345Y-69789836D01*
X156571434Y-69844112D01*
X156661934Y-69882002D01*
X156713200Y-69894426D01*
X156757698Y-69901947D01*
X156791999Y-69904919D01*
X156824960Y-69903094D01*
X156865434Y-69896225D01*
X156898531Y-69889250D01*
X156991947Y-69857741D01*
X157075619Y-69806617D01*
X157147665Y-69737429D01*
X157206200Y-69651728D01*
X157220148Y-69624489D01*
X157236586Y-69588122D01*
X157246894Y-69557582D01*
X157252460Y-69525450D01*
X157254669Y-69484307D01*
X157254948Y-69438222D01*
X157250861Y-69353865D01*
X157237446Y-69284586D01*
X157212256Y-69223961D01*
X157172846Y-69165567D01*
X157134298Y-69121302D01*
X157062406Y-69055484D01*
X156987313Y-69010053D01*
X156904562Y-68982850D01*
X156826928Y-68972576D01*
X156723043Y-68976571D01*
G37*
X156723043Y-68976571D02*
X156626768Y-69000809D01*
X156540184Y-69043641D01*
X156465373Y-69103419D01*
X156404418Y-69178494D01*
X156359399Y-69267220D01*
X156333136Y-69363530D01*
X156327286Y-69460795D01*
X156342140Y-69554654D01*
X156375840Y-69642511D01*
X156426528Y-69721770D01*
X156492345Y-69789836D01*
X156571434Y-69844112D01*
X156661934Y-69882002D01*
X156713200Y-69894426D01*
X156757698Y-69901947D01*
X156791999Y-69904919D01*
X156824960Y-69903094D01*
X156865434Y-69896225D01*
X156898531Y-69889250D01*
X156991947Y-69857741D01*
X157075619Y-69806617D01*
X157147665Y-69737429D01*
X157206200Y-69651728D01*
X157220148Y-69624489D01*
X157236586Y-69588122D01*
X157246894Y-69557582D01*
X157252460Y-69525450D01*
X157254669Y-69484307D01*
X157254948Y-69438222D01*
X157250861Y-69353865D01*
X157237446Y-69284586D01*
X157212256Y-69223961D01*
X157172846Y-69165567D01*
X157134298Y-69121302D01*
X157062406Y-69055484D01*
X156987313Y-69010053D01*
X156904562Y-68982850D01*
X156826928Y-68972576D01*
X156723043Y-68976571D01*
G36*
X148263493Y-71422245D02*
G01*
X148263474Y-71656662D01*
X148263448Y-71869603D01*
X148263375Y-72062168D01*
X148263218Y-72235459D01*
X148262936Y-72390576D01*
X148262491Y-72528620D01*
X148261844Y-72650692D01*
X148260955Y-72757894D01*
X148259787Y-72851326D01*
X148258299Y-72932090D01*
X148256454Y-73001286D01*
X148254211Y-73060015D01*
X148251531Y-73109379D01*
X148248377Y-73150478D01*
X148244708Y-73184413D01*
X148240487Y-73212286D01*
X148235673Y-73235198D01*
X148230227Y-73254249D01*
X148224112Y-73270540D01*
X148217288Y-73285173D01*
X148209715Y-73299249D01*
X148201355Y-73313868D01*
X148196161Y-73322974D01*
X148161896Y-73383689D01*
X149020045Y-73383689D01*
X149020045Y-73287733D01*
X149020776Y-73244370D01*
X149022728Y-73211205D01*
X149025537Y-73193424D01*
X149026779Y-73191778D01*
X149038201Y-73198662D01*
X149060916Y-73216505D01*
X149083615Y-73235879D01*
X149138200Y-73276614D01*
X149207679Y-73317617D01*
X149284730Y-73355123D01*
X149362035Y-73385364D01*
X149392887Y-73395012D01*
X149461384Y-73409578D01*
X149544236Y-73419539D01*
X149633629Y-73424583D01*
X149721752Y-73424396D01*
X149800793Y-73418666D01*
X149838489Y-73412858D01*
X149976586Y-73374797D01*
X150103887Y-73317073D01*
X150219708Y-73240211D01*
X150323363Y-73144739D01*
X150414167Y-73031179D01*
X150480969Y-72920381D01*
X150535836Y-72803625D01*
X150577837Y-72684276D01*
X150607833Y-72558283D01*
X150626689Y-72421594D01*
X150635268Y-72270158D01*
X150635994Y-72192711D01*
X150633900Y-72135934D01*
X149804783Y-72135934D01*
X149804576Y-72229002D01*
X149801663Y-72316692D01*
X149796000Y-72393772D01*
X149787545Y-72455009D01*
X149784962Y-72467350D01*
X149753160Y-72574633D01*
X149711502Y-72661658D01*
X149659637Y-72728642D01*
X149597219Y-72775805D01*
X149523900Y-72803365D01*
X149439331Y-72811541D01*
X149343165Y-72800551D01*
X149279689Y-72784829D01*
X149230546Y-72766639D01*
X149176417Y-72740791D01*
X149135756Y-72717089D01*
X149065200Y-72670721D01*
X149065200Y-71520530D01*
X149132608Y-71476962D01*
X149211133Y-71436040D01*
X149295319Y-71409389D01*
X149380443Y-71397465D01*
X149461784Y-71400722D01*
X149534620Y-71419615D01*
X149566574Y-71435184D01*
X149624499Y-71478181D01*
X149673456Y-71534953D01*
X149714610Y-71607575D01*
X149749126Y-71698121D01*
X149778167Y-71808666D01*
X149779448Y-71814533D01*
X149789619Y-71876788D01*
X149797261Y-71954594D01*
X149802330Y-72042720D01*
X149804783Y-72135934D01*
X150633900Y-72135934D01*
X150628143Y-71979895D01*
X150606198Y-71784059D01*
X150570214Y-71605332D01*
X150520241Y-71443845D01*
X150456332Y-71299726D01*
X150378538Y-71173106D01*
X150286911Y-71064115D01*
X150181503Y-70972883D01*
X150136338Y-70941932D01*
X150035389Y-70885785D01*
X149932099Y-70846174D01*
X149822011Y-70822014D01*
X149700670Y-70812219D01*
X149608164Y-70813265D01*
X149478510Y-70824231D01*
X149365916Y-70846046D01*
X149267125Y-70879714D01*
X149178879Y-70926236D01*
X149130014Y-70960448D01*
X149100647Y-70982362D01*
X149078957Y-70997333D01*
X149070747Y-71001733D01*
X149069132Y-70990904D01*
X149067841Y-70960251D01*
X149066862Y-70912526D01*
X149066183Y-70850479D01*
X149065790Y-70776862D01*
X149065670Y-70694427D01*
X149065812Y-70605925D01*
X149066203Y-70514107D01*
X149066829Y-70421724D01*
X149067680Y-70331528D01*
X149068740Y-70246271D01*
X149069999Y-70168703D01*
X149071444Y-70101576D01*
X149073062Y-70047641D01*
X149074839Y-70009650D01*
X149075331Y-70002667D01*
X149082908Y-69932251D01*
X149094469Y-69877102D01*
X149112208Y-69829981D01*
X149138318Y-69783647D01*
X149144585Y-69774067D01*
X149169017Y-69737378D01*
X148263689Y-69737378D01*
X148263493Y-71422245D01*
G37*
X148263493Y-71422245D02*
X148263474Y-71656662D01*
X148263448Y-71869603D01*
X148263375Y-72062168D01*
X148263218Y-72235459D01*
X148262936Y-72390576D01*
X148262491Y-72528620D01*
X148261844Y-72650692D01*
X148260955Y-72757894D01*
X148259787Y-72851326D01*
X148258299Y-72932090D01*
X148256454Y-73001286D01*
X148254211Y-73060015D01*
X148251531Y-73109379D01*
X148248377Y-73150478D01*
X148244708Y-73184413D01*
X148240487Y-73212286D01*
X148235673Y-73235198D01*
X148230227Y-73254249D01*
X148224112Y-73270540D01*
X148217288Y-73285173D01*
X148209715Y-73299249D01*
X148201355Y-73313868D01*
X148196161Y-73322974D01*
X148161896Y-73383689D01*
X149020045Y-73383689D01*
X149020045Y-73287733D01*
X149020776Y-73244370D01*
X149022728Y-73211205D01*
X149025537Y-73193424D01*
X149026779Y-73191778D01*
X149038201Y-73198662D01*
X149060916Y-73216505D01*
X149083615Y-73235879D01*
X149138200Y-73276614D01*
X149207679Y-73317617D01*
X149284730Y-73355123D01*
X149362035Y-73385364D01*
X149392887Y-73395012D01*
X149461384Y-73409578D01*
X149544236Y-73419539D01*
X149633629Y-73424583D01*
X149721752Y-73424396D01*
X149800793Y-73418666D01*
X149838489Y-73412858D01*
X149976586Y-73374797D01*
X150103887Y-73317073D01*
X150219708Y-73240211D01*
X150323363Y-73144739D01*
X150414167Y-73031179D01*
X150480969Y-72920381D01*
X150535836Y-72803625D01*
X150577837Y-72684276D01*
X150607833Y-72558283D01*
X150626689Y-72421594D01*
X150635268Y-72270158D01*
X150635994Y-72192711D01*
X150633900Y-72135934D01*
X149804783Y-72135934D01*
X149804576Y-72229002D01*
X149801663Y-72316692D01*
X149796000Y-72393772D01*
X149787545Y-72455009D01*
X149784962Y-72467350D01*
X149753160Y-72574633D01*
X149711502Y-72661658D01*
X149659637Y-72728642D01*
X149597219Y-72775805D01*
X149523900Y-72803365D01*
X149439331Y-72811541D01*
X149343165Y-72800551D01*
X149279689Y-72784829D01*
X149230546Y-72766639D01*
X149176417Y-72740791D01*
X149135756Y-72717089D01*
X149065200Y-72670721D01*
X149065200Y-71520530D01*
X149132608Y-71476962D01*
X149211133Y-71436040D01*
X149295319Y-71409389D01*
X149380443Y-71397465D01*
X149461784Y-71400722D01*
X149534620Y-71419615D01*
X149566574Y-71435184D01*
X149624499Y-71478181D01*
X149673456Y-71534953D01*
X149714610Y-71607575D01*
X149749126Y-71698121D01*
X149778167Y-71808666D01*
X149779448Y-71814533D01*
X149789619Y-71876788D01*
X149797261Y-71954594D01*
X149802330Y-72042720D01*
X149804783Y-72135934D01*
X150633900Y-72135934D01*
X150628143Y-71979895D01*
X150606198Y-71784059D01*
X150570214Y-71605332D01*
X150520241Y-71443845D01*
X150456332Y-71299726D01*
X150378538Y-71173106D01*
X150286911Y-71064115D01*
X150181503Y-70972883D01*
X150136338Y-70941932D01*
X150035389Y-70885785D01*
X149932099Y-70846174D01*
X149822011Y-70822014D01*
X149700670Y-70812219D01*
X149608164Y-70813265D01*
X149478510Y-70824231D01*
X149365916Y-70846046D01*
X149267125Y-70879714D01*
X149178879Y-70926236D01*
X149130014Y-70960448D01*
X149100647Y-70982362D01*
X149078957Y-70997333D01*
X149070747Y-71001733D01*
X149069132Y-70990904D01*
X149067841Y-70960251D01*
X149066862Y-70912526D01*
X149066183Y-70850479D01*
X149065790Y-70776862D01*
X149065670Y-70694427D01*
X149065812Y-70605925D01*
X149066203Y-70514107D01*
X149066829Y-70421724D01*
X149067680Y-70331528D01*
X149068740Y-70246271D01*
X149069999Y-70168703D01*
X149071444Y-70101576D01*
X149073062Y-70047641D01*
X149074839Y-70009650D01*
X149075331Y-70002667D01*
X149082908Y-69932251D01*
X149094469Y-69877102D01*
X149112208Y-69829981D01*
X149138318Y-69783647D01*
X149144585Y-69774067D01*
X149169017Y-69737378D01*
X148263689Y-69737378D01*
X148263493Y-71422245D01*
G36*
X151776426Y-70816552D02*
G01*
X151624508Y-70836567D01*
X151489244Y-70870202D01*
X151369761Y-70917725D01*
X151265185Y-70979405D01*
X151187576Y-71042965D01*
X151118735Y-71117099D01*
X151064994Y-71196871D01*
X151022090Y-71289091D01*
X151006616Y-71332161D01*
X150993756Y-71371142D01*
X150982554Y-71407289D01*
X150972880Y-71442434D01*
X150964604Y-71478410D01*
X150957597Y-71517050D01*
X150951728Y-71560185D01*
X150946869Y-71609649D01*
X150942890Y-71667273D01*
X150939660Y-71734891D01*
X150937051Y-71814334D01*
X150934933Y-71907436D01*
X150933176Y-72016027D01*
X150931651Y-72141942D01*
X150930228Y-72287012D01*
X150928975Y-72429778D01*
X150927649Y-72585968D01*
X150926444Y-72721239D01*
X150925234Y-72837246D01*
X150923894Y-72935645D01*
X150922300Y-73018093D01*
X150920325Y-73086246D01*
X150917844Y-73141760D01*
X150914731Y-73186292D01*
X150910862Y-73221498D01*
X150906111Y-73249034D01*
X150900352Y-73270556D01*
X150893461Y-73287722D01*
X150885311Y-73302186D01*
X150875777Y-73315606D01*
X150864734Y-73329638D01*
X150860434Y-73335071D01*
X150844614Y-73357910D01*
X150837578Y-73373463D01*
X150837556Y-73373922D01*
X150848433Y-73376121D01*
X150879418Y-73378147D01*
X150928043Y-73379942D01*
X150991837Y-73381451D01*
X151068331Y-73382616D01*
X151155056Y-73383380D01*
X151249543Y-73383686D01*
X151260450Y-73383689D01*
X151683343Y-73383689D01*
X151686605Y-73287622D01*
X151689867Y-73191556D01*
X151751956Y-73242543D01*
X151849286Y-73310057D01*
X151959187Y-73364749D01*
X152045651Y-73394978D01*
X152114722Y-73409666D01*
X152198075Y-73419659D01*
X152287841Y-73424646D01*
X152376155Y-73424313D01*
X152455149Y-73418351D01*
X152491378Y-73412638D01*
X152631397Y-73374776D01*
X152757822Y-73319932D01*
X152869740Y-73248924D01*
X152966238Y-73162568D01*
X153046400Y-73061679D01*
X153109313Y-72947076D01*
X153153688Y-72820984D01*
X153166022Y-72764401D01*
X153173632Y-72702202D01*
X153177261Y-72627363D01*
X153177755Y-72593467D01*
X153177690Y-72590282D01*
X152417752Y-72590282D01*
X152408459Y-72665333D01*
X152380272Y-72729160D01*
X152331803Y-72784798D01*
X152326746Y-72789211D01*
X152278452Y-72824037D01*
X152226743Y-72846620D01*
X152166011Y-72858540D01*
X152090648Y-72861383D01*
X152072541Y-72860978D01*
X152018722Y-72858325D01*
X151978692Y-72852909D01*
X151943676Y-72842745D01*
X151904897Y-72825850D01*
X151894255Y-72820672D01*
X151833604Y-72784844D01*
X151786785Y-72742212D01*
X151774048Y-72726973D01*
X151729378Y-72670462D01*
X151729378Y-72474586D01*
X151729914Y-72395939D01*
X151731604Y-72337988D01*
X151734572Y-72298875D01*
X151738943Y-72276741D01*
X151743028Y-72270274D01*
X151758953Y-72267111D01*
X151792736Y-72264488D01*
X151839660Y-72262655D01*
X151895007Y-72261857D01*
X151903894Y-72261842D01*
X152024670Y-72267096D01*
X152127340Y-72283263D01*
X152213894Y-72310961D01*
X152286319Y-72350808D01*
X152341249Y-72397758D01*
X152385796Y-72455645D01*
X152410520Y-72518693D01*
X152417752Y-72590282D01*
X153177690Y-72590282D01*
X153175822Y-72499712D01*
X153167478Y-72420812D01*
X153151232Y-72349590D01*
X153125595Y-72278864D01*
X153101599Y-72226493D01*
X153042980Y-72131196D01*
X152964883Y-72043170D01*
X152869685Y-71964017D01*
X152759762Y-71895340D01*
X152637490Y-71838741D01*
X152505245Y-71795821D01*
X152440578Y-71780882D01*
X152304396Y-71758777D01*
X152155951Y-71744194D01*
X152004495Y-71737813D01*
X151877936Y-71739445D01*
X151716050Y-71746224D01*
X151723470Y-71687245D01*
X151742762Y-71588092D01*
X151773896Y-71507372D01*
X151817731Y-71444466D01*
X151875129Y-71398756D01*
X151946952Y-71369622D01*
X152034059Y-71356447D01*
X152137314Y-71358611D01*
X152175289Y-71362612D01*
X152316480Y-71387780D01*
X152453293Y-71428814D01*
X152547822Y-71466815D01*
X152592982Y-71486190D01*
X152631415Y-71501760D01*
X152657766Y-71511405D01*
X152665454Y-71513452D01*
X152675198Y-71504374D01*
X152691917Y-71475405D01*
X152715768Y-71426217D01*
X152746907Y-71356484D01*
X152785493Y-71265879D01*
X152792090Y-71250089D01*
X152822147Y-71177772D01*
X152849126Y-71112425D01*
X152871864Y-71056906D01*
X152889194Y-71014072D01*
X152899952Y-70986781D01*
X152903059Y-70977942D01*
X152893060Y-70973187D01*
X152866783Y-70967910D01*
X152838511Y-70964231D01*
X152808354Y-70959474D01*
X152760567Y-70950028D01*
X152699388Y-70936820D01*
X152629054Y-70920776D01*
X152553806Y-70902820D01*
X152525245Y-70895797D01*
X152420184Y-70870209D01*
X152332520Y-70850147D01*
X152257932Y-70834969D01*
X152192097Y-70824035D01*
X152130693Y-70816704D01*
X152069398Y-70812335D01*
X152003890Y-70810287D01*
X151945872Y-70809889D01*
X151776426Y-70816552D01*
G37*
X151776426Y-70816552D02*
X151624508Y-70836567D01*
X151489244Y-70870202D01*
X151369761Y-70917725D01*
X151265185Y-70979405D01*
X151187576Y-71042965D01*
X151118735Y-71117099D01*
X151064994Y-71196871D01*
X151022090Y-71289091D01*
X151006616Y-71332161D01*
X150993756Y-71371142D01*
X150982554Y-71407289D01*
X150972880Y-71442434D01*
X150964604Y-71478410D01*
X150957597Y-71517050D01*
X150951728Y-71560185D01*
X150946869Y-71609649D01*
X150942890Y-71667273D01*
X150939660Y-71734891D01*
X150937051Y-71814334D01*
X150934933Y-71907436D01*
X150933176Y-72016027D01*
X150931651Y-72141942D01*
X150930228Y-72287012D01*
X150928975Y-72429778D01*
X150927649Y-72585968D01*
X150926444Y-72721239D01*
X150925234Y-72837246D01*
X150923894Y-72935645D01*
X150922300Y-73018093D01*
X150920325Y-73086246D01*
X150917844Y-73141760D01*
X150914731Y-73186292D01*
X150910862Y-73221498D01*
X150906111Y-73249034D01*
X150900352Y-73270556D01*
X150893461Y-73287722D01*
X150885311Y-73302186D01*
X150875777Y-73315606D01*
X150864734Y-73329638D01*
X150860434Y-73335071D01*
X150844614Y-73357910D01*
X150837578Y-73373463D01*
X150837556Y-73373922D01*
X150848433Y-73376121D01*
X150879418Y-73378147D01*
X150928043Y-73379942D01*
X150991837Y-73381451D01*
X151068331Y-73382616D01*
X151155056Y-73383380D01*
X151249543Y-73383686D01*
X151260450Y-73383689D01*
X151683343Y-73383689D01*
X151686605Y-73287622D01*
X151689867Y-73191556D01*
X151751956Y-73242543D01*
X151849286Y-73310057D01*
X151959187Y-73364749D01*
X152045651Y-73394978D01*
X152114722Y-73409666D01*
X152198075Y-73419659D01*
X152287841Y-73424646D01*
X152376155Y-73424313D01*
X152455149Y-73418351D01*
X152491378Y-73412638D01*
X152631397Y-73374776D01*
X152757822Y-73319932D01*
X152869740Y-73248924D01*
X152966238Y-73162568D01*
X153046400Y-73061679D01*
X153109313Y-72947076D01*
X153153688Y-72820984D01*
X153166022Y-72764401D01*
X153173632Y-72702202D01*
X153177261Y-72627363D01*
X153177755Y-72593467D01*
X153177690Y-72590282D01*
X152417752Y-72590282D01*
X152408459Y-72665333D01*
X152380272Y-72729160D01*
X152331803Y-72784798D01*
X152326746Y-72789211D01*
X152278452Y-72824037D01*
X152226743Y-72846620D01*
X152166011Y-72858540D01*
X152090648Y-72861383D01*
X152072541Y-72860978D01*
X152018722Y-72858325D01*
X151978692Y-72852909D01*
X151943676Y-72842745D01*
X151904897Y-72825850D01*
X151894255Y-72820672D01*
X151833604Y-72784844D01*
X151786785Y-72742212D01*
X151774048Y-72726973D01*
X151729378Y-72670462D01*
X151729378Y-72474586D01*
X151729914Y-72395939D01*
X151731604Y-72337988D01*
X151734572Y-72298875D01*
X151738943Y-72276741D01*
X151743028Y-72270274D01*
X151758953Y-72267111D01*
X151792736Y-72264488D01*
X151839660Y-72262655D01*
X151895007Y-72261857D01*
X151903894Y-72261842D01*
X152024670Y-72267096D01*
X152127340Y-72283263D01*
X152213894Y-72310961D01*
X152286319Y-72350808D01*
X152341249Y-72397758D01*
X152385796Y-72455645D01*
X152410520Y-72518693D01*
X152417752Y-72590282D01*
X153177690Y-72590282D01*
X153175822Y-72499712D01*
X153167478Y-72420812D01*
X153151232Y-72349590D01*
X153125595Y-72278864D01*
X153101599Y-72226493D01*
X153042980Y-72131196D01*
X152964883Y-72043170D01*
X152869685Y-71964017D01*
X152759762Y-71895340D01*
X152637490Y-71838741D01*
X152505245Y-71795821D01*
X152440578Y-71780882D01*
X152304396Y-71758777D01*
X152155951Y-71744194D01*
X152004495Y-71737813D01*
X151877936Y-71739445D01*
X151716050Y-71746224D01*
X151723470Y-71687245D01*
X151742762Y-71588092D01*
X151773896Y-71507372D01*
X151817731Y-71444466D01*
X151875129Y-71398756D01*
X151946952Y-71369622D01*
X152034059Y-71356447D01*
X152137314Y-71358611D01*
X152175289Y-71362612D01*
X152316480Y-71387780D01*
X152453293Y-71428814D01*
X152547822Y-71466815D01*
X152592982Y-71486190D01*
X152631415Y-71501760D01*
X152657766Y-71511405D01*
X152665454Y-71513452D01*
X152675198Y-71504374D01*
X152691917Y-71475405D01*
X152715768Y-71426217D01*
X152746907Y-71356484D01*
X152785493Y-71265879D01*
X152792090Y-71250089D01*
X152822147Y-71177772D01*
X152849126Y-71112425D01*
X152871864Y-71056906D01*
X152889194Y-71014072D01*
X152899952Y-70986781D01*
X152903059Y-70977942D01*
X152893060Y-70973187D01*
X152866783Y-70967910D01*
X152838511Y-70964231D01*
X152808354Y-70959474D01*
X152760567Y-70950028D01*
X152699388Y-70936820D01*
X152629054Y-70920776D01*
X152553806Y-70902820D01*
X152525245Y-70895797D01*
X152420184Y-70870209D01*
X152332520Y-70850147D01*
X152257932Y-70834969D01*
X152192097Y-70824035D01*
X152130693Y-70816704D01*
X152069398Y-70812335D01*
X152003890Y-70810287D01*
X151945872Y-70809889D01*
X151776426Y-70816552D01*
G36*
X154121571Y-69899071D02*
G01*
X153961430Y-69920245D01*
X153797490Y-69960385D01*
X153627687Y-70019889D01*
X153449957Y-70099154D01*
X153438690Y-70104699D01*
X153380995Y-70132725D01*
X153329448Y-70156802D01*
X153287809Y-70175249D01*
X153259838Y-70186386D01*
X153250267Y-70188933D01*
X153231050Y-70193941D01*
X153226439Y-70198147D01*
X153231542Y-70208580D01*
X153247582Y-70234868D01*
X153272712Y-70274257D01*
X153305086Y-70323991D01*
X153342857Y-70381315D01*
X153384178Y-70443476D01*
X153427202Y-70507718D01*
X153470083Y-70571285D01*
X153510974Y-70631425D01*
X153548029Y-70685380D01*
X153579400Y-70730397D01*
X153603241Y-70763721D01*
X153617706Y-70782597D01*
X153619691Y-70784787D01*
X153629809Y-70780138D01*
X153652150Y-70762962D01*
X153682720Y-70736440D01*
X153698464Y-70721964D01*
X153794953Y-70646682D01*
X153901664Y-70591241D01*
X154017168Y-70556141D01*
X154140038Y-70541880D01*
X154209439Y-70543051D01*
X154330577Y-70560212D01*
X154439795Y-70596094D01*
X154537418Y-70650959D01*
X154623772Y-70725070D01*
X154699185Y-70818688D01*
X154763982Y-70932076D01*
X154801399Y-71018667D01*
X154845252Y-71154366D01*
X154877572Y-71301850D01*
X154898443Y-71457314D01*
X154907949Y-71616956D01*
X154906173Y-71776973D01*
X154893197Y-71933561D01*
X154869106Y-72082918D01*
X154833982Y-72221240D01*
X154787908Y-72344724D01*
X154771627Y-72378978D01*
X154703380Y-72493064D01*
X154622921Y-72589557D01*
X154531430Y-72667670D01*
X154430089Y-72726617D01*
X154320080Y-72765612D01*
X154202585Y-72783868D01*
X154161117Y-72785211D01*
X154039559Y-72774290D01*
X153919122Y-72741474D01*
X153801334Y-72687439D01*
X153687723Y-72612865D01*
X153596315Y-72534539D01*
X153549785Y-72490008D01*
X153368517Y-72787271D01*
X153323420Y-72861433D01*
X153282181Y-72929646D01*
X153246265Y-72989459D01*
X153217134Y-73038420D01*
X153196250Y-73074079D01*
X153185076Y-73093984D01*
X153183625Y-73097079D01*
X153191854Y-73106718D01*
X153217433Y-73123999D01*
X153257127Y-73147283D01*
X153307703Y-73174934D01*
X153365926Y-73205315D01*
X153428563Y-73236790D01*
X153492379Y-73267722D01*
X153554140Y-73296473D01*
X153610612Y-73321408D01*
X153658562Y-73340889D01*
X153682014Y-73349318D01*
X153815779Y-73387133D01*
X153953673Y-73412136D01*
X154101378Y-73425140D01*
X154228167Y-73427468D01*
X154296122Y-73426373D01*
X154361723Y-73424275D01*
X154419153Y-73421434D01*
X154462597Y-73418106D01*
X154476702Y-73416422D01*
X154615716Y-73387587D01*
X154757243Y-73342468D01*
X154894725Y-73283750D01*
X155021606Y-73214120D01*
X155099111Y-73161441D01*
X155226519Y-73053239D01*
X155344822Y-72926671D01*
X155451828Y-72784866D01*
X155545348Y-72630951D01*
X155623190Y-72468053D01*
X155667044Y-72350756D01*
X155717292Y-72167128D01*
X155750791Y-71972581D01*
X155767551Y-71771325D01*
X155767584Y-71567568D01*
X155750899Y-71365521D01*
X155717507Y-71169392D01*
X155667420Y-70983391D01*
X155663603Y-70971803D01*
X155600719Y-70809750D01*
X155523972Y-70661832D01*
X155430758Y-70523865D01*
X155318473Y-70391661D01*
X155274608Y-70346399D01*
X155138466Y-70222457D01*
X154998509Y-70119915D01*
X154852589Y-70037656D01*
X154698558Y-69974564D01*
X154534268Y-69929523D01*
X154438711Y-69912033D01*
X154279977Y-69896466D01*
X154121571Y-69899071D01*
G37*
X154121571Y-69899071D02*
X153961430Y-69920245D01*
X153797490Y-69960385D01*
X153627687Y-70019889D01*
X153449957Y-70099154D01*
X153438690Y-70104699D01*
X153380995Y-70132725D01*
X153329448Y-70156802D01*
X153287809Y-70175249D01*
X153259838Y-70186386D01*
X153250267Y-70188933D01*
X153231050Y-70193941D01*
X153226439Y-70198147D01*
X153231542Y-70208580D01*
X153247582Y-70234868D01*
X153272712Y-70274257D01*
X153305086Y-70323991D01*
X153342857Y-70381315D01*
X153384178Y-70443476D01*
X153427202Y-70507718D01*
X153470083Y-70571285D01*
X153510974Y-70631425D01*
X153548029Y-70685380D01*
X153579400Y-70730397D01*
X153603241Y-70763721D01*
X153617706Y-70782597D01*
X153619691Y-70784787D01*
X153629809Y-70780138D01*
X153652150Y-70762962D01*
X153682720Y-70736440D01*
X153698464Y-70721964D01*
X153794953Y-70646682D01*
X153901664Y-70591241D01*
X154017168Y-70556141D01*
X154140038Y-70541880D01*
X154209439Y-70543051D01*
X154330577Y-70560212D01*
X154439795Y-70596094D01*
X154537418Y-70650959D01*
X154623772Y-70725070D01*
X154699185Y-70818688D01*
X154763982Y-70932076D01*
X154801399Y-71018667D01*
X154845252Y-71154366D01*
X154877572Y-71301850D01*
X154898443Y-71457314D01*
X154907949Y-71616956D01*
X154906173Y-71776973D01*
X154893197Y-71933561D01*
X154869106Y-72082918D01*
X154833982Y-72221240D01*
X154787908Y-72344724D01*
X154771627Y-72378978D01*
X154703380Y-72493064D01*
X154622921Y-72589557D01*
X154531430Y-72667670D01*
X154430089Y-72726617D01*
X154320080Y-72765612D01*
X154202585Y-72783868D01*
X154161117Y-72785211D01*
X154039559Y-72774290D01*
X153919122Y-72741474D01*
X153801334Y-72687439D01*
X153687723Y-72612865D01*
X153596315Y-72534539D01*
X153549785Y-72490008D01*
X153368517Y-72787271D01*
X153323420Y-72861433D01*
X153282181Y-72929646D01*
X153246265Y-72989459D01*
X153217134Y-73038420D01*
X153196250Y-73074079D01*
X153185076Y-73093984D01*
X153183625Y-73097079D01*
X153191854Y-73106718D01*
X153217433Y-73123999D01*
X153257127Y-73147283D01*
X153307703Y-73174934D01*
X153365926Y-73205315D01*
X153428563Y-73236790D01*
X153492379Y-73267722D01*
X153554140Y-73296473D01*
X153610612Y-73321408D01*
X153658562Y-73340889D01*
X153682014Y-73349318D01*
X153815779Y-73387133D01*
X153953673Y-73412136D01*
X154101378Y-73425140D01*
X154228167Y-73427468D01*
X154296122Y-73426373D01*
X154361723Y-73424275D01*
X154419153Y-73421434D01*
X154462597Y-73418106D01*
X154476702Y-73416422D01*
X154615716Y-73387587D01*
X154757243Y-73342468D01*
X154894725Y-73283750D01*
X155021606Y-73214120D01*
X155099111Y-73161441D01*
X155226519Y-73053239D01*
X155344822Y-72926671D01*
X155451828Y-72784866D01*
X155545348Y-72630951D01*
X155623190Y-72468053D01*
X155667044Y-72350756D01*
X155717292Y-72167128D01*
X155750791Y-71972581D01*
X155767551Y-71771325D01*
X155767584Y-71567568D01*
X155750899Y-71365521D01*
X155717507Y-71169392D01*
X155667420Y-70983391D01*
X155663603Y-70971803D01*
X155600719Y-70809750D01*
X155523972Y-70661832D01*
X155430758Y-70523865D01*
X155318473Y-70391661D01*
X155274608Y-70346399D01*
X155138466Y-70222457D01*
X154998509Y-70119915D01*
X154852589Y-70037656D01*
X154698558Y-69974564D01*
X154534268Y-69929523D01*
X154438711Y-69912033D01*
X154279977Y-69896466D01*
X154121571Y-69899071D01*
G36*
X157396400Y-69439054D02*
G01*
X157385535Y-69552993D01*
X157353918Y-69660616D01*
X157303015Y-69759615D01*
X157234293Y-69847684D01*
X157149219Y-69922516D01*
X157052232Y-69980384D01*
X156945964Y-70020005D01*
X156838950Y-70038573D01*
X156733300Y-70037434D01*
X156631125Y-70017930D01*
X156534534Y-69981406D01*
X156445638Y-69929205D01*
X156366546Y-69862673D01*
X156299369Y-69783152D01*
X156246217Y-69691987D01*
X156209199Y-69590523D01*
X156190427Y-69480102D01*
X156188489Y-69430206D01*
X156188489Y-69342267D01*
X156136560Y-69342267D01*
X156100253Y-69345111D01*
X156073355Y-69356911D01*
X156046249Y-69380649D01*
X156007867Y-69419031D01*
X156007867Y-71610602D01*
X156007876Y-71872739D01*
X156007908Y-72113241D01*
X156007972Y-72333048D01*
X156008076Y-72533101D01*
X156008227Y-72714344D01*
X156008434Y-72877716D01*
X156008706Y-73024160D01*
X156009050Y-73154617D01*
X156009474Y-73270029D01*
X156009987Y-73371338D01*
X156010597Y-73459484D01*
X156011312Y-73535410D01*
X156012140Y-73600057D01*
X156013089Y-73654367D01*
X156014167Y-73699280D01*
X156015383Y-73735740D01*
X156016745Y-73764687D01*
X156018261Y-73787063D01*
X156019938Y-73803809D01*
X156021786Y-73815868D01*
X156023813Y-73824180D01*
X156026025Y-73829687D01*
X156027108Y-73831537D01*
X156031271Y-73838549D01*
X156034805Y-73844996D01*
X156038635Y-73850900D01*
X156043682Y-73856286D01*
X156050871Y-73861178D01*
X156061123Y-73865598D01*
X156075364Y-73869572D01*
X156094514Y-73873121D01*
X156119499Y-73876270D01*
X156151240Y-73879042D01*
X156190662Y-73881461D01*
X156238686Y-73883551D01*
X156296237Y-73885335D01*
X156364237Y-73886837D01*
X156443610Y-73888080D01*
X156535279Y-73889089D01*
X156640166Y-73889885D01*
X156759196Y-73890494D01*
X156893290Y-73890939D01*
X157043373Y-73891243D01*
X157210367Y-73891430D01*
X157395196Y-73891524D01*
X157598783Y-73891548D01*
X157822050Y-73891525D01*
X158065922Y-73891480D01*
X158331321Y-73891437D01*
X158369704Y-73891432D01*
X158636682Y-73891389D01*
X158882002Y-73891318D01*
X159106583Y-73891213D01*
X159311345Y-73891066D01*
X159497206Y-73890869D01*
X159665088Y-73890616D01*
X159815908Y-73890300D01*
X159950587Y-73889913D01*
X160070044Y-73889447D01*
X160175199Y-73888897D01*
X160266971Y-73888253D01*
X160346279Y-73887511D01*
X160414043Y-73886661D01*
X160471182Y-73885697D01*
X160518617Y-73884611D01*
X160557266Y-73883397D01*
X160588049Y-73882047D01*
X160611885Y-73880555D01*
X160629694Y-73878911D01*
X160642395Y-73877111D01*
X160650908Y-73875145D01*
X160655266Y-73873477D01*
X160663728Y-73869906D01*
X160671497Y-73867270D01*
X160678602Y-73864634D01*
X160685073Y-73861062D01*
X160690939Y-73855621D01*
X160696229Y-73847375D01*
X160700974Y-73835390D01*
X160705202Y-73818731D01*
X160708943Y-73796463D01*
X160712227Y-73767652D01*
X160715083Y-73731363D01*
X160717540Y-73686661D01*
X160719629Y-73632611D01*
X160721378Y-73568279D01*
X160722817Y-73492730D01*
X160723976Y-73405030D01*
X160724883Y-73304243D01*
X160725569Y-73189434D01*
X160726063Y-73059670D01*
X160726395Y-72914015D01*
X160726593Y-72751535D01*
X160726687Y-72571295D01*
X160726708Y-72372360D01*
X160726685Y-72153796D01*
X160726646Y-71914668D01*
X160726622Y-71654040D01*
X160726622Y-71611889D01*
X160726636Y-71348992D01*
X160726661Y-71107732D01*
X160726671Y-70887165D01*
X160726642Y-70686352D01*
X160726548Y-70504349D01*
X160726362Y-70340216D01*
X160726059Y-70193011D01*
X160725614Y-70061792D01*
X160725034Y-69951867D01*
X160422197Y-69951867D01*
X160382407Y-70009711D01*
X160371236Y-70025479D01*
X160361166Y-70039441D01*
X160352138Y-70052784D01*
X160344097Y-70066693D01*
X160336986Y-70082356D01*
X160330747Y-70100958D01*
X160325325Y-70123686D01*
X160320662Y-70151727D01*
X160316701Y-70186267D01*
X160313385Y-70228492D01*
X160310659Y-70279589D01*
X160308464Y-70340744D01*
X160306745Y-70413144D01*
X160305444Y-70497975D01*
X160304505Y-70596422D01*
X160303870Y-70709674D01*
X160303484Y-70838916D01*
X160303288Y-70985334D01*
X160303227Y-71150116D01*
X160303243Y-71334447D01*
X160303280Y-71539513D01*
X160303289Y-71662133D01*
X160303265Y-71879082D01*
X160303231Y-72074642D01*
X160303243Y-72249999D01*
X160303358Y-72406341D01*
X160303630Y-72544857D01*
X160304118Y-72666734D01*
X160304876Y-72773160D01*
X160305962Y-72865322D01*
X160307431Y-72944409D01*
X160309340Y-73011608D01*
X160311744Y-73068107D01*
X160314701Y-73115093D01*
X160318266Y-73153755D01*
X160322495Y-73185280D01*
X160327446Y-73210855D01*
X160333173Y-73231670D01*
X160339733Y-73248911D01*
X160347183Y-73263765D01*
X160355579Y-73277422D01*
X160364976Y-73291069D01*
X160375432Y-73305893D01*
X160381523Y-73314783D01*
X160420296Y-73372400D01*
X159888732Y-73372400D01*
X159765483Y-73372365D01*
X159662987Y-73372215D01*
X159579420Y-73371878D01*
X159512956Y-73371286D01*
X159461771Y-73370367D01*
X159424041Y-73369051D01*
X159397940Y-73367269D01*
X159381644Y-73364951D01*
X159373328Y-73362026D01*
X159371168Y-73358424D01*
X159373339Y-73354075D01*
X159374535Y-73352645D01*
X159399685Y-73315573D01*
X159425583Y-73262772D01*
X159449192Y-73200770D01*
X159457461Y-73174357D01*
X159462078Y-73156416D01*
X159465979Y-73135355D01*
X159469248Y-73109089D01*
X159471966Y-73075532D01*
X159474215Y-73032599D01*
X159476077Y-72978204D01*
X159477636Y-72910262D01*
X159478972Y-72826688D01*
X159480169Y-72725395D01*
X159481308Y-72604300D01*
X159481685Y-72559600D01*
X159482702Y-72434449D01*
X159483460Y-72330082D01*
X159483903Y-72244707D01*
X159483970Y-72176533D01*
X159483605Y-72123765D01*
X159482748Y-72084614D01*
X159481341Y-72057285D01*
X159479325Y-72039986D01*
X159476643Y-72030926D01*
X159473236Y-72028312D01*
X159469044Y-72030351D01*
X159464571Y-72034667D01*
X159454216Y-72047602D01*
X159432158Y-72076676D01*
X159399957Y-72119759D01*
X159359174Y-72174718D01*
X159311370Y-72239423D01*
X159258105Y-72311742D01*
X159200940Y-72389544D01*
X159141437Y-72470698D01*
X159081155Y-72553072D01*
X159021655Y-72634536D01*
X158964498Y-72712957D01*
X158911245Y-72786204D01*
X158863457Y-72852147D01*
X158822693Y-72908654D01*
X158790516Y-72953593D01*
X158768485Y-72984834D01*
X158763917Y-72991466D01*
X158740996Y-73028369D01*
X158714188Y-73076359D01*
X158688789Y-73125897D01*
X158685568Y-73132577D01*
X158663890Y-73180772D01*
X158651304Y-73218334D01*
X158645574Y-73254160D01*
X158644456Y-73296200D01*
X158645090Y-73372400D01*
X157490651Y-73372400D01*
X157581815Y-73278669D01*
X157628612Y-73228775D01*
X157678899Y-73172295D01*
X157724944Y-73118026D01*
X157745369Y-73092673D01*
X157775807Y-73053128D01*
X157815862Y-72999916D01*
X157864361Y-72934667D01*
X157920135Y-72859011D01*
X157982011Y-72774577D01*
X158048819Y-72682994D01*
X158119387Y-72585892D01*
X158192545Y-72484901D01*
X158267121Y-72381650D01*
X158341944Y-72277768D01*
X158415843Y-72174885D01*
X158487646Y-72074631D01*
X158556184Y-71978636D01*
X158620284Y-71888527D01*
X158678775Y-71805936D01*
X158730486Y-71732492D01*
X158774247Y-71669824D01*
X158808885Y-71619561D01*
X158833230Y-71583334D01*
X158846111Y-71562771D01*
X158847869Y-71558668D01*
X158839910Y-71547342D01*
X158819115Y-71520162D01*
X158786847Y-71478829D01*
X158744470Y-71425044D01*
X158693347Y-71360506D01*
X158634841Y-71286918D01*
X158570314Y-71205978D01*
X158501131Y-71119388D01*
X158428653Y-71028848D01*
X158354246Y-70936060D01*
X158294517Y-70861702D01*
X157283511Y-70861702D01*
X157277602Y-70874659D01*
X157263272Y-70896908D01*
X157262225Y-70898391D01*
X157243438Y-70928544D01*
X157223791Y-70965375D01*
X157219892Y-70973511D01*
X157216356Y-70981940D01*
X157213230Y-70992059D01*
X157210486Y-71005260D01*
X157208092Y-71022938D01*
X157206019Y-71046484D01*
X157204235Y-71077293D01*
X157202712Y-71116757D01*
X157201419Y-71166269D01*
X157200326Y-71227223D01*
X157199403Y-71301011D01*
X157198619Y-71389028D01*
X157197945Y-71492665D01*
X157197350Y-71613316D01*
X157196805Y-71752374D01*
X157196279Y-71911232D01*
X157195745Y-72090089D01*
X157195206Y-72275207D01*
X157194772Y-72439145D01*
X157194509Y-72583303D01*
X157194484Y-72709079D01*
X157194765Y-72817871D01*
X157195419Y-72911077D01*
X157196514Y-72990097D01*
X157198118Y-73056328D01*
X157200297Y-73111170D01*
X157203119Y-73156021D01*
X157206651Y-73192278D01*
X157210961Y-73221341D01*
X157216117Y-73244609D01*
X157222185Y-73263479D01*
X157229233Y-73279351D01*
X157237329Y-73293622D01*
X157246540Y-73307691D01*
X157255040Y-73320158D01*
X157272176Y-73346452D01*
X157282322Y-73364037D01*
X157283511Y-73367257D01*
X157272604Y-73368334D01*
X157241411Y-73369335D01*
X157192223Y-73370235D01*
X157127333Y-73371010D01*
X157049030Y-73371637D01*
X156959607Y-73372091D01*
X156861356Y-73372349D01*
X156792445Y-73372400D01*
X156687452Y-73372180D01*
X156590610Y-73371548D01*
X156504107Y-73370549D01*
X156430132Y-73369227D01*
X156370874Y-73367626D01*
X156328520Y-73365791D01*
X156305260Y-73363765D01*
X156301378Y-73362493D01*
X156309076Y-73347591D01*
X156317074Y-73339560D01*
X156330246Y-73322434D01*
X156347485Y-73292183D01*
X156359407Y-73267622D01*
X156386045Y-73208711D01*
X156389120Y-72031845D01*
X156392195Y-70854978D01*
X156837853Y-70854978D01*
X156935670Y-70855142D01*
X157026064Y-70855611D01*
X157106630Y-70856347D01*
X157174962Y-70857316D01*
X157228656Y-70858480D01*
X157265305Y-70859803D01*
X157282504Y-70861249D01*
X157283511Y-70861702D01*
X158294517Y-70861702D01*
X158279270Y-70842722D01*
X158205090Y-70750537D01*
X158133069Y-70661204D01*
X158064569Y-70576424D01*
X158000955Y-70497898D01*
X157943588Y-70427326D01*
X157893833Y-70366409D01*
X157853052Y-70316847D01*
X157835888Y-70296178D01*
X157749596Y-70195516D01*
X157672997Y-70112259D01*
X157604183Y-70044438D01*
X157541248Y-69990089D01*
X157531867Y-69982722D01*
X157492356Y-69952117D01*
X158624116Y-69951867D01*
X158618827Y-69999844D01*
X158622130Y-70057188D01*
X158643661Y-70125463D01*
X158683635Y-70205212D01*
X158728943Y-70277495D01*
X158745161Y-70300140D01*
X158773214Y-70337696D01*
X158811430Y-70388021D01*
X158858137Y-70448973D01*
X158911661Y-70518411D01*
X158970331Y-70594194D01*
X159032475Y-70674180D01*
X159096421Y-70756228D01*
X159160495Y-70838196D01*
X159223027Y-70917943D01*
X159282343Y-70993327D01*
X159336771Y-71062207D01*
X159384639Y-71122442D01*
X159424275Y-71171889D01*
X159454006Y-71208408D01*
X159472161Y-71229858D01*
X159475220Y-71233156D01*
X159478079Y-71225149D01*
X159480293Y-71194855D01*
X159481857Y-71142556D01*
X159482767Y-71068531D01*
X159483020Y-70973063D01*
X159482613Y-70856434D01*
X159481704Y-70736445D01*
X159480382Y-70604333D01*
X159478857Y-70492594D01*
X159476881Y-70399025D01*
X159474206Y-70321419D01*
X159470582Y-70257574D01*
X159465761Y-70205283D01*
X159459494Y-70162344D01*
X159451532Y-70126551D01*
X159441627Y-70095700D01*
X159429531Y-70067586D01*
X159414993Y-70040005D01*
X159400311Y-70014966D01*
X159362314Y-69951867D01*
X160422197Y-69951867D01*
X160725034Y-69951867D01*
X160725001Y-69945617D01*
X160724195Y-69843544D01*
X160723170Y-69754633D01*
X160721900Y-69677941D01*
X160720360Y-69612527D01*
X160718524Y-69557449D01*
X160716367Y-69511765D01*
X160713863Y-69474534D01*
X160710987Y-69444813D01*
X160707713Y-69421662D01*
X160704015Y-69404139D01*
X160699869Y-69391301D01*
X160695247Y-69382208D01*
X160690126Y-69375918D01*
X160684478Y-69371488D01*
X160678279Y-69367978D01*
X160671504Y-69364445D01*
X160665508Y-69360876D01*
X160660275Y-69358300D01*
X160652099Y-69355972D01*
X160639886Y-69353878D01*
X160622541Y-69352007D01*
X160598969Y-69350347D01*
X160568077Y-69348884D01*
X160528768Y-69347608D01*
X160479950Y-69346504D01*
X160420527Y-69345561D01*
X160349404Y-69344767D01*
X160265488Y-69344109D01*
X160167683Y-69343575D01*
X160054894Y-69343153D01*
X159926029Y-69342829D01*
X159779991Y-69342592D01*
X159615686Y-69342430D01*
X159432020Y-69342330D01*
X159227897Y-69342280D01*
X159016753Y-69342267D01*
X157396400Y-69342267D01*
X157396400Y-69439054D01*
G37*
X157396400Y-69439054D02*
X157385535Y-69552993D01*
X157353918Y-69660616D01*
X157303015Y-69759615D01*
X157234293Y-69847684D01*
X157149219Y-69922516D01*
X157052232Y-69980384D01*
X156945964Y-70020005D01*
X156838950Y-70038573D01*
X156733300Y-70037434D01*
X156631125Y-70017930D01*
X156534534Y-69981406D01*
X156445638Y-69929205D01*
X156366546Y-69862673D01*
X156299369Y-69783152D01*
X156246217Y-69691987D01*
X156209199Y-69590523D01*
X156190427Y-69480102D01*
X156188489Y-69430206D01*
X156188489Y-69342267D01*
X156136560Y-69342267D01*
X156100253Y-69345111D01*
X156073355Y-69356911D01*
X156046249Y-69380649D01*
X156007867Y-69419031D01*
X156007867Y-71610602D01*
X156007876Y-71872739D01*
X156007908Y-72113241D01*
X156007972Y-72333048D01*
X156008076Y-72533101D01*
X156008227Y-72714344D01*
X156008434Y-72877716D01*
X156008706Y-73024160D01*
X156009050Y-73154617D01*
X156009474Y-73270029D01*
X156009987Y-73371338D01*
X156010597Y-73459484D01*
X156011312Y-73535410D01*
X156012140Y-73600057D01*
X156013089Y-73654367D01*
X156014167Y-73699280D01*
X156015383Y-73735740D01*
X156016745Y-73764687D01*
X156018261Y-73787063D01*
X156019938Y-73803809D01*
X156021786Y-73815868D01*
X156023813Y-73824180D01*
X156026025Y-73829687D01*
X156027108Y-73831537D01*
X156031271Y-73838549D01*
X156034805Y-73844996D01*
X156038635Y-73850900D01*
X156043682Y-73856286D01*
X156050871Y-73861178D01*
X156061123Y-73865598D01*
X156075364Y-73869572D01*
X156094514Y-73873121D01*
X156119499Y-73876270D01*
X156151240Y-73879042D01*
X156190662Y-73881461D01*
X156238686Y-73883551D01*
X156296237Y-73885335D01*
X156364237Y-73886837D01*
X156443610Y-73888080D01*
X156535279Y-73889089D01*
X156640166Y-73889885D01*
X156759196Y-73890494D01*
X156893290Y-73890939D01*
X157043373Y-73891243D01*
X157210367Y-73891430D01*
X157395196Y-73891524D01*
X157598783Y-73891548D01*
X157822050Y-73891525D01*
X158065922Y-73891480D01*
X158331321Y-73891437D01*
X158369704Y-73891432D01*
X158636682Y-73891389D01*
X158882002Y-73891318D01*
X159106583Y-73891213D01*
X159311345Y-73891066D01*
X159497206Y-73890869D01*
X159665088Y-73890616D01*
X159815908Y-73890300D01*
X159950587Y-73889913D01*
X160070044Y-73889447D01*
X160175199Y-73888897D01*
X160266971Y-73888253D01*
X160346279Y-73887511D01*
X160414043Y-73886661D01*
X160471182Y-73885697D01*
X160518617Y-73884611D01*
X160557266Y-73883397D01*
X160588049Y-73882047D01*
X160611885Y-73880555D01*
X160629694Y-73878911D01*
X160642395Y-73877111D01*
X160650908Y-73875145D01*
X160655266Y-73873477D01*
X160663728Y-73869906D01*
X160671497Y-73867270D01*
X160678602Y-73864634D01*
X160685073Y-73861062D01*
X160690939Y-73855621D01*
X160696229Y-73847375D01*
X160700974Y-73835390D01*
X160705202Y-73818731D01*
X160708943Y-73796463D01*
X160712227Y-73767652D01*
X160715083Y-73731363D01*
X160717540Y-73686661D01*
X160719629Y-73632611D01*
X160721378Y-73568279D01*
X160722817Y-73492730D01*
X160723976Y-73405030D01*
X160724883Y-73304243D01*
X160725569Y-73189434D01*
X160726063Y-73059670D01*
X160726395Y-72914015D01*
X160726593Y-72751535D01*
X160726687Y-72571295D01*
X160726708Y-72372360D01*
X160726685Y-72153796D01*
X160726646Y-71914668D01*
X160726622Y-71654040D01*
X160726622Y-71611889D01*
X160726636Y-71348992D01*
X160726661Y-71107732D01*
X160726671Y-70887165D01*
X160726642Y-70686352D01*
X160726548Y-70504349D01*
X160726362Y-70340216D01*
X160726059Y-70193011D01*
X160725614Y-70061792D01*
X160725034Y-69951867D01*
X160422197Y-69951867D01*
X160382407Y-70009711D01*
X160371236Y-70025479D01*
X160361166Y-70039441D01*
X160352138Y-70052784D01*
X160344097Y-70066693D01*
X160336986Y-70082356D01*
X160330747Y-70100958D01*
X160325325Y-70123686D01*
X160320662Y-70151727D01*
X160316701Y-70186267D01*
X160313385Y-70228492D01*
X160310659Y-70279589D01*
X160308464Y-70340744D01*
X160306745Y-70413144D01*
X160305444Y-70497975D01*
X160304505Y-70596422D01*
X160303870Y-70709674D01*
X160303484Y-70838916D01*
X160303288Y-70985334D01*
X160303227Y-71150116D01*
X160303243Y-71334447D01*
X160303280Y-71539513D01*
X160303289Y-71662133D01*
X160303265Y-71879082D01*
X160303231Y-72074642D01*
X160303243Y-72249999D01*
X160303358Y-72406341D01*
X160303630Y-72544857D01*
X160304118Y-72666734D01*
X160304876Y-72773160D01*
X160305962Y-72865322D01*
X160307431Y-72944409D01*
X160309340Y-73011608D01*
X160311744Y-73068107D01*
X160314701Y-73115093D01*
X160318266Y-73153755D01*
X160322495Y-73185280D01*
X160327446Y-73210855D01*
X160333173Y-73231670D01*
X160339733Y-73248911D01*
X160347183Y-73263765D01*
X160355579Y-73277422D01*
X160364976Y-73291069D01*
X160375432Y-73305893D01*
X160381523Y-73314783D01*
X160420296Y-73372400D01*
X159888732Y-73372400D01*
X159765483Y-73372365D01*
X159662987Y-73372215D01*
X159579420Y-73371878D01*
X159512956Y-73371286D01*
X159461771Y-73370367D01*
X159424041Y-73369051D01*
X159397940Y-73367269D01*
X159381644Y-73364951D01*
X159373328Y-73362026D01*
X159371168Y-73358424D01*
X159373339Y-73354075D01*
X159374535Y-73352645D01*
X159399685Y-73315573D01*
X159425583Y-73262772D01*
X159449192Y-73200770D01*
X159457461Y-73174357D01*
X159462078Y-73156416D01*
X159465979Y-73135355D01*
X159469248Y-73109089D01*
X159471966Y-73075532D01*
X159474215Y-73032599D01*
X159476077Y-72978204D01*
X159477636Y-72910262D01*
X159478972Y-72826688D01*
X159480169Y-72725395D01*
X159481308Y-72604300D01*
X159481685Y-72559600D01*
X159482702Y-72434449D01*
X159483460Y-72330082D01*
X159483903Y-72244707D01*
X159483970Y-72176533D01*
X159483605Y-72123765D01*
X159482748Y-72084614D01*
X159481341Y-72057285D01*
X159479325Y-72039986D01*
X159476643Y-72030926D01*
X159473236Y-72028312D01*
X159469044Y-72030351D01*
X159464571Y-72034667D01*
X159454216Y-72047602D01*
X159432158Y-72076676D01*
X159399957Y-72119759D01*
X159359174Y-72174718D01*
X159311370Y-72239423D01*
X159258105Y-72311742D01*
X159200940Y-72389544D01*
X159141437Y-72470698D01*
X159081155Y-72553072D01*
X159021655Y-72634536D01*
X158964498Y-72712957D01*
X158911245Y-72786204D01*
X158863457Y-72852147D01*
X158822693Y-72908654D01*
X158790516Y-72953593D01*
X158768485Y-72984834D01*
X158763917Y-72991466D01*
X158740996Y-73028369D01*
X158714188Y-73076359D01*
X158688789Y-73125897D01*
X158685568Y-73132577D01*
X158663890Y-73180772D01*
X158651304Y-73218334D01*
X158645574Y-73254160D01*
X158644456Y-73296200D01*
X158645090Y-73372400D01*
X157490651Y-73372400D01*
X157581815Y-73278669D01*
X157628612Y-73228775D01*
X157678899Y-73172295D01*
X157724944Y-73118026D01*
X157745369Y-73092673D01*
X157775807Y-73053128D01*
X157815862Y-72999916D01*
X157864361Y-72934667D01*
X157920135Y-72859011D01*
X157982011Y-72774577D01*
X158048819Y-72682994D01*
X158119387Y-72585892D01*
X158192545Y-72484901D01*
X158267121Y-72381650D01*
X158341944Y-72277768D01*
X158415843Y-72174885D01*
X158487646Y-72074631D01*
X158556184Y-71978636D01*
X158620284Y-71888527D01*
X158678775Y-71805936D01*
X158730486Y-71732492D01*
X158774247Y-71669824D01*
X158808885Y-71619561D01*
X158833230Y-71583334D01*
X158846111Y-71562771D01*
X158847869Y-71558668D01*
X158839910Y-71547342D01*
X158819115Y-71520162D01*
X158786847Y-71478829D01*
X158744470Y-71425044D01*
X158693347Y-71360506D01*
X158634841Y-71286918D01*
X158570314Y-71205978D01*
X158501131Y-71119388D01*
X158428653Y-71028848D01*
X158354246Y-70936060D01*
X158294517Y-70861702D01*
X157283511Y-70861702D01*
X157277602Y-70874659D01*
X157263272Y-70896908D01*
X157262225Y-70898391D01*
X157243438Y-70928544D01*
X157223791Y-70965375D01*
X157219892Y-70973511D01*
X157216356Y-70981940D01*
X157213230Y-70992059D01*
X157210486Y-71005260D01*
X157208092Y-71022938D01*
X157206019Y-71046484D01*
X157204235Y-71077293D01*
X157202712Y-71116757D01*
X157201419Y-71166269D01*
X157200326Y-71227223D01*
X157199403Y-71301011D01*
X157198619Y-71389028D01*
X157197945Y-71492665D01*
X157197350Y-71613316D01*
X157196805Y-71752374D01*
X157196279Y-71911232D01*
X157195745Y-72090089D01*
X157195206Y-72275207D01*
X157194772Y-72439145D01*
X157194509Y-72583303D01*
X157194484Y-72709079D01*
X157194765Y-72817871D01*
X157195419Y-72911077D01*
X157196514Y-72990097D01*
X157198118Y-73056328D01*
X157200297Y-73111170D01*
X157203119Y-73156021D01*
X157206651Y-73192278D01*
X157210961Y-73221341D01*
X157216117Y-73244609D01*
X157222185Y-73263479D01*
X157229233Y-73279351D01*
X157237329Y-73293622D01*
X157246540Y-73307691D01*
X157255040Y-73320158D01*
X157272176Y-73346452D01*
X157282322Y-73364037D01*
X157283511Y-73367257D01*
X157272604Y-73368334D01*
X157241411Y-73369335D01*
X157192223Y-73370235D01*
X157127333Y-73371010D01*
X157049030Y-73371637D01*
X156959607Y-73372091D01*
X156861356Y-73372349D01*
X156792445Y-73372400D01*
X156687452Y-73372180D01*
X156590610Y-73371548D01*
X156504107Y-73370549D01*
X156430132Y-73369227D01*
X156370874Y-73367626D01*
X156328520Y-73365791D01*
X156305260Y-73363765D01*
X156301378Y-73362493D01*
X156309076Y-73347591D01*
X156317074Y-73339560D01*
X156330246Y-73322434D01*
X156347485Y-73292183D01*
X156359407Y-73267622D01*
X156386045Y-73208711D01*
X156389120Y-72031845D01*
X156392195Y-70854978D01*
X156837853Y-70854978D01*
X156935670Y-70855142D01*
X157026064Y-70855611D01*
X157106630Y-70856347D01*
X157174962Y-70857316D01*
X157228656Y-70858480D01*
X157265305Y-70859803D01*
X157282504Y-70861249D01*
X157283511Y-70861702D01*
X158294517Y-70861702D01*
X158279270Y-70842722D01*
X158205090Y-70750537D01*
X158133069Y-70661204D01*
X158064569Y-70576424D01*
X158000955Y-70497898D01*
X157943588Y-70427326D01*
X157893833Y-70366409D01*
X157853052Y-70316847D01*
X157835888Y-70296178D01*
X157749596Y-70195516D01*
X157672997Y-70112259D01*
X157604183Y-70044438D01*
X157541248Y-69990089D01*
X157531867Y-69982722D01*
X157492356Y-69952117D01*
X158624116Y-69951867D01*
X158618827Y-69999844D01*
X158622130Y-70057188D01*
X158643661Y-70125463D01*
X158683635Y-70205212D01*
X158728943Y-70277495D01*
X158745161Y-70300140D01*
X158773214Y-70337696D01*
X158811430Y-70388021D01*
X158858137Y-70448973D01*
X158911661Y-70518411D01*
X158970331Y-70594194D01*
X159032475Y-70674180D01*
X159096421Y-70756228D01*
X159160495Y-70838196D01*
X159223027Y-70917943D01*
X159282343Y-70993327D01*
X159336771Y-71062207D01*
X159384639Y-71122442D01*
X159424275Y-71171889D01*
X159454006Y-71208408D01*
X159472161Y-71229858D01*
X159475220Y-71233156D01*
X159478079Y-71225149D01*
X159480293Y-71194855D01*
X159481857Y-71142556D01*
X159482767Y-71068531D01*
X159483020Y-70973063D01*
X159482613Y-70856434D01*
X159481704Y-70736445D01*
X159480382Y-70604333D01*
X159478857Y-70492594D01*
X159476881Y-70399025D01*
X159474206Y-70321419D01*
X159470582Y-70257574D01*
X159465761Y-70205283D01*
X159459494Y-70162344D01*
X159451532Y-70126551D01*
X159441627Y-70095700D01*
X159429531Y-70067586D01*
X159414993Y-70040005D01*
X159400311Y-70014966D01*
X159362314Y-69951867D01*
X160422197Y-69951867D01*
X160725034Y-69951867D01*
X160725001Y-69945617D01*
X160724195Y-69843544D01*
X160723170Y-69754633D01*
X160721900Y-69677941D01*
X160720360Y-69612527D01*
X160718524Y-69557449D01*
X160716367Y-69511765D01*
X160713863Y-69474534D01*
X160710987Y-69444813D01*
X160707713Y-69421662D01*
X160704015Y-69404139D01*
X160699869Y-69391301D01*
X160695247Y-69382208D01*
X160690126Y-69375918D01*
X160684478Y-69371488D01*
X160678279Y-69367978D01*
X160671504Y-69364445D01*
X160665508Y-69360876D01*
X160660275Y-69358300D01*
X160652099Y-69355972D01*
X160639886Y-69353878D01*
X160622541Y-69352007D01*
X160598969Y-69350347D01*
X160568077Y-69348884D01*
X160528768Y-69347608D01*
X160479950Y-69346504D01*
X160420527Y-69345561D01*
X160349404Y-69344767D01*
X160265488Y-69344109D01*
X160167683Y-69343575D01*
X160054894Y-69343153D01*
X159926029Y-69342829D01*
X159779991Y-69342592D01*
X159615686Y-69342430D01*
X159432020Y-69342330D01*
X159227897Y-69342280D01*
X159016753Y-69342267D01*
X157396400Y-69342267D01*
X157396400Y-69439054D01*
G36*
X143871090Y-69567348D02*
G01*
X143792546Y-69567778D01*
X143735702Y-69568942D01*
X143696895Y-69571207D01*
X143672462Y-69574940D01*
X143658738Y-69580506D01*
X143652060Y-69588273D01*
X143648764Y-69598605D01*
X143648444Y-69599943D01*
X143643438Y-69624079D01*
X143634171Y-69671701D01*
X143621608Y-69737741D01*
X143606713Y-69817128D01*
X143590449Y-69904796D01*
X143589881Y-69907875D01*
X143573590Y-69993789D01*
X143558348Y-70069696D01*
X143545139Y-70131045D01*
X143534946Y-70173282D01*
X143528752Y-70191855D01*
X143528457Y-70192184D01*
X143510212Y-70201253D01*
X143472595Y-70216367D01*
X143423729Y-70234262D01*
X143423457Y-70234358D01*
X143361907Y-70257493D01*
X143289343Y-70286965D01*
X143220943Y-70316597D01*
X143217706Y-70318062D01*
X143106298Y-70368626D01*
X142859601Y-70200160D01*
X142783923Y-70148803D01*
X142715369Y-70102889D01*
X142657912Y-70065030D01*
X142615524Y-70037837D01*
X142592175Y-70023921D01*
X142589958Y-70022889D01*
X142572990Y-70027484D01*
X142541299Y-70049655D01*
X142493648Y-70090447D01*
X142428802Y-70150905D01*
X142362603Y-70215227D01*
X142298786Y-70278612D01*
X142241671Y-70336451D01*
X142194695Y-70385175D01*
X142161297Y-70421210D01*
X142144915Y-70440984D01*
X142144306Y-70442002D01*
X142142495Y-70455572D01*
X142149317Y-70477733D01*
X142166460Y-70511478D01*
X142195607Y-70559800D01*
X142238445Y-70625692D01*
X142295552Y-70710517D01*
X142346234Y-70785177D01*
X142391539Y-70852140D01*
X142428850Y-70907516D01*
X142455548Y-70947420D01*
X142469015Y-70967962D01*
X142469863Y-70969356D01*
X142468219Y-70989038D01*
X142455755Y-71027293D01*
X142434952Y-71076889D01*
X142427538Y-71092728D01*
X142395186Y-71163290D01*
X142360672Y-71243353D01*
X142332635Y-71312629D01*
X142312432Y-71364045D01*
X142296385Y-71403119D01*
X142287112Y-71423541D01*
X142285959Y-71425114D01*
X142268904Y-71427721D01*
X142228702Y-71434863D01*
X142170698Y-71445523D01*
X142100237Y-71458685D01*
X142022665Y-71473333D01*
X141943328Y-71488449D01*
X141867569Y-71503018D01*
X141800736Y-71516022D01*
X141748172Y-71526445D01*
X141715224Y-71533270D01*
X141707143Y-71535199D01*
X141698795Y-71539962D01*
X141692494Y-71550718D01*
X141687955Y-71571098D01*
X141684896Y-71604734D01*
X141683033Y-71655255D01*
X141682082Y-71726292D01*
X141681760Y-71821476D01*
X141681743Y-71860492D01*
X141681743Y-72177799D01*
X141757943Y-72192839D01*
X141800337Y-72200995D01*
X141863600Y-72212899D01*
X141940038Y-72227116D01*
X142021957Y-72242210D01*
X142044600Y-72246355D01*
X142120194Y-72261053D01*
X142186047Y-72275505D01*
X142236634Y-72288375D01*
X142266426Y-72298322D01*
X142271388Y-72301287D01*
X142283574Y-72322283D01*
X142301047Y-72362967D01*
X142320423Y-72415322D01*
X142324266Y-72426600D01*
X142349661Y-72496523D01*
X142381183Y-72575418D01*
X142412031Y-72646266D01*
X142412183Y-72646595D01*
X142463553Y-72757733D01*
X142294601Y-73006253D01*
X142125648Y-73254772D01*
X142342571Y-73472058D01*
X142408181Y-73536726D01*
X142468021Y-73593733D01*
X142518733Y-73640033D01*
X142556954Y-73672584D01*
X142579325Y-73688343D01*
X142582534Y-73689343D01*
X142601374Y-73681469D01*
X142639820Y-73659578D01*
X142693670Y-73626267D01*
X142758724Y-73584131D01*
X142829060Y-73536943D01*
X142900445Y-73488810D01*
X142964092Y-73446928D01*
X143015959Y-73413871D01*
X143052005Y-73392218D01*
X143068133Y-73384543D01*
X143087811Y-73391037D01*
X143125125Y-73408150D01*
X143172379Y-73432326D01*
X143177388Y-73435013D01*
X143241023Y-73466927D01*
X143284659Y-73482579D01*
X143311798Y-73482745D01*
X143325943Y-73468204D01*
X143326025Y-73468000D01*
X143333095Y-73450779D01*
X143349958Y-73409899D01*
X143375305Y-73348525D01*
X143407829Y-73269819D01*
X143446222Y-73176947D01*
X143489178Y-73073072D01*
X143530778Y-72972502D01*
X143576496Y-72861516D01*
X143618474Y-72758703D01*
X143655452Y-72667215D01*
X143686173Y-72590201D01*
X143709378Y-72530815D01*
X143723810Y-72492209D01*
X143728257Y-72477800D01*
X143717104Y-72461272D01*
X143687931Y-72434930D01*
X143649029Y-72405887D01*
X143538243Y-72314039D01*
X143451649Y-72208759D01*
X143390284Y-72092266D01*
X143355185Y-71966776D01*
X143347392Y-71834507D01*
X143353057Y-71773457D01*
X143383922Y-71646795D01*
X143437080Y-71534941D01*
X143509233Y-71439001D01*
X143597083Y-71360076D01*
X143697335Y-71299270D01*
X143806690Y-71257687D01*
X143921853Y-71236428D01*
X144039525Y-71236599D01*
X144156410Y-71259301D01*
X144269211Y-71305638D01*
X144374631Y-71376713D01*
X144418632Y-71416911D01*
X144503021Y-71520129D01*
X144561778Y-71632925D01*
X144595296Y-71752010D01*
X144603965Y-71874095D01*
X144588177Y-71995893D01*
X144548322Y-72114116D01*
X144484793Y-72225475D01*
X144397979Y-72326684D01*
X144300971Y-72405887D01*
X144260563Y-72436162D01*
X144232018Y-72462219D01*
X144221743Y-72477825D01*
X144227123Y-72494843D01*
X144242425Y-72535500D01*
X144266388Y-72596642D01*
X144297756Y-72675119D01*
X144335268Y-72767780D01*
X144377667Y-72871472D01*
X144419337Y-72972526D01*
X144465310Y-73083607D01*
X144507893Y-73186541D01*
X144545779Y-73278165D01*
X144577660Y-73355316D01*
X144602229Y-73414831D01*
X144618180Y-73453544D01*
X144624090Y-73468000D01*
X144638052Y-73482685D01*
X144665060Y-73482642D01*
X144708587Y-73467099D01*
X144772110Y-73435284D01*
X144772612Y-73435013D01*
X144820440Y-73410323D01*
X144859103Y-73392338D01*
X144880905Y-73384614D01*
X144881867Y-73384543D01*
X144898279Y-73392378D01*
X144934513Y-73414165D01*
X144986526Y-73447328D01*
X145050275Y-73489291D01*
X145120940Y-73536943D01*
X145192884Y-73585191D01*
X145257726Y-73627151D01*
X145311265Y-73660227D01*
X145349303Y-73681821D01*
X145367467Y-73689343D01*
X145384192Y-73679457D01*
X145417820Y-73651826D01*
X145464990Y-73609495D01*
X145522342Y-73555505D01*
X145586516Y-73492899D01*
X145607503Y-73471983D01*
X145824501Y-73254623D01*
X145659332Y-73012220D01*
X145609136Y-72937781D01*
X145565081Y-72870972D01*
X145529638Y-72815665D01*
X145505281Y-72775729D01*
X145494478Y-72755036D01*
X145494162Y-72753563D01*
X145499857Y-72734058D01*
X145515174Y-72694822D01*
X145537463Y-72642430D01*
X145553107Y-72607355D01*
X145582359Y-72540201D01*
X145609906Y-72472358D01*
X145631263Y-72415034D01*
X145637065Y-72397572D01*
X145653548Y-72350938D01*
X145669660Y-72314905D01*
X145678510Y-72301287D01*
X145698040Y-72292952D01*
X145740666Y-72281137D01*
X145800855Y-72267181D01*
X145873078Y-72252422D01*
X145905400Y-72246355D01*
X145987478Y-72231273D01*
X146066205Y-72216669D01*
X146133891Y-72203980D01*
X146182840Y-72194642D01*
X146192057Y-72192839D01*
X146268257Y-72177799D01*
X146268257Y-71860492D01*
X146268086Y-71756154D01*
X146267384Y-71677213D01*
X146265866Y-71620038D01*
X146263251Y-71580999D01*
X146259254Y-71556465D01*
X146253591Y-71542805D01*
X146245980Y-71536389D01*
X146242857Y-71535199D01*
X146224022Y-71530980D01*
X146182412Y-71522562D01*
X146123370Y-71510961D01*
X146052243Y-71497195D01*
X145974375Y-71482280D01*
X145895113Y-71467232D01*
X145819802Y-71453069D01*
X145753787Y-71440806D01*
X145702413Y-71431461D01*
X145671025Y-71426050D01*
X145664041Y-71425114D01*
X145657715Y-71412596D01*
X145643710Y-71379246D01*
X145624645Y-71331377D01*
X145617366Y-71312629D01*
X145588004Y-71240195D01*
X145553429Y-71160170D01*
X145522463Y-71092728D01*
X145499677Y-71041159D01*
X145484518Y-70998785D01*
X145479458Y-70972834D01*
X145480264Y-70969356D01*
X145490959Y-70952936D01*
X145515380Y-70916417D01*
X145550905Y-70863687D01*
X145594913Y-70798635D01*
X145644783Y-70725151D01*
X145654644Y-70710645D01*
X145712508Y-70624704D01*
X145755044Y-70559261D01*
X145783946Y-70511304D01*
X145800910Y-70477820D01*
X145807633Y-70455795D01*
X145805810Y-70442217D01*
X145805764Y-70442131D01*
X145791414Y-70424297D01*
X145759677Y-70389817D01*
X145713990Y-70342268D01*
X145657796Y-70285222D01*
X145594532Y-70222255D01*
X145587398Y-70215227D01*
X145507670Y-70138020D01*
X145446143Y-70081330D01*
X145401579Y-70044110D01*
X145372743Y-70025315D01*
X145360042Y-70022889D01*
X145341506Y-70033471D01*
X145303039Y-70057916D01*
X145248614Y-70093612D01*
X145182202Y-70137947D01*
X145107775Y-70188311D01*
X145090399Y-70200160D01*
X144843703Y-70368626D01*
X144732294Y-70318062D01*
X144664543Y-70288595D01*
X144591817Y-70258959D01*
X144529297Y-70235330D01*
X144526543Y-70234358D01*
X144477640Y-70216457D01*
X144439943Y-70201320D01*
X144421575Y-70192210D01*
X144421544Y-70192184D01*
X144415715Y-70175717D01*
X144405808Y-70135219D01*
X144392805Y-70075242D01*
X144377691Y-70000340D01*
X144361448Y-69915064D01*
X144360119Y-69907875D01*
X144343825Y-69820014D01*
X144328867Y-69740260D01*
X144316209Y-69673681D01*
X144306814Y-69625347D01*
X144301646Y-69600325D01*
X144301556Y-69599943D01*
X144298411Y-69589299D01*
X144292296Y-69581262D01*
X144279547Y-69575467D01*
X144256500Y-69571547D01*
X144219491Y-69569135D01*
X144164856Y-69567865D01*
X144088933Y-69567371D01*
X143988056Y-69567286D01*
X143975000Y-69567286D01*
X143871090Y-69567348D01*
G37*
X143871090Y-69567348D02*
X143792546Y-69567778D01*
X143735702Y-69568942D01*
X143696895Y-69571207D01*
X143672462Y-69574940D01*
X143658738Y-69580506D01*
X143652060Y-69588273D01*
X143648764Y-69598605D01*
X143648444Y-69599943D01*
X143643438Y-69624079D01*
X143634171Y-69671701D01*
X143621608Y-69737741D01*
X143606713Y-69817128D01*
X143590449Y-69904796D01*
X143589881Y-69907875D01*
X143573590Y-69993789D01*
X143558348Y-70069696D01*
X143545139Y-70131045D01*
X143534946Y-70173282D01*
X143528752Y-70191855D01*
X143528457Y-70192184D01*
X143510212Y-70201253D01*
X143472595Y-70216367D01*
X143423729Y-70234262D01*
X143423457Y-70234358D01*
X143361907Y-70257493D01*
X143289343Y-70286965D01*
X143220943Y-70316597D01*
X143217706Y-70318062D01*
X143106298Y-70368626D01*
X142859601Y-70200160D01*
X142783923Y-70148803D01*
X142715369Y-70102889D01*
X142657912Y-70065030D01*
X142615524Y-70037837D01*
X142592175Y-70023921D01*
X142589958Y-70022889D01*
X142572990Y-70027484D01*
X142541299Y-70049655D01*
X142493648Y-70090447D01*
X142428802Y-70150905D01*
X142362603Y-70215227D01*
X142298786Y-70278612D01*
X142241671Y-70336451D01*
X142194695Y-70385175D01*
X142161297Y-70421210D01*
X142144915Y-70440984D01*
X142144306Y-70442002D01*
X142142495Y-70455572D01*
X142149317Y-70477733D01*
X142166460Y-70511478D01*
X142195607Y-70559800D01*
X142238445Y-70625692D01*
X142295552Y-70710517D01*
X142346234Y-70785177D01*
X142391539Y-70852140D01*
X142428850Y-70907516D01*
X142455548Y-70947420D01*
X142469015Y-70967962D01*
X142469863Y-70969356D01*
X142468219Y-70989038D01*
X142455755Y-71027293D01*
X142434952Y-71076889D01*
X142427538Y-71092728D01*
X142395186Y-71163290D01*
X142360672Y-71243353D01*
X142332635Y-71312629D01*
X142312432Y-71364045D01*
X142296385Y-71403119D01*
X142287112Y-71423541D01*
X142285959Y-71425114D01*
X142268904Y-71427721D01*
X142228702Y-71434863D01*
X142170698Y-71445523D01*
X142100237Y-71458685D01*
X142022665Y-71473333D01*
X141943328Y-71488449D01*
X141867569Y-71503018D01*
X141800736Y-71516022D01*
X141748172Y-71526445D01*
X141715224Y-71533270D01*
X141707143Y-71535199D01*
X141698795Y-71539962D01*
X141692494Y-71550718D01*
X141687955Y-71571098D01*
X141684896Y-71604734D01*
X141683033Y-71655255D01*
X141682082Y-71726292D01*
X141681760Y-71821476D01*
X141681743Y-71860492D01*
X141681743Y-72177799D01*
X141757943Y-72192839D01*
X141800337Y-72200995D01*
X141863600Y-72212899D01*
X141940038Y-72227116D01*
X142021957Y-72242210D01*
X142044600Y-72246355D01*
X142120194Y-72261053D01*
X142186047Y-72275505D01*
X142236634Y-72288375D01*
X142266426Y-72298322D01*
X142271388Y-72301287D01*
X142283574Y-72322283D01*
X142301047Y-72362967D01*
X142320423Y-72415322D01*
X142324266Y-72426600D01*
X142349661Y-72496523D01*
X142381183Y-72575418D01*
X142412031Y-72646266D01*
X142412183Y-72646595D01*
X142463553Y-72757733D01*
X142294601Y-73006253D01*
X142125648Y-73254772D01*
X142342571Y-73472058D01*
X142408181Y-73536726D01*
X142468021Y-73593733D01*
X142518733Y-73640033D01*
X142556954Y-73672584D01*
X142579325Y-73688343D01*
X142582534Y-73689343D01*
X142601374Y-73681469D01*
X142639820Y-73659578D01*
X142693670Y-73626267D01*
X142758724Y-73584131D01*
X142829060Y-73536943D01*
X142900445Y-73488810D01*
X142964092Y-73446928D01*
X143015959Y-73413871D01*
X143052005Y-73392218D01*
X143068133Y-73384543D01*
X143087811Y-73391037D01*
X143125125Y-73408150D01*
X143172379Y-73432326D01*
X143177388Y-73435013D01*
X143241023Y-73466927D01*
X143284659Y-73482579D01*
X143311798Y-73482745D01*
X143325943Y-73468204D01*
X143326025Y-73468000D01*
X143333095Y-73450779D01*
X143349958Y-73409899D01*
X143375305Y-73348525D01*
X143407829Y-73269819D01*
X143446222Y-73176947D01*
X143489178Y-73073072D01*
X143530778Y-72972502D01*
X143576496Y-72861516D01*
X143618474Y-72758703D01*
X143655452Y-72667215D01*
X143686173Y-72590201D01*
X143709378Y-72530815D01*
X143723810Y-72492209D01*
X143728257Y-72477800D01*
X143717104Y-72461272D01*
X143687931Y-72434930D01*
X143649029Y-72405887D01*
X143538243Y-72314039D01*
X143451649Y-72208759D01*
X143390284Y-72092266D01*
X143355185Y-71966776D01*
X143347392Y-71834507D01*
X143353057Y-71773457D01*
X143383922Y-71646795D01*
X143437080Y-71534941D01*
X143509233Y-71439001D01*
X143597083Y-71360076D01*
X143697335Y-71299270D01*
X143806690Y-71257687D01*
X143921853Y-71236428D01*
X144039525Y-71236599D01*
X144156410Y-71259301D01*
X144269211Y-71305638D01*
X144374631Y-71376713D01*
X144418632Y-71416911D01*
X144503021Y-71520129D01*
X144561778Y-71632925D01*
X144595296Y-71752010D01*
X144603965Y-71874095D01*
X144588177Y-71995893D01*
X144548322Y-72114116D01*
X144484793Y-72225475D01*
X144397979Y-72326684D01*
X144300971Y-72405887D01*
X144260563Y-72436162D01*
X144232018Y-72462219D01*
X144221743Y-72477825D01*
X144227123Y-72494843D01*
X144242425Y-72535500D01*
X144266388Y-72596642D01*
X144297756Y-72675119D01*
X144335268Y-72767780D01*
X144377667Y-72871472D01*
X144419337Y-72972526D01*
X144465310Y-73083607D01*
X144507893Y-73186541D01*
X144545779Y-73278165D01*
X144577660Y-73355316D01*
X144602229Y-73414831D01*
X144618180Y-73453544D01*
X144624090Y-73468000D01*
X144638052Y-73482685D01*
X144665060Y-73482642D01*
X144708587Y-73467099D01*
X144772110Y-73435284D01*
X144772612Y-73435013D01*
X144820440Y-73410323D01*
X144859103Y-73392338D01*
X144880905Y-73384614D01*
X144881867Y-73384543D01*
X144898279Y-73392378D01*
X144934513Y-73414165D01*
X144986526Y-73447328D01*
X145050275Y-73489291D01*
X145120940Y-73536943D01*
X145192884Y-73585191D01*
X145257726Y-73627151D01*
X145311265Y-73660227D01*
X145349303Y-73681821D01*
X145367467Y-73689343D01*
X145384192Y-73679457D01*
X145417820Y-73651826D01*
X145464990Y-73609495D01*
X145522342Y-73555505D01*
X145586516Y-73492899D01*
X145607503Y-73471983D01*
X145824501Y-73254623D01*
X145659332Y-73012220D01*
X145609136Y-72937781D01*
X145565081Y-72870972D01*
X145529638Y-72815665D01*
X145505281Y-72775729D01*
X145494478Y-72755036D01*
X145494162Y-72753563D01*
X145499857Y-72734058D01*
X145515174Y-72694822D01*
X145537463Y-72642430D01*
X145553107Y-72607355D01*
X145582359Y-72540201D01*
X145609906Y-72472358D01*
X145631263Y-72415034D01*
X145637065Y-72397572D01*
X145653548Y-72350938D01*
X145669660Y-72314905D01*
X145678510Y-72301287D01*
X145698040Y-72292952D01*
X145740666Y-72281137D01*
X145800855Y-72267181D01*
X145873078Y-72252422D01*
X145905400Y-72246355D01*
X145987478Y-72231273D01*
X146066205Y-72216669D01*
X146133891Y-72203980D01*
X146182840Y-72194642D01*
X146192057Y-72192839D01*
X146268257Y-72177799D01*
X146268257Y-71860492D01*
X146268086Y-71756154D01*
X146267384Y-71677213D01*
X146265866Y-71620038D01*
X146263251Y-71580999D01*
X146259254Y-71556465D01*
X146253591Y-71542805D01*
X146245980Y-71536389D01*
X146242857Y-71535199D01*
X146224022Y-71530980D01*
X146182412Y-71522562D01*
X146123370Y-71510961D01*
X146052243Y-71497195D01*
X145974375Y-71482280D01*
X145895113Y-71467232D01*
X145819802Y-71453069D01*
X145753787Y-71440806D01*
X145702413Y-71431461D01*
X145671025Y-71426050D01*
X145664041Y-71425114D01*
X145657715Y-71412596D01*
X145643710Y-71379246D01*
X145624645Y-71331377D01*
X145617366Y-71312629D01*
X145588004Y-71240195D01*
X145553429Y-71160170D01*
X145522463Y-71092728D01*
X145499677Y-71041159D01*
X145484518Y-70998785D01*
X145479458Y-70972834D01*
X145480264Y-70969356D01*
X145490959Y-70952936D01*
X145515380Y-70916417D01*
X145550905Y-70863687D01*
X145594913Y-70798635D01*
X145644783Y-70725151D01*
X145654644Y-70710645D01*
X145712508Y-70624704D01*
X145755044Y-70559261D01*
X145783946Y-70511304D01*
X145800910Y-70477820D01*
X145807633Y-70455795D01*
X145805810Y-70442217D01*
X145805764Y-70442131D01*
X145791414Y-70424297D01*
X145759677Y-70389817D01*
X145713990Y-70342268D01*
X145657796Y-70285222D01*
X145594532Y-70222255D01*
X145587398Y-70215227D01*
X145507670Y-70138020D01*
X145446143Y-70081330D01*
X145401579Y-70044110D01*
X145372743Y-70025315D01*
X145360042Y-70022889D01*
X145341506Y-70033471D01*
X145303039Y-70057916D01*
X145248614Y-70093612D01*
X145182202Y-70137947D01*
X145107775Y-70188311D01*
X145090399Y-70200160D01*
X144843703Y-70368626D01*
X144732294Y-70318062D01*
X144664543Y-70288595D01*
X144591817Y-70258959D01*
X144529297Y-70235330D01*
X144526543Y-70234358D01*
X144477640Y-70216457D01*
X144439943Y-70201320D01*
X144421575Y-70192210D01*
X144421544Y-70192184D01*
X144415715Y-70175717D01*
X144405808Y-70135219D01*
X144392805Y-70075242D01*
X144377691Y-70000340D01*
X144361448Y-69915064D01*
X144360119Y-69907875D01*
X144343825Y-69820014D01*
X144328867Y-69740260D01*
X144316209Y-69673681D01*
X144306814Y-69625347D01*
X144301646Y-69600325D01*
X144301556Y-69599943D01*
X144298411Y-69589299D01*
X144292296Y-69581262D01*
X144279547Y-69575467D01*
X144256500Y-69571547D01*
X144219491Y-69569135D01*
X144164856Y-69567865D01*
X144088933Y-69567371D01*
X143988056Y-69567286D01*
X143975000Y-69567286D01*
X143871090Y-69567348D01*
G36*
X140821405Y-74291966D02*
G01*
X140763979Y-74329497D01*
X140736281Y-74363096D01*
X140714338Y-74424064D01*
X140712595Y-74472308D01*
X140716543Y-74536816D01*
X140865314Y-74601934D01*
X140937651Y-74635202D01*
X140984916Y-74661964D01*
X141009493Y-74685144D01*
X141013763Y-74707667D01*
X141000111Y-74732455D01*
X140985057Y-74748886D01*
X140941254Y-74775235D01*
X140893611Y-74777081D01*
X140849855Y-74756546D01*
X140817711Y-74715752D01*
X140811962Y-74701347D01*
X140784424Y-74656356D01*
X140752742Y-74637182D01*
X140709286Y-74620779D01*
X140709286Y-74682966D01*
X140713128Y-74725283D01*
X140728177Y-74760969D01*
X140759720Y-74801943D01*
X140764408Y-74807267D01*
X140799494Y-74843720D01*
X140829653Y-74863283D01*
X140867385Y-74872283D01*
X140898665Y-74875230D01*
X140954615Y-74875965D01*
X140994445Y-74866660D01*
X141019292Y-74852846D01*
X141058344Y-74822467D01*
X141085375Y-74789613D01*
X141102483Y-74748294D01*
X141111762Y-74692521D01*
X141115307Y-74616305D01*
X141115590Y-74577622D01*
X141114628Y-74531247D01*
X141026993Y-74531247D01*
X141025977Y-74556126D01*
X141023444Y-74560200D01*
X141006726Y-74554665D01*
X140970751Y-74540017D01*
X140922669Y-74519190D01*
X140912614Y-74514714D01*
X140851848Y-74483814D01*
X140818368Y-74456657D01*
X140811010Y-74431220D01*
X140828609Y-74405481D01*
X140843144Y-74394109D01*
X140895590Y-74371364D01*
X140944678Y-74375122D01*
X140985773Y-74402884D01*
X141014242Y-74452152D01*
X141023369Y-74491257D01*
X141026993Y-74531247D01*
X141114628Y-74531247D01*
X141113715Y-74487249D01*
X141106804Y-74420384D01*
X141093116Y-74371695D01*
X141070904Y-74335849D01*
X141038426Y-74307513D01*
X141024267Y-74298355D01*
X140959947Y-74274507D01*
X140889527Y-74273006D01*
X140821405Y-74291966D01*
G37*
X140821405Y-74291966D02*
X140763979Y-74329497D01*
X140736281Y-74363096D01*
X140714338Y-74424064D01*
X140712595Y-74472308D01*
X140716543Y-74536816D01*
X140865314Y-74601934D01*
X140937651Y-74635202D01*
X140984916Y-74661964D01*
X141009493Y-74685144D01*
X141013763Y-74707667D01*
X141000111Y-74732455D01*
X140985057Y-74748886D01*
X140941254Y-74775235D01*
X140893611Y-74777081D01*
X140849855Y-74756546D01*
X140817711Y-74715752D01*
X140811962Y-74701347D01*
X140784424Y-74656356D01*
X140752742Y-74637182D01*
X140709286Y-74620779D01*
X140709286Y-74682966D01*
X140713128Y-74725283D01*
X140728177Y-74760969D01*
X140759720Y-74801943D01*
X140764408Y-74807267D01*
X140799494Y-74843720D01*
X140829653Y-74863283D01*
X140867385Y-74872283D01*
X140898665Y-74875230D01*
X140954615Y-74875965D01*
X140994445Y-74866660D01*
X141019292Y-74852846D01*
X141058344Y-74822467D01*
X141085375Y-74789613D01*
X141102483Y-74748294D01*
X141111762Y-74692521D01*
X141115307Y-74616305D01*
X141115590Y-74577622D01*
X141114628Y-74531247D01*
X141026993Y-74531247D01*
X141025977Y-74556126D01*
X141023444Y-74560200D01*
X141006726Y-74554665D01*
X140970751Y-74540017D01*
X140922669Y-74519190D01*
X140912614Y-74514714D01*
X140851848Y-74483814D01*
X140818368Y-74456657D01*
X140811010Y-74431220D01*
X140828609Y-74405481D01*
X140843144Y-74394109D01*
X140895590Y-74371364D01*
X140944678Y-74375122D01*
X140985773Y-74402884D01*
X141014242Y-74452152D01*
X141023369Y-74491257D01*
X141026993Y-74531247D01*
X141114628Y-74531247D01*
X141113715Y-74487249D01*
X141106804Y-74420384D01*
X141093116Y-74371695D01*
X141070904Y-74335849D01*
X141038426Y-74307513D01*
X141024267Y-74298355D01*
X140959947Y-74274507D01*
X140889527Y-74273006D01*
X140821405Y-74291966D01*
G36*
X141322400Y-74283752D02*
G01*
X141305052Y-74291334D01*
X141263644Y-74324128D01*
X141228235Y-74371547D01*
X141206336Y-74422151D01*
X141202771Y-74447098D01*
X141214721Y-74481927D01*
X141240933Y-74500357D01*
X141269036Y-74511516D01*
X141281905Y-74513572D01*
X141288171Y-74498649D01*
X141300544Y-74466175D01*
X141305972Y-74451502D01*
X141336410Y-74400744D01*
X141380480Y-74375427D01*
X141436990Y-74376206D01*
X141441175Y-74377203D01*
X141471345Y-74391507D01*
X141493524Y-74419393D01*
X141508673Y-74464287D01*
X141517750Y-74529615D01*
X141521714Y-74618804D01*
X141522086Y-74666261D01*
X141522270Y-74741071D01*
X141523478Y-74792069D01*
X141526691Y-74824471D01*
X141532891Y-74843495D01*
X141543060Y-74854356D01*
X141558181Y-74862272D01*
X141559054Y-74862670D01*
X141588172Y-74874981D01*
X141602597Y-74879514D01*
X141604814Y-74865809D01*
X141606711Y-74827925D01*
X141608153Y-74770715D01*
X141609002Y-74699027D01*
X141609171Y-74646565D01*
X141608308Y-74545047D01*
X141604930Y-74468032D01*
X141597858Y-74411023D01*
X141585912Y-74369526D01*
X141567910Y-74339043D01*
X141542673Y-74315080D01*
X141517753Y-74298355D01*
X141457829Y-74276097D01*
X141388089Y-74271076D01*
X141322400Y-74283752D01*
G37*
X141322400Y-74283752D02*
X141305052Y-74291334D01*
X141263644Y-74324128D01*
X141228235Y-74371547D01*
X141206336Y-74422151D01*
X141202771Y-74447098D01*
X141214721Y-74481927D01*
X141240933Y-74500357D01*
X141269036Y-74511516D01*
X141281905Y-74513572D01*
X141288171Y-74498649D01*
X141300544Y-74466175D01*
X141305972Y-74451502D01*
X141336410Y-74400744D01*
X141380480Y-74375427D01*
X141436990Y-74376206D01*
X141441175Y-74377203D01*
X141471345Y-74391507D01*
X141493524Y-74419393D01*
X141508673Y-74464287D01*
X141517750Y-74529615D01*
X141521714Y-74618804D01*
X141522086Y-74666261D01*
X141522270Y-74741071D01*
X141523478Y-74792069D01*
X141526691Y-74824471D01*
X141532891Y-74843495D01*
X141543060Y-74854356D01*
X141558181Y-74862272D01*
X141559054Y-74862670D01*
X141588172Y-74874981D01*
X141602597Y-74879514D01*
X141604814Y-74865809D01*
X141606711Y-74827925D01*
X141608153Y-74770715D01*
X141609002Y-74699027D01*
X141609171Y-74646565D01*
X141608308Y-74545047D01*
X141604930Y-74468032D01*
X141597858Y-74411023D01*
X141585912Y-74369526D01*
X141567910Y-74339043D01*
X141542673Y-74315080D01*
X141517753Y-74298355D01*
X141457829Y-74276097D01*
X141388089Y-74271076D01*
X141322400Y-74283752D01*
G36*
X141830124Y-74281335D02*
G01*
X141788333Y-74300344D01*
X141755531Y-74323378D01*
X141731497Y-74349133D01*
X141714903Y-74382358D01*
X141704423Y-74427800D01*
X141698729Y-74490207D01*
X141696493Y-74574327D01*
X141696257Y-74629721D01*
X141696257Y-74845826D01*
X141733226Y-74862670D01*
X141762344Y-74874981D01*
X141776769Y-74879514D01*
X141779528Y-74866025D01*
X141781718Y-74829653D01*
X141783058Y-74776542D01*
X141783343Y-74734372D01*
X141784566Y-74673447D01*
X141787864Y-74625115D01*
X141792679Y-74595518D01*
X141796504Y-74589229D01*
X141822217Y-74595652D01*
X141862582Y-74612125D01*
X141909321Y-74634458D01*
X141954155Y-74658457D01*
X141988807Y-74679930D01*
X142004998Y-74694685D01*
X142005062Y-74694845D01*
X142003670Y-74722152D01*
X141991182Y-74748219D01*
X141969257Y-74769392D01*
X141937257Y-74776474D01*
X141909908Y-74775649D01*
X141871174Y-74775042D01*
X141850842Y-74784116D01*
X141838631Y-74808092D01*
X141837091Y-74812613D01*
X141831797Y-74846806D01*
X141845953Y-74867568D01*
X141882852Y-74877462D01*
X141922711Y-74879292D01*
X141994438Y-74865727D01*
X142031568Y-74846355D01*
X142077424Y-74800845D01*
X142101744Y-74744983D01*
X142103927Y-74685957D01*
X142083371Y-74630953D01*
X142052451Y-74596486D01*
X142021580Y-74577189D01*
X141973058Y-74552759D01*
X141916515Y-74527985D01*
X141907090Y-74524199D01*
X141844981Y-74496791D01*
X141809178Y-74472634D01*
X141797663Y-74448619D01*
X141808420Y-74421635D01*
X141826886Y-74400543D01*
X141870531Y-74374572D01*
X141918554Y-74372624D01*
X141962594Y-74392637D01*
X141994291Y-74432551D01*
X141998451Y-74442848D01*
X142022673Y-74480724D01*
X142058035Y-74508842D01*
X142102657Y-74531917D01*
X142102657Y-74466485D01*
X142100031Y-74426506D01*
X142088770Y-74394997D01*
X142063801Y-74361378D01*
X142039831Y-74335484D01*
X142002559Y-74298817D01*
X141973599Y-74279121D01*
X141942495Y-74271220D01*
X141907287Y-74269914D01*
X141830124Y-74281335D01*
G37*
X141830124Y-74281335D02*
X141788333Y-74300344D01*
X141755531Y-74323378D01*
X141731497Y-74349133D01*
X141714903Y-74382358D01*
X141704423Y-74427800D01*
X141698729Y-74490207D01*
X141696493Y-74574327D01*
X141696257Y-74629721D01*
X141696257Y-74845826D01*
X141733226Y-74862670D01*
X141762344Y-74874981D01*
X141776769Y-74879514D01*
X141779528Y-74866025D01*
X141781718Y-74829653D01*
X141783058Y-74776542D01*
X141783343Y-74734372D01*
X141784566Y-74673447D01*
X141787864Y-74625115D01*
X141792679Y-74595518D01*
X141796504Y-74589229D01*
X141822217Y-74595652D01*
X141862582Y-74612125D01*
X141909321Y-74634458D01*
X141954155Y-74658457D01*
X141988807Y-74679930D01*
X142004998Y-74694685D01*
X142005062Y-74694845D01*
X142003670Y-74722152D01*
X141991182Y-74748219D01*
X141969257Y-74769392D01*
X141937257Y-74776474D01*
X141909908Y-74775649D01*
X141871174Y-74775042D01*
X141850842Y-74784116D01*
X141838631Y-74808092D01*
X141837091Y-74812613D01*
X141831797Y-74846806D01*
X141845953Y-74867568D01*
X141882852Y-74877462D01*
X141922711Y-74879292D01*
X141994438Y-74865727D01*
X142031568Y-74846355D01*
X142077424Y-74800845D01*
X142101744Y-74744983D01*
X142103927Y-74685957D01*
X142083371Y-74630953D01*
X142052451Y-74596486D01*
X142021580Y-74577189D01*
X141973058Y-74552759D01*
X141916515Y-74527985D01*
X141907090Y-74524199D01*
X141844981Y-74496791D01*
X141809178Y-74472634D01*
X141797663Y-74448619D01*
X141808420Y-74421635D01*
X141826886Y-74400543D01*
X141870531Y-74374572D01*
X141918554Y-74372624D01*
X141962594Y-74392637D01*
X141994291Y-74432551D01*
X141998451Y-74442848D01*
X142022673Y-74480724D01*
X142058035Y-74508842D01*
X142102657Y-74531917D01*
X142102657Y-74466485D01*
X142100031Y-74426506D01*
X142088770Y-74394997D01*
X142063801Y-74361378D01*
X142039831Y-74335484D01*
X142002559Y-74298817D01*
X141973599Y-74279121D01*
X141942495Y-74271220D01*
X141907287Y-74269914D01*
X141830124Y-74281335D01*
G36*
X142195167Y-74283663D02*
G01*
X142192952Y-74321850D01*
X142191216Y-74379886D01*
X142190101Y-74453180D01*
X142189743Y-74530055D01*
X142189743Y-74790196D01*
X142235674Y-74836127D01*
X142267325Y-74864429D01*
X142295110Y-74875893D01*
X142333085Y-74875168D01*
X142348160Y-74873321D01*
X142395274Y-74867948D01*
X142434244Y-74864869D01*
X142443743Y-74864585D01*
X142475767Y-74866445D01*
X142521568Y-74871114D01*
X142539326Y-74873321D01*
X142582943Y-74876735D01*
X142612255Y-74869320D01*
X142641320Y-74846427D01*
X142651812Y-74836127D01*
X142697743Y-74790196D01*
X142697743Y-74303602D01*
X142660774Y-74286758D01*
X142628941Y-74274282D01*
X142610317Y-74269914D01*
X142605542Y-74283718D01*
X142601079Y-74322286D01*
X142597225Y-74381356D01*
X142594278Y-74456663D01*
X142592857Y-74520286D01*
X142588886Y-74770657D01*
X142554241Y-74775556D01*
X142522732Y-74772131D01*
X142507292Y-74761041D01*
X142502977Y-74740308D01*
X142499292Y-74696145D01*
X142496531Y-74634146D01*
X142494988Y-74559909D01*
X142494765Y-74521706D01*
X142494543Y-74301783D01*
X142448834Y-74285849D01*
X142416482Y-74275015D01*
X142398885Y-74269962D01*
X142398377Y-74269914D01*
X142396612Y-74283648D01*
X142394671Y-74321730D01*
X142392718Y-74379482D01*
X142390916Y-74452227D01*
X142389657Y-74520286D01*
X142385686Y-74770657D01*
X142298600Y-74770657D01*
X142294604Y-74542240D01*
X142290608Y-74313822D01*
X142248153Y-74291868D01*
X142216808Y-74276793D01*
X142198256Y-74269951D01*
X142197721Y-74269914D01*
X142195167Y-74283663D01*
G37*
X142195167Y-74283663D02*
X142192952Y-74321850D01*
X142191216Y-74379886D01*
X142190101Y-74453180D01*
X142189743Y-74530055D01*
X142189743Y-74790196D01*
X142235674Y-74836127D01*
X142267325Y-74864429D01*
X142295110Y-74875893D01*
X142333085Y-74875168D01*
X142348160Y-74873321D01*
X142395274Y-74867948D01*
X142434244Y-74864869D01*
X142443743Y-74864585D01*
X142475767Y-74866445D01*
X142521568Y-74871114D01*
X142539326Y-74873321D01*
X142582943Y-74876735D01*
X142612255Y-74869320D01*
X142641320Y-74846427D01*
X142651812Y-74836127D01*
X142697743Y-74790196D01*
X142697743Y-74303602D01*
X142660774Y-74286758D01*
X142628941Y-74274282D01*
X142610317Y-74269914D01*
X142605542Y-74283718D01*
X142601079Y-74322286D01*
X142597225Y-74381356D01*
X142594278Y-74456663D01*
X142592857Y-74520286D01*
X142588886Y-74770657D01*
X142554241Y-74775556D01*
X142522732Y-74772131D01*
X142507292Y-74761041D01*
X142502977Y-74740308D01*
X142499292Y-74696145D01*
X142496531Y-74634146D01*
X142494988Y-74559909D01*
X142494765Y-74521706D01*
X142494543Y-74301783D01*
X142448834Y-74285849D01*
X142416482Y-74275015D01*
X142398885Y-74269962D01*
X142398377Y-74269914D01*
X142396612Y-74283648D01*
X142394671Y-74321730D01*
X142392718Y-74379482D01*
X142390916Y-74452227D01*
X142389657Y-74520286D01*
X142385686Y-74770657D01*
X142298600Y-74770657D01*
X142294604Y-74542240D01*
X142290608Y-74313822D01*
X142248153Y-74291868D01*
X142216808Y-74276793D01*
X142198256Y-74269951D01*
X142197721Y-74269914D01*
X142195167Y-74283663D01*
G36*
X142784883Y-74390358D02*
G01*
X142785067Y-74498837D01*
X142785781Y-74582287D01*
X142787325Y-74644704D01*
X142789999Y-74690085D01*
X142794106Y-74722429D01*
X142799945Y-74745733D01*
X142807818Y-74763995D01*
X142813779Y-74774418D01*
X142863145Y-74830945D01*
X142925736Y-74866377D01*
X142994987Y-74879090D01*
X143064332Y-74867463D01*
X143105625Y-74846568D01*
X143148975Y-74810422D01*
X143178519Y-74766276D01*
X143196345Y-74708462D01*
X143204537Y-74631313D01*
X143205698Y-74574714D01*
X143205542Y-74570647D01*
X143104143Y-74570647D01*
X143103524Y-74635550D01*
X143100686Y-74678514D01*
X143094160Y-74706622D01*
X143082477Y-74726953D01*
X143068517Y-74742288D01*
X143021635Y-74771890D01*
X142971299Y-74774419D01*
X142923724Y-74749705D01*
X142920021Y-74746356D01*
X142904217Y-74728935D01*
X142894307Y-74708209D01*
X142888942Y-74677362D01*
X142886772Y-74629577D01*
X142886429Y-74576748D01*
X142887173Y-74510381D01*
X142890252Y-74466106D01*
X142896939Y-74437009D01*
X142908504Y-74416173D01*
X142917987Y-74405107D01*
X142962040Y-74377198D01*
X143012776Y-74373843D01*
X143061204Y-74395159D01*
X143070550Y-74403073D01*
X143086460Y-74420647D01*
X143096390Y-74441587D01*
X143101722Y-74472782D01*
X143103837Y-74521122D01*
X143104143Y-74570647D01*
X143205542Y-74570647D01*
X143202190Y-74483568D01*
X143190274Y-74415086D01*
X143167865Y-74363600D01*
X143132876Y-74323443D01*
X143105625Y-74302861D01*
X143056093Y-74280625D01*
X142998684Y-74270304D01*
X142945318Y-74273067D01*
X142915457Y-74284212D01*
X142903739Y-74287383D01*
X142895963Y-74275557D01*
X142890535Y-74243866D01*
X142886429Y-74195593D01*
X142881933Y-74141829D01*
X142875687Y-74109482D01*
X142864324Y-74090985D01*
X142844472Y-74078770D01*
X142832000Y-74073362D01*
X142784829Y-74053601D01*
X142784883Y-74390358D01*
G37*
X142784883Y-74390358D02*
X142785067Y-74498837D01*
X142785781Y-74582287D01*
X142787325Y-74644704D01*
X142789999Y-74690085D01*
X142794106Y-74722429D01*
X142799945Y-74745733D01*
X142807818Y-74763995D01*
X142813779Y-74774418D01*
X142863145Y-74830945D01*
X142925736Y-74866377D01*
X142994987Y-74879090D01*
X143064332Y-74867463D01*
X143105625Y-74846568D01*
X143148975Y-74810422D01*
X143178519Y-74766276D01*
X143196345Y-74708462D01*
X143204537Y-74631313D01*
X143205698Y-74574714D01*
X143205542Y-74570647D01*
X143104143Y-74570647D01*
X143103524Y-74635550D01*
X143100686Y-74678514D01*
X143094160Y-74706622D01*
X143082477Y-74726953D01*
X143068517Y-74742288D01*
X143021635Y-74771890D01*
X142971299Y-74774419D01*
X142923724Y-74749705D01*
X142920021Y-74746356D01*
X142904217Y-74728935D01*
X142894307Y-74708209D01*
X142888942Y-74677362D01*
X142886772Y-74629577D01*
X142886429Y-74576748D01*
X142887173Y-74510381D01*
X142890252Y-74466106D01*
X142896939Y-74437009D01*
X142908504Y-74416173D01*
X142917987Y-74405107D01*
X142962040Y-74377198D01*
X143012776Y-74373843D01*
X143061204Y-74395159D01*
X143070550Y-74403073D01*
X143086460Y-74420647D01*
X143096390Y-74441587D01*
X143101722Y-74472782D01*
X143103837Y-74521122D01*
X143104143Y-74570647D01*
X143205542Y-74570647D01*
X143202190Y-74483568D01*
X143190274Y-74415086D01*
X143167865Y-74363600D01*
X143132876Y-74323443D01*
X143105625Y-74302861D01*
X143056093Y-74280625D01*
X142998684Y-74270304D01*
X142945318Y-74273067D01*
X142915457Y-74284212D01*
X142903739Y-74287383D01*
X142895963Y-74275557D01*
X142890535Y-74243866D01*
X142886429Y-74195593D01*
X142881933Y-74141829D01*
X142875687Y-74109482D01*
X142864324Y-74090985D01*
X142844472Y-74078770D01*
X142832000Y-74073362D01*
X142784829Y-74053601D01*
X142784883Y-74390358D01*
G36*
X143445074Y-74274755D02*
G01*
X143379142Y-74299084D01*
X143325727Y-74342117D01*
X143304836Y-74372409D01*
X143282061Y-74427994D01*
X143282534Y-74468186D01*
X143306438Y-74495217D01*
X143315283Y-74499813D01*
X143353470Y-74514144D01*
X143372972Y-74510472D01*
X143379578Y-74486407D01*
X143379914Y-74473114D01*
X143392008Y-74424210D01*
X143423529Y-74389999D01*
X143467341Y-74373476D01*
X143516305Y-74377634D01*
X143556106Y-74399227D01*
X143569550Y-74411544D01*
X143579079Y-74426487D01*
X143585515Y-74449075D01*
X143589683Y-74484328D01*
X143592403Y-74537266D01*
X143594498Y-74612907D01*
X143595040Y-74636857D01*
X143597019Y-74718790D01*
X143599269Y-74776455D01*
X143602643Y-74814608D01*
X143607994Y-74838004D01*
X143616176Y-74851398D01*
X143628041Y-74859545D01*
X143635638Y-74863144D01*
X143667898Y-74875452D01*
X143686889Y-74879514D01*
X143693164Y-74865948D01*
X143696994Y-74824934D01*
X143698400Y-74755999D01*
X143697402Y-74658669D01*
X143697092Y-74643657D01*
X143694899Y-74554859D01*
X143692307Y-74490019D01*
X143688618Y-74444067D01*
X143683136Y-74411935D01*
X143675165Y-74388553D01*
X143664007Y-74368852D01*
X143658170Y-74360410D01*
X143624704Y-74323057D01*
X143587273Y-74294003D01*
X143582691Y-74291467D01*
X143515574Y-74271443D01*
X143445074Y-74274755D01*
G37*
X143445074Y-74274755D02*
X143379142Y-74299084D01*
X143325727Y-74342117D01*
X143304836Y-74372409D01*
X143282061Y-74427994D01*
X143282534Y-74468186D01*
X143306438Y-74495217D01*
X143315283Y-74499813D01*
X143353470Y-74514144D01*
X143372972Y-74510472D01*
X143379578Y-74486407D01*
X143379914Y-74473114D01*
X143392008Y-74424210D01*
X143423529Y-74389999D01*
X143467341Y-74373476D01*
X143516305Y-74377634D01*
X143556106Y-74399227D01*
X143569550Y-74411544D01*
X143579079Y-74426487D01*
X143585515Y-74449075D01*
X143589683Y-74484328D01*
X143592403Y-74537266D01*
X143594498Y-74612907D01*
X143595040Y-74636857D01*
X143597019Y-74718790D01*
X143599269Y-74776455D01*
X143602643Y-74814608D01*
X143607994Y-74838004D01*
X143616176Y-74851398D01*
X143628041Y-74859545D01*
X143635638Y-74863144D01*
X143667898Y-74875452D01*
X143686889Y-74879514D01*
X143693164Y-74865948D01*
X143696994Y-74824934D01*
X143698400Y-74755999D01*
X143697402Y-74658669D01*
X143697092Y-74643657D01*
X143694899Y-74554859D01*
X143692307Y-74490019D01*
X143688618Y-74444067D01*
X143683136Y-74411935D01*
X143675165Y-74388553D01*
X143664007Y-74368852D01*
X143658170Y-74360410D01*
X143624704Y-74323057D01*
X143587273Y-74294003D01*
X143582691Y-74291467D01*
X143515574Y-74271443D01*
X143445074Y-74274755D01*
G36*
X143935256Y-74275968D02*
G01*
X143878384Y-74297087D01*
X143877733Y-74297493D01*
X143842560Y-74323380D01*
X143816593Y-74353633D01*
X143798330Y-74393058D01*
X143786268Y-74446462D01*
X143778904Y-74518651D01*
X143774736Y-74614432D01*
X143774371Y-74628078D01*
X143769124Y-74833842D01*
X143813284Y-74856678D01*
X143845237Y-74872110D01*
X143864530Y-74879423D01*
X143865422Y-74879514D01*
X143868761Y-74866022D01*
X143871413Y-74829626D01*
X143873044Y-74776452D01*
X143873400Y-74733393D01*
X143873408Y-74663641D01*
X143876597Y-74619837D01*
X143887712Y-74598944D01*
X143911499Y-74597925D01*
X143952704Y-74613741D01*
X144014914Y-74642815D01*
X144060659Y-74666963D01*
X144084187Y-74687913D01*
X144091104Y-74710747D01*
X144091114Y-74711877D01*
X144079701Y-74751212D01*
X144045908Y-74772462D01*
X143994191Y-74775539D01*
X143956939Y-74775006D01*
X143937297Y-74785735D01*
X143925048Y-74811505D01*
X143917998Y-74844337D01*
X143928158Y-74862966D01*
X143931983Y-74865632D01*
X143967999Y-74876340D01*
X144018434Y-74877856D01*
X144070374Y-74870759D01*
X144107178Y-74857788D01*
X144158062Y-74814585D01*
X144186986Y-74754446D01*
X144192714Y-74707462D01*
X144188343Y-74665082D01*
X144172525Y-74630488D01*
X144141203Y-74599763D01*
X144090322Y-74568990D01*
X144015824Y-74534252D01*
X144011286Y-74532288D01*
X143944179Y-74501287D01*
X143902768Y-74475862D01*
X143885019Y-74453014D01*
X143888893Y-74429745D01*
X143912357Y-74403056D01*
X143919373Y-74396914D01*
X143966370Y-74373100D01*
X144015067Y-74374103D01*
X144057478Y-74397451D01*
X144085616Y-74440675D01*
X144088231Y-74449160D01*
X144113692Y-74490308D01*
X144145999Y-74510128D01*
X144192714Y-74529770D01*
X144192714Y-74478950D01*
X144178504Y-74405082D01*
X144136325Y-74337327D01*
X144114376Y-74314661D01*
X144064483Y-74285569D01*
X144001033Y-74272400D01*
X143935256Y-74275968D01*
G37*
X143935256Y-74275968D02*
X143878384Y-74297087D01*
X143877733Y-74297493D01*
X143842560Y-74323380D01*
X143816593Y-74353633D01*
X143798330Y-74393058D01*
X143786268Y-74446462D01*
X143778904Y-74518651D01*
X143774736Y-74614432D01*
X143774371Y-74628078D01*
X143769124Y-74833842D01*
X143813284Y-74856678D01*
X143845237Y-74872110D01*
X143864530Y-74879423D01*
X143865422Y-74879514D01*
X143868761Y-74866022D01*
X143871413Y-74829626D01*
X143873044Y-74776452D01*
X143873400Y-74733393D01*
X143873408Y-74663641D01*
X143876597Y-74619837D01*
X143887712Y-74598944D01*
X143911499Y-74597925D01*
X143952704Y-74613741D01*
X144014914Y-74642815D01*
X144060659Y-74666963D01*
X144084187Y-74687913D01*
X144091104Y-74710747D01*
X144091114Y-74711877D01*
X144079701Y-74751212D01*
X144045908Y-74772462D01*
X143994191Y-74775539D01*
X143956939Y-74775006D01*
X143937297Y-74785735D01*
X143925048Y-74811505D01*
X143917998Y-74844337D01*
X143928158Y-74862966D01*
X143931983Y-74865632D01*
X143967999Y-74876340D01*
X144018434Y-74877856D01*
X144070374Y-74870759D01*
X144107178Y-74857788D01*
X144158062Y-74814585D01*
X144186986Y-74754446D01*
X144192714Y-74707462D01*
X144188343Y-74665082D01*
X144172525Y-74630488D01*
X144141203Y-74599763D01*
X144090322Y-74568990D01*
X144015824Y-74534252D01*
X144011286Y-74532288D01*
X143944179Y-74501287D01*
X143902768Y-74475862D01*
X143885019Y-74453014D01*
X143888893Y-74429745D01*
X143912357Y-74403056D01*
X143919373Y-74396914D01*
X143966370Y-74373100D01*
X144015067Y-74374103D01*
X144057478Y-74397451D01*
X144085616Y-74440675D01*
X144088231Y-74449160D01*
X144113692Y-74490308D01*
X144145999Y-74510128D01*
X144192714Y-74529770D01*
X144192714Y-74478950D01*
X144178504Y-74405082D01*
X144136325Y-74337327D01*
X144114376Y-74314661D01*
X144064483Y-74285569D01*
X144001033Y-74272400D01*
X143935256Y-74275968D01*
G36*
X144599114Y-74176289D02*
G01*
X144594861Y-74235613D01*
X144589975Y-74270572D01*
X144583205Y-74285820D01*
X144573298Y-74286015D01*
X144570086Y-74284195D01*
X144527356Y-74271015D01*
X144471773Y-74271785D01*
X144415263Y-74285333D01*
X144379918Y-74302861D01*
X144343679Y-74330861D01*
X144317187Y-74362549D01*
X144299001Y-74402813D01*
X144287678Y-74456543D01*
X144281778Y-74528626D01*
X144279857Y-74623951D01*
X144279823Y-74642237D01*
X144279800Y-74847646D01*
X144325509Y-74863580D01*
X144357973Y-74874420D01*
X144375785Y-74879468D01*
X144376309Y-74879514D01*
X144378063Y-74865828D01*
X144379556Y-74828076D01*
X144380674Y-74771224D01*
X144381303Y-74700234D01*
X144381400Y-74657073D01*
X144381602Y-74571973D01*
X144382642Y-74510981D01*
X144385169Y-74469177D01*
X144389836Y-74441642D01*
X144397293Y-74423456D01*
X144408189Y-74409698D01*
X144414993Y-74403073D01*
X144461728Y-74376375D01*
X144512728Y-74374375D01*
X144558999Y-74396955D01*
X144567556Y-74405107D01*
X144580107Y-74420436D01*
X144588812Y-74438618D01*
X144594369Y-74464909D01*
X144597474Y-74504562D01*
X144598824Y-74562832D01*
X144599114Y-74643173D01*
X144599114Y-74847646D01*
X144644823Y-74863580D01*
X144677287Y-74874420D01*
X144695099Y-74879468D01*
X144695623Y-74879514D01*
X144696963Y-74865623D01*
X144698172Y-74826439D01*
X144699199Y-74765700D01*
X144699998Y-74687141D01*
X144700519Y-74594498D01*
X144700714Y-74491509D01*
X144700714Y-74094342D01*
X144653543Y-74074444D01*
X144606371Y-74054547D01*
X144599114Y-74176289D01*
G37*
X144599114Y-74176289D02*
X144594861Y-74235613D01*
X144589975Y-74270572D01*
X144583205Y-74285820D01*
X144573298Y-74286015D01*
X144570086Y-74284195D01*
X144527356Y-74271015D01*
X144471773Y-74271785D01*
X144415263Y-74285333D01*
X144379918Y-74302861D01*
X144343679Y-74330861D01*
X144317187Y-74362549D01*
X144299001Y-74402813D01*
X144287678Y-74456543D01*
X144281778Y-74528626D01*
X144279857Y-74623951D01*
X144279823Y-74642237D01*
X144279800Y-74847646D01*
X144325509Y-74863580D01*
X144357973Y-74874420D01*
X144375785Y-74879468D01*
X144376309Y-74879514D01*
X144378063Y-74865828D01*
X144379556Y-74828076D01*
X144380674Y-74771224D01*
X144381303Y-74700234D01*
X144381400Y-74657073D01*
X144381602Y-74571973D01*
X144382642Y-74510981D01*
X144385169Y-74469177D01*
X144389836Y-74441642D01*
X144397293Y-74423456D01*
X144408189Y-74409698D01*
X144414993Y-74403073D01*
X144461728Y-74376375D01*
X144512728Y-74374375D01*
X144558999Y-74396955D01*
X144567556Y-74405107D01*
X144580107Y-74420436D01*
X144588812Y-74438618D01*
X144594369Y-74464909D01*
X144597474Y-74504562D01*
X144598824Y-74562832D01*
X144599114Y-74643173D01*
X144599114Y-74847646D01*
X144644823Y-74863580D01*
X144677287Y-74874420D01*
X144695099Y-74879468D01*
X144695623Y-74879514D01*
X144696963Y-74865623D01*
X144698172Y-74826439D01*
X144699199Y-74765700D01*
X144699998Y-74687141D01*
X144700519Y-74594498D01*
X144700714Y-74491509D01*
X144700714Y-74094342D01*
X144653543Y-74074444D01*
X144606371Y-74054547D01*
X144599114Y-74176289D01*
G36*
X145806697Y-74256239D02*
G01*
X145749473Y-74294735D01*
X145705251Y-74350335D01*
X145678833Y-74421086D01*
X145673490Y-74473162D01*
X145674097Y-74494893D01*
X145679178Y-74511531D01*
X145693145Y-74526437D01*
X145720411Y-74542973D01*
X145765388Y-74564498D01*
X145832489Y-74594374D01*
X145832829Y-74594524D01*
X145894593Y-74622813D01*
X145945241Y-74647933D01*
X145979596Y-74667179D01*
X145992482Y-74677848D01*
X145992486Y-74677934D01*
X145981128Y-74701166D01*
X145954569Y-74726774D01*
X145924077Y-74745221D01*
X145908630Y-74748886D01*
X145866485Y-74736212D01*
X145830192Y-74704471D01*
X145812483Y-74669572D01*
X145795448Y-74643845D01*
X145762078Y-74614546D01*
X145722851Y-74589235D01*
X145688244Y-74575471D01*
X145681007Y-74574714D01*
X145672861Y-74587160D01*
X145672370Y-74618972D01*
X145678357Y-74661866D01*
X145689643Y-74707558D01*
X145705050Y-74747761D01*
X145705829Y-74749322D01*
X145752196Y-74814062D01*
X145812289Y-74858097D01*
X145880535Y-74879711D01*
X145951362Y-74877185D01*
X146019196Y-74848804D01*
X146022212Y-74846808D01*
X146075573Y-74798448D01*
X146110660Y-74735352D01*
X146130078Y-74652387D01*
X146132684Y-74629078D01*
X146137299Y-74519055D01*
X146131767Y-74467748D01*
X145992486Y-74467748D01*
X145990676Y-74499753D01*
X145980778Y-74509093D01*
X145956102Y-74502105D01*
X145917205Y-74485587D01*
X145873725Y-74464881D01*
X145872644Y-74464333D01*
X145835791Y-74444949D01*
X145821000Y-74432013D01*
X145824647Y-74418451D01*
X145840005Y-74400632D01*
X145879077Y-74374845D01*
X145921154Y-74372950D01*
X145958897Y-74391717D01*
X145984966Y-74427915D01*
X145992486Y-74467748D01*
X146131767Y-74467748D01*
X146127806Y-74431027D01*
X146103450Y-74361212D01*
X146069544Y-74312302D01*
X146008347Y-74262878D01*
X145940937Y-74238359D01*
X145872120Y-74236797D01*
X145806697Y-74256239D01*
G37*
X145806697Y-74256239D02*
X145749473Y-74294735D01*
X145705251Y-74350335D01*
X145678833Y-74421086D01*
X145673490Y-74473162D01*
X145674097Y-74494893D01*
X145679178Y-74511531D01*
X145693145Y-74526437D01*
X145720411Y-74542973D01*
X145765388Y-74564498D01*
X145832489Y-74594374D01*
X145832829Y-74594524D01*
X145894593Y-74622813D01*
X145945241Y-74647933D01*
X145979596Y-74667179D01*
X145992482Y-74677848D01*
X145992486Y-74677934D01*
X145981128Y-74701166D01*
X145954569Y-74726774D01*
X145924077Y-74745221D01*
X145908630Y-74748886D01*
X145866485Y-74736212D01*
X145830192Y-74704471D01*
X145812483Y-74669572D01*
X145795448Y-74643845D01*
X145762078Y-74614546D01*
X145722851Y-74589235D01*
X145688244Y-74575471D01*
X145681007Y-74574714D01*
X145672861Y-74587160D01*
X145672370Y-74618972D01*
X145678357Y-74661866D01*
X145689643Y-74707558D01*
X145705050Y-74747761D01*
X145705829Y-74749322D01*
X145752196Y-74814062D01*
X145812289Y-74858097D01*
X145880535Y-74879711D01*
X145951362Y-74877185D01*
X146019196Y-74848804D01*
X146022212Y-74846808D01*
X146075573Y-74798448D01*
X146110660Y-74735352D01*
X146130078Y-74652387D01*
X146132684Y-74629078D01*
X146137299Y-74519055D01*
X146131767Y-74467748D01*
X145992486Y-74467748D01*
X145990676Y-74499753D01*
X145980778Y-74509093D01*
X145956102Y-74502105D01*
X145917205Y-74485587D01*
X145873725Y-74464881D01*
X145872644Y-74464333D01*
X145835791Y-74444949D01*
X145821000Y-74432013D01*
X145824647Y-74418451D01*
X145840005Y-74400632D01*
X145879077Y-74374845D01*
X145921154Y-74372950D01*
X145958897Y-74391717D01*
X145984966Y-74427915D01*
X145992486Y-74467748D01*
X146131767Y-74467748D01*
X146127806Y-74431027D01*
X146103450Y-74361212D01*
X146069544Y-74312302D01*
X146008347Y-74262878D01*
X145940937Y-74238359D01*
X145872120Y-74236797D01*
X145806697Y-74256239D01*
G36*
X146933885Y-74246962D02*
G01*
X146865855Y-74282733D01*
X146815649Y-74340301D01*
X146797815Y-74377312D01*
X146783937Y-74432882D01*
X146776833Y-74503096D01*
X146776160Y-74579727D01*
X146781573Y-74654552D01*
X146792730Y-74719342D01*
X146809286Y-74765873D01*
X146814374Y-74773887D01*
X146874645Y-74833707D01*
X146946231Y-74869535D01*
X147023908Y-74880020D01*
X147102452Y-74863810D01*
X147124311Y-74854092D01*
X147166878Y-74824143D01*
X147204237Y-74784433D01*
X147207768Y-74779397D01*
X147222119Y-74755124D01*
X147231606Y-74729178D01*
X147237210Y-74695022D01*
X147239914Y-74646119D01*
X147240701Y-74575935D01*
X147240714Y-74560200D01*
X147240678Y-74555192D01*
X147095571Y-74555192D01*
X147094727Y-74621430D01*
X147091404Y-74665386D01*
X147084417Y-74693779D01*
X147072584Y-74713325D01*
X147066543Y-74719857D01*
X147031814Y-74744680D01*
X146998097Y-74743548D01*
X146964005Y-74722016D01*
X146943671Y-74699029D01*
X146931629Y-74665478D01*
X146924866Y-74612569D01*
X146924402Y-74606399D01*
X146923248Y-74510513D01*
X146935312Y-74439299D01*
X146960430Y-74393194D01*
X146998440Y-74372635D01*
X147012008Y-74371514D01*
X147047636Y-74377152D01*
X147072006Y-74396686D01*
X147086907Y-74434042D01*
X147094125Y-74493150D01*
X147095571Y-74555192D01*
X147240678Y-74555192D01*
X147240174Y-74485413D01*
X147237904Y-74433159D01*
X147232932Y-74396949D01*
X147224287Y-74370299D01*
X147210995Y-74346722D01*
X147208057Y-74342338D01*
X147158687Y-74283249D01*
X147104891Y-74248947D01*
X147039398Y-74235331D01*
X147017158Y-74234665D01*
X146933885Y-74246962D01*
G37*
X146933885Y-74246962D02*
X146865855Y-74282733D01*
X146815649Y-74340301D01*
X146797815Y-74377312D01*
X146783937Y-74432882D01*
X146776833Y-74503096D01*
X146776160Y-74579727D01*
X146781573Y-74654552D01*
X146792730Y-74719342D01*
X146809286Y-74765873D01*
X146814374Y-74773887D01*
X146874645Y-74833707D01*
X146946231Y-74869535D01*
X147023908Y-74880020D01*
X147102452Y-74863810D01*
X147124311Y-74854092D01*
X147166878Y-74824143D01*
X147204237Y-74784433D01*
X147207768Y-74779397D01*
X147222119Y-74755124D01*
X147231606Y-74729178D01*
X147237210Y-74695022D01*
X147239914Y-74646119D01*
X147240701Y-74575935D01*
X147240714Y-74560200D01*
X147240678Y-74555192D01*
X147095571Y-74555192D01*
X147094727Y-74621430D01*
X147091404Y-74665386D01*
X147084417Y-74693779D01*
X147072584Y-74713325D01*
X147066543Y-74719857D01*
X147031814Y-74744680D01*
X146998097Y-74743548D01*
X146964005Y-74722016D01*
X146943671Y-74699029D01*
X146931629Y-74665478D01*
X146924866Y-74612569D01*
X146924402Y-74606399D01*
X146923248Y-74510513D01*
X146935312Y-74439299D01*
X146960430Y-74393194D01*
X146998440Y-74372635D01*
X147012008Y-74371514D01*
X147047636Y-74377152D01*
X147072006Y-74396686D01*
X147086907Y-74434042D01*
X147094125Y-74493150D01*
X147095571Y-74555192D01*
X147240678Y-74555192D01*
X147240174Y-74485413D01*
X147237904Y-74433159D01*
X147232932Y-74396949D01*
X147224287Y-74370299D01*
X147210995Y-74346722D01*
X147208057Y-74342338D01*
X147158687Y-74283249D01*
X147104891Y-74248947D01*
X147039398Y-74235331D01*
X147017158Y-74234665D01*
X146933885Y-74246962D01*
G36*
X145258907Y-74252780D02*
G01*
X145212328Y-74279723D01*
X145179943Y-74306466D01*
X145156258Y-74334484D01*
X145139941Y-74368748D01*
X145129661Y-74414227D01*
X145124086Y-74475892D01*
X145121884Y-74558711D01*
X145121629Y-74618246D01*
X145121629Y-74837391D01*
X145183314Y-74865044D01*
X145245000Y-74892697D01*
X145252257Y-74652670D01*
X145255256Y-74563028D01*
X145258402Y-74497962D01*
X145262299Y-74453026D01*
X145267553Y-74423770D01*
X145274769Y-74405748D01*
X145284550Y-74394511D01*
X145287688Y-74392079D01*
X145335239Y-74373083D01*
X145383303Y-74380600D01*
X145411914Y-74400543D01*
X145423553Y-74414675D01*
X145431609Y-74433220D01*
X145436729Y-74461334D01*
X145439559Y-74504173D01*
X145440744Y-74566895D01*
X145440943Y-74632261D01*
X145440982Y-74714268D01*
X145442386Y-74772316D01*
X145447086Y-74811465D01*
X145457013Y-74836780D01*
X145474097Y-74853323D01*
X145500268Y-74866156D01*
X145535225Y-74879491D01*
X145573404Y-74894007D01*
X145568859Y-74636389D01*
X145567029Y-74543519D01*
X145564888Y-74474889D01*
X145561819Y-74425711D01*
X145557206Y-74391198D01*
X145550432Y-74366562D01*
X145540881Y-74347016D01*
X145529366Y-74329770D01*
X145473810Y-74274680D01*
X145406020Y-74242822D01*
X145332287Y-74235191D01*
X145258907Y-74252780D01*
G37*
X145258907Y-74252780D02*
X145212328Y-74279723D01*
X145179943Y-74306466D01*
X145156258Y-74334484D01*
X145139941Y-74368748D01*
X145129661Y-74414227D01*
X145124086Y-74475892D01*
X145121884Y-74558711D01*
X145121629Y-74618246D01*
X145121629Y-74837391D01*
X145183314Y-74865044D01*
X145245000Y-74892697D01*
X145252257Y-74652670D01*
X145255256Y-74563028D01*
X145258402Y-74497962D01*
X145262299Y-74453026D01*
X145267553Y-74423770D01*
X145274769Y-74405748D01*
X145284550Y-74394511D01*
X145287688Y-74392079D01*
X145335239Y-74373083D01*
X145383303Y-74380600D01*
X145411914Y-74400543D01*
X145423553Y-74414675D01*
X145431609Y-74433220D01*
X145436729Y-74461334D01*
X145439559Y-74504173D01*
X145440744Y-74566895D01*
X145440943Y-74632261D01*
X145440982Y-74714268D01*
X145442386Y-74772316D01*
X145447086Y-74811465D01*
X145457013Y-74836780D01*
X145474097Y-74853323D01*
X145500268Y-74866156D01*
X145535225Y-74879491D01*
X145573404Y-74894007D01*
X145568859Y-74636389D01*
X145567029Y-74543519D01*
X145564888Y-74474889D01*
X145561819Y-74425711D01*
X145557206Y-74391198D01*
X145550432Y-74366562D01*
X145540881Y-74347016D01*
X145529366Y-74329770D01*
X145473810Y-74274680D01*
X145406020Y-74242822D01*
X145332287Y-74235191D01*
X145258907Y-74252780D01*
G36*
X146375256Y-74244918D02*
G01*
X146319799Y-74272568D01*
X146270852Y-74323480D01*
X146257371Y-74342338D01*
X146242686Y-74367015D01*
X146233158Y-74393816D01*
X146227707Y-74429587D01*
X146225253Y-74481169D01*
X146224714Y-74549267D01*
X146227148Y-74642588D01*
X146235606Y-74712657D01*
X146251826Y-74764931D01*
X146277546Y-74804869D01*
X146314503Y-74837929D01*
X146317218Y-74839886D01*
X146353640Y-74859908D01*
X146397498Y-74869815D01*
X146453276Y-74872257D01*
X146543952Y-74872257D01*
X146543990Y-74960283D01*
X146544834Y-75009308D01*
X146549976Y-75038065D01*
X146563413Y-75055311D01*
X146589142Y-75069808D01*
X146595321Y-75072769D01*
X146624236Y-75086648D01*
X146646624Y-75095414D01*
X146663271Y-75096171D01*
X146674964Y-75086023D01*
X146682490Y-75062073D01*
X146686634Y-75021426D01*
X146688185Y-74961186D01*
X146687929Y-74878455D01*
X146686651Y-74770339D01*
X146686252Y-74738000D01*
X146684815Y-74626524D01*
X146683528Y-74553603D01*
X146544029Y-74553603D01*
X146543245Y-74615499D01*
X146539760Y-74655997D01*
X146531876Y-74682708D01*
X146517895Y-74703244D01*
X146508403Y-74713260D01*
X146469596Y-74742567D01*
X146435237Y-74744952D01*
X146399784Y-74720750D01*
X146398886Y-74719857D01*
X146384461Y-74701153D01*
X146375687Y-74675732D01*
X146371261Y-74636584D01*
X146369882Y-74576697D01*
X146369857Y-74563430D01*
X146373188Y-74480901D01*
X146384031Y-74423691D01*
X146403660Y-74388766D01*
X146433350Y-74373094D01*
X146450509Y-74371514D01*
X146491234Y-74378926D01*
X146519168Y-74403330D01*
X146535983Y-74447980D01*
X146543350Y-74516130D01*
X146544029Y-74553603D01*
X146683528Y-74553603D01*
X146683292Y-74540245D01*
X146681323Y-74475333D01*
X146678550Y-74427958D01*
X146674612Y-74394290D01*
X146669151Y-74370498D01*
X146661808Y-74352753D01*
X146652223Y-74337224D01*
X146648113Y-74331381D01*
X146593595Y-74276185D01*
X146524664Y-74244890D01*
X146444928Y-74236165D01*
X146375256Y-74244918D01*
G37*
X146375256Y-74244918D02*
X146319799Y-74272568D01*
X146270852Y-74323480D01*
X146257371Y-74342338D01*
X146242686Y-74367015D01*
X146233158Y-74393816D01*
X146227707Y-74429587D01*
X146225253Y-74481169D01*
X146224714Y-74549267D01*
X146227148Y-74642588D01*
X146235606Y-74712657D01*
X146251826Y-74764931D01*
X146277546Y-74804869D01*
X146314503Y-74837929D01*
X146317218Y-74839886D01*
X146353640Y-74859908D01*
X146397498Y-74869815D01*
X146453276Y-74872257D01*
X146543952Y-74872257D01*
X146543990Y-74960283D01*
X146544834Y-75009308D01*
X146549976Y-75038065D01*
X146563413Y-75055311D01*
X146589142Y-75069808D01*
X146595321Y-75072769D01*
X146624236Y-75086648D01*
X146646624Y-75095414D01*
X146663271Y-75096171D01*
X146674964Y-75086023D01*
X146682490Y-75062073D01*
X146686634Y-75021426D01*
X146688185Y-74961186D01*
X146687929Y-74878455D01*
X146686651Y-74770339D01*
X146686252Y-74738000D01*
X146684815Y-74626524D01*
X146683528Y-74553603D01*
X146544029Y-74553603D01*
X146543245Y-74615499D01*
X146539760Y-74655997D01*
X146531876Y-74682708D01*
X146517895Y-74703244D01*
X146508403Y-74713260D01*
X146469596Y-74742567D01*
X146435237Y-74744952D01*
X146399784Y-74720750D01*
X146398886Y-74719857D01*
X146384461Y-74701153D01*
X146375687Y-74675732D01*
X146371261Y-74636584D01*
X146369882Y-74576697D01*
X146369857Y-74563430D01*
X146373188Y-74480901D01*
X146384031Y-74423691D01*
X146403660Y-74388766D01*
X146433350Y-74373094D01*
X146450509Y-74371514D01*
X146491234Y-74378926D01*
X146519168Y-74403330D01*
X146535983Y-74447980D01*
X146543350Y-74516130D01*
X146544029Y-74553603D01*
X146683528Y-74553603D01*
X146683292Y-74540245D01*
X146681323Y-74475333D01*
X146678550Y-74427958D01*
X146674612Y-74394290D01*
X146669151Y-74370498D01*
X146661808Y-74352753D01*
X146652223Y-74337224D01*
X146648113Y-74331381D01*
X146593595Y-74276185D01*
X146524664Y-74244890D01*
X146444928Y-74236165D01*
X146375256Y-74244918D01*
M02*
