M48
METRIC,TZ
T1C0.400
T2C0.650
T3C0.920
T4C1.000
T5C1.500
%
G90
G05
T1
X139050Y-114734
X140170Y-110620
X140170Y-104990
X142670Y-106760
X143551Y-84701
X143561Y-81699
X143561Y-83200
X143727Y-68200
X144325Y-125405
X144690Y-111640
X145008Y-88142
X145008Y-89668
X145008Y-93968
X145008Y-95150
X145008Y-96332
X146100Y-98150
X146180Y-74750
X146180Y-76250
X146180Y-77750
X146457Y-111647
X146980Y-93920
X147190Y-72750
X148010Y-80010
X148220Y-114220
X148595Y-125415
X149110Y-122600
X149500Y-72150
X149510Y-80010
X151010Y-80010
X152070Y-72530
X152240Y-96595
X152260Y-89920
X152730Y-77750
X152731Y-76250
X152740Y-74750
X152880Y-125450
X155190Y-97410
X155500Y-124360
X155890Y-89580
X155920Y-98490
X155920Y-109600
X156930Y-100150
X156950Y-101870
X157270Y-122160
X157470Y-93150
X157584Y-80198
X157584Y-81699
X157584Y-83198
X157812Y-68200
X158310Y-94620
X160710Y-124570
X160920Y-121070
X161715Y-123075
T3
X141900Y-128400
X141900Y-130400
X141900Y-132400
X141900Y-134400
T4
X138450Y-68675
X138450Y-71215
X138450Y-73755
X138450Y-76295
X138450Y-78835
X138450Y-81375
X138450Y-83915
X138450Y-86455
X138450Y-88995
X138450Y-91535
X138450Y-94075
X138450Y-96615
X138450Y-99155
X138450Y-101695
X138450Y-104235
X138450Y-106775
X138450Y-109315
X138450Y-111855
X163240Y-68675
X163240Y-71215
X163240Y-73755
X163240Y-76295
X163240Y-78835
X163240Y-81375
X163240Y-83915
X163240Y-86455
X163240Y-88995
X163240Y-91535
X163240Y-94075
X163240Y-96615
X163240Y-99155
X163240Y-101695
X163240Y-104235
X163240Y-106775
X163240Y-109315
X163240Y-111855
X163240Y-114395
X163240Y-116935
X163240Y-119475
X163240Y-122015
T5
X139180Y-128130
X139180Y-135130
X144620Y-128130
X144620Y-135130
T2
G00X153540Y-129170
M15
G01X153540Y-130270
M16
G05
G00X153540Y-133600
M15
G01X153540Y-134200
M16
G05
G00X162180Y-129170
M15
G01X162180Y-130270
M16
G05
G00X162180Y-133600
M15
G01X162180Y-134200
M16
G05
T0
M30
