%TF.GenerationSoftware,KiCad,Pcbnew,5.1.9-73d0e3b20d~88~ubuntu20.04.1*%
%TF.CreationDate,2021-03-20T23:45:23+05:30*%
%TF.ProjectId,ESP32-S2,45535033-322d-4533-922e-6b696361645f,rev?*%
%TF.SameCoordinates,Original*%
%TF.FileFunction,Soldermask,Top*%
%TF.FilePolarity,Negative*%
%FSLAX46Y46*%
G04 Gerber Fmt 4.6, Leading zero omitted, Abs format (unit mm)*
G04 Created by KiCad (PCBNEW 5.1.9-73d0e3b20d~88~ubuntu20.04.1) date 2021-03-20 23:45:23*
%MOMM*%
%LPD*%
G01*
G04 APERTURE LIST*
%ADD10R,0.460000X1.040000*%
%ADD11O,1.700000X1.700000*%
%ADD12R,1.700000X1.700000*%
%ADD13R,1.100000X1.100000*%
%ADD14R,1.500000X0.900000*%
%ADD15R,0.900000X1.500000*%
%ADD16C,2.150000*%
%ADD17R,1.600000X1.600000*%
%ADD18C,1.600000*%
%ADD19R,2.000000X1.000000*%
%ADD20R,0.800000X0.900000*%
%ADD21R,2.000000X1.500000*%
%ADD22R,2.000000X3.800000*%
%ADD23C,0.700000*%
%ADD24O,1.050000X2.100000*%
%ADD25R,0.600000X1.450000*%
%ADD26R,0.300000X1.450000*%
G04 APERTURE END LIST*
G36*
G01*
X147786000Y-124315000D02*
X147286000Y-124315000D01*
G75*
G02*
X147061000Y-124090000I0J225000D01*
G01*
X147061000Y-123640000D01*
G75*
G02*
X147286000Y-123415000I225000J0D01*
G01*
X147786000Y-123415000D01*
G75*
G02*
X148011000Y-123640000I0J-225000D01*
G01*
X148011000Y-124090000D01*
G75*
G02*
X147786000Y-124315000I-225000J0D01*
G01*
G37*
G36*
G01*
X147786000Y-125865000D02*
X147286000Y-125865000D01*
G75*
G02*
X147061000Y-125640000I0J225000D01*
G01*
X147061000Y-125190000D01*
G75*
G02*
X147286000Y-124965000I225000J0D01*
G01*
X147786000Y-124965000D01*
G75*
G02*
X148011000Y-125190000I0J-225000D01*
G01*
X148011000Y-125640000D01*
G75*
G02*
X147786000Y-125865000I-225000J0D01*
G01*
G37*
G36*
G01*
X145698000Y-124305000D02*
X145198000Y-124305000D01*
G75*
G02*
X144973000Y-124080000I0J225000D01*
G01*
X144973000Y-123630000D01*
G75*
G02*
X145198000Y-123405000I225000J0D01*
G01*
X145698000Y-123405000D01*
G75*
G02*
X145923000Y-123630000I0J-225000D01*
G01*
X145923000Y-124080000D01*
G75*
G02*
X145698000Y-124305000I-225000J0D01*
G01*
G37*
G36*
G01*
X145698000Y-125855000D02*
X145198000Y-125855000D01*
G75*
G02*
X144973000Y-125630000I0J225000D01*
G01*
X144973000Y-125180000D01*
G75*
G02*
X145198000Y-124955000I225000J0D01*
G01*
X145698000Y-124955000D01*
G75*
G02*
X145923000Y-125180000I0J-225000D01*
G01*
X145923000Y-125630000D01*
G75*
G02*
X145698000Y-125855000I-225000J0D01*
G01*
G37*
D10*
X148900000Y-130690000D03*
X148900000Y-128310000D03*
G36*
G01*
X139050000Y-123625000D02*
X139050000Y-124875000D01*
G75*
G02*
X138800000Y-125125000I-250000J0D01*
G01*
X138050000Y-125125000D01*
G75*
G02*
X137800000Y-124875000I0J250000D01*
G01*
X137800000Y-123625000D01*
G75*
G02*
X138050000Y-123375000I250000J0D01*
G01*
X138800000Y-123375000D01*
G75*
G02*
X139050000Y-123625000I0J-250000D01*
G01*
G37*
G36*
G01*
X141850000Y-123625000D02*
X141850000Y-124875000D01*
G75*
G02*
X141600000Y-125125000I-250000J0D01*
G01*
X140850000Y-125125000D01*
G75*
G02*
X140600000Y-124875000I0J250000D01*
G01*
X140600000Y-123625000D01*
G75*
G02*
X140850000Y-123375000I250000J0D01*
G01*
X141600000Y-123375000D01*
G75*
G02*
X141850000Y-123625000I0J-250000D01*
G01*
G37*
D11*
X163240000Y-122015000D03*
X163240000Y-119475000D03*
X163240000Y-116935000D03*
X163240000Y-114395000D03*
X163240000Y-111855000D03*
X163240000Y-109315000D03*
X163240000Y-106775000D03*
X163240000Y-104235000D03*
X163240000Y-101695000D03*
X163240000Y-99155000D03*
X163240000Y-96615000D03*
X163240000Y-94075000D03*
X163240000Y-91535000D03*
X163240000Y-88995000D03*
X163240000Y-86455000D03*
X163240000Y-83915000D03*
X163240000Y-81375000D03*
X163240000Y-78835000D03*
X163240000Y-76295000D03*
X163240000Y-73755000D03*
X163240000Y-71215000D03*
D12*
X163240000Y-68675000D03*
D13*
X148010000Y-74750000D03*
X149510000Y-74750000D03*
X151010000Y-74750000D03*
X151010000Y-76250000D03*
X151010000Y-77750000D03*
X149510000Y-77750000D03*
X148010000Y-77750000D03*
X148010000Y-76250000D03*
X149510000Y-76250000D03*
D14*
X159450000Y-68200000D03*
X159450000Y-69700000D03*
X159450000Y-71200000D03*
X159450000Y-72700000D03*
X159450000Y-74200000D03*
X159450000Y-75700000D03*
X159450000Y-77200000D03*
X159450000Y-78700000D03*
X159450000Y-80200000D03*
X159450000Y-81700000D03*
X159450000Y-83200000D03*
X159450000Y-84700000D03*
X159450000Y-86200000D03*
X159450000Y-87700000D03*
X159450000Y-89200000D03*
X159450000Y-90700000D03*
D15*
X157450000Y-91450000D03*
X155950000Y-91450000D03*
X154450000Y-91450000D03*
X152950000Y-91450000D03*
X151450000Y-91450000D03*
X149950000Y-91450000D03*
X148450000Y-91450000D03*
X146950000Y-91450000D03*
X145450000Y-91450000D03*
X143950000Y-91450000D03*
D14*
X141950000Y-90700000D03*
X141950000Y-89200000D03*
X141950000Y-87700000D03*
X141950000Y-86200000D03*
X141950000Y-84700000D03*
X141950000Y-83200000D03*
X141950000Y-81700000D03*
X141950000Y-80200000D03*
X141950000Y-78700000D03*
X141950000Y-77200000D03*
X141950000Y-75700000D03*
X141950000Y-74200000D03*
X141950000Y-72700000D03*
X141950000Y-71200000D03*
X141950000Y-69700000D03*
X141950000Y-68200000D03*
G36*
G01*
X155366580Y-104829740D02*
X155666580Y-104829740D01*
G75*
G02*
X155816580Y-104979740I0J-150000D01*
G01*
X155816580Y-106629740D01*
G75*
G02*
X155666580Y-106779740I-150000J0D01*
G01*
X155366580Y-106779740D01*
G75*
G02*
X155216580Y-106629740I0J150000D01*
G01*
X155216580Y-104979740D01*
G75*
G02*
X155366580Y-104829740I150000J0D01*
G01*
G37*
G36*
G01*
X154096580Y-104829740D02*
X154396580Y-104829740D01*
G75*
G02*
X154546580Y-104979740I0J-150000D01*
G01*
X154546580Y-106629740D01*
G75*
G02*
X154396580Y-106779740I-150000J0D01*
G01*
X154096580Y-106779740D01*
G75*
G02*
X153946580Y-106629740I0J150000D01*
G01*
X153946580Y-104979740D01*
G75*
G02*
X154096580Y-104829740I150000J0D01*
G01*
G37*
G36*
G01*
X152826580Y-104829740D02*
X153126580Y-104829740D01*
G75*
G02*
X153276580Y-104979740I0J-150000D01*
G01*
X153276580Y-106629740D01*
G75*
G02*
X153126580Y-106779740I-150000J0D01*
G01*
X152826580Y-106779740D01*
G75*
G02*
X152676580Y-106629740I0J150000D01*
G01*
X152676580Y-104979740D01*
G75*
G02*
X152826580Y-104829740I150000J0D01*
G01*
G37*
G36*
G01*
X151556580Y-104829740D02*
X151856580Y-104829740D01*
G75*
G02*
X152006580Y-104979740I0J-150000D01*
G01*
X152006580Y-106629740D01*
G75*
G02*
X151856580Y-106779740I-150000J0D01*
G01*
X151556580Y-106779740D01*
G75*
G02*
X151406580Y-106629740I0J150000D01*
G01*
X151406580Y-104979740D01*
G75*
G02*
X151556580Y-104829740I150000J0D01*
G01*
G37*
G36*
G01*
X150286580Y-104829740D02*
X150586580Y-104829740D01*
G75*
G02*
X150736580Y-104979740I0J-150000D01*
G01*
X150736580Y-106629740D01*
G75*
G02*
X150586580Y-106779740I-150000J0D01*
G01*
X150286580Y-106779740D01*
G75*
G02*
X150136580Y-106629740I0J150000D01*
G01*
X150136580Y-104979740D01*
G75*
G02*
X150286580Y-104829740I150000J0D01*
G01*
G37*
G36*
G01*
X149016580Y-104829740D02*
X149316580Y-104829740D01*
G75*
G02*
X149466580Y-104979740I0J-150000D01*
G01*
X149466580Y-106629740D01*
G75*
G02*
X149316580Y-106779740I-150000J0D01*
G01*
X149016580Y-106779740D01*
G75*
G02*
X148866580Y-106629740I0J150000D01*
G01*
X148866580Y-104979740D01*
G75*
G02*
X149016580Y-104829740I150000J0D01*
G01*
G37*
G36*
G01*
X147746580Y-104829740D02*
X148046580Y-104829740D01*
G75*
G02*
X148196580Y-104979740I0J-150000D01*
G01*
X148196580Y-106629740D01*
G75*
G02*
X148046580Y-106779740I-150000J0D01*
G01*
X147746580Y-106779740D01*
G75*
G02*
X147596580Y-106629740I0J150000D01*
G01*
X147596580Y-104979740D01*
G75*
G02*
X147746580Y-104829740I150000J0D01*
G01*
G37*
G36*
G01*
X146476580Y-104829740D02*
X146776580Y-104829740D01*
G75*
G02*
X146926580Y-104979740I0J-150000D01*
G01*
X146926580Y-106629740D01*
G75*
G02*
X146776580Y-106779740I-150000J0D01*
G01*
X146476580Y-106779740D01*
G75*
G02*
X146326580Y-106629740I0J150000D01*
G01*
X146326580Y-104979740D01*
G75*
G02*
X146476580Y-104829740I150000J0D01*
G01*
G37*
G36*
G01*
X146476580Y-99879740D02*
X146776580Y-99879740D01*
G75*
G02*
X146926580Y-100029740I0J-150000D01*
G01*
X146926580Y-101679740D01*
G75*
G02*
X146776580Y-101829740I-150000J0D01*
G01*
X146476580Y-101829740D01*
G75*
G02*
X146326580Y-101679740I0J150000D01*
G01*
X146326580Y-100029740D01*
G75*
G02*
X146476580Y-99879740I150000J0D01*
G01*
G37*
G36*
G01*
X147746580Y-99879740D02*
X148046580Y-99879740D01*
G75*
G02*
X148196580Y-100029740I0J-150000D01*
G01*
X148196580Y-101679740D01*
G75*
G02*
X148046580Y-101829740I-150000J0D01*
G01*
X147746580Y-101829740D01*
G75*
G02*
X147596580Y-101679740I0J150000D01*
G01*
X147596580Y-100029740D01*
G75*
G02*
X147746580Y-99879740I150000J0D01*
G01*
G37*
G36*
G01*
X149016580Y-99879740D02*
X149316580Y-99879740D01*
G75*
G02*
X149466580Y-100029740I0J-150000D01*
G01*
X149466580Y-101679740D01*
G75*
G02*
X149316580Y-101829740I-150000J0D01*
G01*
X149016580Y-101829740D01*
G75*
G02*
X148866580Y-101679740I0J150000D01*
G01*
X148866580Y-100029740D01*
G75*
G02*
X149016580Y-99879740I150000J0D01*
G01*
G37*
G36*
G01*
X150286580Y-99879740D02*
X150586580Y-99879740D01*
G75*
G02*
X150736580Y-100029740I0J-150000D01*
G01*
X150736580Y-101679740D01*
G75*
G02*
X150586580Y-101829740I-150000J0D01*
G01*
X150286580Y-101829740D01*
G75*
G02*
X150136580Y-101679740I0J150000D01*
G01*
X150136580Y-100029740D01*
G75*
G02*
X150286580Y-99879740I150000J0D01*
G01*
G37*
G36*
G01*
X151556580Y-99879740D02*
X151856580Y-99879740D01*
G75*
G02*
X152006580Y-100029740I0J-150000D01*
G01*
X152006580Y-101679740D01*
G75*
G02*
X151856580Y-101829740I-150000J0D01*
G01*
X151556580Y-101829740D01*
G75*
G02*
X151406580Y-101679740I0J150000D01*
G01*
X151406580Y-100029740D01*
G75*
G02*
X151556580Y-99879740I150000J0D01*
G01*
G37*
G36*
G01*
X152826580Y-99879740D02*
X153126580Y-99879740D01*
G75*
G02*
X153276580Y-100029740I0J-150000D01*
G01*
X153276580Y-101679740D01*
G75*
G02*
X153126580Y-101829740I-150000J0D01*
G01*
X152826580Y-101829740D01*
G75*
G02*
X152676580Y-101679740I0J150000D01*
G01*
X152676580Y-100029740D01*
G75*
G02*
X152826580Y-99879740I150000J0D01*
G01*
G37*
G36*
G01*
X154096580Y-99879740D02*
X154396580Y-99879740D01*
G75*
G02*
X154546580Y-100029740I0J-150000D01*
G01*
X154546580Y-101679740D01*
G75*
G02*
X154396580Y-101829740I-150000J0D01*
G01*
X154096580Y-101829740D01*
G75*
G02*
X153946580Y-101679740I0J150000D01*
G01*
X153946580Y-100029740D01*
G75*
G02*
X154096580Y-99879740I150000J0D01*
G01*
G37*
G36*
G01*
X155366580Y-99879740D02*
X155666580Y-99879740D01*
G75*
G02*
X155816580Y-100029740I0J-150000D01*
G01*
X155816580Y-101679740D01*
G75*
G02*
X155666580Y-101829740I-150000J0D01*
G01*
X155366580Y-101829740D01*
G75*
G02*
X155216580Y-101679740I0J150000D01*
G01*
X155216580Y-100029740D01*
G75*
G02*
X155366580Y-99879740I150000J0D01*
G01*
G37*
G36*
G01*
X154060000Y-109155000D02*
X154560000Y-109155000D01*
G75*
G02*
X154785000Y-109380000I0J-225000D01*
G01*
X154785000Y-109830000D01*
G75*
G02*
X154560000Y-110055000I-225000J0D01*
G01*
X154060000Y-110055000D01*
G75*
G02*
X153835000Y-109830000I0J225000D01*
G01*
X153835000Y-109380000D01*
G75*
G02*
X154060000Y-109155000I225000J0D01*
G01*
G37*
G36*
G01*
X154060000Y-107605000D02*
X154560000Y-107605000D01*
G75*
G02*
X154785000Y-107830000I0J-225000D01*
G01*
X154785000Y-108280000D01*
G75*
G02*
X154560000Y-108505000I-225000J0D01*
G01*
X154060000Y-108505000D01*
G75*
G02*
X153835000Y-108280000I0J225000D01*
G01*
X153835000Y-107830000D01*
G75*
G02*
X154060000Y-107605000I225000J0D01*
G01*
G37*
D16*
X139180000Y-135130000D03*
X139180000Y-128130000D03*
X144620000Y-128130000D03*
X144620000Y-135130000D03*
D17*
X141900000Y-134400000D03*
D18*
X141900000Y-132400000D03*
X141900000Y-130400000D03*
X141900000Y-128400000D03*
D19*
X155610000Y-117090000D03*
X155610000Y-121490000D03*
X151300000Y-117070000D03*
X151300000Y-121470000D03*
D20*
X150599140Y-113687100D03*
X149649140Y-111687100D03*
X151549140Y-111687100D03*
G36*
G01*
X149435000Y-109325000D02*
X149985000Y-109325000D01*
G75*
G02*
X150185000Y-109525000I0J-200000D01*
G01*
X150185000Y-109925000D01*
G75*
G02*
X149985000Y-110125000I-200000J0D01*
G01*
X149435000Y-110125000D01*
G75*
G02*
X149235000Y-109925000I0J200000D01*
G01*
X149235000Y-109525000D01*
G75*
G02*
X149435000Y-109325000I200000J0D01*
G01*
G37*
G36*
G01*
X149435000Y-107675000D02*
X149985000Y-107675000D01*
G75*
G02*
X150185000Y-107875000I0J-200000D01*
G01*
X150185000Y-108275000D01*
G75*
G02*
X149985000Y-108475000I-200000J0D01*
G01*
X149435000Y-108475000D01*
G75*
G02*
X149235000Y-108275000I0J200000D01*
G01*
X149235000Y-107875000D01*
G75*
G02*
X149435000Y-107675000I200000J0D01*
G01*
G37*
G36*
G01*
X147625000Y-121165000D02*
X148175000Y-121165000D01*
G75*
G02*
X148375000Y-121365000I0J-200000D01*
G01*
X148375000Y-121765000D01*
G75*
G02*
X148175000Y-121965000I-200000J0D01*
G01*
X147625000Y-121965000D01*
G75*
G02*
X147425000Y-121765000I0J200000D01*
G01*
X147425000Y-121365000D01*
G75*
G02*
X147625000Y-121165000I200000J0D01*
G01*
G37*
G36*
G01*
X147625000Y-119515000D02*
X148175000Y-119515000D01*
G75*
G02*
X148375000Y-119715000I0J-200000D01*
G01*
X148375000Y-120115000D01*
G75*
G02*
X148175000Y-120315000I-200000J0D01*
G01*
X147625000Y-120315000D01*
G75*
G02*
X147425000Y-120115000I0J200000D01*
G01*
X147425000Y-119715000D01*
G75*
G02*
X147625000Y-119515000I200000J0D01*
G01*
G37*
D11*
X138450000Y-111855000D03*
X138450000Y-109315000D03*
X138450000Y-106775000D03*
X138450000Y-104235000D03*
X138450000Y-101695000D03*
X138450000Y-99155000D03*
X138450000Y-96615000D03*
X138450000Y-94075000D03*
X138450000Y-91535000D03*
X138450000Y-88995000D03*
X138450000Y-86455000D03*
X138450000Y-83915000D03*
X138450000Y-81375000D03*
X138450000Y-78835000D03*
X138450000Y-76295000D03*
X138450000Y-73755000D03*
X138450000Y-71215000D03*
D12*
X138450000Y-68675000D03*
G36*
G01*
X148102500Y-116410000D02*
X147677500Y-116410000D01*
G75*
G02*
X147465000Y-116197500I0J212500D01*
G01*
X147465000Y-115397500D01*
G75*
G02*
X147677500Y-115185000I212500J0D01*
G01*
X148102500Y-115185000D01*
G75*
G02*
X148315000Y-115397500I0J-212500D01*
G01*
X148315000Y-116197500D01*
G75*
G02*
X148102500Y-116410000I-212500J0D01*
G01*
G37*
G36*
G01*
X148102500Y-118035000D02*
X147677500Y-118035000D01*
G75*
G02*
X147465000Y-117822500I0J212500D01*
G01*
X147465000Y-117022500D01*
G75*
G02*
X147677500Y-116810000I212500J0D01*
G01*
X148102500Y-116810000D01*
G75*
G02*
X148315000Y-117022500I0J-212500D01*
G01*
X148315000Y-117822500D01*
G75*
G02*
X148102500Y-118035000I-212500J0D01*
G01*
G37*
G36*
G01*
X149909000Y-124350000D02*
X149409000Y-124350000D01*
G75*
G02*
X149184000Y-124125000I0J225000D01*
G01*
X149184000Y-123675000D01*
G75*
G02*
X149409000Y-123450000I225000J0D01*
G01*
X149909000Y-123450000D01*
G75*
G02*
X150134000Y-123675000I0J-225000D01*
G01*
X150134000Y-124125000D01*
G75*
G02*
X149909000Y-124350000I-225000J0D01*
G01*
G37*
G36*
G01*
X149909000Y-125900000D02*
X149409000Y-125900000D01*
G75*
G02*
X149184000Y-125675000I0J225000D01*
G01*
X149184000Y-125225000D01*
G75*
G02*
X149409000Y-125000000I225000J0D01*
G01*
X149909000Y-125000000D01*
G75*
G02*
X150134000Y-125225000I0J-225000D01*
G01*
X150134000Y-125675000D01*
G75*
G02*
X149909000Y-125900000I-225000J0D01*
G01*
G37*
G36*
G01*
X148466620Y-112136040D02*
X147966620Y-112136040D01*
G75*
G02*
X147741620Y-111911040I0J225000D01*
G01*
X147741620Y-111461040D01*
G75*
G02*
X147966620Y-111236040I225000J0D01*
G01*
X148466620Y-111236040D01*
G75*
G02*
X148691620Y-111461040I0J-225000D01*
G01*
X148691620Y-111911040D01*
G75*
G02*
X148466620Y-112136040I-225000J0D01*
G01*
G37*
G36*
G01*
X148466620Y-113686040D02*
X147966620Y-113686040D01*
G75*
G02*
X147741620Y-113461040I0J225000D01*
G01*
X147741620Y-113011040D01*
G75*
G02*
X147966620Y-112786040I225000J0D01*
G01*
X148466620Y-112786040D01*
G75*
G02*
X148691620Y-113011040I0J-225000D01*
G01*
X148691620Y-113461040D01*
G75*
G02*
X148466620Y-113686040I-225000J0D01*
G01*
G37*
G36*
G01*
X148710000Y-97705000D02*
X149210000Y-97705000D01*
G75*
G02*
X149435000Y-97930000I0J-225000D01*
G01*
X149435000Y-98380000D01*
G75*
G02*
X149210000Y-98605000I-225000J0D01*
G01*
X148710000Y-98605000D01*
G75*
G02*
X148485000Y-98380000I0J225000D01*
G01*
X148485000Y-97930000D01*
G75*
G02*
X148710000Y-97705000I225000J0D01*
G01*
G37*
G36*
G01*
X148710000Y-96155000D02*
X149210000Y-96155000D01*
G75*
G02*
X149435000Y-96380000I0J-225000D01*
G01*
X149435000Y-96830000D01*
G75*
G02*
X149210000Y-97055000I-225000J0D01*
G01*
X148710000Y-97055000D01*
G75*
G02*
X148485000Y-96830000I0J225000D01*
G01*
X148485000Y-96380000D01*
G75*
G02*
X148710000Y-96155000I225000J0D01*
G01*
G37*
G36*
G01*
X154120000Y-97115000D02*
X153620000Y-97115000D01*
G75*
G02*
X153395000Y-96890000I0J225000D01*
G01*
X153395000Y-96440000D01*
G75*
G02*
X153620000Y-96215000I225000J0D01*
G01*
X154120000Y-96215000D01*
G75*
G02*
X154345000Y-96440000I0J-225000D01*
G01*
X154345000Y-96890000D01*
G75*
G02*
X154120000Y-97115000I-225000J0D01*
G01*
G37*
G36*
G01*
X154120000Y-98665000D02*
X153620000Y-98665000D01*
G75*
G02*
X153395000Y-98440000I0J225000D01*
G01*
X153395000Y-97990000D01*
G75*
G02*
X153620000Y-97765000I225000J0D01*
G01*
X154120000Y-97765000D01*
G75*
G02*
X154345000Y-97990000I0J-225000D01*
G01*
X154345000Y-98440000D01*
G75*
G02*
X154120000Y-98665000I-225000J0D01*
G01*
G37*
G36*
G01*
X141635000Y-109365000D02*
X142185000Y-109365000D01*
G75*
G02*
X142385000Y-109565000I0J-200000D01*
G01*
X142385000Y-109965000D01*
G75*
G02*
X142185000Y-110165000I-200000J0D01*
G01*
X141635000Y-110165000D01*
G75*
G02*
X141435000Y-109965000I0J200000D01*
G01*
X141435000Y-109565000D01*
G75*
G02*
X141635000Y-109365000I200000J0D01*
G01*
G37*
G36*
G01*
X141635000Y-107715000D02*
X142185000Y-107715000D01*
G75*
G02*
X142385000Y-107915000I0J-200000D01*
G01*
X142385000Y-108315000D01*
G75*
G02*
X142185000Y-108515000I-200000J0D01*
G01*
X141635000Y-108515000D01*
G75*
G02*
X141435000Y-108315000I0J200000D01*
G01*
X141435000Y-107915000D01*
G75*
G02*
X141635000Y-107715000I200000J0D01*
G01*
G37*
G36*
G01*
X156925000Y-124815000D02*
X156375000Y-124815000D01*
G75*
G02*
X156175000Y-124615000I0J200000D01*
G01*
X156175000Y-124215000D01*
G75*
G02*
X156375000Y-124015000I200000J0D01*
G01*
X156925000Y-124015000D01*
G75*
G02*
X157125000Y-124215000I0J-200000D01*
G01*
X157125000Y-124615000D01*
G75*
G02*
X156925000Y-124815000I-200000J0D01*
G01*
G37*
G36*
G01*
X156925000Y-126465000D02*
X156375000Y-126465000D01*
G75*
G02*
X156175000Y-126265000I0J200000D01*
G01*
X156175000Y-125865000D01*
G75*
G02*
X156375000Y-125665000I200000J0D01*
G01*
X156925000Y-125665000D01*
G75*
G02*
X157125000Y-125865000I0J-200000D01*
G01*
X157125000Y-126265000D01*
G75*
G02*
X156925000Y-126465000I-200000J0D01*
G01*
G37*
G36*
G01*
X143992500Y-104740000D02*
X143567500Y-104740000D01*
G75*
G02*
X143355000Y-104527500I0J212500D01*
G01*
X143355000Y-103727500D01*
G75*
G02*
X143567500Y-103515000I212500J0D01*
G01*
X143992500Y-103515000D01*
G75*
G02*
X144205000Y-103727500I0J-212500D01*
G01*
X144205000Y-104527500D01*
G75*
G02*
X143992500Y-104740000I-212500J0D01*
G01*
G37*
G36*
G01*
X143992500Y-106365000D02*
X143567500Y-106365000D01*
G75*
G02*
X143355000Y-106152500I0J212500D01*
G01*
X143355000Y-105352500D01*
G75*
G02*
X143567500Y-105140000I212500J0D01*
G01*
X143992500Y-105140000D01*
G75*
G02*
X144205000Y-105352500I0J-212500D01*
G01*
X144205000Y-106152500D01*
G75*
G02*
X143992500Y-106365000I-212500J0D01*
G01*
G37*
G36*
G01*
X159895000Y-124755000D02*
X159345000Y-124755000D01*
G75*
G02*
X159145000Y-124555000I0J200000D01*
G01*
X159145000Y-124155000D01*
G75*
G02*
X159345000Y-123955000I200000J0D01*
G01*
X159895000Y-123955000D01*
G75*
G02*
X160095000Y-124155000I0J-200000D01*
G01*
X160095000Y-124555000D01*
G75*
G02*
X159895000Y-124755000I-200000J0D01*
G01*
G37*
G36*
G01*
X159895000Y-126405000D02*
X159345000Y-126405000D01*
G75*
G02*
X159145000Y-126205000I0J200000D01*
G01*
X159145000Y-125805000D01*
G75*
G02*
X159345000Y-125605000I200000J0D01*
G01*
X159895000Y-125605000D01*
G75*
G02*
X160095000Y-125805000I0J-200000D01*
G01*
X160095000Y-126205000D01*
G75*
G02*
X159895000Y-126405000I-200000J0D01*
G01*
G37*
G36*
G01*
X143617500Y-108930000D02*
X144042500Y-108930000D01*
G75*
G02*
X144255000Y-109142500I0J-212500D01*
G01*
X144255000Y-109942500D01*
G75*
G02*
X144042500Y-110155000I-212500J0D01*
G01*
X143617500Y-110155000D01*
G75*
G02*
X143405000Y-109942500I0J212500D01*
G01*
X143405000Y-109142500D01*
G75*
G02*
X143617500Y-108930000I212500J0D01*
G01*
G37*
G36*
G01*
X143617500Y-107305000D02*
X144042500Y-107305000D01*
G75*
G02*
X144255000Y-107517500I0J-212500D01*
G01*
X144255000Y-108317500D01*
G75*
G02*
X144042500Y-108530000I-212500J0D01*
G01*
X143617500Y-108530000D01*
G75*
G02*
X143405000Y-108317500I0J212500D01*
G01*
X143405000Y-107517500D01*
G75*
G02*
X143617500Y-107305000I212500J0D01*
G01*
G37*
G36*
G01*
X151242580Y-94194040D02*
X151242580Y-93644040D01*
G75*
G02*
X151442580Y-93444040I200000J0D01*
G01*
X151842580Y-93444040D01*
G75*
G02*
X152042580Y-93644040I0J-200000D01*
G01*
X152042580Y-94194040D01*
G75*
G02*
X151842580Y-94394040I-200000J0D01*
G01*
X151442580Y-94394040D01*
G75*
G02*
X151242580Y-94194040I0J200000D01*
G01*
G37*
G36*
G01*
X149592580Y-94194040D02*
X149592580Y-93644040D01*
G75*
G02*
X149792580Y-93444040I200000J0D01*
G01*
X150192580Y-93444040D01*
G75*
G02*
X150392580Y-93644040I0J-200000D01*
G01*
X150392580Y-94194040D01*
G75*
G02*
X150192580Y-94394040I-200000J0D01*
G01*
X149792580Y-94394040D01*
G75*
G02*
X149592580Y-94194040I0J200000D01*
G01*
G37*
G36*
G01*
X146182380Y-112896840D02*
X146732380Y-112896840D01*
G75*
G02*
X146932380Y-113096840I0J-200000D01*
G01*
X146932380Y-113496840D01*
G75*
G02*
X146732380Y-113696840I-200000J0D01*
G01*
X146182380Y-113696840D01*
G75*
G02*
X145982380Y-113496840I0J200000D01*
G01*
X145982380Y-113096840D01*
G75*
G02*
X146182380Y-112896840I200000J0D01*
G01*
G37*
G36*
G01*
X146182380Y-111246840D02*
X146732380Y-111246840D01*
G75*
G02*
X146932380Y-111446840I0J-200000D01*
G01*
X146932380Y-111846840D01*
G75*
G02*
X146732380Y-112046840I-200000J0D01*
G01*
X146182380Y-112046840D01*
G75*
G02*
X145982380Y-111846840I0J200000D01*
G01*
X145982380Y-111446840D01*
G75*
G02*
X146182380Y-111246840I200000J0D01*
G01*
G37*
D21*
X139330000Y-116340000D03*
X139330000Y-120940000D03*
X139330000Y-118640000D03*
D22*
X145630000Y-118640000D03*
G36*
G01*
X150867620Y-98605680D02*
X150317620Y-98605680D01*
G75*
G02*
X150117620Y-98405680I0J200000D01*
G01*
X150117620Y-98005680D01*
G75*
G02*
X150317620Y-97805680I200000J0D01*
G01*
X150867620Y-97805680D01*
G75*
G02*
X151067620Y-98005680I0J-200000D01*
G01*
X151067620Y-98405680D01*
G75*
G02*
X150867620Y-98605680I-200000J0D01*
G01*
G37*
G36*
G01*
X150867620Y-96955680D02*
X150317620Y-96955680D01*
G75*
G02*
X150117620Y-96755680I0J200000D01*
G01*
X150117620Y-96355680D01*
G75*
G02*
X150317620Y-96155680I200000J0D01*
G01*
X150867620Y-96155680D01*
G75*
G02*
X151067620Y-96355680I0J-200000D01*
G01*
X151067620Y-96755680D01*
G75*
G02*
X150867620Y-96955680I-200000J0D01*
G01*
G37*
D20*
X155760000Y-111190000D03*
X156710000Y-113190000D03*
X154810000Y-113190000D03*
G36*
G01*
X143525000Y-101915000D02*
X144075000Y-101915000D01*
G75*
G02*
X144275000Y-102115000I0J-200000D01*
G01*
X144275000Y-102515000D01*
G75*
G02*
X144075000Y-102715000I-200000J0D01*
G01*
X143525000Y-102715000D01*
G75*
G02*
X143325000Y-102515000I0J200000D01*
G01*
X143325000Y-102115000D01*
G75*
G02*
X143525000Y-101915000I200000J0D01*
G01*
G37*
G36*
G01*
X143525000Y-100265000D02*
X144075000Y-100265000D01*
G75*
G02*
X144275000Y-100465000I0J-200000D01*
G01*
X144275000Y-100865000D01*
G75*
G02*
X144075000Y-101065000I-200000J0D01*
G01*
X143525000Y-101065000D01*
G75*
G02*
X143325000Y-100865000I0J200000D01*
G01*
X143325000Y-100465000D01*
G75*
G02*
X143525000Y-100265000I200000J0D01*
G01*
G37*
G36*
G01*
X151965000Y-97845000D02*
X152515000Y-97845000D01*
G75*
G02*
X152715000Y-98045000I0J-200000D01*
G01*
X152715000Y-98445000D01*
G75*
G02*
X152515000Y-98645000I-200000J0D01*
G01*
X151965000Y-98645000D01*
G75*
G02*
X151765000Y-98445000I0J200000D01*
G01*
X151765000Y-98045000D01*
G75*
G02*
X151965000Y-97845000I200000J0D01*
G01*
G37*
G36*
G01*
X151965000Y-96195000D02*
X152515000Y-96195000D01*
G75*
G02*
X152715000Y-96395000I0J-200000D01*
G01*
X152715000Y-96795000D01*
G75*
G02*
X152515000Y-96995000I-200000J0D01*
G01*
X151965000Y-96995000D01*
G75*
G02*
X151765000Y-96795000I0J200000D01*
G01*
X151765000Y-96395000D01*
G75*
G02*
X151965000Y-96195000I200000J0D01*
G01*
G37*
G36*
G01*
X147550000Y-97055000D02*
X147050000Y-97055000D01*
G75*
G02*
X146825000Y-96830000I0J225000D01*
G01*
X146825000Y-96380000D01*
G75*
G02*
X147050000Y-96155000I225000J0D01*
G01*
X147550000Y-96155000D01*
G75*
G02*
X147775000Y-96380000I0J-225000D01*
G01*
X147775000Y-96830000D01*
G75*
G02*
X147550000Y-97055000I-225000J0D01*
G01*
G37*
G36*
G01*
X147550000Y-98605000D02*
X147050000Y-98605000D01*
G75*
G02*
X146825000Y-98380000I0J225000D01*
G01*
X146825000Y-97930000D01*
G75*
G02*
X147050000Y-97705000I225000J0D01*
G01*
X147550000Y-97705000D01*
G75*
G02*
X147775000Y-97930000I0J-225000D01*
G01*
X147775000Y-98380000D01*
G75*
G02*
X147550000Y-98605000I-225000J0D01*
G01*
G37*
G36*
G01*
X153725000Y-124975000D02*
X154225000Y-124975000D01*
G75*
G02*
X154450000Y-125200000I0J-225000D01*
G01*
X154450000Y-125650000D01*
G75*
G02*
X154225000Y-125875000I-225000J0D01*
G01*
X153725000Y-125875000D01*
G75*
G02*
X153500000Y-125650000I0J225000D01*
G01*
X153500000Y-125200000D01*
G75*
G02*
X153725000Y-124975000I225000J0D01*
G01*
G37*
G36*
G01*
X153725000Y-123425000D02*
X154225000Y-123425000D01*
G75*
G02*
X154450000Y-123650000I0J-225000D01*
G01*
X154450000Y-124100000D01*
G75*
G02*
X154225000Y-124325000I-225000J0D01*
G01*
X153725000Y-124325000D01*
G75*
G02*
X153500000Y-124100000I0J225000D01*
G01*
X153500000Y-123650000D01*
G75*
G02*
X153725000Y-123425000I225000J0D01*
G01*
G37*
G36*
G01*
X151567000Y-125000000D02*
X152067000Y-125000000D01*
G75*
G02*
X152292000Y-125225000I0J-225000D01*
G01*
X152292000Y-125675000D01*
G75*
G02*
X152067000Y-125900000I-225000J0D01*
G01*
X151567000Y-125900000D01*
G75*
G02*
X151342000Y-125675000I0J225000D01*
G01*
X151342000Y-125225000D01*
G75*
G02*
X151567000Y-125000000I225000J0D01*
G01*
G37*
G36*
G01*
X151567000Y-123450000D02*
X152067000Y-123450000D01*
G75*
G02*
X152292000Y-123675000I0J-225000D01*
G01*
X152292000Y-124125000D01*
G75*
G02*
X152067000Y-124350000I-225000J0D01*
G01*
X151567000Y-124350000D01*
G75*
G02*
X151342000Y-124125000I0J225000D01*
G01*
X151342000Y-123675000D01*
G75*
G02*
X151567000Y-123450000I225000J0D01*
G01*
G37*
G36*
G01*
X143575000Y-124305000D02*
X143075000Y-124305000D01*
G75*
G02*
X142850000Y-124080000I0J225000D01*
G01*
X142850000Y-123630000D01*
G75*
G02*
X143075000Y-123405000I225000J0D01*
G01*
X143575000Y-123405000D01*
G75*
G02*
X143800000Y-123630000I0J-225000D01*
G01*
X143800000Y-124080000D01*
G75*
G02*
X143575000Y-124305000I-225000J0D01*
G01*
G37*
G36*
G01*
X143575000Y-125855000D02*
X143075000Y-125855000D01*
G75*
G02*
X142850000Y-125630000I0J225000D01*
G01*
X142850000Y-125180000D01*
G75*
G02*
X143075000Y-124955000I225000J0D01*
G01*
X143575000Y-124955000D01*
G75*
G02*
X143800000Y-125180000I0J-225000D01*
G01*
X143800000Y-125630000D01*
G75*
G02*
X143575000Y-125855000I-225000J0D01*
G01*
G37*
G36*
G01*
X146905000Y-109305000D02*
X147455000Y-109305000D01*
G75*
G02*
X147655000Y-109505000I0J-200000D01*
G01*
X147655000Y-109905000D01*
G75*
G02*
X147455000Y-110105000I-200000J0D01*
G01*
X146905000Y-110105000D01*
G75*
G02*
X146705000Y-109905000I0J200000D01*
G01*
X146705000Y-109505000D01*
G75*
G02*
X146905000Y-109305000I200000J0D01*
G01*
G37*
G36*
G01*
X146905000Y-107655000D02*
X147455000Y-107655000D01*
G75*
G02*
X147655000Y-107855000I0J-200000D01*
G01*
X147655000Y-108255000D01*
G75*
G02*
X147455000Y-108455000I-200000J0D01*
G01*
X146905000Y-108455000D01*
G75*
G02*
X146705000Y-108255000I0J200000D01*
G01*
X146705000Y-107855000D01*
G75*
G02*
X146905000Y-107655000I200000J0D01*
G01*
G37*
D23*
X160750000Y-130250000D03*
X154970000Y-130250000D03*
D24*
X162180000Y-133900000D03*
X153540000Y-133900000D03*
X162180000Y-129720000D03*
X153540000Y-129720000D03*
D25*
X161110000Y-128805000D03*
X160310000Y-128805000D03*
D26*
X159610000Y-128805000D03*
X159110000Y-128805000D03*
X158610000Y-128805000D03*
X158110000Y-128805000D03*
X156110000Y-128805000D03*
X156610000Y-128805000D03*
X157110000Y-128805000D03*
X157610000Y-128805000D03*
D25*
X155410000Y-128805000D03*
X154610000Y-128805000D03*
M02*
