%FSLAX45Y45*%
G04 Gerber Fmt 4.5, Leading zero omitted, Abs format (unit mm)*
G04 Created by KiCad (PCBNEW 5.1.9-73d0e3b20d~88~ubuntu20.04.1) date 2021-03-20 23:45:22*
%MOMM*%
%LPD*%
G01*
G04 APERTURE LIST*
%TA.AperFunction,Profile*%
%ADD10C,0.100000*%
%TD*%
%ADD11C,0.200000*%
%ADD12C,0.300000*%
G04 APERTURE END LIST*
D10*
X16480000Y-6710000D02*
X16480000Y-13710000D01*
X13690000Y-6710000D02*
X16480000Y-6710000D01*
X13690000Y-13710000D02*
X13690000Y-6710000D01*
X16480000Y-13710000D02*
X13690000Y-13710000D01*
D11*
X15462000Y-12990000D02*
X15532000Y-13060000D01*
X15532000Y-12990000D02*
X15462000Y-13060000D01*
X16040000Y-12990000D02*
X16110000Y-13060000D01*
X16110000Y-12990000D02*
X16040000Y-13060000D01*
D12*
X13971428Y-14180714D02*
X13971428Y-13880714D01*
X14042857Y-13880714D01*
X14085714Y-13895000D01*
X14114286Y-13923571D01*
X14128571Y-13952143D01*
X14142857Y-14009286D01*
X14142857Y-14052143D01*
X14128571Y-14109286D01*
X14114286Y-14137857D01*
X14085714Y-14166429D01*
X14042857Y-14180714D01*
X13971428Y-14180714D01*
X14271428Y-14180714D02*
X14271428Y-13980714D01*
X14271428Y-14037857D02*
X14285714Y-14009286D01*
X14300000Y-13995000D01*
X14328571Y-13980714D01*
X14357143Y-13980714D01*
X14457143Y-14180714D02*
X14457143Y-13980714D01*
X14457143Y-13880714D02*
X14442857Y-13895000D01*
X14457143Y-13909286D01*
X14471428Y-13895000D01*
X14457143Y-13880714D01*
X14457143Y-13909286D01*
X14642857Y-14180714D02*
X14614286Y-14166429D01*
X14600000Y-14137857D01*
X14600000Y-13880714D01*
X14800000Y-14180714D02*
X14771428Y-14166429D01*
X14757143Y-14137857D01*
X14757143Y-13880714D01*
X15142857Y-14180714D02*
X15142857Y-13880714D01*
X15242857Y-14095000D01*
X15342857Y-13880714D01*
X15342857Y-14180714D01*
X15614286Y-14180714D02*
X15614286Y-14023571D01*
X15600000Y-13995000D01*
X15571428Y-13980714D01*
X15514286Y-13980714D01*
X15485714Y-13995000D01*
X15614286Y-14166429D02*
X15585714Y-14180714D01*
X15514286Y-14180714D01*
X15485714Y-14166429D01*
X15471428Y-14137857D01*
X15471428Y-14109286D01*
X15485714Y-14080714D01*
X15514286Y-14066429D01*
X15585714Y-14066429D01*
X15614286Y-14052143D01*
X15757143Y-13980714D02*
X15757143Y-14280714D01*
X15757143Y-13995000D02*
X15785714Y-13980714D01*
X15842857Y-13980714D01*
X15871428Y-13995000D01*
X15885714Y-14009286D01*
X15900000Y-14037857D01*
X15900000Y-14123571D01*
X15885714Y-14152143D01*
X15871428Y-14166429D01*
X15842857Y-14180714D01*
X15785714Y-14180714D01*
X15757143Y-14166429D01*
X16028571Y-14152143D02*
X16042857Y-14166429D01*
X16028571Y-14180714D01*
X16014286Y-14166429D01*
X16028571Y-14152143D01*
X16028571Y-14180714D01*
X16028571Y-13995000D02*
X16042857Y-14009286D01*
X16028571Y-14023571D01*
X16014286Y-14009286D01*
X16028571Y-13995000D01*
X16028571Y-14023571D01*
X13615000Y-14640000D02*
X13685000Y-14710000D01*
X13685000Y-14640000D02*
X13615000Y-14710000D01*
X14028571Y-14510714D02*
X14057143Y-14510714D01*
X14085714Y-14525000D01*
X14100000Y-14539286D01*
X14114286Y-14567857D01*
X14128571Y-14625000D01*
X14128571Y-14696429D01*
X14114286Y-14753571D01*
X14100000Y-14782143D01*
X14085714Y-14796429D01*
X14057143Y-14810714D01*
X14028571Y-14810714D01*
X14000000Y-14796429D01*
X13985714Y-14782143D01*
X13971428Y-14753571D01*
X13957143Y-14696429D01*
X13957143Y-14625000D01*
X13971428Y-14567857D01*
X13985714Y-14539286D01*
X14000000Y-14525000D01*
X14028571Y-14510714D01*
X14257143Y-14782143D02*
X14271428Y-14796429D01*
X14257143Y-14810714D01*
X14242857Y-14796429D01*
X14257143Y-14782143D01*
X14257143Y-14810714D01*
X14371428Y-14510714D02*
X14571428Y-14510714D01*
X14442857Y-14810714D01*
X14742857Y-14510714D02*
X14771428Y-14510714D01*
X14800000Y-14525000D01*
X14814286Y-14539286D01*
X14828571Y-14567857D01*
X14842857Y-14625000D01*
X14842857Y-14696429D01*
X14828571Y-14753571D01*
X14814286Y-14782143D01*
X14800000Y-14796429D01*
X14771428Y-14810714D01*
X14742857Y-14810714D01*
X14714286Y-14796429D01*
X14700000Y-14782143D01*
X14685714Y-14753571D01*
X14671428Y-14696429D01*
X14671428Y-14625000D01*
X14685714Y-14567857D01*
X14700000Y-14539286D01*
X14714286Y-14525000D01*
X14742857Y-14510714D01*
X14971428Y-14810714D02*
X14971428Y-14610714D01*
X14971428Y-14639286D02*
X14985714Y-14625000D01*
X15014286Y-14610714D01*
X15057143Y-14610714D01*
X15085714Y-14625000D01*
X15100000Y-14653571D01*
X15100000Y-14810714D01*
X15100000Y-14653571D02*
X15114286Y-14625000D01*
X15142857Y-14610714D01*
X15185714Y-14610714D01*
X15214286Y-14625000D01*
X15228571Y-14653571D01*
X15228571Y-14810714D01*
X15371428Y-14810714D02*
X15371428Y-14610714D01*
X15371428Y-14639286D02*
X15385714Y-14625000D01*
X15414286Y-14610714D01*
X15457143Y-14610714D01*
X15485714Y-14625000D01*
X15500000Y-14653571D01*
X15500000Y-14810714D01*
X15500000Y-14653571D02*
X15514286Y-14625000D01*
X15542857Y-14610714D01*
X15585714Y-14610714D01*
X15614286Y-14625000D01*
X15628571Y-14653571D01*
X15628571Y-14810714D01*
X16214286Y-14496429D02*
X15957143Y-14882143D01*
X16600000Y-14510714D02*
X16628571Y-14510714D01*
X16657143Y-14525000D01*
X16671428Y-14539286D01*
X16685714Y-14567857D01*
X16700000Y-14625000D01*
X16700000Y-14696429D01*
X16685714Y-14753571D01*
X16671428Y-14782143D01*
X16657143Y-14796429D01*
X16628571Y-14810714D01*
X16600000Y-14810714D01*
X16571428Y-14796429D01*
X16557143Y-14782143D01*
X16542857Y-14753571D01*
X16528571Y-14696429D01*
X16528571Y-14625000D01*
X16542857Y-14567857D01*
X16557143Y-14539286D01*
X16571428Y-14525000D01*
X16600000Y-14510714D01*
X16828571Y-14782143D02*
X16842857Y-14796429D01*
X16828571Y-14810714D01*
X16814286Y-14796429D01*
X16828571Y-14782143D01*
X16828571Y-14810714D01*
X17028571Y-14510714D02*
X17057143Y-14510714D01*
X17085714Y-14525000D01*
X17100000Y-14539286D01*
X17114286Y-14567857D01*
X17128571Y-14625000D01*
X17128571Y-14696429D01*
X17114286Y-14753571D01*
X17100000Y-14782143D01*
X17085714Y-14796429D01*
X17057143Y-14810714D01*
X17028571Y-14810714D01*
X17000000Y-14796429D01*
X16985714Y-14782143D01*
X16971428Y-14753571D01*
X16957143Y-14696429D01*
X16957143Y-14625000D01*
X16971428Y-14567857D01*
X16985714Y-14539286D01*
X17000000Y-14525000D01*
X17028571Y-14510714D01*
X17242857Y-14539286D02*
X17257143Y-14525000D01*
X17285714Y-14510714D01*
X17357143Y-14510714D01*
X17385714Y-14525000D01*
X17400000Y-14539286D01*
X17414286Y-14567857D01*
X17414286Y-14596429D01*
X17400000Y-14639286D01*
X17228571Y-14810714D01*
X17414286Y-14810714D01*
X17585714Y-14639286D02*
X17557143Y-14625000D01*
X17542857Y-14610714D01*
X17528571Y-14582143D01*
X17528571Y-14567857D01*
X17542857Y-14539286D01*
X17557143Y-14525000D01*
X17585714Y-14510714D01*
X17642857Y-14510714D01*
X17671428Y-14525000D01*
X17685714Y-14539286D01*
X17700000Y-14567857D01*
X17700000Y-14582143D01*
X17685714Y-14610714D01*
X17671428Y-14625000D01*
X17642857Y-14639286D01*
X17585714Y-14639286D01*
X17557143Y-14653571D01*
X17542857Y-14667857D01*
X17528571Y-14696429D01*
X17528571Y-14753571D01*
X17542857Y-14782143D01*
X17557143Y-14796429D01*
X17585714Y-14810714D01*
X17642857Y-14810714D01*
X17671428Y-14796429D01*
X17685714Y-14782143D01*
X17700000Y-14753571D01*
X17700000Y-14696429D01*
X17685714Y-14667857D01*
X17671428Y-14653571D01*
X17642857Y-14639286D01*
X17814286Y-14510714D02*
X17814286Y-14567857D01*
X17928571Y-14510714D02*
X17928571Y-14567857D01*
X18371428Y-14925000D02*
X18357143Y-14910714D01*
X18328571Y-14867857D01*
X18314286Y-14839286D01*
X18300000Y-14796429D01*
X18285714Y-14725000D01*
X18285714Y-14667857D01*
X18300000Y-14596429D01*
X18314286Y-14553571D01*
X18328571Y-14525000D01*
X18357143Y-14482143D01*
X18371428Y-14467857D01*
X18471428Y-14539286D02*
X18485714Y-14525000D01*
X18514286Y-14510714D01*
X18585714Y-14510714D01*
X18614286Y-14525000D01*
X18628571Y-14539286D01*
X18642857Y-14567857D01*
X18642857Y-14596429D01*
X18628571Y-14639286D01*
X18457143Y-14810714D01*
X18642857Y-14810714D01*
X19000000Y-14810714D02*
X19000000Y-14510714D01*
X19128571Y-14810714D02*
X19128571Y-14653571D01*
X19114286Y-14625000D01*
X19085714Y-14610714D01*
X19042857Y-14610714D01*
X19014286Y-14625000D01*
X19000000Y-14639286D01*
X19314286Y-14810714D02*
X19285714Y-14796429D01*
X19271428Y-14782143D01*
X19257143Y-14753571D01*
X19257143Y-14667857D01*
X19271428Y-14639286D01*
X19285714Y-14625000D01*
X19314286Y-14610714D01*
X19357143Y-14610714D01*
X19385714Y-14625000D01*
X19400000Y-14639286D01*
X19414286Y-14667857D01*
X19414286Y-14753571D01*
X19400000Y-14782143D01*
X19385714Y-14796429D01*
X19357143Y-14810714D01*
X19314286Y-14810714D01*
X19585714Y-14810714D02*
X19557143Y-14796429D01*
X19542857Y-14767857D01*
X19542857Y-14510714D01*
X19814286Y-14796429D02*
X19785714Y-14810714D01*
X19728571Y-14810714D01*
X19700000Y-14796429D01*
X19685714Y-14767857D01*
X19685714Y-14653571D01*
X19700000Y-14625000D01*
X19728571Y-14610714D01*
X19785714Y-14610714D01*
X19814286Y-14625000D01*
X19828571Y-14653571D01*
X19828571Y-14682143D01*
X19685714Y-14710714D01*
X19942857Y-14796429D02*
X19971428Y-14810714D01*
X20028571Y-14810714D01*
X20057143Y-14796429D01*
X20071428Y-14767857D01*
X20071428Y-14753571D01*
X20057143Y-14725000D01*
X20028571Y-14710714D01*
X19985714Y-14710714D01*
X19957143Y-14696429D01*
X19942857Y-14667857D01*
X19942857Y-14653571D01*
X19957143Y-14625000D01*
X19985714Y-14610714D01*
X20028571Y-14610714D01*
X20057143Y-14625000D01*
X20171428Y-14925000D02*
X20185714Y-14910714D01*
X20214286Y-14867857D01*
X20228571Y-14839286D01*
X20242857Y-14796429D01*
X20257143Y-14725000D01*
X20257143Y-14667857D01*
X20242857Y-14596429D01*
X20228571Y-14553571D01*
X20214286Y-14525000D01*
X20185714Y-14482143D01*
X20171428Y-14467857D01*
X20714286Y-14925000D02*
X20700000Y-14910714D01*
X20671428Y-14867857D01*
X20657143Y-14839286D01*
X20642857Y-14796429D01*
X20628571Y-14725000D01*
X20628571Y-14667857D01*
X20642857Y-14596429D01*
X20657143Y-14553571D01*
X20671428Y-14525000D01*
X20700000Y-14482143D01*
X20714286Y-14467857D01*
X20828571Y-14610714D02*
X20828571Y-14810714D01*
X20828571Y-14639286D02*
X20842857Y-14625000D01*
X20871428Y-14610714D01*
X20914286Y-14610714D01*
X20942857Y-14625000D01*
X20957143Y-14653571D01*
X20957143Y-14810714D01*
X21142857Y-14810714D02*
X21114286Y-14796429D01*
X21100000Y-14782143D01*
X21085714Y-14753571D01*
X21085714Y-14667857D01*
X21100000Y-14639286D01*
X21114286Y-14625000D01*
X21142857Y-14610714D01*
X21185714Y-14610714D01*
X21214286Y-14625000D01*
X21228571Y-14639286D01*
X21242857Y-14667857D01*
X21242857Y-14753571D01*
X21228571Y-14782143D01*
X21214286Y-14796429D01*
X21185714Y-14810714D01*
X21142857Y-14810714D01*
X21328571Y-14610714D02*
X21442857Y-14610714D01*
X21371428Y-14510714D02*
X21371428Y-14767857D01*
X21385714Y-14796429D01*
X21414286Y-14810714D01*
X21442857Y-14810714D01*
X21771428Y-14610714D02*
X21771428Y-14910714D01*
X21771428Y-14625000D02*
X21800000Y-14610714D01*
X21857143Y-14610714D01*
X21885714Y-14625000D01*
X21900000Y-14639286D01*
X21914286Y-14667857D01*
X21914286Y-14753571D01*
X21900000Y-14782143D01*
X21885714Y-14796429D01*
X21857143Y-14810714D01*
X21800000Y-14810714D01*
X21771428Y-14796429D01*
X22085714Y-14810714D02*
X22057143Y-14796429D01*
X22042857Y-14767857D01*
X22042857Y-14510714D01*
X22328571Y-14810714D02*
X22328571Y-14653571D01*
X22314286Y-14625000D01*
X22285714Y-14610714D01*
X22228571Y-14610714D01*
X22200000Y-14625000D01*
X22328571Y-14796429D02*
X22300000Y-14810714D01*
X22228571Y-14810714D01*
X22200000Y-14796429D01*
X22185714Y-14767857D01*
X22185714Y-14739286D01*
X22200000Y-14710714D01*
X22228571Y-14696429D01*
X22300000Y-14696429D01*
X22328571Y-14682143D01*
X22428571Y-14610714D02*
X22542857Y-14610714D01*
X22471428Y-14510714D02*
X22471428Y-14767857D01*
X22485714Y-14796429D01*
X22514286Y-14810714D01*
X22542857Y-14810714D01*
X22757143Y-14796429D02*
X22728571Y-14810714D01*
X22671428Y-14810714D01*
X22642857Y-14796429D01*
X22628571Y-14767857D01*
X22628571Y-14653571D01*
X22642857Y-14625000D01*
X22671428Y-14610714D01*
X22728571Y-14610714D01*
X22757143Y-14625000D01*
X22771428Y-14653571D01*
X22771428Y-14682143D01*
X22628571Y-14710714D01*
X23028571Y-14810714D02*
X23028571Y-14510714D01*
X23028571Y-14796429D02*
X23000000Y-14810714D01*
X22942857Y-14810714D01*
X22914286Y-14796429D01*
X22900000Y-14782143D01*
X22885714Y-14753571D01*
X22885714Y-14667857D01*
X22900000Y-14639286D01*
X22914286Y-14625000D01*
X22942857Y-14610714D01*
X23000000Y-14610714D01*
X23028571Y-14625000D01*
X23142857Y-14925000D02*
X23157143Y-14910714D01*
X23185714Y-14867857D01*
X23200000Y-14839286D01*
X23214286Y-14796429D01*
X23228571Y-14725000D01*
X23228571Y-14667857D01*
X23214286Y-14596429D01*
X23200000Y-14553571D01*
X23185714Y-14525000D01*
X23157143Y-14482143D01*
X23142857Y-14467857D01*
M02*
