%TF.GenerationSoftware,KiCad,Pcbnew,5.1.9-73d0e3b20d~88~ubuntu20.04.1*%
%TF.CreationDate,2021-03-20T23:28:39+05:30*%
%TF.ProjectId,ESP32-S2,45535033-322d-4533-922e-6b696361645f,rev?*%
%TF.SameCoordinates,Original*%
%TF.FileFunction,Copper,L2,Bot*%
%TF.FilePolarity,Positive*%
%FSLAX46Y46*%
G04 Gerber Fmt 4.6, Leading zero omitted, Abs format (unit mm)*
G04 Created by KiCad (PCBNEW 5.1.9-73d0e3b20d~88~ubuntu20.04.1) date 2021-03-20 23:28:39*
%MOMM*%
%LPD*%
G01*
G04 APERTURE LIST*
%TA.AperFunction,ComponentPad*%
%ADD10O,1.700000X1.700000*%
%TD*%
%TA.AperFunction,ComponentPad*%
%ADD11R,1.700000X1.700000*%
%TD*%
%TA.AperFunction,ComponentPad*%
%ADD12C,2.150000*%
%TD*%
%TA.AperFunction,ComponentPad*%
%ADD13R,1.600000X1.600000*%
%TD*%
%TA.AperFunction,ComponentPad*%
%ADD14C,1.600000*%
%TD*%
%TA.AperFunction,ComponentPad*%
%ADD15O,1.050000X2.100000*%
%TD*%
%TA.AperFunction,ViaPad*%
%ADD16C,0.800000*%
%TD*%
%TA.AperFunction,Conductor*%
%ADD17C,0.400000*%
%TD*%
%TA.AperFunction,Conductor*%
%ADD18C,0.200000*%
%TD*%
%TA.AperFunction,Conductor*%
%ADD19C,0.254000*%
%TD*%
%TA.AperFunction,Conductor*%
%ADD20C,0.100000*%
%TD*%
G04 APERTURE END LIST*
D10*
X163240000Y-122015000D03*
X163240000Y-119475000D03*
X163240000Y-116935000D03*
X163240000Y-114395000D03*
X163240000Y-111855000D03*
X163240000Y-109315000D03*
X163240000Y-106775000D03*
X163240000Y-104235000D03*
X163240000Y-101695000D03*
X163240000Y-99155000D03*
X163240000Y-96615000D03*
X163240000Y-94075000D03*
X163240000Y-91535000D03*
X163240000Y-88995000D03*
X163240000Y-86455000D03*
X163240000Y-83915000D03*
X163240000Y-81375000D03*
X163240000Y-78835000D03*
X163240000Y-76295000D03*
X163240000Y-73755000D03*
X163240000Y-71215000D03*
D11*
X163240000Y-68675000D03*
D12*
X139180000Y-135130000D03*
X139180000Y-128130000D03*
X144620000Y-128130000D03*
X144620000Y-135130000D03*
D13*
X141900000Y-134400000D03*
D14*
X141900000Y-132400000D03*
X141900000Y-130400000D03*
X141900000Y-128400000D03*
D10*
X138450000Y-111855000D03*
X138450000Y-109315000D03*
X138450000Y-106775000D03*
X138450000Y-104235000D03*
X138450000Y-101695000D03*
X138450000Y-99155000D03*
X138450000Y-96615000D03*
X138450000Y-94075000D03*
X138450000Y-91535000D03*
X138450000Y-88995000D03*
X138450000Y-86455000D03*
X138450000Y-83915000D03*
X138450000Y-81375000D03*
X138450000Y-78835000D03*
X138450000Y-76295000D03*
X138450000Y-73755000D03*
X138450000Y-71215000D03*
D11*
X138450000Y-68675000D03*
D15*
X162180000Y-133900000D03*
X153540000Y-133900000D03*
X162180000Y-129720000D03*
X153540000Y-129720000D03*
D16*
X157811740Y-68200000D03*
X143726900Y-68200000D03*
X139049760Y-114734340D03*
X152731000Y-76250000D03*
X157470004Y-93150000D03*
X142670000Y-106760000D03*
X148220000Y-114220000D03*
X146100000Y-98150000D03*
X155190000Y-97410000D03*
X156930000Y-100150000D03*
X157270000Y-122160000D03*
X155500000Y-124360000D03*
X160710000Y-124570000D03*
X155920000Y-109600000D03*
X149510000Y-80010000D03*
X151010000Y-80010000D03*
X148010000Y-80010000D03*
X152740000Y-74750000D03*
X152730000Y-77750000D03*
X146180000Y-77750000D03*
X146180000Y-76250000D03*
X146180000Y-74750000D03*
X147190000Y-72750000D03*
X149500000Y-72150000D03*
X152070000Y-72530000D03*
X149110000Y-122600000D03*
X144325000Y-125405000D03*
X148595000Y-125415000D03*
X152880000Y-125450000D03*
X145007931Y-95150000D03*
X145007931Y-96332069D03*
X145007931Y-93967931D03*
X145007931Y-88142069D03*
X145007931Y-89667931D03*
X146980000Y-93920000D03*
X152240000Y-96595000D03*
X152260000Y-89920000D03*
X140170002Y-104990000D03*
X144690000Y-111640000D03*
X146457380Y-111646840D03*
X140170000Y-110620000D03*
X155920000Y-98490000D03*
X155890000Y-89579996D03*
X156950000Y-101870000D03*
X158310002Y-94620000D03*
X143550640Y-84701380D03*
X143560800Y-83200240D03*
X143560800Y-81699100D03*
X160920000Y-121070000D03*
X157584140Y-83197700D03*
X157584140Y-81699100D03*
X157584140Y-80197960D03*
X161714980Y-123075016D03*
D17*
X145007931Y-95150000D02*
X145007931Y-96332069D01*
X145007931Y-93967931D02*
X145007931Y-95150000D01*
X145007931Y-93967931D02*
X145007931Y-89667931D01*
X145007931Y-89667931D02*
X145007931Y-89667931D01*
X145007931Y-89667931D02*
X145007931Y-88142069D01*
X145055862Y-93920000D02*
X145007931Y-93967931D01*
X146980000Y-93920000D02*
X145055862Y-93920000D01*
D18*
X152190000Y-96545000D02*
X152240000Y-96595000D01*
X152240000Y-96595000D02*
X152240000Y-89940000D01*
X152240000Y-89940000D02*
X152260000Y-89920000D01*
X146450540Y-111640000D02*
X146457380Y-111646840D01*
X144690000Y-111640000D02*
X146450540Y-111640000D01*
X140170002Y-110619998D02*
X140170000Y-110620000D01*
X140170002Y-104990000D02*
X140170002Y-110619998D01*
X155920000Y-89609996D02*
X155890000Y-89579996D01*
X155920000Y-98490000D02*
X155920000Y-89609996D01*
X158310002Y-100509998D02*
X158310002Y-94620000D01*
X156950000Y-101870000D02*
X158310002Y-100509998D01*
X141953700Y-84696300D02*
X143560800Y-84696300D01*
X141538960Y-85111040D02*
X141953700Y-84696300D01*
X141538960Y-90986040D02*
X141538960Y-85111040D01*
X138450000Y-94075000D02*
X141538960Y-90986040D01*
X142413754Y-83200240D02*
X143555720Y-83200240D01*
X141080011Y-84533983D02*
X142413754Y-83200240D01*
X141080011Y-88904989D02*
X141080011Y-84533983D01*
X138450000Y-91535000D02*
X141080011Y-88904989D01*
X138450000Y-88995000D02*
X140680000Y-86765000D01*
X140680000Y-86765000D02*
X140680000Y-83884675D01*
X140680000Y-83884675D02*
X142865575Y-81699100D01*
X142865575Y-81699100D02*
X143431260Y-81699100D01*
X160920000Y-116715000D02*
X160920000Y-121070000D01*
X163240000Y-114395000D02*
X160920000Y-116715000D01*
X163250000Y-91525000D02*
X163250000Y-90847300D01*
X160325000Y-88620000D02*
X163240000Y-91535000D01*
X160325000Y-84200000D02*
X160325000Y-88620000D01*
X157584140Y-83197700D02*
X159322700Y-83197700D01*
X159322700Y-83197700D02*
X160325000Y-84200000D01*
X160900000Y-82925000D02*
X160900000Y-86655000D01*
X157584140Y-81699100D02*
X159674100Y-81699100D01*
X159674100Y-81699100D02*
X160900000Y-82925000D01*
X160900000Y-86655000D02*
X163240000Y-88995000D01*
X161550000Y-82100000D02*
X161550000Y-84765000D01*
X161550000Y-84765000D02*
X163240000Y-86455000D01*
X157584140Y-80197960D02*
X159647960Y-80197960D01*
X159647960Y-80197960D02*
X161550000Y-82100000D01*
X161714980Y-118460020D02*
X161714980Y-123075016D01*
X163240000Y-116935000D02*
X161714980Y-118460020D01*
D19*
X164115000Y-70013662D02*
X163943411Y-69899010D01*
X163673158Y-69787068D01*
X163386260Y-69730000D01*
X163093740Y-69730000D01*
X162806842Y-69787068D01*
X162536589Y-69899010D01*
X162293368Y-70061525D01*
X162086525Y-70268368D01*
X161924010Y-70511589D01*
X161812068Y-70781842D01*
X161755000Y-71068740D01*
X161755000Y-71361260D01*
X161812068Y-71648158D01*
X161924010Y-71918411D01*
X162086525Y-72161632D01*
X162293368Y-72368475D01*
X162467760Y-72485000D01*
X162293368Y-72601525D01*
X162086525Y-72808368D01*
X161924010Y-73051589D01*
X161812068Y-73321842D01*
X161755000Y-73608740D01*
X161755000Y-73901260D01*
X161812068Y-74188158D01*
X161924010Y-74458411D01*
X162086525Y-74701632D01*
X162293368Y-74908475D01*
X162467760Y-75025000D01*
X162293368Y-75141525D01*
X162086525Y-75348368D01*
X161924010Y-75591589D01*
X161812068Y-75861842D01*
X161755000Y-76148740D01*
X161755000Y-76441260D01*
X161812068Y-76728158D01*
X161924010Y-76998411D01*
X162086525Y-77241632D01*
X162293368Y-77448475D01*
X162467760Y-77565000D01*
X162293368Y-77681525D01*
X162086525Y-77888368D01*
X161924010Y-78131589D01*
X161812068Y-78401842D01*
X161755000Y-78688740D01*
X161755000Y-78981260D01*
X161812068Y-79268158D01*
X161924010Y-79538411D01*
X162086525Y-79781632D01*
X162293368Y-79988475D01*
X162467760Y-80105000D01*
X162293368Y-80221525D01*
X162086525Y-80428368D01*
X161924010Y-80671589D01*
X161812068Y-80941842D01*
X161755000Y-81228740D01*
X161755000Y-81265553D01*
X160193218Y-79703772D01*
X160170198Y-79675722D01*
X160058280Y-79583873D01*
X159930593Y-79515623D01*
X159792045Y-79473595D01*
X159684065Y-79462960D01*
X159647960Y-79459404D01*
X159611855Y-79462960D01*
X158312851Y-79462960D01*
X158243914Y-79394023D01*
X158074396Y-79280755D01*
X157886038Y-79202734D01*
X157686079Y-79162960D01*
X157482201Y-79162960D01*
X157282242Y-79202734D01*
X157093884Y-79280755D01*
X156924366Y-79394023D01*
X156780203Y-79538186D01*
X156666935Y-79707704D01*
X156588914Y-79896062D01*
X156549140Y-80096021D01*
X156549140Y-80299899D01*
X156588914Y-80499858D01*
X156666935Y-80688216D01*
X156780203Y-80857734D01*
X156870999Y-80948530D01*
X156780203Y-81039326D01*
X156666935Y-81208844D01*
X156588914Y-81397202D01*
X156549140Y-81597161D01*
X156549140Y-81801039D01*
X156588914Y-82000998D01*
X156666935Y-82189356D01*
X156780203Y-82358874D01*
X156869729Y-82448400D01*
X156780203Y-82537926D01*
X156666935Y-82707444D01*
X156588914Y-82895802D01*
X156549140Y-83095761D01*
X156549140Y-83299639D01*
X156588914Y-83499598D01*
X156666935Y-83687956D01*
X156780203Y-83857474D01*
X156924366Y-84001637D01*
X157093884Y-84114905D01*
X157282242Y-84192926D01*
X157482201Y-84232700D01*
X157686079Y-84232700D01*
X157886038Y-84192926D01*
X158074396Y-84114905D01*
X158243914Y-84001637D01*
X158312851Y-83932700D01*
X159018254Y-83932700D01*
X159590000Y-84504447D01*
X159590001Y-88583885D01*
X159586444Y-88620000D01*
X159600635Y-88764085D01*
X159639669Y-88892759D01*
X159642664Y-88902633D01*
X159710914Y-89030320D01*
X159802763Y-89142238D01*
X159830808Y-89165254D01*
X161804656Y-91139103D01*
X161755000Y-91388740D01*
X161755000Y-91681260D01*
X161812068Y-91968158D01*
X161924010Y-92238411D01*
X162086525Y-92481632D01*
X162293368Y-92688475D01*
X162467760Y-92805000D01*
X162293368Y-92921525D01*
X162086525Y-93128368D01*
X161924010Y-93371589D01*
X161812068Y-93641842D01*
X161755000Y-93928740D01*
X161755000Y-94221260D01*
X161812068Y-94508158D01*
X161924010Y-94778411D01*
X162086525Y-95021632D01*
X162293368Y-95228475D01*
X162467760Y-95345000D01*
X162293368Y-95461525D01*
X162086525Y-95668368D01*
X161924010Y-95911589D01*
X161812068Y-96181842D01*
X161755000Y-96468740D01*
X161755000Y-96761260D01*
X161812068Y-97048158D01*
X161924010Y-97318411D01*
X162086525Y-97561632D01*
X162293368Y-97768475D01*
X162467760Y-97885000D01*
X162293368Y-98001525D01*
X162086525Y-98208368D01*
X161924010Y-98451589D01*
X161812068Y-98721842D01*
X161755000Y-99008740D01*
X161755000Y-99301260D01*
X161812068Y-99588158D01*
X161924010Y-99858411D01*
X162086525Y-100101632D01*
X162293368Y-100308475D01*
X162467760Y-100425000D01*
X162293368Y-100541525D01*
X162086525Y-100748368D01*
X161924010Y-100991589D01*
X161812068Y-101261842D01*
X161755000Y-101548740D01*
X161755000Y-101841260D01*
X161812068Y-102128158D01*
X161924010Y-102398411D01*
X162086525Y-102641632D01*
X162293368Y-102848475D01*
X162467760Y-102965000D01*
X162293368Y-103081525D01*
X162086525Y-103288368D01*
X161924010Y-103531589D01*
X161812068Y-103801842D01*
X161755000Y-104088740D01*
X161755000Y-104381260D01*
X161812068Y-104668158D01*
X161924010Y-104938411D01*
X162086525Y-105181632D01*
X162293368Y-105388475D01*
X162467760Y-105505000D01*
X162293368Y-105621525D01*
X162086525Y-105828368D01*
X161924010Y-106071589D01*
X161812068Y-106341842D01*
X161755000Y-106628740D01*
X161755000Y-106921260D01*
X161812068Y-107208158D01*
X161924010Y-107478411D01*
X162086525Y-107721632D01*
X162293368Y-107928475D01*
X162536589Y-108090990D01*
X162806842Y-108202932D01*
X163093740Y-108260000D01*
X163386260Y-108260000D01*
X163673158Y-108202932D01*
X163943411Y-108090990D01*
X164115001Y-107976338D01*
X164115001Y-110653662D01*
X163943411Y-110539010D01*
X163673158Y-110427068D01*
X163386260Y-110370000D01*
X163093740Y-110370000D01*
X162806842Y-110427068D01*
X162536589Y-110539010D01*
X162293368Y-110701525D01*
X162086525Y-110908368D01*
X161924010Y-111151589D01*
X161812068Y-111421842D01*
X161755000Y-111708740D01*
X161755000Y-112001260D01*
X161812068Y-112288158D01*
X161924010Y-112558411D01*
X162086525Y-112801632D01*
X162293368Y-113008475D01*
X162467760Y-113125000D01*
X162293368Y-113241525D01*
X162086525Y-113448368D01*
X161924010Y-113691589D01*
X161812068Y-113961842D01*
X161755000Y-114248740D01*
X161755000Y-114541260D01*
X161804656Y-114790897D01*
X160425808Y-116169746D01*
X160397762Y-116192763D01*
X160305913Y-116304681D01*
X160237663Y-116432368D01*
X160209660Y-116524681D01*
X160195635Y-116570915D01*
X160181444Y-116715000D01*
X160185000Y-116751105D01*
X160185001Y-120341288D01*
X160116063Y-120410226D01*
X160002795Y-120579744D01*
X159924774Y-120768102D01*
X159885000Y-120968061D01*
X159885000Y-121171939D01*
X159924774Y-121371898D01*
X160002795Y-121560256D01*
X160116063Y-121729774D01*
X160260226Y-121873937D01*
X160429744Y-121987205D01*
X160618102Y-122065226D01*
X160818061Y-122105000D01*
X160979981Y-122105000D01*
X160979981Y-122346304D01*
X160911043Y-122415242D01*
X160797775Y-122584760D01*
X160719754Y-122773118D01*
X160679980Y-122973077D01*
X160679980Y-123176955D01*
X160719754Y-123376914D01*
X160797775Y-123565272D01*
X160911043Y-123734790D01*
X161055206Y-123878953D01*
X161224724Y-123992221D01*
X161413082Y-124070242D01*
X161613041Y-124110016D01*
X161816919Y-124110016D01*
X162016878Y-124070242D01*
X162205236Y-123992221D01*
X162374754Y-123878953D01*
X162518917Y-123734790D01*
X162632185Y-123565272D01*
X162701017Y-123399098D01*
X162806842Y-123442932D01*
X163093740Y-123500000D01*
X163386260Y-123500000D01*
X163673158Y-123442932D01*
X163943411Y-123330990D01*
X164115001Y-123216337D01*
X164115001Y-136415000D01*
X137585000Y-136415000D01*
X137585000Y-133600000D01*
X140461928Y-133600000D01*
X140461928Y-135200000D01*
X140474188Y-135324482D01*
X140510498Y-135444180D01*
X140569463Y-135554494D01*
X140648815Y-135651185D01*
X140745506Y-135730537D01*
X140855820Y-135789502D01*
X140975518Y-135825812D01*
X141100000Y-135838072D01*
X142700000Y-135838072D01*
X142824482Y-135825812D01*
X142944180Y-135789502D01*
X143054494Y-135730537D01*
X143151185Y-135651185D01*
X143230537Y-135554494D01*
X143289502Y-135444180D01*
X143325812Y-135324482D01*
X143338072Y-135200000D01*
X143338072Y-133600000D01*
X143325812Y-133475518D01*
X143289502Y-133355820D01*
X143230537Y-133245506D01*
X143151185Y-133148815D01*
X143134607Y-133135210D01*
X143171680Y-133079727D01*
X143279853Y-132818574D01*
X143335000Y-132541335D01*
X143335000Y-132258665D01*
X143279853Y-131981426D01*
X143171680Y-131720273D01*
X143014637Y-131485241D01*
X142929396Y-131400000D01*
X143014637Y-131314759D01*
X143171680Y-131079727D01*
X143279853Y-130818574D01*
X143335000Y-130541335D01*
X143335000Y-130258665D01*
X143313979Y-130152986D01*
X153985000Y-130152986D01*
X153985000Y-130347014D01*
X154022853Y-130537314D01*
X154097104Y-130716572D01*
X154204901Y-130877901D01*
X154342099Y-131015099D01*
X154503428Y-131122896D01*
X154682686Y-131197147D01*
X154872986Y-131235000D01*
X155067014Y-131235000D01*
X155257314Y-131197147D01*
X155436572Y-131122896D01*
X155597901Y-131015099D01*
X155735099Y-130877901D01*
X155842896Y-130716572D01*
X155917147Y-130537314D01*
X155955000Y-130347014D01*
X155955000Y-130152986D01*
X159765000Y-130152986D01*
X159765000Y-130347014D01*
X159802853Y-130537314D01*
X159877104Y-130716572D01*
X159984901Y-130877901D01*
X160122099Y-131015099D01*
X160283428Y-131122896D01*
X160462686Y-131197147D01*
X160652986Y-131235000D01*
X160847014Y-131235000D01*
X161037314Y-131197147D01*
X161216572Y-131122896D01*
X161377901Y-131015099D01*
X161515099Y-130877901D01*
X161622896Y-130716572D01*
X161697147Y-130537314D01*
X161735000Y-130347014D01*
X161735000Y-130152986D01*
X161697147Y-129962686D01*
X161622896Y-129783428D01*
X161515099Y-129622099D01*
X161377901Y-129484901D01*
X161216572Y-129377104D01*
X161037314Y-129302853D01*
X160847014Y-129265000D01*
X160652986Y-129265000D01*
X160462686Y-129302853D01*
X160283428Y-129377104D01*
X160122099Y-129484901D01*
X159984901Y-129622099D01*
X159877104Y-129783428D01*
X159802853Y-129962686D01*
X159765000Y-130152986D01*
X155955000Y-130152986D01*
X155917147Y-129962686D01*
X155842896Y-129783428D01*
X155735099Y-129622099D01*
X155597901Y-129484901D01*
X155436572Y-129377104D01*
X155257314Y-129302853D01*
X155067014Y-129265000D01*
X154872986Y-129265000D01*
X154682686Y-129302853D01*
X154503428Y-129377104D01*
X154342099Y-129484901D01*
X154204901Y-129622099D01*
X154097104Y-129783428D01*
X154022853Y-129962686D01*
X153985000Y-130152986D01*
X143313979Y-130152986D01*
X143279853Y-129981426D01*
X143171680Y-129720273D01*
X143014637Y-129485241D01*
X142814759Y-129285363D01*
X142579727Y-129128320D01*
X142318574Y-129020147D01*
X142041335Y-128965000D01*
X141758665Y-128965000D01*
X141481426Y-129020147D01*
X141220273Y-129128320D01*
X140985241Y-129285363D01*
X140785363Y-129485241D01*
X140628320Y-129720273D01*
X140520147Y-129981426D01*
X140465000Y-130258665D01*
X140465000Y-130541335D01*
X140520147Y-130818574D01*
X140628320Y-131079727D01*
X140785363Y-131314759D01*
X140870604Y-131400000D01*
X140785363Y-131485241D01*
X140628320Y-131720273D01*
X140520147Y-131981426D01*
X140465000Y-132258665D01*
X140465000Y-132541335D01*
X140520147Y-132818574D01*
X140628320Y-133079727D01*
X140665393Y-133135210D01*
X140648815Y-133148815D01*
X140569463Y-133245506D01*
X140510498Y-133355820D01*
X140474188Y-133475518D01*
X140461928Y-133600000D01*
X137585000Y-133600000D01*
X137585000Y-113063020D01*
X137746589Y-113170990D01*
X138016842Y-113282932D01*
X138303740Y-113340000D01*
X138596260Y-113340000D01*
X138883158Y-113282932D01*
X139153411Y-113170990D01*
X139396632Y-113008475D01*
X139603475Y-112801632D01*
X139765990Y-112558411D01*
X139877932Y-112288158D01*
X139935000Y-112001260D01*
X139935000Y-111708740D01*
X139918388Y-111625229D01*
X140068061Y-111655000D01*
X140271939Y-111655000D01*
X140471898Y-111615226D01*
X140658189Y-111538061D01*
X143655000Y-111538061D01*
X143655000Y-111741939D01*
X143694774Y-111941898D01*
X143772795Y-112130256D01*
X143886063Y-112299774D01*
X144030226Y-112443937D01*
X144199744Y-112557205D01*
X144388102Y-112635226D01*
X144588061Y-112675000D01*
X144791939Y-112675000D01*
X144991898Y-112635226D01*
X145180256Y-112557205D01*
X145349774Y-112443937D01*
X145418711Y-112375000D01*
X145721829Y-112375000D01*
X145797606Y-112450777D01*
X145967124Y-112564045D01*
X146155482Y-112642066D01*
X146355441Y-112681840D01*
X146559319Y-112681840D01*
X146759278Y-112642066D01*
X146947636Y-112564045D01*
X147117154Y-112450777D01*
X147261317Y-112306614D01*
X147374585Y-112137096D01*
X147452606Y-111948738D01*
X147492380Y-111748779D01*
X147492380Y-111544901D01*
X147452606Y-111344942D01*
X147374585Y-111156584D01*
X147261317Y-110987066D01*
X147117154Y-110842903D01*
X146947636Y-110729635D01*
X146759278Y-110651614D01*
X146559319Y-110611840D01*
X146355441Y-110611840D01*
X146155482Y-110651614D01*
X145967124Y-110729635D01*
X145797606Y-110842903D01*
X145735509Y-110905000D01*
X145418711Y-110905000D01*
X145349774Y-110836063D01*
X145180256Y-110722795D01*
X144991898Y-110644774D01*
X144791939Y-110605000D01*
X144588061Y-110605000D01*
X144388102Y-110644774D01*
X144199744Y-110722795D01*
X144030226Y-110836063D01*
X143886063Y-110980226D01*
X143772795Y-111149744D01*
X143694774Y-111338102D01*
X143655000Y-111538061D01*
X140658189Y-111538061D01*
X140660256Y-111537205D01*
X140829774Y-111423937D01*
X140973937Y-111279774D01*
X141087205Y-111110256D01*
X141165226Y-110921898D01*
X141205000Y-110721939D01*
X141205000Y-110518061D01*
X141165226Y-110318102D01*
X141087205Y-110129744D01*
X140973937Y-109960226D01*
X140905002Y-109891291D01*
X140905002Y-105718711D01*
X140973939Y-105649774D01*
X141087207Y-105480256D01*
X141165228Y-105291898D01*
X141205002Y-105091939D01*
X141205002Y-104888061D01*
X141165228Y-104688102D01*
X141087207Y-104499744D01*
X140973939Y-104330226D01*
X140829776Y-104186063D01*
X140660258Y-104072795D01*
X140471900Y-103994774D01*
X140271941Y-103955000D01*
X140068063Y-103955000D01*
X139914474Y-103985550D01*
X139877932Y-103801842D01*
X139765990Y-103531589D01*
X139603475Y-103288368D01*
X139396632Y-103081525D01*
X139222240Y-102965000D01*
X139396632Y-102848475D01*
X139603475Y-102641632D01*
X139765990Y-102398411D01*
X139877932Y-102128158D01*
X139935000Y-101841260D01*
X139935000Y-101768061D01*
X155915000Y-101768061D01*
X155915000Y-101971939D01*
X155954774Y-102171898D01*
X156032795Y-102360256D01*
X156146063Y-102529774D01*
X156290226Y-102673937D01*
X156459744Y-102787205D01*
X156648102Y-102865226D01*
X156848061Y-102905000D01*
X157051939Y-102905000D01*
X157251898Y-102865226D01*
X157440256Y-102787205D01*
X157609774Y-102673937D01*
X157753937Y-102529774D01*
X157867205Y-102360256D01*
X157945226Y-102171898D01*
X157985000Y-101971939D01*
X157985000Y-101874446D01*
X158804199Y-101055248D01*
X158832239Y-101032236D01*
X158855252Y-101004195D01*
X158855255Y-101004192D01*
X158924088Y-100920319D01*
X158924089Y-100920318D01*
X158992339Y-100792631D01*
X159034367Y-100654083D01*
X159045002Y-100546103D01*
X159045002Y-100546094D01*
X159048557Y-100509999D01*
X159045002Y-100473904D01*
X159045002Y-95348711D01*
X159113939Y-95279774D01*
X159227207Y-95110256D01*
X159305228Y-94921898D01*
X159345002Y-94721939D01*
X159345002Y-94518061D01*
X159305228Y-94318102D01*
X159227207Y-94129744D01*
X159113939Y-93960226D01*
X158969776Y-93816063D01*
X158800258Y-93702795D01*
X158611900Y-93624774D01*
X158411941Y-93585000D01*
X158208063Y-93585000D01*
X158008104Y-93624774D01*
X157819746Y-93702795D01*
X157650228Y-93816063D01*
X157506065Y-93960226D01*
X157392797Y-94129744D01*
X157314776Y-94318102D01*
X157275002Y-94518061D01*
X157275002Y-94721939D01*
X157314776Y-94921898D01*
X157392797Y-95110256D01*
X157506065Y-95279774D01*
X157575003Y-95348712D01*
X157575002Y-100205551D01*
X156945554Y-100835000D01*
X156848061Y-100835000D01*
X156648102Y-100874774D01*
X156459744Y-100952795D01*
X156290226Y-101066063D01*
X156146063Y-101210226D01*
X156032795Y-101379744D01*
X155954774Y-101568102D01*
X155915000Y-101768061D01*
X139935000Y-101768061D01*
X139935000Y-101548740D01*
X139877932Y-101261842D01*
X139765990Y-100991589D01*
X139603475Y-100748368D01*
X139396632Y-100541525D01*
X139222240Y-100425000D01*
X139396632Y-100308475D01*
X139603475Y-100101632D01*
X139765990Y-99858411D01*
X139877932Y-99588158D01*
X139935000Y-99301260D01*
X139935000Y-99008740D01*
X139877932Y-98721842D01*
X139765990Y-98451589D01*
X139603475Y-98208368D01*
X139396632Y-98001525D01*
X139222240Y-97885000D01*
X139396632Y-97768475D01*
X139603475Y-97561632D01*
X139765990Y-97318411D01*
X139877932Y-97048158D01*
X139935000Y-96761260D01*
X139935000Y-96468740D01*
X139877932Y-96181842D01*
X139765990Y-95911589D01*
X139603475Y-95668368D01*
X139396632Y-95461525D01*
X139222240Y-95345000D01*
X139396632Y-95228475D01*
X139603475Y-95021632D01*
X139765990Y-94778411D01*
X139877932Y-94508158D01*
X139935000Y-94221260D01*
X139935000Y-93928740D01*
X139885344Y-93679103D01*
X142033157Y-91531290D01*
X142061197Y-91508278D01*
X142084210Y-91480237D01*
X142084213Y-91480234D01*
X142153046Y-91396361D01*
X142153047Y-91396360D01*
X142221297Y-91268673D01*
X142263325Y-91130125D01*
X142273960Y-91022145D01*
X142273960Y-91022138D01*
X142277515Y-90986041D01*
X142273960Y-90949944D01*
X142273960Y-88040130D01*
X143972931Y-88040130D01*
X143972931Y-88244008D01*
X144012705Y-88443967D01*
X144090726Y-88632325D01*
X144172932Y-88755355D01*
X144172931Y-89054646D01*
X144090726Y-89177675D01*
X144012705Y-89366033D01*
X143972931Y-89565992D01*
X143972931Y-89769870D01*
X144012705Y-89969829D01*
X144090726Y-90158187D01*
X144172932Y-90281217D01*
X144172931Y-93354646D01*
X144090726Y-93477675D01*
X144012705Y-93666033D01*
X143972931Y-93865992D01*
X143972931Y-94069870D01*
X144012705Y-94269829D01*
X144090726Y-94458187D01*
X144158064Y-94558965D01*
X144090726Y-94659744D01*
X144012705Y-94848102D01*
X143972931Y-95048061D01*
X143972931Y-95251939D01*
X144012705Y-95451898D01*
X144090726Y-95640256D01*
X144158064Y-95741035D01*
X144090726Y-95841813D01*
X144012705Y-96030171D01*
X143972931Y-96230130D01*
X143972931Y-96434008D01*
X144012705Y-96633967D01*
X144090726Y-96822325D01*
X144203994Y-96991843D01*
X144348157Y-97136006D01*
X144517675Y-97249274D01*
X144706033Y-97327295D01*
X144905992Y-97367069D01*
X145109870Y-97367069D01*
X145309829Y-97327295D01*
X145498187Y-97249274D01*
X145667705Y-97136006D01*
X145811868Y-96991843D01*
X145925136Y-96822325D01*
X146003157Y-96633967D01*
X146031184Y-96493061D01*
X151205000Y-96493061D01*
X151205000Y-96696939D01*
X151244774Y-96896898D01*
X151322795Y-97085256D01*
X151436063Y-97254774D01*
X151580226Y-97398937D01*
X151749744Y-97512205D01*
X151938102Y-97590226D01*
X152138061Y-97630000D01*
X152341939Y-97630000D01*
X152541898Y-97590226D01*
X152730256Y-97512205D01*
X152899774Y-97398937D01*
X153043937Y-97254774D01*
X153157205Y-97085256D01*
X153235226Y-96896898D01*
X153275000Y-96696939D01*
X153275000Y-96493061D01*
X153235226Y-96293102D01*
X153157205Y-96104744D01*
X153043937Y-95935226D01*
X152975000Y-95866289D01*
X152975000Y-90668711D01*
X153063937Y-90579774D01*
X153177205Y-90410256D01*
X153255226Y-90221898D01*
X153295000Y-90021939D01*
X153295000Y-89818061D01*
X153255226Y-89618102D01*
X153197218Y-89478057D01*
X154855000Y-89478057D01*
X154855000Y-89681935D01*
X154894774Y-89881894D01*
X154972795Y-90070252D01*
X155086063Y-90239770D01*
X155185001Y-90338708D01*
X155185000Y-97761289D01*
X155116063Y-97830226D01*
X155002795Y-97999744D01*
X154924774Y-98188102D01*
X154885000Y-98388061D01*
X154885000Y-98591939D01*
X154924774Y-98791898D01*
X155002795Y-98980256D01*
X155116063Y-99149774D01*
X155260226Y-99293937D01*
X155429744Y-99407205D01*
X155618102Y-99485226D01*
X155818061Y-99525000D01*
X156021939Y-99525000D01*
X156221898Y-99485226D01*
X156410256Y-99407205D01*
X156579774Y-99293937D01*
X156723937Y-99149774D01*
X156837205Y-98980256D01*
X156915226Y-98791898D01*
X156955000Y-98591939D01*
X156955000Y-98388061D01*
X156915226Y-98188102D01*
X156837205Y-97999744D01*
X156723937Y-97830226D01*
X156655000Y-97761289D01*
X156655000Y-90278707D01*
X156693937Y-90239770D01*
X156807205Y-90070252D01*
X156885226Y-89881894D01*
X156925000Y-89681935D01*
X156925000Y-89478057D01*
X156885226Y-89278098D01*
X156807205Y-89089740D01*
X156693937Y-88920222D01*
X156549774Y-88776059D01*
X156380256Y-88662791D01*
X156191898Y-88584770D01*
X155991939Y-88544996D01*
X155788061Y-88544996D01*
X155588102Y-88584770D01*
X155399744Y-88662791D01*
X155230226Y-88776059D01*
X155086063Y-88920222D01*
X154972795Y-89089740D01*
X154894774Y-89278098D01*
X154855000Y-89478057D01*
X153197218Y-89478057D01*
X153177205Y-89429744D01*
X153063937Y-89260226D01*
X152919774Y-89116063D01*
X152750256Y-89002795D01*
X152561898Y-88924774D01*
X152361939Y-88885000D01*
X152158061Y-88885000D01*
X151958102Y-88924774D01*
X151769744Y-89002795D01*
X151600226Y-89116063D01*
X151456063Y-89260226D01*
X151342795Y-89429744D01*
X151264774Y-89618102D01*
X151225000Y-89818061D01*
X151225000Y-90021939D01*
X151264774Y-90221898D01*
X151342795Y-90410256D01*
X151456063Y-90579774D01*
X151505001Y-90628712D01*
X151505000Y-95866289D01*
X151436063Y-95935226D01*
X151322795Y-96104744D01*
X151244774Y-96293102D01*
X151205000Y-96493061D01*
X146031184Y-96493061D01*
X146042931Y-96434008D01*
X146042931Y-96230130D01*
X146003157Y-96030171D01*
X145925136Y-95841813D01*
X145857798Y-95741035D01*
X145925136Y-95640256D01*
X146003157Y-95451898D01*
X146042931Y-95251939D01*
X146042931Y-95048061D01*
X146003157Y-94848102D01*
X145964593Y-94755000D01*
X146366715Y-94755000D01*
X146489744Y-94837205D01*
X146678102Y-94915226D01*
X146878061Y-94955000D01*
X147081939Y-94955000D01*
X147281898Y-94915226D01*
X147470256Y-94837205D01*
X147639774Y-94723937D01*
X147783937Y-94579774D01*
X147897205Y-94410256D01*
X147975226Y-94221898D01*
X148015000Y-94021939D01*
X148015000Y-93818061D01*
X147975226Y-93618102D01*
X147897205Y-93429744D01*
X147783937Y-93260226D01*
X147639774Y-93116063D01*
X147470256Y-93002795D01*
X147281898Y-92924774D01*
X147081939Y-92885000D01*
X146878061Y-92885000D01*
X146678102Y-92924774D01*
X146489744Y-93002795D01*
X146366715Y-93085000D01*
X145842931Y-93085000D01*
X145842931Y-90281216D01*
X145925136Y-90158187D01*
X146003157Y-89969829D01*
X146042931Y-89769870D01*
X146042931Y-89565992D01*
X146003157Y-89366033D01*
X145925136Y-89177675D01*
X145842931Y-89054646D01*
X145842931Y-88755354D01*
X145925136Y-88632325D01*
X146003157Y-88443967D01*
X146042931Y-88244008D01*
X146042931Y-88040130D01*
X146003157Y-87840171D01*
X145925136Y-87651813D01*
X145811868Y-87482295D01*
X145667705Y-87338132D01*
X145498187Y-87224864D01*
X145309829Y-87146843D01*
X145109870Y-87107069D01*
X144905992Y-87107069D01*
X144706033Y-87146843D01*
X144517675Y-87224864D01*
X144348157Y-87338132D01*
X144203994Y-87482295D01*
X144090726Y-87651813D01*
X144012705Y-87840171D01*
X143972931Y-88040130D01*
X142273960Y-88040130D01*
X142273960Y-85431300D01*
X142816849Y-85431300D01*
X142890866Y-85505317D01*
X143060384Y-85618585D01*
X143248742Y-85696606D01*
X143448701Y-85736380D01*
X143652579Y-85736380D01*
X143852538Y-85696606D01*
X144040896Y-85618585D01*
X144210414Y-85505317D01*
X144354577Y-85361154D01*
X144467845Y-85191636D01*
X144545866Y-85003278D01*
X144585640Y-84803319D01*
X144585640Y-84599441D01*
X144545866Y-84399482D01*
X144467845Y-84211124D01*
X144354577Y-84041606D01*
X144268861Y-83955890D01*
X144364737Y-83860014D01*
X144478005Y-83690496D01*
X144556026Y-83502138D01*
X144595800Y-83302179D01*
X144595800Y-83098301D01*
X144556026Y-82898342D01*
X144478005Y-82709984D01*
X144364737Y-82540466D01*
X144273941Y-82449670D01*
X144364737Y-82358874D01*
X144478005Y-82189356D01*
X144556026Y-82000998D01*
X144595800Y-81801039D01*
X144595800Y-81597161D01*
X144556026Y-81397202D01*
X144478005Y-81208844D01*
X144364737Y-81039326D01*
X144220574Y-80895163D01*
X144051056Y-80781895D01*
X143862698Y-80703874D01*
X143662739Y-80664100D01*
X143458861Y-80664100D01*
X143258902Y-80703874D01*
X143070544Y-80781895D01*
X142901026Y-80895163D01*
X142832375Y-80963814D01*
X142829470Y-80964100D01*
X142721490Y-80974735D01*
X142582942Y-81016763D01*
X142455255Y-81085013D01*
X142343337Y-81176862D01*
X142320321Y-81204907D01*
X140185808Y-83339421D01*
X140157763Y-83362437D01*
X140065914Y-83474355D01*
X140031315Y-83539086D01*
X139997664Y-83602042D01*
X139955635Y-83740590D01*
X139941444Y-83884675D01*
X139945001Y-83920790D01*
X139945000Y-86460553D01*
X139935000Y-86470553D01*
X139935000Y-86308740D01*
X139877932Y-86021842D01*
X139765990Y-85751589D01*
X139603475Y-85508368D01*
X139396632Y-85301525D01*
X139222240Y-85185000D01*
X139396632Y-85068475D01*
X139603475Y-84861632D01*
X139765990Y-84618411D01*
X139877932Y-84348158D01*
X139935000Y-84061260D01*
X139935000Y-83768740D01*
X139877932Y-83481842D01*
X139765990Y-83211589D01*
X139603475Y-82968368D01*
X139396632Y-82761525D01*
X139222240Y-82645000D01*
X139396632Y-82528475D01*
X139603475Y-82321632D01*
X139765990Y-82078411D01*
X139877932Y-81808158D01*
X139935000Y-81521260D01*
X139935000Y-81228740D01*
X139877932Y-80941842D01*
X139765990Y-80671589D01*
X139603475Y-80428368D01*
X139396632Y-80221525D01*
X139222240Y-80105000D01*
X139396632Y-79988475D01*
X139603475Y-79781632D01*
X139765990Y-79538411D01*
X139877932Y-79268158D01*
X139935000Y-78981260D01*
X139935000Y-78688740D01*
X139877932Y-78401842D01*
X139765990Y-78131589D01*
X139603475Y-77888368D01*
X139396632Y-77681525D01*
X139222240Y-77565000D01*
X139396632Y-77448475D01*
X139603475Y-77241632D01*
X139765990Y-76998411D01*
X139877932Y-76728158D01*
X139935000Y-76441260D01*
X139935000Y-76148740D01*
X139877932Y-75861842D01*
X139765990Y-75591589D01*
X139603475Y-75348368D01*
X139396632Y-75141525D01*
X139222240Y-75025000D01*
X139396632Y-74908475D01*
X139603475Y-74701632D01*
X139765990Y-74458411D01*
X139877932Y-74188158D01*
X139935000Y-73901260D01*
X139935000Y-73608740D01*
X139877932Y-73321842D01*
X139765990Y-73051589D01*
X139603475Y-72808368D01*
X139396632Y-72601525D01*
X139222240Y-72485000D01*
X139396632Y-72368475D01*
X139603475Y-72161632D01*
X139765990Y-71918411D01*
X139877932Y-71648158D01*
X139935000Y-71361260D01*
X139935000Y-71068740D01*
X139877932Y-70781842D01*
X139765990Y-70511589D01*
X139603475Y-70268368D01*
X139396632Y-70061525D01*
X139153411Y-69899010D01*
X138883158Y-69787068D01*
X138596260Y-69730000D01*
X138303740Y-69730000D01*
X138016842Y-69787068D01*
X137746589Y-69899010D01*
X137585000Y-70006980D01*
X137585000Y-67785000D01*
X164115000Y-67785000D01*
X164115000Y-70013662D01*
%TA.AperFunction,Conductor*%
D20*
G36*
X164115000Y-70013662D02*
G01*
X163943411Y-69899010D01*
X163673158Y-69787068D01*
X163386260Y-69730000D01*
X163093740Y-69730000D01*
X162806842Y-69787068D01*
X162536589Y-69899010D01*
X162293368Y-70061525D01*
X162086525Y-70268368D01*
X161924010Y-70511589D01*
X161812068Y-70781842D01*
X161755000Y-71068740D01*
X161755000Y-71361260D01*
X161812068Y-71648158D01*
X161924010Y-71918411D01*
X162086525Y-72161632D01*
X162293368Y-72368475D01*
X162467760Y-72485000D01*
X162293368Y-72601525D01*
X162086525Y-72808368D01*
X161924010Y-73051589D01*
X161812068Y-73321842D01*
X161755000Y-73608740D01*
X161755000Y-73901260D01*
X161812068Y-74188158D01*
X161924010Y-74458411D01*
X162086525Y-74701632D01*
X162293368Y-74908475D01*
X162467760Y-75025000D01*
X162293368Y-75141525D01*
X162086525Y-75348368D01*
X161924010Y-75591589D01*
X161812068Y-75861842D01*
X161755000Y-76148740D01*
X161755000Y-76441260D01*
X161812068Y-76728158D01*
X161924010Y-76998411D01*
X162086525Y-77241632D01*
X162293368Y-77448475D01*
X162467760Y-77565000D01*
X162293368Y-77681525D01*
X162086525Y-77888368D01*
X161924010Y-78131589D01*
X161812068Y-78401842D01*
X161755000Y-78688740D01*
X161755000Y-78981260D01*
X161812068Y-79268158D01*
X161924010Y-79538411D01*
X162086525Y-79781632D01*
X162293368Y-79988475D01*
X162467760Y-80105000D01*
X162293368Y-80221525D01*
X162086525Y-80428368D01*
X161924010Y-80671589D01*
X161812068Y-80941842D01*
X161755000Y-81228740D01*
X161755000Y-81265553D01*
X160193218Y-79703772D01*
X160170198Y-79675722D01*
X160058280Y-79583873D01*
X159930593Y-79515623D01*
X159792045Y-79473595D01*
X159684065Y-79462960D01*
X159647960Y-79459404D01*
X159611855Y-79462960D01*
X158312851Y-79462960D01*
X158243914Y-79394023D01*
X158074396Y-79280755D01*
X157886038Y-79202734D01*
X157686079Y-79162960D01*
X157482201Y-79162960D01*
X157282242Y-79202734D01*
X157093884Y-79280755D01*
X156924366Y-79394023D01*
X156780203Y-79538186D01*
X156666935Y-79707704D01*
X156588914Y-79896062D01*
X156549140Y-80096021D01*
X156549140Y-80299899D01*
X156588914Y-80499858D01*
X156666935Y-80688216D01*
X156780203Y-80857734D01*
X156870999Y-80948530D01*
X156780203Y-81039326D01*
X156666935Y-81208844D01*
X156588914Y-81397202D01*
X156549140Y-81597161D01*
X156549140Y-81801039D01*
X156588914Y-82000998D01*
X156666935Y-82189356D01*
X156780203Y-82358874D01*
X156869729Y-82448400D01*
X156780203Y-82537926D01*
X156666935Y-82707444D01*
X156588914Y-82895802D01*
X156549140Y-83095761D01*
X156549140Y-83299639D01*
X156588914Y-83499598D01*
X156666935Y-83687956D01*
X156780203Y-83857474D01*
X156924366Y-84001637D01*
X157093884Y-84114905D01*
X157282242Y-84192926D01*
X157482201Y-84232700D01*
X157686079Y-84232700D01*
X157886038Y-84192926D01*
X158074396Y-84114905D01*
X158243914Y-84001637D01*
X158312851Y-83932700D01*
X159018254Y-83932700D01*
X159590000Y-84504447D01*
X159590001Y-88583885D01*
X159586444Y-88620000D01*
X159600635Y-88764085D01*
X159639669Y-88892759D01*
X159642664Y-88902633D01*
X159710914Y-89030320D01*
X159802763Y-89142238D01*
X159830808Y-89165254D01*
X161804656Y-91139103D01*
X161755000Y-91388740D01*
X161755000Y-91681260D01*
X161812068Y-91968158D01*
X161924010Y-92238411D01*
X162086525Y-92481632D01*
X162293368Y-92688475D01*
X162467760Y-92805000D01*
X162293368Y-92921525D01*
X162086525Y-93128368D01*
X161924010Y-93371589D01*
X161812068Y-93641842D01*
X161755000Y-93928740D01*
X161755000Y-94221260D01*
X161812068Y-94508158D01*
X161924010Y-94778411D01*
X162086525Y-95021632D01*
X162293368Y-95228475D01*
X162467760Y-95345000D01*
X162293368Y-95461525D01*
X162086525Y-95668368D01*
X161924010Y-95911589D01*
X161812068Y-96181842D01*
X161755000Y-96468740D01*
X161755000Y-96761260D01*
X161812068Y-97048158D01*
X161924010Y-97318411D01*
X162086525Y-97561632D01*
X162293368Y-97768475D01*
X162467760Y-97885000D01*
X162293368Y-98001525D01*
X162086525Y-98208368D01*
X161924010Y-98451589D01*
X161812068Y-98721842D01*
X161755000Y-99008740D01*
X161755000Y-99301260D01*
X161812068Y-99588158D01*
X161924010Y-99858411D01*
X162086525Y-100101632D01*
X162293368Y-100308475D01*
X162467760Y-100425000D01*
X162293368Y-100541525D01*
X162086525Y-100748368D01*
X161924010Y-100991589D01*
X161812068Y-101261842D01*
X161755000Y-101548740D01*
X161755000Y-101841260D01*
X161812068Y-102128158D01*
X161924010Y-102398411D01*
X162086525Y-102641632D01*
X162293368Y-102848475D01*
X162467760Y-102965000D01*
X162293368Y-103081525D01*
X162086525Y-103288368D01*
X161924010Y-103531589D01*
X161812068Y-103801842D01*
X161755000Y-104088740D01*
X161755000Y-104381260D01*
X161812068Y-104668158D01*
X161924010Y-104938411D01*
X162086525Y-105181632D01*
X162293368Y-105388475D01*
X162467760Y-105505000D01*
X162293368Y-105621525D01*
X162086525Y-105828368D01*
X161924010Y-106071589D01*
X161812068Y-106341842D01*
X161755000Y-106628740D01*
X161755000Y-106921260D01*
X161812068Y-107208158D01*
X161924010Y-107478411D01*
X162086525Y-107721632D01*
X162293368Y-107928475D01*
X162536589Y-108090990D01*
X162806842Y-108202932D01*
X163093740Y-108260000D01*
X163386260Y-108260000D01*
X163673158Y-108202932D01*
X163943411Y-108090990D01*
X164115001Y-107976338D01*
X164115001Y-110653662D01*
X163943411Y-110539010D01*
X163673158Y-110427068D01*
X163386260Y-110370000D01*
X163093740Y-110370000D01*
X162806842Y-110427068D01*
X162536589Y-110539010D01*
X162293368Y-110701525D01*
X162086525Y-110908368D01*
X161924010Y-111151589D01*
X161812068Y-111421842D01*
X161755000Y-111708740D01*
X161755000Y-112001260D01*
X161812068Y-112288158D01*
X161924010Y-112558411D01*
X162086525Y-112801632D01*
X162293368Y-113008475D01*
X162467760Y-113125000D01*
X162293368Y-113241525D01*
X162086525Y-113448368D01*
X161924010Y-113691589D01*
X161812068Y-113961842D01*
X161755000Y-114248740D01*
X161755000Y-114541260D01*
X161804656Y-114790897D01*
X160425808Y-116169746D01*
X160397762Y-116192763D01*
X160305913Y-116304681D01*
X160237663Y-116432368D01*
X160209660Y-116524681D01*
X160195635Y-116570915D01*
X160181444Y-116715000D01*
X160185000Y-116751105D01*
X160185001Y-120341288D01*
X160116063Y-120410226D01*
X160002795Y-120579744D01*
X159924774Y-120768102D01*
X159885000Y-120968061D01*
X159885000Y-121171939D01*
X159924774Y-121371898D01*
X160002795Y-121560256D01*
X160116063Y-121729774D01*
X160260226Y-121873937D01*
X160429744Y-121987205D01*
X160618102Y-122065226D01*
X160818061Y-122105000D01*
X160979981Y-122105000D01*
X160979981Y-122346304D01*
X160911043Y-122415242D01*
X160797775Y-122584760D01*
X160719754Y-122773118D01*
X160679980Y-122973077D01*
X160679980Y-123176955D01*
X160719754Y-123376914D01*
X160797775Y-123565272D01*
X160911043Y-123734790D01*
X161055206Y-123878953D01*
X161224724Y-123992221D01*
X161413082Y-124070242D01*
X161613041Y-124110016D01*
X161816919Y-124110016D01*
X162016878Y-124070242D01*
X162205236Y-123992221D01*
X162374754Y-123878953D01*
X162518917Y-123734790D01*
X162632185Y-123565272D01*
X162701017Y-123399098D01*
X162806842Y-123442932D01*
X163093740Y-123500000D01*
X163386260Y-123500000D01*
X163673158Y-123442932D01*
X163943411Y-123330990D01*
X164115001Y-123216337D01*
X164115001Y-136415000D01*
X137585000Y-136415000D01*
X137585000Y-133600000D01*
X140461928Y-133600000D01*
X140461928Y-135200000D01*
X140474188Y-135324482D01*
X140510498Y-135444180D01*
X140569463Y-135554494D01*
X140648815Y-135651185D01*
X140745506Y-135730537D01*
X140855820Y-135789502D01*
X140975518Y-135825812D01*
X141100000Y-135838072D01*
X142700000Y-135838072D01*
X142824482Y-135825812D01*
X142944180Y-135789502D01*
X143054494Y-135730537D01*
X143151185Y-135651185D01*
X143230537Y-135554494D01*
X143289502Y-135444180D01*
X143325812Y-135324482D01*
X143338072Y-135200000D01*
X143338072Y-133600000D01*
X143325812Y-133475518D01*
X143289502Y-133355820D01*
X143230537Y-133245506D01*
X143151185Y-133148815D01*
X143134607Y-133135210D01*
X143171680Y-133079727D01*
X143279853Y-132818574D01*
X143335000Y-132541335D01*
X143335000Y-132258665D01*
X143279853Y-131981426D01*
X143171680Y-131720273D01*
X143014637Y-131485241D01*
X142929396Y-131400000D01*
X143014637Y-131314759D01*
X143171680Y-131079727D01*
X143279853Y-130818574D01*
X143335000Y-130541335D01*
X143335000Y-130258665D01*
X143313979Y-130152986D01*
X153985000Y-130152986D01*
X153985000Y-130347014D01*
X154022853Y-130537314D01*
X154097104Y-130716572D01*
X154204901Y-130877901D01*
X154342099Y-131015099D01*
X154503428Y-131122896D01*
X154682686Y-131197147D01*
X154872986Y-131235000D01*
X155067014Y-131235000D01*
X155257314Y-131197147D01*
X155436572Y-131122896D01*
X155597901Y-131015099D01*
X155735099Y-130877901D01*
X155842896Y-130716572D01*
X155917147Y-130537314D01*
X155955000Y-130347014D01*
X155955000Y-130152986D01*
X159765000Y-130152986D01*
X159765000Y-130347014D01*
X159802853Y-130537314D01*
X159877104Y-130716572D01*
X159984901Y-130877901D01*
X160122099Y-131015099D01*
X160283428Y-131122896D01*
X160462686Y-131197147D01*
X160652986Y-131235000D01*
X160847014Y-131235000D01*
X161037314Y-131197147D01*
X161216572Y-131122896D01*
X161377901Y-131015099D01*
X161515099Y-130877901D01*
X161622896Y-130716572D01*
X161697147Y-130537314D01*
X161735000Y-130347014D01*
X161735000Y-130152986D01*
X161697147Y-129962686D01*
X161622896Y-129783428D01*
X161515099Y-129622099D01*
X161377901Y-129484901D01*
X161216572Y-129377104D01*
X161037314Y-129302853D01*
X160847014Y-129265000D01*
X160652986Y-129265000D01*
X160462686Y-129302853D01*
X160283428Y-129377104D01*
X160122099Y-129484901D01*
X159984901Y-129622099D01*
X159877104Y-129783428D01*
X159802853Y-129962686D01*
X159765000Y-130152986D01*
X155955000Y-130152986D01*
X155917147Y-129962686D01*
X155842896Y-129783428D01*
X155735099Y-129622099D01*
X155597901Y-129484901D01*
X155436572Y-129377104D01*
X155257314Y-129302853D01*
X155067014Y-129265000D01*
X154872986Y-129265000D01*
X154682686Y-129302853D01*
X154503428Y-129377104D01*
X154342099Y-129484901D01*
X154204901Y-129622099D01*
X154097104Y-129783428D01*
X154022853Y-129962686D01*
X153985000Y-130152986D01*
X143313979Y-130152986D01*
X143279853Y-129981426D01*
X143171680Y-129720273D01*
X143014637Y-129485241D01*
X142814759Y-129285363D01*
X142579727Y-129128320D01*
X142318574Y-129020147D01*
X142041335Y-128965000D01*
X141758665Y-128965000D01*
X141481426Y-129020147D01*
X141220273Y-129128320D01*
X140985241Y-129285363D01*
X140785363Y-129485241D01*
X140628320Y-129720273D01*
X140520147Y-129981426D01*
X140465000Y-130258665D01*
X140465000Y-130541335D01*
X140520147Y-130818574D01*
X140628320Y-131079727D01*
X140785363Y-131314759D01*
X140870604Y-131400000D01*
X140785363Y-131485241D01*
X140628320Y-131720273D01*
X140520147Y-131981426D01*
X140465000Y-132258665D01*
X140465000Y-132541335D01*
X140520147Y-132818574D01*
X140628320Y-133079727D01*
X140665393Y-133135210D01*
X140648815Y-133148815D01*
X140569463Y-133245506D01*
X140510498Y-133355820D01*
X140474188Y-133475518D01*
X140461928Y-133600000D01*
X137585000Y-133600000D01*
X137585000Y-113063020D01*
X137746589Y-113170990D01*
X138016842Y-113282932D01*
X138303740Y-113340000D01*
X138596260Y-113340000D01*
X138883158Y-113282932D01*
X139153411Y-113170990D01*
X139396632Y-113008475D01*
X139603475Y-112801632D01*
X139765990Y-112558411D01*
X139877932Y-112288158D01*
X139935000Y-112001260D01*
X139935000Y-111708740D01*
X139918388Y-111625229D01*
X140068061Y-111655000D01*
X140271939Y-111655000D01*
X140471898Y-111615226D01*
X140658189Y-111538061D01*
X143655000Y-111538061D01*
X143655000Y-111741939D01*
X143694774Y-111941898D01*
X143772795Y-112130256D01*
X143886063Y-112299774D01*
X144030226Y-112443937D01*
X144199744Y-112557205D01*
X144388102Y-112635226D01*
X144588061Y-112675000D01*
X144791939Y-112675000D01*
X144991898Y-112635226D01*
X145180256Y-112557205D01*
X145349774Y-112443937D01*
X145418711Y-112375000D01*
X145721829Y-112375000D01*
X145797606Y-112450777D01*
X145967124Y-112564045D01*
X146155482Y-112642066D01*
X146355441Y-112681840D01*
X146559319Y-112681840D01*
X146759278Y-112642066D01*
X146947636Y-112564045D01*
X147117154Y-112450777D01*
X147261317Y-112306614D01*
X147374585Y-112137096D01*
X147452606Y-111948738D01*
X147492380Y-111748779D01*
X147492380Y-111544901D01*
X147452606Y-111344942D01*
X147374585Y-111156584D01*
X147261317Y-110987066D01*
X147117154Y-110842903D01*
X146947636Y-110729635D01*
X146759278Y-110651614D01*
X146559319Y-110611840D01*
X146355441Y-110611840D01*
X146155482Y-110651614D01*
X145967124Y-110729635D01*
X145797606Y-110842903D01*
X145735509Y-110905000D01*
X145418711Y-110905000D01*
X145349774Y-110836063D01*
X145180256Y-110722795D01*
X144991898Y-110644774D01*
X144791939Y-110605000D01*
X144588061Y-110605000D01*
X144388102Y-110644774D01*
X144199744Y-110722795D01*
X144030226Y-110836063D01*
X143886063Y-110980226D01*
X143772795Y-111149744D01*
X143694774Y-111338102D01*
X143655000Y-111538061D01*
X140658189Y-111538061D01*
X140660256Y-111537205D01*
X140829774Y-111423937D01*
X140973937Y-111279774D01*
X141087205Y-111110256D01*
X141165226Y-110921898D01*
X141205000Y-110721939D01*
X141205000Y-110518061D01*
X141165226Y-110318102D01*
X141087205Y-110129744D01*
X140973937Y-109960226D01*
X140905002Y-109891291D01*
X140905002Y-105718711D01*
X140973939Y-105649774D01*
X141087207Y-105480256D01*
X141165228Y-105291898D01*
X141205002Y-105091939D01*
X141205002Y-104888061D01*
X141165228Y-104688102D01*
X141087207Y-104499744D01*
X140973939Y-104330226D01*
X140829776Y-104186063D01*
X140660258Y-104072795D01*
X140471900Y-103994774D01*
X140271941Y-103955000D01*
X140068063Y-103955000D01*
X139914474Y-103985550D01*
X139877932Y-103801842D01*
X139765990Y-103531589D01*
X139603475Y-103288368D01*
X139396632Y-103081525D01*
X139222240Y-102965000D01*
X139396632Y-102848475D01*
X139603475Y-102641632D01*
X139765990Y-102398411D01*
X139877932Y-102128158D01*
X139935000Y-101841260D01*
X139935000Y-101768061D01*
X155915000Y-101768061D01*
X155915000Y-101971939D01*
X155954774Y-102171898D01*
X156032795Y-102360256D01*
X156146063Y-102529774D01*
X156290226Y-102673937D01*
X156459744Y-102787205D01*
X156648102Y-102865226D01*
X156848061Y-102905000D01*
X157051939Y-102905000D01*
X157251898Y-102865226D01*
X157440256Y-102787205D01*
X157609774Y-102673937D01*
X157753937Y-102529774D01*
X157867205Y-102360256D01*
X157945226Y-102171898D01*
X157985000Y-101971939D01*
X157985000Y-101874446D01*
X158804199Y-101055248D01*
X158832239Y-101032236D01*
X158855252Y-101004195D01*
X158855255Y-101004192D01*
X158924088Y-100920319D01*
X158924089Y-100920318D01*
X158992339Y-100792631D01*
X159034367Y-100654083D01*
X159045002Y-100546103D01*
X159045002Y-100546094D01*
X159048557Y-100509999D01*
X159045002Y-100473904D01*
X159045002Y-95348711D01*
X159113939Y-95279774D01*
X159227207Y-95110256D01*
X159305228Y-94921898D01*
X159345002Y-94721939D01*
X159345002Y-94518061D01*
X159305228Y-94318102D01*
X159227207Y-94129744D01*
X159113939Y-93960226D01*
X158969776Y-93816063D01*
X158800258Y-93702795D01*
X158611900Y-93624774D01*
X158411941Y-93585000D01*
X158208063Y-93585000D01*
X158008104Y-93624774D01*
X157819746Y-93702795D01*
X157650228Y-93816063D01*
X157506065Y-93960226D01*
X157392797Y-94129744D01*
X157314776Y-94318102D01*
X157275002Y-94518061D01*
X157275002Y-94721939D01*
X157314776Y-94921898D01*
X157392797Y-95110256D01*
X157506065Y-95279774D01*
X157575003Y-95348712D01*
X157575002Y-100205551D01*
X156945554Y-100835000D01*
X156848061Y-100835000D01*
X156648102Y-100874774D01*
X156459744Y-100952795D01*
X156290226Y-101066063D01*
X156146063Y-101210226D01*
X156032795Y-101379744D01*
X155954774Y-101568102D01*
X155915000Y-101768061D01*
X139935000Y-101768061D01*
X139935000Y-101548740D01*
X139877932Y-101261842D01*
X139765990Y-100991589D01*
X139603475Y-100748368D01*
X139396632Y-100541525D01*
X139222240Y-100425000D01*
X139396632Y-100308475D01*
X139603475Y-100101632D01*
X139765990Y-99858411D01*
X139877932Y-99588158D01*
X139935000Y-99301260D01*
X139935000Y-99008740D01*
X139877932Y-98721842D01*
X139765990Y-98451589D01*
X139603475Y-98208368D01*
X139396632Y-98001525D01*
X139222240Y-97885000D01*
X139396632Y-97768475D01*
X139603475Y-97561632D01*
X139765990Y-97318411D01*
X139877932Y-97048158D01*
X139935000Y-96761260D01*
X139935000Y-96468740D01*
X139877932Y-96181842D01*
X139765990Y-95911589D01*
X139603475Y-95668368D01*
X139396632Y-95461525D01*
X139222240Y-95345000D01*
X139396632Y-95228475D01*
X139603475Y-95021632D01*
X139765990Y-94778411D01*
X139877932Y-94508158D01*
X139935000Y-94221260D01*
X139935000Y-93928740D01*
X139885344Y-93679103D01*
X142033157Y-91531290D01*
X142061197Y-91508278D01*
X142084210Y-91480237D01*
X142084213Y-91480234D01*
X142153046Y-91396361D01*
X142153047Y-91396360D01*
X142221297Y-91268673D01*
X142263325Y-91130125D01*
X142273960Y-91022145D01*
X142273960Y-91022138D01*
X142277515Y-90986041D01*
X142273960Y-90949944D01*
X142273960Y-88040130D01*
X143972931Y-88040130D01*
X143972931Y-88244008D01*
X144012705Y-88443967D01*
X144090726Y-88632325D01*
X144172932Y-88755355D01*
X144172931Y-89054646D01*
X144090726Y-89177675D01*
X144012705Y-89366033D01*
X143972931Y-89565992D01*
X143972931Y-89769870D01*
X144012705Y-89969829D01*
X144090726Y-90158187D01*
X144172932Y-90281217D01*
X144172931Y-93354646D01*
X144090726Y-93477675D01*
X144012705Y-93666033D01*
X143972931Y-93865992D01*
X143972931Y-94069870D01*
X144012705Y-94269829D01*
X144090726Y-94458187D01*
X144158064Y-94558965D01*
X144090726Y-94659744D01*
X144012705Y-94848102D01*
X143972931Y-95048061D01*
X143972931Y-95251939D01*
X144012705Y-95451898D01*
X144090726Y-95640256D01*
X144158064Y-95741035D01*
X144090726Y-95841813D01*
X144012705Y-96030171D01*
X143972931Y-96230130D01*
X143972931Y-96434008D01*
X144012705Y-96633967D01*
X144090726Y-96822325D01*
X144203994Y-96991843D01*
X144348157Y-97136006D01*
X144517675Y-97249274D01*
X144706033Y-97327295D01*
X144905992Y-97367069D01*
X145109870Y-97367069D01*
X145309829Y-97327295D01*
X145498187Y-97249274D01*
X145667705Y-97136006D01*
X145811868Y-96991843D01*
X145925136Y-96822325D01*
X146003157Y-96633967D01*
X146031184Y-96493061D01*
X151205000Y-96493061D01*
X151205000Y-96696939D01*
X151244774Y-96896898D01*
X151322795Y-97085256D01*
X151436063Y-97254774D01*
X151580226Y-97398937D01*
X151749744Y-97512205D01*
X151938102Y-97590226D01*
X152138061Y-97630000D01*
X152341939Y-97630000D01*
X152541898Y-97590226D01*
X152730256Y-97512205D01*
X152899774Y-97398937D01*
X153043937Y-97254774D01*
X153157205Y-97085256D01*
X153235226Y-96896898D01*
X153275000Y-96696939D01*
X153275000Y-96493061D01*
X153235226Y-96293102D01*
X153157205Y-96104744D01*
X153043937Y-95935226D01*
X152975000Y-95866289D01*
X152975000Y-90668711D01*
X153063937Y-90579774D01*
X153177205Y-90410256D01*
X153255226Y-90221898D01*
X153295000Y-90021939D01*
X153295000Y-89818061D01*
X153255226Y-89618102D01*
X153197218Y-89478057D01*
X154855000Y-89478057D01*
X154855000Y-89681935D01*
X154894774Y-89881894D01*
X154972795Y-90070252D01*
X155086063Y-90239770D01*
X155185001Y-90338708D01*
X155185000Y-97761289D01*
X155116063Y-97830226D01*
X155002795Y-97999744D01*
X154924774Y-98188102D01*
X154885000Y-98388061D01*
X154885000Y-98591939D01*
X154924774Y-98791898D01*
X155002795Y-98980256D01*
X155116063Y-99149774D01*
X155260226Y-99293937D01*
X155429744Y-99407205D01*
X155618102Y-99485226D01*
X155818061Y-99525000D01*
X156021939Y-99525000D01*
X156221898Y-99485226D01*
X156410256Y-99407205D01*
X156579774Y-99293937D01*
X156723937Y-99149774D01*
X156837205Y-98980256D01*
X156915226Y-98791898D01*
X156955000Y-98591939D01*
X156955000Y-98388061D01*
X156915226Y-98188102D01*
X156837205Y-97999744D01*
X156723937Y-97830226D01*
X156655000Y-97761289D01*
X156655000Y-90278707D01*
X156693937Y-90239770D01*
X156807205Y-90070252D01*
X156885226Y-89881894D01*
X156925000Y-89681935D01*
X156925000Y-89478057D01*
X156885226Y-89278098D01*
X156807205Y-89089740D01*
X156693937Y-88920222D01*
X156549774Y-88776059D01*
X156380256Y-88662791D01*
X156191898Y-88584770D01*
X155991939Y-88544996D01*
X155788061Y-88544996D01*
X155588102Y-88584770D01*
X155399744Y-88662791D01*
X155230226Y-88776059D01*
X155086063Y-88920222D01*
X154972795Y-89089740D01*
X154894774Y-89278098D01*
X154855000Y-89478057D01*
X153197218Y-89478057D01*
X153177205Y-89429744D01*
X153063937Y-89260226D01*
X152919774Y-89116063D01*
X152750256Y-89002795D01*
X152561898Y-88924774D01*
X152361939Y-88885000D01*
X152158061Y-88885000D01*
X151958102Y-88924774D01*
X151769744Y-89002795D01*
X151600226Y-89116063D01*
X151456063Y-89260226D01*
X151342795Y-89429744D01*
X151264774Y-89618102D01*
X151225000Y-89818061D01*
X151225000Y-90021939D01*
X151264774Y-90221898D01*
X151342795Y-90410256D01*
X151456063Y-90579774D01*
X151505001Y-90628712D01*
X151505000Y-95866289D01*
X151436063Y-95935226D01*
X151322795Y-96104744D01*
X151244774Y-96293102D01*
X151205000Y-96493061D01*
X146031184Y-96493061D01*
X146042931Y-96434008D01*
X146042931Y-96230130D01*
X146003157Y-96030171D01*
X145925136Y-95841813D01*
X145857798Y-95741035D01*
X145925136Y-95640256D01*
X146003157Y-95451898D01*
X146042931Y-95251939D01*
X146042931Y-95048061D01*
X146003157Y-94848102D01*
X145964593Y-94755000D01*
X146366715Y-94755000D01*
X146489744Y-94837205D01*
X146678102Y-94915226D01*
X146878061Y-94955000D01*
X147081939Y-94955000D01*
X147281898Y-94915226D01*
X147470256Y-94837205D01*
X147639774Y-94723937D01*
X147783937Y-94579774D01*
X147897205Y-94410256D01*
X147975226Y-94221898D01*
X148015000Y-94021939D01*
X148015000Y-93818061D01*
X147975226Y-93618102D01*
X147897205Y-93429744D01*
X147783937Y-93260226D01*
X147639774Y-93116063D01*
X147470256Y-93002795D01*
X147281898Y-92924774D01*
X147081939Y-92885000D01*
X146878061Y-92885000D01*
X146678102Y-92924774D01*
X146489744Y-93002795D01*
X146366715Y-93085000D01*
X145842931Y-93085000D01*
X145842931Y-90281216D01*
X145925136Y-90158187D01*
X146003157Y-89969829D01*
X146042931Y-89769870D01*
X146042931Y-89565992D01*
X146003157Y-89366033D01*
X145925136Y-89177675D01*
X145842931Y-89054646D01*
X145842931Y-88755354D01*
X145925136Y-88632325D01*
X146003157Y-88443967D01*
X146042931Y-88244008D01*
X146042931Y-88040130D01*
X146003157Y-87840171D01*
X145925136Y-87651813D01*
X145811868Y-87482295D01*
X145667705Y-87338132D01*
X145498187Y-87224864D01*
X145309829Y-87146843D01*
X145109870Y-87107069D01*
X144905992Y-87107069D01*
X144706033Y-87146843D01*
X144517675Y-87224864D01*
X144348157Y-87338132D01*
X144203994Y-87482295D01*
X144090726Y-87651813D01*
X144012705Y-87840171D01*
X143972931Y-88040130D01*
X142273960Y-88040130D01*
X142273960Y-85431300D01*
X142816849Y-85431300D01*
X142890866Y-85505317D01*
X143060384Y-85618585D01*
X143248742Y-85696606D01*
X143448701Y-85736380D01*
X143652579Y-85736380D01*
X143852538Y-85696606D01*
X144040896Y-85618585D01*
X144210414Y-85505317D01*
X144354577Y-85361154D01*
X144467845Y-85191636D01*
X144545866Y-85003278D01*
X144585640Y-84803319D01*
X144585640Y-84599441D01*
X144545866Y-84399482D01*
X144467845Y-84211124D01*
X144354577Y-84041606D01*
X144268861Y-83955890D01*
X144364737Y-83860014D01*
X144478005Y-83690496D01*
X144556026Y-83502138D01*
X144595800Y-83302179D01*
X144595800Y-83098301D01*
X144556026Y-82898342D01*
X144478005Y-82709984D01*
X144364737Y-82540466D01*
X144273941Y-82449670D01*
X144364737Y-82358874D01*
X144478005Y-82189356D01*
X144556026Y-82000998D01*
X144595800Y-81801039D01*
X144595800Y-81597161D01*
X144556026Y-81397202D01*
X144478005Y-81208844D01*
X144364737Y-81039326D01*
X144220574Y-80895163D01*
X144051056Y-80781895D01*
X143862698Y-80703874D01*
X143662739Y-80664100D01*
X143458861Y-80664100D01*
X143258902Y-80703874D01*
X143070544Y-80781895D01*
X142901026Y-80895163D01*
X142832375Y-80963814D01*
X142829470Y-80964100D01*
X142721490Y-80974735D01*
X142582942Y-81016763D01*
X142455255Y-81085013D01*
X142343337Y-81176862D01*
X142320321Y-81204907D01*
X140185808Y-83339421D01*
X140157763Y-83362437D01*
X140065914Y-83474355D01*
X140031315Y-83539086D01*
X139997664Y-83602042D01*
X139955635Y-83740590D01*
X139941444Y-83884675D01*
X139945001Y-83920790D01*
X139945000Y-86460553D01*
X139935000Y-86470553D01*
X139935000Y-86308740D01*
X139877932Y-86021842D01*
X139765990Y-85751589D01*
X139603475Y-85508368D01*
X139396632Y-85301525D01*
X139222240Y-85185000D01*
X139396632Y-85068475D01*
X139603475Y-84861632D01*
X139765990Y-84618411D01*
X139877932Y-84348158D01*
X139935000Y-84061260D01*
X139935000Y-83768740D01*
X139877932Y-83481842D01*
X139765990Y-83211589D01*
X139603475Y-82968368D01*
X139396632Y-82761525D01*
X139222240Y-82645000D01*
X139396632Y-82528475D01*
X139603475Y-82321632D01*
X139765990Y-82078411D01*
X139877932Y-81808158D01*
X139935000Y-81521260D01*
X139935000Y-81228740D01*
X139877932Y-80941842D01*
X139765990Y-80671589D01*
X139603475Y-80428368D01*
X139396632Y-80221525D01*
X139222240Y-80105000D01*
X139396632Y-79988475D01*
X139603475Y-79781632D01*
X139765990Y-79538411D01*
X139877932Y-79268158D01*
X139935000Y-78981260D01*
X139935000Y-78688740D01*
X139877932Y-78401842D01*
X139765990Y-78131589D01*
X139603475Y-77888368D01*
X139396632Y-77681525D01*
X139222240Y-77565000D01*
X139396632Y-77448475D01*
X139603475Y-77241632D01*
X139765990Y-76998411D01*
X139877932Y-76728158D01*
X139935000Y-76441260D01*
X139935000Y-76148740D01*
X139877932Y-75861842D01*
X139765990Y-75591589D01*
X139603475Y-75348368D01*
X139396632Y-75141525D01*
X139222240Y-75025000D01*
X139396632Y-74908475D01*
X139603475Y-74701632D01*
X139765990Y-74458411D01*
X139877932Y-74188158D01*
X139935000Y-73901260D01*
X139935000Y-73608740D01*
X139877932Y-73321842D01*
X139765990Y-73051589D01*
X139603475Y-72808368D01*
X139396632Y-72601525D01*
X139222240Y-72485000D01*
X139396632Y-72368475D01*
X139603475Y-72161632D01*
X139765990Y-71918411D01*
X139877932Y-71648158D01*
X139935000Y-71361260D01*
X139935000Y-71068740D01*
X139877932Y-70781842D01*
X139765990Y-70511589D01*
X139603475Y-70268368D01*
X139396632Y-70061525D01*
X139153411Y-69899010D01*
X138883158Y-69787068D01*
X138596260Y-69730000D01*
X138303740Y-69730000D01*
X138016842Y-69787068D01*
X137746589Y-69899010D01*
X137585000Y-70006980D01*
X137585000Y-67785000D01*
X164115000Y-67785000D01*
X164115000Y-70013662D01*
G37*
%TD.AperFunction*%
M02*
